<svg xmlns="http://www.w3.org/2000/svg" width="150" height="25">
  <g id="logo-woocommerce" fill="none" fill-rule="evenodd" stroke="none" stroke-width="1">
    <path id="Logo" fill="#000" d="M3.566 2h31.273a3.59 3.59 0 013.582 3.602v12.005a3.59 3.59 0 01-3.582 3.602H23.624L25.164 25l-6.77-3.791H3.582A3.59 3.59 0 010 17.607V5.602A3.577 3.577 0 013.566 2zm-1.65 3.27c-.22.284-.298.648-.25 1.058.926 5.924 1.79 9.92 2.591 11.99.314.758.676 1.122 1.1 1.09.66-.048 1.445-.964 2.371-2.749.487-1.01 1.241-2.527 2.262-4.55.848 2.987 2.01 5.23 3.472 6.73.408.427.832.616 1.24.585.362-.032.645-.222.833-.569.157-.3.22-.648.188-1.043-.094-1.437.048-3.443.44-6.018.409-2.654.911-4.565 1.524-5.703.126-.237.173-.474.157-.758a1.239 1.239 0 00-.487-.9c-.298-.237-.628-.348-.99-.316-.455.031-.8.253-1.036.695-.974 1.785-1.665 4.676-2.074 8.688-.597-1.516-1.099-3.302-1.492-5.402-.173-.933-.597-1.375-1.288-1.327-.471.031-.864.347-1.178.947l-3.44 6.588c-.565-2.291-1.1-5.087-1.586-8.388-.11-.822-.566-1.201-1.367-1.138-.44.032-.77.19-.99.49zm33.772 2.48c-.566-.995-1.398-1.596-2.514-1.832a4.1 4.1 0 00-.848-.095c-1.508 0-2.733.79-3.691 2.37-.817 1.342-1.225 2.827-1.225 4.454 0 1.216.251 2.259.754 3.128.565.995 1.398 1.595 2.513 1.832.298.063.581.095.848.095 1.524 0 2.749-.79 3.691-2.37.817-1.358 1.225-2.843 1.225-4.47 0-1.232-.25-2.26-.753-3.112zm-9.849 0c-.565-.995-1.414-1.596-2.513-1.832a4.1 4.1 0 00-.848-.095c-1.508 0-2.733.79-3.692 2.37-.816 1.342-1.225 2.827-1.225 4.454 0 1.216.252 2.259.754 3.128.566.995 1.398 1.595 2.513 1.832.299.063.582.095.848.095 1.524 0 2.75-.79 3.692-2.37.817-1.358 1.225-2.843 1.225-4.47 0-1.232-.251-2.26-.754-3.112zm7.87 4.376c-.22 1.042-.613 1.816-1.194 2.338-.456.41-.88.584-1.273.505-.377-.079-.69-.41-.926-1.027a4.028 4.028 0 01-.283-1.437c0-.395.031-.79.11-1.153.141-.648.408-1.28.832-1.88.519-.774 1.069-1.09 1.634-.98.377.08.691.411.927 1.027.188.49.283.98.283 1.438 0 .41-.048.805-.11 1.169zm-9.849 0c-.22 1.042-.613 1.816-1.194 2.338-.455.41-.88.584-1.272.505-.377-.079-.691-.41-.927-1.027a4.028 4.028 0 01-.283-1.437c0-.395.032-.79.11-1.153.142-.648.409-1.28.833-1.88.518-.774 1.068-1.09 1.634-.98.376.08.69.411.926 1.027.189.49.283.98.283 1.438 0 .41-.032.805-.11 1.169zm86.58.71v1.975h2.983v2.29h-5.858V6.345h5.843v2.29h-2.969v1.975H113v2.227h-2.56zm-9.378-5.228c1.052-1.043 2.387-1.564 3.974-1.548a6.52 6.52 0 011.712.205v2.56a5.834 5.834 0 00-1.57-.238c-.755 0-1.368.285-1.87.869-.487.569-.738 1.311-.738 2.212 0 .963.25 1.722.754 2.29.502.553 1.162.837 1.994.837.409 0 .88-.079 1.43-.237v2.56a5.899 5.899 0 01-1.634.252c-1.68 0-3.031-.537-4.068-1.595-1.037-1.059-1.555-2.465-1.555-4.187 0-1.61.518-2.938 1.57-3.98zm-6.582 3.364c1.273-.015 1.917-.394 1.917-1.137 0-.505-.142-.853-.44-1.074-.299-.221-.786-.332-1.477-.347v2.558zm4.43.174c-.299.49-.739.853-1.288 1.106l2.309 4.85h-3.048l-2.34-4.897h-.047v4.897h-2.89V6.344h3.361c1.35 0 2.435.3 3.22.885.785.584 1.178 1.39 1.178 2.4 0 .522-.157 1.027-.455 1.517zm-11.105 1.706v1.975h2.968v2.29h-5.858V6.36h5.843v2.29h-2.953v1.975h2.56v2.227h-2.56zm-8.89-6.508h3.722l1.445 10.758h-2.859l-.77-7.393-1.774 7.393H76.73l-1.87-7.41-.737 7.41H71.39l1.366-10.758H76.4c.519 2.322.927 4.312 1.225 5.987l.314-1.675a56.48 56.48 0 01.409-1.895l.565-2.417zm-13.085 0h3.738l1.445 10.758h-2.858l-.77-7.393-1.79 7.393h-1.948l-1.87-7.41-.738 7.41h-2.733l1.367-10.758h3.644c.518 2.322.927 4.312 1.225 5.987l.314-1.675a56.48 56.48 0 01.409-1.895l.565-2.417zm-11.293 7.914c.282-.442.44-1.327.455-2.622 0-2.101-.566-3.144-1.665-3.144-1.052 0-1.57 1.027-1.57 3.096 0 1.343.125 2.228.392 2.67.267.442.644.664 1.147.664.534 0 .958-.222 1.24-.664zm-1.241-8.214c1.539 0 2.717.49 3.55 1.453.816.98 1.225 2.37 1.225 4.17 0 1.801-.409 3.207-1.21 4.202-.801.996-1.948 1.501-3.44 1.501-1.539 0-2.717-.505-3.518-1.5-.801-.996-1.21-2.433-1.21-4.313 0-1.738.393-3.096 1.21-4.06.817-.963 1.948-1.453 3.393-1.453zM42.395 7.608c1.052-1.043 2.371-1.564 3.974-1.548a6.54 6.54 0 011.712.205v2.56a5.835 5.835 0 00-1.571-.238c-.754 0-1.367.285-1.87.869-.486.569-.737 1.311-.737 2.212 0 .963.25 1.722.754 2.29.502.553 1.162.837 1.994.837.409 0 .88-.079 1.43-.237v2.56a5.899 5.899 0 01-1.634.252c-1.68 0-3.031-.537-4.068-1.595-1.037-1.059-1.555-2.465-1.555-4.187 0-1.61.518-2.938 1.57-3.98z"/>
  </g>
</svg>
