<svg xmlns="http://www.w3.org/2000/svg" width="150" height="25"><path fill-rule="evenodd" d="M3.57 2h31.27a3.59 3.59 0 0 1 3.58 3.6v12a3.59 3.59 0 0 1-3.58 3.6H23.62l1.54 3.8-6.77-3.8H3.6A3.59 3.59 0 0 1 0 17.6v-12A3.58 3.58 0 0 1 3.57 2zM1.92 5.27c-.22.28-.3.65-.25 1.06.92 5.92 1.79 9.92 2.59 11.99.31.76.67 1.12 1.1 1.09.66-.05 1.44-.97 2.37-2.75a307.2 307.2 0 0 1 2.26-4.55c.85 2.99 2.01 5.23 3.47 6.73.41.43.83.61 1.24.58.36-.03.65-.22.84-.57.15-.3.22-.64.18-1.04-.1-1.43.05-3.44.44-6.02.41-2.65.91-4.56 1.53-5.7.12-.24.17-.47.15-.76a1.24 1.24 0 0 0-.48-.9 1.4 1.4 0 0 0-1-.31c-.45.03-.8.25-1.03.7-.97 1.78-1.66 4.67-2.07 8.68-.6-1.52-1.1-3.3-1.5-5.4-.17-.94-.6-1.38-1.28-1.33-.47.03-.87.35-1.18.95L5.86 14.3c-.57-2.3-1.1-5.1-1.59-8.4-.1-.81-.56-1.2-1.36-1.13a1.3 1.3 0 0 0-1 .49zm33.77 2.48a3.6 3.6 0 0 0-2.52-1.83 4.1 4.1 0 0 0-.84-.1c-1.51 0-2.74.8-3.7 2.37a8.4 8.4 0 0 0-1.22 4.46c0 1.21.25 2.26.75 3.13.57.99 1.4 1.59 2.52 1.83.3.06.58.1.84.1 1.53 0 2.75-.8 3.7-2.38a8.5 8.5 0 0 0 1.22-4.47 6 6 0 0 0-.75-3.11zm-9.85 0c-.57-1-1.42-1.6-2.51-1.83a4.1 4.1 0 0 0-.85-.1c-1.51 0-2.74.8-3.7 2.37a8.4 8.4 0 0 0-1.22 4.46c0 1.21.25 2.26.75 3.13.57.99 1.4 1.59 2.52 1.83.3.06.58.1.85.1 1.52 0 2.75-.8 3.69-2.38a8.5 8.5 0 0 0 1.22-4.47 6 6 0 0 0-.75-3.11zm7.87 4.38a4.2 4.2 0 0 1-1.2 2.33c-.45.41-.88.59-1.27.5-.38-.07-.69-.4-.92-1.02a4.03 4.03 0 0 1-.29-1.43 5.11 5.11 0 0 1 .94-3.03c.52-.78 1.07-1.1 1.64-.99.38.08.69.41.93 1.03.18.49.28.98.28 1.44 0 .4-.05.8-.11 1.17zm-9.85 0a4.2 4.2 0 0 1-1.2 2.33c-.45.41-.87.59-1.27.5-.37-.07-.69-.4-.92-1.02a4.03 4.03 0 0 1-.29-1.43 5.13 5.13 0 0 1 .94-3.03c.52-.78 1.07-1.1 1.64-.99.38.08.7.41.93 1.03a4 4 0 0 1 .28 1.44c0 .4-.03.8-.11 1.17zm86.58.7v1.98h2.98v2.3h-5.85V6.33h5.84v2.3h-2.97v1.97H113v2.23h-2.56zm-9.38-5.22a5.35 5.35 0 0 1 3.98-1.55 6.52 6.52 0 0 1 1.7.2v2.57a5.83 5.83 0 0 0-1.56-.24c-.76 0-1.37.28-1.87.87a3.3 3.3 0 0 0-.74 2.2c0 .97.25 1.73.75 2.3.5.55 1.17.84 2 .84.4 0 .88-.08 1.43-.24v2.56a5.9 5.9 0 0 1-1.64.25 5.44 5.44 0 0 1-4.06-1.6 5.74 5.74 0 0 1-1.56-4.18c0-1.61.52-2.94 1.57-3.98zm-6.58 3.36c1.27-.01 1.92-.4 1.92-1.13 0-.51-.15-.86-.44-1.08-.3-.22-.79-.33-1.48-.35v2.56zm4.43.18c-.3.49-.74.85-1.29 1.1l2.31 4.85h-3.05l-2.34-4.9h-.04v4.9h-2.9V6.34h3.37c1.35 0 2.43.3 3.22.89a2.84 2.84 0 0 1 1.17 2.4 2.9 2.9 0 0 1-.45 1.52zm-11.1 1.7v1.98h2.96v2.29h-5.85V6.36h5.84v2.29H87.8v1.97h2.56v2.23H87.8zm-8.9-6.5h3.73l1.44 10.75h-2.86l-.77-7.4-1.77 7.4h-1.95l-1.87-7.4-.74 7.4H71.4l1.37-10.76h3.64c.52 2.33.93 4.32 1.23 6l.3-1.68a56.48 56.48 0 0 1 .42-1.9l.56-2.42zm-13.08 0h3.74L71 17.1h-2.86l-.77-7.4-1.79 7.4h-1.94l-1.87-7.4-.74 7.4H58.3l1.36-10.76h3.65c.51 2.33.92 4.32 1.22 6l.32-1.68a56.48 56.48 0 0 1 .4-1.9l.57-2.42zm-11.3 7.9c.29-.43.45-1.32.46-2.61 0-2.1-.56-3.15-1.66-3.15-1.06 0-1.57 1.03-1.57 3.1 0 1.34.12 2.23.39 2.67.27.44.64.66 1.15.66.53 0 .95-.22 1.24-.66zm-1.23-8.2c1.53 0 2.71.48 3.55 1.45.81.98 1.22 2.37 1.22 4.17 0 1.8-.4 3.2-1.2 4.2-.81 1-1.96 1.5-3.45 1.5-1.54 0-2.72-.5-3.52-1.5-.8-1-1.2-2.43-1.2-4.31 0-1.74.39-3.1 1.2-4.06a4.22 4.22 0 0 1 3.4-1.46zM42.4 7.6a5.33 5.33 0 0 1 3.97-1.55 6.54 6.54 0 0 1 1.71.2v2.56a5.83 5.83 0 0 0-1.57-.23c-.75 0-1.37.28-1.87.87a3.3 3.3 0 0 0-.74 2.2c0 .97.25 1.73.76 2.3.5.55 1.16.83 2 .83.4 0 .87-.07 1.42-.23v2.56a5.9 5.9 0 0 1-1.63.25 5.44 5.44 0 0 1-4.07-1.6 5.74 5.74 0 0 1-1.56-4.18c0-1.61.52-2.94 1.57-3.98z"/></svg>