<svg xmlns="http://www.w3.org/2000/svg" width="292" height="238"><defs><linearGradient id="a" x1="0%" x2="100%" y1="50%" y2="50%"><stop offset="0%" stop-color="#FFF"/><stop offset="100%" stop-color="#FFF" stop-opacity="0"/></linearGradient></defs><g fill="none" fill-rule="evenodd"><path fill="#666" fill-rule="nonzero" d="m51.92 118.84.44-.28 5.95 14.04.05.2v2.38l1.2 2.22.57.31 1.72-.22.95-1.86c.3-.41.83-.5 1.37-.51h.67c.64.03 1.3.07 1.86.39 0 0-.2-.19.22-.58l1.78-1.2a3.97 3.97 0 0 1 2.9-.14l5.26 2.56.31.2 1.13.12c.32-.25.83-.23 1.2-.07l2.04 1.1c.12.1.12.1.22.23l.26.98c-.54.77-.7.68-.7.68l-1.88.23-.5.56c-.33.12-1.05-.31-1.05-.31l-2.23-.42-.57-.88-1.58-.17c-.7-.14-1.07-1.1-1.07-1.1L70 136.05l-2.23.6c-.8-.14-.59-.04-.59-.04l-.88 2.5c-.13.26-.31.5-.31.5l2.02.04a7.18 7.18 0 0 1 .87.37c.57.28 1.5.81 1.2 1.66l-.32 2.76.58.73.27.15.94-.46c.37-.14.6-.1.81-.04l1.57.72.66-1.26c.13-.17.3-.31.5-.41l3.24-1.23a.67.67 0 0 1 .32-.01s1.45-.1 1.94.59c.4.54.57.67.97.87 1.4.74 3.04.1 4.47-.22 0 0 1.43.23 1.23 1.22l1.3.92.97 1.24c1 .28 2 .57 3.02.56l.62.22 1.82 1c.1.15.1.16.12.34l-.78 31.9-.6 1.74a1.36 1.36 0 0 1-.44.54l-.95.56c-.5.24-1.09.05-1.09.05l.16 1.05-.77 1.58c-.14.23-.35.4-.6.52l-2.65.88c-.2.06-.52.04-.52.04l-.02 1.3a.68.68 0 0 1-.2.27l-.5.33c-.63.3-.46.39-.46.39l-.6 1.49c-.05.1-.05.1-.13.19l-.53.47-.24 1.43-.98.83.85.85.07 1.25c-.02.24-.1.47-.23.66l-2.46 2.98-.07.75.6.95-.07.49.44.96 1.87 1.45.26.93s.14.11-.7.71l-1.04.1a.96.96 0 0 1-.11.06c-.84.42.07.63-.9.89l-.6.06c-.19-.02-.19-.02-.36-.1l-1.67-1.24-1.6-.38c-.19-.18-.25-.4-.3-.54 0 0-.51 0-.86-.3-.5-.4-.45-1.46-.45-1.47.02-.24.04-.24.04-.24l-.28-.7.03-1-.42-1.37-.35-.64c-.06-.56.1-.65.3-.9l-.06-.43c0-.13 0-.13.03-.25l.21-.59-.51-.93c0-.18.04-.43.04-.43s-.63 0-.73-.6v-.62c.03-.16.03-.16.11-.31l.77-1.01c.33-.36.97-.4.97-.4l-.01-.82c-.94-.33-.79-1.61-.48-3.02l.53-2.13-.36-1.86a1.36 1.36 0 0 1 .08-.62l1.58-3.46.07-4.24 1.17-6.51-.22-2.27-4.07-2.53a1.46 1.46 0 0 1-.33-.39l-1.98-4.2-2.1-2.62s-.1.01-.23-.6l-.03-1.74.5-.61c-.22-.16-.4-.2-.3-1.04.37-1.18.4-2.51 1.6-3.14l.3-.34.86-.73c.15-1.14-.34-2.7-.34-2.7s-.69 1.02-1.55.58l-.99-.64-.63.14a.68.68 0 0 1-.34-.19l-.44-.53-.9-.74-.89-.23c-.1-.05-.23-.08-.37-.37l-.29-1.06-1.33-1.34c-.54-1.27.13.2-1.42-.21l-1.75-.67a.96.96 0 0 1-.22-.14l-1.58-1.23-2.22.27a1.49 1.49 0 0 1-.51-.1l-5.88-2.97a1.21 1.21 0 0 1-.54-.7l-.5-2.32-1.05-.95-.16.36-.76.71c-.24.16-.34.32-1.1-.13l-1.83-1.7c-.11-.12-.1-.05-.26-.36l-.63-1.54-1.45-.72c-.1-.14-.1-.14-.15-.3l-.08-.58c0-.46.21-.5.21-.5l-.45-.39c-.22-.2-.21-.24-.27-.36l-1.15-2.59a.63.63 0 0 1 .17-.63l9.4-6.02 1.53-1.07.03.08zm228.43 66.13.49.56c.05.1.13.18.09.48l-.57 1.82c-.18.38-.61.51-1.01.57l-1.14 2.06c-.1.12-.1.12-.23.21l-.53.26a.82.82 0 0 1-.63-.1l-.5.9.2.87c-.05.2 0 .33-.64.73l-.93.32-.63 1.77-.85.74a1.23 1.23 0 0 1-.83.25l-2.43-.36c-.9-.23-1.2-1.58-.64-2.22l1.37-1.95.22-.2 1.75-1.1 1.08-2.1 1.1-.62c-.19-.64.68-1.45.68-1.45l.15-.9-1.58-2.24c-.07-.14-.07-.14-.1-.3l.15-.94c.32-.22.24-.25.92-.37 0 0 1.73.55 2.21 1.67 0 0 .35.36.7.75l.65.9 1.33-.07.15.06zm-40.82-60.09-1.45.47c-.3.04-.4-.05-.5-.1l-.46-.42c-.2-.24-.17-.36-.17-.48l.26-1.3-.52-.79c-.08-.45-.85-.86-.85-.86-.37-.38-.23-1.16-.23-1.16s-.92.12-.47.46c.43.33.97.94.4 1.48l-1.95 1.12-.29.46 1.82 3.24.16.98c.16.23.14.24.17.39.05.24-.06.6-.06.6l-.32 1.3c-.25.56-1 .76-1 .76s-.75.77.23.76c.57 0 .5-.1 1 .8 0 0 .05.17-.01.52l-.86 2.8c-.27.51-.43.52-.67.61-.57.22-1.2-.4-1.2-.4a23.78 23.78 0 0 1-.23-.39c-.26-.48-.5-1.23-.5-1.23l-.6.48-2.57 1.13c-.76.18-.31.25-1.4.54l-1.14.2.1.5-.2 1.25c-.14.41-.6.72-.9.78l-1.44.1 1.16 1.45c.3.9.62 1.87.4 2.72l-.35 1.06a1.36 1.36 0 0 1-.43.54l-3.31 2.08c-.6.3-1.42-.37-1.42-.37-.29-.41-.12-1-.12-1l-1.13-.91-1.12-.58-.07.92.12.14 1.18 2.01s1.72 1.1 2.27 3.7a6.05 6.05 0 0 1 .11.67c.07.68-.34 1.44-.34 1.44l.15.11c.22.2.34.45.39.6l.15.67.23.1c.44.2.94.5.99 1.04 0 0-.49.92-.32 1.48.34 1.12 2.07.65 3.1.63l1-.02c.27 0 .52-.05.83.16l.6.6.56.46a.62.62 0 0 1 .47.42l.46.4c.29.33.18.4.17.54-.06.59-.64 1-1.23.94l-7.56-1.6c-.15-.06-.16-.06-.28-.17l-.69-.72-2.04-1.8-2.76-4.45-2.82-2.99-.2-1.08s-.12-.12.78-.6l.33-.05 2.14.39c.13.04.13.04.25.12l.59.53-.09-.49c-.84-.59-1.78-1.08-1.53-2.01l.96-2.53-1.1-2.56a1.35 1.35 0 0 1 .12-.65l.28-.51-1.05-1.59a1.34 1.34 0 0 1 .09-.78l.56-1.04c.32-.48.9-.62.9-.62l-3.08-.76s-.23 1.01-.9 1.38c-.59.33-1.44-.01-1.63-.73l-.46-.94-.23-.4.12.98c-.03.48-.27.98-.76 1.07-.35.06-.82-.17-.82-.17l-1 1.37-4.54 3.3-.23 3.61a11.08 11.08 0 0 1 .48.56l.32.42a6.26 6.26 0 0 1 .34.54c.3.53.54 1.24.14 1.8l-.18.16-1.93 1c-.4.12-.78-.4-.78-.4l-.44-1.4-.62.33c-.2.06-.29.18-.96-.17l-.8-.67a1.39 1.39 0 0 1-.3-.4l-2.55-6.03-.65-3.27s-.8.32-1.35-.15L190.9 136c-.26-.3-.3-.89-.3-.89-.68-.63-.82-.51-.82-.51l-.65-1.13-3.28.43c-.78-.04-1.07-1.12-1.07-1.12l.1-1.04c.22-1.1.91-1.01.91-1.01l-.05-.19-1.4-1.33c-.3-.35-.38-.85-.17-1.19l-.08-.84-.22-1.83c.07-.5.37-1.21 1.12-.94l.84.56.1.3.2 1.42 6.38-4.12c.05-.25-.12-.02.23-.58l-1.36.72c-.55.23-1.24-.14-1.24-.14-.15-.03.06.12-.45-.18l-.66.12-.29.64a.69.69 0 0 1-.2.23l-1.72 1.07c-.63.3-.8.14-1.06.02l-.87-.5c-.54-.4-.54-1.23-.54-1.23l-2.28-1.14-2.13.79c-.56.14-1.18-.11-1.35-.75-.05-.17-.04-1.25-.04-1.25l-.54-.44c-.4-.93-.2-2.08-.72-1.2-.15.25-.32.48-.57.64l-.56 1.48c-.15.25-.26.28-.36.32l-.57.13c-.42.03-.77-.3-.96-.77 0 0-.49.38-.82.34-.14-.02-.36-.16-.46-.21l.18.67s1.5.98 1.2 1.96l-.48 1.13 1.38 1.38.9 2.31a.68.68 0 0 1 .02.31l-.18.83 2.2 3.26.91.12 1.53-1.5a1.2 1.2 0 0 1 .72-.14c.08.01.17.03.25.06.6.23.87 1.16.87 1.16a.9.9 0 0 1-.02.37l2.4 1.68c.1.1.1.1.18.24l.19.96-.15.28-1.39 1.77.01.52c-.03.65-.19.64-.41.84l-1.44 1.04-2.45 1-1.36 1.17-4.82 1.74 3.95-.86a.68.68 0 0 1 .32.04l.56.25c.1.08.23.13.3.45l.08 1.67c-.01.15-.01.15-.07.28l-2.75 4.76a2.19 2.19 0 0 1-.19.23l-5.1 4.84-1.7 2.16-.19.83a33.9 33.9 0 0 1 .57 1.2c.18.42.35.84.5 1.26.1.3.21.6.24.9l.03 4.1a1.23 1.23 0 0 1-.39.82l-3.44 2.7-.83.49.56 3.15-.29.84a.69.69 0 0 1-.2.23l-1.71.99-.83 1.22-.18.08-12.31 2.82c-.13 0-.27.04-.52-.17l-2.12-2.58c-.08-.12-.08-.12-.11-.25l-.64-4.09-2.14-4.33s-.1-.01-.09-.66l.63-3.16.96-1.86-1.12-3.45c-.1-.15-.08-.17-.1-.25a1.2 1.2 0 0 1-.01-.55l-.61-.67-2.02-2.66c-.08-.14-.08-.14-.1-.29l-.03-.6c.04-.28.13-.35.21-.43l.44-.32-.09-.9.32-.78-.03-.3-.61-.25-1.53.35c-.29-.1-.22 0-.68-.4l-.97-1.24-1.26-.11s-.39.33-.76.49l-2.41.84a1.37 1.37 0 0 1-.67 0l-.56-.18-3.67.5-.29-.05-1.6-.77-1.84-1.47-1.5-1.16a2.05 2.05 0 0 1-.11-.22c-.26-.6-.22-.15-.13-.57l-.57-1c-.18-.03-.19-.05-.27-.08a1.33 1.33 0 0 1-.47-.37l-.4-.56-1-.7c-.2-.53-.1-1.28-.1-1.28l-.63-.9s-.17-.07.15-.84l.75-1.08.24-1.14-.5-1.57s-.47-.8-.12-1.44c-.17.28.02-.3.4-.55l2.68-5.17c.27-.37.23-.28.41-.42l1.5-.83.84-.92.28-1.99c.1-.3-.01-.23.41-.69l1.74-1.26.5-1.36-1.28.15c-1.28.02-1.15-1.13-1.15-1.13l.1-.92c-.4-.18-.44-1.1-.44-1.1l.45-3.03c.05-.12.07-.26.37-.42l3.87-1.12.58.23.05.43-2.08 6.44a.6.6 0 0 1 .2-.12 1.22 1.22 0 0 1 .7-.07l2.4.67 2.6-1.32 2.7-.47c1.14-.04 2.3-.03 3.44-.05-.33-.17-.44-.39-.54-.69l-.5-2.36c-.04-.48.5-.9.5-.9v-.52l.3-.64-.3.23c-1.23.91-1.31.6-1.31.6l-2.87.58h-.2l-3.44-.68s-.34.08-.42-.54l.2-3.27c.09-.33.07-.33.07-.33l-.51-.84-1.81-.96c-.12-.08-.12-.08-.2-.2 0 0-.3-.37-.35-.64-.09-.45.37-.87.37-.87l1.05-.82c.3-.16.8-.07.9-.06l.03-1.5.31-.28 4.1-1.34.27-.31.55-1.24c.7-1.2.48-.65 1.28-.92l1.6-.31.19.08 2.14 1.56 5.9-3.42c.48-.22 1.12.08 1.12.08l.4.3.61-.7-.13-.49c-.02-.13-.02-.13 0-.26l.57-2.34c.25-.65 1.6-.92 1.6-.92s-.57-.19-.14-1.27l.5-.75a1.37 1.37 0 0 1 .53-.41l1.34-.45a1.38 1.38 0 0 1 .54-.03s.88.49.63-.03a1.07 1.07 0 0 1 .08-1l2.5-3.29-.92-1.12c-.15-.47 0-.82.22-1.16l-.52-1.09a1.37 1.37 0 0 1-.06-.69l.32-1.29-.74-1.84s-.18-.05.04-.86l.53-1-.97-1.51c-.1-.42.05-1.05.05-1.05l-.75.03-.33.98c-.47.8-1.98.07-1.98.07l-.97.17c-.46.03-.77-.33-1.07-.58a5.36 5.36 0 0 1-.87-1.07.7.7 0 0 1 0-.31l.22-.69c.3-.54 1.3-.45 1.3-.45l2.2-.1.23-.57c.16-.29.46-.43.75-.59l1.4-.73c.88-.39 1.49.78 1.49.78s1.11.32 1.3.04c.48-.66 1.5-.28 1.5-.28l1.1 1.23.83.44.58-.17c.16.04.31.1.48.2l4.14 3.2c.41.48.3.41.4.71l.16 1.58c.99.1-.13.2.08-.84l.35-1.17-.78-1.33a.69.69 0 0 1 .03-.32l.23-.53c.35-.54.9-.38.9-.38 1.32.1 2.79.3 3.46 1.9l.24-.18 2.9-1.4 1.31-.84c.17-.07.34-.11.52-.12l.97.12c.38.1.46.49.5.8l.94.02 1.3-.94c.27-.05.03.26.41-.7.12-.3.66-.93.66-.93.65-.7 1.02-.39 1.6-.24 1.04.27 2.08.61 3.04 1.1l.33-1.78s-.82-.17-.36-1.37l1.36-2.12.68-2.84c0-.1.03-.23.09-.34.21-.42.75-.54 1.16-.49l2.8.66c.2.09.37.28.46.37 0 0-.1-.14.57-.76 0 0 0-.19 1.02.17 0 0 .82.73.99 1.55l.23-.06 1.62-.35c.09-.01.17-.02.26-.01l-.2-2.06c-.1-.3-.05-.32-.01-.45.1-.4.5-.64.86-.74l3.77-.62s-.16-.06-.22-.41l-.08-.6c-.14-.33-.04-.78-.04-.78l.54-1.15c.12-.1.42-.29.42-.29l.4-.67c.14-.1.15-.1.31-.13l.77-.05 1.02-1.13 2.39-.86.64-1.02c.14-.06.26-.13.6-.12l3.02.6.47-.55c-.07-.45 0-1.09.82-1.28l1-.13.22-1.45c.08-.16.12-.21.21-.32l2.3-2.3c.5-.4 1.39-.06 1.39-.06.78.67 1.66 1.4 1.73 2.3a1.45 1.45 0 0 1 .43.27l.59.7a8.9 8.9 0 0 1 1.14-.15c.64-.03 1.23-.13 1.83.5l1.21 1.51.54.36c.43.6.71 1.3.65 1.99l-.17 1.18-.36 1.4-1.48 1.8s-.86.37-.55.49l.67-.27.72.25c.12.12.12.12.19.27l.16.56.87-.3c2.22-.43 3.68 1.92 5.53 2.13l.08-1.12c.08-.32.26-.6.54-.76l.8-.42c.2-.08.25-.13.63-.09.17.03.33.1.48.2l1.2.93.3-.07c.45-.1.96-.18 1.39.16l1.28 1.27c.1.12.1.12.14.27l.11.57a.67.67 0 0 1-.03.3l-.35.82.48.9c0 .35-.16.36-.03 1 .06.31-.04.78-.04.78l.9-1.76.5-.3c.25-.1.37-.23 1.02.3l.67.81.21-.1c.43-.2.9-.37 1.4-.13l.58.25c.29-.35.8-.23.8-.23l-.32-.84c.3-.85.46-.81.46-.81l1.13-.56c.2-1.16.1.1-.7-.8-.37-.41-.2-1-.09-1.21l.92-1.45c.5-.65 1.6-.88 2.14-.53 0 0 2.04 1.68 1.7 3.11 0 0 2.8.34 4.35 1.73l.86 1.26c.07.18.09.36.01.54l.9.46.2.18.4.62 2.2-.5.33.01 2.41.53c.75.33 1.52 1.04 1.51 1.9l-.1.93.38.26s.32-.3.82-.29l3.22.4.59-.51a1.06 1.06 0 0 1 1.48.6l.26-1.07a.68.68 0 0 1 .26-.21l.57-.2a.7.7 0 0 1 .31-.02l2.45.68.4-.08c.66-.1 1.4-.2 1.97.1l3.16 2.05 3.83 2.85s.38.59.49.97l.45-.01 1.8.47a2 2 0 0 1 .37.22 9.5 9.5 0 0 1 .68.56 6.96 6.96 0 0 1 .48.48c.4.47.8 1.13.52 1.76l-.86 1.2c-.78.71-1.3 1.05-1.3 1.05l.23.6c-.33.84-.5.8-.5.8l-1.06.42a.68.68 0 0 1-.34 0l-.77-.27-1.45-.85a1.39 1.39 0 0 1-.44-.52l-.22-.59h-.84s-.5-.28-.72.2a1.44 1.44 0 0 1-.32.4l-.83.62c.28.82 1.27 3.2.85 2.44.07.16.06.17.07.24.05.39-.05.53-.16.73l-.73.96s-.01.17-.83.12l-1.22-.34-2.33 1.1-2.47 2.79c-.5.45-1.35.16-1.35.16l-.97-.66-1.4.98c-1.07.2-.34-.13-1.22.08a.97.97 0 0 1-.65-.08l-.55 1.3.16.12c.45.35.56 1.12.56 1.12l-.3.98.32.66c.14.43.17.28-.08.71-.21.38-.88.6-.88.6v1.09c-.06.35-.26.65-.57.83l-1.1.53-.05 1.12c-.36.81-1.23.72-1.23.72l-.15.67-1.52 1.81c-.55.54-.5.59-1.17.32-.34-.14-.55-.5-.64-.82l-.9-5.73.43-2.69.7-1.64c.14-.27.38-.48.67-.59l.78-.22 1.77-2.15s-.08.08-.56-.7l-.09-1.18-.19-.17-.36.06c-.69 1-1.41 2.13-1.41 3.19 0 0 .17.17-.56.94l-.29.16-3.07.52c-.13 0-.28.02-.51-.2l-.75-.9a1.25 1.25 0 0 1-.86.5l-4.76.04-4.41 4.8c.46.31.28.35.9.3l1.05.02c.19.04.19.04.35.14l.76.73.28-.7c.13-.13.13-.13.3-.2l1-.03c.6.66.95 1.6.95 2.48l-.14 1.83 1.31 3.61-.22 1.06s.06.15-.94.26l-.47-.21s1.25 2.5.2 3.14l.35.3.8-.2c.33.06.74.76.74.76.1.2.1.55.1.61l.35.76c-.35.86-.53.81-.53.81l-1.3.5-.4.76c-.28.33-.72.5-1.12.42l.3 1.35c.02.31.1.21-.13.8l-.82 1.27-.41 2.6c0 .18-.02.2-.05.28-.23.64-1.28.8-1.28.8s-.54.53-1.4.4l-.48.1-.98.84c-.77.5-1.89-.78-1.89-.78-.5.38-1 1.2-1 1.2l-1.06 1.7-.52.27c-.12.03-.24.09-.53-.05l-.72-.51c-.2-.2-.18-.2-.23-.3-.17-.36-.1-.93-.1-.93l-.34-.48-.13-.76c-.04-.49.05-.56.08-.58zm-64.65 37.65s1.23-1.29 2 .5c.6 1.38 1.39 2.8.37 4l-.04.36-2.2 6.94c-.09.23-.1.23-.17.32-.13.15-.3.26-.47.35l-1.55.54c-.72.1-.75-.03-.75-.03l-1.3-.81s-.3-1.5-.75-2.81c0 0-.27-.55.04-1.03l.78-1.3-.36-1.94a.68.68 0 0 1 .02-.27l.42-1.16c.13-.3.4-.54.7-.65l1.82-.49 1.42-2.48.02-.04zm72.36-8.9.2.04 2.57.9 2.83.97s.08-.06.5.35l.8 1.06.84.27s.11-.18.46-.27l.91-.1.8-.34-.44-.45c-.17-.25-.14-.37-.13-.49l.16-.59c.43-.94 2.05.05 3.04.75 0 0 .85 1.22.36 2.04-.28.46-.92.84-.92.84-.08.08-.08.08-.18.14l-1.49.69a.68.68 0 0 1-.35.03l-1.04-.27.5.3.4.27a9.8 9.8 0 0 1 .62.45c.77.64 1.18 2.01-.2 2.76 0 0-.08.14-.65.06l-2.14-.55c-.15-.06-.15-.06-.27-.17l-1.24-1.5-.6-.22-.18.47c-.07.13-.07.13-.17.23l-.62.46a1.36 1.36 0 0 1-.76.2l-1.51-.24a.68.68 0 0 1-.33-.2l-.46-.6-.88.1a1.15 1.15 0 0 1-.65-.7l-.31-1.57-.37-.48-2.63-.74c-.22.14-.29.14-.44.17-.35.06-.7-.07-.95-.36l-.77-1.04c-.29-.49-.15-.76-.15-.76l-.64-.28-.17-.93c.18-.62.55-1.14 1.17-1.23l2.23-.08c.15.02.15.02.3.08l.49.31a.69.69 0 0 1 .2.23l.4.95 1.38-.92c.15-.04.19-.07.48-.04zm-10.29-2.54c1.27.18.86 1.56.86 1.56l-.57.98c-.24.34-.72.45-.72.45v.33c-.15.25-.03.2-.53.6l-.66.32c.45.6 1.39 2.11.02 2.64l-1.09.3c-.37.06-.25.15-.25.15-.5.83-1.96.93-2.41-.06l-.82-2.33a1.3 1.3 0 0 1 .05-.82l-.16.16-.16 1.2c-.1.3-.3.57-.59.72l-1.09.47c-.69.21-1.37-.8-1.37-.8l-.2-.05-.75.38c-.52.18-1.14-.44-1.14-.44s-1.05.12-1.41-.6l-1.16-3.06a1.23 1.23 0 0 1 .1-.92l.63-1c.45-.56 1.42-.22 1.42-.22l.14-.41a.68.68 0 0 1 .27-.2l1.13-.37.83-1.11c.5-.26 1.11-.37 1.11-.37l.93-1.4c.57-.37 1.35-.18 1.35-.18l2.12 1.46c.27.38.54-.08.24 1.22-.17.73-1.25 1.26-1.25 1.26l.76.91.22-.27c.27-.13.16-.17.77-.2l2.11.34.66-.45c.11-.06.33-.22.61-.19zm-1.18-5.58c.22.07.41.16.41.16l.3-.82a1.49 1.49 0 0 1 .62-.23c.66-.08.56.13.56.13.23.2.24.2.42.44l.93 2.04c.14.62.07.5.01.82l-.33.81c-.24.46-.74.55-.84.7-.37.5-1.11.6-1.58.16l-1-1.16-.86.36c-.52 0-.65.54-1.09-.63-.13-.36 0-.77.2-1.06l1.17-1.4c.12-.1.12-.1.26-.16l.67-.17.15.01zm-.57-1.43h-.02l-.78-.3a1.61 1.61 0 0 1-.6-.46l-.81.02c-.6-.1-.76-.62-.73-1l-.3-.29c-.1-.12-.1-.12-.15-.27l-.25-1.24c-.05-.61.65-1.15.65-1.15l.31-1.56c.58-.6.7-.46 1.2-.45.9.06 1.77.3 1.93 1.12l.11 1.26c0 .24-.06.47-.17.67l-.5.83c.8.03 1.72.2 1.86 1.07l-.08.36-.6.94s-.37.8-1.06.46a.09.09 0 0 0-.01-.01h.01-.01zm-65.72-3.35s-.52-.99-1.17-1.87l1.17 1.87zm-24.92-23.64c.19.27.48.59.46 1.2l-.2 1.43c-.11.44-.58.78-.58.78s-1.18.14-.68.45c.38.25.55.72.47 1.14l-.77 2.6.22.29c.74 1.02 1.54 2.25 1.26 3.4l.2 1.2-.24 2.1.1.2 21.66 5.3.22.1 1.3 1.13-1.14-1.5a2.13 2.13 0 0 1-.18-.35l-.55-2.1-2.97-3.65c-.14-.2-.14-.22-.18-.32a1.24 1.24 0 0 1-.02-.6l.3-1.11c.3-1.39.53-3.08.53-3.08l.32-.79.31-.48-.55-1.1-1 .36c-.66.08-.54.02-.86-.08l-.88-.52-.95.54c-.31-.01-.22.08-.8-.2l-.62-.48-1.03.04-.3-.27-.4-.95v-.35l-.7-.49-.07-.42.3-.82s-.02-.81-.34-.34c-.74.97-.27.06-.04 1.6.09.6-.55 1.16-.55 1.16-.12.52-.32 1.25-1.03 1.2l-1.7-.61-.77-1.53c-.06-.19-.03-.45-.03-.45l-.65-1s-.36.26-.78.73l-1.16 1.07-.25.92c-.33.67-1.4.58-1.4.58l-1.98-.9a1.58 1.58 0 0 1-.41-.33 1.21 1.21 0 0 1-.2-.3 1.07 1.07 0 0 1-.07-.26c-.12-.8.98-1.56.98-1.56.12-.05.12-.05.24-.07l1.47-.1-.06-.22s-3.23-2.4-3.24-2.2zm78.17 20.07-.36.74.3.36.45-1.24-.39.14zm23.88-16.94c.28 0 .28-.01.5.1l.6-.84.06-1.74a5.37 5.37 0 0 0 .14-.37l-.2-1.28a1.36 1.36 0 0 1 .12-.67l.56-.95a.97.97 0 0 1 .69-.33l.35-1.7.08-.25.04-1.9-3.77 5.27a1.4 1.4 0 0 1-.35.3l-1.68.9c-.87.37-.83.12-1.3-.22l-.34.41-1 1.76-.93.55c.67 1.2 1.59 2.49 1.28 3.74-.15.59 1.33-.77 1.33-.77.15-.07.31-.12.48-.14l1.7-.04.44-1.26c.3-.36.71-.59 1.2-.57zm-70.38-7.45-1.04 1c.88 1.08 1.2 2.7 2.22 3.96l-.05-1.3s-.57-.15-.86-.56l-.9-1.55c-.14-.37.3-1.12.3-1.12s.65-.6.33-.43zm-15.23.13-.1.71c-.47.83-.93 1.66-1.46 2.45l.28.38.39.02 3.96-1c.2-.02.4.01.6.08l2.44 1.13 1.38-.28s-.45-.24-.83-.49l-2.37-1.71-1.62.77s-1.5-.02-1.7-1.1c0 0-.79-.37-.69-1.08 0 0-.17.05-.28.12zm-30.12-13.34.62.75c.03.18.13.27-.22.85l.7.46c.12.3.14.3.2.62l-.16 2.37c-.01.57-.68.92-.68.92l-2.83 1.01c-.9.22-.85.37-1.51-.38-.39-.43-.36-1.32-.36-1.32-.05-.3-.01-.32.02-.44.1-.37.49-.7.49-.7s-.49-.76-.06-1.35c0 0-.26-.43-.15-.72.12-.31.72-.74.72-.74l.49-.16.56-.87c.66-.5 2-.36 2-.36l.17.06zm14.1-3.63.67.69c.04.16.04.16.03.32l-.22 1.04c.32.28.63 1.08.14 1.61l-.8.73-.37 2.13c-.6.73-1.76-.57-2.33-1.53l-.46-.46a1.62 1.62 0 0 1-.08-.5l.19-1.9c.05-.3.22-.57.46-.75l1.9-1.26c.41-.22.6-.17.87-.12zm-27.79-28.12 1.66 1.45.45.42c.1.15.1.15.15.32l.1.94c-.04.45.02.53.02.53l.23 1.69c-.02.45-.61.84-.61.84 0 .46-.18 1.05-.68 1.33l-.51.23c-.04.27-.07.28-.12.37-.18.33-.52.55-.52.55l-1.85 1.65c-.09.07-.19.13-.29.18l-2.45 1-.92.31-1.09.25-.63.34-.99 2.34-.78.51c-.2.46-.32.42-.5.53l-1.32.7c-.1.04-.1.04-.22.06l-1.1.25c-1.03-.08-.36-.17-.49.37-.1.43-.18.3-.16.94 0 .27-.16.6-.16.6l-.08 1.19-.57.7c-.22.19-.29.16-.29.16s-.05.56-.38.92v1.28a2.27 2.27 0 0 1-.12.37c-.15.42.17.22-.47 1.18 0 0 .24.46-.22.9l-.09.67c-1 .8-.6.6-1.18.4l-.46-.26s-.54.4-1.08.27c-.47-.12-.77-.84-.77-.84a1.36 1.36 0 0 1-.42-.3l-1.26-.02c-.54-.09-.77-.93-.77-.93-.6-.23-.55-.42-.69-.72l-.17-.55a3.97 3.97 0 0 1-.16-.16c-.41-.46-.47-1.35-.47-1.35l-.38-.76-.74-1a4.05 4.05 0 0 1-.49-1.26L93 85.2c-.37-1.17-.44-1.15-1.03-2.22l-.13-1.13c.02-.15.05-.3.1-.46 0 0-.31.03-.34-.57l.24-1.47.34-.73-.1-.88c.08-.18.04-.31.69-.65l1.14-.32v-.98l.18-.52s-.47 0-.8-.22l-1.85-1.42c-.45-.43-.53-1.23.05-1.64l-.23-.15-.9-.83a1.13 1.13 0 0 1-.02-1.47v-.35c.03-.21.04-.21.11-.42l-.18-.76c.2-.3.21-.27.46-.52 0 0-.47-.3-.54-.71-.05-.37.18-.86.18-.86s-.43-.4-.49-.89l-.07-.34-.53-.23-.39-.66c-.02-.43.26-.8.61-1.09l-1.54-2.17c-.3-.66-.26-.3-.09-1.24l-2.45-1.32s-.15.27-.38.33c-.24.07-.46-.08-.67-.17l-1 .63c-.28.38-.81.45-1.2.35l-1.64-.6a1.4 1.4 0 0 1-.4-.28l-1.02-1.15c-.23-.37-.02-.78.01-.9 0 0-.49-.04-.83-.5l-.57-.96c-.22-.48-.1-1.04.31-1.38 0 0 .6-.24.46-.4 0 0 0-.19-.45-.5l-.8-.65a1.4 1.4 0 0 1-.34-.5l-.49-1.59a1.36 1.36 0 0 1 .02-.65l.24-.67c.11-.24.3-.45.52-.58l2.59-1.23s.19-.73.77-.97l1.92-.58.35-.74-.1-1.12-.82.04c-.46-.14-.7-.55-.77-.75l-.35-1.38c-.06-.4.18-.87.18-.87l1.18-1.56c.14-.15.15-.14.31-.28l1.54-2.1c.1-.1.1-.1.22-.17l.73-.3c.12-.03.12-.03.24-.03l.8.09.09-.75-.44-1.1c-.27-.9.12-.98.12-.98l.55-.78c.34-.38 1-.44 1-.44l.32-.44 2.44-1.4.73-.3 1.25-.63c.17 0 .17 0 .33.05l.52.29c.13.1.13.1.22.23l.68 1.48.84.5-.67-1.5a.68.68 0 0 1-.03-.32l.14-.6c.06-.16.06-.16.17-.29l.7-.59a1.14 1.14 0 0 1 1.4.06l2.73 2.73.04-.7c.12-.21.13-.2.28-.38l-1.11-1.91c-.06-.15-.06-.15-.07-.32l.07-.6c.07-.28.1-.28.17-.34.11-.13.29-.2.45-.23l-.56-1.35c0-.88 1.5-1.09 1.5-1.09l.33-.36 1.06-.5c.77-.28.87-.03 1.1.14l.9.77a.96.96 0 0 1 .2.46l.49.6.1-.14-.2-.43-.06-1.73c.04-.3.15-.37.23-.45l.51-.33c.22-.1.34.19.84-.23.42-.34.86-.62 1.07-.7l1.37-.34c.7-.1.6-.03 1.24-.06l2.68.1 1.8.76s1.65.38 2.26 1.17l.5.92.45.86.4 1.1.84.53 1.63 1.64c.14.1.16.13.21.21.23.34.15.78-.02 1.11l-1.04 1.66h.15c.7.04 1.11.87 1.11.87l-.03 1.94.62-.29c.3-.09.98.31.98.31.15.13.15.13.28.28l.75-1.38c.1-.12.1-.12.22-.2l.51-.28c.49-.16.56-.03.8 0 .5.05 1.21.19 1.21.19a.66.66 0 0 1 .22.09 11.64 11.64 0 0 1 1.7 1.36c.44.48.9 1.16.63 1.86l-1.7 2.44c-.41.46-.53.4-.53.4l-.23.63-.98 1c.09.42-.09.77-.2.94l-.96 1.22c0 .26 0 .21-.08.47l-.63 1.43c-.22.4-.64.6-1.08.6 0 0 .4 1.77-.43 2.27l-.02.7c-.27.72-1.06.81-1.06.81-.14.55-.25 1.34-.06 1.44l.28.16a7.25 7.25 0 0 1 .56.38c.4.32.78.5.84 1.25l-.04.89c.2.06.08-.06.4.2.15.12.24.27.27.53l.02 1.96c-.06.7-.76 1.2-1.6.9l.33.39a.68.68 0 0 1 .12.35l-.02.78c.2.28.43.53.43 1.06l-.18 1.82c-.09.34-.45.26-.04.72 0 0 .72.98.39 1.71l-.66.9c-.56.5-.24.2-.26.5l-.2 1.23a1.3 1.3 0 0 1-.69.8l-1.54.53a1.3 1.3 0 0 1-1.02-.2s-.44-.53-.42-.29a.96.96 0 0 1-.07.4l.38.6a3.22 3.22 0 0 1 0 .21zm5.5 13.12c.49.03 1.1.43 1.1.43l.88-.2.67.67a.69.69 0 0 1 .04.32l-.11.58c.47.26.81.86.81.86l.1 1.42-.33.6-1.03 1.25c-.31.31-.76.4-1.17.28l-2.05 1.44c-.66.28-.72.17-.72.17l-1.52-.37c-.27-.12-.5-.5-.5-.5l-1.34.12c-.17-.07-.17-.07-.3-.19l-.46-.88.45-.84-.83-.1c-.28-.1-.33-.2-.4-.3l-.36-1.15-.28-.55c-.09-.32 0-.43.05-.55l.83-1.06.38-.95c.53-.6 1.53-.4 2.12.12l.5.26c.24-.1.27-.1.4-.11a.92.92 0 0 1 .62.18l.58-.4c1.45-.04 1-.1 1.1-.22.18-.22.34-.33.77-.33zm42.26 2.93a.94.94 0 0 1 .3-.18l.61-.14a.68.68 0 0 1 .34.04s.94.71.89.3l-.22-.14s-1.73-.77-1.72-.63c0 .26-.07.41-.07.41l-.13.34c-.2.2-.15.38-.15.38l.15-.38zm25.88-30.29c.97.03 2.22 1.1 1.85 2.3l-.63 1.54c-.1.21-.27.4-.46.52l-5.48 2.95-.24.93c-.13.38-.54.8-.54.8L184 63.76l-.46 1.11-.23.87c-.47.7-.67 1.3-1.48 2.11l-.1.77c-.13.23-.22.25-.22.25l.02.5 1.8 2.74c.07.14.07.14.09.3l-.02.58a.68.68 0 0 1-.15.35l-.6.6c-.25.19-.37.15-.49.14l-1.05-.27-.5.28a.69.69 0 0 1-.34-.04l-.95-.48-1.04-.58c-.09-.14-.09-.14-.13-.3l-.1-.91s-.44.43-1.1-.55l-.39-.94c-.2-.66 0-.8.14-1.02l.83-1.06-.23-.37c-.02-.2-.02-.2.04-.38l.28-.54c.36-.49 1-1.47 1-1.47l-.27-.31c-.11-1.33-.17-.88.36-1.24l.76-.33.27-.96c.2-.2.21-.2.44-.37l-.09-1.18.06-.7c.15-.74.43-.6.88-.86l.86-.58.33-.79 1.8-1.4c.19-.1.19-.1.39-.15 0 0-.07-.68 1.15-.59l.87.24 1.22-.4 1.66-1.86c.41-.31.96-.4 1.52-.4zm91.44 16c.57.04 1 .54 1.34.94.48.55.78 1.54-.1 2.03l-1.66.72c-.5.15-1.1-.23-1.1-.23l-1.48-.7-.06-.6.98-1.62c.09-.1.09-.1.2-.19l.68-.29c.4-.02.8-.07 1.2-.07zm-32.05-13.24c.29.03.34.12.34.12l1.58 1.14 1.39.9s.28-.63 1.27.02c.35.09.82.32.82.32l.1.08.55.52 1.8.28.46.42c.2.24.16.37.16.48l-.23 1.07c-.17.5-.63.73-.86.78l-1.96.28c-.47.02-.58-.06-.79-.22l-2.15-.64-1.63.72-.6-.09c-.09-.03-.19-.02-.35-.23l-.93.34c-.45.13-1.25.75-1.85.2l-1.7-1.87c-.25-.34-.24-.88-.24-.88l.4-2.2c.07-.24.2-.45.38-.62l1.1-.86c.78-.5 1.75.47 1.75.47s.43-.59 1.19-.54zm-94.8-16.63s-.3-.06.49 0l.68.18a10.27 10.27 0 0 1 .88.47 6.21 6.21 0 0 1 .62.43c.53.4 1.13 1 .88 1.78l-1.2 2.75a1.39 1.39 0 0 1-.44.49l-1.71.95c-.72.3-1.64-.58-1.64-.58s-.62-.19-.17.21c.35.33.65.83.63 1.27 0 0 .03.72-.4 1.18l1 .08c.1.11.26.24.26.24l1.24 1.63c.31.67.2.73.2.73l-.4 1.42c-.5 1.08-2.48 2.02-2.98.85-.52.26-1.65-.24-1.45-1.23l.39-1.23s0-.36-.4-.09l-.05 1.41c-.1.38-.36.67-.69.86l-.6 2.69a1.1 1.1 0 0 1-1.66.56l-1.14-1.26a12.3 12.3 0 0 1-.4-.73l-1-1.83c-.09-.32.03-.8.03-.8l-.31-1.32s-.27-.07-.48-.42l-.62-1.37a1.62 1.62 0 0 1-.16-.27l-.59-1.56c-.05-.25-.15-.7-.1-.55l-.46-1.93s-.06-.67.4-1.06c0 0 .04-.75.48-1.1l1.22-.42a.96.96 0 0 1 .4.16l1.05-.27.8.31.49-.8c.3-.33.74-.52 1.17-.35 0 0 .3-.62.82-.6 0 0-.12-.44.43-.67.15-.8 1.24-1.17 1.83-.47l.6.86.15-.7c.21-.5 1.26-.57 1.26-.57.56.4.64.58.65.64v.03zM119.8 56.08l.2-.02s-.1-.07-.2.02zm99-11.94c.67.09 1.13 1.04 1.13 1.04s.48 0 .76.5c.4.88 1.7 3.45 1.17 2.65.52.93-.03 1-.03 1l-.46.78c-.24.34-.75.5-.75.5l-2.32.31-1.64 1.04-.98-.17c-.47-.8-.33-.9-.33-.9l.66-2.33s-.53.33-1.09.1l-1.97-1.19-.75.07c-.18-.07-.3-.03-.66-.66l-.32-1.07a1.24 1.24 0 0 1-.24-.08c-.24-.12-.36-.26-.36-.26l-.7-1.03c-.1-.99.55-1.08 1-1.22l-1.07-.56c-.29-.19-.52-.62-.52-.62l-.56-.55s-.17-.1.23-.97l.76-.98c-.23-.54-.1-.55-.06-.75l.18-.6a1.36 1.36 0 0 1 .33-.51l1.5-1.26c.03-.54.85-1.09.85-1.09l.31-.05c1-.12.78-.17 1.34.46l1.72 2.98c.23.56-.01 1.3-.64 1.49l.14.78c.12.07.24.19.24.19l.74.02c.5.1.26-.02.68.6.35.52.7 1.1.7 1.7 0 0-.53 1.17.12.82a1.62 1.62 0 0 1 .9-.18zm-62.9-4.43c-.78-.07-.5-.01-.5-.01l.01-.03.49.04z"/><path fill="#999" fill-rule="nonzero" d="m50.84 135.01-.1-.12-2.76-2.51-.43-.18-.46.37s-.04.09 0 .32l.76 1.46-.38.35-1.71-1.58-.86-1.92-1.37-.7.46-.14.11-.6-1.2-1.08-.02-.02c-.43-.68-.65-1.47-.98-2.2l9.76-6.9 5.67 13.35v2.4a.66.66 0 0 0 .06.24l1.33 2.47c.09.12.09.13.2.21l.87.47c.15.05.15.05.31.06l2.15-.29c.16-.04.16-.04.3-.14l1.1-2.11.02-.03a3.2 3.2 0 0 1 2.5.2l-.8 2.25c-.13.12-.33.27-.4.59v1.08l.49.33h2.3s1.01.32 1.34.75l-.39 3.13.02.2.87 1.17.76.45c.15.05.15.05.31.06l1.3-.6.04-.02c.7.02 1.29.6 1.93.9.13.03.26.09.55-.08l.94-1.73.07-.06 3.04-1.16.42.12c.15.02-.15-.02.66-.03.17 0 .79.9 1.46 1.26 1.59.83 3.33.28 5.04-.1l-.04.2.2.59 1.52 1.01 1.03 1.31c.66.62 3.88.93 3.88.93l1.36.72-.77 31.49-.52 1.47s-.53.6-1.01.59l-1.34-.23-.41.43.37 1.51-.65 1.36-.07.05-2.58.86s-.94-.26-1.23.23l-.02 1.67-1.66.06-.5.34c-.07.53.05.7.05.7l.6.25c.74-.14-.15 1.06-.15 1.06l-.58.52-.33 1.54-1.17.93-.15.6 1.13 1.12.02.79-.03.06-2.53 3.07c-.08.13-.08.13-.12.28l-.09 1.1c.02.17.02.17.09.33l.49.72c-.03.15-.07.35-.02.55l.57 1.25 1.88 1.5-.83.1c-.26.05.14-.12-1.04.42l-.25.58-1.6-1.19-1.45-.36c-.06-.16-.11-.4-.36-.6l-.76-.11s-.17-.51-.03-.9c.23-.66.12-.48-.3-.74l-.02-1.1-.41-1.23s.1-.02-.05-.42l-.28-.47s.2-.2.29-.42l-.07-.73s.36-.8.22-1.14l-.49-.82.1-.84-.8-.38.65-.9.04-.02c1.1.1 1.03-.52 1.34-1.23.02-.11.07-.21-.05-.48 0 0-.2-.8-.67-1.04-.59-.27-.27-.59-.13-1.19l.2-.86.5-2.06.01-.22-.37-1.93.01-.08 1.6-3.52.06-.2.07-4.23 1.16-6.54-.24-2.73c-.08-.35-.24-.4-.24-.4l-4.2-2.59-.02-.02-.02-.03-2-4.22-2.15-2.72-.1-1.37.75-.78c.42-.65-.55-1.02-.55-1.02l.73-2.26.89-.72.95-.8c.44-.55.19-2.18-.07-3.54l-.6-1.18-.32-.26-.94.4c-.09.07-.19.13-.24.43v.48l-1.16-.74-.76.03-.26-.32-1.1-.91-.9-.29-.25-.9c-.05-.13-.05-.13-.13-.23l-1.25-1.23v-.01l-.04-.32-.8-.73c-.57-.34-1.08.38-1.08.38s-.03.02-.09 0l-1.65-.62-1.76-1.37-.38-.1-2.31.28h-.04l-.04-.01-5.79-2.92-.05-.06c-.4-.74-.35-1.63-.52-2.45l-.06-.15zm226.4 54.88c-.38-.21-.8-.3-1.07 0l-.85 1.52a.68.68 0 0 0-.05.4l.16.58-1.06.37c-.14.08-.14.08-.25.2l-.6 1.78-.7.63-.08.01-2.29-.33v-.02a1.1 1.1 0 0 1-.06-.58l1.3-1.86 1.9-1.22 1.16-2.16.69-.37.3.54.92-.1c.6-.3.38-.95.38-.95l-.94-.82s.52-.28.65-.7l.22-1.34c0-.2 0-.2-.09-.37l-1.6-2.36c.67.37 1.26.9 1.5 1.6l.29.3s.12-.1.35.09l.78 1.08c.08.08.15.18.46.21l1.18-.08-.4 1.39c-.28.09-.65.06-.86.33l-1.2 2.15-.14.08zm-12.6-99.16c.25 0-.22-.39-.65-.4l-.86.16c-.18.07-.18.07-.33.2 0 0-.69 1.02-1.06 1.75-.46.91-.82 2.32-.82 2.32l-2.58.44-.57-.81a.68.68 0 0 0-.25-.2l-.63-.22c-.62-.1-.61.46-.85.66l-4.96.05-.37.17-5.12 5.55c-.16.26-.16.54.03.72.21.2.57-.06.77.48l.96.35 1.28-.1 1.38 1.26.56-.14.44-1.14c.21.43.4.9.45 1.38l-.15 1.9.03.22 1.3 3.56s-.33-.38-.49-.47c-.37-.2-.78-.03-.96.38l-.24 1.09a.69.69 0 0 0 .05.36s.52.95.58 1.66c.02.34-.67-.32-1.02.16l.12-6.02c-.04-.22-.03-.23-.13-.49-.22-.5-.86-.99-1.2.4l-.42 3.43-3.96 5.54-1.65.9s-.76-.59-1.21-.44l-.83.95-.82 1.56-1.23.73a.6.6 0 0 0-.19.7l.48.86c.27.45.5.91.68 1.4.4 1 .07 1.93-.14 2.04l-1.07.34-.95.3.22-1.23-.51-1.03.42-.5-.25-.54-.88.08s-.7-.24-.32-.61c.7-.67.48-.86.45-1.03-.11-.64-1.07-.54-1.07-.54l-2.3 1.08.44-1.02c.12-.46-.1-.7-.42-.73-.21-.03-.37.1-.37.1l-1.55 1.23c-.5.08-.64.6-.64.6l.54 1c.16.2.37.26.6.23 0 0 .73-.18 1.14-.44 0 0 .64.33 1.03.64l-1.6.91c-.11.08-.11.08-.2.18l-.5.84c-.15.38-.01.52-.01.52l1.9 3.36.1.26c-.54.61.26.68.14 1.06l-.3 1.2s-.23-.16-.83.42l-.44 1.16-.36.31s.22.65-.02.85c-1.84 1.55-1.88 1.51-4.08 2.49h-.1c-1.25-.67-.98.26-1.21.51l-1.69.3-.42.44.23.94-.14.99-.06.06-1.25.08.36-1.07.12-.06c.61-.15.6-.4.51-.74 0 0-.15-.81-.78-.8l-.73.12-1.03.38c-.16.1-.17.1-.28.25l-.6 1.22c-.12.44.06.56.06.56l2.55 3.1c.37 1.18.56 2.46-.04 3l-3.2 2s.08-.53.03-.75c-.06-.3-.46-.5-.46-.5l-1.15-.94-1.89-.98c-.45-.14-.62.05-.74.37l-.3 1.86c0 .18 0 .18.06.35l.34.32 1.24 2.12.69.36c1.14.83 1.45 2.33 1.47 3.66 0 .22-.4.33-.4.33l.03.79c-.06.18-.05.18-.08.36l.38.46s.18-.08.29.13l.2.9c.24.57.52.39.96.64.2.12-.11.6-.16 1-.33 2.67 3.06 2.08 5.39 2.12l.48.48.68.59.41.35-7.14-1.52s-.08-.29-.34-.58l-.4-.17-1.82-1.57-2.74-4.43-2.8-2.99 1.85.24 1.6 1.44.6.07.25-.54-.4-2.19-.07-.19-1.45-1.06v-.06l1.02-2.67a.68.68 0 0 0-.01-.39l-1.1-2.52.42-.77c.04-.12.1-.24-.02-.53l-1.07-1.59s.29-.85.6-1.03l1.5-.59c.64-.42.5-.67.5-.67l-.4-.47-4.41-1.12s-.98-.36-1.25.34l-.16.73c-.47.98-.45.34-.5.2-.43-.92-.43-.92-.93-1.81l-.14-.16-1.07-.31c-.49-.03-.6.2-.63.57l.21 1.75c-.86-.39-1.1-.1-1.1-.1l-1.11 1.57-4.67 3.38c-.07.07-.15.12-.21.38l-.27 4.1.3.54c.57.61 1.22 1.27 1.21 1.94l-1.24.64-.48-1.51c-.2-.39-.43-.4-.73-.3l-.98.52-.79-.6-.02-.03c-1.14-1.8-1.67-3.92-2.5-5.89l-.62-3.05s.1-.47.1-.8l-.44-.4-1.27.34h-.06l-1.3-1.27s.06-.38 0-.57l-.63-.62-.53-.27-.64-1.17-.52-.26-3.48.47.04-.98c.05-.13 1.06-.47 1-1.05l-.2-.72-1.57-1.58s.06-.07.09-.33l-.1-.96 1.02.5c.2 0 .2 0 .38-.08l6.74-4.36c.3-.27.23-.4.23-.4.1-.68.32-.39.33-.88l-.17-.96c-.2-.58-.69-.4-.95-.28 0 0-.96.9-1.77.99 0 0-1.08-.32-.6-.22-.3-.08-.13-.28-.66-.25l-1.11.25c-.15.06-.15.06-.27.16l-.42.86-1.55.97c-.2.06-.83-.43-.83-.43l-.42-1.17-2.73-1.37-.41-.03-2.3.85s-.04 0-.05-.04v-1.24c-.02-.1-.01-.21-.21-.42l-.38-.27c.13-1-.2-.5-.37-.73-.38-.49-.19-1.3-.27-1.95.08-.35.18-.73-.04-1.01l-.89-.38-.05-.05-.74-1.27.39-.54.5-.62.91-.06s1.12-1.14-.12-1.63l-.93-.17-1.7.88-1.58 1.49-.11.17.15.6c.3.28.26.35.85 1.52a22.77 22.77 0 0 0 1.12 2c.46.7.68.29-.18.97l-.64 1.6-.3-.64-.52-.31-.96.49-1.08-.56c-.5-.15-.77.04-.73.59l.48 1.82.34.85c.25.4.44.33.44.33.94.1.13.88-.15 1.55l.12.57 1.42 1.36.8 2.06-.05.18c-.54.42-.19.8-.02 1.18l2.4 3.58.16.15 1.6.26c.1 0 .2.02.43-.15l1.53-1.52s.07 0 .1.04c.3.33.1.24.06.81l.22.35 2.56 1.79.07.18-1.43 1.83-.1 1-.03.05-1.23.91-2.48 1-1.34 1.16-6.1 2.21s-.77.56-.4 1.02l.69.6c.3.2.45.12.45.12l4.99-1.08.12.05.06 1.2-2.67 4.6-5.15 4.9-1.84 2.33-.1.2-.25 1.13.04.35a14.01 14.01 0 0 1 1.28 3.12l.03 4.01-.03.06-3.33 2.61-1.1.66-.25.54.6 3.34-.11.24-1.67.96c-.1.08-.1.08-.18.17l-.65 1.01-11.8 2.7-1.83-2.22-.62-4.02-.05-.15-2.14-4.33-.02-.16.6-3 .98-1.85.03-.4-1.21-3.73v-.7l-.88-1.03-1.9-2.5-.01-.16.6-.44c.6-.64-.16-.53-.07-1.19l.31-.77c.04-.12.04-.12.04-.25l-.09-.77c-.1-.32-.23-.37-.35-.44l-.64-.2s.03-.1-.4-.23l-1.59.36-1.11-1.4-.16-.13-1.77-.2-.72.14c-.4.17-.25.19-.4.42 0 0-1.78.93-2.44.82l-.63-.2-3.87.46-1.3-.62-1.82-1.43-1.3-1s.07-.13-.16-.72l-.76-1.23c-.3-.33-.37.1-1.1-.89l-.85-.6c-.1-.69.2-.69-.03-1.1l-.56-.74.75-1.16.38-1.57c.01-.13.01-.13-.01-.27l-.57-1.76-.2-.34c.02-.23.14-.45.1-.43-.24.17.25-.23.25-.23l2.73-5.23 1.6-.94 1.14-1.2c.09-.13.09-.13.13-.28l.28-2.04.1-.17 1.77-1.27c.1-.1.1-.1.18-.22l.65-1.52s.04-.04.08-.04c.89 0 1.7.48 2.56.72l.37-.04c2.4-1.25 2.4-1.3 5.07-1.77h.11c1.17-.02 2.4-.45 3.5-.05.02 0 .04.02.05.05.04.97-.56 1.87-.84 2.8-.05.45.12.5.12.5a6.34 6.34 0 0 1 1.41 2.48c.05.2.08.2-.03.7l.22 1.22-.25 2.17a.7.7 0 0 0 .05.29l.28.55c.18.27.34.27.34.27l21.77 5.32 1.3 1.18 1.28 2.07.2.18.45.23 1.09 1.49.15.14.59-.04.16-.57-.74-2.27c.05-.48-.73-1.33-1.33-2.16l-.27-.37-1.3-1.7-.6-2.25-.1-.2-3.02-3.69-.01-.07.3-1.1s.2-.84.32-1.52c.04-.23.05-.26.12-.84.1-.86.16-.9.3-1.23l.44-.7c.12-.28.06-.4.03-.51l-.57-1.09.06-.13.13-.2-.04-.6-.57-.17-1.85.65-1.25-.63c-.3-.11-.42-.04-.53 0l-.84.52-.8-.56-1.01-.05-.14-.3c0-.06.04-.57-.11-.85l-.57-.38.36-.5-.53-1.33s-.04-.6-.49-.69h-.84c-.53.09-.51.62-.51.62l-.42.45-.17.81s.33.73.38 1.4c-.65.45-.36.3-.64 1.02l-.9-.31-.5-1.04s.02-.36-.04-.5l-.84-1.31v-.09l.63-.96c.04-.1.1-.17.06-.45l-.26-.76-.28-.3-.6.14c-.2.21-.66-.3-1.13-.62-.1-.2-.1-.21-.23-.4l-1.88-1.13-.63-1.17-.58.17s-1.31-1.99-1.39-.14l.1.68c.04.13.04.13.11.24l1.67 2.07a.68.68 0 0 0 .3.18l.84.16c.09.22.43.71.43.71a8.2 8.2 0 0 1 1.86.95l-.43.5-.5-.28-.6.06-.13.59s.4.33.32.53c-.26.6-1.01.5-1.38 1.38l-.24.92s0 .04-.06.03l-1.9-.85c-.27-.2.02-.4.28-.6l1.96-.13c.43-.1.5-.33.46-.65l-.28-1.02a.67.67 0 0 0-.21-.28l-3.5-2.39-.4-.76-.33-.27-.5.17-.1-.87-.42-.4-.94.49s-.59.93-1.58.96l-2.85.58-2.89-.57.17-2.73c.1-.25.12-.6-.05-.97l-.61-1.02c-.09-.1-.09-.1-.2-.19l-1.87-1.06.8-.65.9.1.52-.32.02-1.69 3.87-1.26c.26-.13.36-.29.66-.64l.62-1.36.22-.15.15-.06 1.37-.45 2.23 1.61c.4.19.56.03.56.03l6.13-3.55s.49.3.83.56a.61.61 0 0 0 .7-.08l1.1-1.26c.09-.14.09-.14.13-.3l-.2-.8.52-2.07.71-.22c.6.6 1.04.83 1.26.13l.08-.74-.65-1.19.42-.71.07-.05 1.26-.42 1.51.26.46-.4c.66-.29.43-.1.6-.44 0 0 .03-.41-.17-.61 0 0-.6-.2-.58-.28.3-1.47 1.8-2.38 2.7-3.57a.63.63 0 0 0-.01-.64l-.99-1.19c.03-.07.32-.45.34-.75l-.67-1.49v-.08l.35-1.4a.68.68 0 0 0-.02-.32l-.76-1.9.01-.2.62-1.18c.09-.3.02-.41-.03-.52l-1.01-1.51c-.07-.34.14-.56.4-1.05l.03-.42-.5-.34-2.03.1-.36.18-.47 1.31s-.65-.49-1.01-.48l-1.06.18-.14-.14s-1.68-.97-.3-.88l2.63-.13c.13-.03.27-.04.45-.33l.3-.74 1.58-.84.39.48.67.53.58.02c.45-.27-.1-.07 1.06-.03l.5-.37c.23-.72 1.1.84 1.1.84l.25.28c.09.08.09.08.2.13l.96.37.7-.12 3.97 3.07.1.17.17 1.65-.24.25-1.75 1.31s-.04.03-.08.02l-3.27-1.21-.59.16c-.36.75.15 1.07.15 1.07 1.2.49.48.7.28 1.15l.28 1.57.24.32 1.5.88c.72.24 1.22-.28.53-.9l-.75-.43c-.1-.11.1-.47.19-.75l1.31.53s1.5.72 1.35-.42l-.3-.92s-.01-.03.02-.08l1.63-1.63s.04.13.3-.14c.1-.1 1.54.23 1.54.23s.18.08.31-.89l-.57-.97.42-1.59-.77-1.34s.72.01 1.28.16c1.23.32 1.4 1.57 1.4 1.57s-.48.17-.86.25a.74.74 0 0 0-.4 1.1s.57.73.96.75l.65-.08c.11-.03.23-.04.4-.28l.2-1.14s.09-.05.17-.07c.5-.12.51-.72.51-.72l2.84-1.38 1.3-.82.3.02-.29.21s.07 1.17.65 1.15l.75-.49 1.21.03 1.42-.92s.4.6.9.53c.2-.02.69.17.76-.6l-.56-1.24.49-.7s.05-.03.1-.02c1.44.3 3.01.73 4.15 1.7.48.43.55.36.89.67l.32.52c.87.96 1.13-.82 1.13-.82l-.55-1.08c-.17-.22-.28-.23-.38-.26l-.71-.08-.07-.14.36-2.18c0-.57-.5-.78-.5-.78l1.35-2.13.07-.16.7-2.97h.07l2.59.61.12.14-.69 2.73c-.03.48.27.96.9.45l1.44-1.76c.1-.16.1-.16.12-.34l-.05-1.47s.43.24.57.76l-.06.9.33.52.93-.3s.01.02.28-.32c0 0 1.23-.77 1.88-.08l.59.12.3-.52-.3-3.1 5.01-.84.34-.21.02-.57-.97-.74c-.02-.68-.1-.66-.1-.66-.14-.2.2-.6.2-.6 1.02.38 1.15-.46 1.15-.46l-.32-.6.85-.1 1.03-1.17 2.43-.87.71-1 2.83.62c.22.01.57-.03.87-.3l.74-.85c.23-.38-.01-.4.06-.73.6-.32 1.59.02 1.78-.62l.22-1.6 2.23-2.22c.18-.1 1.1.74 1.38 1.49-.46.46.22.84.22.84s.2-.03.53.14l.74.86c.38.3.53.16.53.16.8-.19 1.73-.38 2.25-.03l1.23 1.55.54.4c.37.74.33 1.49.22 2.22l-.23 1.03-1.26 1.56-1.4 1.03-.14.15.04.58c.58.49.48.2 1.22.48.29.83 1.07-.1 1.07-.1l.23.77.45.37 1.49-.46s.94-.01 1.55.23c1.1.43 2.16 1.73 3.56 1.9.53.06.98.38 1.2-.45l.07-1.49s.37-.24.75-.44c0 0 .88.62 1.47 1.08.15.09.15.09.32.11 0 0 .68-.28 1.12-.2l1.11 1.1.05.25-.39.9c-.07.28 0 .37.03.46l.4.74c-.11.25-.08.8-.08.8.5.7-.1.46-.06.97l.88 1.2.36.2.52-.3.97-2.17.12-.07.89 1.08a.62.62 0 0 0 .68.1s.59-.4.97-.41l.95.59.41.05.45-.5c.77.1 1-.04 1.07-.41l.02-.95c-.06-.38-.23-.48-.23-.48l1.16-.6c.5-.34.26-.56.4-.98 2.48.16 5 .36 6.55 1.81l.52.8c-.1.25-.17.68.13.91l1.2.62.52.8.55.22 2.4-.55 2.34.49s.36.29.57.52c.44.5.16 1.02.11 1.53.03.31.14.39.22.47l.96.67c.53.25.98-.34.98-.34 1.15-.03 2.28.28 3.42.42l.22-.02s.57-.7.74-.57c.56.48.83 1.21 1.25 1.82.6.58 1.12.13 1.15-.5l-.48-.92s-.02 0-.02-.08l.24-1.1.15-.05 2.4.67s1.24-.37 2.01-.12l3.09 2 3.73 2.79.3.89c.26.56.55.38.55.38 1.14-.12 1.12.06 2.23.35h.01c2.78 2.06 1.37 2.11.74 2.57l-1.73 1.53.32.72-.61.27-.46-.15-1.35-.8-.4-.95-.48-.33c-.82 0-.82.05-1.62-.07 0 0-.49-.45-.9-.1l-.26.72s.02.13-.1.28l-1.1.83-.18.58 1 2.83-.02.05-.41.59-1.4-.36a.68.68 0 0 0-.35.03l-2.6 1.23-.17.13-2.5 2.82s-.74-.44-1.3-.82h-.6l-1.37.98s-.5-.43-.8-.22c-.21.14-.27.43-.4.29-.43-.54-.84-.36-1.12.06l-.95 2.24c-.14.64.38.58.82 1.06l-.32 1.02.33 1.03c-.75.36-.9.31-.95.64l.02 1.36s-.8.44-1.38.72a.68.68 0 0 0-.26.26l-.08 1.31s-.93.04-1.16.37l-.1.83-1.38 1.64s-.01.07-.05-.01c-.61-3.93-1.14-3.94-.5-7.86l.66-1.56.05-.04 1.15-.42 3.02-3.67 1.11-.5c.41-.28.32-.58.36-.9l-.3-.54c-1.08-.24-1.08.1-1.08.1l-1.52 1.53-.13-1.16c-.1-.43-.35-.5-.45-.5zm-90.42 75.02 1.55-2.68c.6 1.02 1.22 2.13.89 3-.05.13-.05.16-.3.4l-.16.69-2.16 6.83-.06.05-1.4.49-.92-.46s-.24-1.06-.44-1.79a21.55 21.55 0 0 0-.15-.49 8.87 8.87 0 0 0-.13-.39l.89-1.48a.68.68 0 0 0 .06-.36l-.37-2 .36-.99.05-.05 1.98-.53.31-.24zm67.63-11.62 2.02-.07.22.14.59 1.37c.15.23.36.32.6.3l1.84-1.21c.89.16 1.7.6 2.55.9l2.77.93.97 1.22 1.52.58-.19.8s-.28.23.27.6c.89.6 1.34.78 1.95 1.27 1.24 1 .38.91.1 1.07l-1.95-.5-1.22-1.47c-.1-.09-.1-.09-.21-.15l-1.21-.45a.6.6 0 0 0-.66.3l-.32.8s-.32.35-.54.37l-1.24-.2-.52-.68c-.13-.13-.14-.13-.3-.2l-.9.11-.23-1.03.05-.37-.74-1.05c-.13-.12-.13-.12-.28-.19l-2.7-.75c-.44-.27-.8-.01-.8-.01-.28.29-.55-.37-.87-.8 0 0 .27-.74-.1-1.07l-.68-.15s.02-.35.21-.4zm16.57 2.2-.74-.76s.42.15.66.33l.61.5c.14.1.33.01.3.8-.02.2-.75.66-.75.66l-1.22.57-1.63-.43.9-.14 1.7-.69c.41-.27.37-.52.17-.83zm-21.53-4.17c.07-.04-.23.82-.65.92-1.46.34-.8 1.04-.8 1.04l-1.13.56-.28.56s.86.85 1.02 1.66c.03.2-.55.23-1.01.36-.07 0-.58-.19-.79.07-.19.24.12.57-.3.67a.78.78 0 0 1-.27.02c-.3-.03-.95-2.18-.91-2.38l.6-1.45.58-.97.48-.76 2.3.32 1.16-.62zm-10.93 3.7-.17-.08s-.68.3-.89.05l-1.12-2.96s.32-.58.57-.96c0 0 .8.74 1.36.2l.24-.78 1.02-.34c.14-.07.14-.07.25-.18l.67-.92c.1 0 .4.02.53-.02.26-.09.61-.38.61-.38l1.01-1.5.2-.06 1.8 1.25c.28.9-1.4.62-1.36 1.46l.29 1.19.86.75c-.55.11-.76.15-.88.43l-.19.78c-.24.53-.82.4-1.09 1.28l-.15 1.22a.35.35 0 0 1-.02.05s-.9.58-1.04.35c-.06-.12-.08-.25-.13-.4l-1-.42a.69.69 0 0 0-.36.03l-.74.38s-.12-.28-.27-.42zM71.6 152.5s.2.24-.06-.14l.07.14zm164.2-4.92c-.2-.15-.4-.18-.4-.18l-1.05.43 1.03-1.22.67.26.86-.44c.4-.31.3-.68.3-.68l.82 1.8-.27.86s-.36.07-.77.56l-1.2-1.39zm-2.19-9.18c.32 0 .64.12.96.18.15.07.32.91.14 1.3l-.7 1.03c-.07.18-.07.18-.07.38l.4.71.62.28c1.83.06.49.72.49.72-.14-.09-.15-.08-.3-.14l-.42-.07-.37-.37-1.06-.13c.03-.57-.51-.89-.51-.89l-.2-1.02s.34-.08.52-.3l.31-1.65.2-.03zM70.5 134.48c.23 0 .46 0 .68.06l5.16 2.5.38.24c.1.05.1.05.22.08l1.5.17.4-.12s.03-.13.22-.08l1.84 1-1.78.28c-.48.15-.56.46-.56.46l-.43-.2-1.94-.33c.41-1.02-.34-.92-.34-.92l-2.18-.24s-.04-.41-.18-.66l-.58-.33-2.61-1.36-.38-.04-2.12.6 1.39-.95s.77-.14 1.3-.15zm163.7-1.65c.03 0 .05.05.07.08l-.8 2.59s-.46-.53-.61-1.08l.7-1.48c.08-.09.32-.1.64-.11zm10.57-8.53c-.2-.13-.38-.16-.38-.16-.62 0-1.12.47-1.5.9a6.25 6.25 0 0 0-.26.32 7.96 7.96 0 0 0-.44.63l-.77 1.39-.48-.23s.11-.44.04-.8l-.4-.46-.1-.56.85-.46c.16-.12.16-.12.26-.3l.15-.41 1.52-1.01.07-.03 2.02-.05.36-.17.6-1.55c.33-.28.76.21.76.21l.56-.2 1-1.4.15-1.91s.37-.34.24-.73l-.29-1.35.01-.07.44-.73h.05c.83.08.77-.38.77-.38l.48-2.23a.8.8 0 0 0 .17.34l1.45 1.3c.15.1.15.1.32.14l.7-.18.32.93-1.23.49a.69.69 0 0 0-.28.24l-.42.8s-.5-.1-.88-.22c-.7-.07-.63.7-.63.7l.5 2.04-.03.2-.9 1.47-.44 2.77s.12.06-.57.18l-.62.33c-.57.16-.12 0-.62.03l-.73.18-1.13.88-.7-.88zm-115.87-7.25 2.61-.75-1.72 5.31-.9.1s-.04.03-.05-.04l.15-1.36c-.05-.68-.48-.56-.48-.56l.39-2.7zm104 3.6c.04 0 .28.34 0 0zm-89.68-4.07.45-.98-.15 1.58c.02.18.02.18.1.35 0 0 .3.38.37.67l-.2 1.32c-.03.11-.43.56-.58.29l-.44-2.07c.16-.08.46-.23.55-.53l-.1-.63zm-91.3 2.26-1.56 1 1.53-1.08.03.08zm113.72-5.67a1.01 1.01 0 0 0-.35-.1l-1.71.82-.6-.19c-.16-.83-.53-.83-.53-.83-.33-.04.25-.71-.19-.93-.22-.12-.53-.1-.53-.1s-.39-.3-.75-.15l-.75.48c-.2.19-.2.3-.23.4l-.06.64-.84 1.5-.68 1.02c-.12.29-.06.4-.03.52l.32.65a.67.67 0 0 0 .16.19l.37.27 1.05.11 3.9-.98h.08l2.56 1.18a.7.7 0 0 0 .31.04l2.03-.4a.61.61 0 0 0 .41-.57l-.09-.71c-.04-.14-.04-.15-.12-.27l-1.05-.68-.05-.01c-.96-.5-1.75-1.27-2.63-1.9zm-3.06.47.2.01h-.2zm-32.2-13.12c.09 0-.68.72-.34 1.21l1.06.47-.1 2.34-.06.04c-.9.32-1.77.84-2.73.97-.64.07-.85-.7-.5-.94.52-.32.25-.3.4-.5.57-.67.07-1 .07-1s-.41.16 0-.48l-.14-.72.6-.26.8-1.02s.56-.09.94-.1zm12.43-2.38 1.79-1.18-.22 1.13.27.57c.58.37-.68 1.02-.68 1.02l-.34 1.44-.63-.7c.15.32-.4-.45-.4-.45l.17-1.77.04-.06zM80.7 52.56a11.17 11.17 0 0 0-.18-.12h-.95c-.54-.12-.2-.39-.61-.71l-1.03-.7-.03-.03a.36.36 0 0 1-.01-.04l-.47-1.51s-.06-.48.27-.73l2.73-1.3.48-.83c.89-.44 2.28-.74 2.28-.74l.64-1.24c.04-.13.04-.13.05-.27l-.16-1.76c-.1-.32-.23-.38-.35-.44l-1.22.04-.33-1.31c0-.1.67-.95 1.13-1.55.16-.14.17-.13.32-.29L84.73 37l.47-.19 1.17.12a.6.6 0 0 0 .57-.45l.17-1.37c0-.13 0-.13-.04-.26l-.47-1.18c-.02-.16.1-.75.69-.83.86-.07.98-.66.98-.66l2.21-1.27.73-.3.91-.48.83 1.59.6.38.82.61 1.4-.27.11-.58-.9-2.03s.34-.85.66-.7c1.52.73 2.4 2.37 3.6 3.55.43.3.76.19.87-.36v-1.57c.22-.26.24-.24.4-.54l-.04-.42-1.2-2.2s.66-.1.78-.45l-.19-.96-.43-.99.75.05.57-.58.87-.41c.1-.02.62.1.84.84l.7.97s.96.43 1.38.07l.55-.66c.29-.5-.25-.97-.25-.97l-.04-1.27s.48.1.74-.07c0 0 .64-.64 1.16-.9l1.29-.33h.14c.55.34.54.01.9-.04l2.53.1 1.55.68s1.06.3 1.68.71c.22.16.64 1.03.97 1.67l.45 1.25 1.05.77 1.63 1.64-.96 1.56-.05.05-1.81.9-.28.53.44.53-.05 1.38.36.5s.73-.15.81-.53l.09-1.4s.88-.38 1.52-.26l-.04 2.9.04.2.5.32.73-.62.59-.28.77.78c.38.3.6.19.84-.09l1.03-1.9s.97-.34 1.62.07c.87.55 1.94 1.3 1.89 1.9-.11.9-1.04 1.48-1.56 2.22l-.02.01c-.69.52-.74 1-.74 1l-1.28 1.13-.13.17.13.6s.11 0 .07.11l-.86 1.09c-.49.42-.41.25-.35.69l-.54 1.46s-.79-.17-1.1.24l-.14 1.28s.08.44.02.93c0 0-.21.15-.4.5v.76l-.97.6c-.28.95-.63 2.24.26 2.83 0 0 1.04.47 1.24.98l-.11.62c-.83-.16-.7.68-.7.68.32.6.73.4 1.46.52l.01 1.68s-.02.04-.05.03l-1.23-.44c-.12-.02-.25-.06-.52.1l-.85.83.07.52c.2.62.3.75.64.78l.7-.07.06.86c.06.4.3.47.44.89l-.15 1.57-.13.13c-1.03-.14-.95.68-.92 1.02.02.25.27.43.54.47l.7.08c.44.87-.23 1.17-.23 1.17s-1.07-.42-.77.83c0 0 .52 1.11-.03 1.47l-1.45.5s-.03.01-.08-.02l-.88-.78c-.25-.16-.37-.13-.48-.11l-.85.55-.22.34.26.62-.14.36.5.72s0 .44.14.62l1.87 1.63.29.28.06.65c-.06.24-.07.24-.1.5l.22.44.1 1.19c-.67.38-.58.68-.58.68.07.63-.45.8-.88 1-.36.23-.64 1-.64 1l-1.77 1.57-2.46 1.02-.68.25-1 .05-1.24.73-.23.26-.98 2.33-.55.25c-.34.22-.1.29-.37.47l-1.19.64c-.31 0-.31-.01-.62.05l-.4.16-.75-.12c-.61.26-.58.38-.67.56l.01.74s-.52.3-.42.7c.06.23.36.35.1.73v1.05l-.28.34c-.4-.02-.51.13-.51.13l-.18.97-.33.4-.06 1.62-.1.28c-.65.72-.13.56-.3.79-.36.43-.17.82-.17.82-.33.32-.23.68-.23.68-1.05-.58-1.28.03-1.51.06-.6-1.02.25-.45-1.05-1.14l-1.41-.05v-.03c-.03-.87-.5-.86-.5-.86s-.14.1-.25-.1l-.4-.89c-.93-.87-.22-.38-.29-1l-.32-.5s-.17-.83-.49-.91l-.48-.65c0-.05-.02-.45-.08-.6-.11-.25-.23-.07-.3-.32l-.15-1.22L93.7 84l-.77-1.42.02-.87c.57-.93-.28-1.06-.28-1.06l.14-.93.37-.8c.04-.14.04-.14.05-.3l-.08-.56 1.42-.4a.63.63 0 0 0 .38-.52l-.03-1.08.12-.32s.49-1.12 0-1.45l-1.08-.05-.08-.03-1.76-1.36s-.06-.01 0-.04l1.7-.35.21-.54-.64-.94-.37-.21-1.03.3s-.66-.36-.89-.78c-.05-.11.27-1.02.27-1.02.1-.27.12-.27.16-.55l-.15-.41.54-.29c.24-.56.14-.6.07-.79l-.77-.68s.41-.46.3-.9l-.57-.61-.04-.09-.02-.9-.2-.39-.65-.06s.87-.47.58-1.1l-1.76-2.47.1-.91-.26-.55-3.18-1.7c-.5-.17-.78.3-.78.3-.3-.12-.65-.25-.95.03l-.38.5-.43-.05c-.57.18-.18.51-.5.48l-1.56-.57-.02-.02c-.33-.25-.55-.61-.83-.92 0 0 .34-.3.47-.51.13-.22.03-.51-.17-.7l-1.18-.25-.55-.9s.53-.7 1.07-.66c.87.08 1.06-.43 1.06-.43l-.07-.61zm38.79 34.38-.18-.1-1.39.11.3-.47s.17 0-.08-.99l-.24-.32-1.03-.17.57-.09.44-.42-.27-.54-1.2-.14.68-.87.36-.89s.45.19.8.43l.77.37c.28.08.32.02.66-.1l.64.37.72-.58s.06-.08.35.05c1.4.62 1.4-.47 1.4-.47-.09-.4.74.32.74.32l.79-.18-.13.68c-.02.62.5.52.9.9l.1.84-.16.32-.95 1.16-.76-.04-2.21 1.55-1.32-.25s-.15-.29-.3-.48zm59.89-15.88c-.27-.14-.64-.08-.64-.08-.47-.53-.85-.22-.85-.22l-.34-.8s.55-.79 1.05-1.43c.06-.1.13-.2.08-.49l-.27-.4s.4-.21.56-.39c.24-.27-.02-.7-.02-.7l.65-.56c.48-.81.32-.86.32-.86l-.47-.42s.82-.3.96-.64l.22-.87c.05-.03.43-.28.53-.42.1-.16.08-.33.08-.33-.07-.94-.14-.94-.06-1.89 0 0 .5-.18.72-.48.23-.34.35.07.8-.33l.3-.9 1.58-1.25.3-.07.48-.51.95.24a.7.7 0 0 0 .3 0l1.5-.5c.13-.06.13-.06.23-.15l1.68-1.88s1.01-.5 1.35.04c.55.87.18 1.9-.3 2.28l-5.5 2.96-.6.58c-.4.6.15.7-.36 1.3l-.89.85c-.34-.01-.61.16-.7.47l-.06.8s-.18.16-.31.31l-.24.92-.93 1.4c-.18.28-.46.48-.64.78l-.07.7s-.22.03-.29.48l.03.95a.69.69 0 0 0 .09.27l1.8 2.72-.26.47-.98-.25-.68.24-.68-.34-.64-.35s.85-.5.22-1.25zm101.87-.4c.68-.05 1.37-.16 1.82.86.07.16-1 1.03-1.65.71l-.2-.12-.78-.34.56-1 .25-.12zm-30.79-6.42c.18 0 .76.77 1.08 1.37.83 1.56-2.64.27-2.64.27h-.02c.19-.73.7-1.59 1.58-1.64zm-2.54-7.02c.12 0 1.18 1.21 1.18 1.21l.6-.15.28-.9.1-.02 1.49 1.08 1.74 1.13c1.18.52.05-.84 1.75.12l.63.6c.14.1.15.1.31.15l1.63.25-.15.72-.07.04-1.86.26c-.1 0-.3-.15-.3-.15l-2.45-.73-.2-.02-1.53.75s-.35-.37-.7-.44l-1.48.52-.8.45c-.7-.43-1.1-1.2-1.64-1.8-.05-.1-.08-1.7.42-2.26l1-.8a.24.24 0 0 1 .05 0zm-99.56-2.74-.06-.17-.94-1.7s.1-.33.08-.6l-.4-1.63a.67.67 0 0 0-.2-.31l-.33-.22-.53-1.24s-.12-.13-.2-.27l-.53-1.39-.5-2.53c.83-.64.44-.82.44-.82-.15-.37.53-.39.53-.39.13.08.26.14.41.16l.97-.31s.42.3.78.33h.68l.76-1.2.64.6c.43.3.75.2.89-.33l-.23-.8s.38 0 .56-.06c.4-.15.35-.82.35-.82l.41-.52c0-.6.91 1.05.91 1.05l1.05-.08c.12-.05.26-.08.4-.38l.16-.71.12.68.42.43.91-.48.35.1c.79.38 1.66.8 1.75 1.34.12.95-.63 1.84-1.15 2.65-.11.17-.97.8-1.68.96-.38.07-.76-.7-.76-.7l-1.45.14-.68-.45-.02-.01c-.3-.4-.58-1-.58-1-.27-.14-.6-.03-.6-.03l-.22.56.4 1.55c.12.26.22.3.3.35 0 0 .93.4 1.44.82.6.48.33 1.01.33 1.01s-.88.4-1.64.72l-.28.29-.01 1.25s-.33.17-.49.41l-.08 1.71s-.47.23-.62.6l-.65 2.87s-.02.03-.04.01l-.9-1c-.21-.34-.24-.37-.26-.43v.1-.1zm5.74-1.85a1 1 0 0 0-.38-.13s-.82.75-.8.3l.45-1.42a.7.7 0 0 0 0-.32l-.48-.68s1.36-.61 1.61-.59l1.16 1.52-.3 1.21c-1.93 1.61-1.26.11-1.26.11zm64.56-7.47c.2 0 .25.16.3.3.25.89.86.74.86.74l1.14 2.58s-.37.73-.47.8c-.79.23-1.62.23-2.44.34l-1.53 1 .82-3.17-.04-.38.17-.16.5-1.56s.35-.48.69-.5zm-8.35-3.5-.04-.14-.39-.36s.14-.44.34-.66c.08-.1.89-.61.84-1-.04-.28-.34-.42-.34-.42l.15-.57.04-.07 1.7-1.4c.4-.49.02-.67.31-.72a4.99 4.99 0 0 1 .37-.04l1.7 2.83-.58.13-.23.53.32 1.72.24.35s.15.13.53.33l.87.06s.56.68.63 1.2l-.23 2.05c-.08.1-.26.34-.29.6l.35.98-1.19.64c-.1.03-1.26-.71-2.06-1.2-.16-.07-.17-.07-.34-.07l-.48.06-.42-1.35c-.3-.58-.6-.35-.6-.35l-.46-.52s.04.08.61-.24l.67-.74c-.12-1.19-.82-.95-.82-.95l-1.11-.57s-.07-.06-.09-.11zM107.92 21.77l.07.07s-.15-.2-.07-.07z"/><path fill="#333" fill-rule="nonzero" d="M257.65 170.8c.31.03.02-.16.55.21.54.38.34 1.3.34 1.3l.3.24.26.22a5.57 5.57 0 0 1 1.77 4.7l-.5 2.34-.43 1.31a4.92 4.92 0 0 1-1.05 1.44l-.87 1.64-.12 1.76a1.1 1.1 0 0 1-.79.76l-1.58.29c-.44.57-.9 1.15-1.53 1.27l1.09-.2c.99-.24 1.4.71 1.52 2 .05.54-.05 1.17-.55 1.49l-.54.3-.18.7a1.08 1.08 0 0 1-1.05.6l-.7-.1c-.4-.07-.77-.35-.87-.78-.25-1.31-1.25-2.67-1.1-3.52.12-.57.75-.94 1.34-.78l.3.04s-.23-.68-.75-.25c-.33.26-.76.4-1.16.27l-2.39-.85a1.19 1.19 0 0 1-.53-.45l-1-1.8-.57-.18c-.8-.45-1.72-.37-2.14-1l-1.24-2.1-1.85-.73-3.58.66-1.97 1.53a1.24 1.24 0 0 1-.46.12l-2.65.02-1.41 1.02c-.25.1-.53.12-.79.05l-2.4-.86a1.1 1.1 0 0 1-.63-1.19l.5-2-1.99-4.94.22-1.42c-.14-.41-.08-.43-.05-.6l.49-2.23c.17-.6.87-.95 1.43-.7l1.2-1.02a1.3 1.3 0 0 1 .4-.21l3-.72 1.38-2.41c.25-.28.65-.78 1.26-.6l.34-.43c.07-.24.13-.27.22-.38.63-.66 1.33-1.16 2.5-1 .63.07 1 .46 1 .46l.76-1.21c.22-.32.75-.48.75-.48s.45.08.56-.24c.2-.6 1.02-.75 1.02-.75l2.78.95.28-.06c.7-.11 1.66.18 1.39 1.76a1.17 1.17 0 0 1-.25.56l-.49.52 2.18 1.28.6-.95-.1-2.04c.18-1.12 1.46-3.14 2.5-2.13.12.12.2.26.27.41l.83 2.5.27.1c.48.17 1.04.43 1.2.98l.61 2.76a9.3 9.3 0 0 1 .6.26l.3.15c.48.26.99.6 1.2 1.13l.42 1.22c.1-.01.1-.02.33-.01zm-107.86 4.95c.18.02.36.09.52.18l.62.46.23-.07v-2.5c.07-.74.85-1.23 1.53-.9.34.16.25-.05.5.6l.2.69.47-.6a1.19 1.19 0 0 1 .96-.33l1.39.28c.82-.87 3.13-3.6 2.47-2.6.13-.17.15-.17.23-.22.7-.41 1.66-.2 2.28-.04 1.74.43 2.61 3.69 2.4 5.2l-.28 1.18a1.4 1.4 0 0 1-.23.45l-4.48 5.02a1.39 1.39 0 0 1-.55.33l-5.63 1.21a1.39 1.39 0 0 1-.59-.04l-1.23-.47c-.36-.17-.6-.63-.6-.63l-.52-1.46c-.15-.58.2-1.19.2-1.19a17.86 17.86 0 0 1-1.07-2.62l.1-1.14c.09-.51.45-.85 1.08-.8zm-48.47-21.44c1.06.03 2.15.08 3.07.54l2.14 1.56.32.02c1.35.14 2.3 1.57 2.22 2.9l-.45 1.79a1.42 1.42 0 0 1-.26.45l-2.53 2.65-.26 3.71c-.03.12-.02.13-.06.25l-1.6 3.82-.94 1a1.23 1.23 0 0 1-.76.32l-1.62-.04-2.74 1.66-.02 2.25c-.02.22-.1.44-.22.63l-2.67 3.37a3 3 0 0 1-.47.34l-.5 1.03c-.52.72-2.1.6-1.88-.77l.05-.51-2.98-1.7a1.11 1.11 0 0 1-.27-1.56l2.78-2.5s-.65-.46-.58-1.16l.05-.26-.7-.73-.18-.75-1.28-.17c-.61-.32-.65-.6-.64-1.08l.4-3-.32-.74h-.82c-.68-.07-1.02-.92-1.02-.92l-.16-1.42c-1-.4-4.08-1.43-3.02-1.22 0 0-.56-.31-.7-.8l-.1-.58-1.78.72-.2-.03-2.12-.8s-.9.04-1.38-.5l-1.47-1.98c-.29-.46-.25-.66-.1-1.04l.87-1.92c.14-.26.37-.45.64-.56l1.8-.55.27-1.41-.44-1.24c-.12-.46.2-.94.2-.94-.1-.38-.05-.4-.02-.57.09-.5.73-.77.73-.77l2-.41c.75-.1 1.3 1.04 1.3 1.04l.24.07.46-.33-.7-1.07c-.17-.72.45-1.52 1.32-1.3l.98.34 1.53-1.04s1.87-.23 2.07.96l.14 2.07 1.12-.26c.15-.43.38-.75 1.06-.74l1.82.2.95-1.44c.57-.4 1.4.07 1.4.07.92 1.12 1.96 2.5 1.52 3.54l.45.03c1.46.13 3.19.37 3.6 1.5 0 0 .28-.03.46-.03zM52.31 67.59c-.12-.78.23-1.65.93-1.84-.18-.52.52-1.17.52-1.17 0-.32.04-.32.1-.45.2-.44.82-.59.82-.59l.9-.22 1.48-.63c.58-.13 1.35.15 1.37.91.12-.3.52-.52.52-.52l.48-.18-.54-.2-1.27-.85a1.24 1.24 0 0 1-.42.13l-1.9.05c-.66-.05-1.05-.8-.94-1.46l-.2-.23-.84.16c-.7-.12-.74.03-.93-.78-.16-.65.56-1.48.56-1.48l.3-.6L53 56.4c-.07-.88 1.29-1.15 1.29-1.15.7-.37 1.8-.46 1.8-.46.28-.2.31-.18.45-.21.3-.08.7.33.78-.11.08-.43.28-.94.79-.99l-.5-.7c-.37-.81-.52-.53-.66-.75-.4.49-.36.37-.83.38l-1.13-.08c-.64-.1-.76-.3-.92-.77l-.16-.61-.96-.2-.24-.16-.54.16c-.63.07-1.17-.62-1.17-.62l-.43-1.04c-.15-.5.06-.82-.07-1.3l-.35-2.28c-.08-1.15 1.72-1.32 2.73-1.07.55.12 1.05.43 1.21 1.1.26-.06.3-.04.44 0 .56.12.78.94.78.94.86.09.4.04.67.3 0 0-.2.24.5-.02.37-.15.88-.38 1.8.09.47.24 1.14.79 1 .54-.18-.4.01-1.04.01-1.04l-.94-.58-.38-.96-.13-.51-.7-2.1c-.12-.53.34-1.07.34-1.07a3.2 3.2 0 0 1 .1-.4c.06-.24.3-.35.21-.69-.12-.54.4-1.08.34-1.31-.04-.19-.09-.23.02-.59l.52-1.26c.38-.72.35-.24.36-.62.01-.24 0-.36.26-.67l.7-.7c.4-.34.93-.35 1.36-.1l-.16-.86c-.06-.59.08-.76.43-1.04l1.54-1.06c.44-.25.5-.36.5-.36l.89-.72c.24-.13.57.01.66-.19.14-.25.12-.33.72-.56 0 0-.01-1.56 1.45-1.65a1.18 1.18 0 0 1 .7.19s.44.57.58.3c0 0 .06-1.27.77-1.58 0 0 .27-1.13 1.25-1.05l.73-.72c.56-.37 1.51.2 1.51.2.08-.39-.03-.28.35-.6.74-.65 2.19-.57 3.3-.02 0 0 .3-.54.87-.63l1.27.16c.49-.3 1.4-.01 1.4-.01.25.2.3.39.85.41a.96.96 0 0 1 .25.06l2.15.98c1.47 0 .91-.25 1.9.22a.78.78 0 0 1 .2.13c.43.38.28 1.26.28 1.26l.16.17.12.15c.79 1.04 1.11-.62 1.7 2.15.1.48.22.89-.18 1.43l-2.45 2.92.03.24v.63a1.23 1.23 0 0 1-.29.7l-2.4 2.53-1.53 2.72-.66 1.15-.81 1.7c-.14.2-.34.37-.58.47l-.79.27c-.1.31-.25.62-.98.7.07.22.06.14.05.38l-.11.9-.12.56.1.94c.01.5-.48.87-.44 1a1 1 0 0 1-.46 1.09l-.15.74c-.28.77-.41.68-.93.76l-.54.08s.08.52-.18.9l-.65.83c.26.09.27.13.34.2.22.21.2.55.2.55l-.22 1.96c-.12.54-.78.83-.9.97a1.45 1.45 0 0 1-.48.38s-1.5-.16-.32.82c.5.4 1 1.04.65 1.75 0 0-.26.25-.03.74.16.37.22.82-.17 1.13l-1.94 1.27c-.35.19-.84.13-.84.13L69 63.4c-.33-.12-.47.14-.79.16h-1.09c.47.11.92.31 1.27.62l1.7-.41c1.69-.28 3.84-.1 4.66 1.1.8 1.17 1.21 1.9 1.03 2.61l.49.84a7.24 7.24 0 0 1 .56.36c1.55 1.15.6.23 1.73 1.03a6.41 6.41 0 0 1 1.11 1.16c.14.07.07-.33.45.5l.68.33 1.13 1.21.82 1.01.14 1.37c.05.7-.22 1.63-.22 1.63.09.02.17.05.25.1.36.19.5.78.5.78.16.11-.26-.1.72.04a1 1 0 0 1 .81.83l.35.67.31.1c.73.25 1.35.76 1.35.76.06.15.06.15.07.3l-.31 3.05-.23.63a1 1 0 0 1-.57.48s.05 1.56-1.13 1.4c0 0 .21.21.26.57l.08 1.4-.04.46c-.14 1.14-.9 1.78-1.63 1.72 0 0 .07 1.33-.85 1.13l-4.49-2.07a2.27 2.27 0 0 1-.32-.2l-.17-.22s-.03.07.17.23l.64.86c.44.27.92.92.92.92s1.57-.12 1.75.8L81 93.34a32.23 32.23 0 0 1 .66.91c.46.68-.04.24.74.12l.66-1.84c.07-.14.15-.28.26-.4.84-.91 2.34.79 3.07 2.35.2.43.35.9.32 1.37l.48.9c.12.3.2 1.25.41 2.01l.84.74.2.11c.33.2.65.43.8.8l1.22 1.09c.1.14-.02.36.4.43.4.09.85.25.97.76l.17 1.21c.03.58-.1 1-.1 1.57-.02.5-.39 1.13-.39 1.13l1.18.58.84.97c.76.38.79 1.69.79 1.69l-.25 1.73c-.15.64-.96 1.13-1.62.63-.52.18-.78-.21-1.18-.05-.64.23-1.38-.23-1.34-.96l-.1-.14-1.69.23c-.45-.02-.93-.23-1.04-.7-.09-.4.22-.96.22-.96-.15-.32-.12-.35-.13-.49 0-.49.52-.89.52-.89l.62-.3.08-.43s-.37.63-1.01.67l-3.18-.05c.3.65.24.87.25 1.31.01.6-.08 1.35-.08 1.35s4.19 1.7 3.01 2.9a.97.97 0 0 1-.32.2l-2.39.76-.96 1.2c-.6.34-1.43-.26-1.43-.26l-.08-.1-.57-1.1c-.2-.44-.28-.35-.28-.35-1.14.24-2.24.76-3.35 1.2-7.27 2.93-14.4 6.23-21.53 9.5 0 0-.22.38-.82.05l-19.68-15.75c-.25 0-.26-.03-.34-.06a1 1 0 0 1-.53-.52l-.57-.48c-.07-.07-.07-.07-.12-.15 0 0-.86-.03-1.22-.58l-.8-.44c-.67-.5-.57-.45-.5-1.23 0 0-.47-.7-.33-1.38 0 0-.33-.15-.64-.46l-.66-.8c-.27-.39-.23-.51-.26-.79-.05-.48.04-1.19.04-1.19l-.02-1.22-2.74-4.2-2.74.35c-.15-.05-.15-.05-.28-.14l-14.11-13.6c-.57-.8 1.43-1.64 2.8-2.47 2.99-1.83 5.87-3.83 9.05-5.35.38-.18.73-.1.73-.1l2.73 1.35c.23-.3.2-.23.46-.36l.96-.38 1.39-.28 2.66-1.71c.31-.13.72.2.8-.12a1.04 1.04 0 0 1 1.77-.4l.06.06.95 1.34s1.12-1.78 1.87-.42c.45.8.61.4.88.4.32.01.64.04.93.17l2.48 1.42-.32-.69c-.11-.39.16-.9.05-.99a1.3 1.3 0 0 1-.26-.3l-.52-1c-.21-.51 0-1-.34-.77l-1.8 1.1c-.74.35-1 .08-1.55-.43l-1.1-.99a17.5 17.5 0 0 1-.31-.3 8.45 8.45 0 0 1-.53-.58c-.25-.3-.61-.72-.36-1.34l1.45-4.26-.61-1.6c-.13-.55.25-1.04.77-1.21l2.55-.57c.42-.07.8.14.95.27l.83.82c.27-.08.83.05.83.05l.58-.25c.43-.02.75.2.9.34l1.84 2.17c.46.06.44.12.44.12l.56.92c.43-.08.37-.05.66.07l.66.2c.58-.35 1.66-.14 1.66-.14a2.24 2.24 0 0 1 .1-.3c.57-1.31 2.65-.96 3.88.86.16.24.3.49.36.77l.05.31.53 3.83.48.67a7.3 7.3 0 0 1 1.17.41c.55.26 1.18.64 1.26 1.34 0 0-.23 1.37.13.83.8-1.05 1.41-.99 1.41-.99s.27-.5.12-.73c-.18-.33-.11-.96-.2-.87-.47.39-1.14.18-1.5-.25l-1.33-1.97-.86-.3a1.98 1.98 0 0 1-.34-.4l-.72-1.05a1.8 1.8 0 0 1-.15-.51zm77.68 46.02 4.83.45c1.41.38 2.82.77 4.23 1.18 0 0 .67.26.73.84.04.37-.15.73-.4.97l-1.86 1.43-1.1 3.13s-.22.33-.53.48l-3.94 1.59c-.58.18-.77.07-1.11-.23l-1.54-1.53c-.48-.56.05-1.61.05-1.61l-.36-1.29c.02-.16.06-.31.12-.46l.4-.73-.98-.16c-1.26-.7-.72-2.7-.72-2.7.04-.15.3-.43.3-.43l1.31-.81c.17-.07.21-.12.57-.12zm-1.88.93s-.34.32 0 0zm14.81-14.79c.35.03.4.07.58.1.71.16 1.36.82 1.61.83 1.11.09.18-1.07 2.46.5.44.31.87.56 1.02 1.23l.54 3.6c.03.67-.13.83-.63 1.1l-1 .4c.11.13.14.06.47.7.22.45.35 1.02-.05 1.46l-.41.36.08.45c-.14 1.15-1.08 1-1.08 1l-4.42-.24c-.85-.11-.92-1.38-.92-1.38l.23-.62-.85-.4a1.24 1.24 0 0 1-.36-.66l-.34-2.98c-.01-.59.14-.74.5-1l.4-.24.07-1.48c.26-.66 1.4-.72 1.4-.72l-.3-.58c-.22-.67.12-1.45 1-1.43zm-9.78-5.25c1.06.02 1.16.13 1.4.55.22.37.26.62-.13 1.2.85.09 1.58.9 1.05 1.7l-.54.68.4.56.6 1.53c.6.35 1.1 1.1 1.1 1.1l.2 1.07c.67.14 1.67.8 1.1 1.76 0 0-.4.28-.25.48 0 0 .28.61.04 1.08l-.38.6a1.23 1.23 0 0 1-.74.46l-2.32.28-2.94.76s-1 .03-1.24-.63c-.15-.42.05-.88.34-1.17l.64-.52s-.54-.23-.64-.7c-.11-.53.44-1.22.44-1.22a.99.99 0 0 1 .17-.9l.46-.55c.35-.36.73-.1.39-.55 0 0-1.12.06-1.35-.78a1.08 1.08 0 0 1-.51-1.18l.25-.79c-.44-.18-.48.05-.65-.7-.09-.4.3-.94.3-.94l.23-.2-.17-.62c-.08-.56.63-1.01.63-1.01s-.09-1.35 2.12-1.35zm-59.7-18.42c-.07-.02-.22-.11-.51-.46 0 0-.11.05-.57-.01l-.98-.23s-.7-.1-.38.31c.33.45.44 1.2.44 1.2.2.37.2 1.13-.35 1.46 0 0 .74.87.6 1.8l-.22.95a1.39 1.39 0 0 1-.35.56l-1.55 1.3-.07.12c-.15.22-.54.13.14.64.61.47 1.2.99 1.45 1.71 0 0 2.13 1.43 1.06 2.46l-.74.58c-.35.23-.78.2-.96.16l-1.15-.39a1.84 1.84 0 0 1-.3-.17l-.88.93c-.59.44-1.45.06-1.77-.62l-.97-.2c-.29-.16-.53-.58-.53-.58l-.6.13c-.11.5-.3 1.1-.81 1.37 0 0-.58.06-.57.35 0 0-.04.74-.62 1.02l-.41.34-.3.53c-.03.27-.07.29-.1.38L60.8 93l-.14 1.14c.5.14 1.2.4 1.34 1.03l.23 1.61c.58-.16 1.4.02 1.4.02l4.18 2.66.33-.01h.32a5.79 5.79 0 0 1 .82.05c.63.1 1.41.33 1.5 1.12l.02 2.67.84 1.16.13-.08-.95-2.82c-.1-.44.02-.77.51-1.1l1.36-.74.67-1.09-.26-1.57-1.22-1.01a1.2 1.2 0 0 1-.03-1.03l.91-1.72s-.92-.54-.67-1.45l.45-.97-.4-1.3c.06-1.19 1.23-1.56 1.9-1.39l1.75.62.48-.4c.81-.3 1.17.2 1.17.2s-.45-.82-.5-.86c-.48-.4-.32-.56-.9-.74l-.64-.03-.68.28c-.4.13-.9-.05-.9-.05l-1.24-.7a1.13 1.13 0 0 1-.46-1.26l.63-1.69c.27-.57.5-.64.97-.67l1.41.01s-.1-.58.17-.98l1.48-1.78-.42-1.17c-.19-.05-.2-.06-.28-.1a1.38 1.38 0 0 1-.42-.35l-.5-.54s-1.71 1.08-1.84-.68v-.74c.09-.74.27-.45.12-.47zm-18.53.6c-.04.56-.72.93-.72.93l-.67.11.7.7 1.38-.06s.15-.78-.12-.97c-.33-.24-.56-.8-.57-.7zm7.88-8.64c-.29.37-1 .52-1 .52-.01.08-.02.08-.04.15l-.45 1.06 2.01 3.75c.12.42-.19 1.04-.19 1.04l.5.18c1.05.42 2.08.95 2.5 2.02 0 0 .15-.26.37-.4l-.57-1.81s-.92.4-1.45-.13l-1.13-1.3a1.39 1.39 0 0 1-.22-.45l-.17-.72c-.06-.42-.17-.43-.22-.64l-.26-1.52a1.4 1.4 0 0 1 .02-.4s.42-1.53.3-1.35zm2.9-4.46h-.9c-.45-.04-.62-.27-.62-.27s-.42-.17.03.38c.23.3.22.86.22.86l.5-.57c.17-.16.19-.16.28-.21.15-.08.32-.15.5-.2h1.43a3.15 3.15 0 0 0-1.44 0zm-21.73-8.45c.74.07 1.07 1.07 1.07 1.07a3.97 3.97 0 0 1 .47.05c.4.08.5.44.77-.1l1.38-1.82c.5-.55 1.52-.5 1.8.38l.25 2.09c.26-.18.28-.15.45-.17.94-.11 2.1.86 2.01 1.85l-.45 2.58c-.15.58-.35.69-.8.83l-1.9.42a1.19 1.19 0 0 1-.73-.13l-2.17 1.47c-.47.27-.66.22-1.04.06l-1.63-.82c-.39-.25-.36-.63-.8-.76l-.23-.09-1.59-.84a1.15 1.15 0 0 1-.48-1.27l.35-1.08s.43-.8.17-.55c-.6.54-.76.9-1.2 1.04-.67.2-1.48-.24-1.48-.24-1.84 1.88-1.98-1.46-1.98-1.46l.12-1.12c.12-.6.3-.71.73-.88l.48-.14 1.78-2.88s.38-.38.85-.38l1.06.06.34-.6c.7-.6 1.77-.04 2.3.8l-.01-1.43c.06-.64.33-.47.1-1-.26-.6-.14-1.34.35-1.75.9-.63 1.88-1.6 2.55-1.59.5 0 1.43.55 1.94 1.77l.08.2c.2.57.22 1.26-.26 1.7 0 0 .23.75-.23 1.24l-.11 1.31c-.45.95-.68.63-.68.63l-1.83.52a1.3 1.3 0 0 1-1-.24l-.58-.56c-.26-.29-.08.19-.37.55l-.36.38.35.9h.16zM59.9 58l.94.53-.32-.69-.62.16zm-1.23.48s.74-.35.41-.38c-.2-.03-.47-.16-.47-.16l.06.54zm7.24-.39c.27.03.53.16.71.38 0 0 1.39-.27.41-.61l-.75-.32c-.44.28-1.23.21-1.23.21-.55.53-.36.12.17.46 0 0 .32-.14.68-.12zm-4.48-7.22c.2.18.18.2.23.29.1.18.14.37.14.57l-.1 1.33c-.08.5-.83.66-.62.8l.5.79.23-.03a6.7 6.7 0 0 1 .29-.03c.57-.02.71.25 1.05-.24l.98-1.05a2 2 0 0 1 .43-.26l-.43-.68c-.24-.61.32-1.2-.44-1.1a3.26 3.26 0 0 1-.86-.01l-1.2-.3-.2-.08zm-.94-.33c.33.03.92.39.62.08l-.63-.9v.82z"/><path fill="#666" fill-rule="nonzero" d="M252.64 188.97c0-.04.6.55 1.7.4l1-.3c.1-.02.08.25.14.48.37 1.62-.81 1.65-.81 1.65l-.28.94s-.64.03-.69-.16l-1.06-2.99v-.02zm-8.62-8.2-2.15-.84c-.14-.03-.14-.03-.28-.03l-3.85.7-.23.11-1.92 1.5-2.8.03c-.15.02-.15.02-.3.1l-1.4 1.02a14.46 14.46 0 0 1-2.34-.84l.53-2.14-.02-.32-2.02-5.02s.33-.43.4-.9l-.2-.58s.05-1.39.47-2.2c.03-.05.1.07.18.13l.6-.04 1.5-1.28c1.05-.36 2.15-.51 3.22-.77l.33-.25 1.38-2.46c.3-.33.59-.08.95-.22l.73-.93s.67-.85.82-.88c1.66-.2 1.96 1 2.57.54 0 0 .48-1.03 1.09-1.78.28-.05.57-.06.85-.1l.37-.22s.05-.21.18-.62l2.65.9.39-.01c.82-.2.52.27.42.57l-.89.96c-.24.38-.13.59.12.8l3.16 1.86a.61.61 0 0 0 .7-.17l1.02-1.66-.1-2.2.76-1.48c.52.82.61 1.84.92 2.76a.69.69 0 0 0 .2.27s.79.07 1.16.48l.67 2.98c.06.16.06.16.18.3 0 0 .77.24 1.47.7.55.37.7 1.2.98 2 .3.54.56.34.56.34.9-.14.45.67.45.67.02.16.02.17.1.32 0 0 1.59.8 1.93 2.12.45 1.73.16 3.08-.14 4.53l-.42 1.25s-.6.62-.93 1.18a51.76 51.76 0 0 0-1.05 2.08l-.09 1.68-1.94.4s-.38.67-1.04 1.1l-.48-.56c-.43-.38-.96-.14-.96-.14-.5.11-.4.32-.65.5-.23.15-1.59-.32-2.5-.77l-1.1-1.97-.9-.45c-.3-.69-.84-.12-1.03-.35-.42-.54-.64-.13-.7-.25l-1.33-2.23a.67.67 0 0 0-.25-.22zm-84.17-9.17c.5 0 .65.01.98.08.2.03.4-.05.5.21.5 1.2 1.25 2.57 1.24 3.83l-.27 1.12a20.73 20.73 0 0 1-4.45 5 .17.17 0 0 1-.06.04l-5.55 1.2-.08-.01-1.15-.44a2.66 2.66 0 0 1-.53-1.42c.02-.32.36-.87.2-1.22a17.7 17.7 0 0 1-1.03-2.34l.07-.87s.93.72 1.26.67l.84-.25.37-.5v-2.84l.45 1.47c.2.42.56.4.9.3l1.05-1.3s1 .15 1.7.3c.3 0 .38-.09.47-.16l2.7-2.84.39-.03zm-80.76-10.17c-.17-.14-.35-.18-.35-.18s-.55.38-.82.18c-.48-.64-1.12-1.18-1.42-1.91a6.9 6.9 0 0 1 .9-1.97l2.05-.63c.29-.15.31-.28.36-.4l.36-1.84a.68.68 0 0 0-.02-.28l-.46-1.29.03-.06c.54-.7.2-.77.2-.77-.14-.37 1-.66 1.83-.57.1.02.17.4.25.66 0 0 .96.7 1.53.42l1.08-.77a.6.6 0 0 0 .13-.7l-.82-1.23c.5.08.67.53 1.5.42l1.8-1.19s.36.1.56.24l.15 2.19c.07.33.21.38.21.38.73.53.8.36.8.36l1.67-.4.34-.25s-.04-.22.11-.37c.54-.45 1.39.15 2.08.23.19-.02.19-.02.36-.1l1.11-1.54c.86.95 1.45 2.08.8 2.9-.32.6.45.84.45.84 1.98.04 3.9-.06 4.08 1.14l.03.27.39.45.85-.33c.95.02 1.95.03 2.7.44l2.14 1.56s.82-.01 1.42.3c.13.07.59.97.57 1.6l-.43 1.62c-.71 1.07-1.77 1.86-2.66 2.79l-.14.32-.25 3.78-1.57 3.77-.74.75s.01.01-.06.02l-1.73-.04c-.15.02-.15.02-.28.08l-3.12 1.89c-.3.26-.24.44-.24.44l-.02 2.49-.03.07c-.87 1.1-1.6 2.35-2.62 3.31 0 0-.06-.05-.38.17l-.66 1.3.15-.66c.04-.39.13-.36-.53-.9l-3.02-1.72s-.02-.03 0-.05c.77-1.05 1.94-1.74 2.9-2.62.17-.2.33-.5.16-.95l-.63-.51s.05-.47.11-.81l-.09-.4-.72-.26-.27-1.09-.24-.32s-1.51 0-1.56-.25l.4-3.08c0-.14 0-.14-.03-.27l-.5-1.19c-.19-.28-.34-.29-.47-.31h-1.11s-.17-.98-.25-1.73c-.12-.4-.32-.42-.32-.42l-3.35-1.35-.23-1.23c-.16-.43-.4-.46-.71-.39l-2 .86-1.6-.6-.1-.31zm-.67-70.18c.04 0-.03-.14.02.17l.96.57c.16.05-.12-.03.67.03l-.11 1.45c.02.19.02.2.1.36 0 0 .82 1.27 1.37 2.05l.6.08s.18-.58.6-.55c.65.06.6-.32.6-.32l.82-2.17c.8.9 1.64 1.89 1.61 3.11l.56 1.1s.2 1.31.46 2.18l.94.92s.37 0 1 .84l1.2 1.08c.02.12.03.35.1.48.14.27.53.28.53.28.91.04.73.62.72 1.11.02 1.07.08.74-.13 1.74l-.4.87c-.01.12-.05.25.13.5l.77.76c.51.34.64.05.64.05l.84.98.2.15c.3.1.06-.04.26.57.15.61-.23 1.73-.23 1.73-.57-.5-.77-.22-.77-.22-.2.12-.34-.6-.77-.43-.26.1-.51.42-.51.42s.5-1.1-.97-1.15l-1.87.26c.4-.84.16-.96.16-.96-.25-.32.69-.52.69-.52.13-.1.13-.1.22-.22l.44-2.08c.56-1.05-.15-1.28-1.13-.8l-1.16 1.5c-1.59.22-3.2-.07-4.81-.1l-.2.04-.8.75c-.28.4-.26 1 .55.84l.9-.36c.64-.06-.01 1.85.4 2.85l.64.8c.78.3 1.56.62 2.24 1.08l-2.07.66c-.13.06-.13.07-.24.17l-.86 1.08h-.01c-.52-.58-.59-1.5-.59-1.5l-.52-.24c-.8-.73-2.28.23-3.54.72-7.7 3.03-15.01 6.46-22.4 9.84l-19.61-15.7-.33-.1s0 .05-.25-.23l-.57-.49-.1-.2-1.01-.32-.1-.05-1.12-.75-.04-.08a.53.53 0 0 1 0-.18c0-.05-.37-1.13-.37-1.13s.27-.55.07-.95l-.76-.48s-.57-.32-.77-.8c-.14-.36-.05-.88-.02-1.34l-.02-1.41c-.02-.15-.02-.15-.08-.28l-3-4.6c-.23-.24-.37-.22-.5-.23l-2.67.37-13.46-12.97.51-.31a667.79 667.79 0 0 1 5.89-3.58c1.56-.94 3.1-1.97 4.72-2.72l3.13 1.54.42.01.32-.52s-.11-.05.02-.14l.78-.31 1.61-.36 2.56-1.66.81.53.54-.5.06-.82 1.52 2.09.16.15.62-.08.52-1.25.08 1.2c.13.5.43.64.88.32l.33-.7s.57-.07.9.04l3.12 1.78.89.15c.27.1.62.13.86-.07.85-.72-.54-.93-.54-.93s-.57-.82-.72-1.45c0 0-.04-.02.02-.04.95-.35 2-.3 3-.45l.44-.44s.33-.37-.65-.69l-3.04.18s-.46-.5-.54-.95c-.02-.13.73-.6.08-1.04 0 0-.51-.3-.7-.62a.98.98 0 0 0-.36-.18l-.72.47s-.04.08-.15.17l-1.72 1.04s-.08 0-.12-.04c-1.06-1.02-2.26-2.35-2.26-2.35l1.5-4.44a.69.69 0 0 0 0-.35l-.6-1.6a4.3 4.3 0 0 1 2.54-.54l1.05 1.04c.22.15.44.16.65.06l.63.1s.59-.4.75-.3l1.95 2.3c.27.23.43.18.43.18.24-.02.28.5.43.95l.3.32.6-.17c.14-.19.62.18 1.09.4.54.15.73-.37.73-.37s.46-.08.72 0l.58.55.39.14.46-.37-.1-1.07s.05-.29.2-.32c.93-.12 1.82.71 2.12 1.6l.58 4.23a.68.68 0 0 0 .1.23l.66.92.38.22c1.18.31 1.96 1 1.79 2l-.7-.27-.4.45s.27.62.22 1.37l-2.33.22-.2.07-.25.56.92 1.24.63-.1c.46-.45.69.4 1 .71l.39.16 2.17-.1.47-.38-.1-1 .22-.11.26-.56-.73-.62c-.87-.42-.14-.4.17-.57.33-.26.25-.63.25-.63-.08-.31.3-.39.3-.39.58-.7.6.05.83.15.3.14.63-.09.73-.4l-.29-1.25.37-.66-.31-.54s-.1.02-.11-.1l.1-1.05c.29-1.43-1.02-.96-1.02-.96l-.57.2s.04.98-.24.7l-1.41-2.06a.68.68 0 0 0-.26-.2l-.78-.27-.05-.07-.66-.96s.01-.48.11-.82c.07-.16.4.22.73.47h.62c.52-.58.4-.7.31-.95l-.89-.85.34-.1.2-.63c-.08-.42.76-.23.76-.23l.5-.3 1.28-.55-.03.18.3.54s.09-.1.19.08c0 0 .28 1.2.98.86l.52-.75.06-.42c-.12-.56.86-.55 1.39-.66.08 0 2.18.15 2.65.84-.48 1.04-.72 2.23-1.46 3.1-.1.1-.93.08-.93.08l-.32.5s.13.05.09.33l-.52 1.23c-.09.33.02.45.02.45l2.05 3.8-.3.44s.06-.08-.05.04a1.28 1.28 0 0 1-.1.1l-.11.6s.39.25 1.66.76c.89.35 2.16 1.27 1.91 2.34 0 0-.43.68-.34 1l.48.97.52.28.44-.39.68-2.77.3-.1.2-.58-.68-2.2-.24-.67-.5-.34-.96.41-1.1-1.26-.01-.03c-.2-.5-.26-.92-.4-1.34l-.24-1.45v-.03c.11-1.12.51-2.2.77-3.3 0 0 .75-1.05 1.42-1.63a4 4 0 0 1 1.99.22c-.13.6.56.76.56.76s.36.2.48-.5c0 0 .95-.32 1.62-.4 1.73-.21 3.52.3 4.23 1.68.65 1.23.02.82.2 1.32l.7 1.19s.87.44 1.3 1.06c.4.6.61.25.93.35.72.26 1.5 1.44 1.5 1.44s.14.31.33.42l.6.25 1.07 1.14.56.58.12 1.17s.05.53-.03.9l-.4 1.02c.02.58.32.5.92.61-.11.55.23.6.23.6 1 .59.97.33 1.36.36l.68 1.32s.7.15 1.35.52l-.24 2.56-.15.42s-.49.03-.66.3l-.04.98-.4-.13c-.52.12-.41.22-.48.33-1.07 1.62-.22 1.26.03 1.61l.06 1.25c-.05.67-.53.96-.53.96-.11.39-.7-.43-.7-.43-.42-.25-.75-.16-.86.38 0 0 .23.65.36 1.17l-3.78-1.75-.02-.01c-.58-.51-.78-1.3-.78-1.3s-.22-.11-.49-.87c-.3-.52-.81-.23-.81-.23s.09.12-.38.02l-.79-.03-.22.04-.73.31s-.82-.27-1.24-.66c-.14-.14.45-1.66.64-1.71l2.22.02.2-.04.32-.52-.4-.81 1.65-2c.06-.1.14-.2.09-.5l-.64-1.77c-.25-.44-.6-.33-.6-.33s-.58-.56-1.02-1.04c-.55-.4-.97.25-1.24.37v-.03c0-.2-.07-.43 0-.63.08-.16.43-.7.43-.7l-.84-.73-.84-.83-.49.22c-.42.14-.62-.32-1.34-.24l-1.26.3c-.4.17-.59.12-.3 1.1 0 0 .43.36.69.91l.06.61c.27.36-.37.3-.54.47-.28.25-.06.7-.06.7.64.8 1.13 1.81.57 2.46l-1.62 1.35-.15.2c-.1.26-1.07-.03-1.07-.03l-.38.46c.16 1.23.78 1.01.78 1.01.97.25 2.04.93 2.16 2.21.31.6.77.1 1.19.98.08.2-.28.4-.54.55-.1.06-.76-.1-1.13-.35a4.6 4.6 0 0 1-.43-.52l-.56.13-1.21 1.31s-.2-.65-.66-.81l-.97-.16.69-.63.12-.6-.54-.29-.8.44s-.33.51-1 .55c-.14 0-.4-.16-.4-.16l-.53.26s0 .93-.39 1.36l-1.1.48-.11.57s.23.2-.09.4l-.57.45-.55.87s.02.07-.08.36l-.65 1.33-.26 1.85a.61.61 0 0 0 .42.57s.7.09 1 .36l.3 2.14a.62.62 0 0 0 .52.44s.8-.38 1.3-.28l4.28 2.72c.16.07.16.07.33.08 0 0 1.55-.2 2.01.21l.04 2.76c.02.15.02.15.1.3l1.3 1.8.36.2.53-.3c.29-.55.7.04.78-1.07l-1-3.04.01-.02c.47-.45 1.07-.27 1.64-.98l.84-1.37c.06-.17.06-.17.06-.35l-.31-1.95-.07-.18-1.25-1.02 1-1.9a.68.68 0 0 0 .04-.36l-.17-.68c-.28-.64-.62-.2-.56-.42l.53-1.19-.4-1.37s.37-.42.54-.4l1.99.7c.18.03.18.03.36 0 0 0 .48-.62.65-.5l.93 1.26a2.66 2.66 0 0 0 .74.62zm51.51 23.4c2.88-.22 5.81.7 8.8 1.58 0 0 0 .02-.02.03l-1.94 1.5c-.1.1-.1.1-.17.23l-1.13 3.16c-1.29.52-2.49 1.4-3.87 1.56a3.86 3.86 0 0 1-1.54-1.5c-.1-.2.4-.52.36-.92l-.39-1.26.72-1.35a.61.61 0 0 0-.19-.69l-1.58-.28s-.17-.82-.15-1.4c.37-.23.68-.63 1.1-.67zm12.95-13.86c-.02-.07 1-.01 1.22.46.3.67.51.42.96.46l.55.16s.19-.24.55-.28c.22-.01 1.2.48 1.42 1.02l.52 3.49s-.01.05-.04.07l-1.6.66c-.41.27-.38.53-.18.83 0 0 .8.76.87 1.3l-.55.5c-.4.5.1.94-.08.98a10 10 0 0 1-4.33-.22c-.07-.02.7-1.33.07-1.74l-1.04-.44a6.64 6.64 0 0 1-.34-2.91c.07-.33.51-.09.86-.7l.1-1.6c.77-.16 2 .14 1.67-.88l-.63-1.16zm-10.02-5.25c.52 0 .55 0 .77.02l-.62.94c-.18.43-.01.7.28.78.27.08.67-.07 1.2.03.42.08-.63 1-.63 1-.05.1-.13.18-.08.48l.6.84.64 1.64a.68.68 0 0 0 .24.26s.54.26.76.57l.18.9c-.08.47.05.61.05.61s.51.12 1.14.4c.15.09-.26.52-.5.83-.19.4-.06.6.2.78 0 0-.12.59-.27.64l-2.3.28-2.96.76c-.33-.03 1.35-1.2 1.35-1.2l-.08-.6-.98-.46.11-.2c.75-.88.26-.73.31-1.05.15-.7 1.57-.37 1.58-1.15.02-1.07-.66-1.1-.66-1.1l-.2-.43-1.05-.08-.4-.59c-.52-.17.15-.88.3-1.35.08-.56-.47-.67-.47-.67-.7-.02.32-.28.27-.89l-.2-.74.52-.31.11-.9s.43-.04.78-.04zm-60.6-38.72a.79.79 0 0 0-.08.05l-1.36.53s.1-.15.13-.8l-.41-.43-1.27.22s-.88.8-1.87.52l-1.07-.45c-.8-.17-.37.2-.7.22l-1.01-.12-.39.46s-.74.23-.61.8l.35.79c.1.16.11.16.27.26 0 0 .43.22.66.44l.6-.05c.59-.41.45.08.56.22.16.2.45.24.71.14l1.95-1.24c1.07-.1 2.26.36 3.1 1.24.47.5-.26 1.09-.26 1.09l.38.83-1.7 1.1c-.1.05-1.46-.32-1.46-.32s-2.54 1.14-3.91.23c-.15-.1-.35-.35-.62-.38l-.65.27-.68-.27-.83-.21c-.1-.07-.52-.97-.52-.97l-.6.12-.36.96s-.6.05-1.23-.27L58.2 61c-.29-.36-.82-.17-1.1-.05l-1.74.05s.12-.43.04-.79c0 0-.5-.64-.47-.55.07.26-.39-.4-.39-.4l-1.15.2s.25-.42.44-.7l.41-.82a.67.67 0 0 0 .04-.33l-.24-1.2s.38.03.59-.1c0 0 .55-.58 1.2-.52.4.34.79-.09.79-.09.25-.3.71.4.71.4l.38 3.39.07.2.55.25 1.33-.89c.7.6 1.9.97 2.1.45.3-.77.27-.63.05-1.3l-.56-1.17a.63.63 0 0 0-.59-.28l-1.38.34v-.5l-1.25-1.03s-.02.04-.01-.1c.49-.37.23-.53.33-.95 0 0 2.08-.21 2.25.56l.04.27.42.43s1.22-.39 1.76-.06l.4.69.54.24.42-.41-.22-1.2c0-.11.47-.68.88-.98.06-.04.16.06.84-.18l.24-.54-.87-1.38c-.18-.81.28-.64.6-.74 0 0 1.17 0 1.02-.7l-1.04-.19-.04-.83c-.17-.73-.87-.88-1.03.03 0 0 .3.7-.26.57 0 0-.72.2-1.28.16l-1.13-.29c-.03 0-.03-.01-.05-.03l-.66-.96-.12-.25a55.61 55.61 0 0 0-.56-1.03l-.2-.65c-.43-.26.57-.95-.02-1.37l-1.06-.47-.27-.67-.13-.52-.68-2.05.27-.32.42-.95.07-.58s-.75-.4.43-.4c.36.01.55-.52.55-.52l-.4-.49c-1.01-.33-.12-1.17.55-1.69l.05-.6c-.09-.15.28-.56.6-.76.15-.08 1 .46 1.34 1.03l.81 2.76a.68.68 0 0 0 .2.29s1.03.23 1.25.58l1.3.2.35-.2.03-.58-.44-.28-1.48-1.4-.02-.04c-.03-.72-.2-.25-.38-.55l-.29-.85c0-.09.36-.25.05-.78l-.66-.76s-.61-.4-.54-1.29c.02-.15.95-.9 1.67-1.14.02-.01.1.07.39-.24l.79-.74.6.34.57-.2v-.6c-.24-.37.74-.53.74-.53l.12-.57s-.56-.46.32-.71c.24-.06 1.4.9 1.4.9l.54-.2s.03-.66.25-.81c.52-.31.41-.78.41-.78-.3-.57.13-.32.13-.32l.32-.48c0-.88.48-.36.77-.58l.78-.8s.59.66 1.07.5l.58-.31.26-.53c-.02-.31.92-.25 1.66-.14.58.1 1.03.65 1.46.28l.5-.62 1.23.15.42-.13c.34-.27.62.17.98.5l.39.13s.06-.1.26-.12h.05l2.17 1 1.62.28s.01.33-.02.52c0 0 .7 1.06.7 1 0-.18.23.5.23.5l.76-.01s.58 1.05.4 1.6l-2.55 2.86s-.55-.21-.84.03c-.28.24-.23.61-.23.61.02.35.84.32.84.32s.17.44.13.6l-2.45 2.56-1.57 2.76-.34.14-.17.59s.1-.03-.19.35l-.8 1.85c-.06.08-.68.26-1.11.41-.39.23-.34.45-.34.45-.02.22-.55.15-1 .2l-.36.2-.04.57s.66.63.3 1.24c-.45.7.24 1.29-.04 1.75-.2.3-.73.47-.62.82.11.38.41-.03-.14.57l-.26 1.1c-.45.42-1.62-.05-1.75.62l.27.78-1.04 1.12s-1.15 1.06.7 1.28l-.18 1.6-.03.04c-.64-.09-.66.35-.65.48zm-30.23.06c-.69-.27-1.54-.67-1.77-.17-.12.26.03.65-.1.83-.46 0-.57.53-.57.53-.02.58-.62.17-.93.06l-.6-.1c-.41.01-.49.2-.49.2-.32.4-.29-.2-.33-.54l.1-1.02c.14-.29.49.05.96-.46l1.82-2.94 1.36.08c.33-.05.4-.17.48-.26 0 0 .24-.73.4-.62 1.72 1.42-.05.74.03 1.73 0 0 .43 1.24.32 1.34-.48.5-.17.83.18.92.2.05.38-.05.38-.05 1.1-.63.76.06.9.48l.3.3s.64-.08 1.1.15l.8 1.8c.11.14.12.14.27.25l1.2.07.33-.5-.35-.48c-.72-.27.2-.89-.13-1.32l-.5-.45c-.11-.16.58-1.12 1.25-1.71 0 0 .01-.04.03 0l.24 2.33c.12.4.32.42.32.42 1.2.5 1.2-.04 1.2-.04.07-.13.46.19.69.4.39.38.24 1.78-.22 2.72-.07.13-1.12.46-1.87.46-.12 0-.45-.34-.8-.19l-2.46 1.67s-1.28-.1-1.6-.77l-.45-.85s-.2.12-.66-.04l-1.5-.8c-.12-.1.15-.65.3-1.12l.4-1.02.3-.81-.33-.48zm4.87-9.11c.02-.02.24.08.43.2.44.27 1.32 1.49.53 1.65l-.41.47.24.78-.27.29-.14 1.44s-1.04.41-1.76.5c-.18.02-.6-.52-.6-.52l-.03-.04s-.11-1.34.02-1.47c.72-.63.08-1.32.08-1.32-.5-.23.44-1.17 1.9-1.98zm10.5-.2c.03 0 .03 0 .05.02.76.41 1.8.83 1.98 1.47l.02 2c.14.66.57.35 1.24.57.21.08.45 1.1-.04 1.22l-1.73-.07-.35-.4s-.35-.9-.77-.95l-.45-.73s0-.31-.02-.54l-.32-1.21a.67.67 0 0 0-.2-.33l.06-.56c-.18-.73.54-.48.54-.48zm-5.16.2c-.22-.21-.58-.2-.58-.2-.33.07-.53-1.21-.48-2.17.01-.2 1.43-.24 1.87.2l.18.77c.26.55.83.28.83.28.37-.25.37.5.37.5.13.25.07.4.67.36h.14l.87 1.16s-.08-.02-.12.41l.2 2.23c-.06.16-1.03.11-1.14-.06l-.23-.9a.69.69 0 0 0-.24-.3l-1.12-.21s-.27-.33-.45-.38l-1 .27-.46-.98c.39-.22.59.15.76-.57l-.07-.41zM63.7 32.63l.11.01s-.27-.07-.1 0z"/><path fill="#000" fill-rule="nonzero" d="M59.62 107.69a.36.36 0 0 1 .12 0c.46.08.54.66.55.8v.04c.51.07 1.03.13 1.53.21.83.14 1.68.3 2.2.55l.17.07c.64.25.4.64.09.93a2.3 2.3 0 0 1-.24.19l-.04.03c.49-.3 1.81-1.02 1.96-.08.02.18-.09.34-.25.47l1.72.03c.34.01.76.04 1.04.27a.64.64 0 0 1 .16.16l.19.85a1 1 0 0 0 .28.45l.02.01c.2.15.47.41.38.77l-.01.04c-.03.15-.1.3-.14.4l-.05.13c-.01.05 0 .08.07.08.19 0 .56.06.65.42.27.52.1 1.35.1 1.36a.93.93 0 0 1-.2.53 1.24 1.24 0 0 1-.18.2l-.08.06 2.18-1.02v-.13a1.08 1.08 0 0 1 .12-.52v-.01l.01-.02a.55.55 0 0 1 .35-.25l1.57-.29a.4.4 0 0 0 .18-.24l.01-.04a.6.6 0 0 1 .13-.24l.04-.04c.14-.14.6-.62 1-.86v-.01c.06-.04.1-.09.3-.13l3.13-.32 1.24-2.4.06-.06c.33-.27.72-.25 1.1 0 .23.07.44.17.52.33a11.5 11.5 0 0 0 .85 1.78l.03.08v.02l.07.21.03.1v.03l.01.02.01.05.02.1.01.03v.04l.01.02.01.06c.07.45.01.84-.3 1.02l-2.4 1.05s-.07 1.76-.04 2.1v.03c.02.16-.02.28-.15.3-.26.14-.75.07-.9.04h-.05l-.48.25c-.07.1-.07.1-.17.18l-.94.52-.4.06-.68 1.84c-.02.1-.02.1-.07.2l-.68 1.24s1 1.11.14 1.65c-.18.16-.44.2-.67.23 0 0 .18.46-.12.74l-.03.02-3.33 2.06-.4 1.06c.6 1.18 1.23 2.48 1.15 3.75 0 .05 0 .1-.02.14l-.32 1.53a.95.95 0 0 1-.2.36c-.6.73-1.64-.78-1.64-.78-.1-.08-.1-.08-.16-.19l-.91-1.74a.6.6 0 0 1-.03-.1c-.06-.4.13-.92.13-.92l-.5-.53s-.72.33-1.25.18a.6.6 0 0 1-.3-.16l-.48-.55-1.3.22c-.24-.04-.24-.08-.24-.08l-.35.02s.05.33 0 .64v.08c-.05.53-.22.59-.67.5l-3-1-1.06.27-1.42 1.27-.14 1.71c-.13.27-.44.6-.85.5l-.1-.03a3.3 3.3 0 0 1-1.26-.48c-.19-.1-.22-.16-.26-.22l-1.61-2.64s-.69.5-1.27.53l-.04.01a.66.66 0 0 1-.45-.15l-2.26-2.33-3.6.37-.17-.05-2.82-1.25-1.93.16c-.08-.02-.16-.02-.32-.19l-1.05-1.3-1.62-.5-.07-.05c-.17-.11-.14-.16-.14-.16l-1.43-2.58c-.13-.33-.34-.59-.47-.77a1.02 1.02 0 0 1-.04-.07l-1.08-2.33a.66.66 0 0 1-.04-.13v-.05l-.16-2.83.41-3.96.24-.59-.78-1.6v-.04c-.02-.2 0-.32.05-.41.14-.3.5-.22.85-.1l.69.12c.05-.04.07-.12.03-.25-.05-.26-.03-.62.47-.69h21.87c.14-.2.32-.39.56-.41zM20.08 93.96a.35.35 0 0 1-.06-.01.81.81 0 0 1-.1-.04l-1.7-.74a.91.91 0 0 1-.73-.54 1.93 1.93 0 0 0-.12.31s-.41 1.54-1.16 1.08l-.04-.03-.02-.01h-.02c-.16.6-.68.39-.81.33l-.04-.02s-.45.43-.91.7l-.31.24c-.3.1-.47 0-.55-.15-.1-.13-.12-.35-.07-.71v-.05l.01-.02v-.01l-.02-.05a.63.63 0 0 1-.16-.61l-.5.61c-.07.23-.05.51.17.85.1.16.17.32.1.44l-.01.03c-.1.48-.63.97-.8 1.1l-.05.05-4.32 3.75a1.27 1.27 0 0 1-.13.07l-.02.01-.01.01h-.02v.01h-.01l-.02.01h-.01l-.04.02h-.02c-.18.05-.3-.04-.42-.16l-.04-.04s-.3.25-.62.38l-.04.03c-.22.1-.47.09-.63-.08l-1.03.8c-.46.29-1.05-.17-.72-.71l1.05-1.37a.66.66 0 0 1 .1-.09c.3-.23.63-.13.86-.1h.11c.11 0 .2-.07.22-.24l.01-.06a.6.6 0 0 1 .24-.36l1.18-.64.7-1.8-.04.02-.01.01a.87.87 0 0 1-.3.2c-.73.3-1.3-.84-1.3-.84s-.7.72-1.2.68c-.27.02-.35-.12-.44-.45l-.27-1.76s-.51.24-.96.22l-.05.01a.67.67 0 0 1-.38-.15l-1.11-1.12c-.41-.52.1-1.12.1-1.12l-.8-1.2a.66.66 0 0 1 .03-.43l1.35-2.42c.44-.6 1.24-.04 1.24-.04l.02-.04c.06-.1.27-.4.53-.6l.06-.06c.19-.11.26-.1.34-.1h.62l-.4-.7a.11.11 0 0 0-.1.02l-.01.01c-.16.13-.51.37-.84.16l-2.51-.36a.66.66 0 0 1-.38-.26l-.6-1.08a1.43 1.43 0 0 0-.4-.57l-.33-.16a.9.9 0 0 1-.3-.3c-.14-.12-.13-.26.18-.54l.08-.06 3-1.84c.18-.08.24-.07.31-.07l.22-.02-.18-.36-.3-.9-2.12-1.52-.02-.03a.6.6 0 0 1-.07-.51l.5-1.18a.66.66 0 0 1 .37-.3L3.86 76l1.24-2.6.02-.04a.3.3 0 0 1 .04-.03.82.82 0 0 1 .08-.07l2.26-1.4.12-.06c.45-.16 1.03 0 1.03 0l1.07-1.22.04-.02a.58.58 0 0 1 .29-.07h.06c1.3.14 1.96 1.48 1.96 1.48l.04-.01h.04c.18-.05.6-.13.98-.14.38-.02.82-.06.82.4.02.19-.08.41-.16.59l.08-.02c.63-.14 1.3-.28 1.9-.17l.08.02 3.48 1.26s1.12-.5 1.61-.27c0 0 .9.3 1.5.76l.05.04c.14.1.28.23.38.37a.76.76 0 0 1 .14.36V92.4s1.2-.19 1.49.22l.94 1.73 1.28-1.06c.04-.02.1-.04.18-.05 1.06-.17 2.1 1.52 1.97 2.54a.52.52 0 0 1-.01.1 16.56 16.56 0 0 0 1.5 2.46c.07.2.07.34.03.45-.03.23-.22.33-.67.2l-.06-.03c-.01 0-.63-.22-1.1-.6l-.32-.17c-.57-.41-.05-1.17-.05-1.17l-.06-.03a7.45 7.45 0 0 0-.78-.31.95.95 0 0 1-.24-.02l-.4-.13a.65.65 0 0 0-.4.06c-.16.1-.4.17-.63.03l-2.58-2.05a2.1 2.1 0 0 0-.15-.13 1 1 0 0 1-.22-.12l-.72-.59-1.9.23h-.03z"/><path fill="#333" d="M0 219h70v9H0v-9zm71.77-86a.88.88 0 0 1-.17.32 1.23 1.23 0 0 0 .19-.36l-.02.05zm-13.53-.79c-.14.26-.44.55-.82.45l-.1-.03c.38.04.75-.06.95-.47l-.03.05zm11.58.2-.03-.06c.06.1.06.1.15.19a1.1 1.1 0 0 1-.12-.14zm-14-.44-.02-.04c.04.06.07.12.26.22a.77.77 0 0 1-.23-.18zm3.57-22.88c.1-.05.28.3.6.43 0 0 1.75.19 2.95.51-.98 1.28 1.32 1.52 1.32 1.52.97-.5.56.69 1.86.54 0 0 .97-.21 1.6-.1l.68 1.46c-.48 1.35.67 2.36.67 2.36-.9.88.02 2.15 1.03 1.79l2.17-1.02a1.24 1.24 0 0 0 .56-.65l1.4-.52c1.1-.3 1.58-1.54 1.58-1.54l2.98-.3c.33-.06.48-.02.81-.56l1.02-1.98s.88.82 1.02 2.13l-2.11.91a1.26 1.26 0 0 0-.54.54l-1.14 2.22s-1.34-.1-2 1.32l-.68 1.83-.68 1.3c-.3.65.1 1.4.1 1.4-.41.1-.56.12-.74.8l-3.01 2.12c-.5.37-.82 1.57-.82 1.57-.1.38.06.85.06.85.84 1.73.86 3.96.86 3.96l-1.06-1.7a2.08 2.08 0 0 0-.65-1.93c-.77-.7-1.72-.17-1.72-.17-.06-.06-.29-.35-.41-.45-.13-.1-.15-.18-.64-.23l-1.24.2s-1.05-.7-1.64.66l-2.36-.43c-.2-.05-.24-.08-.58-.02l-1.07.27c-.1.03-.18.04-.43.23l-1.42 1.27c-.53.56-.43 1.83-.43 1.83l-.7-.26-1.52-2.5c-.26-.33-.41-.55-1.1-.46l-1.06.42-2-2.08a1.24 1.24 0 0 0-.7-.3l-3.53.34-2.68-1.19c-.16-.05-.16-.05-.33-.08l-1.72.12-.86-1.08c-.07-.07-.1-.14-.36-.28l-1.49-.47-1.29-2.35a4.83 4.83 0 0 0-.59-1c-1.03-2.2-.96-2.25-1.1-4.7l.4-3.73c.02-.06.19-.46.23-.62.13-.63-.36-1.23-.36-1.23.51.1.86.1 1.23-.59l21.3-.33c.17-.01.17-.01.33-.05zm4.54 20.82c.44.07.6-.25.64-.58v.08c-.06.53-.23.59-.68.5h.04zm-11.48-.2a.74.74 0 0 0 .47.1l-.04.02a.66.66 0 0 1-.45-.15l.02.02zm14.5-.6-.01-.03a.6.6 0 0 0 .29.16.75.75 0 0 1-.27-.14zm-1.8-.36c-.24-.04-.24-.08-.24-.08l-.35.02 1.89-.16-1.3.22zm.34-.93s.52.24 0 0zm-18.97-.11c-.04 0-.05-.01-.12-.04l.05.02.12.03-.05-.01zm-4.93-1.15a.6.6 0 0 1-.26-.17l.03.03a.71.71 0 0 0 .29.16l-.06-.02zm33.94-3.13c-.18.16-.44.2-.67.23 0 0 .18.46-.12.74l-.03.02c.23-.2.24-.51.15-.75.3-.06.51-.14.67-.24zm.6-3.03-.06.15s.05-.11.07-.21l-.02.06zm3.78-3.25v.03a.27.27 0 0 1-.15.27c.13-.02.17-.14.15-.3zm-8.08-1.54a1.03 1.03 0 0 1 0 .03v-.03zm-1.71.3a.95.95 0 0 1-.2.5.98.98 0 0 0 .2-.53v.04zm3.77-1.49c-.46.3-1.57.29-1.57.29l1.57-.29zm-4.46-.32c.19.01.5.09.59.4a.72.72 0 0 0-.65-.4h.05zm4.78-.2-.01.02a.64.64 0 0 0-.13.26l.01-.04a.65.65 0 0 1 .13-.24zm-4.86-.02-.05.14a.6.6 0 0 1 .05-.14zm13.31-.86c.05.42-.02.78-.3.96.34-.22.34-.68.3-1.03v.07zm-13.54-.35c.2.15.47.41.38.77l-.01.04c.04-.24 0-.52-.33-.78l-.04-.03zm6.4.2a1.08 1.08 0 0 0-.27.13v-.01c.06-.04.1-.09.3-.13h-.03zm-7.05-1.67a.64.64 0 0 1 .16.16l.19.85c-.15-.4-.2-.85-.2-.85a.75.75 0 0 0-.15-.16zm12.6-1.12c.24.07.45.17.53.33 0 0 .31.51.6 1.15a3.53 3.53 0 0 0-1.12-1.48zm-15.11.38c.01.17-.1.32-.25.44s-.06 0 0 0c.04-.03.28-.25.25-.47v.03zm-1.92.02-.04.03a3.22 3.22 0 0 1-.18.11l.18-.12.04-.03zm-.02-1.19.17.07c.64.25.4.64.09.93.46-.43.26-.75-.26-1zm-28.87-.27c-.06.1-.07.24-.05.46v-.07a.86.86 0 0 1 .05-.39zm.85-.1.69.12c-.11.09-.4-.03-.69-.13zm1.16-.81h.03c-.5.05-.52.41-.47.68-.05-.28.1-.61.44-.68zm23.14.42.5.07.49.06.53.08c-.5-.08-1.02-.14-1.53-.2zm-.68-.84a.87.87 0 0 1 .07 0h.05a.36.36 0 0 0-.12 0zm-54.84-6.15.02-.01c-.41.24-.97-.24-.74-.7l.02-.02c-.32.53.24.98.7.73zm1.07-.8c.17.16.42.13.65.03l-.04.03c-.22.1-.47.09-.63-.08l.02.02zm1.27-.35c.12.13.28.25.47.2-.2.05-.31-.04-.43-.16l-.04-.04zm.7.1a1.3 1.3 0 0 1 .04-.03l-.04.02zM6.1 99.24h.11a.6.6 0 0 1-.11 0zm.55-.64.03-.02a.62.62 0 0 0-.25.42v-.03a.66.66 0 0 1 .22-.37zm23.33-1.03c.15.25.28.5.39.76.07.2.07.34.03.45.04-.28-.16-.73-.42-1.2zm-1.78-.55c-.35.54-.05 1 .37 1.34l-.32-.18c-.5-.36-.16-.98-.07-1.13l.02-.04zM9.43 72.48l.72-.82 1.1.95c.48.53 1.07.37 1.07.37.86-.18.3 1.04 1.7.84 0 0 .93-.24 1.56-.17l3.4 1.23c.2.06.24.1.6.03 0 0 1.5-.45 2.4.45V92.4l-1.77.51-1.78-.75c-.47-2.3-2.2.78-2.2.78l-1.9.79S14 92.6 13.27 92.6c-.84 0-1.58 1.33-1.58 1.33-.38.56-.42.68 0 1.3l-.27.78-2.58 2.23.69-1.76c.42-1.44-1.93-1.7-1.93-1.7-.74-.57-1.45.02-1.45.02L6 93.85c-.3-1.3-1.88-.7-1.88-.7l-.7-.7c.21-.3.32-.46.1-1.03l-.64-.99 1-1.79c.95.55 1.7-.66 1.7-.66 1 0 1.66-.77 1.3-1.55 0 0-.2-1.77-1.79-1.14l-2.58-.18s-.13-.81-.67-1.47l1.95-1.4c.1-.01.45-.03.6-.07 1.5-.38 0-2.56 0-2.56-.08-.21-.08-.26-.37-.51l-1.7-1.22.23-.54 1.52-.32c.5-.15.57-.32.72-.57l1.14-2.4 1.98-1.23s.85.3 1.52-.33zm16.29 24.16-.04-.02c.24.14.47.06.63-.03-.18.1-.4.14-.59.05zm.99-.11c.2.01.42.07.64.15a.95.95 0 0 1-.25-.02l-.4-.13zM8.5 96.18l-.04.04a.95.95 0 0 1 .04-.04zm-3.23-.36-.01-.05c.09.33.17.47.44.45-.18-.01-.33-.12-.42-.4zm20.83-.68c.35-.3.48-1.54 1.6.27.16.27-.45-.1-1.44.04 0 0-1.4.54-.16-.31zm-13.13 0c.09.14.13.28.07.4l-.01.02a.62.62 0 0 0-.08-.47l.02.04zm1.4-.15-.31.24c-.3.1-.47 0-.55-.15.16.22.51.11.86-.09zM22 93.73l.94.7a1 1 0 0 1-.22-.11l-.72-.59zm-5.88.26c-.16.59-.68.38-.81.32l-.03-.02.84-.3zm8.33-1.38c-.16-.06-.84-.3-1.45-.2l.05-.01c.23-.03 1.18-.14 1.44.22l-.04-.01zm-11.2 1.05v-.03c-.04.24 0 .45.17.61a.95.95 0 0 1-.17-.58zm-9.64.45a.73.73 0 0 0 .41.12l-.05.01a.67.67 0 0 1-.38-.15l.02.02zm9.15.13c.11-.4.5-.61.5-.61l-.5.61zm7.22-.3-.07-.03.1.04a.3.3 0 0 1-.03-.01zm6.91-.7a.98.98 0 0 0-.18.05c.04-.01.1-.04.18-.05zM5.33 86.96a.75.75 0 0 0-.37.16l.06-.06c.19-.11.26-.1.33-.1h-.02zm.1-.63c-.18.13-.5.31-.8.12l.02.02c.28.14.6 0 .82-.18l-.05.04zM.1 83.73c.13.12.39.24.63.45l-.33-.16a.9.9 0 0 1-.3-.3zm1.1-5.83v-.03a.6.6 0 0 0 .1.54l-.02-.03a.67.67 0 0 1-.08-.48zm18.18-4.01c.22-.1 1.13-.46 1.56-.25 0 0 .9.3 1.5.76l.05.04c-.3-.23-1.97-1.05-3.16-.53l.05-.02zm-5.43-1.66a1 1 0 0 1-.1.46l-.05.13c.1-.26.15-.45.15-.6zm-.92-.4h.1c-.37 0-.8.1-.98.13l.24-.05a5.23 5.23 0 0 1 .64-.08zm-2.98-1.33a.62.62 0 0 0-.29.07l-.04.02a.62.62 0 0 1 .29-.09h.04zm62.07 60.87v.06-.14.08zm-3.25-.8a.57.57 0 0 1 0 .04v-.03zm-33.46-12a1.1 1.1 0 0 0 .02.06l-.02-.05zm42.92-.83c-.07.1-.07.1-.17.18l-.94.52-.4.06 1.98-1.02-.47.26zM8.55 96.14c.12.05-.7 1.8-.7 1.8l.7-1.8zm-6.08-3.2c-.37-.5.12-1.09.12-1.09l-.02.03c-.07.14-.37.71-.08 1.1l-.02-.03zm15.7.22a.92.92 0 0 1-.68-.53c.2-.37.25.48.72.54h-.04zM23 75.14v.03a.77.77 0 0 0 0-.03zM1.8 90.63a.66.66 0 0 1 .03-.41v.02a.7.7 0 0 0-.03.42v-.03zm1.4-2.85c.39-.5 1.03-.14 1.18-.04l.04.02s-.9-.41-1.24.04l.02-.02zm2.39-1.52c.2.06.4.7.4.7l-.4-.7zm-3.5-.17a.67.67 0 0 1-.34-.26l.01.03a.7.7 0 0 0 .37.23H2.1zm1.36-4.84c.13-.05.18-.04.24-.04l.22-.02c.11.26-.15-.08-.53.1l.07-.04zm-1.71-4.59a.65.65 0 0 1 .35-.27h-.03a.7.7 0 0 0-.34.3l.02-.03zm5.8-4.81a.93.93 0 0 0-.03.02l.04-.02z"/><path fill="url(#a)" d="M0 219h70v9H0z"/></g></svg>