<svg xmlns="http://www.w3.org/2000/svg" width="60" height="38">
  <g id="credit-card-visa" fill="none" fill-rule="evenodd" stroke="none" stroke-width="1">
    <path id="Gray" fill="#F6F6F6" d="M0 7h60v24H0z"/>
    <path id="Orange" fill="#D97B16" fill-rule="nonzero" d="M5.128 38c-1.783 0-2.43-.186-3.082-.534a3.635 3.635 0 0 1-1.512-1.512C.186 35.302 0 34.655 0 32.872V31h60v1.872c0 1.783-.186 2.43-.534 3.082a3.635 3.635 0 0 1-1.512 1.512c-.652.348-1.299.534-3.082.534H5.128z"/>
    <path id="Blue" fill="#265697" fill-rule="nonzero" d="M3 11.33l.054-.332h6.844c.922.035 1.667.336 1.924 1.344l1.931 9.517 4.156-10.85h4.496l-6.682 15.88-4.491.005-3.774-13.82C5.596 12.187 4.11 11.605 3 11.33zm18.469 15.578l2.653-15.911h4.245L25.71 26.908h-4.24zm19.636-15.52l-.575 3.449-.38-.184a7.686 7.686 0 0 0-3.177-.61c-1.662 0-2.43.708-2.43 1.37-.01.745.898 1.236 2.382 1.972 2.448 1.136 3.58 2.513 3.563 4.323-.033 3.303-2.929 5.436-7.39 5.436-1.904-.02-3.737-.404-4.729-.849l.596-3.562.547.253c1.394.594 2.296.836 3.995.836 1.22 0 2.53-.488 2.54-1.554.008-.697-.548-1.194-2.2-1.974-1.61-.761-3.743-2.037-3.72-4.323.026-3.093 2.98-5.251 7.174-5.251 1.646 0 2.963.346 3.804.668zm10.884-.376l3.436 15.901h-3.939s-.39-1.827-.516-2.384l-5.436-.007c-.165.43-.893 2.391-.893 2.391h-4.457l6.303-14.582c.446-1.036 1.207-1.32 2.223-1.32h3.28zm-5.233 10.256h3.523l-.983-4.595-.287-1.372c-.214.597-.587 1.56-.562 1.519 0 0-1.34 3.53-1.691 4.448zM5.128 0h49.744c1.783 0 2.43.186 3.082.534.652.349 1.163.86 1.512 1.512.348.652.534 1.299.534 3.082V7H0V5.128c0-1.783.186-2.43.534-3.082A3.635 3.635 0 0 1 2.046.534C2.698.186 3.345 0 5.128 0z"/>
  </g>
</svg>
