<svg xmlns="http://www.w3.org/2000/svg" width="60" height="38">
  <g id="credit-card-mastercard" fill="none" fill-rule="evenodd" stroke="none" stroke-width="1">
    <path id="Middle" fill="#BBB" d="M30 5.583C37.365 8.88 42 13.67 42 19c0 5.331-4.635 10.12-12 13.417C22.635 29.12 18 24.33 18 19c0-5.331 4.635-10.12 12-13.417z"/>
    <path id="Left" fill="#9F9F9F" d="M30 5.583A17.955 17.955 0 0024 19a17.96 17.96 0 006 13.417A17.933 17.933 0 0118 37C8.059 37 0 28.941 0 19S8.059 1 18 1c4.61 0 8.815 1.733 12 4.583z"/>
    <path id="Right" fill="#DBDBDB" d="M30 5.583A17.933 17.933 0 0142 1c9.941 0 18 8.059 18 18s-8.059 18-18 18c-4.61 0-8.815-1.733-12-4.583C33.682 29.12 36 24.33 36 19a17.96 17.96 0 00-6-13.417z"/>
  </g>
</svg>
