<svg xmlns="http://www.w3.org/2000/svg" width="60" height="38"><g fill="none" fill-rule="evenodd"><path fill="#F6F6F6" d="M0 7h60v24H0z"/><path fill="#D97B16" fill-rule="nonzero" d="M5.13 38c-1.78 0-2.43-.19-3.08-.53a3.63 3.63 0 0 1-1.52-1.52C.2 35.3 0 34.65 0 32.87V31h60v1.87c0 1.79-.19 2.43-.53 3.08a3.63 3.63 0 0 1-1.52 1.52c-.65.34-1.3.53-3.08.53H5.13z"/><path fill="#265697" fill-rule="nonzero" d="m3 11.33.05-.33H9.9c.92.03 1.66.33 1.92 1.34l1.93 9.52L17.91 11h4.5l-6.69 15.88h-4.49L7.46 13.07A25.33 25.33 0 0 0 3 11.33zm18.47 15.58L24.12 11h4.25L25.7 26.9h-4.24zM41.1 11.39l-.58 3.45-.38-.19a7.69 7.69 0 0 0-3.18-.6c-1.66 0-2.43.7-2.43 1.36 0 .75.9 1.24 2.39 1.98 2.44 1.13 3.57 2.5 3.56 4.32-.04 3.3-2.93 5.43-7.4 5.43-1.9-.02-3.73-.4-4.72-.84l.6-3.57.54.26c1.4.59 2.3.83 4 .83 1.22 0 2.53-.49 2.54-1.55 0-.7-.55-1.2-2.2-1.98-1.61-.76-3.75-2.03-3.72-4.32.02-3.1 2.98-5.25 7.17-5.25 1.65 0 2.96.35 3.8.67zM51.99 11l3.44 15.9h-3.94l-.52-2.38h-5.44l-.89 2.38h-4.46l6.3-14.58c.45-1.03 1.21-1.32 2.23-1.32h3.28zm-5.23 10.26h3.52l-.98-4.6-.3-1.37c-.2.6-.58 1.56-.55 1.52l-1.7 4.45zM5.13 0h49.74c1.79 0 2.43.19 3.08.53a3.6 3.6 0 0 1 1.52 1.52c.34.65.53 1.3.53 3.08V7H0V5.13C0 3.35.19 2.7.53 2.05A3.63 3.63 0 0 1 2.05.53C2.7.2 3.35 0 5.13 0z"/></g></svg>