<svg xmlns="http://www.w3.org/2000/svg" width="352" height="134">
  <g id="illustration-login-2fa" fill="none" fill-rule="nonzero" stroke="none" stroke-width="1">
    <path id="Device/Blue-300" fill="#6F93AD" d="M294 133V51H58v82H41V40.172C41 17.986 58.938 0 81.064 0h189.87C293.063 0 311 17.986 311 40.172V133h-17zM193.894 27.596a.204.204 0 0 0-.006-.4c-3.017-.482-6.03-.624-9.041-.672l-4.516-.038-4.514.047c-3.009.067-6.018.167-9.026.287-3.008.134-6.015.324-9.02.716a.404.404 0 0 0 .013.8c3.014.302 6.026.402 9.037.447 3.011.029 6.02.039 9.03.017l4.514-.09 4.512-.172c3.008-.138 6.015-.37 9.017-.942z"/>
    <path id="Background/Blue-0" fill="#F3F5F6" d="M286 133v-22h-87v22H58v-33h236v33h-8z"/>
    <path id="Blobs/Gray-100" fill="#CCCED0" d="M105.16 85.672c1.417-.527 2.832-.714 4.248-.807l2.124-.106 2.123-.02c1.416.022 2.832.078 4.247.152 1.416.085 2.832.23 4.248.581a.414.414 0 1 1 0 .8c-1.416.351-2.832.496-4.248.582-1.415.074-2.831.13-4.247.152l-2.123-.02-2.124-.106c-1.416-.094-2.831-.28-4.247-.808a.212.212 0 0 1-.125-.275.209.209 0 0 1 .125-.125zm0-10.008c4.657-.527 9.313-.714 13.969-.807l6.984-.106 6.985-.018 13.968.154c4.656.104 9.312.218 13.969.577.22.017.385.21.369.431a.403.403 0 0 1-.37.37c-4.656.357-9.312.473-13.968.576l-13.968.154-6.985-.019-6.984-.105c-4.656-.093-9.312-.28-13.968-.807a.202.202 0 0 1-.178-.223.203.203 0 0 1 .178-.177zm65.052 0c8.022-.552 16.044-.665 24.066-.807l12.034-.106 12.033-.018 24.066.154c8.023.104 16.044.218 24.067.577.22.01.391.197.383.418a.402.402 0 0 1-.383.382c-8.023.358-16.044.474-24.067.577l-24.066.154-12.033-.019-12.034-.105c-8.022-.143-16.044-.255-24.066-.807a.203.203 0 0 1-.187-.214.202.202 0 0 1 .187-.186zm-43.006 10.008c1.543-.148 3.087-.225 4.63-.338l4.631-.22c3.086-.137 6.173-.2 9.26-.249l9.261-.106 9.26-.018 18.521.154c6.174.104 12.348.218 18.521.577.221.013.39.202.379.423a.402.402 0 0 1-.379.377c-6.173.358-12.347.474-18.521.577l-18.521.155-9.26-.019-9.261-.105c-3.087-.048-6.174-.112-9.26-.25l-4.631-.22c-1.543-.113-3.087-.19-4.63-.338a.201.201 0 0 1 0-.4zM226.884 133c1.863-4.685 6.464-8 11.845-8h30.27v8h-42.115z"/>
    <path id="Blobs/Blue-300" fill="#6F93AD" d="M89.907 89H76.094A6.093 6.093 0 0 1 70 82.907V69.094A6.094 6.094 0 0 1 76.094 63h13.813A6.094 6.094 0 0 1 96 69.094v13.813A6.093 6.093 0 0 1 89.907 89zM83 68c-4.411 0-8 3.589-8 8s3.589 8 8 8c4.41 0 8-3.589 8-8s-3.59-8-8-8zm3.616 14.217l2.196-6.352c.41-1.026.548-1.846.548-2.576 0-.264-.018-.51-.05-.74a7.19 7.19 0 0 1-2.695 9.668zm-2.625-9.59c.433-.022.823-.067.823-.067.387-.046.342-.616-.045-.594 0 0-1.166.093-1.917.093-.707 0-1.895-.093-1.895-.093-.388-.022-.433.571-.046.594 0 0 .367.045.755.067l1.12 3.07-1.574 4.722-2.62-7.792c.434-.022.825-.067.825-.067.386-.046.341-.616-.046-.594 0 0-1.166.093-1.917.093-.136 0-.295-.004-.464-.01a7.186 7.186 0 0 1 6.01-3.24c1.872 0 3.577.716 4.856 1.888-.03-.002-.06-.006-.093-.006-.706 0-1.207.616-1.207 1.276 0 .594.342 1.095.707 1.687.273.48.592 1.096.592 1.985 0 .615-.182 1.39-.547 2.324l-.717 2.398-2.6-7.733zM83 83.193a7.206 7.206 0 0 1-2.033-.292l2.159-6.272 2.211 6.058a.605.605 0 0 0 .051.098 7.176 7.176 0 0 1-2.388.408zM75.808 76a7.17 7.17 0 0 1 .622-2.927l3.431 9.4A7.193 7.193 0 0 1 75.808 76zm29.266-10.383c1.675-.148 3.35-.225 5.024-.338l5.024-.22c3.35-.137 6.7-.201 10.05-.249l10.048-.106 10.048-.018 20.097.154c6.7.104 13.398.219 20.096.577.222.012.391.2.38.422a.405.405 0 0 1-.38.378c-6.698.358-13.397.474-20.096.577l-20.097.155-10.048-.019-10.049-.105c-3.349-.048-6.699-.112-10.049-.25l-5.024-.22c-1.674-.113-3.349-.19-5.024-.338a.2.2 0 1 1 0-.4z"/>
    <path id="Blobs/Blue-600" fill="#204A69" d="M179.504 133H66v-8.41c0-7.505 6.185-13.59 13.815-13.59H191v22h-11.496zM53.128 99.716c20.672-.551 41.345-.667 62.018-.805l62.018-.126c41.344.12 82.69.052 124.035.73a.4.4 0 0 1 0 .8c-41.345.68-82.691.612-124.035.733l-62.018-.127c-20.673-.138-41.346-.254-62.018-.805a.2.2 0 0 1-.195-.205.201.201 0 0 1 .195-.195z"/>
    <path id="Blob/Gray-50" fill="#E1E2E2" d="M6.196 132.823c28.285-.487 56.568-.59 84.852-.712l84.851-.111c56.569.106 113.137.046 169.705.646.22.003.396.163.396.358 0 .192-.18.346-.396.35-56.568.6-113.136.54-169.705.646l-84.851-.112c-28.284-.122-56.567-.225-84.852-.712-.11-.001-.196-.082-.196-.18 0-.095.09-.171.196-.173"/>
  </g>
</svg>
