<svg xmlns="http://www.w3.org/2000/svg" width="352" height="134"><g fill="none"><path fill="#6F93AD" d="M294 133V51H58v82H41V40.17A40.12 40.12 0 0 1 81.06 0h189.87A40.12 40.12 0 0 1 311 40.17V133h-17zM193.9 27.6a.2.2 0 0 0-.01-.4 63.45 63.45 0 0 0-9.04-.68l-4.52-.03-4.51.04c-3.01.07-6.02.17-9.03.29-3 .13-6.01.32-9.02.72a.4.4 0 0 0 .01.8c3.02.3 6.03.4 9.04.44 3.01.03 6.02.04 9.03.02l4.52-.09 4.5-.17c3.02-.14 6.02-.37 9.02-.94z"/><path fill="#F3F5F6" d="M286 133v-22h-87v22H58v-33h236v33h-8z"/><path fill="#CCCED0" d="M105.16 85.67a14.7 14.7 0 0 1 4.25-.8l2.12-.11 2.12-.02c1.42.02 2.84.08 4.25.15 1.42.09 2.83.23 4.25.58a.41.41 0 1 1 0 .8c-1.42.35-2.83.5-4.25.58-1.41.08-2.83.13-4.25.16l-2.12-.02-2.12-.11c-1.42-.1-2.83-.28-4.25-.8a.21.21 0 0 1-.12-.28.2.2 0 0 1 .12-.13zm0-10c4.66-.53 9.31-.72 13.97-.81l6.98-.1 6.99-.03 13.97.16c4.65.1 9.3.21 13.96.57a.4.4 0 0 1 .37.44.4.4 0 0 1-.37.36c-4.65.36-9.3.48-13.96.58L133.1 77l-6.99-.01-6.98-.1c-4.66-.1-9.31-.29-13.97-.82a.2.2 0 0 1-.18-.22.2.2 0 0 1 .18-.18zm65.05 0c8.02-.56 16.05-.67 24.07-.81l12.03-.1 12.03-.03 24.07.16c8.02.1 16.04.21 24.07.57.22.01.39.2.38.42a.4.4 0 0 1-.38.38c-8.03.36-16.05.48-24.07.58l-24.07.16-12.03-.02-12.03-.1c-8.02-.15-16.05-.26-24.07-.82a.2.2 0 0 1-.19-.21.2.2 0 0 1 .2-.19zm-43 10c1.54-.15 3.08-.22 4.63-.34l4.63-.22a317 317 0 0 1 9.26-.24l9.26-.11 9.26-.02 18.52.16c6.17.1 12.35.21 18.52.57.22.02.39.2.38.43a.4.4 0 0 1-.38.37c-6.17.36-12.35.48-18.52.58l-18.52.15-9.26-.01-9.26-.11a317 317 0 0 1-9.26-.25l-4.63-.22c-1.55-.11-3.1-.19-4.63-.34a.2.2 0 0 1 0-.4zM226.88 133c1.87-4.68 6.47-8 11.85-8H269v8h-42.12z"/><path fill="#6F93AD" d="M89.9 89H76.1a6.1 6.1 0 0 1-6.1-6.1V69.1a6.1 6.1 0 0 1 6.1-6.1h13.8a6.1 6.1 0 0 1 6.1 6.1v13.8a6.1 6.1 0 0 1-6.1 6.1zM83 68a8 8 0 0 0 0 16 8.01 8.01 0 0 0 0-16zm3.62 14.22 2.2-6.36a6.8 6.8 0 0 0 .49-3.31 7.19 7.19 0 0 1-2.7 9.67zm-2.63-9.6c.43-.02.82-.06.82-.06.4-.05.35-.62-.04-.6 0 0-1.17.1-1.92.1-.7 0-1.9-.1-1.9-.1-.38-.02-.43.58-.04.6l.76.07 1.12 3.07-1.58 4.72-2.62-7.8c.44-.02.83-.06.83-.06.38-.05.34-.62-.05-.6 0 0-1.17.1-1.92.1l-.46-.01A7.19 7.19 0 0 1 83 68.8c1.87 0 3.58.71 4.86 1.89h-.1c-.7 0-1.2.6-1.2 1.27 0 .6.34 1.1.7 1.68.28.48.6 1.1.6 1.99a6.8 6.8 0 0 1-.55 2.32l-.72 2.4-2.6-7.73zM83 83.2a7.2 7.2 0 0 1-2.03-.29l2.16-6.27 2.2 6.06a.6.6 0 0 0 .06.1 7.18 7.18 0 0 1-2.39.4zM75.8 76a7.17 7.17 0 0 1 .63-2.93l3.43 9.4A7.2 7.2 0 0 1 75.81 76zm29.27-10.38c1.68-.15 3.35-.23 5.03-.34l5.02-.22c3.35-.14 6.7-.2 10.05-.25l10.05-.1 10.05-.02 20.1.15c6.7.1 13.4.22 20.1.58.21 0 .38.2.37.42a.4.4 0 0 1-.38.38c-6.7.36-13.4.47-20.1.57l-20.1.16-10.04-.02-10.05-.1c-3.35-.05-6.7-.12-10.05-.25l-5.02-.22c-1.68-.12-3.35-.2-5.03-.34a.2.2 0 1 1 0-.4z"/><path fill="#204A69" d="M179.5 133H66v-8.41A13.7 13.7 0 0 1 79.81 111H191v22h-11.5zM53.13 99.72c20.67-.56 41.34-.67 62.02-.8l62.01-.14c41.35.12 82.7.06 124.04.73a.4.4 0 0 1 0 .8c-41.35.68-82.7.62-124.04.74l-62.01-.13c-20.68-.14-41.35-.25-62.02-.8a.2.2 0 0 1-.2-.2.2.2 0 0 1 .2-.2z"/><path fill="#E1E2E2" d="M6.2 132.82c28.28-.48 56.56-.59 84.85-.7l84.85-.12c56.57.1 113.14.05 169.7.65.22 0 .4.16.4.35 0 .2-.18.35-.4.35-56.56.6-113.13.54-169.7.65l-84.85-.11c-28.29-.12-56.57-.23-84.85-.71-.11 0-.2-.09-.2-.18 0-.1.09-.17.2-.18"/></g></svg>