<svg xmlns="http://www.w3.org/2000/svg" width="400" height="200"><g fill="none" fill-rule="evenodd"><path fill="#2EA948" d="M146.28 100c0 14.91-12.15 27-27.14 27S92 114.91 92 100s12.15-27 27.14-27a27.07 27.07 0 0 1 27.14 27zm-25.76-4.52v26.17l13.53-26.17h-13.53zm-2.76 9.04V78.35l-13.54 26.17h13.54z"/><path fill="#0A0B09" d="M162.08 117.85c-.77-1.17-1.5-2.38-2.23-3.5 3.85-2.3 5.1-4.2 5.1-7.7V86.42h-4.5v-3.87h9.6v23.1c0 5.88-1.65 9.14-7.97 12.2zm40.18-13.82c0 1.94 1.42 2.18 2.35 2.18.93 0 2.3-.33 3.3-.6v3.62c-1.45.48-2.97.8-5.04.8-2.5 0-5.39-.92-5.39-5.24V94.17h-2.63V90.5h2.63v-5.44h4.78v5.4h6.02v3.7h-6.02v9.88zm19.56-10.2c-1.41 0-3.16.65-4.82 2.1v9.95c1.06.2 2.11.37 3.57.37 3.36 0 5.3-2.14 5.3-6.53 0-4.11-1.37-5.88-4.05-5.88zm-9.6 25.84V90.43h4.58v1.75a10 10 0 0 1 6.32-2.25c4.3 0 7.7 2.98 7.7 9.43 0 6.4-3.73 10.63-9.89 10.63-1.5 0-2.67-.2-3.93-.44v10.12h-4.78zm32.57-19.03-3.93.6c-1.17.16-2.43.87-2.43 2.64 0 1.57.9 2.45 2.19 2.45 1.38 0 2.92-.85 4.17-1.74v-3.95zm4.78 8.91h-4.45v-2.1h-.13c-1.58 1.22-3.48 2.46-6.31 2.46a5.14 5.14 0 0 1-5.19-5.44c0-4.89 4.21-5.8 7.13-6.2l4.17-.57v-.56c0-2.58-1.05-3.43-3.48-3.43-1.18 0-3.97.37-6.28 1.3l-.4-3.84c2.06-.72 4.9-1.24 7.29-1.24 4.65 0 7.65 1.85 7.65 7.37v12.25zm19.67-.6a18 18 0 0 1-5.98 1.09c-7.17 0-10-4.07-10-10 0-6.25 3.93-10.11 10.29-10.11 2.39 0 3.82.4 5.44.92v4.03a16.01 16.01 0 0 0-5.36-1.09c-2.92 0-5.4 1.54-5.4 6 0 4.93 2.48 6.38 5.64 6.38 1.5 0 3.18-.33 5.37-1.17v3.95zm9.03-10.28c.4-.44.73-.93 6.72-8.22h6.2l-7.78 9.07 8.51 10.03h-6.24l-7.41-9.07v9.07h-4.78v-27h4.78v16.12zm-91.33-.8c0-2.34-.77-4.36-3.32-4.36-2.4 0-3.85 1.7-4.14 4.35h7.46zm4.33 11.08a23.03 23.03 0 0 1-7.1 1.09c-6.1 0-9.87-3.03-9.87-10.16 0-5.2 3.2-9.95 9.36-9.95 6.11 0 8.26 4.23 8.26 8.26 0 1.33-.08 2.05-.16 2.82h-12.32c.12 4.19 2.5 5.16 6.07 5.16 1.95 0 3.76-.44 5.76-1.18v3.96z"/></g></svg>