<svg xmlns="http://www.w3.org/2000/svg" width="400" height="200"><g fill="none" fill-rule="evenodd"><path fill="#4D8ABC" d="M110.65 96.88c0-9.9-7.85-18.44-17.17-18.86a7.24 7.24 0 0 0-5.08 1.62 7.08 7.08 0 0 0-2.5 4.83c-.36 4.22 3.43 6.8 7.09 7.82 8.86 2.44 14 8.75 13.47 16.5a18.95 18.95 0 0 0 4.19-11.9zM91 99.6c-8.28-2.28-13.23-8.48-12.6-15.8l.04-.24A18.96 18.96 0 0 0 73 96.88c0 9.99 8.07 18.56 17.4 18.89 2.1.07 4.11-.5 5.71-1.85a8.02 8.02 0 0 0 2.83-5.47c.5-5.66-4.76-7.97-7.94-8.85z"/><path fill="#2D2E2C" d="M128.04 104.3a11.17 11.17 0 0 0 3.6 2.74 10.17 10.17 0 0 0 4.5 1c2.11 0 3.79-.5 5.02-1.53a4.99 4.99 0 0 0 1.84-4.03c0-.87-.13-1.6-.4-2.19a5 5 0 0 0-1.06-1.54 7.01 7.01 0 0 0-1.58-1.13 36 36 0 0 0-1.9-.95l-4.2-1.9a17.9 17.9 0 0 1-1.9-.93 8.05 8.05 0 0 1-1.8-1.37 7.19 7.19 0 0 1-1.36-1.94 6.05 6.05 0 0 1-.55-2.67c0-1.01.2-1.93.61-2.76a6.58 6.58 0 0 1 1.68-2.15 7.77 7.77 0 0 1 2.55-1.41 9.89 9.89 0 0 1 3.2-.51c1.68 0 3.17.33 4.47.99a11.4 11.4 0 0 1 3.2 2.34l-1.08 1.3a9.4 9.4 0 0 0-2.85-2.08 8.55 8.55 0 0 0-3.73-.78c-1.84 0-3.33.45-4.44 1.35a4.41 4.41 0 0 0-1.68 3.62c0 .82.16 1.5.46 2.07a5.14 5.14 0 0 0 1.18 1.45 8.4 8.4 0 0 0 1.55 1.06c.55.3 1.09.55 1.59.78l4.19 1.85a18.37 18.37 0 0 1 2.22 1.14 8.73 8.73 0 0 1 1.84 1.47 6.59 6.59 0 0 1 1.76 4.77 7 7 0 0 1-.63 2.97 6.84 6.84 0 0 1-1.78 2.36 8.54 8.54 0 0 1-2.78 1.56c-1.1.38-2.3.57-3.65.57-2.01 0-3.8-.39-5.36-1.16a12.78 12.78 0 0 1-3.98-3.01l1.26-1.35zm22.28 5.52V89.35h2.08v20.47h-2.08zm1.09-25.42a2 2 0 0 1-1.35-.47 1.5 1.5 0 0 1-.55-1.2c0-.53.19-.95.55-1.25.36-.3.81-.45 1.35-.45s.98.15 1.35.45c.36.3.54.72.54 1.26 0 .48-.18.88-.54 1.2a2 2 0 0 1-1.35.46zm8.71 4.72h1.63l.17 3.2h.13a13.37 13.37 0 0 1 3.07-2.66 6.4 6.4 0 0 1 3.4-1.05c1.66 0 2.94.38 3.82 1.14a6.22 6.22 0 0 1 1.89 3.08 20.6 20.6 0 0 1 3.5-3.08 6.18 6.18 0 0 1 3.49-1.14c4.12 0 6.17 2.64 6.17 7.93v13.28h-1.93V96.8c0-2.22-.37-3.85-1.11-4.9-.75-1.05-1.9-1.57-3.47-1.57-1.86 0-3.92 1.3-6.18 3.88v15.6h-1.89V96.8c0-2.22-.37-3.85-1.11-4.9-.75-1.05-1.92-1.57-3.52-1.57-1.86 0-3.91 1.3-6.17 3.88v15.6h-1.89V89.13zm36.77 16.71a13.1 13.1 0 0 0 3.4 2.05c1.04.4 1.97.6 2.78.6a6.36 6.36 0 0 0 2.92-.68 6.73 6.73 0 0 0 2.3-1.93 9.48 9.48 0 0 0 1.51-2.97c.36-1.15.55-2.43.55-3.82 0-1.26-.13-2.42-.37-3.5a8.36 8.36 0 0 0-1.16-2.8 5.5 5.5 0 0 0-2.05-1.84 6.5 6.5 0 0 0-3.05-.67 7 7 0 0 0-3.24.88 20.02 20.02 0 0 0-3.6 2.5v12.18zm0 1.8v11.28h-1.92V89.12h1.65l.18 2.56h.13a21.3 21.3 0 0 1 3.33-2.13 8.06 8.06 0 0 1 3.77-.94c2.79 0 4.88.94 6.27 2.84 1.4 1.9 2.1 4.44 2.1 7.63 0 1.74-.25 3.29-.75 4.66a10.43 10.43 0 0 1-2.02 3.48 8.73 8.73 0 0 1-2.96 2.18 8.54 8.54 0 0 1-3.51.75c-.99 0-2-.22-3.05-.66a16.6 16.6 0 0 1-3.22-1.86zm21.56-28.87h1.83v28.08c0 .46.09.79.25 1a.77.77 0 0 0 .63.32h.27c.1 0 .26-.03.48-.08l.33 1.53a9.03 9.03 0 0 1-.58.14 3.58 3.58 0 0 1-.75.07c-1.64 0-2.46-1.08-2.46-3.23V78.76zm23.22 19.27c0-2.6-.53-4.56-1.6-5.87a5.36 5.36 0 0 0-4.38-1.95 5.92 5.92 0 0 0-2.5.54 6.91 6.91 0 0 0-2.14 1.56 8.18 8.18 0 0 0-1.57 2.46c-.4.97-.67 2.06-.78 3.26h12.97zm-14.88 1.22c0-1.65.24-3.14.74-4.46.5-1.32 1.16-2.43 2-3.34a8.9 8.9 0 0 1 2.83-2.1 7.74 7.74 0 0 1 3.3-.74c2.42 0 4.33.81 5.72 2.44 1.38 1.62 2.07 3.93 2.07 6.9v.76c0 .25-.02.5-.08.75H228.7c.02 1.27.22 2.44.59 3.52s.88 2 1.55 2.78a7.05 7.05 0 0 0 2.4 1.8 8.66 8.66 0 0 0 6.13.17 9.78 9.78 0 0 0 2.47-1.32l.77 1.43c-.82.48-1.72.93-2.7 1.35-.97.42-2.2.63-3.7.63a9.44 9.44 0 0 1-3.68-.72 8.5 8.5 0 0 1-2.99-2.08 10.04 10.04 0 0 1-2.01-3.33 12.3 12.3 0 0 1-.74-4.44zm21.97-10.13h1.62l.17 3.2h.13a18.71 18.71 0 0 1 3.24-2.66 6.94 6.94 0 0 1 3.8-1.05c2.13 0 3.7.64 4.7 1.94 1 1.29 1.49 3.29 1.49 5.99v13.28h-1.88V96.8c0-2.22-.36-3.85-1.09-4.9-.72-1.05-1.93-1.57-3.6-1.57a6 6 0 0 0-3.33.97 20.8 20.8 0 0 0-3.37 2.9v15.62h-1.88v-20.7zm23.15 10.13c0 1.32.18 2.53.55 3.62a9 9 0 0 0 1.5 2.82 6.73 6.73 0 0 0 2.25 1.83 6.24 6.24 0 0 0 2.83.66 6.37 6.37 0 0 0 2.85-.66 6.66 6.66 0 0 0 2.27-1.83 9 9 0 0 0 1.5-2.82c.37-1.1.55-2.3.55-3.62 0-1.34-.18-2.56-.55-3.66a9.27 9.27 0 0 0-1.5-2.84 6.58 6.58 0 0 0-2.27-1.85 6.38 6.38 0 0 0-2.85-.65 6.25 6.25 0 0 0-2.83.65 6.64 6.64 0 0 0-2.25 1.85 9.27 9.27 0 0 0-1.5 2.84 11.5 11.5 0 0 0-.55 3.66zm-1.94 0c0-1.68.24-3.19.74-4.52a9.94 9.94 0 0 1 1.98-3.35 8.58 8.58 0 0 1 6.35-2.77c1.2 0 2.37.23 3.48.71a8.49 8.49 0 0 1 2.91 2.06c.83.9 1.5 2.02 1.98 3.35a13 13 0 0 1 .74 4.52c0 1.69-.24 3.18-.74 4.49a9.99 9.99 0 0 1-1.98 3.3 8.47 8.47 0 0 1-2.91 2.06 8.73 8.73 0 0 1-3.48.72 8.58 8.58 0 0 1-6.35-2.78 10 10 0 0 1-1.98-3.3c-.5-1.3-.74-2.8-.74-4.49zm25.1-8.3h-3.13v-1.47l3.16-.17.25-6h1.58v6h5.79v1.64h-5.79v13.53c0 .66.05 1.26.15 1.8.1.53.27.99.52 1.38.25.39.59.69 1.02.9.43.22 1 .33 1.69.33a4.67 4.67 0 0 0 1.27-.2 7.76 7.76 0 0 0 1.22-.45l.5 1.56c-.58.23-1.16.42-1.75.56a6.4 6.4 0 0 1-1.5.22c-.97 0-1.77-.16-2.4-.46a3.89 3.89 0 0 1-1.55-1.27 5.04 5.04 0 0 1-.81-2 13.26 13.26 0 0 1-.23-2.54V90.95zm25.7 7.43c0-2.66-.53-4.66-1.62-6a5.36 5.36 0 0 0-4.39-2 5.88 5.88 0 0 0-2.52.57 6.97 6.97 0 0 0-2.15 1.59 8.37 8.37 0 0 0-1.58 2.51c-.41.99-.68 2.1-.8 3.33h13.07zm-14.97 1.25c0-1.7.25-3.21.75-4.56.5-1.34 1.16-2.48 2-3.41a8.97 8.97 0 0 1 2.86-2.15 7.7 7.7 0 0 1 3.3-.75c2.45 0 4.37.83 5.77 2.49 1.4 1.66 2.09 4 2.09 7.04v.78c0 .26-.03.51-.09.77h-14.76c.03 1.3.23 2.49.6 3.59a8.5 8.5 0 0 0 1.55 2.83 7.11 7.11 0 0 0 2.41 1.85 8.65 8.65 0 0 0 6.17.17 9.79 9.79 0 0 0 2.5-1.35l.77 1.46a24.99 24.99 0 0 1-2.71 1.38 9.4 9.4 0 0 1-3.74.64 9.38 9.38 0 0 1-3.69-.73 8.56 8.56 0 0 1-3-2.13 10.27 10.27 0 0 1-2.03-3.39 12.9 12.9 0 0 1-.75-4.53z"/></g></svg>