<svg xmlns="http://www.w3.org/2000/svg" width="400" height="200"><g fill="none" fill-rule="evenodd"><path fill="#3A8FBA" d="M169.36 97.96c0-3.88-2.84-7.34-7.96-7.34-5.13 0-7.94 3.46-7.94 7.34v.48c0 3.88 2.8 7.4 7.94 7.4 5.12 0 7.96-3.52 7.96-7.4v-.48zM161.4 109c-7.12 0-11.74-5.11-11.74-10.44v-.66c0-5.42 4.62-10.44 11.74-10.44 7.15 0 11.76 5.02 11.76 10.44v.66c0 5.33-4.61 10.44-11.76 10.44z"/><path fill="#0B0B09" d="M163.88 94.43c.68.44.87 1.35.43 2.03l-3.44 5.31c-.44.68-1.35.88-2.03.44a1.46 1.46 0 0 1-.43-2.02l3.44-5.32a1.47 1.47 0 0 1 2.03-.44zm-91.54-2.34-4.38 8.43h8.9l-4.52-8.43zM81 108.22l-2.66-4.97h-11.8l-2.56 4.97H60l10.86-20.04H74l11.04 20.04H81zm21.18.78c-7.21 0-10.56-3.91-10.56-9.12v-11.7h3.74v11.76c0 3.7 2.44 5.9 7.09 5.9 4.76 0 6.72-2.2 6.72-5.9V88.18h3.78v11.7c0 4.97-3.2 9.12-10.77 9.12zm31.76-17.69v16.9h-3.77v-16.9h-8.78v-3.13h21.33v3.13h-8.78zm72.83 16.9V92.37l-1 1.75-8.41 14.1h-1.84l-8.33-14.1-1-1.75v15.86h-3.68V88.18h5.22l7.94 13.75.93 1.68.94-1.68 7.84-13.75h5.16v20.04h-3.77zM230.4 92.1l-4.37 8.43h8.9l-4.53-8.43zm8.66 16.13-2.65-4.97h-11.8l-2.56 4.97h-3.99l10.86-20.04h3.14l11.04 20.04h-4.04zM258.3 91.3v16.9h-3.77V91.3h-8.78v-3.13h21.33v3.13h-8.78zm27.66 0v16.9h-3.77V91.3h-8.78v-3.13h21.33v3.13h-8.78zm18.07 16.9V90.09c1.51 0 2.11-.82 2.11-1.9h1.6v20.04h-3.7zm33.25-14.37a11.75 11.75 0 0 0-8.05-3.22c-5.38 0-8.4 3.67-8.4 7.49v.39c0 3.8 3.05 7.34 8.67 7.34 3.35 0 6.12-1.6 7.87-3.22l2.26 2.38c-2.2 2.16-5.94 4-10.38 4-7.6 0-12.21-4.93-12.21-10.35v-.66c0-5.42 5.03-10.53 12.4-10.53 4.25 0 8.11 1.77 10.2 4l-2.36 2.38z"/></g></svg>