<svg xmlns="http://www.w3.org/2000/svg" width="400" height="200"><path fill="#0A0B09" fill-rule="evenodd" d="M140.37 85.86h4.3l-6.75 23.52h-5l-3.6-12.58-3.86 12.57h-5l-6.43-23.5h4.58l4.51 18.6 4.16-14.75-1.11-3.86h4.76l4.72 18 4.72-18zm137.18 23.52v-4.29h4.18v4.29h-4.18zm-124.93-17.1c5.73 0 8.48 3.69 8.48 8.78s-2.75 8.74-8.48 8.74c-5.76 0-8.48-3.65-8.48-8.74s2.72-8.78 8.48-8.78zm0 14.18c2.72 0 4.14-1.79 4.14-5.4 0-3.65-1.42-5.4-4.14-5.4s-4.17 1.78-4.17 5.4c0 3.65 1.45 5.4 4.17 5.4zm35.77-13.79v-6.8h4.17v23.5h-3.96v-1.54a9.24 9.24 0 0 1-5.4 1.97c-3.71 0-6.86-2.56-6.86-8.11 0-5.58 3.15-9.4 8.9-9.4 1.03 0 1.91.13 3.15.38zm0 11.9V96.1a7.8 7.8 0 0 0-2.72-.53c-3.18 0-5.02 2-5.02 5.83 0 3.54 1.49 5.05 3.78 5.05 1.35 0 2.62-.66 3.96-1.9zm17.05-18.7c5.06 0 8.73 2.48 8.73 7.57 0 5.06-3.67 7.76-8.73 7.76h-3.27v8.18h-4.45V85.86h7.72zm.04 11.89c2.8 0 4.03-1.72 4.03-4.32 0-2.63-1.34-4.1-4.03-4.1h-3.3v8.42h3.3zm31.34-5.48c5.33 0 7.2 3.69 7.2 7.2 0 1.16-.06 1.79-.14 2.46h-10.74c.1 3.65 2.19 4.49 5.3 4.49 1.7 0 3.27-.39 5.02-1.02v3.44a20.2 20.2 0 0 1-6.19.95c-5.33 0-8.62-2.63-8.62-8.85 0-4.52 2.8-8.67 8.17-8.67zm-3.64 6.92h6.5c0-2.04-.67-3.8-2.9-3.8-2.08 0-3.36 1.48-3.6 3.8zm18.09-1.83c0 2.81 8.34 1.3 8.34 7.1 0 4.17-3.75 5.33-7.67 5.33-1.8 0-3.62-.48-4.91-.99v-3.4c1.55.53 3.71 1.05 5.05 1.05 1.91 0 3.22-.38 3.22-1.82 0-2.91-8.34-1.37-8.34-7.37 0-3.1 2.83-4.99 6.85-4.99 1.84 0 3.43.18 4.99.64v3.44s-2.27-.74-4.67-.74c-1.48 0-2.86.49-2.86 1.75zm57.87-5.09c5.72 0 8.48 3.69 8.48 8.78s-2.76 8.74-8.48 8.74c-5.76 0-8.48-3.65-8.48-8.74s2.72-8.78 8.48-8.78zm0 14.18c2.72 0 4.13-1.79 4.13-5.4 0-3.65-1.41-5.4-4.13-5.4s-4.17 1.78-4.17 5.4c0 3.65 1.45 5.4 4.17 5.4zm32.33-14.18c3.4 0 5.34 2.35 5.34 5.58v11.51h-4.17V98.86c0-2.35-.85-3.09-2.23-3.09-1.2 0-2.86.67-4.41 1.68v11.94h-4.17V98.85c0-2.35-.85-3.1-2.23-3.1-1.2 0-2.86.64-4.42 1.66v11.97h-4.2V92.7h3.96v1.72c1.87-1.23 3.92-2.15 5.72-2.15 1.95 0 3.71.67 4.6 2.53l.49-.31c1.87-1.23 3.92-2.22 5.72-2.22zm-120.66 3.16a5.21 5.21 0 0 1 4.98-2.95c.53 0 1.13.07 1.13.07v3.62h-.43c-2.65 0-4.24.8-5.54 3.26v9.94h-4.17V92.7h3.88v2.73h.14zm-52.32 0a5.21 5.21 0 0 1 4.99-2.95c.53 0 1.13.07 1.13.07v3.62h-.43c-2.65 0-4.24.8-5.55 3.26v9.94h-4.17V92.7h3.9v2.73h.13zm119.95 5.44c0 4.28 2.15 5.55 4.9 5.55 1.32 0 2.78-.28 4.69-1.02v3.44c-1.7.56-3.23.95-5.21.95-6.26 0-8.73-3.55-8.73-8.7 0-5.45 3.43-8.82 8.98-8.82 2.08 0 3.33.35 4.75.81v3.51a14 14 0 0 0-4.68-.95c-2.55 0-4.7 1.34-4.7 5.23zm-22-3.5c0 2.8 8.35 1.3 8.35 7.08 0 4.18-3.75 5.34-7.67 5.34-1.8 0-3.62-.48-4.91-.99v-3.4a18.6 18.6 0 0 0 5.05 1.05c1.9 0 3.22-.38 3.22-1.82 0-2.92-8.34-1.37-8.34-7.37 0-3.1 2.82-4.99 6.85-4.99 1.84 0 3.43.18 4.99.64v3.44s-2.28-.74-4.67-.74c-1.48 0-2.86.49-2.86 1.75zM91.37 114.75a21.09 21.09 0 0 0 10.57-18.26 20.91 20.91 0 0 0-2.6-10.14 16 16 0 0 1 .14 2.18c0 2.14-.4 4.55-1.62 7.56l-6.5 18.66zM83.59 86.6l7.7 22.72 2.11-7.05c1.08-2.74 1.62-5.02 1.62-6.83 0-2.6-.94-4.42-1.75-5.82-1.08-1.74-2.1-3.22-2.1-4.96 0-1.94 1.5-3.75 3.58-3.75l.28.02a21.27 21.27 0 0 0-14.37-5.55A21.29 21.29 0 0 0 62.9 84.9l1.37.03a93 93 0 0 0 5.67-.27c1.14-.07 1.28 1.6.13 1.74 0 0-1.15.14-2.43.2l7.74 22.89 4.66-13.87-3.32-9.02c-1.14-.06-2.23-.2-2.23-.2-1.14-.06-1-1.8.14-1.74 0 0 3.51.27 5.6.27 2.23 0 5.67-.27 5.67-.27 1.15-.07 1.28 1.6.14 1.74 0 0-1.16.14-2.44.2zm-2.93 31.04c2.48 0 4.85-.43 7.07-1.2a2 2 0 0 1-.16-.29l-6.54-17.8-6.38 18.43a21.43 21.43 0 0 0 6.01.86zM59.4 96.5c0 8.36 4.9 15.59 11.99 19.02L61.23 87.9a20.92 20.92 0 0 0-1.84 8.6zM80.66 73a23.6 23.6 0 0 1 23.66 23.5c0 12.96-10.61 23.5-23.66 23.5S57 109.46 57 96.5A23.6 23.6 0 0 1 80.66 73z"/></svg>