<svg xmlns="http://www.w3.org/2000/svg" width="400" height="200">
  <g id="logo-wordpresscom" fill="none" fill-rule="evenodd" stroke="none" stroke-width="1">
    <path id="WordPress.com" fill="#0A0B09" d="M140.366 85.862h4.307l-6.757 23.514h-4.99l-3.613-12.571-3.857 12.57h-4.99l-6.437-23.513h4.58l4.516 18.613 4.153-14.754-1.11-3.859h4.763l4.717 18.004 4.718-18.004zm137.179 23.514v-4.282h4.184v4.282h-4.184zM152.623 92.284c5.725 0 8.48 3.685 8.48 8.774 0 5.089-2.755 8.74-8.48 8.74-5.76 0-8.481-3.651-8.481-8.74s2.721-8.774 8.48-8.774zm0 14.18c2.721 0 4.135-1.79 4.135-5.406 0-3.65-1.414-5.405-4.135-5.405s-4.17 1.79-4.17 5.405c0 3.65 1.449 5.405 4.17 5.405zm35.769-13.794v-6.808h4.17v23.514h-3.958v-1.544c-1.343 1.123-3.569 1.965-5.406 1.965-3.71 0-6.856-2.562-6.856-8.107 0-5.58 3.145-9.406 8.905-9.406 1.024 0 1.908.141 3.145.386zm0 11.898V96.11a7.804 7.804 0 0 0-2.72-.526c-3.181 0-5.02 2-5.02 5.825 0 3.544 1.485 5.054 3.782 5.054 1.343 0 2.615-.667 3.958-1.895zm17.052-18.706c5.054 0 8.73 2.491 8.73 7.58 0 5.054-3.676 7.757-8.73 7.757h-3.27v8.177h-4.452V85.862h7.722zm.036 11.897c2.792 0 4.03-1.72 4.03-4.316 0-2.633-1.344-4.106-4.03-4.106h-3.306v8.422h3.306zm31.337-5.475c5.336 0 7.209 3.685 7.209 7.195 0 1.158-.07 1.79-.142 2.456h-10.742c.106 3.65 2.185 4.493 5.294 4.493 1.695 0 3.275-.384 5.025-1.022v3.444c-2.174.663-4.036.947-6.191.947-5.33 0-8.616-2.632-8.616-8.844 0-4.527 2.792-8.669 8.163-8.669zm-3.64 6.914h6.502c0-2.035-.671-3.79-2.898-3.79-2.085 0-3.357 1.473-3.604 3.79zm18.093-1.824c0 2.807 8.34 1.298 8.34 7.089 0 4.176-3.746 5.334-7.668 5.334-1.803 0-3.617-.48-4.912-.986v-3.405c1.555.537 3.71 1.057 5.053 1.057 1.908 0 3.216-.386 3.216-1.825 0-2.913-8.34-1.369-8.34-7.37 0-3.09 2.827-4.984 6.855-4.984 1.837 0 3.428.176 4.982.632v3.44s-2.27-.737-4.664-.737c-1.483 0-2.862.49-2.862 1.755zm57.867-5.09c5.725 0 8.482 3.685 8.482 8.774 0 5.089-2.757 8.74-8.482 8.74-5.76 0-8.481-3.651-8.481-8.74s2.721-8.774 8.481-8.774zm0 14.18c2.721 0 4.134-1.79 4.134-5.406 0-3.65-1.413-5.405-4.134-5.405s-4.17 1.79-4.17 5.405c0 3.65 1.449 5.405 4.17 5.405zm32.337-14.18c3.393 0 5.336 2.351 5.336 5.581v11.51h-4.17V98.848c0-2.352-.847-3.088-2.225-3.088-1.201 0-2.863.667-4.417 1.684v11.933h-4.17v-10.53c0-2.352-.848-3.088-2.227-3.088-1.201 0-2.862.632-4.417 1.65v11.967h-4.205v-16.67h3.958v1.72c1.873-1.229 3.923-2.142 5.725-2.142 1.943 0 3.71.667 4.593 2.527l.494-.316c1.874-1.228 3.923-2.211 5.725-2.211zm-120.668 3.16c1.166-2.072 2.72-2.95 4.982-2.95.53 0 1.13.071 1.13.071v3.615h-.423c-2.65 0-4.24.807-5.548 3.264v9.932h-4.17v-16.67h3.888v2.737h.14zm-52.312 0c1.166-2.072 2.72-2.95 4.982-2.95.53 0 1.131.071 1.131.071v3.615h-.424c-2.65 0-4.24.807-5.548 3.264v9.932h-4.17v-16.67h3.887v2.737h.142zm119.943 5.439c0 4.281 2.156 5.545 4.912 5.545 1.307 0 2.773-.281 4.68-1.018v3.44c-1.695.561-3.232.947-5.21.947-6.255 0-8.729-3.545-8.729-8.704 0-5.44 3.428-8.809 8.976-8.809 2.085 0 3.338.351 4.752.807v3.51c-1.201-.456-2.985-.948-4.681-.948-2.544 0-4.7 1.334-4.7 5.23zm-21.988-3.51c0 2.808 8.34 1.299 8.34 7.09 0 4.176-3.746 5.334-7.669 5.334-1.802 0-3.616-.48-4.911-.986v-3.405c1.555.537 3.71 1.057 5.053 1.057 1.907 0 3.215-.386 3.215-1.825 0-2.913-8.34-1.369-8.34-7.37 0-3.09 2.828-4.984 6.856-4.984 1.838 0 3.428.176 4.983.632v3.44s-2.271-.737-4.665-.737c-1.484 0-2.862.49-2.862 1.755zM91.356 114.762c6.325-3.662 10.578-10.468 10.578-18.262a20.91 20.91 0 0 0-2.606-10.136 16 16 0 0 1 .144 2.173c0 2.143-.405 4.552-1.619 7.567l-6.497 18.658zm-7.763-28.168l7.688 22.712 2.122-7.042c1.079-2.746 1.619-5.021 1.619-6.83 0-2.612-.945-4.42-1.754-5.827-1.078-1.741-2.09-3.214-2.09-4.955 0-1.942 1.483-3.75 3.573-3.75.094 0 .184.011.275.017a21.272 21.272 0 0 0-14.365-5.547 21.288 21.288 0 0 0-17.775 9.523c.5.016.971.026 1.37.026 2.225 0 5.67-.269 5.67-.269 1.146-.067 1.282 1.607.136 1.74 0 0-1.153.135-2.435.202l7.746 22.885 4.656-13.866-3.314-9.02c-1.146-.066-2.23-.2-2.23-.2-1.148-.067-1.013-1.808.134-1.74 0 0 3.512.268 5.603.268 2.224 0 5.67-.269 5.67-.269 1.147-.067 1.282 1.607.135 1.74 0 0-1.154.135-2.434.202zm-2.932 31.036c2.477 0 4.853-.426 7.065-1.198a2.003 2.003 0 0 1-.153-.291l-6.538-17.793-6.384 18.421a21.43 21.43 0 0 0 6.01.861zM59.388 96.5c0 8.363 4.893 15.59 11.99 19.015L61.23 87.9a20.922 20.922 0 0 0-1.842 8.599zM80.661 73c13.046 0 23.66 10.541 23.66 23.499 0 12.958-10.614 23.501-23.66 23.501S57 109.457 57 96.499C57 83.54 67.615 73 80.66 73z"/>
  </g>
</svg>
