<svg xmlns="http://www.w3.org/2000/svg" width="400" height="200">
  <g id="logo-simplenote" fill="none" fill-rule="evenodd" stroke="none" stroke-width="1">
    <path id="Symbol" fill="#4D8ABC" d="M110.647 96.881c0-9.908-7.85-18.444-17.167-18.862-1.853-.082-3.652.417-5.077 1.62a7.079 7.079 0 0 0-2.495 4.827c-.367 4.227 3.418 6.812 7.082 7.822 8.862 2.442 13.995 8.75 13.472 16.506a18.953 18.953 0 0 0 4.185-11.913zm-19.644 2.721c-8.287-2.283-13.23-8.484-12.595-15.797.007-.083.02-.165.029-.247A18.96 18.96 0 0 0 73 96.88c0 9.99 8.072 18.563 17.406 18.885 2.087.072 4.105-.49 5.708-1.846a8.02 8.02 0 0 0 2.827-5.47c.492-5.66-4.762-7.973-7.938-8.848z"/>
    <path id="Simplenote" fill="#2D2E2C" d="M128.045 104.297a11.169 11.169 0 0 0 3.603 2.74 10.172 10.172 0 0 0 4.483 1.01c2.121 0 3.797-.511 5.026-1.537 1.23-1.026 1.843-2.367 1.843-4.026 0-.87-.132-1.601-.397-2.191a5.002 5.002 0 0 0-1.068-1.54 7.011 7.011 0 0 0-1.571-1.137 35.992 35.992 0 0 0-1.907-.948l-4.189-1.897a17.903 17.903 0 0 1-1.906-.927 8.055 8.055 0 0 1-1.802-1.37 7.188 7.188 0 0 1-1.361-1.939c-.363-.744-.545-1.637-.545-2.676 0-1.012.203-1.932.608-2.761a6.577 6.577 0 0 1 1.675-2.15c.713-.604 1.564-1.075 2.556-1.412a9.889 9.889 0 0 1 3.205-.506c1.676 0 3.163.33 4.462.99 1.298.662 2.366 1.441 3.204 2.34l-1.088 1.306a9.394 9.394 0 0 0-2.85-2.086c-1.089-.52-2.332-.78-3.728-.78-1.843 0-3.324.45-4.441 1.35-1.117.898-1.676 2.107-1.676 3.624 0 .816.154 1.504.461 2.065a5.139 5.139 0 0 0 1.173 1.455 8.4 8.4 0 0 0 1.55 1.054c.559.294 1.09.555 1.592.78l4.19 1.854a18.37 18.37 0 0 1 2.22 1.138 8.732 8.732 0 0 1 1.843 1.475c.53.563.956 1.23 1.278 2.002.32.773.482 1.694.482 2.76 0 1.069-.21 2.06-.629 2.973a6.84 6.84 0 0 1-1.78 2.36c-.768.66-1.697 1.18-2.786 1.56-1.09.379-2.304.568-3.644.568-2.012 0-3.8-.387-5.363-1.159-1.564-.772-2.89-1.777-3.98-3.013l1.257-1.35zm22.275 5.521v-20.47h2.084v20.47h-2.084zm1.089-25.419c-.537 0-.987-.155-1.35-.468a1.505 1.505 0 0 1-.544-1.195c0-.54.181-.96.545-1.257.362-.299.812-.449 1.349-.449.537 0 .986.15 1.35.449.362.298.544.718.544 1.257 0 .484-.182.882-.544 1.195-.364.313-.813.468-1.35.468zm8.712 4.724h1.63l.171 3.19h.13a13.367 13.367 0 0 1 3.065-2.651c1.13-.704 2.266-1.056 3.409-1.056 1.658 0 2.93.38 3.817 1.142.885.762 1.514 1.79 1.886 3.083 1.2-1.293 2.365-2.32 3.495-3.083 1.129-.761 2.294-1.142 3.495-1.142 4.117 0 6.175 2.644 6.175 7.933v13.28h-1.93V96.796c0-2.212-.372-3.843-1.115-4.893-.744-1.049-1.902-1.574-3.473-1.574-1.859 0-3.917 1.294-6.175 3.88v15.608h-1.887v-13.02c0-2.213-.372-3.844-1.115-4.894-.744-1.049-1.915-1.574-3.516-1.574-1.859 0-3.917 1.294-6.175 3.88v15.608h-1.887V89.123zm36.765 16.708c1.22.968 2.353 1.652 3.398 2.051 1.046.399 1.975.598 2.789.598a6.361 6.361 0 0 0 2.918-.684 6.73 6.73 0 0 0 2.308-1.922c.639-.827 1.14-1.818 1.504-2.971.362-1.154.544-2.43.544-3.826 0-1.253-.124-2.421-.37-3.505-.247-1.082-.632-2.015-1.155-2.8a5.493 5.493 0 0 0-2.047-1.837c-.843-.441-1.859-.663-3.05-.663-1.045 0-2.127.293-3.244.877-1.12.584-2.317 1.418-3.595 2.5v12.182zm0 1.795v11.283h-1.916V89.12h1.655l.174 2.564h.131a21.308 21.308 0 0 1 3.333-2.137 8.064 8.064 0 0 1 3.768-.94c2.787 0 4.879.948 6.272 2.842 1.394 1.895 2.09 4.439 2.09 7.63 0 1.738-.246 3.29-.74 4.658-.493 1.368-1.168 2.53-2.025 3.483a8.732 8.732 0 0 1-2.962 2.18 8.536 8.536 0 0 1-3.507.748c-.987 0-2.004-.221-3.05-.662-1.044-.442-2.119-1.062-3.223-1.86zm21.569-28.868h1.83v28.086c0 .453.085.786.25.999a.765.765 0 0 0 .625.318h.27c.097 0 .257-.028.48-.085l.332 1.53a9.033 9.033 0 0 1-.582.148 3.576 3.576 0 0 1-.75.064c-1.637 0-2.455-1.076-2.455-3.23v-27.83zm23.218 19.276c0-2.61-.537-4.567-1.611-5.872-1.075-1.304-2.53-1.957-4.368-1.957a5.92 5.92 0 0 0-2.502.547 6.914 6.914 0 0 0-2.142 1.558c-.636.673-1.16 1.494-1.569 2.461-.41.969-.672 2.056-.785 3.263h12.977zm-14.885 1.22c0-1.655.247-3.142.742-4.461.494-1.319 1.159-2.434 1.994-3.346a8.897 8.897 0 0 1 2.84-2.105 7.744 7.744 0 0 1 3.287-.736c2.432 0 4.34.814 5.725 2.44 1.386 1.629 2.079 3.93 2.079 6.904v.757c0 .253-.028.505-.085.758h-14.674c.028 1.262.226 2.434.594 3.514.367 1.08.883 2.006 1.547 2.778a7.055 7.055 0 0 0 2.397 1.81c.933.435 1.978.652 3.138.652 1.103 0 2.1-.16 2.99-.484a9.78 9.78 0 0 0 2.481-1.326l.764 1.431c-.821.478-1.718.926-2.693 1.347-.976.421-2.213.631-3.711.631a9.444 9.444 0 0 1-3.669-.715 8.505 8.505 0 0 1-2.99-2.083c-.848-.912-1.52-2.021-2.014-3.325-.495-1.305-.742-2.785-.742-4.44zm21.97-10.131h1.621l.171 3.19h.128c1.053-1.063 2.134-1.946 3.244-2.651 1.11-.704 2.375-1.056 3.798-1.056 2.134 0 3.699.647 4.695 1.94.996 1.293 1.494 3.291 1.494 5.993v13.28h-1.878V96.796c0-2.212-.363-3.843-1.088-4.893-.726-1.049-1.929-1.574-3.607-1.574a5.995 5.995 0 0 0-3.33.97c-.996.647-2.119 1.617-3.37 2.91v15.608h-1.878V89.123zm23.152 10.131c0 1.32.183 2.525.549 3.62.365 1.094.865 2.034 1.497 2.82a6.726 6.726 0 0 0 2.257 1.83 6.238 6.238 0 0 0 2.827.653 6.37 6.37 0 0 0 2.847-.653 6.664 6.664 0 0 0 2.278-1.83c.633-.786 1.132-1.726 1.498-2.82.365-1.095.548-2.3.548-3.62 0-1.347-.183-2.567-.548-3.662-.366-1.094-.865-2.041-1.498-2.841a6.58 6.58 0 0 0-2.278-1.851 6.378 6.378 0 0 0-2.847-.653 6.245 6.245 0 0 0-2.827.653 6.64 6.64 0 0 0-2.257 1.851c-.632.8-1.132 1.747-1.497 2.841-.366 1.095-.549 2.315-.549 3.662zm-1.94 0c0-1.684.245-3.191.738-4.525.492-1.332 1.153-2.447 1.983-3.346a8.58 8.58 0 0 1 6.349-2.777c1.209 0 2.369.238 3.48.715a8.487 8.487 0 0 1 2.91 2.062c.83.899 1.491 2.014 1.983 3.346.492 1.334.739 2.841.739 4.525 0 1.683-.247 3.178-.739 4.482-.492 1.305-1.153 2.407-1.983 3.304a8.474 8.474 0 0 1-2.91 2.063 8.735 8.735 0 0 1-3.48.715 8.58 8.58 0 0 1-6.35-2.778c-.83-.897-1.49-1.999-1.982-3.304-.493-1.304-.738-2.799-.738-4.482zm25.091-8.301h-3.122v-1.47l3.164-.172.25-6.008h1.582v6.008h5.785v1.642h-5.785v13.529c0 .663.048 1.26.145 1.793.097.534.27.994.52 1.384.25.389.59.691 1.02.908.43.215.992.323 1.686.323a4.67 4.67 0 0 0 1.27-.194 7.76 7.76 0 0 0 1.228-.454l.499 1.556c-.583.23-1.166.417-1.748.562-.583.144-1.083.216-1.499.216-.972 0-1.776-.152-2.414-.454a3.889 3.889 0 0 1-1.54-1.275c-.39-.547-.66-1.21-.812-1.988a13.256 13.256 0 0 1-.229-2.55V90.953zm25.715 7.427c0-2.664-.54-4.662-1.622-5.994-1.081-1.332-2.546-1.999-4.394-1.999a5.88 5.88 0 0 0-2.518.56 6.967 6.967 0 0 0-2.155 1.59c-.64.687-1.166 1.525-1.578 2.513-.412.989-.676 2.099-.79 3.33h13.057zM305.8 99.627c0-1.69.249-3.208.746-4.555.498-1.347 1.166-2.485 2.006-3.416a8.967 8.967 0 0 1 2.858-2.15 7.697 7.697 0 0 1 3.307-.75c2.446 0 4.366.83 5.76 2.491 1.394 1.662 2.091 4.011 2.091 7.048v.773c0 .258-.029.516-.086.774H307.72c.028 1.289.227 2.485.597 3.587.37 1.104.889 2.049 1.557 2.836a7.113 7.113 0 0 0 2.41 1.849c.94.444 1.992.665 3.158.665 1.11 0 2.112-.164 3.008-.494a9.785 9.785 0 0 0 2.496-1.353l.769 1.46a24.99 24.99 0 0 1-2.71 1.375c-.981.43-2.226.645-3.733.645a9.385 9.385 0 0 1-3.691-.73 8.556 8.556 0 0 1-3.008-2.127c-.853-.93-1.53-2.063-2.027-3.395-.497-1.332-.746-2.843-.746-4.533z"/>
  </g>
</svg>
