<svg xmlns="http://www.w3.org/2000/svg" width="400" height="200"><g fill="none" fill-rule="evenodd"><path fill="#90567F" d="M95.91 80.42h60.63a6.96 6.96 0 0 1 6.94 6.98v23.27c0 3.86-3.1 6.98-6.94 6.98H134.8l2.98 7.35-13.13-7.35h-28.7a6.96 6.96 0 0 1-6.95-6.98V87.4a6.93 6.93 0 0 1 6.91-6.99zm-3.2 6.34a2.74 2.74 0 0 0-.48 2.05c1.8 11.48 3.47 19.23 5.02 23.24.61 1.47 1.31 2.17 2.13 2.11 1.28-.1 2.8-1.87 4.6-5.33.95-1.96 2.4-4.9 4.39-8.82 1.64 5.8 3.9 10.14 6.73 13.05.79.82 1.6 1.2 2.4 1.13.7-.06 1.25-.43 1.61-1.1.3-.58.43-1.26.37-2.02-.18-2.79.09-6.68.85-11.67.8-5.14 1.77-8.85 2.96-11.05.24-.46.33-.92.3-1.47a2.4 2.4 0 0 0-.94-1.75 2.63 2.63 0 0 0-1.92-.61c-.89.06-1.55.49-2.01 1.35-1.89 3.46-3.23 9.06-4.02 16.84a57.53 57.53 0 0 1-2.9-10.48c-.33-1.8-1.15-2.66-2.49-2.57-.91.06-1.67.68-2.28 1.84l-6.67 12.77c-1.1-4.44-2.13-9.86-3.08-16.26-.21-1.6-1.1-2.33-2.65-2.2-.85.05-1.49.36-1.91.94zm61.63 13.28c-.42 2.02-1.18 3.53-2.31 4.54-.88.8-1.7 1.13-2.47.98-.73-.16-1.34-.8-1.8-2a7.8 7.8 0 0 1-.54-2.78c0-.77.06-1.53.21-2.24a9.94 9.94 0 0 1 1.61-3.64c1-1.5 2.08-2.11 3.17-1.9.73.15 1.34.8 1.8 2 .36.94.55 1.89.55 2.78 0 .8-.1 1.56-.22 2.26zm3.84-8.48a7.01 7.01 0 0 0-4.87-3.55 7.95 7.95 0 0 0-1.65-.18c-2.92 0-5.3 1.53-7.15 4.59a16.29 16.29 0 0 0-2.38 8.63c0 2.36.49 4.38 1.46 6.07a7.01 7.01 0 0 0 4.88 3.55 7.95 7.95 0 0 0 1.64.18c2.95 0 5.33-1.53 7.16-4.59a16.47 16.47 0 0 0 2.37-8.67c0-2.38-.49-4.37-1.46-6.03zm-22.93 8.48c-.42 2.02-1.19 3.53-2.31 4.54-.89.8-1.7 1.13-2.47.98-.73-.16-1.34-.8-1.8-2a7.8 7.8 0 0 1-.54-2.78c0-.77.06-1.53.2-2.24a9.93 9.93 0 0 1 1.62-3.64c1-1.5 2.07-2.11 3.17-1.9.73.15 1.34.8 1.8 2 .36.94.54 1.89.54 2.78 0 .8-.06 1.56-.2 2.26zm3.84-8.48a7.07 7.07 0 0 0-4.87-3.55 7.95 7.95 0 0 0-1.65-.18c-2.92 0-5.3 1.53-7.15 4.59a16.3 16.3 0 0 0-2.38 8.63c0 2.36.49 4.38 1.46 6.07a7.01 7.01 0 0 0 4.87 3.55 7.95 7.95 0 0 0 1.65.18c2.95 0 5.33-1.53 7.15-4.59a16.47 16.47 0 0 0 2.38-8.67c0-2.38-.49-4.37-1.46-6.03z"/><path fill="#0A0B09" d="M303.08 105.22v-3.8h4.97V97.1h-4.97v-3.82h5.76v-4.44H297.5v20.85h11.36v-4.44h-5.79v-.03zm-18.17-13.93a10.39 10.39 0 0 0-3.05 7.71c0 3.34 1 6.07 3.02 8.12 2 2.05 4.62 3.09 7.88 3.09.95 0 2.01-.15 3.17-.49v-4.96c-1.07.3-1.98.46-2.77.46-1.62 0-2.9-.55-3.87-1.62a6.44 6.44 0 0 1-1.46-4.44 6.4 6.4 0 0 1 1.43-4.3 4.55 4.55 0 0 1 3.62-1.67c.95 0 1.95.15 3.05.45v-4.96c-1-.27-2.13-.4-3.32-.4-3.08-.02-5.67.99-7.7 3zm-12.76 6.52v-4.96c1.34.03 2.28.24 2.86.67.58.43.85 1.1.85 2.08 0 1.44-1.25 2.18-3.71 2.2zm8.58.34a5.6 5.6 0 0 0 .89-2.94 5.5 5.5 0 0 0-2.29-4.66c-1.52-1.13-3.62-1.71-6.24-1.71h-6.51v20.85h5.6v-9.5h.09l4.54 9.5h5.9l-4.47-9.4a5.55 5.55 0 0 0 2.5-2.14zm-21.52 3.3h4.96v-4.31h-4.96V93.3h5.72v-4.44H253.6v20.85h11.36v-4.44h-5.75v-3.83zm-17.24-12.61-1.1 4.68a112.25 112.25 0 0 0-.78 3.68l-.61 3.24a279 279 0 0 0-2.38-11.6h-7.06l-2.65 20.85h5.3l1.43-14.36 3.62 14.36h3.78l3.44-14.33 1.49 14.33h5.54l-2.8-20.85h-7.22zm-25.36 0-1.1 4.68c-.27 1.2-.54 2.42-.79 3.68l-.6 3.24c-.59-3.24-1.38-7.1-2.38-11.6h-7.07l-2.65 20.85h5.3l1.43-14.36 3.63 14.36h3.77l3.47-14.33 1.5 14.33h5.54l-2.8-20.85h-7.25zm-21.9 15.34a2.7 2.7 0 0 1-2.4 1.28c-.97 0-1.7-.42-2.22-1.28-.52-.86-.76-2.58-.76-5.18 0-4 1-6 3.04-6 2.13 0 3.23 2.02 3.23 6.1-.03 2.5-.33 4.22-.88 5.08zm-2.4-15.93c-2.8 0-5 .95-6.57 2.82-1.59 1.87-2.35 4.5-2.35 7.87 0 3.65.8 6.43 2.35 8.36 1.55 1.93 3.83 2.91 6.82 2.91 2.89 0 5.11-.98 6.66-2.9 1.56-1.94 2.35-4.66 2.35-8.15 0-3.5-.8-6.19-2.38-8.09-1.61-1.87-3.9-2.81-6.88-2.81zm-21.13 3.04a10.39 10.39 0 0 0-3.04 7.71c0 3.34 1 6.07 3.01 8.12 2.01 2.05 4.63 3.09 7.89 3.09.94 0 2-.15 3.16-.49v-4.96c-1.06.3-1.98.46-2.77.46-1.61 0-2.9-.55-3.86-1.62a6.44 6.44 0 0 1-1.47-4.44c0-1.75.5-3.19 1.43-4.3a4.55 4.55 0 0 1 3.63-1.67c.94 0 1.95.15 3.04.45v-4.96c-1-.27-2.13-.4-3.32-.4-3.1-.02-5.66.99-7.7 3z"/></g></svg>