<svg xmlns="http://www.w3.org/2000/svg" xmlns:xlink="http://www.w3.org/1999/xlink" width="72" height="72"><defs><path id="c" d="M0 0h29l3.15 1.58A.75.75 0 0 1 31.82 3L0 2.97V0z"/><path id="e" d="M10.8 56.4 16.5 45c1-2 1.5-3 1.5-5V.18H0V40c0 2 .57 3 1.57 5l5.65 11.4a2 2 0 0 0 3.58 0z"/><circle id="a" cx="36" cy="36" r="36"/></defs><g fill="none" fill-rule="evenodd"><mask id="b" fill="#fff"><use xlink:href="#a"/></mask><use fill="#969CA1" fill-rule="nonzero" xlink:href="#a"/><g mask="url(#b)"><g transform="translate(-4 53)"><mask id="d" fill="#fff"><use xlink:href="#c"/></mask><use fill="#B0B5B8" xlink:href="#c"/><path fill="#CCCED0" d="M0 0h40v1H0z" mask="url(#d)"/></g></g><g mask="url(#b)"><g transform="rotate(30 26.23 87.377)"><mask id="f" fill="#fff"><use xlink:href="#e"/></mask><use fill="#FFF" xlink:href="#e"/><path fill="#E1E2E2" fill-rule="nonzero" d="M-5-2h28v44H-5z" mask="url(#f)"/><path fill="#50575D" fill-rule="nonzero" d="M-5 0h28v38H-5z" mask="url(#f)"/><path fill="#3D4145" fill-rule="nonzero" d="M9 22C5 22 5 11.7 5-1v-23h8v23c0 12.7 0 23-4 23zm-11 8h22v4H-2v-4z" mask="url(#f)"/></g></g></g></svg>