<svg xmlns="http://www.w3.org/2000/svg" xmlns:xlink="http://www.w3.org/1999/xlink" width="72" height="72"><defs><circle id="a" cx="36" cy="36" r="36"/><path id="c" d="M4.5 29.88C2.85 21.65 0 6.94 0 4V0h24v4c0 2.94-2.85 17.65-4.5 25.88 2.6 3.12 2.6 6.47 2 10.12-.92 5.49-6.5 15-8.5 18h-2c-2-3-7.5-12-8.5-18-.6-3.65-.6-7 2-10.12zM11.99 38c-1.51 0-1.49 1-1.49 2 0 .67.42 5.34 1.27 14 .01.16.1.28.22.3.12 0 .23-.13.24-.3.85-8.66 1.27-13.33 1.27-14 0-1 0-2-1.51-2z"/></defs><g fill="none" fill-rule="evenodd"><mask id="b" fill="#fff"><use xlink:href="#a"/></mask><use fill="#AA5FE6" fill-rule="nonzero" xlink:href="#a"/><path fill="#8051B4" fill-rule="nonzero" d="M-1 54h28.5L0 62z" mask="url(#b)"/><g mask="url(#b)"><g transform="rotate(30 31.464 82.785)"><mask id="d" fill="#fff"><use xlink:href="#c"/></mask><use fill="#FFF" xlink:href="#c"/><path fill="#4B3264" d="M0 0h24v26H0z" mask="url(#d)"/><path fill="#634581" d="M0-5h24v25H0z" mask="url(#d)"/></g></g></g></svg>