<svg xmlns="http://www.w3.org/2000/svg" xmlns:xlink="http://www.w3.org/1999/xlink" width="72" height="72"><defs><circle id="a" cx="36" cy="36" r="36"/><path id="c" d="m.14 34.36 8.93 22.32a1 1 0 0 0 1.86 0l8.93-22.32a2 2 0 0 0 .14-.75V0H0v33.62a2 2 0 0 0 .14.74z"/></defs><g fill="none" fill-rule="evenodd"><mask id="b" fill="#fff"><use xlink:href="#a"/></mask><use fill="#438C7D" xlink:href="#a"/><rect width="28" height="1" x="-2" y="54" fill="#007565" mask="url(#b)" rx=".5"/><g mask="url(#b)"><g transform="rotate(30 26.73 85.51)"><mask id="d" fill="#fff"><use xlink:href="#c"/></mask><use fill="#195D52" xlink:href="#c"/><path fill="#FFF" d="M9 0h2v22.46c0 4.01.42 5.47 1.2 6.94a8.18 8.18 0 0 0 3.4 3.4c1.27.67 2.52 1.08 5.4 1.18V50H-1V33.98c2.88-.1 4.14-.5 5.4-1.18a8.18 8.18 0 0 0 3.4-3.4c.78-1.47 1.2-2.93 1.2-6.94V0z" mask="url(#d)"/></g></g></g></svg>