<svg xmlns="http://www.w3.org/2000/svg" xmlns:xlink="http://www.w3.org/1999/xlink" width="64" height="64">
  <defs>
    <path id="plan-geometric-celadon-path-1" d="M5.128 0h53.744c1.783 0 2.43.186 3.082.534.652.349 1.163.86 1.512 1.512.348.652.534 1.299.534 3.082v53.744c0 1.783-.186 2.43-.534 3.082a3.635 3.635 0 01-1.512 1.512c-.652.348-1.299.534-3.082.534H5.128c-1.783 0-2.43-.186-3.082-.534a3.635 3.635 0 01-1.512-1.512C.186 61.302 0 60.655 0 58.872V5.128c0-1.783.186-2.43.534-3.082A3.635 3.635 0 012.046.534C2.698.186 3.345 0 5.128 0z"/>
  </defs>
  <g id="plan-geometric-celadon" fill="none" fill-rule="evenodd" stroke="none" stroke-width="1">
    <mask id="plan-geometric-celadon-mask-2" fill="#fff">
      <use xlink:href="#plan-geometric-celadon-path-1"/>
    </mask>
    <use id="Background" fill="#D8E3E0" xlink:href="#plan-geometric-celadon-path-1"/>
    <path id="Content" fill="#438C7D" d="M75 11c0 12.15-9.85 22-22 22s-22-9.85-22-22 9.85-22 22-22 22 9.85 22 22zM8 62a6 6 0 11-12.002-.002A6 6 0 018 62zm28-20c0 7.732-6.268 14-14 14S8 49.732 8 42s6.268-14 14-14 14 6.268 14 14z" mask="url(#plan-geometric-celadon-mask-2)"/>
  </g>
</svg>
