<svg xmlns="http://www.w3.org/2000/svg" xmlns:xlink="http://www.w3.org/1999/xlink" width="64" height="64"><defs><path id="a" d="M5.13 0h53.74c1.79 0 2.43.19 3.08.53a3.6 3.6 0 0 1 1.52 1.52c.34.65.53 1.3.53 3.08v53.74c0 1.79-.19 2.43-.53 3.08a3.63 3.63 0 0 1-1.52 1.52c-.65.34-1.3.53-3.08.53H5.13c-1.78 0-2.43-.19-3.08-.53a3.63 3.63 0 0 1-1.52-1.52C.2 61.3 0 60.65 0 58.87V5.13C0 3.35.19 2.7.53 2.05A3.63 3.63 0 0 1 2.05.53C2.7.2 3.35 0 5.13 0z"/></defs><g fill="none" fill-rule="evenodd"><mask id="b" fill="#fff"><use xlink:href="#a"/></mask><use fill="#DBE8FF" xlink:href="#a"/><path fill="#6795FE" d="M50 32a18 18 0 1 1-36 0 18 18 0 0 1 36 0" mask="url(#b)"/></g></svg>