<svg xmlns="http://www.w3.org/2000/svg" xmlns:xlink="http://www.w3.org/1999/xlink" width="64" height="64">
  <defs>
    <path id="plan-geometric-gray-path-1" d="M5.128 0h53.744c1.783 0 2.43.186 3.082.534.652.349 1.163.86 1.512 1.512.348.652.534 1.299.534 3.082v53.744c0 1.783-.186 2.43-.534 3.082a3.635 3.635 0 01-1.512 1.512c-.652.348-1.299.534-3.082.534H5.128c-1.783 0-2.43-.186-3.082-.534a3.635 3.635 0 01-1.512-1.512C.186 61.302 0 60.655 0 58.872V5.128c0-1.783.186-2.43.534-3.082A3.635 3.635 0 012.046.534C2.698.186 3.345 0 5.128 0z"/>
  </defs>
  <g id="plan-geometric-gray" fill="none" fill-rule="evenodd" stroke="none" stroke-width="1">
    <mask id="plan-geometric-gray-mask-2" fill="#fff">
      <use xlink:href="#plan-geometric-gray-path-1"/>
    </mask>
    <use id="Background" fill="#E1E2E2" xlink:href="#plan-geometric-gray-path-1"/>
    <path id="Content" fill="#969CA1" d="M50 66c0 9.941-8.059 18-18 18s-18-8.059-18-18 8.059-18 18-18 18 8.059 18 18" mask="url(#plan-geometric-gray-mask-2)"/>
  </g>
</svg>
