<svg xmlns="http://www.w3.org/2000/svg" xmlns:xlink="http://www.w3.org/1999/xlink" width="72" height="72"><defs><circle id="a" cx="36" cy="36" r="36"/><path id="c" d="M14 50v2.96c0 .48-.03.65-.09.83a1.33 1.33 0 0 1-.28.5c-.13.14-.27.25-.68.49l-4.7 2.7A1.5 1.5 0 0 1 6 56.18V50H4c0-10.67-1.33-21-4-31V0h20v19c-2.67 10-4 20.33-4 31h-2z"/></defs><g fill="none" fill-rule="evenodd"><mask id="b" fill="#fff"><use xlink:href="#a"/></mask><use fill="#E0BD56" fill-rule="nonzero" xlink:href="#a"/><path fill="#BA9830" d="M-4 54h32l-3 2H-4z" mask="url(#b)"/><g mask="url(#b)"><g transform="rotate(30 26.732 85.517)"><mask id="d" fill="#fff"><use xlink:href="#c"/></mask><use fill="#826B32" xlink:href="#c"/><path fill="#FFF" d="M-4 22h28v28H-4z" mask="url(#d)"/></g></g></g></svg>