<svg xmlns="http://www.w3.org/2000/svg" xmlns:xlink="http://www.w3.org/1999/xlink" width="72" height="72"><defs><circle id="a" cx="36" cy="36" r="36"/><path id="c" d="M4.27 31.06C2.62 22.84 1 6.94 1 4V0h20v4c0 2.94-1.62 18.84-3.27 27.06 2.64 2.01 3.88 5.3 3.27 8.94-.92 5.49-7 15-9 18h-2c-2-3-8-12-9-18-.6-3.65.63-6.93 3.27-8.94zm7.62 11.17a2.4 2.4 0 1 0-1.78 0l.59 11.78a.3.3 0 0 0 .6 0l.59-11.78z"/></defs><g fill="none" fill-rule="evenodd"><mask id="b" fill="#fff"><use xlink:href="#a"/></mask><use fill="#E38A40" fill-rule="nonzero" xlink:href="#a"/><path fill="#B95E1B" d="M0 54h30c-22 1.3-24.67 6.63-8 15.97C7.33 69.97 0 64.65 0 54z" mask="url(#b)"/><g mask="url(#b)"><g transform="rotate(30 30.964 84.65)"><mask id="d" fill="#fff"><use xlink:href="#c"/></mask><use fill="#FFF" xlink:href="#c"/><path fill="#BB4F10" d="M-1 0h24v26H-1z" mask="url(#d)"/></g></g></g></svg>