<svg xmlns="http://www.w3.org/2000/svg" xmlns:xlink="http://www.w3.org/1999/xlink" width="72" height="72">
  <defs>
    <circle id="path-pen-purple-path-1" cx="36" cy="36" r="36"/>
    <path id="path-pen-purple-path-3" d="M4.5 29.877C2.847 21.652 0 6.94 0 4V0h24v4c0 2.94-2.847 17.652-4.5 25.877C22.108 33 22.108 36.351 21.5 40c-.915 5.49-6.5 15-8.5 18h-2c-2-3-7.5-12-8.5-18-.608-3.649-.608-7 2-10.123zM11.989 38c-1.511 0-1.489 1-1.489 2 0 .667.425 5.336 1.275 14.007.006.154.098.277.214.285.124.008.23-.119.236-.285.85-8.671 1.275-13.34 1.275-14.007 0-1 0-2-1.511-2z"/>
  </defs>
  <g id="plan-pen-purple" fill="none" fill-rule="evenodd" stroke="none" stroke-width="1">
    <mask id="mask-pen-purple-path-2" fill="#fff">
      <use xlink:href="#path-pen-purple-path-1"/>
    </mask>
    <use id="Background" fill="#AA5FE6" fill-rule="nonzero" xlink:href="#path-pen-purple-path-1"/>
    <path id="Line" fill="#8051B4" fill-rule="nonzero" d="M-1 54h28.5L0 62z" mask="url(#mask-pen-purple-path-2)"/>
    <g id="Pen" mask="url(#mask-pen-purple-path-2)">
      <g transform="rotate(30 31.464 82.785)">
        <mask id="mask-pen-purple-path-4" fill="#fff">
          <use xlink:href="#path-pen-purple-path-3"/>
        </mask>
        <use id="Pen-0" fill="#FFF" fill-rule="evenodd" stroke="none" xlink:href="#path-pen-purple-path-3"/>
        <path id="Pen-1" fill="#4B3264" fill-rule="evenodd" stroke="none" d="M0 0h24v26H0z" mask="url(#mask-pen-purple-path-4)"/>
        <path id="Pen-2" fill="#634581" fill-rule="evenodd" stroke="none" d="M0-5h24v25H0z" mask="url(#mask-pen-purple-path-4)"/>
      </g>
    </g>
  </g>
</svg>
