<svg xmlns="http://www.w3.org/2000/svg" width="404" height="837"><g fill="none" fill-rule="evenodd"><path fill="#2D353B" fill-rule="nonzero" d="M400 219h1.44c.89 0 1.21.1 1.54.27.32.17.58.43.75.75.18.33.27.65.27 1.54v50.88c0 .89-.1 1.21-.27 1.54a1.81 1.81 0 0 1-.75.75c-.33.18-.65.27-1.54.27H400v70h1.44c.89 0 1.21.1 1.54.27.32.17.58.43.75.75.18.33.27.65.27 1.54v108.88c0 .89-.1 1.21-.27 1.54a1.81 1.81 0 0 1-.75.75c-.33.18-.65.27-1.54.27H400v328c0 17.39-1.81 23.7-5.21 30.05a35.43 35.43 0 0 1-14.74 14.74c-6.36 3.4-12.66 5.21-30.05 5.21H50c-17.39 0-23.7-1.81-30.05-5.21a35.43 35.43 0 0 1-14.74-14.74C1.8 810.69 0 804.39 0 787V50c0-17.4 1.81-23.7 5.21-30.05A35.43 35.43 0 0 1 19.95 5.21C26.31 1.8 32.61 0 50 0h300c17.39 0 23.7 1.81 30.05 5.21a35.43 35.43 0 0 1 14.74 14.74C398.2 26.31 400 32.61 400 50v169z"/><path fill="#1F252A" d="M50 6h300c14.95 0 20.98 1.17 27.22 4.5a29.44 29.44 0 0 1 12.28 12.28c3.33 6.24 4.5 12.27 4.5 27.22v737c0 14.95-1.17 20.98-4.5 27.22a29.44 29.44 0 0 1-12.28 12.28c-6.24 3.33-12.27 4.5-27.22 4.5H50c-14.95 0-20.98-1.17-27.22-4.5a29.44 29.44 0 0 1-12.28-12.28C7.17 807.98 6 801.95 6 787V50c0-14.95 1.17-20.98 4.5-27.22A29.44 29.44 0 0 1 22.78 10.5C29.02 7.17 35.05 6 50 6zm79.5 40a4.5 4.5 0 0 0 0 9h141a4.5 4.5 0 0 0 0-9h-141zm0 742a4.5 4.5 0 0 0 0 9h141a4.5 4.5 0 0 0 0-9h-141zm-60-730a8.5 8.5 0 1 0 0-17 8.5 8.5 0 0 0 0 17z"/><path fill="#000" d="M20 691h360v48H20z"/><path stroke="#FFF" stroke-width="2" d="m105.77 707.11-12.55 7.26c-.29.17-.29.1 0 .26l12.55 7.26c.3.17.23.2.23-.13v-14.51c0-.34.06-.3-.23-.14zM295 708a1 1 0 0 0-.99 1v12a1 1 0 0 0 1 1h12a1 1 0 0 0 1-1v-12a1 1 0 0 0-1-1h-12zm-95 14a7 7 0 1 0 0-14 7 7 0 0 0 0 14z"/></g></svg>