<svg xmlns="http://www.w3.org/2000/svg" width="404" height="837">
  <g id="device-body-dark-theme" fill="none" fill-rule="evenodd" stroke="none" stroke-width="1">
    <path id="Background" fill="#1F252A" fill-rule="nonzero" d="M400 219h1.436c.892 0 1.215.093 1.54.267.327.174.583.43.757.756.174.326.267.65.267 1.54v50.873c0 .892-.093 1.215-.267 1.54a1.81 1.81 0 01-.756.757c-.326.174-.65.267-1.54.267H400v70h1.436c.892 0 1.215.093 1.54.267.327.174.583.43.757.756.174.326.267.65.267 1.54v108.873c0 .892-.093 1.215-.267 1.54a1.81 1.81 0 01-.756.757c-.326.174-.65.267-1.54.267H400v328.004c0 17.385-1.81 23.689-5.21 30.044-3.398 6.356-8.386 11.344-14.742 14.743-6.355 3.399-12.66 5.209-30.044 5.209H49.996c-17.385 0-23.689-1.81-30.044-5.21-6.356-3.398-11.344-8.386-14.743-14.742C1.81 810.693 0 804.388 0 787.004V49.996C0 32.61 1.81 26.307 5.21 19.952c3.398-6.356 8.386-11.344 14.742-14.743C26.307 1.81 32.612 0 49.996 0h300.008c17.385 0 23.689 1.81 30.044 5.21 6.356 3.398 11.344 8.386 14.743 14.742C398.19 26.307 400 32.612 400 49.996V219z"/>
    <path id="Background" fill="#000" d="M49.996 6h300.008c14.944 0 20.98 1.166 27.215 4.5 5.31 2.84 9.441 6.971 12.281 12.281 3.334 6.235 4.5 12.27 4.5 27.215v737.008c0 14.944-1.166 20.98-4.5 27.215-2.84 5.31-6.971 9.441-12.281 12.281-6.235 3.334-12.27 4.5-27.215 4.5H49.996c-14.944 0-20.98-1.166-27.215-4.5-5.31-2.84-9.441-6.971-12.281-12.281-3.334-6.235-4.5-12.27-4.5-27.215V49.996c0-14.944 1.166-20.98 4.5-27.215 2.84-5.31 6.971-9.441 12.281-12.281C29.016 7.166 35.051 6 49.996 6zM129.5 46a4.5 4.5 0 000 9h141a4.5 4.5 0 000-9h-141zm0 742a4.5 4.5 0 000 9h141a4.5 4.5 0 000-9h-141zm-60-730a8.5 8.5 0 100-17 8.5 8.5 0 000 17z"/>
    <path id="Icons" stroke="#FFF" stroke-width="2" d="M105.772 707.113l-12.549 7.255c-.289.167-.289.099 0 .266l12.55 7.255c.288.166.227.201.227-.133v-14.51c0-.334.06-.3-.228-.133zm189.222.887a.995.995 0 00-.994.994v12.012c0 .548.446.994.994.994h12.012a.995.995 0 00.994-.994v-12.012a.995.995 0 00-.994-.994h-12.012zM200 722a7 7 0 100-14 7 7 0 000 14z"/>
  </g>
</svg>
