<svg xmlns="http://www.w3.org/2000/svg" width="344" height="167"><g fill="none" fill-rule="evenodd"><path fill="#E1E2E2" d="M56 109h288v1H56z"/><path fill="#3D4145" fill-rule="nonzero" d="M32 93H19v-2h13v2zm5-10H19v2h18v-2zm-18-4v2h11v-2H19zm14 0v2h4v-2h-4zm-6 8v2h10v-2H27zm-8 0v2h5v-2h-5z"/><path fill="#636D75" fill-rule="nonzero" d="M319.63 91h-6.53v-.91l3.45-3.83c.51-.58.86-1.05 1.06-1.4a2.35 2.35 0 0 0 .29-1.13c0-.52-.16-.95-.47-1.28-.32-.33-.74-.5-1.26-.5-.63 0-1.12.18-1.47.54-.35.35-.52.85-.52 1.49h-1.27c0-.92.3-1.66.89-2.22a3.28 3.28 0 0 1 2.37-.85c.92 0 1.65.24 2.2.73.53.48.8 1.13.8 1.94 0 .98-.63 2.14-1.87 3.5l-2.67 2.89h5V91zm7.58-4.25c0 1.49-.26 2.59-.76 3.3-.5.73-1.3 1.09-2.37 1.09s-1.85-.36-2.36-1.06a5.5 5.5 0 0 1-.8-3.15v-1.7c0-1.46.26-2.54.76-3.25s1.3-1.07 2.38-1.07c1.07 0 1.86.34 2.37 1.03.5.68.76 1.74.78 3.17v1.64zm-1.27-1.73c0-1.07-.15-1.85-.45-2.34-.3-.49-.78-.73-1.43-.73-.64 0-1.12.24-1.41.73a4.5 4.5 0 0 0-.46 2.25v2.02c0 1.08.16 1.87.47 2.38.31.52.78.77 1.42.77.62 0 1.08-.24 1.39-.72.3-.48.46-1.24.47-2.28v-2.08z"/><path fill="#969CA1" fill-rule="nonzero" d="m299.5 57.14 2.16-6.67h1.63L300.22 59h-1.44l-3.05-8.53h1.62l2.14 6.67zm6.13 1.86h-1.42v-6.34h1.42V59zm-1.51-7.99c0-.22.07-.4.2-.54a.8.8 0 0 1 .6-.22c.26 0 .46.07.6.22a.75.75 0 0 1 .2.54c0 .22-.06.4-.2.54a.8.8 0 0 1-.6.21.83.83 0 0 1-.6-.21.74.74 0 0 1-.2-.54zm5.85 8.1a3 3 0 0 1-2.2-.84 3.1 3.1 0 0 1-.83-2.27v-.18c0-.63.12-1.2.36-1.7a2.79 2.79 0 0 1 1.03-1.16 2.72 2.72 0 0 1 1.48-.42c.86 0 1.53.28 2 .83.47.55.7 1.33.7 2.34v.57h-4.14c.05.53.22.94.53 1.24.3.3.69.46 1.15.46.66 0 1.19-.26 1.6-.79l.77.73a2.56 2.56 0 0 1-1.02.88 3.18 3.18 0 0 1-1.43.32zm-.17-5.42c-.39 0-.7.13-.95.4a2.2 2.2 0 0 0-.46 1.15h2.72v-.1a1.73 1.73 0 0 0-.38-1.09 1.2 1.2 0 0 0-.93-.36zm9.39 3.35 1-4.38h1.4L319.85 59h-1.18l-1.36-4.35L316 59h-1.17l-1.74-6.34h1.4l1.02 4.33 1.3-4.33h1.07l1.32 4.38zm6.9.24a.65.65 0 0 0-.31-.58 3.17 3.17 0 0 0-1.04-.35 5.35 5.35 0 0 1-1.22-.4c-.7-.33-1.06-.83-1.06-1.48 0-.55.23-1 .69-1.38a2.74 2.74 0 0 1 1.76-.55c.75 0 1.37.19 1.83.57.47.37.7.86.7 1.46h-1.42a.88.88 0 0 0-.3-.69c-.2-.18-.48-.27-.81-.27-.32 0-.57.07-.77.22a.68.68 0 0 0-.3.58c0 .22.1.39.28.5.19.13.56.25 1.11.37.56.12 1 .27 1.32.44.32.17.55.38.71.61.15.24.23.53.23.87a1.7 1.7 0 0 1-.7 1.39 3.1 3.1 0 0 1-1.87.53c-.52 0-.98-.1-1.38-.28a2.29 2.29 0 0 1-.95-.78 1.83 1.83 0 0 1-.34-1.06h1.38a1 1 0 0 0 .38.78c.23.18.55.27.93.27s.66-.07.86-.21a.66.66 0 0 0 .3-.56zM23.03 51.66h-2.66V59H18.9v-7.34h-2.64v-1.19h6.77v1.2zm2.5 7.34H24.1v-6.34h1.43V59zm-1.51-7.99c0-.22.07-.4.2-.54.14-.15.34-.22.6-.22.26 0 .46.07.6.22a.75.75 0 0 1 .2.54c0 .22-.06.4-.2.54a.8.8 0 0 1-.6.21c-.26 0-.46-.07-.6-.21a.74.74 0 0 1-.2-.54zm4.84.1v1.55h1.12v1.05h-1.12v3.54c0 .25.05.42.15.53.1.1.26.16.5.16.17 0 .34-.02.5-.06v1.1a3.5 3.5 0 0 1-.93.14c-1.1 0-1.64-.6-1.64-1.81v-3.6H26.4v-1.05h1.04v-1.54h1.42zM32.58 59h-1.42v-9h1.42v9zm4.34.12c-.9 0-1.63-.29-2.2-.86A3.1 3.1 0 0 1 33.9 56v-.18c0-.63.12-1.2.36-1.7a2.79 2.79 0 0 1 1.03-1.16 2.72 2.72 0 0 1 1.48-.42c.86 0 1.53.28 2 .83.47.55.7 1.33.7 2.34v.57h-4.14c.05.53.22.94.53 1.24.3.3.7.46 1.16.46.65 0 1.18-.26 1.59-.79l.77.73a2.56 2.56 0 0 1-1.02.88c-.42.21-.9.32-1.43.32zm-.17-5.43c-.39 0-.7.13-.94.4-.24.28-.4.66-.46 1.15h2.71v-.1a1.74 1.74 0 0 0-.38-1.09 1.2 1.2 0 0 0-.93-.36z"/><path fill="#1A1A1A" fill-rule="nonzero" d="M18.74 25.3V29h-1.73v-9.95h3.8c1.12 0 2 .29 2.66.86.65.58.98 1.35.98 2.3 0 .98-.32 1.74-.96 2.28-.64.54-1.54.81-2.7.81h-2.05zm0-1.39h2.08c.61 0 1.08-.14 1.4-.43.33-.29.5-.7.5-1.25 0-.54-.17-.97-.5-1.3a1.9 1.9 0 0 0-1.35-.49h-2.13v3.47zm6.66 1.32c0-.72.14-1.37.43-1.96a3.15 3.15 0 0 1 1.21-1.33 3.41 3.41 0 0 1 1.8-.47c.99 0 1.8.32 2.42.96.62.64.96 1.5 1.01 2.56v.39a4.4 4.4 0 0 1-.41 1.95 3.1 3.1 0 0 1-1.2 1.34c-.53.3-1.13.47-1.81.47a3.21 3.21 0 0 1-2.51-1.05 4 4 0 0 1-.94-2.77v-.09zm1.66.15c0 .76.16 1.35.47 1.79.32.43.75.64 1.31.64s1-.22 1.31-.66c.32-.43.47-1.07.47-1.92 0-.74-.16-1.34-.48-1.77a1.54 1.54 0 0 0-1.3-.66c-.55 0-.98.22-1.3.65a3.23 3.23 0 0 0-.48 1.93zm10.77 1.61a.75.75 0 0 0-.37-.68 3.82 3.82 0 0 0-1.21-.4 6.28 6.28 0 0 1-1.42-.46c-.83-.4-1.24-.98-1.24-1.74 0-.64.27-1.17.8-1.6a3.19 3.19 0 0 1 2.06-.64c.88 0 1.6.22 2.14.65.54.44.82 1 .82 1.7h-1.66c0-.31-.12-.58-.36-.8a1.36 1.36 0 0 0-.94-.3c-.37 0-.67.08-.9.24a.8.8 0 0 0-.34.68c0 .26.1.45.32.6.21.14.65.28 1.3.42.65.15 1.16.32 1.53.52.37.2.65.43.83.71.18.28.27.62.27 1.01 0 .67-.28 1.2-.83 1.62-.55.41-1.27.62-2.16.62-.6 0-1.15-.11-1.62-.33a2.68 2.68 0 0 1-1.11-.9 2.14 2.14 0 0 1-.4-1.24h1.62c.02.4.17.7.44.9.27.22.64.32 1.09.32.43 0 .77-.08 1-.25a.77.77 0 0 0 .34-.65zm5.16-7.18v1.8h1.3v1.22H43v4.13c0 .29.05.49.17.62.1.12.3.18.6.18.18 0 .38-.02.57-.07v1.29a4.1 4.1 0 0 1-1.09.16c-1.28 0-1.91-.7-1.91-2.12v-4.19H40.1V21.6h1.22v-1.8h1.66zm6.72 7.18a.75.75 0 0 0-.37-.68 3.82 3.82 0 0 0-1.21-.4 6.28 6.28 0 0 1-1.42-.46c-.83-.4-1.24-.98-1.24-1.74 0-.64.27-1.17.8-1.6a3.2 3.2 0 0 1 2.06-.64c.88 0 1.6.22 2.14.65.55.44.82 1 .82 1.7h-1.66c0-.31-.12-.58-.36-.8a1.36 1.36 0 0 0-.94-.3c-.37 0-.67.08-.9.24a.8.8 0 0 0-.34.68c0 .26.1.45.32.6.21.14.65.28 1.3.42.65.15 1.16.32 1.53.52.38.2.65.43.83.71.18.28.27.62.27 1.01 0 .67-.27 1.2-.83 1.62-.55.41-1.27.62-2.16.62-.6 0-1.15-.11-1.62-.33a2.68 2.68 0 0 1-1.11-.9 2.14 2.14 0 0 1-.4-1.24h1.62c.02.4.17.7.44.9.27.22.64.32 1.09.32.44 0 .77-.08 1-.25a.77.77 0 0 0 .34-.65zM60.69 29a2.57 2.57 0 0 1-.19-.69 2.59 2.59 0 0 1-1.94.83c-.74 0-1.35-.22-1.82-.64a2.03 2.03 0 0 1-.7-1.57c0-.79.3-1.4.88-1.82a4.25 4.25 0 0 1 2.5-.63h1.03V24c0-.39-.11-.7-.32-.92-.22-.23-.54-.35-.98-.35-.38 0-.69.1-.93.29a.88.88 0 0 0-.36.72H56.2c0-.4.13-.79.4-1.14a2.68 2.68 0 0 1 1.1-.83c.46-.2.97-.3 1.54-.3.87 0 1.56.21 2.07.65.52.43.78 1.05.8 1.83v3.34c0 .67.1 1.2.28 1.6V29h-1.7zm-1.82-1.2a1.86 1.86 0 0 0 1.58-.88v-1.4h-.9c-.61 0-1.08.11-1.39.33-.3.21-.46.52-.46.9 0 .33.1.58.32.77.2.19.5.28.85.28zm6.52-6.2.05.86c.54-.66 1.26-1 2.15-1 1.54 0 2.32.89 2.35 2.65V29h-1.66v-4.8c0-.46-.1-.8-.3-1.03-.2-.23-.54-.34-1-.34-.67 0-1.17.3-1.5.9V29h-1.66v-7.4h1.57zm5.93 3.65c0-1.14.27-2.06.8-2.75a2.54 2.54 0 0 1 2.12-1.03c.79 0 1.42.27 1.9.82V18.5h1.66V29h-1.5l-.08-.77c-.5.6-1.16.9-2 .9-.86 0-1.56-.34-2.1-1.04-.53-.7-.8-1.64-.8-2.84zm1.66.14c0 .75.15 1.34.44 1.76.29.42.7.63 1.23.63.68 0 1.18-.3 1.5-.9v-3.16c-.31-.6-.8-.9-1.48-.9-.54 0-.96.22-1.25.65a3.4 3.4 0 0 0-.44 1.92zm11.93-.09V29h-1.73v-9.95H87c1.11 0 2 .29 2.65.86.65.58.98 1.35.98 2.3 0 .98-.32 1.74-.96 2.28-.64.54-1.54.81-2.69.81h-2.06zm0-1.39H87c.62 0 1.09-.14 1.4-.43.33-.29.5-.7.5-1.25 0-.54-.17-.97-.5-1.3a1.9 1.9 0 0 0-1.35-.49H84.9v3.47zM96.31 29a2.6 2.6 0 0 1-.19-.69 2.59 2.59 0 0 1-1.94.83c-.74 0-1.35-.22-1.82-.64a2.03 2.03 0 0 1-.7-1.57c0-.79.3-1.4.88-1.82a4.25 4.25 0 0 1 2.51-.63h1.02V24c0-.39-.1-.7-.32-.92-.22-.23-.54-.35-.98-.35-.38 0-.69.1-.93.29a.88.88 0 0 0-.36.72h-1.66c0-.4.13-.79.4-1.14a2.68 2.68 0 0 1 1.1-.83c.46-.2.98-.3 1.54-.3.87 0 1.56.21 2.08.65.51.43.78 1.05.79 1.83v3.34c0 .67.1 1.2.28 1.6V29h-1.7zm-1.82-1.2c.33 0 .64-.08.93-.24.28-.16.5-.37.65-.64v-1.4h-.9c-.61 0-1.07.11-1.38.33-.32.21-.47.52-.47.9 0 .33.1.58.32.77.21.19.5.28.85.28zm4.69-2.55c0-1.15.27-2.07.8-2.75a2.6 2.6 0 0 1 2.16-1.03c.84 0 1.5.3 1.99.88l.07-.75h1.5v7.17a3 3 0 0 1-.9 2.3c-.6.56-1.42.84-2.45.84a3.94 3.94 0 0 1-1.59-.34 2.82 2.82 0 0 1-1.18-.88l.79-1c.5.6 1.14.91 1.88.91.56 0 1-.15 1.31-.45.32-.3.48-.74.48-1.31v-.5c-.48.53-1.12.8-1.92.8A2.6 2.6 0 0 1 100 28.1a4.46 4.46 0 0 1-.82-2.85zm1.65.14c0 .74.15 1.33.46 1.75.3.43.72.64 1.26.64a1.6 1.6 0 0 0 1.49-.86v-3.25c-.32-.56-.8-.84-1.48-.84-.54 0-.97.21-1.27.65-.3.43-.46 1.07-.46 1.91zm9.83 3.75c-1.05 0-1.9-.34-2.56-1a3.6 3.6 0 0 1-.98-2.65v-.2c0-.74.14-1.4.43-1.98a3.25 3.25 0 0 1 1.2-1.36 3.17 3.17 0 0 1 1.72-.48c1 0 1.79.32 2.34.96.55.64.82 1.55.82 2.73v.67h-4.83c.05.6.25 1.1.6 1.45.37.35.82.53 1.36.53.76 0 1.38-.3 1.86-.92l.9.85a2.99 2.99 0 0 1-1.2 1.03 3.71 3.71 0 0 1-1.66.37zm-.2-6.34c-.45 0-.82.16-1.1.48a2.5 2.5 0 0 0-.54 1.33H112v-.12a2 2 0 0 0-.45-1.26 1.39 1.39 0 0 0-1.08-.43zm8.6 4.19a.75.75 0 0 0-.36-.68 3.9 3.9 0 0 0-1.22-.4 6.3 6.3 0 0 1-1.41-.46c-.83-.4-1.24-.98-1.24-1.74 0-.64.26-1.17.8-1.6a3.19 3.19 0 0 1 2.05-.64c.89 0 1.6.22 2.15.65.54.44.81 1 .81 1.7h-1.66c0-.31-.12-.58-.35-.8a1.36 1.36 0 0 0-.95-.3c-.36 0-.66.07-.89.24a.8.8 0 0 0-.34.68c0 .26.1.45.32.6.21.14.64.28 1.3.42.65.15 1.16.32 1.53.51.37.2.65.44.83.72.18.28.27.61.27 1.01 0 .67-.28 1.2-.83 1.62-.55.41-1.27.62-2.17.62-.6 0-1.14-.11-1.62-.33a2.67 2.67 0 0 1-1.1-.9 2.14 2.14 0 0 1-.4-1.24h1.61c.03.4.17.7.45.9.27.22.63.32 1.08.32.44 0 .77-.08 1-.25a.77.77 0 0 0 .34-.65zM63.75 85.74h-4.93v4.03h5.73V91h-7.23V79.62h7.15v1.24h-5.65v3.66h4.93v1.22zm3.8-3.2.05 1.07a3.08 3.08 0 0 1 2.53-1.22c1.79 0 2.69 1 2.7 3.02V91H71.4v-5.6c0-.6-.14-1.05-.42-1.34-.27-.3-.7-.44-1.28-.44-.46 0-.88.12-1.23.37s-.63.58-.83.99V91H66.2v-8.45h1.36zM80.25 91a3.01 3.01 0 0 1-.2-.89 3.23 3.23 0 0 1-2.42 1.05 3 3 0 0 1-2.05-.71 2.28 2.28 0 0 1-.8-1.8c0-.87.34-1.56 1-2.04a4.73 4.73 0 0 1 2.83-.73H80v-.67c0-.5-.14-.9-.44-1.2-.3-.3-.75-.46-1.34-.46-.52 0-.95.13-1.3.4-.35.26-.52.57-.52.94h-1.45a2 2 0 0 1 .45-1.22c.3-.4.7-.7 1.21-.94a4.1 4.1 0 0 1 1.7-.34c.97 0 1.73.24 2.28.73s.84 1.16.86 2.01v3.9c0 .77.1 1.39.3 1.85V91h-1.52zm-2.4-1.1a2.54 2.54 0 0 0 1.28-.35c.41-.24.7-.54.89-.92V86.9h-1.14c-1.77 0-2.65.52-2.65 1.55 0 .46.15.81.45 1.07.3.25.7.38 1.17.38zm13.03-3.03c0 1.29-.3 2.33-.89 3.11a2.85 2.85 0 0 1-2.39 1.18 2.93 2.93 0 0 1-2.47-1.14l-.07.98h-1.33V79h1.44v4.48a2.93 2.93 0 0 1 2.42-1.09c1.02 0 1.83.39 2.42 1.17.58.77.87 1.83.87 3.18v.13zm-1.44-.17a3.9 3.9 0 0 0-.57-2.28c-.38-.54-.93-.8-1.64-.8-.95 0-1.64.44-2.06 1.32v3.66c.45.89 1.14 1.33 2.07 1.33.7 0 1.24-.27 1.62-.8.39-.54.58-1.35.58-2.43zm4.84 4.3h-1.45V79h1.45v12zm3.88 0H96.7v-8.45h1.45V91zM96.6 80.3c0-.23.07-.43.21-.59.14-.16.36-.24.64-.24s.5.08.64.24c.14.16.22.36.22.6 0 .23-.08.43-.22.58-.15.16-.36.24-.64.24s-.5-.08-.64-.24a.83.83 0 0 1-.21-.58zm5.24 2.25.05 1.06a3.08 3.08 0 0 1 2.53-1.22c1.78 0 2.68 1 2.7 3.02V91h-1.45v-5.6c0-.6-.14-1.05-.41-1.34-.28-.3-.7-.44-1.28-.44-.47 0-.88.12-1.24.37-.35.25-.63.58-.82.99V91h-1.45v-8.45h1.37zm7.12 4.15c0-1.31.3-2.36.9-3.14a2.92 2.92 0 0 1 2.43-1.17 2.9 2.9 0 0 1 2.42 1.1l.07-.94h1.32v8.25c0 1.1-.33 1.95-.98 2.58-.64.63-1.52.95-2.61.95-.61 0-1.2-.13-1.79-.4a3.09 3.09 0 0 1-1.33-1.06l.75-.87a2.83 2.83 0 0 0 2.27 1.15c.7 0 1.25-.2 1.64-.6.4-.4.6-.95.6-1.67v-.72c-.58.66-1.37 1-2.37 1s-1.8-.4-2.4-1.2a5.22 5.22 0 0 1-.93-3.26zm1.45.17c0 .95.2 1.7.58 2.24.4.55.94.82 1.65.82.9 0 1.58-.41 2-1.24v-3.86a2.14 2.14 0 0 0-1.99-1.21c-.7 0-1.25.27-1.65.82-.4.54-.6 1.35-.6 2.43zM131.2 91h-1.51l-5.73-8.77V91h-1.5V79.62h1.5l5.74 8.81v-8.8h1.5V91zm5.94.16a3.7 3.7 0 0 1-2.8-1.13 4.19 4.19 0 0 1-1.07-3.02v-.27c0-.84.16-1.58.48-2.24a3.75 3.75 0 0 1 1.34-1.55 3.38 3.38 0 0 1 1.87-.56c1.1 0 1.95.36 2.56 1.09.61.72.92 1.76.92 3.1v.6h-5.73a3 3 0 0 0 .73 2.03 2.3 2.3 0 0 0 1.78.77c.5 0 .94-.1 1.3-.32.35-.2.66-.48.93-.82l.88.68a3.55 3.55 0 0 1-3.19 1.64zm-.18-7.58c-.58 0-1.07.21-1.47.64a3.1 3.1 0 0 0-.73 1.78h4.23v-.11a2.75 2.75 0 0 0-.6-1.7 1.77 1.77 0 0 0-1.43-.61zm7.11-3.08v2.05h1.58v1.11h-1.58v5.25c0 .34.07.59.21.76.14.17.38.25.72.25a3.5 3.5 0 0 0 .69-.1V91a4.19 4.19 0 0 1-1.11.16c-.65 0-1.14-.2-1.46-.59a2.5 2.5 0 0 1-.5-1.66v-5.25h-1.54v-1.11h1.54V80.5h1.45zm10.75 8.5 1.63-6.45h1.44L155.43 91h-1.17l-2.06-6.4-2 6.4h-1.17l-2.45-8.45h1.44l1.66 6.33 1.97-6.33h1.16l2.01 6.46zm4.16-2.3c0-.83.16-1.58.49-2.24a3.63 3.63 0 0 1 3.34-2.07c1.15 0 2.09.4 2.8 1.2a4.6 4.6 0 0 1 1.06 3.18v.1c0 .82-.16 1.56-.47 2.21a3.59 3.59 0 0 1-1.35 1.53 3.8 3.8 0 0 1-2.02.55c-1.15 0-2.08-.4-2.79-1.2a4.58 4.58 0 0 1-1.06-3.16v-.1zm1.45.17c0 .93.22 1.69.65 2.25.44.57 1.02.86 1.75.86s1.32-.3 1.75-.87c.43-.57.65-1.38.65-2.42 0-.92-.22-1.67-.66-2.25a2.1 2.1 0 0 0-1.76-.86c-.71 0-1.29.28-1.72.85a3.92 3.92 0 0 0-.66 2.44zm12.14-3.03a4.33 4.33 0 0 0-.71-.05c-.95 0-1.6.4-1.93 1.21v6h-1.45v-8.45h1.41l.02.97a2.25 2.25 0 0 1 2.02-1.13c.28 0 .5.04.64.11v1.34zm3.69 3.25-.9.94V91h-1.45V79h1.44v7.26l.77-.93 2.64-2.78h1.76l-3.3 3.53L180.9 91h-1.7l-2.94-3.91zm11.44 2.68h5.4V91h-6.9V79.62h1.5v10.15zm8.45 1.23h-1.45v-8.45h1.45V91zm-1.56-10.7c0-.23.07-.43.21-.59.14-.16.36-.24.64-.24s.5.08.64.24c.14.16.22.36.22.6 0 .23-.08.43-.22.58-.15.16-.36.24-.64.24s-.5-.08-.64-.24a.83.83 0 0 1-.21-.58zm5.24 2.25.04 1.06a3.08 3.08 0 0 1 2.54-1.22c1.78 0 2.68 1 2.7 3.02V91h-1.45v-5.6c0-.6-.14-1.05-.41-1.34-.28-.3-.7-.44-1.28-.44-.47 0-.88.12-1.24.37-.35.25-.63.58-.82.99V91h-1.45v-8.45h1.37zm9.82 4.54-.9.94V91h-1.45V79h1.44v7.26l.78-.93 2.63-2.78h1.76l-3.3 3.53L214.3 91h-1.7l-2.94-3.91zm18.3.3a4.18 4.18 0 0 1-1.33 2.79c-.75.65-1.74.98-2.98.98a4 4 0 0 1-3.23-1.45 5.82 5.82 0 0 1-1.21-3.87v-1.09c0-1.06.19-1.99.56-2.79a4.23 4.23 0 0 1 4.01-2.5c1.21 0 2.18.35 2.91 1.02s1.15 1.6 1.27 2.8h-1.5a3.31 3.31 0 0 0-.85-1.97c-.44-.4-1.05-.6-1.83-.6-.96 0-1.7.35-2.25 1.06a4.8 4.8 0 0 0-.82 3.02v1.1a5 5 0 0 0 .78 2.95 2.5 2.5 0 0 0 2.16 1.09 2.9 2.9 0 0 0 1.92-.57c.44-.37.74-1.03.88-1.97h1.51zm1.44-.7c0-.82.16-1.57.49-2.23a3.63 3.63 0 0 1 3.35-2.07c1.15 0 2.08.4 2.79 1.2a4.6 4.6 0 0 1 1.07 3.18v.1c0 .82-.16 1.56-.48 2.21a3.59 3.59 0 0 1-1.35 1.53c-.58.36-1.26.55-2.02.55-1.14 0-2.07-.4-2.78-1.2a4.58 4.58 0 0 1-1.07-3.16v-.1zm1.45.18c0 .94.22 1.69.66 2.26.43.56 1.01.85 1.74.85.74 0 1.32-.3 1.75-.87.43-.57.65-1.38.65-2.41 0-.93-.22-1.68-.66-2.26a2.1 2.1 0 0 0-1.75-.86c-.72 0-1.3.28-1.73.85a3.92 3.92 0 0 0-.66 2.44zm9.43-4.32.04 1.06a3.08 3.08 0 0 1 2.53-1.22c1.79 0 2.7 1 2.7 3.02V91h-1.44v-5.6c0-.6-.14-1.05-.42-1.34-.27-.3-.7-.44-1.27-.44-.47 0-.88.12-1.24.37s-.63.58-.83.99V91h-1.44v-8.45h1.37zm7.1 4.15c0-1.3.31-2.34.93-3.13a2.92 2.92 0 0 1 2.41-1.18c1 0 1.77.34 2.35 1.02V79h1.45v12h-1.33l-.07-.9a2.95 2.95 0 0 1-2.42 1.06 2.9 2.9 0 0 1-2.39-1.2 5 5 0 0 1-.93-3.15v-.1zm1.45.17c0 .96.2 1.7.6 2.25.39.54.94.81 1.63.81a2.1 2.1 0 0 0 2.01-1.23v-3.9c-.43-.8-1.1-1.2-1.99-1.2-.7 0-1.26.28-1.66.83-.4.54-.59 1.35-.59 2.43zm9.5 4.13h-1.45v-8.45h1.45V91zm-1.56-10.7c0-.23.07-.43.21-.59.15-.16.36-.24.64-.24s.5.08.64.24c.15.16.22.36.22.6a.8.8 0 0 1-.22.58c-.15.16-.36.24-.64.24s-.5-.08-.64-.24a.83.83 0 0 1-.21-.58zm5.83.2v2.05h1.58v1.11h-1.58v5.25c0 .34.07.59.21.76.14.17.38.25.72.25a3.5 3.5 0 0 0 .7-.1V91a4.19 4.19 0 0 1-1.12.16c-.64 0-1.13-.2-1.46-.59a2.5 2.5 0 0 1-.5-1.66v-5.25h-1.53v-1.11h1.54V80.5h1.44zm4.84 10.5h-1.45v-8.45h1.45V91zm-1.56-10.7c0-.23.07-.43.21-.59.15-.16.36-.24.64-.24s.5.08.64.24c.14.16.22.36.22.6a.8.8 0 0 1-.22.58c-.15.16-.36.24-.64.24s-.5-.08-.64-.24a.83.83 0 0 1-.21-.58zm3.49 6.4c0-.83.16-1.58.49-2.24a3.63 3.63 0 0 1 3.34-2.07c1.16 0 2.09.4 2.8 1.2a4.6 4.6 0 0 1 1.06 3.18v.1c0 .82-.15 1.56-.47 2.21a3.59 3.59 0 0 1-1.35 1.53c-.58.36-1.26.55-2.02.55-1.14 0-2.07-.4-2.78-1.2a4.58 4.58 0 0 1-1.07-3.16v-.1zm1.45.17c0 .93.22 1.69.66 2.25.43.57 1.01.86 1.74.86.74 0 1.32-.3 1.75-.87.43-.57.65-1.38.65-2.42 0-.92-.22-1.67-.66-2.25a2.1 2.1 0 0 0-1.75-.86c-.72 0-1.3.28-1.73.85a3.92 3.92 0 0 0-.66 2.44zm9.42-4.32.05 1.06a3.08 3.08 0 0 1 2.53-1.22c1.79 0 2.69 1 2.7 3.02V91h-1.44v-5.6c0-.6-.14-1.05-.42-1.34-.27-.3-.7-.44-1.27-.44-.47 0-.88.12-1.24.37a2.6 2.6 0 0 0-.83.99V91h-1.44v-8.45h1.36zm7.53 7.7a.9.9 0 0 1 .22-.63c.15-.17.37-.25.67-.25.3 0 .52.08.67.25.16.16.23.37.23.62a.8.8 0 0 1-.23.6c-.15.16-.37.25-.67.25-.3 0-.52-.08-.67-.25a.85.85 0 0 1-.22-.6zm3.41 0a.9.9 0 0 1 .23-.63c.14-.17.37-.25.66-.25.3 0 .53.08.68.25.15.16.23.37.23.62 0 .24-.08.44-.23.6-.15.16-.38.25-.68.25-.3 0-.52-.08-.66-.25a.85.85 0 0 1-.23-.6zm3.24 0a.9.9 0 0 1 .23-.63c.15-.17.37-.25.67-.25.3 0 .52.08.67.25.15.16.23.37.23.62 0 .24-.08.44-.23.6a.89.89 0 0 1-.67.25c-.3 0-.52-.08-.67-.25a.85.85 0 0 1-.23-.6z"/></g></svg>