<svg xmlns="http://www.w3.org/2000/svg" width="360" height="592">
  <g id="screenshot-activity-body" fill="none" fill-rule="evenodd" stroke="none" stroke-width="1">
    <path id="Background/Gray-0" fill="#F6F6F6" d="M0 0h360v592H0z"/>
    <path id="Labels/Gray-500" fill="#636D75" d="M21.325 99.047h1.32v7.048c0 .952-.286 1.697-.858 2.235-.572.538-1.335.807-2.287.807-.989 0-1.76-.253-2.31-.76-.552-.505-.828-1.214-.828-2.125h1.313c0 .57.156 1.014.468 1.333.312.319.765.478 1.357.478.542 0 .981-.17 1.316-.512.335-.342.505-.82.51-1.436v-7.068zM29.248 109c-.073-.146-.132-.406-.178-.78-.588.611-1.29.917-2.105.917-.73 0-1.327-.206-1.795-.619a2.002 2.002 0 0 1-.7-1.569c0-.77.293-1.368.878-1.794.586-.426 1.41-.64 2.471-.64h1.23v-.58c0-.442-.131-.795-.396-1.057-.264-.262-.654-.393-1.169-.393-.45 0-.83.114-1.134.342-.306.228-.458.504-.458.827H24.62c0-.369.131-.725.393-1.07a2.683 2.683 0 0 1 1.067-.816c.448-.2.942-.301 1.48-.301.852 0 1.52.213 2.003.639.483.426.733 1.013.751 1.76v3.405c0 .679.087 1.219.26 1.62V109h-1.326zm-2.099-.964a2.22 2.22 0 0 0 1.128-.307 1.86 1.86 0 0 0 .773-.8v-1.518h-.991c-1.55 0-2.325.454-2.325 1.36 0 .397.133.707.397.93.264.223.604.335 1.018.335zm6.344-6.432l.041.93c.565-.712 1.304-1.067 2.215-1.067 1.563 0 2.352.882 2.365 2.645V109H36.85v-4.895c-.005-.533-.127-.927-.366-1.182-.24-.255-.612-.383-1.118-.383-.41 0-.77.11-1.08.328-.31.219-.551.506-.724.861V109h-1.265v-7.396h1.196zm11.095 6.665c-.492.578-1.215.868-2.167.868-.789 0-1.389-.23-1.801-.687-.413-.458-.621-1.136-.626-2.034v-4.812h1.265v4.778c0 1.12.456 1.681 1.367 1.681.966 0 1.609-.36 1.928-1.08v-5.38h1.264V109h-1.203l-.027-.731zm7.718.731c-.073-.146-.132-.406-.178-.78-.588.611-1.29.917-2.106.917-.729 0-1.327-.206-1.794-.619a2.002 2.002 0 0 1-.7-1.569c0-.77.292-1.368.878-1.794.585-.426 1.41-.64 2.471-.64h1.23v-.58c0-.442-.132-.795-.396-1.057-.264-.262-.654-.393-1.169-.393-.451 0-.83.114-1.135.342-.305.228-.458.504-.458.827h-1.271c0-.369.13-.725.393-1.07a2.683 2.683 0 0 1 1.066-.816c.45-.2.942-.301 1.48-.301.852 0 1.52.213 2.003.639.483.426.734 1.013.752 1.76v3.405c0 .679.087 1.219.26 1.62V109h-1.326zm-2.099-.964c.397 0 .772-.102 1.128-.307a1.86 1.86 0 0 0 .772-.8v-1.518h-.99c-1.55 0-2.325.454-2.325 1.36 0 .397.132.707.396.93.265.223.604.335 1.019.335zm8.723-5.298a3.79 3.79 0 0 0-.622-.048c-.83 0-1.393.354-1.689 1.06V109h-1.265v-7.396h1.231l.02.854c.415-.66 1.003-.991 1.764-.991.246 0 .433.032.56.096v1.175zm3.705 4.41l1.722-5.544h1.354l-2.974 8.538c-.46 1.23-1.191 1.845-2.194 1.845l-.24-.02-.471-.09v-1.024l.342.027c.428 0 .762-.087 1.001-.26.24-.173.437-.49.592-.95l.28-.752-2.639-7.314h1.381l1.846 5.543zm9.379-3.74h.95c.597-.009 1.066-.166 1.408-.471.342-.306.513-.718.513-1.238 0-1.166-.581-1.75-1.743-1.75-.547 0-.984.156-1.31.468-.325.313-.488.726-.488 1.241h-1.265c0-.788.288-1.443.865-1.965.576-.522 1.309-.783 2.198-.783.938 0 1.674.249 2.208.745.533.497.8 1.187.8 2.072 0 .433-.14.852-.421 1.257a2.54 2.54 0 0 1-1.145.91c.547.173.97.46 1.268.86.299.402.448.892.448 1.47 0 .894-.292 1.602-.875 2.127-.584.524-1.342.786-2.277.786-.934 0-1.694-.253-2.28-.76-.585-.505-.878-1.173-.878-2.002h1.272c0 .524.17.943.512 1.258.342.314.8.471 1.374.471.611 0 1.078-.159 1.402-.478.323-.319.485-.777.485-1.374 0-.579-.178-1.023-.533-1.333-.356-.31-.868-.47-1.538-.479h-.95v-1.032zm12.263 1.347c0 1.481-.253 2.582-.758 3.302-.506.72-1.297 1.08-2.373 1.08-1.061 0-1.847-.352-2.358-1.056-.51-.705-.775-1.756-.793-3.155v-1.689c0-1.463.253-2.55.759-3.26.506-.711 1.299-1.067 2.379-1.067 1.07 0 1.86.343 2.365 1.029.506.686.766 1.744.78 3.175v1.64zm-1.264-1.73c0-1.07-.15-1.851-.451-2.34-.301-.49-.777-.736-1.43-.736-.646 0-1.118.244-1.414.732-.296.487-.45 1.237-.458 2.249v2.023c0 1.076.156 1.87.468 2.382.312.513.785.77 1.418.77.625 0 1.089-.242 1.392-.725.303-.483.461-1.244.475-2.283v-2.072zm2.973 7.957l-.717-.492c.428-.597.651-1.212.67-1.845v-1.142h1.237v.991c0 .46-.113.92-.339 1.381-.225.46-.509.83-.85 1.107zM98.633 109H92.11v-.91l3.446-3.827c.51-.58.862-1.05 1.056-1.412.193-.362.29-.737.29-1.124 0-.52-.157-.946-.471-1.279-.315-.332-.734-.499-1.258-.499-.63 0-1.118.18-1.466.537-.35.358-.523.855-.523 1.493H91.92c0-.916.295-1.656.885-2.221.59-.565 1.38-.848 2.369-.848.925 0 1.656.243 2.194.728.538.486.807 1.132.807 1.938 0 .98-.625 2.147-1.873 3.5l-2.666 2.892h4.997V109zm7.58-4.245c0 1.481-.252 2.582-.758 3.302-.506.72-1.296 1.08-2.372 1.08-1.062 0-1.848-.352-2.358-1.056-.51-.705-.775-1.756-.793-3.155v-1.689c0-1.463.253-2.55.758-3.26.506-.711 1.3-1.067 2.38-1.067 1.07 0 1.859.343 2.365 1.029.505.686.765 1.744.779 3.175v1.64zm-1.264-1.73c0-1.07-.15-1.851-.451-2.34-.3-.49-.777-.736-1.429-.736-.647 0-1.118.244-1.415.732-.296.487-.449 1.237-.458 2.249v2.023c0 1.076.156 1.87.469 2.382.312.513.785.77 1.418.77.624 0 1.088-.242 1.391-.725.303-.483.462-1.244.475-2.283v-2.072zM111.99 109h-1.271v-8.429l-2.55.937v-1.149l3.623-1.36h.198V109zm9.741-7.355c0 .496-.13.938-.393 1.326-.262.387-.616.69-1.063.909.52.223.931.549 1.234.977.303.429.455.914.455 1.456 0 .862-.29 1.548-.872 2.058-.58.51-1.345.766-2.293.766-.957 0-1.724-.257-2.3-.77-.577-.512-.865-1.197-.865-2.054 0-.537.147-1.023.44-1.456.295-.433.701-.76 1.22-.984a2.608 2.608 0 0 1-1.045-.91 2.344 2.344 0 0 1-.383-1.318c0-.839.27-1.504.807-1.997.538-.492 1.246-.738 2.126-.738.875 0 1.582.246 2.122.738.54.493.81 1.158.81 1.997zm-1.032 4.641c0-.556-.176-1.01-.53-1.36-.353-.351-.814-.527-1.384-.527s-1.026.174-1.37.52c-.345.346-.517.802-.517 1.367s.168 1.01.503 1.333c.335.324.8.485 1.398.485.592 0 1.057-.162 1.394-.488.338-.326.506-.77.506-1.33zm-1.9-6.337c-.497 0-.9.154-1.207.462-.307.307-.461.725-.461 1.254 0 .506.151.915.454 1.227.304.312.708.468 1.214.468s.91-.156 1.213-.468c.303-.312.455-.721.455-1.227 0-.506-.157-.918-.472-1.237-.314-.32-.713-.479-1.196-.479zM21.325 218.047h1.32v7.048c0 .952-.286 1.697-.858 2.235-.572.538-1.335.807-2.287.807-.989 0-1.76-.253-2.31-.76-.552-.505-.828-1.214-.828-2.125h1.313c0 .57.156 1.014.468 1.333.312.319.765.478 1.357.478.542 0 .981-.17 1.316-.512.335-.342.505-.82.51-1.436v-7.068zM29.248 228c-.073-.146-.132-.406-.178-.78-.588.611-1.29.917-2.105.917-.73 0-1.327-.206-1.795-.619a2.002 2.002 0 0 1-.7-1.569c0-.77.293-1.368.878-1.794.586-.426 1.41-.64 2.471-.64h1.23v-.58c0-.442-.131-.795-.396-1.057-.264-.262-.654-.393-1.169-.393-.45 0-.83.114-1.134.342-.306.228-.458.504-.458.827H24.62c0-.369.131-.725.393-1.07a2.683 2.683 0 0 1 1.067-.816c.448-.2.942-.301 1.48-.301.852 0 1.52.213 2.003.639.483.426.733 1.013.751 1.76v3.405c0 .679.087 1.219.26 1.62V228h-1.326zm-2.099-.964a2.22 2.22 0 0 0 1.128-.307 1.86 1.86 0 0 0 .773-.8v-1.518h-.991c-1.55 0-2.325.454-2.325 1.36 0 .397.133.707.397.93.264.223.604.335 1.018.335zm6.344-6.432l.041.93c.565-.712 1.304-1.067 2.215-1.067 1.563 0 2.352.882 2.365 2.645V228H36.85v-4.895c-.005-.533-.127-.927-.366-1.182-.24-.255-.612-.383-1.118-.383-.41 0-.77.11-1.08.328-.31.219-.551.506-.724.861V228h-1.265v-7.396h1.196zm11.095 6.665c-.492.578-1.215.868-2.167.868-.789 0-1.389-.23-1.801-.687-.413-.458-.621-1.136-.626-2.034v-4.812h1.265v4.778c0 1.12.456 1.681 1.367 1.681.966 0 1.609-.36 1.928-1.08v-5.38h1.264V228h-1.203l-.027-.731zm7.718.731c-.073-.146-.132-.406-.178-.78-.588.611-1.29.917-2.106.917-.729 0-1.327-.206-1.794-.619a2.002 2.002 0 0 1-.7-1.569c0-.77.292-1.368.878-1.794.585-.426 1.41-.64 2.471-.64h1.23v-.58c0-.442-.132-.795-.396-1.057-.264-.262-.654-.393-1.169-.393-.451 0-.83.114-1.135.342-.305.228-.458.504-.458.827h-1.271c0-.369.13-.725.393-1.07a2.683 2.683 0 0 1 1.066-.816c.45-.2.942-.301 1.48-.301.852 0 1.52.213 2.003.639.483.426.734 1.013.752 1.76v3.405c0 .679.087 1.219.26 1.62V228h-1.326zm-2.099-.964c.397 0 .772-.102 1.128-.307a1.86 1.86 0 0 0 .772-.8v-1.518h-.99c-1.55 0-2.325.454-2.325 1.36 0 .397.132.707.396.93.265.223.604.335 1.019.335zm8.723-5.298a3.79 3.79 0 0 0-.622-.048c-.83 0-1.393.354-1.689 1.06V228h-1.265v-7.396h1.231l.02.854c.415-.66 1.003-.991 1.764-.991.246 0 .433.032.56.095v1.176zm3.705 4.41l1.722-5.544h1.354l-2.974 8.538c-.46 1.23-1.191 1.845-2.194 1.845l-.24-.02-.471-.09v-1.024l.342.027c.428 0 .762-.087 1.001-.26.24-.173.437-.49.592-.95l.28-.752-2.639-7.314h1.381l1.846 5.543zm13.576-5.503c0 .496-.131.938-.393 1.326-.262.387-.617.69-1.063.909.52.223.93.549 1.234.977.303.429.454.914.454 1.456 0 .862-.29 1.548-.871 2.058-.581.51-1.346.766-2.294.766-.957 0-1.723-.257-2.3-.77-.576-.512-.865-1.197-.865-2.054 0-.537.147-1.023.441-1.456.294-.433.7-.76 1.22-.984a2.608 2.608 0 0 1-1.045-.91 2.344 2.344 0 0 1-.383-1.318c0-.839.269-1.504.806-1.997.538-.492 1.247-.738 2.126-.738.875 0 1.583.246 2.123.738.54.493.81 1.158.81 1.997zm-1.032 4.641c0-.556-.177-1.01-.53-1.36-.353-.351-.815-.527-1.384-.527-.57 0-1.027.174-1.371.52-.344.346-.516.802-.516 1.367s.167 1.01.502 1.333c.335.324.801.485 1.398.485.593 0 1.058-.162 1.395-.488.337-.326.506-.77.506-1.33zm-1.9-6.337c-.497 0-.9.154-1.207.462-.308.307-.462.725-.462 1.254 0 .506.152.915.455 1.227.303.312.707.468 1.213.468.506 0 .91-.156 1.214-.468.303-.312.454-.721.454-1.227 0-.506-.157-.918-.471-1.237-.315-.32-.714-.479-1.197-.479zm4.846 11.033l-.718-.492c.429-.597.652-1.212.67-1.845v-1.142h1.237v.991c0 .46-.112.92-.338 1.381-.226.46-.51.83-.851 1.107zM90.771 228H84.25v-.91l3.445-3.827c.51-.58.863-1.05 1.056-1.412.194-.362.291-.737.291-1.124 0-.52-.157-.946-.472-1.279-.314-.332-.733-.499-1.257-.499-.63 0-1.118.18-1.467.537-.348.358-.523.855-.523 1.493H84.06c0-.916.295-1.656.885-2.221.59-.565 1.38-.848 2.368-.848.926 0 1.657.243 2.195.728.538.486.806 1.132.806 1.938 0 .98-.624 2.147-1.873 3.5l-2.666 2.892h4.997V228zm7.582-4.245c0 1.481-.253 2.582-.76 3.302-.505.72-1.296 1.08-2.371 1.08-1.062 0-1.848-.352-2.359-1.056-.51-.705-.774-1.756-.793-3.155v-1.689c0-1.463.253-2.55.76-3.26.505-.711 1.298-1.067 2.378-1.067 1.071 0 1.86.343 2.365 1.029.506.686.766 1.744.78 3.175v1.64zm-1.265-1.73c0-1.07-.15-1.851-.451-2.34-.301-.49-.777-.736-1.429-.736-.647 0-1.119.244-1.415.732-.296.487-.449 1.237-.458 2.249v2.023c0 1.076.156 1.87.468 2.382.312.513.785.77 1.419.77.624 0 1.088-.242 1.39-.725.304-.483.462-1.244.476-2.283v-2.072zm7.04 5.975h-1.27v-8.429l-2.55.937v-1.149l3.623-1.36h.198V228zm9.742-7.355c0 .496-.13.938-.393 1.326-.262.387-.616.69-1.063.909.52.223.93.549 1.234.977.303.429.455.914.455 1.456 0 .862-.291 1.548-.872 2.058-.581.51-1.346.766-2.293.766-.958 0-1.724-.257-2.3-.77-.577-.512-.866-1.197-.866-2.054 0-.537.147-1.023.441-1.456a2.75 2.75 0 0 1 1.22-.984 2.608 2.608 0 0 1-1.045-.91 2.344 2.344 0 0 1-.383-1.318c0-.839.269-1.504.807-1.997.537-.492 1.246-.738 2.126-.738.875 0 1.582.246 2.122.738.54.493.81 1.158.81 1.997zm-1.032 4.641c0-.556-.177-1.01-.53-1.36-.353-.351-.815-.527-1.384-.527-.57 0-1.027.174-1.37.52-.345.346-.517.802-.517 1.367s.168 1.01.503 1.333c.335.324.8.485 1.397.485.593 0 1.058-.162 1.395-.488.337-.326.506-.77.506-1.33zm-1.9-6.337c-.497 0-.9.154-1.207.462-.308.307-.461.725-.461 1.254 0 .506.151.915.454 1.227.303.312.708.468 1.213.468.506 0 .91-.156 1.214-.468.303-.312.454-.721.454-1.227 0-.506-.157-.918-.471-1.237-.315-.32-.713-.479-1.197-.479zM21.325 406.047h1.32v7.048c0 .952-.286 1.697-.858 2.235-.572.538-1.335.807-2.287.807-.989 0-1.76-.253-2.31-.76-.552-.505-.828-1.214-.828-2.125h1.313c0 .57.156 1.014.468 1.333.312.319.765.478 1.357.478.542 0 .981-.17 1.316-.512.335-.342.505-.82.51-1.436v-7.068zM29.248 416c-.073-.146-.132-.406-.178-.78-.588.611-1.29.917-2.105.917-.73 0-1.327-.206-1.795-.619a2.002 2.002 0 0 1-.7-1.569c0-.77.293-1.368.878-1.794.586-.426 1.41-.64 2.471-.64h1.23v-.58c0-.442-.131-.795-.396-1.057-.264-.262-.654-.393-1.169-.393-.45 0-.83.114-1.134.342-.306.228-.458.504-.458.827H24.62c0-.369.131-.725.393-1.07a2.683 2.683 0 0 1 1.067-.816c.448-.2.942-.301 1.48-.301.852 0 1.52.213 2.003.639.483.426.733 1.013.751 1.76v3.405c0 .679.087 1.219.26 1.62V416h-1.326zm-2.099-.964a2.22 2.22 0 0 0 1.128-.307 1.86 1.86 0 0 0 .773-.8v-1.518h-.991c-1.55 0-2.325.454-2.325 1.36 0 .397.133.707.397.93.264.223.604.335 1.018.335zm6.344-6.432l.041.93c.565-.712 1.304-1.067 2.215-1.067 1.563 0 2.352.882 2.365 2.645V416H36.85v-4.895c-.005-.533-.127-.927-.366-1.182-.24-.255-.612-.383-1.118-.383-.41 0-.77.11-1.08.328-.31.219-.551.506-.724.861V416h-1.265v-7.396h1.196zm11.095 6.665c-.492.578-1.215.868-2.167.868-.789 0-1.389-.23-1.801-.687-.413-.458-.621-1.136-.626-2.034v-4.812h1.265v4.778c0 1.12.456 1.681 1.367 1.681.966 0 1.609-.36 1.928-1.08v-5.38h1.264V416h-1.203l-.027-.731zm7.718.731c-.073-.146-.132-.406-.178-.78-.588.611-1.29.917-2.106.917-.729 0-1.327-.206-1.794-.619a2.002 2.002 0 0 1-.7-1.569c0-.77.292-1.368.878-1.794.585-.426 1.41-.64 2.471-.64h1.23v-.58c0-.442-.132-.795-.396-1.057-.264-.262-.654-.393-1.169-.393-.451 0-.83.114-1.135.342-.305.228-.458.504-.458.827h-1.271c0-.369.13-.725.393-1.07a2.683 2.683 0 0 1 1.066-.816c.45-.2.942-.301 1.48-.301.852 0 1.52.213 2.003.639.483.426.734 1.013.752 1.76v3.405c0 .679.087 1.219.26 1.62V416h-1.326zm-2.099-.964c.397 0 .772-.102 1.128-.307a1.86 1.86 0 0 0 .772-.8v-1.518h-.99c-1.55 0-2.325.454-2.325 1.36 0 .397.132.707.396.93.265.223.604.335 1.019.335zm8.723-5.298a3.79 3.79 0 0 0-.622-.048c-.83 0-1.393.354-1.689 1.06V416h-1.265v-7.396h1.231l.02.854c.415-.66 1.003-.991 1.764-.991.246 0 .433.032.56.096v1.175zm3.705 4.41l1.722-5.544h1.354l-2.974 8.538c-.46 1.23-1.191 1.845-2.194 1.845l-.24-.02-.471-.09v-1.024l.342.027c.428 0 .762-.087 1.001-.26.24-.173.437-.49.592-.95l.28-.752-2.639-7.314h1.381l1.846 5.543zm12.503-8.108v1.073h-.233c-.984.019-1.768.31-2.351.875-.584.565-.92 1.36-1.012 2.386.524-.602 1.24-.902 2.146-.902.866 0 1.558.305 2.075.916.517.61.776 1.399.776 2.365 0 1.025-.28 1.846-.837 2.46-.559.616-1.307.924-2.246.924-.952 0-1.725-.366-2.317-1.097-.593-.732-.889-1.674-.889-2.827v-.485c0-1.833.39-3.233 1.172-4.201.782-.969 1.945-1.464 3.49-1.487h.226zm-1.661 4.484c-.433 0-.832.13-1.197.39a2.03 2.03 0 0 0-.759.978v.464c0 .82.185 1.482.554 1.983.37.501.83.752 1.381.752.57 0 1.017-.21 1.343-.63.326-.418.49-.968.49-1.647 0-.683-.166-1.236-.497-1.657-.33-.422-.769-.633-1.315-.633zm4.648 7.458l-.718-.492c.429-.597.652-1.212.67-1.845v-1.142h1.237v.991c0 .46-.112.92-.338 1.381-.226.46-.51.83-.851 1.107zM90.771 416H84.25v-.91l3.445-3.827c.51-.58.863-1.05 1.056-1.412.194-.362.291-.737.291-1.124 0-.52-.157-.946-.472-1.279-.314-.332-.733-.499-1.257-.499-.63 0-1.118.18-1.467.537-.348.358-.523.855-.523 1.493H84.06c0-.916.295-1.656.885-2.221.59-.565 1.38-.848 2.368-.848.926 0 1.657.243 2.195.728.538.486.806 1.132.806 1.938 0 .98-.624 2.147-1.873 3.5l-2.666 2.892h4.997V416zm7.582-4.245c0 1.481-.253 2.582-.76 3.302-.505.72-1.296 1.08-2.371 1.08-1.062 0-1.848-.352-2.359-1.056-.51-.705-.774-1.756-.793-3.155v-1.689c0-1.463.253-2.55.76-3.26.505-.711 1.298-1.067 2.378-1.067 1.071 0 1.86.343 2.365 1.029.506.686.766 1.744.78 3.175v1.64zm-1.265-1.73c0-1.07-.15-1.851-.451-2.34-.301-.49-.777-.736-1.429-.736-.647 0-1.119.244-1.415.732-.296.487-.449 1.237-.458 2.249v2.023c0 1.076.156 1.87.468 2.382.312.513.785.77 1.419.77.624 0 1.088-.242 1.39-.725.304-.483.462-1.244.476-2.283v-2.072zm7.04 5.975h-1.27v-8.429l-2.55.937v-1.149l3.623-1.36h.198V416zm9.742-7.355c0 .496-.13.938-.393 1.326-.262.387-.616.69-1.063.909.52.223.93.549 1.234.977.303.429.455.914.455 1.456 0 .862-.291 1.548-.872 2.058-.581.51-1.346.766-2.293.766-.958 0-1.724-.257-2.3-.77-.577-.512-.866-1.197-.866-2.054 0-.537.147-1.023.441-1.456a2.75 2.75 0 0 1 1.22-.984 2.608 2.608 0 0 1-1.045-.91 2.344 2.344 0 0 1-.383-1.318c0-.839.269-1.504.807-1.997.537-.492 1.246-.738 2.126-.738.875 0 1.582.246 2.122.738.54.493.81 1.158.81 1.997zm-1.032 4.641c0-.556-.177-1.01-.53-1.36-.353-.351-.815-.527-1.384-.527-.57 0-1.027.174-1.37.52-.345.346-.517.802-.517 1.367s.168 1.01.503 1.333c.335.324.8.485 1.397.485.593 0 1.058-.162 1.395-.488.337-.326.506-.77.506-1.33zm-1.9-6.337c-.497 0-.9.154-1.207.462-.308.307-.461.725-.461 1.254 0 .506.151.915.454 1.227.303.312.708.468 1.213.468.506 0 .91-.156 1.214-.468.303-.312.454-.721.454-1.227 0-.506-.157-.918-.471-1.237-.315-.32-.713-.479-1.197-.479z"/>
  </g>
</svg>
