<svg xmlns="http://www.w3.org/2000/svg" width="360" height="80"><g fill="none" fill-rule="evenodd"><path fill="#016087" d="M0 0h360v80H0z"/><path fill="#FFF" d="m20.65 44.78 4.1 10.9 4.1-10.9h3.18V59h-2.46v-4.69l.25-6.27L25.62 59h-1.77l-4.19-10.95.25 6.26V59h-2.46V44.78h3.2zM38.42 55.6l2.15-7.17h2.53L38.9 60.6c-.64 1.78-1.74 2.67-3.28 2.67a4.25 4.25 0 0 1-1.14-.18v-1.83l.45.03c.6 0 1.05-.11 1.35-.33.3-.22.54-.59.72-1.1l.34-.9-3.71-10.53h2.56l2.23 7.17zm18.68-.26c0-.63-.22-1.1-.66-1.45a7.95 7.95 0 0 0-2.37-1.02 11.5 11.5 0 0 1-2.74-1.16c-1.3-.8-1.94-1.87-1.94-3.18 0-1.15.47-2.09 1.4-2.83a5.67 5.67 0 0 1 3.64-1.11c.99 0 1.87.18 2.64.54.78.37 1.39.89 1.83 1.56a4 4 0 0 1 .66 2.24H57.1c0-.74-.23-1.32-.7-1.74-.46-.42-1.12-.63-2-.63-.8 0-1.43.17-1.87.52a1.7 1.7 0 0 0-.67 1.44c0 .52.24.96.72 1.3.48.35 1.28.7 2.39 1.02 1.1.33 1.99.7 2.66 1.12.67.42 1.16.9 1.48 1.45.3.54.47 1.18.47 1.9 0 1.2-.46 2.14-1.37 2.84a5.9 5.9 0 0 1-3.7 1.05c-1.02 0-1.97-.2-2.83-.58a4.76 4.76 0 0 1-2.01-1.57 3.93 3.93 0 0 1-.72-2.35h2.47c0 .81.27 1.43.8 1.88.53.44 1.3.66 2.3.66.85 0 1.5-.17 1.93-.52.44-.35.65-.81.65-1.38zM64.04 59h-2.38V48.43h2.38V59zm-2.52-13.31c0-.36.11-.67.34-.9.24-.25.57-.37 1-.37.43 0 .76.12 1 .36.23.24.34.54.34.9 0 .37-.11.67-.35.9-.23.24-.56.36-1 .36a1.3 1.3 0 0 1-.98-.36 1.23 1.23 0 0 1-.35-.9zm8.07.17v2.57h1.87v1.76h-1.87v5.9c0 .4.08.7.24.87.16.18.45.27.86.27.27 0 .55-.03.83-.1v1.84c-.54.15-1.06.22-1.56.22-1.83 0-2.74-1-2.74-3.01v-5.99h-1.74v-1.76h1.74v-2.57h2.37zm8.33 13.33a4.9 4.9 0 0 1-3.65-1.42 5.16 5.16 0 0 1-1.4-3.78v-.3c0-1.05.2-1.99.6-2.82.41-.83.98-1.48 1.72-1.94a4.53 4.53 0 0 1 2.46-.7c1.44 0 2.55.47 3.33 1.38.79.92 1.18 2.22 1.18 3.9v.96h-6.9c.07.87.36 1.56.87 2.07.51.5 1.16.76 1.93.76 1.09 0 1.97-.44 2.66-1.32L82 57.2a4.27 4.27 0 0 1-1.7 1.47c-.7.35-1.5.52-2.38.52zm-.28-9.05a2 2 0 0 0-1.58.69c-.4.45-.65 1.09-.76 1.9h4.52v-.18a2.83 2.83 0 0 0-.64-1.8c-.37-.4-.88-.6-1.54-.6zm21.26-3.37h-4.43V59h-2.45V46.77h-4.4v-1.99H98.9v2zM103.06 59h-2.37V48.43h2.37V59zm-2.52-13.31c0-.36.12-.67.35-.9.23-.25.56-.37.99-.37.43 0 .76.12 1 .36.23.24.35.54.35.9 0 .37-.12.67-.36.9-.23.24-.56.36-1 .36a1.3 1.3 0 0 1-.98-.36 1.23 1.23 0 0 1-.35-.9zm8.08.17v2.57h1.86v1.76h-1.86v5.9c0 .4.08.7.24.87.16.18.44.27.85.27.27 0 .55-.03.83-.1v1.84c-.54.15-1.06.22-1.56.22-1.82 0-2.74-1-2.74-3.01v-5.99h-1.73v-1.76h1.73v-2.57h2.38zm6.2 13.14h-2.37V44h2.37v15zm7.24.2c-1.5 0-2.73-.48-3.66-1.43A5.16 5.16 0 0 1 117 54v-.3c0-1.05.2-1.99.6-2.82.41-.83.98-1.48 1.72-1.94a4.53 4.53 0 0 1 2.46-.7 4.2 4.2 0 0 1 3.34 1.38c.78.92 1.17 2.22 1.17 3.9v.96h-6.9c.07.87.36 1.56.87 2.07.51.5 1.16.76 1.93.76 1.09 0 1.97-.44 2.66-1.32l1.28 1.22a4.27 4.27 0 0 1-1.7 1.47c-.7.35-1.5.52-2.38.52zm-.29-9.06a2 2 0 0 0-1.58.69c-.4.45-.65 1.09-.76 1.9h4.52v-.17c-.05-.8-.26-1.4-.64-1.8a1.97 1.97 0 0 0-1.54-.62zM321.7 17h-1.65V9l-2.44.84v-1.4l3.88-1.43h.21V17zm10.15 0h-6.69v-1.14l3.32-3.62c.48-.53.82-.98 1.02-1.33.2-.36.3-.72.3-1.08 0-.47-.13-.86-.4-1.15-.26-.3-.62-.44-1.07-.44-.54 0-.96.17-1.25.5-.3.32-.45.77-.45 1.34h-1.66c0-.6.14-1.15.41-1.64.28-.48.67-.86 1.19-1.13.51-.27 1.1-.4 1.77-.4.97 0 1.73.24 2.29.73.56.48.83 1.15.83 2.01 0 .5-.14 1.02-.42 1.56a8.85 8.85 0 0 1-1.37 1.86l-2.44 2.6h4.62V17zm2.38-1.75c.3 0 .55.09.71.26a.91.91 0 0 1 .26.66.88.88 0 0 1-.26.65.97.97 0 0 1-.71.25.97.97 0 0 1-.7-.25.87.87 0 0 1-.27-.65c0-.26.09-.48.26-.66.16-.17.4-.26.7-.26zm0-5.8c.3 0 .55.08.71.26a.91.91 0 0 1 .26.66.88.88 0 0 1-.26.65c-.16.17-.4.25-.71.25a.97.97 0 0 1-.7-.25.87.87 0 0 1-.27-.65c0-.26.09-.48.26-.66.16-.18.4-.26.7-.26zm4.52 1.82h1.01c.51-.01.92-.14 1.22-.4.3-.26.44-.64.44-1.13 0-.47-.12-.84-.37-1.1-.25-.27-.63-.4-1.14-.4-.44 0-.8.13-1.1.39-.28.26-.43.6-.43 1h-1.66c0-.5.14-.97.4-1.39.28-.42.66-.74 1.14-.98a3.7 3.7 0 0 1 1.63-.35c1 0 1.78.25 2.34.75.57.5.85 1.2.85 2.08 0 .45-.14.87-.42 1.26a2.68 2.68 0 0 1-1.1.9c.54.18.96.47 1.24.87.29.4.43.88.43 1.44 0 .9-.3 1.6-.92 2.13-.61.53-1.42.8-2.42.8-.95 0-1.74-.26-2.35-.77a2.52 2.52 0 0 1-.91-2.04h1.66c0 .44.14.8.44 1.07s.69.41 1.18.41c.52 0 .92-.14 1.22-.41.3-.27.45-.67.45-1.19 0-.52-.16-.93-.47-1.2-.31-.3-.77-.43-1.38-.43h-.98v-1.32zm12.52 1.54c0 1.43-.26 2.51-.8 3.24-.53.72-1.35 1.09-2.44 1.09-1.08 0-1.89-.36-2.43-1.07a5.2 5.2 0 0 1-.84-3.14V11.2c0-1.43.27-2.5.8-3.22.54-.71 1.36-1.07 2.45-1.07 1.1 0 1.9.35 2.44 1.05.54.7.81 1.74.82 3.13v1.72zm-1.66-1.86a4.2 4.2 0 0 0-.38-2.05c-.25-.44-.66-.66-1.22-.66-.54 0-.94.2-1.2.62a3.89 3.89 0 0 0-.4 1.93v2.26c0 .93.13 1.62.4 2.08.25.45.66.68 1.22.68.53 0 .93-.21 1.18-.63.26-.42.4-1.08.4-1.98v-2.25zM277 19l14-14v14h-14zm29-13.13h3V19h-9V5.87h3V5h3v.88zm-49.02 2.15A14.93 14.93 0 0 1 266 5c3.39 0 6.51 1.12 9.02 3.02L266 19l-9.02-10.98z"/></g></svg>