<svg xmlns="http://www.w3.org/2000/svg" width="360" height="80">
  <g id="screenshot-my-sites-top" fill="none" fill-rule="evenodd" stroke="none" stroke-width="1">
    <path id="Background/Blue-500" fill="#016087" d="M0 0h360v80H0z"/>
    <path id="Labels/White" fill="#FFF" d="M20.648 44.781L24.75 55.68l4.092-10.899h3.193V59h-2.46v-4.688l.243-6.269L25.62 59h-1.767l-4.19-10.947.244 6.26V59h-2.46V44.781h3.202zm17.774 10.82l2.148-7.167h2.53l-4.2 12.168c-.644 1.777-1.738 2.666-3.28 2.666a4.25 4.25 0 0 1-1.143-.176v-1.836l.449.03c.599 0 1.05-.11 1.352-.328.303-.218.542-.584.718-1.099l.342-.908-3.711-10.517h2.559l2.236 7.168zm18.682-.263c0-.625-.22-1.107-.66-1.445-.44-.339-1.232-.68-2.378-1.026-1.145-.345-2.057-.729-2.734-1.152-1.296-.814-1.943-1.875-1.943-3.184 0-1.146.467-2.09 1.401-2.832.934-.742 2.147-1.113 3.638-1.113.99 0 1.871.182 2.646.547.775.364 1.384.884 1.826 1.557.443.674.664 1.421.664 2.242h-2.46c0-.743-.233-1.324-.699-1.744-.465-.42-1.13-.63-1.997-.63-.807 0-1.434.173-1.88.518-.446.345-.669.827-.669 1.445 0 .521.241.956.723 1.304.482.349 1.276.687 2.383 1.016 1.107.329 1.995.703 2.666 1.123.67.42 1.162.902 1.474 1.445.313.544.47 1.18.47 1.91 0 1.184-.455 2.127-1.363 2.827-.908.7-2.14 1.05-3.696 1.05-1.029 0-1.975-.191-2.837-.572-.863-.38-1.533-.907-2.012-1.577-.479-.67-.718-1.452-.718-2.344h2.47c0 .807.268 1.432.802 1.875.534.443 1.299.664 2.295.664.859 0 1.505-.174 1.938-.522.433-.349.65-.81.65-1.382zM64.037 59h-2.373V48.434h2.373V59zm-2.52-13.31c0-.365.116-.668.347-.909.231-.24.562-.361.991-.361.43 0 .762.12.997.361.234.241.351.544.351.908 0 .359-.117.656-.351.894-.235.238-.567.356-.997.356-.43 0-.76-.118-.99-.356a1.23 1.23 0 0 1-.347-.894zm8.077.175v2.569h1.865v1.757h-1.865v5.899c0 .403.08.695.239.874.16.179.444.268.855.268.273 0 .55-.032.83-.097v1.836c-.54.15-1.062.224-1.563.224-1.823 0-2.734-1.006-2.734-3.017V50.19h-1.739v-1.757h1.739v-2.569h2.373zm8.33 13.33c-1.504 0-2.723-.473-3.657-1.42-.935-.948-1.402-2.21-1.402-3.785v-.293c0-1.054.204-1.997.61-2.827.407-.83.979-1.476 1.714-1.938a4.531 4.531 0 0 1 2.461-.694c1.44 0 2.55.46 3.335 1.377.785.918 1.177 2.217 1.177 3.897v.957h-6.904c.071.872.363 1.562.874 2.07.51.508 1.154.762 1.929.762 1.087 0 1.972-.44 2.656-1.319l1.28 1.221a4.272 4.272 0 0 1-1.695 1.47c-.707.348-1.5.522-2.378.522zm-.283-9.052c-.651 0-1.177.227-1.578.683-.4.456-.655 1.09-.766 1.904h4.521v-.175c-.052-.795-.263-1.395-.634-1.802-.372-.407-.886-.61-1.543-.61zm21.26-3.37h-4.434V59h-2.451V46.773H87.62v-1.992H98.9v1.992zM103.06 59h-2.374V48.434h2.374V59zm-2.52-13.31c0-.365.116-.668.347-.909.23-.24.561-.361.99-.361.43 0 .763.12.997.361.234.241.352.544.352.908 0 .359-.118.656-.352.894-.234.238-.566.356-.996.356-.43 0-.76-.118-.991-.356a1.23 1.23 0 0 1-.347-.894zm8.076.175v2.569h1.865v1.757h-1.865v5.899c0 .403.08.695.24.874.159.179.444.268.854.268.273 0 .55-.032.83-.097v1.836c-.54.15-1.061.224-1.562.224-1.823 0-2.735-1.006-2.735-3.017V50.19h-1.738v-1.757h1.738v-2.569h2.373zM114.818 59h-2.373V44h2.373v15zm7.237.195c-1.504 0-2.723-.473-3.658-1.42-.934-.948-1.4-2.21-1.4-3.785v-.293c0-1.054.203-1.997.61-2.827.406-.83.978-1.476 1.713-1.938a4.531 4.531 0 0 1 2.461-.694c1.44 0 2.55.46 3.335 1.377.785.918 1.177 2.217 1.177 3.897v.957h-6.904c.071.872.363 1.562.874 2.07.51.508 1.154.762 1.928.762 1.088 0 1.973-.44 2.657-1.319l1.279 1.221a4.272 4.272 0 0 1-1.694 1.47c-.707.348-1.5.522-2.378.522zm-.284-9.052c-.65 0-1.176.227-1.577.683-.4.456-.656 1.09-.766 1.904h4.521v-.175c-.052-.795-.263-1.395-.635-1.802-.37-.407-.885-.61-1.543-.61zM321.703 17h-1.654V9.009l-2.44.834V8.44l3.882-1.428h.212V17zm10.151 0h-6.692v-1.142l3.316-3.616c.478-.533.819-.978 1.022-1.336.202-.358.304-.717.304-1.077 0-.474-.134-.857-.4-1.148-.267-.292-.626-.438-1.077-.438-.538 0-.955.164-1.25.492-.297.328-.445.777-.445 1.347h-1.661c0-.606.138-1.152.413-1.637.276-.486.67-.863 1.183-1.132.513-.268 1.104-.403 1.774-.403.966 0 1.728.243 2.286.728.559.486.838 1.157.838 2.013 0 .497-.14 1.018-.42 1.562-.28.545-.74 1.164-1.378 1.856l-2.434 2.605h4.621V17zm2.373-1.75c.31 0 .549.088.717.263a.914.914 0 0 1 .253.66.88.88 0 0 1-.253.646c-.168.17-.408.256-.717.256-.297 0-.531-.084-.705-.253a.867.867 0 0 1-.26-.65c0-.263.085-.483.254-.659.168-.175.405-.263.71-.263zm0-5.804c.31 0 .549.088.717.263a.914.914 0 0 1 .253.66.88.88 0 0 1-.253.646c-.168.171-.408.256-.717.256-.297 0-.531-.084-.705-.252a.867.867 0 0 1-.26-.65c0-.264.085-.484.254-.66.168-.175.405-.263.71-.263zm4.525 1.819h1.012c.51-.005.915-.137 1.213-.397.299-.26.448-.636.448-1.128 0-.474-.124-.842-.373-1.104-.248-.262-.628-.393-1.138-.393-.447 0-.813.129-1.1.386-.288.258-.431.594-.431 1.009h-1.661c0-.51.135-.976.406-1.395.272-.42.65-.746 1.135-.98a3.696 3.696 0 0 1 1.63-.353c.994 0 1.774.25 2.342.749.567.499.85 1.193.85 2.081 0 .447-.141.867-.426 1.261a2.68 2.68 0 0 1-1.104.893c.547.186.962.48 1.247.881.285.401.427.88.427 1.436 0 .893-.306 1.604-.919 2.133-.613.528-1.418.793-2.416.793-.957 0-1.741-.255-2.352-.766-.61-.51-.916-1.19-.916-2.037h1.661c0 .437.147.793.441 1.066.294.274.69.41 1.186.41.515 0 .92-.136 1.217-.41.296-.273.444-.67.444-1.19 0-.523-.155-.926-.465-1.209-.31-.283-.77-.424-1.38-.424h-.978v-1.312zm12.523 1.545c0 1.43-.267 2.51-.803 3.236-.535.727-1.35 1.09-2.444 1.09-1.075 0-1.885-.354-2.43-1.062-.544-.709-.824-1.758-.837-3.148v-1.723c0-1.43.267-2.504.803-3.22.535-.715 1.352-1.073 2.45-1.073 1.09 0 1.902.349 2.438 1.046.535.697.81 1.74.823 3.13v1.724zm-1.66-1.86c0-.934-.128-1.619-.384-2.054-.255-.435-.66-.653-1.216-.653-.543 0-.941.206-1.197.619-.255.412-.39 1.056-.403 1.931v2.256c0 .93.13 1.622.39 2.078.26.456.667.684 1.223.684.534 0 .928-.211 1.183-.633.255-.421.39-1.081.403-1.979V10.95zM277 19l14-14v14h-14zm29-13.125h3V19h-9V5.875h3V5h3v.875zm-49.023 2.14A14.934 14.934 0 0 1 266 5c3.387 0 6.512 1.123 9.023 3.016L266 19l-9.023-10.984z"/>
  </g>
</svg>
