<svg xmlns="http://www.w3.org/2000/svg" width="360" height="144">
  <g id="screenshot-activity-container-3" fill="none" fill-rule="evenodd" stroke="none" stroke-width="1">
    <path id="Separator/Gray-50" fill="#E1E2E2" d="M0 71h360v1H0z"/>
    <path id="Icon/Hot-Red-500" fill="#EB0001" d="M36 128c-11.046 0-20-8.954-20-20s8.954-20 20-20 20 8.954 20 20-8.954 20-20 20zm0-28.421c4.642 0 8.421 3.779 8.421 8.421 0 4.642-3.779 8.421-8.421 8.421-4.642 0-8.421-3.779-8.421-8.421 0-4.642 3.779-8.421 8.421-8.421zm0-2.105c-5.814 0-10.526 4.712-10.526 10.526S30.186 118.526 36 118.526 46.526 113.814 46.526 108 41.814 97.474 36 97.474zm1.053 13.684h-2.106v2.105h2.106v-2.105zm-2.106-2.105h2.106l.526-6.316H34.42l.526 6.316z"/>
    <path id="Icon/Hot-Green-500" fill="#008A00" d="M36 56c-11.046 0-20-8.954-20-20s8.954-20 20-20 20 8.954 20 20-8.954 20-20 20zm4.21-24.21v-5.264a1.053 1.053 0 0 0-2.105 0v5.263h-4.21v-5.263a1.053 1.053 0 0 0-2.106 0v5.263h-3.157V36a7.362 7.362 0 0 0 4.21 6.65v3.876h6.316V42.65a7.362 7.362 0 0 0 4.21-6.65v-4.21h-3.157z"/>
    <path id="Text/Gray-900" fill="#1A1A1A" d="M78.086 19.625h1.508v8.055c0 1.088-.327 1.94-.98 2.554-.654.615-1.525.922-2.614.922-1.13 0-2.01-.289-2.64-.867-.63-.578-.946-1.388-.946-2.43h1.5c0 .651.178 1.16.535 1.524.357.364.874.547 1.551.547.62 0 1.121-.196 1.504-.586.383-.39.577-.938.582-1.64v-8.079zm7.344 11.531c-1.146 0-2.078-.376-2.797-1.129-.719-.752-1.078-1.759-1.078-3.02v-.265c0-.838.16-1.587.48-2.246a3.748 3.748 0 0 1 1.344-1.547 3.378 3.378 0 0 1 1.871-.558c1.099 0 1.953.362 2.563 1.086.609.724.914 1.76.914 3.109v.602H83c.02.833.264 1.506.73 2.019.467.513 1.06.77 1.778.77.51 0 .943-.105 1.297-.313.354-.208.664-.484.93-.828l.882.687c-.708 1.089-1.77 1.633-3.187 1.633zm-.18-7.578c-.583 0-1.073.212-1.469.637-.396.424-.64 1.02-.734 1.785h4.234v-.11c-.041-.734-.24-1.303-.594-1.706-.354-.404-.833-.606-1.437-.606zm7.11-3.078v2.047h1.578v1.117h-1.579v5.242c0 .339.07.593.211.762.14.17.38.254.72.254a3.5 3.5 0 0 0 .687-.094V31a4.19 4.19 0 0 1-1.11.156c-.646 0-1.133-.195-1.46-.586-.329-.39-.493-.945-.493-1.664v-5.242h-1.539v-1.117h1.54V20.5h1.444zm10.406 6.367c0 1.287-.295 2.323-.883 3.11-.589.786-1.386 1.18-2.39 1.18-1.027 0-1.834-.326-2.423-.977v4.07h-1.445V22.547h1.32l.07.937c.59-.729 1.407-1.093 2.454-1.093 1.015 0 1.819.382 2.41 1.148.591.766.887 1.83.887 3.195v.133zm-1.446-.164c0-.953-.203-1.706-.61-2.258-.405-.552-.963-.828-1.67-.828-.876 0-1.532.388-1.97 1.164v4.04c.433.77 1.094 1.156 1.985 1.156.692 0 1.243-.275 1.652-.825.409-.55.613-1.366.613-2.449zm8.5 4.297c-.083-.167-.15-.464-.203-.89-.672.697-1.474 1.046-2.406 1.046-.833 0-1.517-.235-2.05-.707-.535-.471-.802-1.069-.802-1.793 0-.88.335-1.564 1.004-2.05.67-.488 1.611-.731 2.825-.731h1.406v-.664c0-.505-.151-.908-.453-1.207-.302-.3-.748-.45-1.336-.45-.516 0-.948.13-1.297.391-.35.26-.524.576-.524.946h-1.453c0-.422.15-.83.45-1.223.299-.393.705-.704 1.218-.934a4.1 4.1 0 0 1 1.692-.343c.974 0 1.737.243 2.289.73s.838 1.158.86 2.012v3.89c0 .776.098 1.394.296 1.852V31h-1.516zm-2.398-1.102a2.54 2.54 0 0 0 1.289-.351c.406-.235.7-.54.883-.914v-1.735h-1.133c-1.77 0-2.656.519-2.656 1.555 0 .453.15.807.453 1.063.302.255.69.382 1.164.382zm9.273.079c.516 0 .966-.157 1.352-.47.385-.312.599-.702.64-1.171h1.368a2.62 2.62 0 0 1-.5 1.383 3.293 3.293 0 0 1-1.23 1.047 3.55 3.55 0 0 1-1.63.39c-1.15 0-2.066-.384-2.746-1.152-.68-.768-1.02-1.82-1.02-3.152v-.243c0-.823.152-1.554.454-2.195a3.451 3.451 0 0 1 1.3-1.492c.566-.354 1.234-.531 2.004-.531.948 0 1.736.283 2.364.851.627.568.962 1.305 1.004 2.211h-1.368c-.041-.547-.248-.996-.62-1.348-.373-.351-.833-.527-1.38-.527-.734 0-1.303.264-1.707.793-.403.529-.605 1.293-.605 2.293v.273c0 .974.2 1.724.602 2.25.4.527.974.79 1.718.79zm7.344-2.891l-.906.945V31h-1.445V19h1.445v7.258l.773-.93 2.633-2.781h1.758l-3.29 3.531L128.68 31h-1.696l-2.945-3.914zm16.867-.219c0 1.292-.297 2.33-.89 3.113-.594.784-1.391 1.176-2.391 1.176-1.068 0-1.893-.377-2.477-1.133l-.07.977h-1.328V19h1.445v4.477c.584-.724 1.388-1.086 2.414-1.086 1.026 0 1.832.388 2.418 1.164.586.776.88 1.838.88 3.187v.125zm-1.445-.164c0-.984-.19-1.745-.57-2.281-.38-.537-.927-.805-1.641-.805-.953 0-1.638.443-2.055 1.328v3.657c.443.885 1.133 1.328 2.07 1.328.693 0 1.232-.269 1.618-.805.385-.536.578-1.344.578-2.422zm5.945 2.18l1.969-6.336h1.547l-3.399 9.758c-.526 1.406-1.362 2.11-2.507 2.11l-.274-.024-.539-.102v-1.172l.39.031c.49 0 .872-.099 1.145-.296.274-.198.499-.56.676-1.086l.32-.86-3.015-8.36h1.578l2.11 6.337zm11.446-1.469l.218 1.5.32-1.352 2.25-7.937h1.266l2.196 7.938.312 1.375.242-1.532 1.766-7.781h1.508L164.172 31h-1.367l-2.344-8.29-.18-.866-.18.867-2.43 8.289h-1.366l-2.75-11.375h1.5l1.797 7.79zm10.89-.719c0-.828.163-1.573.488-2.234.326-.662.78-1.172 1.36-1.531.58-.36 1.243-.54 1.988-.54 1.151 0 2.082.4 2.793 1.196.711.797 1.066 1.857 1.066 3.18v.101c0 .823-.157 1.561-.472 2.215a3.589 3.589 0 0 1-1.352 1.527c-.586.365-1.259.547-2.02.547-1.145 0-2.073-.398-2.784-1.195-.711-.797-1.067-1.852-1.067-3.164v-.102zm1.453.172c0 .938.218 1.69.653 2.258.435.568 1.017.852 1.746.852.734 0 1.317-.288 1.75-.864.432-.575.648-1.381.648-2.418 0-.927-.22-1.678-.66-2.254-.44-.575-1.025-.863-1.754-.863-.713 0-1.289.284-1.726.852-.438.567-.657 1.38-.657 2.437zm12.14-3.023a4.331 4.331 0 0 0-.71-.055c-.948 0-1.591.404-1.93 1.211v6h-1.445v-8.453h1.406l.024.976c.474-.755 1.146-1.132 2.015-1.132.282 0 .495.036.64.109v1.344zm.83 2.86c0-1.298.306-2.34.92-3.13.616-.789 1.42-1.183 2.415-1.183.99 0 1.773.338 2.352 1.015V19h1.445v12h-1.328l-.07-.906c-.579.708-1.383 1.062-2.415 1.062-.979 0-1.777-.4-2.394-1.203-.617-.802-.926-1.849-.926-3.14v-.11zm1.444.163c0 .959.198 1.709.594 2.25.396.542.943.813 1.64.813.917 0 1.587-.412 2.009-1.235v-3.883c-.433-.796-1.097-1.195-1.993-1.195-.708 0-1.26.274-1.656.82-.396.547-.594 1.357-.594 2.43zm9.657-.32V31h-1.5V19.625h4.195c1.245 0 2.22.318 2.926.953.705.636 1.058 1.477 1.058 2.524 0 1.104-.345 1.954-1.035 2.55-.69.597-1.678.895-2.965.895h-2.68zm0-1.227h2.695c.802 0 1.417-.188 1.844-.566.427-.378.64-.923.64-1.637 0-.677-.213-1.219-.64-1.625-.427-.406-1.013-.617-1.758-.633h-2.781v4.461zm12.453-1.476a4.331 4.331 0 0 0-.711-.055c-.948 0-1.591.404-1.93 1.211v6h-1.445v-8.453h1.406l.024.976c.473-.755 1.145-1.132 2.015-1.132.281 0 .495.036.64.109v1.344zm4.687 7.312c-1.146 0-2.078-.376-2.797-1.129-.718-.752-1.078-1.759-1.078-3.02v-.265c0-.838.16-1.587.48-2.246a3.748 3.748 0 0 1 1.344-1.547 3.378 3.378 0 0 1 1.872-.558c1.099 0 1.953.362 2.562 1.086.61.724.914 1.76.914 3.109v.602h-5.726c.02.833.264 1.506.73 2.019.466.513 1.059.77 1.777.77.51 0 .943-.105 1.297-.313.354-.208.664-.484.93-.828l.883.687c-.709 1.089-1.771 1.633-3.188 1.633zm-.18-7.578c-.583 0-1.072.212-1.468.637-.396.424-.64 1.02-.735 1.785h4.235v-.11c-.042-.734-.24-1.303-.594-1.706-.354-.404-.833-.606-1.437-.606zm10.07 5.18c0-.39-.146-.694-.44-.91-.295-.216-.808-.403-1.54-.559-.731-.156-1.312-.344-1.742-.562-.43-.22-.747-.48-.953-.782-.206-.302-.309-.661-.309-1.078 0-.693.293-1.278.88-1.758.585-.479 1.334-.718 2.245-.718.959 0 1.736.247 2.333.742.596.495.894 1.127.894 1.898h-1.453c0-.396-.168-.737-.504-1.023-.336-.287-.76-.43-1.27-.43-.526 0-.937.115-1.234.344a1.081 1.081 0 0 0-.445.898c0 .35.138.612.414.79.276.176.775.346 1.496.507.721.162 1.306.354 1.754.578.448.224.78.494.996.809.216.315.324.7.324 1.152 0 .755-.302 1.36-.906 1.817-.604.455-1.388.683-2.352.683-.677 0-1.276-.12-1.797-.36a2.922 2.922 0 0 1-1.222-1.003 2.42 2.42 0 0 1-.442-1.395h1.446c.026.485.22.869.582 1.153.362.284.84.426 1.433.426.547 0 .986-.111 1.317-.332.33-.222.496-.517.496-.887zm8.25 0c0-.39-.146-.694-.44-.91-.295-.216-.808-.403-1.54-.559-.731-.156-1.312-.344-1.742-.562-.43-.22-.747-.48-.953-.782-.206-.302-.309-.661-.309-1.078 0-.693.293-1.278.88-1.758.585-.479 1.334-.718 2.245-.718.959 0 1.736.247 2.333.742.596.495.894 1.127.894 1.898h-1.453c0-.396-.168-.737-.504-1.023-.336-.287-.76-.43-1.27-.43-.526 0-.937.115-1.234.344a1.081 1.081 0 0 0-.445.898c0 .35.138.612.414.79.276.176.775.346 1.496.507.721.162 1.306.354 1.754.578.448.224.78.494.996.809.216.315.324.7.324 1.152 0 .755-.302 1.36-.906 1.817-.604.455-1.388.683-2.352.683-.677 0-1.276-.12-1.797-.36a2.922 2.922 0 0 1-1.222-1.003 2.42 2.42 0 0 1-.442-1.395h1.446c.026.485.22.869.582 1.153.362.284.84.426 1.433.426.547 0 .986-.111 1.317-.332.33-.222.496-.517.496-.887zm3.36 1.484c0-.25.074-.458.223-.625.148-.166.371-.25.668-.25.297 0 .522.084.676.25a.89.89 0 0 1 .23.625c0 .24-.077.44-.23.602-.154.161-.38.242-.676.242-.297 0-.52-.08-.668-.242a.855.855 0 0 1-.223-.602zm7.57-.265a2.08 2.08 0 0 0 1.352-.47c.386-.312.6-.702.64-1.171h1.368a2.62 2.62 0 0 1-.5 1.383 3.293 3.293 0 0 1-1.23 1.047 3.55 3.55 0 0 1-1.63.39c-1.15 0-2.066-.384-2.746-1.152-.68-.768-1.02-1.82-1.02-3.152v-.243c0-.823.152-1.554.454-2.195a3.451 3.451 0 0 1 1.3-1.492c.566-.354 1.234-.531 2.005-.531.948 0 1.735.283 2.363.851.628.568.962 1.305 1.004 2.211h-1.367c-.042-.547-.249-.996-.621-1.348-.373-.351-.832-.527-1.38-.527-.734 0-1.303.264-1.706.793-.404.529-.606 1.293-.606 2.293v.273c0 .974.2 1.724.602 2.25.4.527.974.79 1.719.79zm4.602-3.282c0-.828.163-1.573.488-2.234.326-.662.779-1.172 1.36-1.531.58-.36 1.243-.54 1.988-.54 1.151 0 2.082.4 2.793 1.196.711.797 1.066 1.857 1.066 3.18v.101c0 .823-.157 1.561-.472 2.215a3.589 3.589 0 0 1-1.352 1.527c-.586.365-1.259.547-2.02.547-1.145 0-2.074-.398-2.784-1.195-.711-.797-1.067-1.852-1.067-3.164v-.102zm1.453.172c0 .938.218 1.69.653 2.258.434.568 1.017.852 1.746.852.734 0 1.317-.288 1.75-.864.432-.575.648-1.381.648-2.418 0-.927-.22-1.678-.66-2.254-.44-.575-1.025-.863-1.754-.863-.713 0-1.289.284-1.726.852-.438.567-.657 1.38-.657 2.437zm9.414-4.32l.04.937c.62-.729 1.455-1.093 2.507-1.093 1.182 0 1.987.453 2.414 1.359a3.202 3.202 0 0 1 1.098-.984c.45-.25.983-.375 1.598-.375 1.854 0 2.796.981 2.828 2.945V31h-1.446v-5.578c0-.604-.138-1.056-.414-1.356-.276-.3-.74-.449-1.39-.449-.537 0-.982.16-1.336.48-.354.321-.56.752-.617 1.294V31h-1.454v-5.54c0-1.228-.601-1.843-1.804-1.843-.948 0-1.597.404-1.946 1.211V31h-1.445v-8.453h1.367zm23.133 5.484h-4.765L272.243 31h-1.548l4.344-11.375h1.313L280.703 31h-1.539l-1.086-2.969zm-4.312-1.234h3.867l-1.938-5.32-1.93 5.32zm13.375 3.367c-.563.662-1.388.992-2.477.992-.901 0-1.587-.261-2.059-.785-.47-.523-.71-1.298-.714-2.324v-5.5h1.445v5.46c0 1.282.52 1.923 1.562 1.923 1.105 0 1.839-.412 2.204-1.235v-6.148h1.445V31h-1.375l-.031-.836zm5.562-9.664v2.047h1.578v1.117h-1.578v5.242c0 .339.07.593.211.762.14.17.38.254.719.254a3.5 3.5 0 0 0 .687-.094V31a4.19 4.19 0 0 1-1.11.156c-.645 0-1.132-.195-1.46-.586-.328-.39-.492-.945-.492-1.664v-5.242h-1.54v-1.117h1.54V20.5h1.445zm2.727 6.195c0-.828.162-1.573.488-2.234.325-.662.779-1.172 1.36-1.531.58-.36 1.243-.54 1.988-.54 1.15 0 2.082.4 2.793 1.196.71.797 1.066 1.857 1.066 3.18v.101c0 .823-.158 1.561-.473 2.215a3.589 3.589 0 0 1-1.351 1.527c-.586.365-1.26.547-2.02.547-1.146 0-2.074-.398-2.785-1.195-.71-.797-1.066-1.852-1.066-3.164v-.102zm1.453.172c0 .938.217 1.69.652 2.258.435.568 1.017.852 1.746.852.735 0 1.318-.288 1.75-.864.433-.575.649-1.381.649-2.418 0-.927-.22-1.678-.66-2.254-.44-.575-1.025-.863-1.754-.863-.714 0-1.29.284-1.727.852-.437.567-.656 1.38-.656 2.437zm13.273 3.297c-.562.662-1.388.992-2.476.992-.901 0-1.588-.261-2.059-.785-.471-.523-.71-1.298-.715-2.324v-5.5h1.446v5.46c0 1.282.52 1.923 1.562 1.923 1.104 0 1.839-.412 2.203-1.235v-6.148h1.445V31h-1.375l-.03-.836zm10.742-3.297c0 1.287-.294 2.323-.882 3.11-.589.786-1.386 1.18-2.391 1.18-1.026 0-1.833-.326-2.422-.977v4.07h-1.445V22.547h1.32l.07.937c.589-.729 1.407-1.093 2.454-1.093 1.015 0 1.819.382 2.41 1.148.59.766.886 1.83.886 3.195v.133zm-1.445-.164c0-.953-.203-1.706-.61-2.258-.406-.552-.963-.828-1.671-.828-.875 0-1.531.388-1.969 1.164v4.04c.432.77 1.094 1.156 1.985 1.156.692 0 1.243-.275 1.652-.825.409-.55.613-1.366.613-2.449zm2.93 0c0-1.297.307-2.34.922-3.129.614-.789 1.419-1.183 2.414-1.183.99 0 1.773.338 2.351 1.015V19h1.446v12h-1.329l-.07-.906c-.578.708-1.383 1.062-2.414 1.062-.979 0-1.777-.4-2.394-1.203-.618-.802-.926-1.849-.926-3.14v-.11zm1.445.164c0 .959.198 1.709.594 2.25.396.542.943.813 1.64.813.917 0 1.586-.412 2.008-1.235v-3.883c-.432-.796-1.096-1.195-1.992-1.195-.708 0-1.26.274-1.656.82-.396.547-.594 1.357-.594 2.43zm7.992 3.375c0-.25.075-.458.223-.625.148-.166.371-.25.668-.25.297 0 .522.084.676.25a.89.89 0 0 1 .23.625c0 .24-.077.44-.23.602-.154.161-.38.242-.676.242-.297 0-.52-.08-.668-.242a.855.855 0 0 1-.223-.602zm3.414 0c0-.25.075-.458.223-.625.148-.166.371-.25.668-.25.297 0 .522.084.676.25a.89.89 0 0 1 .23.625c0 .24-.077.44-.23.602-.154.161-.38.242-.676.242-.297 0-.52-.08-.668-.242a.855.855 0 0 1-.223-.602zm3.243 0c0-.25.074-.458.222-.625.149-.166.371-.25.668-.25.297 0 .522.084.676.25.154.167.23.375.23.625 0 .24-.076.44-.23.602-.154.161-.379.242-.676.242-.297 0-.52-.08-.668-.242a.855.855 0 0 1-.222-.602zM74.93 103h-1.5V91.625h1.5V103zm4.242-4.453V103h-1.5V91.625h4.195c1.245 0 2.22.318 2.926.953.706.636 1.059 1.477 1.059 2.524 0 1.104-.345 1.954-1.036 2.55-.69.597-1.678.895-2.964.895h-2.68zm0-1.227h2.695c.802 0 1.417-.188 1.844-.566.427-.378.64-.923.64-1.637 0-.677-.213-1.219-.64-1.625-.427-.406-1.013-.617-1.758-.633h-2.781v4.461zm18.836 2.711h-4.766L92.172 103h-1.547l4.344-11.375h1.312L100.633 103h-1.54l-1.085-2.969zm-4.313-1.234h3.868l-1.938-5.32-1.93 5.32zm7.89-.094c0-1.297.308-2.34.923-3.129.614-.789 1.42-1.183 2.414-1.183.99 0 1.773.338 2.351 1.015V91h1.446v12h-1.328l-.07-.906c-.579.708-1.383 1.062-2.415 1.062-.979 0-1.777-.4-2.394-1.203-.617-.802-.926-1.849-.926-3.14v-.11zm1.446.164c0 .959.198 1.709.594 2.25.396.542.943.813 1.64.813.917 0 1.587-.412 2.008-1.235v-3.882c-.432-.797-1.096-1.196-1.992-1.196-.708 0-1.26.274-1.656.82-.396.547-.594 1.357-.594 2.43zm7.578-.164c0-1.297.308-2.34.922-3.129.615-.789 1.42-1.183 2.414-1.183.99 0 1.774.338 2.352 1.015V91h1.445v12h-1.328l-.07-.906c-.578.708-1.383 1.062-2.414 1.062-.98 0-1.778-.4-2.395-1.203-.617-.802-.926-1.849-.926-3.14v-.11zm1.446.164c0 .959.198 1.709.593 2.25.396.542.943.813 1.641.813.917 0 1.586-.412 2.008-1.235v-3.882c-.432-.797-1.096-1.196-1.992-1.196-.709 0-1.26.274-1.657.82-.395.547-.593 1.357-.593 2.43zm12.015-3.023a4.331 4.331 0 0 0-.71-.055c-.949 0-1.592.404-1.93 1.211v6h-1.446v-8.453h1.407l.023.976c.474-.755 1.146-1.132 2.016-1.132.28 0 .494.036.64.109v1.344zm4.688 7.312c-1.146 0-2.078-.376-2.797-1.129-.719-.752-1.078-1.759-1.078-3.02v-.265c0-.838.16-1.587.48-2.246a3.748 3.748 0 0 1 1.344-1.547 3.378 3.378 0 0 1 1.871-.558c1.1 0 1.953.362 2.563 1.086.609.724.914 1.76.914 3.109v.602h-5.727c.021.833.264 1.506.73 2.019.467.513 1.06.77 1.778.77.51 0 .943-.105 1.297-.313.354-.208.664-.484.93-.828l.882.687c-.708 1.089-1.77 1.633-3.187 1.633zm-.18-7.578c-.583 0-1.073.212-1.469.637-.395.424-.64 1.02-.734 1.785h4.234v-.11c-.041-.734-.24-1.303-.593-1.706-.355-.404-.834-.606-1.438-.606zm10.07 5.18c0-.39-.147-.694-.441-.91-.294-.216-.807-.403-1.539-.559-.732-.156-1.313-.344-1.742-.562-.43-.22-.748-.48-.953-.782-.206-.302-.309-.661-.309-1.078 0-.693.293-1.278.879-1.758.586-.479 1.335-.718 2.246-.718.958 0 1.736.247 2.332.742.596.495.895 1.127.895 1.898h-1.453c0-.396-.168-.737-.504-1.023-.336-.287-.76-.43-1.27-.43-.526 0-.937.115-1.234.344a1.082 1.082 0 0 0-.446.898c0 .35.138.612.414.79.276.176.775.346 1.497.507.72.162 1.306.354 1.753.578.448.224.78.494.997.809.216.315.324.7.324 1.152 0 .755-.302 1.36-.906 1.817-.605.455-1.389.683-2.352.683-.677 0-1.276-.12-1.797-.36a2.922 2.922 0 0 1-1.223-1.003 2.42 2.42 0 0 1-.441-1.395h1.445c.026.485.22.869.582 1.153.362.284.84.426 1.434.426.547 0 .986-.111 1.316-.332.331-.222.496-.517.496-.887zm8.25 0c0-.39-.147-.694-.441-.91-.294-.216-.807-.403-1.539-.559-.732-.156-1.313-.344-1.742-.562-.43-.22-.748-.48-.953-.782-.206-.302-.309-.661-.309-1.078 0-.693.293-1.278.879-1.758.586-.479 1.335-.718 2.246-.718.958 0 1.736.247 2.332.742.596.495.895 1.127.895 1.898h-1.453c0-.396-.168-.737-.504-1.023-.336-.287-.76-.43-1.27-.43-.526 0-.937.115-1.234.344a1.082 1.082 0 0 0-.446.898c0 .35.138.612.414.79.276.176.775.346 1.497.507.72.162 1.306.354 1.753.578.448.224.78.494.997.809.216.315.324.7.324 1.152 0 .755-.302 1.36-.906 1.817-.605.455-1.389.683-2.352.683-.677 0-1.276-.12-1.797-.36a2.922 2.922 0 0 1-1.223-1.003 2.42 2.42 0 0 1-.441-1.395h1.445c.026.485.22.869.582 1.153.362.284.84.426 1.434.426.547 0 .986-.111 1.316-.332.331-.222.496-.517.496-.887zm3.282 1.484c0-.25.074-.458.222-.625.149-.166.371-.25.668-.25.297 0 .522.084.676.25.154.167.23.375.23.625 0 .24-.076.44-.23.602-.154.161-.379.242-.676.242-.297 0-.52-.08-.668-.242a.855.855 0 0 1-.222-.602zm.007-6.898c0-.25.075-.459.223-.625.149-.167.371-.25.668-.25.297 0 .522.083.676.25.154.166.23.375.23.625 0 .24-.076.44-.23.601-.154.162-.379.243-.676.243-.297 0-.52-.081-.668-.243a.855.855 0 0 1-.222-.601zM162.665 103h-1.453v-9.633l-2.914 1.07v-1.312l4.14-1.555h.227V103zm11.367-4.852c0 1.693-.289 2.951-.867 3.774-.578.823-1.482 1.234-2.71 1.234-1.214 0-2.113-.402-2.696-1.207-.584-.804-.886-2.006-.906-3.605v-1.93c0-1.672.289-2.914.867-3.727.578-.812 1.484-1.218 2.719-1.218 1.223 0 2.124.392 2.703 1.176.578.783.875 1.993.89 3.628v1.875zm-1.445-1.976c0-1.224-.172-2.116-.516-2.676-.343-.56-.888-.84-1.632-.84-.74 0-1.28.279-1.618.836-.338.557-.513 1.414-.523 2.57v2.313c0 1.23.178 2.137.535 2.723.357.586.897.879 1.621.879.714 0 1.244-.276 1.59-.829.346-.552.527-1.421.543-2.609v-2.367zm8.047 6.828h-1.453v-9.633l-2.914 1.07v-1.312l4.14-1.555h.227V103zm4.414-.758c0-.25.074-.458.223-.625.148-.166.37-.25.667-.25.297 0 .523.084.676.25.154.167.23.375.23.625 0 .24-.076.44-.23.602-.153.161-.379.242-.675.242-.297 0-.52-.08-.668-.242a.855.855 0 0 1-.223-.602zm8.781.758h-1.453v-9.633l-2.914 1.07v-1.312l4.14-1.555h.227V103zm11.367-4.852c0 1.693-.289 2.951-.867 3.774-.578.823-1.482 1.234-2.71 1.234-1.214 0-2.113-.402-2.696-1.207-.583-.804-.886-2.006-.906-3.605v-1.93c0-1.672.289-2.914.867-3.727.578-.812 1.484-1.218 2.719-1.218 1.224 0 2.125.392 2.703 1.176.578.783.875 1.993.89 3.628v1.875zm-1.445-1.976c0-1.224-.172-2.116-.516-2.676-.343-.56-.888-.84-1.632-.84-.74 0-1.28.279-1.618.836-.338.557-.513 1.414-.523 2.57v2.313c0 1.23.178 2.137.535 2.723.357.586.897.879 1.621.879.714 0 1.244-.276 1.59-.829.346-.552.527-1.421.543-2.609v-2.367zM214.5 103h-7.453v-1.04l3.937-4.374c.584-.662.986-1.2 1.207-1.613.222-.414.332-.843.332-1.285 0-.594-.18-1.081-.539-1.461-.359-.38-.838-.57-1.437-.57-.719 0-1.277.204-1.676.613-.398.408-.598.977-.598 1.707h-1.445c0-1.047.337-1.894 1.012-2.54.674-.645 1.577-.968 2.707-.968 1.057 0 1.893.277 2.508.832.614.554.922 1.293.922 2.215 0 1.12-.714 2.453-2.141 4l-3.047 3.304h5.711V103zm1.71-.758c0-.25.075-.458.224-.625.148-.166.37-.25.668-.25.296 0 .522.084.675.25.154.167.23.375.23.625 0 .24-.076.44-.23.602-.153.161-.379.242-.675.242-.297 0-.52-.08-.668-.242a.855.855 0 0 1-.223-.602zm8.782.758h-1.453v-9.633l-2.914 1.07v-1.312l4.14-1.555h.227V103zm11.367-4.852c0 1.693-.289 2.951-.867 3.774-.578.823-1.482 1.234-2.71 1.234-1.214 0-2.113-.402-2.696-1.207-.583-.804-.885-2.006-.906-3.605v-1.93c0-1.672.289-2.914.867-3.727.578-.812 1.484-1.218 2.719-1.218 1.224 0 2.125.392 2.703 1.176.578.783.875 1.993.89 3.628v1.875zm-1.445-1.976c0-1.224-.172-2.116-.516-2.676-.343-.56-.888-.84-1.632-.84-.74 0-1.279.279-1.618.836-.338.557-.513 1.414-.523 2.57v2.313c0 1.23.178 2.137.535 2.723.357.586.897.879 1.621.879.714 0 1.244-.276 1.59-.829.346-.552.527-1.421.543-2.609v-2.367zm5.399.437h1.085c.683-.01 1.22-.19 1.61-.539.39-.349.586-.82.586-1.414 0-1.333-.664-2-1.992-2-.625 0-1.124.179-1.497.535-.372.357-.558.83-.558 1.418h-1.445c0-.9.329-1.65.988-2.246.659-.596 1.496-.894 2.512-.894 1.072 0 1.914.284 2.523.851.61.568.914 1.357.914 2.368 0 .494-.16.973-.48 1.437-.32.464-.757.81-1.309 1.04.625.197 1.108.525 1.45.983.34.459.51 1.019.51 1.68 0 1.021-.332 1.83-1 2.43-.666.599-1.533.898-2.6.898-1.068 0-1.937-.289-2.606-.867-.67-.578-1.004-1.341-1.004-2.289h1.453c0 .599.195 1.078.586 1.438.39.359.914.539 1.57.539.698 0 1.232-.183 1.602-.547.37-.365.555-.888.555-1.57 0-.662-.203-1.17-.61-1.524-.406-.354-.992-.537-1.758-.547h-1.085v-1.18zm7.062 5.633c0-.25.074-.458.223-.625.148-.166.37-.25.668-.25.297 0 .522.084.675.25.154.167.23.375.23.625 0 .24-.076.44-.23.602-.153.161-.378.242-.675.242-.297 0-.52-.08-.668-.242a.855.855 0 0 1-.223-.602zm8.781.758h-1.453v-9.633l-2.914 1.07v-1.312l4.14-1.555h.227V103zm11.367-4.852c0 1.693-.289 2.951-.867 3.774-.578.823-1.482 1.234-2.71 1.234-1.214 0-2.113-.402-2.696-1.207-.583-.804-.885-2.006-.906-3.605v-1.93c0-1.672.289-2.914.867-3.727.578-.812 1.484-1.218 2.719-1.218 1.224 0 2.125.392 2.703 1.176.578.783.875 1.993.89 3.628v1.875zm-1.445-1.976c0-1.224-.172-2.116-.515-2.676-.344-.56-.889-.84-1.633-.84-.74 0-1.279.279-1.618.836-.338.557-.513 1.414-.523 2.57v2.313c0 1.23.178 2.137.535 2.723.357.586.897.879 1.621.879.714 0 1.244-.276 1.59-.829.347-.552.527-1.421.543-2.609v-2.367zm9.399 3.008h1.578v1.18h-1.578V103h-1.454v-2.64h-5.18v-.852l5.094-7.883h1.54v7.555zm-4.993 0h3.54v-5.578l-.172.312-3.368 5.266z"/>
    <path id="Text/Gray-500" fill="#636D75" d="M74.468 47.104V51h-1.313v-9.953h3.671c1.09 0 1.943.278 2.56.834.618.556.927 1.292.927 2.208 0 .966-.302 1.71-.906 2.232-.604.522-1.469.783-2.594.783h-2.345zm0-1.074h2.358c.702 0 1.24-.165 1.613-.495.374-.33.561-.808.561-1.432 0-.593-.187-1.067-.56-1.422-.374-.356-.887-.54-1.539-.554h-2.433v3.903zM83.163 51h-1.265V40.5h1.265V51zm6.59-.731c-.492.578-1.215.868-2.167.868-.788 0-1.389-.23-1.801-.687-.413-.458-.621-1.136-.626-2.034v-4.812h1.265v4.778c0 1.12.456 1.681 1.367 1.681.966 0 1.609-.36 1.928-1.08v-5.38h1.264V51H89.78l-.027-.731zm2.85-3.029c0-1.153.267-2.07.8-2.751.534-.682 1.24-1.022 2.12-1.022.902 0 1.606.319 2.112.957l.061-.82h1.156v7.218c0 .957-.284 1.712-.852 2.263-.567.551-1.33.827-2.286.827a3.804 3.804 0 0 1-1.566-.342c-.51-.228-.9-.54-1.169-.936l.657-.759c.542.67 1.205 1.005 1.989 1.005.615 0 1.095-.173 1.439-.52.344-.346.516-.834.516-1.463v-.635c-.506.583-1.196.875-2.071.875-.866 0-1.567-.349-2.102-1.046-.536-.697-.803-1.648-.803-2.85zm1.272.144c0 .834.17 1.489.513 1.965.341.476.82.714 1.435.714.798 0 1.383-.362 1.757-1.086V45.6c-.387-.707-.968-1.06-1.743-1.06-.615 0-1.096.24-1.442.718-.347.478-.52 1.187-.52 2.126zM102.133 51h-1.265v-7.396h1.265V51zm-1.367-9.358c0-.205.062-.379.188-.52.125-.141.31-.212.557-.212.246 0 .433.07.56.212a.747.747 0 0 1 .192.52.722.722 0 0 1-.192.512c-.127.137-.314.205-.56.205-.246 0-.432-.068-.557-.205a.73.73 0 0 1-.188-.512zm4.587 1.962l.04.93c.566-.712 1.304-1.067 2.215-1.067 1.564 0 2.352.882 2.366 2.645V51h-1.265v-4.895c-.005-.533-.126-.927-.366-1.182-.239-.255-.612-.383-1.117-.383-.41 0-.77.11-1.08.328a2.23 2.23 0 0 0-.725.861V51h-1.265v-7.396h1.197zm15.688 4.798h-4.17L115.935 51h-1.354l3.8-9.953h1.15L123.337 51h-1.347l-.95-2.598zm-3.773-1.08h3.383l-1.695-4.655-1.688 4.655zm11.703 2.947c-.492.578-1.215.868-2.167.868-.789 0-1.39-.23-1.802-.687-.412-.458-.62-1.136-.625-2.034v-4.812h1.265v4.778c0 1.12.455 1.681 1.367 1.681.966 0 1.609-.36 1.928-1.08v-5.38h1.264V51h-1.203l-.027-.731zm4.867-8.456v1.79h1.38v.978h-1.38v4.587c0 .296.061.518.184.666.124.149.333.223.63.223.145 0 .346-.028.6-.082V51a3.666 3.666 0 0 1-.97.137c-.565 0-.991-.171-1.278-.513-.287-.342-.43-.827-.43-1.456v-4.587h-1.347v-.977h1.346v-1.791h1.265zm2.386 5.42c0-.724.142-1.376.427-1.955a3.187 3.187 0 0 1 1.19-1.34c.507-.314 1.087-.471 1.74-.471 1.006 0 1.82.348 2.443 1.046.622.697.933 1.624.933 2.782v.089c0 .72-.138 1.366-.414 1.938a3.14 3.14 0 0 1-1.182 1.336c-.513.32-1.102.479-1.767.479-1.003 0-1.815-.349-2.437-1.046-.622-.697-.933-1.62-.933-2.769v-.089zm1.271.15c0 .821.19 1.48.57 1.976.381.497.89.745 1.529.745.642 0 1.153-.251 1.531-.755.378-.503.567-1.209.567-2.116 0-.81-.192-1.468-.577-1.972-.385-.503-.897-.755-1.535-.755-.624 0-1.128.248-1.51.745-.383.497-.575 1.208-.575 2.133zm11.614 2.886c-.492.578-1.214.868-2.167.868-.788 0-1.388-.23-1.8-.687-.413-.458-.622-1.136-.626-2.034v-4.812h1.264v4.778c0 1.12.456 1.681 1.367 1.681.967 0 1.61-.36 1.928-1.08v-5.38h1.265V51h-1.203l-.028-.731zm9.4-2.885c0 1.125-.258 2.032-.773 2.72-.515.689-1.212 1.033-2.091 1.033-.898 0-1.605-.285-2.12-.855v3.562h-1.264v-10.24h1.155l.062.82c.515-.638 1.23-.957 2.146-.957.889 0 1.592.335 2.109 1.005.517.67.776 1.602.776 2.796v.116zm-1.265-.144c0-.834-.178-1.492-.533-1.975-.356-.483-.843-.725-1.463-.725-.766 0-1.34.34-1.723 1.019v3.534c.379.674.957 1.011 1.737 1.011.606 0 1.088-.24 1.446-.72.357-.481.536-1.196.536-2.144zm2.564 0c0-1.135.268-2.047.806-2.738.538-.69 1.242-1.035 2.113-1.035.865 0 1.551.296 2.057.888V40.5h1.265V51h-1.162l-.062-.793c-.506.62-1.21.93-2.112.93-.857 0-1.555-.351-2.095-1.053-.54-.702-.81-1.618-.81-2.748v-.096zm1.264.144c0 .838.173 1.495.52 1.969.346.473.825.71 1.435.71.802 0 1.388-.36 1.757-1.08v-3.397c-.378-.697-.96-1.046-1.743-1.046-.62 0-1.103.24-1.45.718-.346.478-.519 1.187-.519 2.126zM172.577 51c-.073-.146-.132-.406-.178-.78-.587.611-1.29.917-2.105.917-.73 0-1.327-.206-1.794-.619a2.002 2.002 0 0 1-.701-1.569c0-.77.293-1.368.878-1.794.586-.426 1.41-.64 2.471-.64h1.23v-.58c0-.442-.131-.795-.396-1.057-.264-.262-.654-.393-1.169-.393-.45 0-.829.114-1.134.342-.306.228-.458.504-.458.827h-1.272c0-.369.131-.725.393-1.07a2.683 2.683 0 0 1 1.067-.816c.449-.2.942-.301 1.48-.301.852 0 1.52.213 2.003.639.483.426.733 1.013.752 1.76v3.405c0 .679.086 1.219.26 1.62V51h-1.327zm-2.098-.964a2.22 2.22 0 0 0 1.127-.307 1.86 1.86 0 0 0 .773-.8V47.41h-.991c-1.55 0-2.325.454-2.325 1.36 0 .397.133.707.397.93.264.223.604.335 1.019.335zm6.863-8.224v1.792h1.38v.977h-1.38v4.587c0 .296.061.518.184.666.123.149.333.223.63.223.145 0 .346-.028.6-.082V51a3.666 3.666 0 0 1-.97.137c-.565 0-.991-.171-1.278-.513-.287-.342-.43-.827-.43-1.456v-4.587h-1.348v-.977h1.347v-1.791h1.265zm5.927 9.325c-1.003 0-1.819-.33-2.448-.988-.629-.659-.943-1.54-.943-2.642v-.233c0-.733.14-1.388.42-1.965a3.28 3.28 0 0 1 1.176-1.353 2.956 2.956 0 0 1 1.637-.49c.962 0 1.71.318 2.243.951.533.633.8 1.54.8 2.72v.527h-5.011c.018.73.23 1.318.639 1.767.408.449.926.673 1.555.673.447 0 .825-.09 1.135-.273.31-.182.58-.424.813-.725l.773.602c-.62.952-1.55 1.429-2.79 1.429zm-.158-6.631c-.51 0-.938.186-1.285.557-.346.371-.56.892-.642 1.562h3.705v-.096c-.037-.642-.21-1.14-.52-1.493-.31-.354-.729-.53-1.258-.53zm4.198 2.734c0-1.135.268-2.047.806-2.738.538-.69 1.242-1.035 2.113-1.035.865 0 1.551.296 2.057.888V40.5h1.265V51h-1.162l-.062-.793c-.506.62-1.21.93-2.112.93-.857 0-1.555-.351-2.095-1.053-.54-.702-.81-1.618-.81-2.748v-.096zm1.264.144c0 .838.173 1.495.52 1.969.346.473.825.71 1.435.71.802 0 1.388-.36 1.757-1.08v-3.397c-.378-.697-.96-1.046-1.743-1.046-.62 0-1.103.24-1.45.718-.346.478-.519 1.187-.519 2.126zM74.475 121.927h4.716V123h-6.036v-9.953h1.32v8.88zm5.68-2.694c0-.724.143-1.376.428-1.955a3.187 3.187 0 0 1 1.189-1.34c.508-.314 1.088-.471 1.74-.471 1.007 0 1.821.348 2.444 1.046.622.697.933 1.624.933 2.782v.089c0 .72-.138 1.366-.414 1.938a3.14 3.14 0 0 1-1.183 1.336c-.512.32-1.101.479-1.767.479-1.002 0-1.815-.349-2.437-1.046-.622-.697-.933-1.62-.933-2.769v-.089zm1.272.15c0 .821.19 1.48.57 1.976.381.497.89.745 1.528.745.643 0 1.153-.251 1.532-.755.378-.503.567-1.209.567-2.116 0-.81-.193-1.468-.578-1.972-.385-.503-.896-.755-1.534-.755-.625 0-1.128.248-1.511.745s-.574 1.208-.574 2.133zm6.747-.143c0-1.153.266-2.07.8-2.751.533-.682 1.24-1.022 2.119-1.022.902 0 1.606.319 2.112.957l.062-.82h1.155v7.218c0 .957-.284 1.712-.851 2.263-.568.551-1.33.827-2.287.827a3.804 3.804 0 0 1-1.565-.342c-.51-.228-.9-.54-1.17-.936l.657-.759c.542.67 1.205 1.005 1.99 1.005.615 0 1.094-.173 1.438-.52.344-.346.516-.834.516-1.463v-.635c-.505.583-1.196.875-2.07.875-.867 0-1.567-.349-2.103-1.046-.535-.697-.803-1.648-.803-2.85zm1.271.144c0 .834.171 1.489.513 1.965.342.476.82.714 1.436.714.797 0 1.383-.362 1.756-1.086V117.6c-.387-.707-.968-1.06-1.743-1.06-.615 0-1.096.24-1.442.718-.347.478-.52 1.187-.52 2.126zM97.703 123h-1.265v-7.396h1.265V123zm-1.367-9.358c0-.205.063-.379.188-.52.125-.141.311-.212.557-.212.246 0 .433.07.56.212a.747.747 0 0 1 .192.52.722.722 0 0 1-.191.512c-.128.137-.315.205-.56.205-.247 0-.433-.068-.558-.205a.73.73 0 0 1-.188-.512zm4.587 1.962l.04.93c.566-.712 1.304-1.067 2.216-1.067 1.563 0 2.351.882 2.365 2.645V123h-1.265v-4.895c-.004-.533-.126-.927-.365-1.182-.24-.255-.612-.383-1.118-.383-.41 0-.77.11-1.08.328a2.23 2.23 0 0 0-.725.861V123h-1.264v-7.396h1.196zm15.681 3h-4.176V123h-1.313v-9.953h6.166v1.08h-4.853v3.404h4.176v1.073zM122.99 123c-.073-.146-.132-.406-.177-.78-.588.611-1.29.917-2.106.917-.73 0-1.327-.206-1.794-.619a2.002 2.002 0 0 1-.701-1.569c0-.77.293-1.368.878-1.794.586-.426 1.41-.64 2.472-.64h1.23v-.58c0-.442-.132-.795-.396-1.057-.265-.262-.654-.393-1.17-.393-.45 0-.829.114-1.134.342-.306.228-.458.504-.458.827h-1.272c0-.369.131-.725.393-1.07a2.683 2.683 0 0 1 1.067-.816c.449-.2.942-.301 1.48-.301.852 0 1.52.213 2.003.639.483.426.733 1.013.752 1.76v3.405c0 .679.086 1.219.26 1.62V123h-1.327zm-2.098-.964c.396 0 .772-.102 1.128-.307a1.86 1.86 0 0 0 .772-.8v-1.518h-.991c-1.55 0-2.324.454-2.324 1.36 0 .397.132.707.396.93.264.223.604.335 1.019.335zm6.521.964h-1.265v-7.396h1.265V123zm-1.367-9.358c0-.205.063-.379.188-.52.125-.141.31-.212.557-.212.246 0 .433.07.56.212a.747.747 0 0 1 .192.52.722.722 0 0 1-.191.512c-.128.137-.315.205-.561.205-.246 0-.432-.068-.557-.205a.73.73 0 0 1-.188-.512zM130.81 123h-1.265v-10.5h1.265V123zm5.092.137c-1.002 0-1.818-.33-2.447-.988-.629-.659-.943-1.54-.943-2.642v-.233c0-.733.14-1.388.42-1.965a3.28 3.28 0 0 1 1.176-1.353 2.956 2.956 0 0 1 1.637-.49c.962 0 1.71.318 2.242.951.534.633.8 1.54.8 2.72v.527h-5.01c.018.73.23 1.318.639 1.767.407.449.926.673 1.555.673.446 0 .825-.09 1.134-.273a2.84 2.84 0 0 0 .814-.725l.772.602c-.62.952-1.55 1.429-2.789 1.429zm-.157-6.631c-.51 0-.939.186-1.285.557-.346.371-.56.892-.643 1.562h3.705v-.096c-.036-.642-.21-1.14-.52-1.493-.309-.354-.728-.53-1.257-.53zm4.197 2.734c0-1.135.27-2.047.807-2.738.538-.69 1.242-1.035 2.112-1.035.866 0 1.552.296 2.058.888V112.5h1.265V123h-1.163l-.061-.793c-.506.62-1.21.93-2.112.93-.857 0-1.556-.351-2.096-1.053s-.81-1.618-.81-2.748v-.096zm1.265.144c0 .838.173 1.495.52 1.969.346.474.824.71 1.435.71.802 0 1.388-.36 1.757-1.08v-3.397c-.378-.697-.96-1.046-1.743-1.046-.62 0-1.103.24-1.45.718-.346.478-.519 1.187-.519 2.126z"/>
  </g>
</svg>
