<svg xmlns="http://www.w3.org/2000/svg" width="360" height="128"><g fill="none" fill-rule="evenodd"><path fill="#016087" d="M0 0h360v128H0z"/><path fill="#BBC9D5" d="m233.1 106.54 1.54-7.5h1.71l-2.3 9.96h-1.65l-1.9-7.27-1.93 7.27h-1.66l-2.3-9.95h1.72l1.55 7.47 1.9-7.47h1.45l1.88 7.49zm10.34-1.98h-4.1v3.06h4.79V109h-6.51v-9.95h6.46v1.4h-4.73v2.74h4.09v1.37zm7.91 0h-4.09v3.06h4.78V109h-6.5v-9.95h6.45v1.4h-4.73v2.74h4.1v1.37zm4.96.14-1.13 1.2v3.1h-1.73v-9.95h1.73v4.67l.96-1.19 2.9-3.48h2.1l-3.7 4.4 3.91 5.55h-2.05l-3-4.3zm11.17 1.74c0-.44-.16-.78-.46-1.02-.31-.23-.87-.47-1.67-.71s-1.44-.51-1.91-.81c-.91-.57-1.36-1.31-1.36-2.23 0-.8.32-1.46.98-1.98.65-.52 1.5-.78 2.54-.78.7 0 1.31.13 1.86.38a3.04 3.04 0 0 1 1.28 1.1c.3.46.46.99.46 1.56h-1.72c0-.52-.17-.92-.5-1.22-.32-.3-.78-.44-1.39-.44-.56 0-1 .12-1.32.36a1.2 1.2 0 0 0-.46 1.01c0 .37.17.67.5.92.34.24.9.48 1.67.7.78.24 1.4.5 1.87.8.47.29.81.62 1.03 1 .22.39.33.83.33 1.34 0 .83-.32 1.5-.96 1.98-.63.5-1.5.74-2.58.74-.72 0-1.39-.14-1.99-.4a3.34 3.34 0 0 1-1.4-1.1 2.76 2.76 0 0 1-.51-1.65h1.73c0 .57.19 1 .56 1.31.37.31.9.47 1.6.47.6 0 1.06-.12 1.36-.37a1.18 1.18 0 0 0 .46-.96zm29-7.4 2.87 7.64 2.86-7.63h2.24V109h-1.73v-3.28l.17-4.39-2.93 7.67h-1.24l-2.93-7.66.17 4.38V109h-1.73v-9.95h2.25zm17.95 5.24c0 .98-.16 1.83-.5 2.57a3.83 3.83 0 0 1-3.61 2.29 3.87 3.87 0 0 1-3.62-2.28 5.9 5.9 0 0 1-.52-2.52v-.56c0-.97.17-1.83.51-2.57a3.83 3.83 0 0 1 3.62-2.3 3.83 3.83 0 0 1 3.6 2.27c.35.73.52 1.58.52 2.55v.55zm-1.73-.52c0-1.1-.2-1.94-.62-2.53a2.04 2.04 0 0 0-1.77-.88c-.75 0-1.34.29-1.76.87a4.27 4.27 0 0 0-.64 2.49v.57c0 1.1.2 1.94.64 2.54.42.6 1.01.9 1.77.9s1.35-.3 1.77-.88a4.4 4.4 0 0 0 .62-2.56v-.52zm11.35 5.24h-1.73l-4.43-7.06V109h-1.73v-9.95h1.73l4.45 7.09v-7.1h1.71V109zm9.04-8.56h-3.1V109h-1.72v-8.56h-3.08v-1.4h7.9v1.4zm9.2 8.56h-1.72v-4.42h-4.45V109h-1.73v-9.95h1.73v4.14h4.45v-4.14h1.73V109zm7.25-2.56c0-.44-.15-.78-.46-1.02-.3-.23-.86-.47-1.66-.71s-1.44-.51-1.92-.81c-.9-.57-1.36-1.31-1.36-2.23 0-.8.33-1.46.98-1.98.66-.52 1.5-.78 2.55-.78.7 0 1.31.13 1.85.38a3.04 3.04 0 0 1 1.28 1.1c.31.46.47.99.47 1.56h-1.73c0-.52-.16-.92-.49-1.22-.32-.3-.79-.44-1.4-.44-.56 0-1 .12-1.31.36a1.2 1.2 0 0 0-.47 1.01c0 .37.17.67.5.92.34.24.9.48 1.68.7.77.24 1.4.5 1.86.8.47.29.82.62 1.03 1 .22.39.33.83.33 1.34 0 .83-.32 1.5-.95 1.98-.64.5-1.5.74-2.59.74-.72 0-1.38-.14-1.98-.4a3.34 3.34 0 0 1-1.41-1.1 2.75 2.75 0 0 1-.5-1.65h1.72c0 .57.2 1 .56 1.31.38.31.91.47 1.61.47.6 0 1.05-.12 1.36-.37a1.18 1.18 0 0 0 .45-.96zM76.14 109H74.4v-9.95h1.72V109zm10.02 0h-1.73l-4.44-7.06V109h-1.73v-9.95h1.73l4.45 7.09v-7.1h1.72V109zm7.24-2.56c0-.44-.15-.78-.46-1.02-.3-.23-.86-.47-1.66-.71a8.03 8.03 0 0 1-1.92-.81c-.9-.57-1.36-1.31-1.36-2.23 0-.8.33-1.46.98-1.98.66-.52 1.5-.78 2.55-.78.7 0 1.3.13 1.85.38a3.04 3.04 0 0 1 1.28 1.1c.31.46.47.99.47 1.56H93.4c0-.52-.16-.92-.49-1.22-.32-.3-.79-.44-1.4-.44-.56 0-1 .12-1.31.36a1.2 1.2 0 0 0-.47 1.01c0 .37.17.67.5.92.34.24.9.48 1.68.7.77.24 1.4.5 1.86.8.47.29.81.62 1.03 1 .22.39.33.83.33 1.34 0 .83-.32 1.5-.95 1.98-.64.5-1.5.74-2.59.74-.72 0-1.38-.14-1.99-.4a3.35 3.35 0 0 1-1.4-1.1 2.75 2.75 0 0 1-.5-1.65h1.72c0 .57.19 1 .56 1.31.38.31.91.47 1.61.47.6 0 1.05-.12 1.36-.37a1.18 1.18 0 0 0 .45-.96zm5.07 2.56h-1.72v-9.95h1.72V109zm9.76-1.3a3.3 3.3 0 0 1-1.5 1.07 6.1 6.1 0 0 1-2.17.37c-.84 0-1.57-.2-2.22-.57a3.78 3.78 0 0 1-1.48-1.62 5.68 5.68 0 0 1-.55-2.47v-.78c0-1.5.36-2.68 1.08-3.52a3.75 3.75 0 0 1 3.02-1.27c1.1 0 1.98.27 2.64.82a3.54 3.54 0 0 1 1.17 2.37h-1.7c-.18-1.2-.88-1.8-2.08-1.8-.77 0-1.36.28-1.76.83-.4.56-.62 1.38-.63 2.46v.77c0 1.07.23 1.9.68 2.5.45.6 1.08.9 1.89.9.88 0 1.51-.2 1.89-.6v-1.95h-2.05v-1.32h3.77v3.82zm9.8 1.3h-1.72v-4.42h-4.45V109h-1.73v-9.95h1.73v4.14h4.45v-4.14h1.72V109zm9.04-8.56h-3.1V109h-1.72v-8.56h-3.08v-1.4h7.9v1.4zm6.4 6c0-.44-.16-.78-.46-1.02-.31-.23-.87-.47-1.67-.71s-1.44-.51-1.91-.81c-.91-.57-1.36-1.31-1.36-2.23 0-.8.32-1.46.98-1.98.65-.52 1.5-.78 2.54-.78.7 0 1.31.13 1.86.38a3.04 3.04 0 0 1 1.28 1.1c.3.46.46.99.46 1.56h-1.72c0-.52-.17-.92-.5-1.22-.32-.3-.78-.44-1.39-.44-.57 0-1 .12-1.32.36a1.2 1.2 0 0 0-.46 1.01c0 .37.16.67.5.92.34.24.9.48 1.67.7.78.24 1.4.5 1.87.8.47.29.81.62 1.03 1 .22.39.33.83.33 1.34 0 .83-.32 1.5-.96 1.98-.63.5-1.5.74-2.58.74-.72 0-1.39-.14-1.99-.4a3.34 3.34 0 0 1-1.4-1.1 2.75 2.75 0 0 1-.51-1.65h1.73c0 .57.19 1 .56 1.31.37.31.9.47 1.6.47.6 0 1.06-.12 1.36-.37a1.18 1.18 0 0 0 .46-.96z"/><path fill="#FFF" d="M80.88 55.34c0-.63-.22-1.1-.66-1.45a7.93 7.93 0 0 0-2.38-1.02 11.5 11.5 0 0 1-2.73-1.16c-1.3-.8-1.95-1.87-1.95-3.18 0-1.15.47-2.09 1.4-2.83a5.68 5.68 0 0 1 3.64-1.11c1 0 1.87.18 2.65.54.77.37 1.38.89 1.82 1.56a4 4 0 0 1 .67 2.24h-2.46c0-.74-.24-1.32-.7-1.74-.47-.42-1.13-.63-2-.63a3 3 0 0 0-1.88.52c-.44.34-.67.82-.67 1.44 0 .52.24.96.73 1.3.48.35 1.27.7 2.38 1.02 1.1.33 2 .7 2.66 1.12.67.42 1.17.9 1.48 1.45.31.54.47 1.18.47 1.9a3.4 3.4 0 0 1-1.36 2.84 5.9 5.9 0 0 1-3.7 1.05c-1.03 0-1.98-.2-2.84-.58a4.77 4.77 0 0 1-2.01-1.57 3.93 3.93 0 0 1-.72-2.35h2.47c0 .81.27 1.43.8 1.88.54.44 1.3.66 2.3.66.86 0 1.5-.17 1.94-.52.43-.35.65-.81.65-1.38zm7.38-9.48v2.57h1.86v1.76h-1.86v5.9c0 .4.08.7.24.87.16.18.44.27.85.27.28 0 .55-.03.83-.1v1.84c-.54.15-1.06.23-1.56.23-1.82 0-2.73-1.01-2.73-3.02v-5.99h-1.74v-1.76h1.74v-2.57h2.37zM98.25 59c-.1-.2-.2-.53-.27-.99a3.7 3.7 0 0 1-2.78 1.19c-1.06 0-1.92-.3-2.6-.91a2.9 2.9 0 0 1-1-2.25 3 3 0 0 1 1.25-2.6c.84-.6 2.04-.9 3.6-.9h1.45v-.69c0-.55-.15-.98-.46-1.31-.3-.33-.77-.5-1.4-.5-.54 0-.98.14-1.32.41-.35.27-.52.61-.52 1.03h-2.38c0-.58.2-1.12.58-1.63.38-.5.9-.9 1.57-1.18.66-.29 1.4-.43 2.21-.43 1.24 0 2.22.3 2.96.93.73.62 1.11 1.5 1.13 2.62v4.77c0 .95.14 1.7.4 2.27V59h-2.42zm-2.6-1.7a2.7 2.7 0 0 0 1.32-.35c.4-.23.72-.54.93-.92v-1.99h-1.28a3.5 3.5 0 0 0-1.98.46c-.44.3-.67.74-.67 1.3 0 .45.16.82.46 1.09.3.27.7.4 1.21.4zm10.08-11.44v2.57h1.87v1.76h-1.87v5.9c0 .4.08.7.24.87.16.18.44.27.85.27.28 0 .55-.03.83-.1v1.84c-.54.15-1.06.22-1.56.22-1.82 0-2.73-1-2.73-3.01v-5.99h-1.74v-1.76h1.74v-2.57h2.37zm9.6 10.27c0-.42-.17-.75-.52-.97a5.56 5.56 0 0 0-1.74-.58 8.98 8.98 0 0 1-2.02-.65c-1.18-.57-1.77-1.4-1.77-2.49 0-.91.38-1.67 1.15-2.28a4.56 4.56 0 0 1 2.93-.92c1.26 0 2.28.31 3.06.94a2.97 2.97 0 0 1 1.17 2.43h-2.38c0-.46-.17-.84-.5-1.14-.34-.3-.8-.45-1.35-.45-.52 0-.95.12-1.28.36a1.14 1.14 0 0 0-.49.96c0 .37.15.65.46.85.3.2.92.4 1.85.61.94.2 1.67.45 2.2.74.53.28.92.62 1.18 1.02.26.4.38.88.38 1.44 0 .95-.39 1.72-1.18 2.31-.78.6-1.82.88-3.1.88-.86 0-1.63-.15-2.3-.46a3.82 3.82 0 0 1-1.59-1.3 3.05 3.05 0 0 1-.57-1.76h2.3c.04.56.25 1 .64 1.3.4.3.91.45 1.56.45.62 0 1.1-.12 1.42-.36.33-.24.49-.55.49-.93zM36 51v2H23.83l5.58 5.59L28 60l-8-8 8-8 1.42 1.41L23.83 51H36zm285.7-34h-1.65V9l-2.44.84v-1.4l3.88-1.43h.21V17zm10.15 0h-6.69v-1.14l3.32-3.62c.48-.53.82-.98 1.02-1.33.2-.36.3-.72.3-1.08 0-.47-.13-.86-.4-1.15-.26-.3-.62-.44-1.07-.44-.54 0-.96.17-1.25.5-.3.32-.45.77-.45 1.34h-1.66c0-.6.14-1.15.41-1.64.28-.48.67-.86 1.19-1.13.51-.27 1.1-.4 1.77-.4.97 0 1.73.24 2.29.73.56.48.83 1.15.83 2.01 0 .5-.14 1.02-.42 1.56a8.85 8.85 0 0 1-1.37 1.86l-2.44 2.6h4.62V17zm2.38-1.75c.3 0 .55.09.71.26a.91.91 0 0 1 .26.66.88.88 0 0 1-.26.65.97.97 0 0 1-.71.25.97.97 0 0 1-.7-.25.87.87 0 0 1-.27-.65c0-.26.09-.48.26-.66.16-.17.4-.26.7-.26zm0-5.8c.3 0 .55.08.71.26a.91.91 0 0 1 .26.66.88.88 0 0 1-.26.65c-.16.17-.4.25-.71.25a.97.97 0 0 1-.7-.25.87.87 0 0 1-.27-.65c0-.26.09-.48.26-.66.16-.18.4-.26.7-.26zm4.52 1.82h1.01c.51-.01.92-.14 1.22-.4.3-.26.44-.64.44-1.13 0-.47-.12-.84-.37-1.1-.25-.27-.63-.4-1.14-.4-.44 0-.8.13-1.1.39-.28.26-.43.6-.43 1h-1.66c0-.5.14-.97.4-1.39.28-.42.66-.74 1.14-.98a3.7 3.7 0 0 1 1.63-.35c1 0 1.78.25 2.34.75.57.5.85 1.2.85 2.08 0 .45-.14.87-.42 1.26a2.68 2.68 0 0 1-1.1.9c.54.18.96.47 1.24.87.29.4.43.88.43 1.44 0 .9-.3 1.6-.92 2.13-.61.53-1.42.8-2.42.8-.95 0-1.74-.26-2.35-.77a2.52 2.52 0 0 1-.91-2.04h1.66c0 .44.14.8.44 1.07s.69.41 1.18.41c.52 0 .92-.14 1.22-.41.3-.27.45-.67.45-1.19 0-.52-.16-.93-.47-1.2-.31-.3-.77-.43-1.38-.43h-.98v-1.32zm12.52 1.54c0 1.43-.26 2.51-.8 3.24-.53.72-1.35 1.09-2.44 1.09-1.08 0-1.89-.36-2.43-1.07a5.2 5.2 0 0 1-.84-3.14V11.2c0-1.43.27-2.5.8-3.22.54-.71 1.36-1.07 2.45-1.07 1.1 0 1.9.35 2.44 1.05.54.7.81 1.74.82 3.13v1.72zm-1.66-1.86a4.2 4.2 0 0 0-.38-2.05c-.25-.44-.66-.66-1.22-.66-.54 0-.94.2-1.2.62a3.89 3.89 0 0 0-.4 1.93v2.26c0 .93.13 1.62.4 2.08.25.45.66.68 1.22.68.53 0 .93-.21 1.18-.63.26-.42.4-1.08.4-1.98v-2.25zM277 19l14-14v14h-14zm29-13.13h3V19h-9V5.87h3V5h3v.88zm-49.02 2.15A14.93 14.93 0 0 1 266 5c3.39 0 6.51 1.12 9.02 3.02L266 19l-9.02-10.98zM150 126h62v2h-62v-2zm14.93-17v-9.95h2.94c.88 0 1.66.2 2.34.58a4 4 0 0 1 1.58 1.67c.38.72.56 1.55.56 2.48v.5c0 .94-.18 1.77-.56 2.48a3.96 3.96 0 0 1-1.6 1.66c-.7.39-1.5.58-2.4.58h-2.86zm1.73-8.56v7.18h1.13c.9 0 1.6-.29 2.09-.85.48-.57.73-1.38.74-2.45v-.55c0-1.08-.24-1.9-.7-2.47a2.53 2.53 0 0 0-2.05-.86h-1.21zm12.84 6.24h-3.85l-.8 2.32h-1.8l3.75-9.95h1.55l3.77 9.95h-1.8l-.82-2.32zm-3.37-1.4h2.89l-1.45-4.12-1.44 4.13zm9.34-1.52 2.3-4.71h1.9l-3.33 6.29V109h-1.74v-3.66l-3.34-6.3h1.92l2.29 4.72zm10.38 2.68c0-.44-.16-.78-.46-1.01a5.53 5.53 0 0 0-1.67-.72 8.03 8.03 0 0 1-1.91-.81c-.9-.57-1.36-1.31-1.36-2.23 0-.8.32-1.46.98-1.98.65-.52 1.5-.78 2.54-.78.7 0 1.31.13 1.86.38a3.04 3.04 0 0 1 1.27 1.1c.31.47.47.99.47 1.56h-1.72c0-.52-.17-.92-.5-1.22-.32-.3-.78-.44-1.39-.44-.56 0-1 .12-1.32.36a1.2 1.2 0 0 0-.46 1.01c0 .37.16.67.5.92.34.24.9.48 1.67.7.78.24 1.4.5 1.87.8.47.29.81.62 1.03 1 .22.39.33.83.33 1.34 0 .83-.32 1.5-.96 1.98-.63.5-1.5.74-2.58.74-.72 0-1.39-.14-1.99-.4a3.34 3.34 0 0 1-1.4-1.1 2.75 2.75 0 0 1-.51-1.65h1.73c0 .57.19 1 .56 1.31.37.31.9.47 1.6.47.6 0 1.06-.12 1.36-.37a1.18 1.18 0 0 0 .46-.96z"/></g></svg>