<svg xmlns="http://www.w3.org/2000/svg" width="344" height="257"><g fill="none" fill-rule="evenodd"><path fill="#E1E2E2" fill-rule="nonzero" d="M37 54h291v-1H37v1zm0 20h291v-1H37v1zm0 20h291v-1H37v1zm0 20h291v-1H37v1zm0 20h291v-1H37v1zm0 20h291v-1H37v1zm0 20h291v-1H37v1z"/><path fill="#FF3997" fill-rule="nonzero" d="M310 43h18v131h-18z"/><path fill="#992053" fill-rule="nonzero" d="M310 74h18v100h-18z"/><path fill="#46799A" fill-rule="nonzero" d="M289 53h18v121h-18V53zM37 108h18v66H37v-66zm21 15h18v51H58v-51zm21 5h18v46H79v-46zm21-65h18v111h-18V63zm21 0h18v111h-18V63zm21 5h18v106h-18V68zm21 0h18v106h-18V68zm21-21h18v127h-18V47zm21 98h18v29h-18v-29zm21-6h18v35h-18v-35zm21-71h18v106h-18V68zm21-21h18v127h-18V47z"/><path fill="#23354B" fill-rule="nonzero" d="M289 95h18v79h-18V95zM37 128h18v46H37v-46zm21 13h18v33H58v-33zm21 4h18v29H79v-29zm21-61h18v90h-18V84zm21 15h18v75h-18V99zm21-7h18v82h-18V92zm21 16h18v66h-18v-66zm21-24h18v90h-18V84zm21 75h18v15h-18v-15zm21-11h18v26h-18v-26zm21-56h18v82h-18V92zm21-15h18v97h-18V77z"/><path fill="#1A1A1A" d="M21.09 18.05h1.72v6.98c0 .95-.3 1.7-.9 2.27a3.3 3.3 0 0 1-2.35.84 3.4 3.4 0 0 1-2.4-.79 2.84 2.84 0 0 1-.85-2.19h1.72c0 .53.13.93.4 1.2s.63.4 1.13.4c.47 0 .84-.16 1.11-.47.28-.3.42-.73.42-1.27v-6.97zM29.04 28a2.53 2.53 0 0 1-.19-.69 2.59 2.59 0 0 1-1.94.83 2.6 2.6 0 0 1-1.82-.64 2.03 2.03 0 0 1-.7-1.57c0-.79.29-1.4.88-1.82a4.25 4.25 0 0 1 2.5-.63h1.03V23c0-.39-.11-.7-.32-.92-.22-.23-.54-.35-.98-.35-.38 0-.69.1-.93.29a.88.88 0 0 0-.36.72h-1.67c0-.4.14-.79.4-1.14a2.7 2.7 0 0 1 1.1-.83c.47-.2.98-.3 1.55-.3.87 0 1.56.21 2.07.65.52.43.78 1.05.8 1.83v3.34c0 .67.1 1.2.28 1.6V28h-1.7zm-1.82-1.2c.33 0 .64-.08.92-.24.3-.16.51-.37.66-.64v-1.4h-.9c-.61 0-1.08.11-1.39.33-.3.21-.46.52-.46.9 0 .33.1.58.32.77.2.19.5.28.85.28zm6.52-6.2.05.86c.54-.66 1.26-1 2.15-1 1.54 0 2.33.89 2.35 2.65V28h-1.66v-4.8c0-.46-.1-.8-.3-1.03-.2-.23-.54-.34-1-.34-.67 0-1.17.3-1.5.9V28h-1.66v-7.4h1.57zM50.06 28h-6.7v-1.14l3.32-3.62c.48-.53.82-.98 1.02-1.33.2-.36.3-.72.3-1.08 0-.47-.13-.86-.4-1.15-.26-.3-.62-.44-1.07-.44-.54 0-.95.17-1.25.5-.3.32-.45.77-.45 1.34h-1.66c0-.6.14-1.15.42-1.63.27-.5.67-.87 1.18-1.14.51-.26 1.1-.4 1.77-.4.97 0 1.73.24 2.29.73.56.48.84 1.16.84 2.01 0 .5-.14 1.02-.42 1.56a8.85 8.85 0 0 1-1.38 1.86l-2.43 2.6h4.62V28zm6.88-3.55h1.24v1.33h-1.24V28h-1.66v-2.21h-4.3l-.05-1.02 4.3-6.72h1.71v6.4zm-4.26 0h2.6V20.3l-.12.21-2.48 3.94zm6.94 5.8-.9-.54c.27-.42.45-.78.55-1.09.1-.3.15-.62.15-.94V26.4h1.5v1.2a3.33 3.33 0 0 1-.37 1.45 3.6 3.6 0 0 1-.93 1.2zM72.53 28h-6.69v-1.14l3.32-3.62c.48-.53.82-.98 1.02-1.33.2-.36.3-.72.3-1.08 0-.47-.13-.86-.4-1.15-.26-.3-.62-.44-1.07-.44-.54 0-.96.17-1.25.5-.3.32-.45.77-.45 1.34h-1.66c0-.6.14-1.15.41-1.63.28-.5.67-.87 1.19-1.14.5-.26 1.1-.4 1.77-.4.97 0 1.73.24 2.29.73.55.48.83 1.16.83 2.01 0 .5-.14 1.02-.42 1.56a8.89 8.89 0 0 1-1.37 1.86l-2.44 2.6h4.62V28zm7.75-4.19c0 1.43-.26 2.51-.8 3.24-.53.72-1.35 1.09-2.44 1.09-1.08 0-1.89-.36-2.43-1.07a5.2 5.2 0 0 1-.84-3.14V22.2c0-1.43.27-2.5.8-3.22.54-.71 1.36-1.07 2.45-1.07 1.1 0 1.9.35 2.44 1.05.54.7.81 1.74.82 3.13v1.72zm-1.66-1.86c0-.93-.12-1.62-.38-2.05-.25-.44-.66-.66-1.22-.66-.54 0-.94.2-1.2.62a3.89 3.89 0 0 0-.4 1.93v2.26c0 .93.13 1.62.4 2.08.26.45.66.68 1.22.68.53 0 .92-.21 1.18-.63.26-.42.4-1.08.4-1.98v-2.25zM86.25 28H84.6v-8l-2.44.84v-1.4l3.88-1.43h.21V28zm8.17-4.16a2.6 2.6 0 0 1-1.95.88 2.6 2.6 0 0 1-2.09-.92 3.6 3.6 0 0 1-.78-2.42c0-.65.14-1.25.4-1.78.26-.54.64-.95 1.13-1.25a3.2 3.2 0 0 1 1.7-.44c1 0 1.79.37 2.38 1.12.59.75.88 1.75.88 3v.47c0 1.8-.4 3.16-1.22 4.1-.8.95-2.02 1.43-3.63 1.44h-.2v-1.37h.25a3.4 3.4 0 0 0 2.25-.71c.52-.46.82-1.17.88-2.12zm-1.6-.42c.34 0 .65-.1.94-.29.29-.19.52-.45.68-.79v-.65a3.1 3.1 0 0 0-.46-1.77c-.3-.45-.69-.67-1.16-.67-.48 0-.86.2-1.15.6-.28.39-.43.88-.43 1.48 0 .63.15 1.13.43 1.52.3.38.67.57 1.15.57zm-73.6 194.03 1.81-5.56h1.36L19.83 219h-1.2l-2.54-7.11h1.35l1.79 5.56zm5.12 1.55h-1.19v-5.28h1.19V219zm-1.26-6.66a.63.63 0 0 1 .17-.45c.12-.12.28-.18.5-.18.21 0 .38.06.5.18a.63.63 0 0 1 .17.46.61.61 0 0 1-.17.44.67.67 0 0 1-.5.18c-.22 0-.38-.06-.5-.18a.61.61 0 0 1-.17-.44zm4.88 6.76c-.75 0-1.36-.24-1.83-.71-.47-.48-.7-1.1-.7-1.9v-.14c0-.53.1-1 .3-1.41.2-.42.5-.74.86-.97a2.27 2.27 0 0 1 1.23-.35c.72 0 1.28.23 1.67.69.4.46.59 1.1.59 1.95v.47h-3.46c.04.44.19.79.44 1.04.26.25.58.38.97.38.54 0 .98-.22 1.32-.66l.64.61a2.13 2.13 0 0 1-.84.74c-.36.17-.75.26-1.2.26zm-.14-4.53a1 1 0 0 0-.8.34c-.2.23-.32.55-.38.96h2.26v-.1a1.47 1.47 0 0 0-.31-.9 1 1 0 0 0-.77-.3zm7.82 2.8.84-3.65h1.16L36.2 219h-.98l-1.13-3.63-1.12 3.63H32l-1.45-5.28h1.16l.85 3.6 1.09-3.6h.89l1.1 3.64zm5.75.2a.54.54 0 0 0-.26-.49 2.8 2.8 0 0 0-.87-.3 4.46 4.46 0 0 1-1-.31c-.6-.3-.9-.7-.9-1.25 0-.45.2-.84.58-1.14.38-.3.87-.46 1.46-.46.64 0 1.15.15 1.53.47.4.31.59.72.59 1.21h-1.19a.73.73 0 0 0-.25-.57.98.98 0 0 0-.68-.22c-.26 0-.47.06-.63.18a.57.57 0 0 0-.25.48.48.48 0 0 0 .23.43c.15.1.46.2.93.3.46.1.83.23 1.1.37.26.14.46.31.58.5.13.2.2.45.2.73 0 .48-.2.86-.6 1.16-.39.29-.9.44-1.54.44a2.7 2.7 0 0 1-1.16-.24 1.9 1.9 0 0 1-.79-.64 1.53 1.53 0 0 1-.28-.88h1.15c.02.28.12.5.32.64.2.15.45.23.77.23s.55-.06.72-.18a.55.55 0 0 0 .24-.47zM25.56 238h-8.6v-1.47l4.26-4.65c.62-.68 1.05-1.25 1.31-1.71.26-.46.4-.93.4-1.39 0-.61-.18-1.1-.52-1.48-.34-.37-.8-.56-1.38-.56-.7 0-1.23.21-1.61.63-.38.43-.57 1-.57 1.74H16.7c0-.78.18-1.48.53-2.11a3.66 3.66 0 0 1 1.52-1.45 4.84 4.84 0 0 1 2.28-.52c1.25 0 2.23.3 2.94.93a3.25 3.25 0 0 1 1.08 2.6c0 .63-.18 1.3-.54 2-.36.7-.95 1.5-1.77 2.39l-3.13 3.35h5.94v1.7zm8.27-12.86v1.77h-.26c-1.2.02-2.15.34-2.87.98a4.11 4.11 0 0 0-1.27 2.72 3.47 3.47 0 0 1 2.63-1.08c1.13 0 2.02.4 2.67 1.2s.98 1.82.98 3.08a4.4 4.4 0 0 1-1.14 3.16c-.77.8-1.77 1.2-3.01 1.2a3.87 3.87 0 0 1-3.11-1.4 5.57 5.57 0 0 1-1.2-3.72v-.73c0-2.24.55-4 1.65-5.27 1.1-1.27 2.66-1.9 4.71-1.9h.22zm-2.3 6.11c-.46 0-.89.13-1.28.4a2.3 2.3 0 0 0-.86 1.05v.65c0 .95.2 1.7.6 2.26.4.56.92.84 1.55.84a1.8 1.8 0 0 0 1.5-.7c.37-.48.56-1.1.56-1.88 0-.77-.2-1.4-.57-1.9a1.8 1.8 0 0 0-1.5-.72z"/><path fill="#969CA1" d="m104.23 217.45 1.8-5.56h1.36l-2.56 7.11h-1.2l-2.54-7.11h1.35l1.79 5.56zm5.11 1.55h-1.19v-5.28h1.19V219zm-1.26-6.66a.63.63 0 0 1 .17-.45c.12-.12.28-.18.5-.18.21 0 .38.06.5.18a.63.63 0 0 1 .17.46.61.61 0 0 1-.17.44.67.67 0 0 1-.5.18c-.22 0-.38-.06-.5-.18a.61.61 0 0 1-.17-.44zm5.51 5.22a.54.54 0 0 0-.26-.48c-.17-.1-.46-.2-.86-.3a4.46 4.46 0 0 1-1.01-.31c-.6-.3-.9-.7-.9-1.25 0-.46.2-.84.58-1.14.39-.3.87-.46 1.47-.46.63 0 1.14.15 1.53.47.39.31.58.72.58 1.21h-1.19a.73.73 0 0 0-.25-.57.98.98 0 0 0-.67-.22c-.26 0-.48.06-.64.18a.57.57 0 0 0-.25.48.48.48 0 0 0 .23.43c.16.1.46.2.93.3.47.1.83.23 1.1.37.26.14.46.31.59.5.13.2.19.45.19.73 0 .48-.2.86-.6 1.16-.38.29-.9.44-1.54.44a2.7 2.7 0 0 1-1.16-.24 1.9 1.9 0 0 1-.79-.64 1.53 1.53 0 0 1-.28-.88h1.15c.02.28.12.5.32.64.2.15.45.23.78.23.3 0 .55-.06.7-.18a.55.55 0 0 0 .25-.47zm3.47 1.44h-1.2v-5.28h1.2V219zm-1.26-6.66a.63.63 0 0 1 .17-.45c.11-.12.28-.18.5-.18.2 0 .37.06.5.18a.63.63 0 0 1 .17.46.61.61 0 0 1-.18.44.67.67 0 0 1-.5.18.68.68 0 0 1-.5-.18.61.61 0 0 1-.16-.44zm4.03.1v1.28h.94v.88h-.94v2.94c0 .2.04.35.12.44.08.1.23.14.43.14a2 2 0 0 0 .42-.05v.91c-.27.08-.53.12-.79.12-.9 0-1.36-.5-1.36-1.51v-3h-.87v-.87h.87v-1.29h1.18zm1.47 3.87c0-.52.1-.98.31-1.4.2-.41.5-.73.86-.96a2.44 2.44 0 0 1 1.28-.33c.72 0 1.3.23 1.74.69.44.46.68 1.06.72 1.82v.28c0 .52-.1.99-.3 1.4-.2.4-.48.73-.86.95a2.45 2.45 0 0 1-1.29.34 2.3 2.3 0 0 1-1.79-.75 2.85 2.85 0 0 1-.67-1.98v-.06zm1.19.1c0 .55.11.97.34 1.28.22.3.53.46.93.46s.72-.16.94-.47c.22-.31.33-.77.33-1.37 0-.53-.11-.96-.34-1.27a1.1 1.1 0 0 0-.94-.47 1.09 1.09 0 0 0-.92.46c-.23.31-.34.77-.34 1.38zm7.5-1.6a2.94 2.94 0 0 0-.49-.05c-.54 0-.9.21-1.1.63V219h-1.18v-5.28h1.13l.03.59a1.33 1.33 0 0 1 1.61-.62v1.11zm3.7 2.75a.54.54 0 0 0-.25-.48c-.18-.1-.47-.2-.87-.3a4.46 4.46 0 0 1-1.01-.31c-.6-.3-.9-.7-.9-1.25 0-.45.2-.84.58-1.14.39-.3.88-.46 1.47-.46.63 0 1.14.15 1.53.47.39.31.58.72.58 1.21h-1.18a.73.73 0 0 0-.26-.57.98.98 0 0 0-.67-.22c-.26 0-.47.06-.64.18a.57.57 0 0 0-.24.48.48.48 0 0 0 .23.43c.15.1.46.2.92.3.47.1.83.23 1.1.37.26.14.46.31.59.5a1.3 1.3 0 0 1 .2.73c0 .48-.2.86-.6 1.16-.4.29-.9.44-1.55.44-.43 0-.81-.08-1.15-.24a1.9 1.9 0 0 1-.8-.64 1.53 1.53 0 0 1-.28-.88h1.16c.01.28.12.5.31.64.2.15.46.23.78.23.31 0 .55-.06.71-.18a.55.55 0 0 0 .25-.47zM110.57 238h-8.6v-1.47l4.26-4.65c.62-.68 1.05-1.25 1.32-1.71.25-.46.38-.93.38-1.39 0-.61-.17-1.1-.5-1.48a1.83 1.83 0 0 0-1.4-.56c-.68 0-1.22.21-1.6.63-.38.43-.57 1-.57 1.74h-2.14c0-.78.18-1.48.53-2.11a3.66 3.66 0 0 1 1.52-1.45 4.84 4.84 0 0 1 2.28-.52c1.25 0 2.23.3 2.94.93a3.25 3.25 0 0 1 1.08 2.6c0 .63-.18 1.3-.54 2-.36.7-.95 1.5-1.77 2.39l-3.13 3.35h5.94v1.7zm4.1-7.37h1.3a2.36 2.36 0 0 0 1.56-.51c.38-.34.58-.82.58-1.45 0-.61-.16-1.09-.48-1.42-.32-.34-.81-.5-1.47-.5-.57 0-1.04.16-1.41.49-.37.33-.56.76-.56 1.3h-2.13c0-.66.17-1.26.52-1.8a3.5 3.5 0 0 1 1.46-1.26c.62-.3 1.32-.45 2.1-.45a4.4 4.4 0 0 1 3 .96c.74.64 1.1 1.53 1.1 2.68a2.7 2.7 0 0 1-.55 1.62c-.37.5-.84.89-1.42 1.15.7.24 1.24.61 1.6 1.13.37.51.56 1.13.56 1.84 0 1.15-.4 2.07-1.19 2.75a4.59 4.59 0 0 1-3.1 1.02 4.55 4.55 0 0 1-3.03-.99 3.24 3.24 0 0 1-1.17-2.62h2.13c0 .57.19 1.02.57 1.37.38.36.88.53 1.52.53a2.2 2.2 0 0 0 1.57-.53c.38-.35.57-.86.57-1.53s-.2-1.19-.6-1.55c-.4-.36-.99-.55-1.77-.55h-1.26v-1.68zm83.3-12.62h3.23v.99h-4.47v-7.11h1.24v6.12zm5.32.99h-1.19v-5.28h1.19V219zm-1.26-6.66a.63.63 0 0 1 .17-.45c.12-.12.28-.18.5-.18.21 0 .38.06.5.18a.63.63 0 0 1 .17.46.61.61 0 0 1-.17.44.67.67 0 0 1-.5.18.68.68 0 0 1-.5-.18.61.61 0 0 1-.17-.44zm4.27 4.4-.53.54V219h-1.19v-7.5h1.2v4.33l.36-.47 1.46-1.64h1.43l-1.96 2.2 2.17 3.08h-1.37l-1.57-2.27zm5.73 2.36c-.75 0-1.36-.24-1.83-.71-.46-.48-.7-1.1-.7-1.9v-.14c0-.53.1-1 .3-1.42a2.34 2.34 0 0 1 .86-.97 2.27 2.27 0 0 1 1.23-.34c.72 0 1.28.23 1.67.69.4.46.59 1.1.59 1.95v.47h-3.45c.03.44.18.79.44 1.04.25.25.57.38.96.38.54 0 .99-.22 1.33-.66l.64.61a2.13 2.13 0 0 1-.85.74 2.64 2.64 0 0 1-1.19.26zm-.14-4.53a1 1 0 0 0-.79.34c-.2.23-.33.55-.38.96h2.26v-.1a1.47 1.47 0 0 0-.32-.9.99.99 0 0 0-.77-.3zm6.14 3a.54.54 0 0 0-.26-.49 3.5 3.5 0 0 0-.87-.3 4.46 4.46 0 0 1-1-.31c-.6-.3-.9-.7-.9-1.25 0-.46.2-.84.58-1.14.38-.3.87-.46 1.47-.46.63 0 1.14.15 1.53.47.39.31.58.72.58 1.21h-1.19a.73.73 0 0 0-.25-.57.98.98 0 0 0-.67-.22c-.26 0-.48.06-.64.18a.57.57 0 0 0-.25.48.48.48 0 0 0 .23.43c.15.1.46.2.93.3.46.1.83.23 1.1.37.26.14.46.31.59.5.13.2.19.45.19.73 0 .48-.2.86-.6 1.16-.39.29-.9.44-1.54.44a2.7 2.7 0 0 1-1.16-.24 1.9 1.9 0 0 1-.79-.64 1.53 1.53 0 0 1-.28-.88h1.15c.02.28.12.5.32.64.2.15.45.23.77.23s.55-.06.72-.18a.55.55 0 0 0 .24-.47zm-18.6 13.06h1.3a2.37 2.37 0 0 0 1.57-.51c.38-.34.57-.82.57-1.45 0-.61-.16-1.09-.47-1.42-.32-.34-.81-.5-1.47-.5-.57 0-1.04.16-1.41.49-.37.33-.56.76-.56 1.3h-2.13c0-.66.17-1.26.52-1.8a3.5 3.5 0 0 1 1.46-1.26c.62-.3 1.32-.45 2.1-.45a4.4 4.4 0 0 1 3 .96c.74.64 1.1 1.53 1.1 2.68a2.7 2.7 0 0 1-.55 1.62 3.45 3.45 0 0 1-1.42 1.15c.7.24 1.24.61 1.6 1.13.37.51.56 1.13.56 1.84 0 1.15-.4 2.07-1.19 2.75a4.59 4.59 0 0 1-3.1 1.02 4.55 4.55 0 0 1-3.03-.99 3.24 3.24 0 0 1-1.18-2.62h2.14c0 .57.19 1.02.57 1.37.38.36.88.53 1.52.53a2.2 2.2 0 0 0 1.57-.53c.38-.35.57-.86.57-1.53s-.2-1.19-.6-1.55c-.4-.36-.99-.55-1.77-.55h-1.26v-1.68zm84.73-13.94a2.57 2.57 0 0 1-.84 1.77c-.5.42-1.14.64-1.95.64-.57 0-1.07-.14-1.5-.4a2.64 2.64 0 0 1-1-1.15 4.15 4.15 0 0 1-.36-1.72v-.67c0-.67.12-1.26.35-1.77a2.69 2.69 0 0 1 1.03-1.18c.44-.28.96-.42 1.54-.42.78 0 1.41.22 1.9.64.47.43.75 1.03.83 1.8h-1.23c-.06-.5-.21-.87-.45-1.1a1.5 1.5 0 0 0-1.05-.34c-.54 0-.95.2-1.24.6-.29.39-.43.96-.44 1.72v.63c0 .77.14 1.35.41 1.76.28.4.68.6 1.2.6.5 0 .86-.1 1.1-.33.25-.21.4-.58.47-1.08h1.23zm.76-.38c0-.52.1-.98.31-1.4a2.25 2.25 0 0 1 .87-.96 2.44 2.44 0 0 1 1.28-.33c.7 0 1.29.23 1.73.69.44.46.68 1.06.72 1.82v.28c0 .52-.1.99-.3 1.4-.2.4-.48.73-.85.95a2.45 2.45 0 0 1-1.3.34 2.3 2.3 0 0 1-1.79-.75 2.85 2.85 0 0 1-.67-1.98v-.06zm1.2.1c0 .55.1.97.33 1.28.22.3.54.46.94.46s.7-.16.93-.47c.22-.31.34-.77.34-1.37 0-.53-.12-.96-.35-1.27a1.1 1.1 0 0 0-.94-.47 1.09 1.09 0 0 0-.92.46c-.22.31-.34.77-.34 1.38zm5.84-2.7.03.56a1.9 1.9 0 0 1 1.52-.65c.7 0 1.2.27 1.45.8.39-.53.93-.8 1.62-.8.59 0 1.02.16 1.3.48.29.33.44.8.44 1.43V219h-1.18v-3.44c0-.33-.08-.58-.22-.73-.15-.16-.4-.24-.73-.24-.27 0-.5.07-.66.22a1.16 1.16 0 0 0-.36.57V219h-1.18v-3.48c-.02-.62-.34-.93-.96-.93-.47 0-.8.2-1 .58V219h-1.2v-5.28h1.13zm8.7 0 .03.56a1.9 1.9 0 0 1 1.52-.65c.71 0 1.2.27 1.45.8.39-.53.93-.8 1.63-.8.58 0 1.01.16 1.3.48.28.33.43.8.43 1.43V219h-1.18v-3.44c0-.33-.08-.58-.22-.73-.15-.16-.4-.24-.73-.24a.99.99 0 0 0-.66.22 1.16 1.16 0 0 0-.36.57V219h-1.18v-3.48c-.02-.62-.34-.93-.95-.93-.48 0-.82.2-1.01.58V219h-1.2v-5.28h1.13zm9.9 5.39c-.74 0-1.35-.24-1.82-.71-.47-.48-.7-1.1-.7-1.9v-.14c0-.53.1-1 .3-1.41a2.34 2.34 0 0 1 .86-.97 2.27 2.27 0 0 1 1.23-.35c.72 0 1.28.23 1.67.69.4.46.59 1.1.59 1.95v.47h-3.45c.03.44.18.79.43 1.04.26.25.58.38.97.38.54 0 .98-.22 1.33-.66l.64.61a2.14 2.14 0 0 1-.85.74c-.36.17-.75.26-1.2.26zm-.13-4.53a1 1 0 0 0-.8.34c-.2.23-.32.55-.37.96h2.26v-.1a1.53 1.53 0 0 0-.32-.9.99.99 0 0 0-.77-.3zm4.28-.85.03.6c.4-.46.9-.7 1.54-.7 1.1 0 1.66.63 1.68 1.89V219h-1.18v-3.42c0-.34-.08-.59-.22-.75-.15-.16-.38-.24-.71-.24-.48 0-.84.22-1.07.65V219h-1.19v-5.28h1.12zm5.95-1.29v1.29h.93v.88h-.93v2.94c0 .2.04.35.12.44.08.1.22.14.42.14a2 2 0 0 0 .42-.05v.91c-.27.08-.53.12-.78.12-.91 0-1.37-.5-1.37-1.51v-3h-.87v-.87h.87v-1.29h1.19zm4.8 5.13a.54.54 0 0 0-.26-.48c-.18-.1-.47-.2-.87-.3a4.46 4.46 0 0 1-1.01-.31c-.6-.3-.9-.7-.9-1.25 0-.46.2-.84.59-1.14.38-.3.87-.46 1.46-.46.63 0 1.14.15 1.53.47.39.31.58.72.58 1.21h-1.18a.73.73 0 0 0-.26-.57.98.98 0 0 0-.67-.22c-.26 0-.47.06-.64.18a.57.57 0 0 0-.24.48.48.48 0 0 0 .23.43c.15.1.46.2.92.3.47.1.83.23 1.1.37.27.14.46.31.59.5a1.3 1.3 0 0 1 .2.73c0 .48-.2.86-.6 1.16-.4.29-.9.44-1.54.44-.44 0-.82-.08-1.16-.24a1.9 1.9 0 0 1-.8-.64 1.53 1.53 0 0 1-.28-.88h1.16c.01.28.12.5.31.64.2.15.46.23.78.23.31 0 .55-.06.71-.18a.55.55 0 0 0 .25-.47zM284.75 238h-2.14v-10.27l-3.13 1.07V227l4.99-1.84h.27V238zM21.24 56h-4.66v-.65l2.46-2.73c.37-.42.62-.75.76-1.01a1.69 1.69 0 0 0 .2-.8c0-.38-.1-.68-.33-.92a1.18 1.18 0 0 0-.9-.35c-.45 0-.8.12-1.05.38-.25.25-.37.61-.37 1.07h-.9c0-.66.2-1.19.63-1.6.42-.4.98-.6 1.69-.6.66 0 1.18.18 1.57.52.38.35.57.81.57 1.39 0 .7-.44 1.53-1.33 2.5l-1.9 2.06h3.56V56zm4.77-2.39H27v.74h-.99V56h-.9v-1.65h-3.25v-.53l3.19-4.93h.96v4.72zm-3.12 0h2.21v-3.48l-.1.2-2.11 3.28zM21.25 76h-4.66v-.65l2.46-2.73c.37-.42.62-.75.76-1.01a1.69 1.69 0 0 0 .2-.8c0-.38-.1-.68-.33-.92a1.18 1.18 0 0 0-.9-.35c-.45 0-.8.12-1.05.38-.25.25-.37.61-.37 1.07h-.9c0-.66.2-1.19.63-1.6.42-.4.98-.6 1.69-.6.66 0 1.18.18 1.57.52.38.35.57.81.57 1.39 0 .7-.44 1.53-1.33 2.5l-1.9 2.06h3.56V76zm5.42-3.03c0 1.06-.19 1.84-.55 2.36-.36.51-.92.77-1.7.77-.75 0-1.31-.25-1.68-.76a3.93 3.93 0 0 1-.56-2.25v-1.2c0-1.05.18-1.83.54-2.34.36-.5.93-.76 1.7-.76.76 0 1.33.25 1.69.74.36.49.55 1.24.56 2.27v1.17zm-.9-1.24c0-.76-.12-1.32-.33-1.67a1.12 1.12 0 0 0-1.02-.53c-.46 0-.8.18-1.01.53-.21.35-.32.88-.33 1.6v1.45c0 .77.11 1.33.34 1.7.22.37.56.55 1 .55.46 0 .79-.17 1-.52.22-.34.33-.89.34-1.63v-1.48zM19.55 96h-.9v-6.02l-1.83.67v-.82l2.59-.97h.14V96zm6.2-7.11v.76h-.18c-.7.01-1.26.22-1.68.63-.41.4-.65.97-.72 1.7.38-.43.89-.64 1.54-.64.61 0 1.1.21 1.48.65.37.44.55 1 .55 1.7 0 .72-.2 1.3-.6 1.75-.4.44-.93.66-1.6.66-.68 0-1.23-.26-1.66-.79a3.1 3.1 0 0 1-.63-2.02v-.34c0-1.31.28-2.31.84-3 .55-.7 1.39-1.05 2.49-1.06h.16zm-1.2 3.2c-.3 0-.59.1-.85.28a1.45 1.45 0 0 0-.54.7v.33c0 .58.13 1.05.4 1.41.26.36.59.54.98.54.4 0 .73-.15.96-.45.23-.3.35-.69.35-1.18 0-.48-.12-.88-.36-1.18a1.14 1.14 0 0 0-.94-.45zm-5 23.91h-.9v-6.02l-1.83.67v-.82l2.59-.97h.14V116zm7.3 0H22.2v-.65l2.46-2.73c.36-.42.61-.75.75-1.01s.2-.53.2-.8c0-.38-.1-.68-.33-.92a1.18 1.18 0 0 0-.9-.35c-.45 0-.8.12-1.04.38-.25.25-.38.61-.38 1.07h-.9c0-.66.21-1.19.63-1.6.42-.4.99-.6 1.7-.6.65 0 1.18.18 1.56.52.38.35.58.81.58 1.39 0 .7-.45 1.53-1.34 2.5l-1.9 2.06h3.56v.74zm-5.96 14.75c0 .35-.1.67-.28.94a1.91 1.91 0 0 1-.76.65c.37.16.67.4.88.7.22.3.33.65.33 1.04 0 .62-.2 1.1-.62 1.47a2.4 2.4 0 0 1-1.64.55c-.69 0-1.23-.18-1.64-.55a1.87 1.87 0 0 1-.62-1.47c0-.38.1-.73.31-1.04.21-.3.5-.54.87-.7a1.86 1.86 0 0 1-.74-.65 1.67 1.67 0 0 1-.28-.94c0-.6.2-1.08.58-1.43.38-.35.89-.53 1.52-.53.62 0 1.13.18 1.51.53.39.35.58.83.58 1.43zm-.74 3.31c0-.4-.12-.72-.37-.97a1.35 1.35 0 0 0-1-.38c-.4 0-.72.13-.97.37s-.37.58-.37.98.12.72.36.95c.24.23.57.35 1 .35.42 0 .75-.12 1-.35.23-.23.35-.55.35-.95zm-1.35-4.52c-.36 0-.64.1-.86.33a1.2 1.2 0 0 0-.33.9c0 .35.1.64.32.87.22.22.5.33.87.33.36 0 .65-.11.86-.33.22-.23.33-.52.33-.88s-.11-.65-.34-.88a1.15 1.15 0 0 0-.85-.34zm1.6 24.07h.98v.74h-.99V156h-.9v-1.65h-3.24v-.53l3.18-4.93h.97v4.72zm-3.13 0h2.22v-3.48l-.11.2-2.1 3.28zm3.77 19.36c0 1.06-.18 1.84-.54 2.36-.36.51-.93.77-1.7.77-.76 0-1.32-.25-1.68-.76a3.92 3.92 0 0 1-.57-2.25v-1.2c0-1.05.18-1.83.54-2.34.36-.5.93-.76 1.7-.76.77 0 1.33.25 1.7.74.35.49.54 1.24.55 2.27v1.17zm-.9-1.24c0-.76-.11-1.32-.33-1.67-.21-.35-.55-.52-1.02-.52-.46 0-.8.17-1 .52-.22.35-.33.88-.33 1.6v1.45c0 .77.1 1.33.33 1.7.22.37.56.55 1.01.55.45 0 .78-.17 1-.52.21-.34.33-.89.34-1.63v-1.48zm19.65 9.16h.95v5.04c0 .68-.2 1.2-.62 1.6-.4.38-.95.57-1.63.57-.7 0-1.26-.18-1.65-.54-.4-.37-.6-.87-.6-1.52h.95c0 .4.1.72.33.95.22.23.55.34.97.34.39 0 .7-.12.94-.36s.36-.6.36-1.03v-5.05zm5.66 7.11c-.05-.1-.1-.29-.12-.56-.42.44-.93.66-1.5.66-.53 0-.96-.15-1.29-.44a1.43 1.43 0 0 1-.5-1.12c0-.55.2-.98.63-1.29.42-.3 1-.45 1.76-.45h.88v-.42c0-.31-.1-.56-.28-.75-.2-.19-.47-.28-.84-.28-.32 0-.59.08-.8.24a.7.7 0 0 0-.33.6h-.91c0-.27.1-.53.28-.77.18-.25.44-.44.76-.59a2.6 2.6 0 0 1 1.06-.21c.6 0 1.08.15 1.43.46.34.3.52.72.53 1.25v2.44c0 .48.07.87.19 1.15v.08h-.95zm-1.5-.69c.29 0 .56-.07.81-.22a1.33 1.33 0 0 0 .55-.57v-1.08h-.7c-1.11 0-1.67.32-1.67.97 0 .28.1.5.29.66.19.16.43.24.72.24zm4.54-4.6.03.67a1.93 1.93 0 0 1 1.58-.76c1.11 0 1.68.63 1.69 1.89V188h-.9v-3.5c-.01-.38-.1-.66-.27-.84-.17-.18-.44-.27-.8-.27-.29 0-.55.07-.77.23a1.6 1.6 0 0 0-.52.61V188h-.9v-5.28h.86zM58.5 188h-.9v-6.02l-1.83.67v-.82l2.59-.97h.14V188zm5.62 0h-.91v-6.02l-1.82.67v-.82l2.58-.97h.15V188zm2.7 1.42-.5-.36c.3-.42.46-.86.47-1.31v-.82h.88v.7c0 .34-.08.67-.24 1a2.31 2.31 0 0 1-.6.79zm9.04-1.42H71.2v-.65l2.46-2.73c.36-.42.62-.75.75-1.01.14-.26.21-.53.21-.8 0-.38-.1-.68-.33-.92a1.18 1.18 0 0 0-.9-.36c-.45 0-.8.13-1.05.39-.25.25-.37.61-.37 1.06h-.9c0-.65.2-1.18.63-1.58.42-.4.98-.6 1.69-.6.66 0 1.18.17 1.56.51.39.35.58.81.58 1.39 0 .7-.45 1.53-1.34 2.5l-1.9 2.06h3.57v.74zm5.41-3.03c0 1.06-.18 1.84-.54 2.36-.36.51-.92.77-1.7.77-.75 0-1.31-.25-1.68-.76a3.93 3.93 0 0 1-.56-2.25v-1.2c0-1.05.18-1.83.54-2.34.36-.5.93-.76 1.7-.76.76 0 1.32.25 1.69.74.36.49.54 1.24.55 2.27v1.17zm-.9-1.24c0-.76-.1-1.32-.32-1.67a1.12 1.12 0 0 0-1.02-.53c-.47 0-.8.18-1.01.53-.22.35-.32.88-.33 1.6v1.45c0 .77.11 1.33.33 1.7.23.37.56.55 1.02.55.44 0 .77-.17 1-.52.2-.34.32-.89.33-1.63v-1.48zM85.4 188h-.91v-6.02l-1.82.67v-.82l2.59-.97h.14V188zm6.1-3.13a2.21 2.21 0 0 1-.67.55 1.83 1.83 0 0 1-.86.2c-.41 0-.77-.1-1.07-.3a1.97 1.97 0 0 1-.7-.85 2.9 2.9 0 0 1-.26-1.22c0-.47.1-.9.27-1.28.18-.38.44-.67.77-.87.34-.2.72-.3 1.17-.3a2 2 0 0 1 1.66.78c.4.53.6 1.24.6 2.15v.27c0 1.38-.27 2.39-.81 3.03-.55.63-1.38.96-2.48.98h-.18v-.77h.2c.74-.01 1.31-.2 1.71-.58.4-.38.62-.97.66-1.78zm-1.38 0c.3 0 .58-.09.83-.27a1.64 1.64 0 0 0 .56-.7v-.35c0-.6-.13-1.08-.38-1.45a1.16 1.16 0 0 0-.98-.55 1.16 1.16 0 0 0-.96.45c-.24.3-.36.7-.36 1.2 0 .49.12.89.35 1.2.23.32.55.48.94.48zm184.6-3.98h.94v5.04c0 .67-.2 1.2-.62 1.6-.4.38-.95.57-1.63.57-.7 0-1.26-.18-1.65-.54-.4-.37-.6-.87-.6-1.52h.95c0 .4.1.72.33.95.22.23.55.34.97.34.39 0 .7-.12.94-.37s.36-.58.36-1.02v-5.05zm5.65 7.11c-.05-.1-.1-.29-.12-.56a2 2 0 0 1-1.5.66c-.53 0-.96-.15-1.29-.44a1.43 1.43 0 0 1-.5-1.12c0-.55.2-.98.63-1.29.42-.3 1-.45 1.76-.45h.88v-.42c0-.31-.1-.56-.28-.75-.2-.19-.47-.28-.84-.28-.32 0-.59.08-.8.24a.7.7 0 0 0-.33.6h-.91c0-.27.1-.53.28-.77.19-.25.44-.44.76-.59a2.6 2.6 0 0 1 1.06-.21c.6 0 1.08.15 1.43.46.34.3.52.72.54 1.25v2.44c0 .48.06.87.18 1.15v.08h-.95zm-1.5-.69c.29 0 .56-.07.8-.22a1.33 1.33 0 0 0 .56-.57v-1.08h-.7c-1.11 0-1.67.32-1.67.97 0 .28.1.5.29.66.19.16.43.24.72.24zm4.54-4.6.03.67a1.93 1.93 0 0 1 1.58-.76c1.11 0 1.68.63 1.69 1.89V188h-.9v-3.5c-.01-.38-.1-.66-.27-.84-.17-.18-.44-.27-.8-.27a1.3 1.3 0 0 0-.77.23 1.6 1.6 0 0 0-.52.61V188h-.9v-5.28h.86zm11.7 5.29h-4.66v-.65l2.46-2.73c.37-.42.62-.75.76-1.01.13-.26.2-.53.2-.8 0-.38-.1-.68-.33-.92a1.18 1.18 0 0 0-.9-.36c-.45 0-.8.13-1.05.39-.25.25-.37.61-.37 1.06h-.9c0-.65.2-1.18.63-1.58.42-.4.98-.6 1.69-.6.66 0 1.18.17 1.57.51.38.35.57.81.57 1.39 0 .7-.44 1.53-1.34 2.5l-1.9 2.06h3.57v.74zm4.77-2.39h.99v.74h-.99V188h-.9v-1.65h-3.25v-.53l3.19-4.93h.96v4.72zm-3.12 0h2.21v-3.48l-.1.2-2.11 3.28zm4.99 3.8-.52-.35c.3-.42.47-.86.48-1.31v-.82h.88v.7c0 .34-.08.67-.24 1a2.31 2.31 0 0 1-.6.79zm9.03-1.41h-4.66v-.65l2.46-2.73c.36-.42.62-.75.76-1.01.13-.26.2-.53.2-.8 0-.38-.11-.68-.33-.92a1.18 1.18 0 0 0-.9-.36c-.45 0-.8.13-1.05.39-.25.25-.37.61-.37 1.06h-.9c0-.65.2-1.18.62-1.58.43-.4 1-.6 1.7-.6.66 0 1.18.17 1.56.51.39.35.58.81.58 1.39 0 .7-.45 1.53-1.34 2.5l-1.9 2.06h3.57v.74zm5.41-3.03c0 1.06-.18 1.84-.54 2.36-.36.51-.92.77-1.7.77-.75 0-1.31-.25-1.68-.76a3.93 3.93 0 0 1-.56-2.25v-1.2c0-1.05.18-1.83.54-2.34.36-.5.93-.76 1.7-.76.76 0 1.33.25 1.69.74.36.49.54 1.24.55 2.27v1.17zm-.9-1.24c0-.76-.1-1.32-.32-1.67a1.12 1.12 0 0 0-1.02-.53c-.46 0-.8.18-1.01.53-.21.35-.32.88-.33 1.6v1.45c0 .77.11 1.33.33 1.7.23.37.56.55 1.02.55.44 0 .77-.17.99-.52.22-.34.33-.89.34-1.63v-1.48zm5.03 4.27h-.91v-6.02l-1.82.67v-.82l2.59-.97h.14V188zm6.1-3.13a2.21 2.21 0 0 1-.67.55c-.26.13-.55.2-.86.2-.41 0-.77-.1-1.07-.3a1.97 1.97 0 0 1-.7-.85 2.9 2.9 0 0 1-.26-1.22c0-.47.1-.9.27-1.28.18-.38.44-.67.77-.87.33-.2.72-.3 1.16-.3.7 0 1.26.26 1.67.78.4.53.6 1.24.6 2.15v.27c0 1.38-.27 2.39-.81 3.03-.55.63-1.38.96-2.48.98h-.18v-.77h.2c.74-.01 1.31-.2 1.71-.58.4-.38.62-.97.66-1.78zm-1.38 0c.3 0 .58-.09.83-.27a1.64 1.64 0 0 0 .56-.7v-.35c0-.6-.13-1.08-.38-1.45a1.16 1.16 0 0 0-.98-.55 1.16 1.16 0 0 0-.96.45c-.24.3-.36.7-.36 1.2 0 .49.12.89.35 1.2.23.32.54.48.94.48z"/><path fill="#1D7819" fill-rule="nonzero" d="M285.55 22.66h2.77v1.2h-2.77V27h-1.27v-3.14h-2.78v-1.2h2.78v-2.9h1.27v2.9zm10.7 5.34h-6.52v-.91l3.45-3.83c.5-.58.86-1.05 1.05-1.4a2.35 2.35 0 0 0 .3-1.13c0-.52-.16-.95-.48-1.28-.31-.33-.73-.5-1.25-.5-.63 0-1.12.18-1.47.54-.35.35-.52.85-.52 1.49h-1.27c0-.92.3-1.66.89-2.22a3.28 3.28 0 0 1 2.37-.85c.92 0 1.65.24 2.19.73.54.48.8 1.13.8 1.94 0 .98-.62 2.14-1.87 3.5l-2.66 2.89h5V28zm4.9-4.04c0-1.03.13-2.02.4-2.97a8.62 8.62 0 0 1 1.24-2.58 5.24 5.24 0 0 1 1.7-1.64l.26.83a5.45 5.45 0 0 0-1.64 2.34 10.12 10.12 0 0 0-.7 3.52v.58c0 1.76.32 3.29.96 4.58.39.78.85 1.38 1.38 1.82l-.26.77c-.6-.33-1.18-.9-1.74-1.7a9.5 9.5 0 0 1-1.6-5.55zm9.54-.34a3 3 0 0 1-.94.76 2.57 2.57 0 0 1-1.21.3c-.58 0-1.08-.15-1.5-.43a2.74 2.74 0 0 1-.99-1.2 4.07 4.07 0 0 1-.35-1.7c0-.66.13-1.26.38-1.8a2.79 2.79 0 0 1 1.08-1.22c.46-.28 1-.42 1.62-.42.99 0 1.76.37 2.33 1.1.57.74.85 1.74.85 3.01v.37c0 1.94-.38 3.35-1.15 4.25-.76.89-1.92 1.34-3.46 1.37h-.25v-1.07h.27a3.48 3.48 0 0 0 2.4-.82c.57-.52.87-1.36.92-2.5zm-1.95 0c.43 0 .82-.13 1.18-.39.35-.26.61-.58.78-.96v-.5c0-.83-.18-1.5-.54-2.03-.36-.52-.82-.78-1.37-.78-.56 0-1 .22-1.34.64-.34.43-.5.99-.5 1.69 0 .68.16 1.24.49 1.67.32.44.76.66 1.3.66zm4.86-3.66a1.97 1.97 0 0 1 2.04-2.06c.6 0 1.1.2 1.47.59.37.39.56.9.56 1.51v.49a2 2 0 0 1-.57 1.47c-.38.38-.87.57-1.45.57a2 2 0 0 1-1.47-.57 2.04 2.04 0 0 1-.58-1.52v-.48zm.94.53c0 .35.1.65.3.88a1 1 0 0 0 .8.34 1 1 0 0 0 .79-.33c.2-.23.3-.53.3-.92v-.5c0-.36-.1-.65-.3-.88-.2-.23-.46-.35-.8-.35s-.6.12-.8.35c-.2.23-.29.54-.29.9v.5zm3.9 5.07a1.96 1.96 0 0 1 2.04-2.05c.6 0 1.09.19 1.47.57.38.39.57.9.57 1.53v.48a1.96 1.96 0 0 1-2.03 2.05c-.59 0-1.08-.19-1.47-.57a2.04 2.04 0 0 1-.58-1.52v-.49zm.95.53c0 .36.1.66.3.89a1 1 0 0 0 .8.34 1 1 0 0 0 .79-.33c.2-.23.3-.54.3-.92v-.51c0-.36-.1-.65-.3-.88a1 1 0 0 0-.8-.34 1 1 0 0 0-.79.33c-.2.23-.3.53-.3.92v.5zm-3.45 1.16-.72-.45 4.86-7.78.72.45-4.86 7.78zM327 24.03c0 1.02-.13 1.99-.4 2.92a8.64 8.64 0 0 1-1.22 2.58 5.34 5.34 0 0 1-1.73 1.68l-.27-.77a5.5 5.5 0 0 0 1.7-2.5c.42-1.14.64-2.4.65-3.78v-.21c0-.96-.1-1.85-.3-2.67a9.01 9.01 0 0 0-.84-2.21 5.12 5.12 0 0 0-1.2-1.53l.26-.77c.6.33 1.17.89 1.72 1.67A8.66 8.66 0 0 1 326.6 21c.27.94.4 1.95.4 3.02z"/></g></svg>