<svg xmlns="http://www.w3.org/2000/svg" width="360" height="592"><g fill="none" fill-rule="evenodd"><path fill="#F6F6F6" d="M0 0h360v592H0z"/><path fill="#1A1A1A" d="M81.69 539.39a4.19 4.19 0 0 1-1.33 2.79c-.75.65-1.74.98-2.98.98a4 4 0 0 1-3.23-1.45 5.82 5.82 0 0 1-1.22-3.87v-1.09c0-1.06.19-1.99.57-2.79a4.24 4.24 0 0 1 4-2.5c1.22 0 2.18.35 2.91 1.02s1.16 1.6 1.28 2.8h-1.51c-.13-.9-.41-1.56-.85-1.97a2.57 2.57 0 0 0-1.82-.6 2.7 2.7 0 0 0-2.26 1.06c-.54.7-.81 1.71-.81 3.02v1.1a5 5 0 0 0 .77 2.95 2.5 2.5 0 0 0 2.17 1.09c.83 0 1.47-.19 1.91-.57.45-.37.74-1.03.89-1.97h1.5zm1.44-.7a5 5 0 0 1 .48-2.23 3.64 3.64 0 0 1 3.35-2.07c1.15 0 2.08.4 2.8 1.2a4.6 4.6 0 0 1 1.06 3.18v.1c0 .82-.16 1.56-.47 2.21a3.59 3.59 0 0 1-1.35 1.53 3.8 3.8 0 0 1-2.02.55c-1.15 0-2.08-.4-2.79-1.2a4.58 4.58 0 0 1-1.06-3.16v-.1zm1.45.18c0 .93.22 1.69.65 2.25.43.57 1.02.86 1.75.86s1.31-.3 1.75-.87c.43-.57.64-1.38.64-2.42 0-.92-.22-1.67-.66-2.25a2.1 2.1 0 0 0-1.75-.86c-.71 0-1.29.28-1.73.85a3.93 3.93 0 0 0-.65 2.44zm9.41-4.32.04.93a3.12 3.12 0 0 1 2.5-1.09c1.2 0 2 .45 2.42 1.36a3.2 3.2 0 0 1 1.1-.98c.45-.25.98-.38 1.6-.38 1.85 0 2.8.98 2.83 2.95V543h-1.45v-5.58c0-.6-.14-1.05-.41-1.35-.28-.3-.74-.45-1.4-.45-.53 0-.97.16-1.33.48-.35.32-.56.75-.62 1.3v5.6h-1.45v-5.54c0-1.23-.6-1.84-1.8-1.84-.95 0-1.6.4-1.95 1.2V543h-1.45v-8.45H94zm14.03 0 .04.93a3.12 3.12 0 0 1 2.5-1.09c1.19 0 1.99.45 2.42 1.36a3.2 3.2 0 0 1 1.1-.98c.44-.25.98-.38 1.6-.38 1.85 0 2.79.98 2.82 2.95V543h-1.44v-5.58c0-.6-.14-1.05-.42-1.35-.27-.3-.74-.45-1.39-.45-.54 0-.98.16-1.34.48-.35.32-.56.75-.61 1.3v5.6h-1.46v-5.54c0-1.23-.6-1.84-1.8-1.84-.95 0-1.6.4-1.95 1.2V543h-1.44v-8.45h1.37zm16.17 8.6a3.7 3.7 0 0 1-2.8-1.12 4.18 4.18 0 0 1-1.08-3.02v-.27c0-.84.16-1.59.48-2.24a3.75 3.75 0 0 1 1.35-1.55 3.38 3.38 0 0 1 1.87-.56c1.1 0 1.95.36 2.56 1.09.61.72.91 1.76.91 3.1v.6h-5.72a3 3 0 0 0 .73 2.03 2.3 2.3 0 0 0 1.78.77c.5 0 .94-.1 1.3-.32.35-.2.66-.48.92-.82l.89.68a3.55 3.55 0 0 1-3.2 1.64zm-.18-7.57c-.59 0-1.08.21-1.47.63a3.1 3.1 0 0 0-.74 1.79h4.24v-.11a2.75 2.75 0 0 0-.6-1.7 1.78 1.78 0 0 0-1.43-.61zm6.51-1.03.05 1.06a3.08 3.08 0 0 1 2.53-1.22c1.79 0 2.69 1 2.7 3.02V543h-1.44v-5.6c0-.6-.15-1.05-.42-1.35-.27-.29-.7-.43-1.28-.43-.46 0-.88.12-1.23.37s-.63.58-.83.99V543h-1.44v-8.45h1.36zm9.42-2.05v2.05h1.58v1.11h-1.58v5.25c0 .33.07.59.22.76.14.17.38.25.72.25a3.5 3.5 0 0 0 .68-.1V543a4.19 4.19 0 0 1-1.1.16c-.65 0-1.14-.2-1.47-.59a2.51 2.51 0 0 1-.49-1.66v-5.25h-1.54v-1.11h1.54v-2.05h1.44zm8.2 8.26c0-.4-.15-.7-.45-.91-.3-.22-.8-.4-1.54-.56a7.32 7.32 0 0 1-1.74-.56 2.5 2.5 0 0 1-.95-.78c-.2-.3-.31-.67-.31-1.08 0-.7.3-1.28.88-1.76a3.43 3.43 0 0 1 2.24-.72c.96 0 1.74.25 2.33.74.6.5.9 1.13.9 1.9h-1.45c0-.4-.17-.74-.5-1.02a1.89 1.89 0 0 0-1.28-.43c-.52 0-.93.11-1.23.34a1.08 1.08 0 0 0-.45.9c0 .35.14.61.42.79.27.18.77.35 1.5.5.71.17 1.3.36 1.75.59.45.22.78.49 1 .8.21.32.32.7.32 1.16 0 .75-.3 1.36-.9 1.81a3.8 3.8 0 0 1-2.36.69c-.68 0-1.28-.12-1.8-.36a2.92 2.92 0 0 1-1.22-1 2.42 2.42 0 0 1-.44-1.4h1.44c.03.48.22.87.59 1.15.36.29.84.43 1.43.43.55 0 .99-.11 1.32-.33.33-.23.5-.52.5-.9zm-72.88-57.13 3.72 9.28 3.71-9.28h1.95V495h-1.5v-4.43l.14-4.78-3.73 9.21H78.4l-3.73-9.19.15 4.76V495h-1.5v-11.38h1.94zm15.31 11.53a3.7 3.7 0 0 1-2.8-1.13A4.2 4.2 0 0 1 86.7 491v-.27c0-.84.16-1.58.48-2.24a3.75 3.75 0 0 1 1.35-1.55 3.38 3.38 0 0 1 1.87-.56c1.1 0 1.95.36 2.56 1.09.61.72.92 1.76.92 3.1v.6h-5.73a3 3 0 0 0 .73 2.03 2.3 2.3 0 0 0 1.78.77c.5 0 .94-.1 1.3-.32.35-.2.66-.48.92-.82l.89.68a3.55 3.55 0 0 1-3.19 1.64zm-.18-7.58c-.58 0-1.07.21-1.47.64a3.1 3.1 0 0 0-.73 1.78h4.23v-.11a2.75 2.75 0 0 0-.6-1.7 1.78 1.78 0 0 0-1.43-.61zm4.8 3.12c0-1.3.3-2.34.92-3.13a2.92 2.92 0 0 1 2.41-1.18c1 0 1.78.34 2.35 1.02V483h1.45v12h-1.33l-.07-.9a2.94 2.94 0 0 1-2.41 1.06 2.9 2.9 0 0 1-2.4-1.2 5 5 0 0 1-.92-3.15v-.1zm1.44.17c0 .96.2 1.7.6 2.25.4.54.94.81 1.64.81a2.1 2.1 0 0 0 2-1.23v-3.89c-.43-.8-1.1-1.2-1.99-1.2-.7 0-1.26.28-1.65.83-.4.54-.6 1.35-.6 2.43zm9.5 4.13h-1.44v-8.45h1.44V495zm-1.56-10.7c0-.23.07-.43.21-.59.15-.16.36-.24.64-.24s.5.08.64.24c.15.16.22.36.22.6a.8.8 0 0 1-.22.58c-.14.16-.36.24-.64.24s-.5-.08-.64-.24a.83.83 0 0 1-.21-.58zm9.1 10.7a3.05 3.05 0 0 1-.2-.89 3.23 3.23 0 0 1-2.42 1.05 3 3 0 0 1-2.05-.71 2.29 2.29 0 0 1-.8-1.8c0-.87.34-1.56 1-2.04a4.73 4.73 0 0 1 2.83-.74h1.4v-.66c0-.5-.14-.9-.45-1.2-.3-.3-.74-.46-1.33-.46-.52 0-.95.13-1.3.4-.35.26-.52.57-.52.94h-1.46a2 2 0 0 1 .45-1.22c.3-.4.71-.7 1.22-.94a4.1 4.1 0 0 1 1.7-.34c.97 0 1.73.24 2.28.73.56.49.84 1.16.86 2.01v3.9c0 .77.1 1.39.3 1.85v.12h-1.52zm-2.4-1.1a2.54 2.54 0 0 0 1.29-.35c.4-.24.7-.54.88-.92v-1.73h-1.13c-1.78 0-2.66.52-2.66 1.55 0 .46.15.81.45 1.07.3.25.7.38 1.17.38zM73.32 447v-11.38h3.72c1.23 0 2.16.26 2.78.77.63.51.94 1.27.94 2.27a2.31 2.31 0 0 1-.46 1.4c-.3.42-.7.73-1.23.96a2.67 2.67 0 0 1 1.99 2.7c0 1.02-.33 1.82-.99 2.4a4.1 4.1 0 0 1-2.8.88h-3.95zm1.5-5.32v4.1h2.48c.7 0 1.25-.19 1.65-.55.4-.36.6-.86.6-1.5 0-1.37-.74-2.05-2.23-2.05h-2.5zm0-1.2h2.27c.65 0 1.18-.17 1.57-.5.4-.32.59-.77.59-1.33 0-.63-.18-1.08-.55-1.36-.36-.29-.92-.43-1.66-.43h-2.22v3.62zm9.8 6.52h-1.44v-12h1.45v12zm1.93-4.3c0-.83.17-1.58.5-2.24a3.63 3.63 0 0 1 3.34-2.07c1.15 0 2.08.4 2.8 1.2a4.6 4.6 0 0 1 1.06 3.18v.1c0 .82-.16 1.56-.47 2.21a3.59 3.59 0 0 1-1.35 1.53 3.8 3.8 0 0 1-2.02.55c-1.15 0-2.08-.4-2.79-1.2a4.58 4.58 0 0 1-1.06-3.16v-.1zm1.46.17c0 .94.22 1.69.65 2.26.44.56 1.02.85 1.75.85s1.31-.3 1.75-.87c.43-.57.65-1.38.65-2.42 0-.92-.22-1.67-.66-2.25a2.1 2.1 0 0 0-1.76-.86c-.71 0-1.29.28-1.73.85a3.93 3.93 0 0 0-.65 2.44zm7.7-.17c0-1.31.31-2.36.92-3.14a2.92 2.92 0 0 1 2.43-1.17 2.9 2.9 0 0 1 2.4 1.1l.08-.94h1.32v8.25c0 1.1-.33 1.95-.97 2.58a3.6 3.6 0 0 1-2.62.95c-.6 0-1.2-.13-1.79-.4a3.09 3.09 0 0 1-1.33-1.06l.75-.87a2.83 2.83 0 0 0 2.27 1.15c.7 0 1.25-.2 1.65-.6.39-.4.59-.95.59-1.67v-.72c-.58.66-1.37 1-2.37 1s-1.8-.4-2.4-1.2a5.22 5.22 0 0 1-.92-3.26zm1.46.17c0 .95.2 1.7.59 2.24.39.55.93.82 1.64.82a2.1 2.1 0 0 0 2-1.24v-3.86a2.14 2.14 0 0 0-1.99-1.21c-.7 0-1.25.27-1.64.82-.4.54-.6 1.35-.6 2.43zm13.56-.32V447h-1.5v-11.38h4.2a4.2 4.2 0 0 1 2.92.96c.7.63 1.06 1.47 1.06 2.52 0 1.1-.35 1.96-1.04 2.55-.69.6-1.68.9-2.96.9h-2.68zm0-1.23h2.7c.8 0 1.4-.19 1.84-.57.42-.37.64-.92.64-1.63 0-.68-.22-1.22-.64-1.63a2.53 2.53 0 0 0-1.76-.63h-2.78v4.46zm7.88 1.38c0-.83.16-1.58.49-2.24a3.63 3.63 0 0 1 3.35-2.07c1.15 0 2.08.4 2.79 1.2a4.6 4.6 0 0 1 1.07 3.18v.1c0 .82-.16 1.56-.48 2.21a3.59 3.59 0 0 1-1.35 1.53c-.58.36-1.26.55-2.02.55-1.14 0-2.07-.4-2.78-1.2a4.58 4.58 0 0 1-1.07-3.16v-.1zm1.45.17c0 .94.22 1.69.66 2.26.43.56 1.01.85 1.74.85.74 0 1.32-.3 1.75-.87.43-.57.65-1.38.65-2.41 0-.93-.22-1.68-.66-2.26a2.1 2.1 0 0 0-1.76-.86c-.7 0-1.28.28-1.72.85a3.92 3.92 0 0 0-.66 2.44zm12.98 1.89c0-.4-.15-.7-.44-.91a4.3 4.3 0 0 0-1.54-.56 7.32 7.32 0 0 1-1.74-.56 2.5 2.5 0 0 1-.96-.78 2.2 2.2 0 0 1 .57-2.84 3.43 3.43 0 0 1 2.25-.72c.96 0 1.74.25 2.33.74.6.5.9 1.13.9 1.9h-1.46c0-.4-.16-.74-.5-1.02a1.89 1.89 0 0 0-1.27-.43c-.53 0-.94.11-1.23.34a1.08 1.08 0 0 0-.45.9c0 .35.14.61.41.79.28.18.78.35 1.5.5.72.17 1.3.36 1.75.59.45.22.78.49 1 .8.22.32.32.7.32 1.16 0 .75-.3 1.36-.9 1.81a3.8 3.8 0 0 1-2.35.69c-.68 0-1.28-.12-1.8-.36a2.92 2.92 0 0 1-1.22-1 2.42 2.42 0 0 1-.44-1.4h1.44c.03.48.22.87.58 1.15.37.29.84.43 1.44.43.54 0 .98-.11 1.31-.33.33-.23.5-.52.5-.9zm5.29-8.26v2.05h1.58v1.11h-1.58v5.25c0 .34.07.59.2.76.15.17.39.25.73.25a3.5 3.5 0 0 0 .69-.1V447a4.19 4.19 0 0 1-1.11.16c-.65 0-1.14-.2-1.46-.59a2.5 2.5 0 0 1-.5-1.66v-5.25h-1.54v-1.11h1.54v-2.05h1.45zm8.19 8.26c0-.4-.15-.7-.45-.91-.29-.22-.8-.4-1.53-.56a7.3 7.3 0 0 1-1.75-.56 2.5 2.5 0 0 1-.95-.79 2.17 2.17 0 0 1 .57-2.83 3.43 3.43 0 0 1 2.25-.72c.96 0 1.73.25 2.33.74.6.5.9 1.13.9 1.9h-1.46c0-.4-.17-.74-.5-1.02a1.89 1.89 0 0 0-1.27-.43c-.53 0-.94.11-1.24.34a1.08 1.08 0 0 0-.44.9c0 .35.14.61.41.79.28.18.78.35 1.5.5.72.17 1.3.36 1.75.59.45.22.78.49 1 .8.21.32.32.7.32 1.16 0 .75-.3 1.36-.9 1.81a3.8 3.8 0 0 1-2.36.69c-.67 0-1.27-.12-1.8-.36a2.92 2.92 0 0 1-1.22-1 2.42 2.42 0 0 1-.44-1.4h1.45c.02.48.22.87.58 1.15.36.29.84.43 1.43.43.55 0 .99-.11 1.32-.33.33-.23.5-.52.5-.9zm-69.85-50.83a7.06 7.06 0 0 1-2.8-1.36 2.6 2.6 0 0 1-.89-2c0-.9.36-1.64 1.08-2.22a4.27 4.27 0 0 1 2.8-.88c.77 0 1.47.15 2.08.45.61.3 1.09.72 1.42 1.25.34.53.5 1.11.5 1.74h-1.5c0-.68-.22-1.22-.66-1.62a2.67 2.67 0 0 0-1.85-.59c-.74 0-1.31.17-1.73.5-.41.32-.62.77-.62 1.35 0 .46.2.85.6 1.17.38.32 1.05.62 2 .88.94.27 1.68.56 2.22.88.53.32.93.7 1.18 1.12.26.43.4.93.4 1.5 0 .93-.37 1.67-1.09 2.22a4.6 4.6 0 0 1-2.88.84 5.4 5.4 0 0 1-2.19-.45c-.67-.3-1.2-.71-1.56-1.23a3 3 0 0 1-.55-1.78h1.5c0 .7.26 1.23.77 1.63.5.4 1.18.6 2.03.6.8 0 1.4-.16 1.82-.48.42-.33.63-.77.63-1.32s-.2-1-.58-1.3c-.4-.3-1.1-.6-2.13-.9zm7.49 5.07H82.7v-8.45h1.45V399zm-1.57-10.7c0-.23.07-.43.22-.59.14-.16.35-.24.63-.24.29 0 .5.08.64.24a.85.85 0 0 1 .22.6.8.8 0 0 1-.22.58c-.14.16-.35.24-.64.24-.28 0-.49-.08-.63-.24a.83.83 0 0 1-.22-.58zm5.84.2v2.05h1.58v1.11h-1.58v5.25c0 .34.07.59.21.76.14.17.38.25.72.25a3.5 3.5 0 0 0 .69-.1V399a4.19 4.19 0 0 1-1.11.16c-.65 0-1.14-.2-1.46-.59a2.5 2.5 0 0 1-.5-1.66v-5.25h-1.53v-1.11h1.54v-2.05h1.44zm6.77 10.66a3.7 3.7 0 0 1-2.8-1.13 4.19 4.19 0 0 1-1.07-3.02v-.27c0-.84.16-1.58.48-2.24a3.75 3.75 0 0 1 1.34-1.55 3.38 3.38 0 0 1 1.87-.56c1.1 0 1.96.36 2.57 1.09.6.72.91 1.76.91 3.1v.6h-5.73c.02.84.27 1.51.73 2.03a2.3 2.3 0 0 0 1.78.77c.51 0 .94-.1 1.3-.32.35-.2.66-.48.93-.82l.88.68a3.55 3.55 0 0 1-3.19 1.64zm-.18-7.58c-.58 0-1.07.21-1.47.64a3.1 3.1 0 0 0-.73 1.78h4.23v-.11a2.75 2.75 0 0 0-.59-1.7 1.79 1.79 0 0 0-1.44-.61zm10.84 2.97V399h-1.5v-11.38h4.2a4.2 4.2 0 0 1 2.92.96c.7.63 1.06 1.47 1.06 2.52 0 1.1-.35 1.96-1.04 2.55-.69.6-1.67.9-2.96.9h-2.68zm0-1.23h2.7c.8 0 1.41-.19 1.84-.57.43-.37.64-.92.64-1.63 0-.68-.21-1.22-.64-1.63a2.53 2.53 0 0 0-1.76-.63h-2.78v4.46zm13.5 5.68a3.09 3.09 0 0 1-.2-.89 3.23 3.23 0 0 1-2.41 1.05c-.83 0-1.52-.24-2.05-.71a2.28 2.28 0 0 1-.8-1.8c0-.87.33-1.56 1-2.04a4.73 4.73 0 0 1 2.83-.73h1.4v-.67c0-.5-.15-.9-.45-1.2-.3-.3-.75-.46-1.34-.46-.51 0-.94.13-1.3.4-.34.26-.52.57-.52.94h-1.45a2 2 0 0 1 .45-1.22c.3-.4.7-.7 1.22-.94a4.1 4.1 0 0 1 1.69-.34c.97 0 1.74.24 2.29.73s.84 1.16.86 2.01v3.9c0 .77.1 1.39.3 1.85v.12h-1.52zm-2.4-1.1a2.54 2.54 0 0 0 1.29-.35c.4-.24.7-.54.88-.92v-1.73H118c-1.77 0-2.66.52-2.66 1.55 0 .46.15.81.46 1.07.3.25.69.38 1.16.38zm5.54-3.2c0-1.31.3-2.36.91-3.14a2.92 2.92 0 0 1 2.43-1.17 2.9 2.9 0 0 1 2.41 1.1l.07-.94h1.32v8.25a3.4 3.4 0 0 1-.97 2.58 3.6 3.6 0 0 1-2.62.95c-.6 0-1.2-.13-1.79-.4a3.08 3.08 0 0 1-1.33-1.06l.75-.87a2.82 2.82 0 0 0 2.27 1.15c.7 0 1.25-.2 1.65-.6.4-.4.59-.95.59-1.67v-.72a3 3 0 0 1-2.37 1c-.99 0-1.79-.4-2.4-1.2a5.22 5.22 0 0 1-.92-3.26zm1.45.17c0 .95.2 1.7.59 2.24.39.55.94.82 1.64.82a2.1 2.1 0 0 0 2-1.24v-3.86a2.14 2.14 0 0 0-1.99-1.21c-.7 0-1.25.27-1.64.82-.4.54-.6 1.35-.6 2.43zm11.38 4.29a3.7 3.7 0 0 1-2.8-1.13 4.19 4.19 0 0 1-1.08-3.02v-.27c0-.84.16-1.58.48-2.24a3.75 3.75 0 0 1 1.35-1.55 3.38 3.38 0 0 1 1.87-.56c1.1 0 1.95.36 2.56 1.09.61.72.91 1.76.91 3.1v.6h-5.72c.02.84.26 1.51.73 2.03a2.3 2.3 0 0 0 1.78.77c.5 0 .94-.1 1.3-.32.35-.2.66-.48.92-.82l.89.68a3.55 3.55 0 0 1-3.2 1.64zm-.18-7.58c-.59 0-1.07.21-1.47.64a3.1 3.1 0 0 0-.74 1.78h4.24v-.11a2.75 2.75 0 0 0-.6-1.7 1.78 1.78 0 0 0-1.43-.61zm10.07 5.18c0-.4-.15-.7-.44-.91a4.3 4.3 0 0 0-1.54-.56 7.32 7.32 0 0 1-1.74-.56 2.5 2.5 0 0 1-.96-.78 2.2 2.2 0 0 1 .57-2.84 3.43 3.43 0 0 1 2.25-.72c.96 0 1.73.25 2.33.74.6.5.9 1.13.9 1.9h-1.46c0-.4-.17-.74-.5-1.02a1.89 1.89 0 0 0-1.27-.43c-.53 0-.94.11-1.24.34a1.08 1.08 0 0 0-.44.9c0 .35.14.61.41.79.28.18.78.35 1.5.5.72.17 1.3.36 1.75.59.45.22.78.49 1 .8.22.32.32.7.32 1.16 0 .75-.3 1.36-.9 1.81a3.8 3.8 0 0 1-2.35.69c-.68 0-1.28-.12-1.8-.36a2.92 2.92 0 0 1-1.22-1 2.42 2.42 0 0 1-.45-1.4h1.45c.03.48.22.87.58 1.15.36.29.84.43 1.44.43.54 0 .98-.11 1.31-.33.33-.23.5-.52.5-.9zm-70.4-90.21V311h-1.5v-11.38h4.2c1.24 0 2.22.32 2.92.96.7.63 1.06 1.47 1.06 2.52 0 1.1-.35 1.96-1.04 2.55-.69.6-1.67.9-2.96.9h-2.68zm0-1.23h2.7c.8 0 1.41-.19 1.84-.57.43-.37.64-.92.64-1.63 0-.68-.21-1.22-.64-1.63a2.53 2.53 0 0 0-1.76-.63h-2.78v4.46zm9.94 5.68H83.3v-12h1.45v12zm7.53 0a3.05 3.05 0 0 1-.2-.89 3.23 3.23 0 0 1-2.41 1.05c-.83 0-1.52-.24-2.05-.71a2.29 2.29 0 0 1-.8-1.8c0-.87.33-1.56 1-2.04a4.73 4.73 0 0 1 2.83-.73h1.4v-.67c0-.5-.15-.9-.45-1.2-.3-.3-.75-.46-1.34-.46-.51 0-.94.13-1.3.4-.34.26-.52.57-.52.94H87a2 2 0 0 1 .45-1.22c.3-.4.7-.7 1.22-.94a4.1 4.1 0 0 1 1.69-.34c.97 0 1.74.24 2.29.73s.84 1.16.86 2.01v3.9c0 .77.1 1.39.3 1.85v.12h-1.52zm-2.4-1.1a2.54 2.54 0 0 0 1.29-.35c.4-.24.7-.54.88-.92v-1.73h-1.13c-1.77 0-2.66.52-2.66 1.55 0 .46.15.81.46 1.07.3.25.69.38 1.16.38zm7.25-7.35.05 1.06a3.08 3.08 0 0 1 2.53-1.22c1.79 0 2.69 1 2.7 3.02V311h-1.44v-5.6c0-.6-.15-1.05-.42-1.34-.27-.3-.7-.44-1.28-.44-.47 0-.88.12-1.23.37s-.63.58-.83.99V311h-1.45v-8.45h1.37zM79.6 260.03h-4.76L73.77 263h-1.55l4.34-11.38h1.32L82.22 263h-1.54l-1.09-2.97zm-4.31-1.23h3.86l-1.93-5.32-1.93 5.32zm11.63 3.18c.52 0 .97-.16 1.35-.47.39-.32.6-.7.64-1.18h1.37a2.62 2.62 0 0 1-.5 1.39 3.3 3.3 0 0 1-1.23 1.04 3.55 3.55 0 0 1-1.63.4 3.48 3.48 0 0 1-2.75-1.16 4.59 4.59 0 0 1-1.02-3.15v-.24c0-.83.16-1.56.46-2.2a3.45 3.45 0 0 1 1.3-1.49 3.7 3.7 0 0 1 2-.53c.95 0 1.74.28 2.37.85.62.57.96 1.3 1 2.21h-1.37a2 2 0 0 0-.62-1.35 1.93 1.93 0 0 0-1.38-.52 2 2 0 0 0-1.7.79c-.4.53-.6 1.3-.6 2.3v.27c0 .97.2 1.72.6 2.25.4.52.97.79 1.71.79zm6.95-9.48v2.05h1.57v1.11h-1.57v5.24c0 .34.07.6.2.77.15.17.39.25.73.25a3.5 3.5 0 0 0 .68-.1V263a4.19 4.19 0 0 1-1.1.16c-.65 0-1.14-.2-1.47-.59a2.5 2.5 0 0 1-.49-1.66v-5.25h-1.54v-1.11h1.54v-2.05h1.45zM98.7 263h-1.44v-8.45h1.44V263zm-1.56-10.7c0-.23.07-.43.21-.59.15-.16.36-.24.64-.24s.5.08.64.24a.85.85 0 0 1 .22.6.8.8 0 0 1-.22.58c-.14.16-.36.23-.64.23s-.5-.07-.64-.23a.83.83 0 0 1-.21-.59zm6.66 8.74 2.1-6.5h1.47l-3.03 8.46h-1.1l-3.06-8.45h1.48l2.14 6.49zm6.53 1.96h-1.44v-8.45h1.44V263zm-1.56-10.7c0-.23.07-.43.22-.59.14-.16.35-.24.63-.24s.5.08.64.24c.15.16.22.36.22.6a.8.8 0 0 1-.22.58c-.14.16-.36.23-.64.23s-.49-.07-.63-.23a.83.83 0 0 1-.22-.59zm5.84.2v2.05h1.58v1.11h-1.58v5.25c0 .33.07.59.2.76.15.17.39.25.73.25a3.5 3.5 0 0 0 .69-.1V263a4.19 4.19 0 0 1-1.11.16c-.65 0-1.14-.2-1.46-.59a2.5 2.5 0 0 1-.5-1.66v-5.25h-1.54v-1.11h1.54v-2.05h1.45zm6.03 8.38 1.97-6.33h1.54l-3.4 9.75c-.52 1.41-1.36 2.11-2.5 2.11l-.27-.02-.54-.1v-1.17l.39.03c.49 0 .87-.1 1.14-.3.27-.2.5-.56.68-1.09l.32-.86-3.02-8.36h1.58l2.11 6.34zm-43.97-50.95a7.06 7.06 0 0 1-2.8-1.36 2.6 2.6 0 0 1-.89-2c0-.9.36-1.64 1.08-2.22a4.27 4.27 0 0 1 2.8-.88c.77 0 1.47.15 2.08.45.61.3 1.09.72 1.42 1.25.34.53.5 1.11.5 1.74h-1.5c0-.68-.22-1.22-.66-1.62a2.67 2.67 0 0 0-1.85-.59c-.74 0-1.31.17-1.73.5-.41.32-.62.77-.62 1.35 0 .46.2.85.6 1.17.38.32 1.05.62 2 .88.94.27 1.68.56 2.22.88.53.32.93.7 1.18 1.12.26.43.4.93.4 1.5 0 .93-.37 1.67-1.09 2.22a4.6 4.6 0 0 1-2.88.84 5.4 5.4 0 0 1-2.19-.45c-.67-.3-1.2-.71-1.56-1.23a3 3 0 0 1-.55-1.78h1.5c0 .7.26 1.23.77 1.63.5.4 1.18.6 2.03.6.8 0 1.4-.16 1.82-.49.42-.32.63-.76.63-1.32s-.2-.98-.58-1.29c-.4-.3-1.1-.6-2.13-.9zm7.88-5.43v2.05h1.57v1.11h-1.57v5.25c0 .33.07.59.2.76.15.17.39.25.73.25a3.5 3.5 0 0 0 .68-.1V215a4.19 4.19 0 0 1-1.1.16c-.65 0-1.14-.2-1.47-.59a2.55 2.55 0 0 1-.49-1.66v-5.25h-1.54v-1.11h1.54v-2.05h1.45zm8.48 10.5a3.09 3.09 0 0 1-.2-.89 3.23 3.23 0 0 1-2.4 1.05 3 3 0 0 1-2.06-.71 2.28 2.28 0 0 1-.8-1.8c0-.87.33-1.56 1-2.04a4.73 4.73 0 0 1 2.83-.74h1.4v-.66c0-.5-.15-.9-.45-1.2-.3-.3-.75-.46-1.34-.46-.51 0-.94.13-1.3.4-.34.26-.52.57-.52.94h-1.45a2 2 0 0 1 .45-1.22c.3-.4.7-.7 1.22-.94a4.1 4.1 0 0 1 1.7-.34c.96 0 1.73.24 2.28.73s.84 1.16.86 2.01v3.9c0 .77.1 1.39.3 1.84v.13h-1.52zm-2.4-1.1a2.54 2.54 0 0 0 1.3-.35c.4-.24.7-.54.87-.92v-1.73h-1.13c-1.77 0-2.65.52-2.65 1.55 0 .46.15.81.45 1.07.3.25.69.38 1.16.38zm7.85-9.4v2.05h1.57v1.11h-1.57v5.25c0 .33.07.59.2.76.15.17.39.25.73.25a3.5 3.5 0 0 0 .68-.1V215a4.19 4.19 0 0 1-1.1.16c-.65 0-1.14-.2-1.47-.59-.33-.39-.49-.94-.49-1.66v-5.25h-1.54v-1.11h1.54v-2.05h1.45zm8.18 8.26c0-.4-.14-.7-.44-.91-.3-.22-.8-.4-1.54-.56a7.32 7.32 0 0 1-1.74-.56 2.5 2.5 0 0 1-.95-.78c-.2-.3-.31-.67-.31-1.08 0-.7.3-1.28.88-1.76a3.43 3.43 0 0 1 2.24-.72c.96 0 1.74.25 2.34.74.6.5.89 1.13.89 1.9h-1.45c0-.4-.17-.74-.5-1.02a1.89 1.89 0 0 0-1.28-.43c-.52 0-.93.11-1.23.34a1.08 1.08 0 0 0-.45.9c0 .35.14.61.42.79.27.18.77.35 1.5.5.72.17 1.3.36 1.75.58.45.23.78.5 1 .81.21.32.32.7.32 1.16 0 .75-.3 1.36-.9 1.81a3.8 3.8 0 0 1-2.36.69c-.68 0-1.28-.12-1.8-.36a2.92 2.92 0 0 1-1.22-1 2.42 2.42 0 0 1-.44-1.4h1.44c.03.48.22.87.59 1.15.36.28.84.43 1.43.43.55 0 .99-.11 1.32-.34.33-.22.5-.51.5-.88z"/><path fill="#636D75" fill-rule="nonzero" d="M18.12 259.53h2.03A8.03 8.03 0 0 0 28 266c4.4 0 8-3.6 8-8s-3.6-8-8-8c-2.5 0-4.8 1.2-6.2 3H25v2h-7v-7h2v4a10 10 0 1 1-1.88 7.53zM27 253h2v4.7l2.8 3.7-1.6 1.2-3.2-4.3V253zm1 43a10 10 0 1 1 0 20 10 10 0 0 1 0-20zm1 15v-6h-2v6h2zm0-8v-2h-2v2h2zm8-84H19v-2h18v2zm-13-11v7h-4v-7h4zm6-7v14h-4v-14h4zm6 3v11h-4v-11h4zM18.74 351.3v3.7h-1.73v-9.95h3.8c1.12 0 2 .29 2.66.87.65.57.98 1.34.98 2.3 0 .97-.32 1.73-.96 2.27-.64.54-1.54.81-2.7.81h-2.05zm0-1.39h2.08c.61 0 1.08-.14 1.4-.43.33-.29.5-.7.5-1.25 0-.54-.17-.97-.5-1.3a1.9 1.9 0 0 0-1.35-.49h-2.13v3.47zm11.54 4.37a2.6 2.6 0 0 1-2.08.86c-.8 0-1.4-.24-1.82-.7a3.05 3.05 0 0 1-.62-2.04v-4.8h1.66v4.78c0 .93.4 1.4 1.17 1.4.8 0 1.35-.29 1.64-.86v-5.32h1.66v7.4h-1.57l-.04-.72zm9.79-2.9c0 1.15-.26 2.06-.77 2.74a2.5 2.5 0 0 1-2.11 1.02c-.87 0-1.54-.31-2.03-.94l-.08.8h-1.5v-10.5h1.66v3.81a2.4 2.4 0 0 1 1.93-.84c.9 0 1.61.33 2.13 1 .51.67.77 1.6.77 2.81v.1zm-1.66-.15c0-.8-.14-1.4-.43-1.8a1.4 1.4 0 0 0-1.23-.6c-.72 0-1.22.31-1.51.94v3.05c.3.64.8.96 1.53.96.52 0 .92-.19 1.2-.58.28-.38.43-.97.44-1.75v-.22zm4.82 3.77h-1.67v-10.5h1.67V355zm3.57 0h-1.66v-7.4h1.66v7.4zm-1.76-9.32a.88.88 0 0 1 .24-.63c.16-.17.4-.26.7-.26.3 0 .53.09.7.26.16.16.24.38.24.63s-.08.46-.25.63a.94.94 0 0 1-.7.25.94.94 0 0 1-.69-.25.86.86 0 0 1-.24-.63zm7.72 7.31a.75.75 0 0 0-.37-.68 3.82 3.82 0 0 0-1.21-.4 6.28 6.28 0 0 1-1.42-.46c-.83-.4-1.24-.98-1.24-1.74 0-.64.27-1.17.8-1.6a3.2 3.2 0 0 1 2.05-.64c.89 0 1.6.22 2.15.65.54.44.81 1 .81 1.7h-1.66c0-.31-.12-.58-.35-.8a1.36 1.36 0 0 0-.95-.3c-.36 0-.66.07-.89.24a.8.8 0 0 0-.34.68c0 .26.1.45.32.6.21.14.65.28 1.3.42.65.15 1.16.32 1.53.51.37.2.65.44.83.72.18.28.27.61.27 1.01 0 .67-.28 1.2-.83 1.62-.55.41-1.27.62-2.17.62-.6 0-1.14-.11-1.62-.33a2.67 2.67 0 0 1-1.1-.9 2.14 2.14 0 0 1-.4-1.24h1.61c.03.4.17.7.45.9.27.22.64.32 1.09.32.43 0 .77-.08 1-.25a.77.77 0 0 0 .34-.65zm4.71-4.58a2.6 2.6 0 0 1 2.06-.94c1.58 0 2.38.9 2.4 2.7V355h-1.66v-4.77c0-.51-.11-.87-.33-1.09-.22-.2-.55-.31-.98-.31-.66 0-1.16.3-1.49.89V355h-1.66v-10.5h1.66v3.91zM32 390h-8v-2h8v2zm0 2v2h-8v-2h8zm4-6v12l-6 6h-8a2 2 0 0 1-2-2v-16a2 2 0 0 1 2-2h12a2 2 0 0 1 2 2zm-2 10v-10H22v16h6v-4a2 2 0 0 1 2-2h4zm-2 53H19v-2h13v2zm5-10v2H19v-2h18zm-18-4h11v2H19v-2zm14 0h4v2h-4v-2zm-6 8h10v2H27v-2zm-8 0h5v2h-5v-2zm17 41v12a2 2 0 0 1-2 2H22a2 2 0 0 1-2-2v-12a2 2 0 0 1 2-2h12a2 2 0 0 1 2 2zm-2 0H22v6.38l2.19-2.19 5.23 5.23 1-1a1.59 1.59 0 0 1 2.11.11L34 494v-10zm-5 3.5a1.5 1.5 0 1 1 3 0 1.5 1.5 0 0 1-3 0zM28 542l-5 5v-5h-2a2 2 0 0 1-2-2v-9c0-1.1.9-2 2-2h14a2 2 0 0 1 2 2v9a2 2 0 0 1-2 2h-7z"/><path fill="#E1E2E2" d="M72 417h288v1H72v-1zm0-136h288v1H72v-1zm0-48h288v1H72v-1zm0 280h288v1H72v-1zm0-48h288v1H72v-1zM0 535h360v1H0v-1z"/><g transform="translate(0 536)"><path fill="#FFF" d="M0 0h360v56H0z"/><path fill="#969CA1" d="M157 8h46a4 4 0 0 1 4 4v32a4 4 0 0 1-4 4h-46a4 4 0 0 1-4-4V12a4 4 0 0 1 4-4zm32 22h-2v5h-14V21h5v-2h-5a2 2 0 0 0-2 2v14a2 2 0 0 0 2 2h14a2 2 0 0 0 2-2v-5zm0-7h-4v-4h-2v4h-4v2h4v4h2v-4h4v-2zm-90-3h18v14a2 2 0 0 1-2 2h-14a2 2 0 0 1-2-2V20zm7 11v-1h-5v1h5zm2-2v-1h-7v1h7zm0-2v-1h-7v1h7zm7 4v-5h-5v5h5zm0-7v-2h-14v2h14zm137-6a10 10 0 1 1 0 20 10 10 0 0 1 0-20zm0 18.5a8.5 8.5 0 1 0 0-17 8.5 8.5 0 0 0 0 17zm0-8c3.04 0 5.5 1.73 5.5 3.5s-2.46 3.5-5.5 3.5-5.5-1.73-5.5-3.5 2.46-3.5 5.5-3.5zm0-.5a3 3 0 1 1 0-6 3 3 0 0 1 0 6zm63.96-2.97a5 5 0 0 0 8.21-5.32 6 6 0 0 1 7.07 9.52l-3.88 3.89c-.39.39-.62 1.32-.51 2.07l.16 1.1-.71.71L315 25.7l.7-.7.26.03zm2.18 5.94 2.83 2.83a2 2 0 1 1-2.83-2.83z"/><circle cx="319.5" cy="21" r="4" fill="#BC4681" fill-rule="nonzero"/><path fill="#016087" fill-rule="nonzero" d="m15.63 37.47 2.8 6.96 2.78-6.96h1.46V46h-1.13v-3.32l.11-3.59-2.8 6.91h-.86l-2.8-6.89.12 3.57V46h-1.13v-8.53h1.45zm10.93 6.94 1.48-4.75h1.16l-2.55 7.32c-.4 1.05-1.02 1.58-1.88 1.58l-.2-.02-.41-.07v-.88l.3.02c.36 0 .64-.07.85-.22.2-.15.37-.42.5-.82l.25-.64-2.26-6.27h1.18l1.58 4.75zm9.26-2.21a5.29 5.29 0 0 1-2.1-1.03 1.95 1.95 0 0 1-.67-1.5c0-.66.27-1.22.8-1.66a3.2 3.2 0 0 1 2.1-.66c.59 0 1.11.12 1.57.34.46.23.81.54 1.07.94.25.4.37.83.37 1.3h-1.13c0-.51-.16-.91-.49-1.21a2 2 0 0 0-1.39-.44c-.55 0-.98.12-1.3.36-.3.25-.46.59-.46 1.02 0 .35.15.64.44.88.3.24.8.46 1.5.66.72.2 1.27.42 1.67.66.4.24.7.52.9.84.19.32.28.7.28 1.13a2 2 0 0 1-.8 1.66c-.55.42-1.27.63-2.17.63a4.01 4.01 0 0 1-1.64-.34c-.5-.22-.9-.53-1.17-.92a2.25 2.25 0 0 1-.42-1.33h1.13c0 .51.2.92.57 1.22.39.3.9.45 1.53.45.6 0 1.05-.12 1.37-.37.31-.24.47-.57.47-.99 0-.41-.15-.74-.44-.97-.3-.22-.82-.45-1.6-.67zm5.61 3.8h-1.08v-6.34h1.08V46zm-1.17-8.02a.65.65 0 0 1 .16-.45c.1-.12.27-.18.48-.18.2 0 .37.06.48.18a.64.64 0 0 1 .16.45.62.62 0 0 1-.16.44.65.65 0 0 1-.48.17.65.65 0 0 1-.48-.17.63.63 0 0 1-.16-.44zm4.38.15v1.53h1.18v.84h-1.18v3.93c0 .25.05.44.16.57.1.13.28.2.53.2.13 0 .3-.03.52-.08V46a3.14 3.14 0 0 1-.83.12c-.49 0-.85-.15-1.1-.44-.24-.3-.37-.71-.37-1.25V40.5H42.4v-.84h1.15v-1.53h1.09zm5.08 7.99a2.8 2.8 0 0 1-2.1-.85 3.14 3.14 0 0 1-.8-2.26v-.2c0-.63.11-1.2.35-1.69s.58-.88 1-1.16c.44-.28.9-.42 1.41-.42.83 0 1.47.27 1.92.82.46.54.69 1.32.69 2.33v.45h-4.3c.02.63.2 1.13.55 1.52.35.38.8.57 1.34.57.38 0 .7-.08.97-.23.26-.16.5-.36.7-.62l.66.51a2.66 2.66 0 0 1-2.4 1.23zm-.14-5.69c-.43 0-.8.16-1.1.48-.3.32-.48.77-.55 1.34h3.18v-.08a2.06 2.06 0 0 0-.45-1.28c-.26-.3-.62-.46-1.08-.46zm7.56 3.89a.8.8 0 0 0-.34-.68 3.2 3.2 0 0 0-1.15-.42 5.41 5.41 0 0 1-1.3-.43 1.87 1.87 0 0 1-.72-.58 1.4 1.4 0 0 1-.23-.81c0-.52.22-.96.66-1.32.44-.36 1-.54 1.68-.54.72 0 1.3.19 1.75.56.45.37.67.84.67 1.42h-1.09c0-.3-.13-.55-.38-.76a1.41 1.41 0 0 0-.95-.33c-.4 0-.7.09-.93.26a.81.81 0 0 0-.33.67c0 .27.1.46.31.6.2.13.58.26 1.12.38.54.12.98.26 1.32.43.33.17.58.37.75.6.16.24.24.53.24.87 0 .57-.23 1.02-.68 1.36a2.8 2.8 0 0 1-1.77.52c-.5 0-.95-.1-1.34-.27a2.19 2.19 0 0 1-.92-.76 1.81 1.81 0 0 1-.33-1.04h1.08c.02.36.17.65.44.86.27.22.63.32 1.07.32.41 0 .74-.08 1-.25a.76.76 0 0 0 .36-.66zM36 10a10 10 0 1 1 0 20 10 10 0 0 1 0-20zm-8.5 10a8.5 8.5 0 0 0 4.79 7.65l-4.05-11.11A8.47 8.47 0 0 0 27.5 20zm8.5 8.5c.99 0 1.94-.17 2.82-.48a.86.86 0 0 1-.06-.12l-2.61-7.16-2.55 7.41a8.3 8.3 0 0 0 2.4.35zm1.17-12.48 3.07 9.13.85-2.83c.37-1.18.65-2.02.65-2.75 0-1.05-.38-1.78-.7-2.34-.43-.7-.84-1.3-.84-2 0-.78.6-1.5 1.43-1.5h.11A8.47 8.47 0 0 0 36 11.5a8.49 8.49 0 0 0-7.1 3.83l.55.01c.89 0 2.26-.1 2.26-.1.46-.03.51.64.06.7 0 0-.46.05-.98.08l3.1 9.2 1.86-5.57-1.32-3.63c-.46-.03-.9-.09-.9-.09-.45-.02-.4-.72.06-.7 0 0 1.4.11 2.24.11.89 0 2.26-.1 2.26-.1.46-.03.51.64.05.7 0 0-.46.05-.97.07zm3.1 11.33a8.5 8.5 0 0 0 3.19-11.43 8.03 8.03 0 0 1-.59 3.92l-2.6 7.5z"/></g></g></svg>