<svg xmlns="http://www.w3.org/2000/svg" width="360" height="75">
  <g id="screenshot-activity-container-1" fill="none" fill-rule="evenodd" stroke="none" stroke-width="1">
    <path id="Bar/Blue-50" fill="#D8DEE4" d="M0 71h360v4H0z"/>
    <path id="Bar/Blue-400" fill="#46799A" d="M0 71h100v4H0z"/>
    <path id="Icon/Blue-500" fill="#016087" d="M36 56c-11.046 0-20-8.954-20-20s8.954-20 20-20 20 8.954 20 20-8.954 20-20 20z"/>
    <path id="Icon/White" fill="#FFF" d="M36 26c-5.523 0-10 4.477-10 10s4.477 10 10 10 10-4.477 10-10-4.477-10-10-10zm1 15h-2v-2h2v2zm0-4h-2l-.5-6h3l-.5 6z"/>
    <path id="Text/Gray-900" fill="#1A1A1A" fill-rule="nonzero" d="M81.688 27.39c-.141 1.204-.585 2.132-1.333 2.786-.747.653-1.74.98-2.98.98-1.344 0-2.42-.482-3.23-1.445-.81-.964-1.215-2.253-1.215-3.867V24.75c0-1.057.188-1.987.566-2.79.378-.801.913-1.417 1.606-1.847.692-.43 1.494-.644 2.406-.644 1.208 0 2.177.337 2.906 1.011.73.675 1.154 1.609 1.273 2.801H80.18c-.13-.906-.413-1.562-.848-1.968-.435-.407-1.043-.61-1.824-.61-.959 0-1.71.354-2.254 1.063-.544.708-.817 1.716-.817 3.023v1.102c0 1.234.258 2.216.774 2.945.516.73 1.237 1.094 2.164 1.094.833 0 1.473-.19 1.918-.567.445-.377.74-1.035.887-1.972h1.507zm7.039 2.774c-.563.662-1.388.992-2.477.992-.901 0-1.587-.261-2.059-.785-.471-.523-.71-1.298-.714-2.324v-5.5h1.445v5.46c0 1.282.52 1.923 1.562 1.923 1.105 0 1.839-.412 2.204-1.235v-6.148h1.445V31h-1.375l-.031-.836zm7.687-6.32a4.331 4.331 0 0 0-.71-.055c-.949 0-1.592.404-1.93 1.211v6h-1.446v-8.453h1.406l.024.976c.474-.755 1.146-1.132 2.015-1.132.282 0 .495.036.641.109v1.344zm5.414 0a4.331 4.331 0 0 0-.71-.055c-.949 0-1.592.404-1.93 1.211v6h-1.446v-8.453h1.406l.024.976c.474-.755 1.146-1.132 2.016-1.132.28 0 .494.036.64.109v1.344zm4.688 7.312c-1.146 0-2.078-.376-2.797-1.129-.719-.752-1.078-1.759-1.078-3.02v-.265c0-.838.16-1.587.48-2.246a3.748 3.748 0 0 1 1.344-1.547 3.378 3.378 0 0 1 1.87-.558c1.1 0 1.954.362 2.563 1.086.61.724.915 1.76.915 3.109v.602h-5.727c.02.833.264 1.506.73 2.019.467.513 1.059.77 1.778.77.51 0 .942-.105 1.297-.313.354-.208.664-.484.93-.828l.882.687c-.708 1.089-1.77 1.633-3.187 1.633zm-.18-7.578c-.583 0-1.073.212-1.469.637-.396.424-.64 1.02-.734 1.785h4.234v-.11c-.041-.734-.24-1.303-.594-1.706-.354-.404-.833-.606-1.437-.606zm6.516-1.031l.046 1.062c.646-.812 1.49-1.218 2.532-1.218 1.786 0 2.687 1.007 2.703 3.023V31h-1.445v-5.594c-.006-.61-.145-1.06-.418-1.351-.274-.292-.7-.438-1.278-.438-.469 0-.88.125-1.234.375s-.63.578-.828.985V31h-1.446v-8.453h1.368zm9.421-2.047v2.047h1.579v1.117h-1.579v5.242c0 .339.07.593.211.762.141.17.38.254.72.254a3.5 3.5 0 0 0 .687-.094V31a4.19 4.19 0 0 1-1.11.156c-.646 0-1.133-.195-1.46-.586-.329-.39-.493-.945-.493-1.664v-5.242h-1.539v-1.117h1.54V20.5h1.444zM127.11 31h-1.445V19h1.445v12zm5.079-2.117l1.968-6.336h1.547l-3.398 9.758c-.526 1.406-1.362 2.11-2.508 2.11l-.274-.024-.539-.102v-1.172l.391.031c.49 0 .871-.099 1.145-.296.273-.198.498-.56.675-1.086l.32-.86-3.015-8.36h1.578l2.11 6.337zm12.851-5.04a4.331 4.331 0 0 0-.71-.054c-.949 0-1.592.404-1.93 1.211v6h-1.446v-8.453h1.406l.024.976c.474-.755 1.146-1.132 2.015-1.132.282 0 .495.036.641.109v1.344zm4.688 7.313c-1.146 0-2.079-.376-2.797-1.129-.72-.752-1.078-1.759-1.078-3.02v-.265c0-.838.16-1.587.48-2.246a3.748 3.748 0 0 1 1.344-1.547 3.378 3.378 0 0 1 1.87-.558c1.1 0 1.954.362 2.563 1.086.61.724.914 1.76.914 3.109v.602h-5.726c.02.833.264 1.506.73 2.019.466.513 1.059.77 1.778.77.51 0 .942-.105 1.297-.313.354-.208.664-.484.93-.828l.882.687c-.708 1.089-1.77 1.633-3.187 1.633zm-.18-7.578c-.583 0-1.073.212-1.469.637-.396.424-.64 1.02-.734 1.785h4.234v-.11c-.042-.734-.24-1.303-.594-1.706-.354-.404-.833-.606-1.437-.606zm10.07 5.18c0-.39-.147-.694-.441-.91-.294-.216-.808-.403-1.54-.559-.731-.156-1.312-.344-1.741-.562-.43-.22-.748-.48-.954-.782-.205-.302-.308-.661-.308-1.078 0-.693.293-1.278.879-1.758.586-.479 1.334-.718 2.246-.718.958 0 1.735.247 2.332.742.596.495.894 1.127.894 1.898h-1.453c0-.396-.168-.737-.504-1.023-.336-.287-.759-.43-1.27-.43-.525 0-.937.115-1.234.344a1.084 1.084 0 0 0-.445.898c0 .35.138.612.414.79.276.176.775.346 1.496.507.722.162 1.306.354 1.754.578.448.224.78.494.996.809.216.315.325.7.325 1.152 0 .755-.303 1.36-.907 1.817-.604.455-1.388.683-2.351.683-.677 0-1.276-.12-1.797-.36a2.922 2.922 0 0 1-1.223-1.003 2.42 2.42 0 0 1-.441-1.395h1.445c.026.485.22.869.582 1.153.362.284.84.426 1.434.426.547 0 .985-.111 1.316-.332.33-.222.496-.517.496-.887zm5.29-8.258v2.047h1.577v1.117h-1.578v5.242c0 .339.07.593.211.762.14.17.38.254.719.254a3.5 3.5 0 0 0 .687-.094V31a4.19 4.19 0 0 1-1.109.156c-.646 0-1.133-.195-1.46-.586-.329-.39-.493-.945-.493-1.664v-5.242h-1.54v-1.117h1.54V20.5h1.445zm2.726 6.195c0-.828.163-1.573.488-2.234.326-.662.779-1.172 1.36-1.531.58-.36 1.243-.54 1.988-.54 1.15 0 2.082.4 2.793 1.196.71.797 1.066 1.857 1.066 3.18v.101c0 .823-.157 1.561-.473 2.215a3.589 3.589 0 0 1-1.351 1.527c-.586.365-1.26.547-2.02.547-1.145 0-2.074-.398-2.785-1.195-.71-.797-1.066-1.852-1.066-3.164v-.102zm1.453.172c0 .938.217 1.69.652 2.258.435.568 1.017.852 1.746.852.735 0 1.318-.288 1.75-.864.433-.575.649-1.381.649-2.418 0-.927-.22-1.678-.66-2.254-.44-.575-1.025-.863-1.754-.863-.714 0-1.29.284-1.727.852-.437.567-.656 1.38-.656 2.437zm12.14-3.023a4.331 4.331 0 0 0-.71-.055c-.948 0-1.592.404-1.93 1.211v6h-1.445v-8.453h1.406l.023.976c.474-.755 1.146-1.132 2.016-1.132.281 0 .495.036.64.109v1.344zM184.126 31h-1.445v-8.453h1.445V31zm-1.563-10.695c0-.235.072-.433.215-.594.144-.162.356-.242.637-.242s.495.08.64.242a.85.85 0 0 1 .22.594c0 .234-.073.43-.22.586-.145.156-.359.234-.64.234s-.493-.078-.637-.234a.834.834 0 0 1-.214-.586zm5.243 2.242l.047 1.062c.645-.812 1.49-1.218 2.53-1.218 1.787 0 2.688 1.007 2.704 3.023V31h-1.445v-5.594c-.006-.61-.145-1.06-.418-1.351-.274-.292-.7-.438-1.278-.438-.468 0-.88.125-1.234.375s-.63.578-.828.985V31h-1.446v-8.453h1.368zm7.117 4.156c0-1.318.305-2.366.914-3.144.61-.78 1.417-1.168 2.422-1.168 1.031 0 1.836.364 2.414 1.093l.07-.937h1.32v8.25c0 1.094-.324 1.956-.972 2.586-.649.63-1.52.945-2.613.945-.61 0-1.206-.13-1.79-.39-.583-.26-1.028-.618-1.335-1.07l.75-.868c.62.766 1.377 1.148 2.273 1.148.703 0 1.251-.197 1.645-.593.393-.396.59-.953.59-1.672v-.727c-.579.667-1.368 1-2.368 1-.99 0-1.79-.398-2.402-1.195-.612-.797-.918-1.883-.918-3.258zm1.453.164c0 .953.195 1.702.586 2.246.39.545.937.817 1.64.817.912 0 1.581-.414 2.008-1.242v-3.86c-.442-.807-1.106-1.21-1.992-1.21-.703 0-1.252.273-1.648.82-.396.546-.594 1.356-.594 2.43zm14.594 2.016l1.969-6.336h1.546l-3.398 9.758c-.526 1.406-1.362 2.11-2.508 2.11l-.273-.024-.54-.102v-1.172l.391.031c.49 0 .871-.099 1.145-.296.273-.198.498-.56.676-1.086l.32-.86-3.016-8.36h1.578l2.11 6.337zm4.304-2.188c0-.828.163-1.573.489-2.234.325-.662.778-1.172 1.36-1.531.58-.36 1.243-.54 1.987-.54 1.151 0 2.082.4 2.793 1.196.711.797 1.067 1.857 1.067 3.18v.101c0 .823-.158 1.561-.473 2.215a3.589 3.589 0 0 1-1.351 1.527c-.586.365-1.26.547-2.02.547-1.146 0-2.074-.398-2.785-1.195-.711-.797-1.067-1.852-1.067-3.164v-.102zm1.454.172c0 .938.217 1.69.652 2.258.435.568 1.017.852 1.746.852.734 0 1.318-.288 1.75-.864.432-.575.648-1.381.648-2.418 0-.927-.22-1.678-.66-2.254-.44-.575-1.024-.863-1.754-.863-.713 0-1.289.284-1.726.852-.438.567-.656 1.38-.656 2.437zM230 30.164c-.563.662-1.388.992-2.477.992-.9 0-1.587-.261-2.058-.785-.472-.523-.71-1.298-.715-2.324v-5.5h1.445v5.46c0 1.282.521 1.923 1.563 1.923 1.104 0 1.838-.412 2.203-1.235v-6.148h1.445V31h-1.375l-.031-.836zm7.688-6.32a4.331 4.331 0 0 0-.711-.055c-.948 0-1.592.404-1.93 1.211v6h-1.445v-8.453h1.406l.023.976c.474-.755 1.146-1.132 2.016-1.132.281 0 .495.036.64.109v1.344zm10.21 4.914c0-.39-.147-.694-.441-.91-.294-.216-.807-.403-1.539-.559-.732-.156-1.313-.344-1.742-.562-.43-.22-.748-.48-.953-.782-.206-.302-.309-.661-.309-1.078 0-.693.293-1.278.879-1.758.586-.479 1.335-.718 2.246-.718.958 0 1.736.247 2.332.742.596.495.895 1.127.895 1.898h-1.453c0-.396-.168-.737-.504-1.023-.336-.287-.76-.43-1.27-.43-.526 0-.937.115-1.234.344a1.082 1.082 0 0 0-.446.898c0 .35.138.612.414.79.276.176.775.346 1.497.507.72.162 1.306.354 1.753.578.448.224.78.494.997.809.216.315.324.7.324 1.152 0 .755-.302 1.36-.906 1.817-.605.455-1.389.683-2.352.683-.677 0-1.276-.12-1.797-.36a2.922 2.922 0 0 1-1.223-1.003 2.42 2.42 0 0 1-.441-1.395h1.445c.026.485.22.869.582 1.153.362.284.84.426 1.434.426.547 0 .986-.111 1.316-.332.331-.222.496-.517.496-.887zM252.797 31h-1.445v-8.453h1.445V31zm-1.563-10.695c0-.235.072-.433.215-.594.143-.162.356-.242.637-.242s.495.08.64.242c.146.161.22.36.22.594 0 .234-.074.43-.22.586-.145.156-.359.234-.64.234s-.494-.078-.637-.234a.834.834 0 0 1-.215-.586zm5.836.195v2.047h1.578v1.117h-1.578v5.242c0 .339.07.593.211.762.14.17.38.254.719.254a3.5 3.5 0 0 0 .688-.094V31a4.19 4.19 0 0 1-1.11.156c-.646 0-1.133-.195-1.46-.586-.329-.39-.493-.945-.493-1.664v-5.242h-1.54v-1.117h1.54V20.5h1.445zm6.774 10.656c-1.146 0-2.078-.376-2.797-1.129-.719-.752-1.078-1.759-1.078-3.02v-.265c0-.838.16-1.587.48-2.246a3.748 3.748 0 0 1 1.344-1.547 3.378 3.378 0 0 1 1.871-.558c1.099 0 1.953.362 2.563 1.086.609.724.914 1.76.914 3.109v.602h-5.727c.02.833.264 1.506.73 2.019.467.513 1.06.77 1.778.77.51 0 .943-.105 1.297-.313.354-.208.664-.484.93-.828l.882.687c-.708 1.089-1.77 1.633-3.187 1.633zm-.18-7.578c-.583 0-1.073.212-1.469.637-.396.424-.64 1.02-.734 1.785h4.234v-.11c-.041-.734-.24-1.303-.593-1.706-.355-.404-.834-.606-1.438-.606z"/>
    <path id="Text/Gray-500" fill="#636D75" fill-rule="nonzero" d="M76.806 46.974h-2.338V51h-1.32v-9.953h3.295c1.121 0 1.984.255 2.588.766.604.51.906 1.253.906 2.228 0 .62-.168 1.16-.503 1.62-.335.46-.8.804-1.398 1.032l2.338 4.225V51h-1.408l-2.16-4.026zM74.468 45.9h2.016c.652 0 1.17-.168 1.556-.505.385-.338.577-.789.577-1.354 0-.615-.183-1.087-.55-1.415-.367-.328-.897-.494-1.59-.499h-2.01V45.9zm10.178 5.237c-1.002 0-1.818-.33-2.447-.988-.629-.659-.943-1.54-.943-2.642v-.233c0-.733.14-1.388.42-1.965a3.28 3.28 0 0 1 1.176-1.353 2.956 2.956 0 0 1 1.637-.49c.962 0 1.71.318 2.242.951.534.633.8 1.54.8 2.72v.527h-5.01c.018.73.23 1.318.639 1.767.408.449.926.673 1.555.673.446 0 .825-.09 1.135-.273.31-.182.58-.424.813-.725l.773.602c-.62.952-1.55 1.429-2.79 1.429zm-.157-6.631c-.51 0-.939.186-1.285.557-.346.371-.56.892-.642 1.562h3.705v-.096c-.037-.642-.21-1.14-.52-1.493-.31-.354-.73-.53-1.258-.53zm11.054 4.75l1.422-5.652h1.264L96.076 51h-1.025l-1.798-5.605L91.503 51h-1.025l-2.147-7.396h1.258l1.456 5.537 1.723-5.537h1.018l1.757 5.653zM100.889 51h-1.265v-7.396h1.265V51zm-1.368-9.358c0-.205.063-.379.188-.52.126-.141.312-.212.558-.212.246 0 .433.07.56.212a.747.747 0 0 1 .192.52.722.722 0 0 1-.192.512c-.127.137-.314.205-.56.205-.246 0-.432-.068-.558-.205a.73.73 0 0 1-.188-.512zm4.587 1.962l.041.93c.566-.712 1.304-1.067 2.215-1.067 1.563 0 2.352.882 2.365 2.645V51h-1.264v-4.895c-.005-.533-.127-.927-.366-1.182-.24-.255-.612-.383-1.118-.383-.41 0-.77.11-1.08.328-.31.219-.551.506-.724.861V51h-1.265v-7.396h1.196zm6.221 3.636c0-1.135.269-2.047.807-2.738.538-.69 1.242-1.035 2.112-1.035.866 0 1.552.296 2.058.888V40.5h1.264V51h-1.162l-.061-.793c-.506.62-1.21.93-2.113.93-.856 0-1.555-.351-2.095-1.053-.54-.702-.81-1.618-.81-2.748v-.096zm1.265.144c0 .838.173 1.495.52 1.969.346.473.824.71 1.435.71.802 0 1.388-.36 1.757-1.08v-3.397c-.379-.697-.96-1.046-1.743-1.046-.62 0-1.103.24-1.45.718-.346.478-.52 1.187-.52 2.126zM119.906 51h-1.264v-7.396h1.264V51zm-1.367-9.358c0-.205.063-.379.188-.52.125-.141.311-.212.557-.212.246 0 .433.07.56.212a.747.747 0 0 1 .192.52.722.722 0 0 1-.191.512c-.128.137-.315.205-.56.205-.247 0-.433-.068-.558-.205a.73.73 0 0 1-.188-.512zm4.587 1.962l.041.93c.565-.712 1.303-1.067 2.215-1.067 1.563 0 2.351.882 2.365 2.645V51h-1.265v-4.895c-.004-.533-.126-.927-.365-1.182-.24-.255-.612-.383-1.118-.383-.41 0-.77.11-1.08.328a2.24 2.24 0 0 0-.725.861V51h-1.264v-7.396h1.196zm6.228 3.636c0-1.153.266-2.07.8-2.751.533-.682 1.239-1.022 2.118-1.022.903 0 1.607.319 2.113.957l.061-.82h1.156v7.218c0 .957-.284 1.712-.852 2.263-.567.551-1.33.827-2.286.827a3.804 3.804 0 0 1-1.566-.342c-.51-.228-.9-.54-1.169-.936l.657-.759c.542.67 1.205 1.005 1.989 1.005.615 0 1.095-.173 1.439-.52.344-.346.516-.834.516-1.463v-.635c-.506.583-1.196.875-2.071.875-.866 0-1.567-.349-2.102-1.046-.536-.697-.803-1.648-.803-2.85zm1.271.144c0 .834.17 1.489.513 1.965.341.476.82.714 1.435.714.798 0 1.383-.362 1.757-1.086V45.6c-.387-.707-.968-1.06-1.743-1.06-.615 0-1.096.24-1.442.718-.347.478-.52 1.187-.52 2.126zm12.065-5.572v1.792h1.381v.977h-1.38v4.587c0 .296.061.518.184.666.123.149.333.223.629.223.146 0 .346-.028.601-.082V51a3.666 3.666 0 0 1-.97.137c-.565 0-.991-.171-1.279-.513-.287-.342-.43-.827-.43-1.456v-4.587h-1.347v-.977h1.347v-1.791h1.264zm2.386 5.421c0-.724.143-1.376.427-1.955a3.187 3.187 0 0 1 1.19-1.34c.508-.314 1.088-.471 1.74-.471 1.007 0 1.821.348 2.443 1.046.623.697.934 1.624.934 2.782v.089c0 .72-.138 1.366-.414 1.938a3.14 3.14 0 0 1-1.183 1.336c-.512.32-1.101.479-1.767.479-1.002 0-1.815-.349-2.437-1.046-.622-.697-.933-1.62-.933-2.769v-.089zm1.272.15c0 .821.19 1.48.57 1.976.381.497.89.745 1.528.745.643 0 1.153-.251 1.532-.755.378-.503.567-1.209.567-2.116 0-.81-.193-1.468-.578-1.972-.385-.503-.896-.755-1.534-.755-.625 0-1.128.248-1.511.745s-.574 1.208-.574 2.133zm12.858.48l.191 1.312.28-1.183 1.97-6.945h1.107l1.92 6.945.274 1.203.212-1.34 1.545-6.808h1.32L165.61 51h-1.196l-2.05-7.253-.158-.759-.157.76L159.924 51h-1.196l-2.407-9.953h1.313l1.572 6.815zm12.934 3.274c-1.003 0-1.819-.33-2.448-.988-.629-.659-.943-1.54-.943-2.642v-.233c0-.733.14-1.388.42-1.965a3.28 3.28 0 0 1 1.176-1.353 2.956 2.956 0 0 1 1.637-.49c.962 0 1.71.318 2.243.951.533.633.8 1.54.8 2.72v.527h-5.011c.018.73.231 1.318.639 1.767.408.449.926.673 1.555.673.447 0 .825-.09 1.135-.273.31-.182.58-.424.813-.725l.773.602c-.62.952-1.55 1.429-2.79 1.429zm-.158-6.631c-.51 0-.938.186-1.285.557-.346.371-.56.892-.642 1.562h3.705v-.096c-.037-.642-.21-1.14-.52-1.493-.31-.354-.729-.53-1.258-.53zm4.198 2.734c0-1.135.269-2.047.806-2.738.538-.69 1.242-1.035 2.113-1.035.866 0 1.551.296 2.057.888V40.5h1.265V51h-1.162l-.062-.793c-.506.62-1.21.93-2.112.93-.857 0-1.555-.351-2.095-1.053-.54-.702-.81-1.618-.81-2.748v-.096zm1.264.144c0 .838.174 1.495.52 1.969.346.473.825.71 1.435.71.803 0 1.388-.36 1.757-1.08v-3.397c-.378-.697-.96-1.046-1.743-1.046-.62 0-1.103.24-1.45.718-.345.478-.519 1.187-.519 2.126zm6.898 5.598l-.718-.492c.428-.597.652-1.212.67-1.845v-1.142h1.237v.991c0 .46-.113.92-.338 1.381-.226.46-.51.83-.851 1.107zm10.623-11.935h1.32v7.048c0 .952-.287 1.697-.859 2.235-.572.538-1.334.807-2.286.807-.99 0-1.76-.253-2.31-.76-.552-.505-.828-1.214-.828-2.125h1.312c0 .57.157 1.014.469 1.333.312.319.764.478 1.357.478.542 0 .98-.17 1.316-.512.335-.342.504-.82.509-1.436v-7.068zM202.888 51c-.073-.146-.132-.406-.178-.78-.588.611-1.29.917-2.106.917-.729 0-1.327-.206-1.794-.619a2.002 2.002 0 0 1-.7-1.569c0-.77.292-1.368.878-1.794.585-.426 1.41-.64 2.471-.64h1.23v-.58c0-.442-.132-.795-.396-1.057-.264-.262-.654-.393-1.169-.393-.451 0-.83.114-1.135.342-.305.228-.458.504-.458.827h-1.271c0-.369.13-.725.393-1.07a2.683 2.683 0 0 1 1.066-.816c.45-.2.942-.301 1.48-.301.852 0 1.52.213 2.003.639.483.426.734 1.013.752 1.76v3.405c0 .679.087 1.219.26 1.62V51h-1.326zm-2.099-.964a2.22 2.22 0 0 0 1.128-.307 1.86 1.86 0 0 0 .772-.8V47.41h-.99c-1.55 0-2.325.454-2.325 1.36 0 .397.132.707.397.93.264.223.603.335 1.018.335zm6.344-6.432l.04.93c.566-.712 1.304-1.067 2.216-1.067 1.563 0 2.351.882 2.365 2.645V51h-1.265v-4.895c-.004-.533-.126-.927-.365-1.182-.24-.255-.612-.383-1.118-.383-.41 0-.77.11-1.08.328a2.23 2.23 0 0 0-.725.861V51h-1.264v-7.396h1.196zM223.519 51h-6.522v-.91l3.445-3.827c.51-.58.863-1.05 1.057-1.412.193-.362.29-.737.29-1.124 0-.52-.157-.946-.472-1.279-.314-.332-.733-.499-1.257-.499-.63 0-1.118.18-1.467.537-.348.358-.523.855-.523 1.493h-1.264c0-.916.295-1.656.885-2.221.59-.565 1.38-.848 2.369-.848.925 0 1.656.243 2.194.728.538.486.807 1.132.807 1.938 0 .98-.625 2.147-1.874 3.5l-2.666 2.892h4.998V51zm11.327 0h-6.522v-.91l3.446-3.827c.51-.58.862-1.05 1.056-1.412.193-.362.29-.737.29-1.124 0-.52-.157-.946-.471-1.279-.315-.332-.734-.499-1.258-.499-.63 0-1.118.18-1.467.537-.348.358-.523.855-.523 1.493h-1.264c0-.916.295-1.656.885-2.221.59-.565 1.38-.848 2.369-.848.925 0 1.656.243 2.194.728.538.486.807 1.132.807 1.938 0 .98-.625 2.147-1.873 3.5l-2.666 2.892h4.997V51zm7.58-4.245c0 1.481-.252 2.582-.758 3.302-.506.72-1.297 1.08-2.372 1.08-1.062 0-1.848-.352-2.358-1.056-.51-.705-.775-1.756-.793-3.155v-1.689c0-1.463.252-2.55.758-3.26.506-.711 1.3-1.067 2.38-1.067 1.07 0 1.859.343 2.364 1.029.506.686.766 1.744.78 3.175v1.64zm-1.264-1.73c0-1.07-.15-1.851-.451-2.34-.3-.49-.777-.736-1.429-.736-.647 0-1.119.244-1.415.732-.296.487-.449 1.237-.458 2.249v2.023c0 1.076.156 1.87.468 2.382.313.513.785.77 1.419.77.624 0 1.088-.242 1.391-.725.303-.483.461-1.244.475-2.283v-2.072zM248.203 51h-1.271v-8.429l-2.55.937v-1.149l3.623-1.36h.198V51zm9.741-7.355c0 .496-.13.938-.393 1.326-.262.387-.616.69-1.063.909.52.223.931.549 1.234.977.303.429.455.914.455 1.456 0 .862-.29 1.548-.872 2.058-.58.51-1.345.766-2.293.766-.957 0-1.724-.257-2.3-.77-.577-.512-.865-1.197-.865-2.054 0-.537.147-1.023.44-1.456.295-.433.701-.76 1.22-.984a2.608 2.608 0 0 1-1.045-.91 2.344 2.344 0 0 1-.383-1.318c0-.839.269-1.504.807-1.997.538-.492 1.246-.738 2.126-.738.875 0 1.582.246 2.122.738.54.493.81 1.158.81 1.997zm-1.032 4.641c0-.556-.176-1.01-.53-1.36-.353-.351-.814-.527-1.384-.527s-1.026.174-1.37.52c-.345.346-.517.802-.517 1.367s.168 1.01.503 1.333c.335.324.8.485 1.398.485.592 0 1.057-.162 1.394-.488.337-.326.506-.77.506-1.33zm-1.9-6.337c-.497 0-.9.154-1.207.462-.307.307-.461.725-.461 1.254 0 .506.151.915.454 1.227.303.312.708.468 1.214.468s.91-.156 1.213-.468c.303-.312.455-.721.455-1.227 0-.506-.158-.918-.472-1.237-.314-.32-.713-.479-1.196-.479zM267.392 51h-1.272v-8.429l-2.55.937v-1.149l3.623-1.36h.199V51zm3.794-.663c0-.219.064-.401.194-.547.13-.146.325-.219.585-.219.26 0 .457.073.591.219a.776.776 0 0 1 .202.547.73.73 0 0 1-.202.526c-.134.142-.331.212-.591.212-.26 0-.455-.07-.585-.212a.748.748 0 0 1-.194-.526zm.006-6.036c0-.219.065-.401.195-.547.13-.146.325-.219.585-.219.26 0 .457.073.591.219a.776.776 0 0 1 .202.547c0 .21-.068.385-.202.526-.134.141-.332.212-.591.212-.26 0-.455-.07-.585-.212a.748.748 0 0 1-.195-.526zm9.537 2.454c0 1.481-.253 2.582-.76 3.302-.505.72-1.296 1.08-2.371 1.08-1.062 0-1.848-.352-2.359-1.056-.51-.705-.774-1.756-.793-3.155v-1.689c0-1.463.253-2.55.76-3.26.505-.711 1.298-1.067 2.378-1.067 1.071 0 1.86.343 2.365 1.029.506.686.766 1.744.78 3.175v1.64zm-1.265-1.73c0-1.07-.15-1.851-.451-2.34-.301-.49-.777-.736-1.429-.736-.647 0-1.119.244-1.415.732-.296.487-.449 1.237-.458 2.249v2.023c0 1.076.156 1.87.468 2.382.312.513.785.77 1.419.77.624 0 1.088-.242 1.39-.725.304-.483.462-1.244.476-2.283v-2.072zm9.126 1.73c0 1.481-.253 2.582-.759 3.302-.506.72-1.296 1.08-2.372 1.08-1.062 0-1.848-.352-2.358-1.056-.51-.705-.775-1.756-.793-3.155v-1.689c0-1.463.253-2.55.758-3.26.506-.711 1.3-1.067 2.38-1.067 1.07 0 1.859.343 2.365 1.029.505.686.765 1.744.779 3.175v1.64zm-1.265-1.73c0-1.07-.15-1.851-.451-2.34-.3-.49-.777-.736-1.429-.736-.647 0-1.119.244-1.415.732-.296.487-.449 1.237-.458 2.249v2.023c0 1.076.156 1.87.469 2.382.312.513.785.77 1.418.77.624 0 1.088-.242 1.391-.725.303-.483.462-1.244.475-2.283v-2.072zm12.175 3.377h-4.17L294.394 51h-1.354l3.8-9.953h1.15L301.796 51h-1.347l-.95-2.598zm-3.773-1.08h3.383l-1.695-4.655-1.688 4.655zm9.105-6.275l3.254 8.121 3.254-8.121h1.702V51h-1.313v-3.876l.124-4.184-3.268 8.06h-1.005l-3.26-8.04.13 4.164V51h-1.313v-9.953h1.695z"/>
  </g>
</svg>
