<svg xmlns="http://www.w3.org/2000/svg" width="360" height="592">
  <g id="screenshot-my-sites-body" fill="none" fill-rule="evenodd" stroke="none" stroke-width="1">
    <g id="Content">
      <path id="Background/Gray-0" fill="#F6F6F6" d="M0 0h360v592H0z"/>
      <path id="Labels/Gray-900" fill="#1A1A1A" d="M81.688 539.39c-.141 1.204-.585 2.132-1.333 2.786-.747.653-1.74.98-2.98.98-1.344 0-2.42-.482-3.23-1.445-.81-.964-1.215-2.253-1.215-3.867v-1.094c0-1.057.188-1.987.566-2.79.378-.801.913-1.417 1.606-1.847.692-.43 1.494-.644 2.406-.644 1.208 0 2.177.337 2.906 1.011.73.675 1.154 1.609 1.273 2.801H80.18c-.13-.906-.413-1.562-.848-1.968-.435-.407-1.043-.61-1.824-.61-.959 0-1.71.354-2.254 1.063-.544.708-.817 1.716-.817 3.023v1.102c0 1.234.258 2.216.774 2.945.516.73 1.237 1.094 2.164 1.094.833 0 1.473-.19 1.918-.567.445-.377.74-1.035.887-1.972h1.507zm1.437-.695c0-.828.163-1.573.488-2.234.326-.662.779-1.172 1.36-1.531.58-.36 1.243-.54 1.988-.54 1.151 0 2.082.4 2.793 1.196.71.797 1.066 1.857 1.066 3.18v.101c0 .823-.157 1.561-.472 2.215a3.589 3.589 0 01-1.352 1.527c-.586.365-1.259.547-2.02.547-1.145 0-2.074-.398-2.785-1.195-.71-.797-1.066-1.852-1.066-3.164v-.102zm1.453.172c0 .938.218 1.69.652 2.258.435.568 1.017.852 1.747.852.734 0 1.317-.288 1.75-.864.432-.575.648-1.381.648-2.418 0-.927-.22-1.678-.66-2.254-.44-.575-1.025-.863-1.754-.863-.714 0-1.29.284-1.727.852-.437.567-.656 1.38-.656 2.437zm9.414-4.32l.04.937c.619-.729 1.455-1.093 2.507-1.093 1.182 0 1.987.453 2.414 1.359a3.202 3.202 0 011.098-.984c.45-.25.983-.375 1.597-.375 1.855 0 2.797.981 2.829 2.945V543h-1.446v-5.578c0-.604-.138-1.056-.414-1.356-.276-.3-.74-.449-1.39-.449-.537 0-.982.16-1.336.48-.355.321-.56.752-.618 1.294V543H97.82v-5.54c0-1.228-.601-1.843-1.804-1.843-.948 0-1.597.404-1.946 1.211V543h-1.445v-8.453h1.367zm14.024 0l.039.937c.62-.729 1.455-1.093 2.507-1.093 1.183 0 1.987.453 2.415 1.359a3.202 3.202 0 011.097-.984c.45-.25.983-.375 1.598-.375 1.854 0 2.797.981 2.828 2.945V543h-1.445v-5.578c0-.604-.138-1.056-.414-1.356-.276-.3-.74-.449-1.391-.449-.536 0-.982.16-1.336.48-.354.321-.56.752-.617 1.294V543h-1.453v-5.54c0-1.228-.602-1.843-1.805-1.843-.948 0-1.596.404-1.945 1.211V543h-1.446v-8.453h1.368zm16.171 8.61c-1.145 0-2.078-.377-2.796-1.13-.72-.752-1.079-1.759-1.079-3.02v-.265c0-.838.16-1.587.481-2.246a3.748 3.748 0 011.344-1.547 3.378 3.378 0 011.87-.558c1.1 0 1.954.362 2.563 1.086.61.724.914 1.76.914 3.109v.601h-5.726c.02.834.264 1.507.73 2.02.466.513 1.059.77 1.778.77.51 0 .942-.105 1.296-.313.355-.208.665-.484.93-.828l.883.687c-.708 1.089-1.77 1.633-3.188 1.633zm-.18-7.579c-.583 0-1.072.212-1.468.637-.396.424-.64 1.02-.734 1.785h4.234v-.11c-.042-.734-.24-1.303-.594-1.706-.354-.404-.833-.606-1.437-.606zm6.516-1.031l.047 1.062c.646-.812 1.49-1.218 2.532-1.218 1.786 0 2.687 1.007 2.703 3.023V543h-1.446v-5.594c-.005-.61-.144-1.06-.418-1.351-.273-.292-.699-.438-1.277-.438-.469 0-.88.125-1.234.375s-.63.578-.828.985V543h-1.446v-8.453h1.367zm9.422-2.047v2.047h1.578v1.117h-1.578v5.242c0 .339.07.593.211.762.14.17.38.254.719.254a3.5 3.5 0 00.688-.094V543a4.19 4.19 0 01-1.11.156c-.646 0-1.133-.195-1.46-.586-.329-.39-.493-.945-.493-1.664v-5.242h-1.54v-1.117h1.54V532.5h1.445zm8.188 8.258c0-.39-.147-.694-.442-.91-.294-.216-.807-.403-1.539-.559-.731-.156-1.312-.344-1.742-.562-.43-.22-.747-.48-.953-.782-.206-.302-.309-.661-.309-1.078 0-.693.293-1.278.88-1.758.585-.479 1.334-.718 2.245-.718.959 0 1.736.247 2.332.742.597.495.895 1.127.895 1.898h-1.453c0-.396-.168-.737-.504-1.023-.336-.287-.76-.43-1.27-.43-.526 0-.937.115-1.234.344a1.081 1.081 0 00-.445.898c0 .35.138.612.414.79.276.176.775.346 1.496.507.721.162 1.306.354 1.754.578.448.224.78.494.996.809.216.315.324.7.324 1.152 0 .755-.302 1.36-.906 1.817-.604.455-1.388.683-2.352.683-.677 0-1.276-.12-1.797-.36a2.922 2.922 0 01-1.222-1.003 2.42 2.42 0 01-.442-1.395h1.446c.026.485.22.869.582 1.153.362.284.84.426 1.433.426.547 0 .986-.111 1.317-.332.33-.222.496-.517.496-.887zm-72.875-57.133l3.719 9.281 3.718-9.281h1.946V495h-1.5v-4.43l.14-4.78-3.734 9.21h-1.149l-3.726-9.188.148 4.758V495h-1.5v-11.375h1.938zm15.312 11.531c-1.146 0-2.078-.376-2.797-1.129-.718-.752-1.078-1.759-1.078-3.02v-.265c0-.838.16-1.587.48-2.246a3.748 3.748 0 011.345-1.547 3.378 3.378 0 011.87-.558c1.1 0 1.954.362 2.563 1.086.61.724.914 1.76.914 3.109v.601h-5.726c.02.834.264 1.507.73 2.02.466.513 1.059.77 1.777.77.51 0 .943-.105 1.297-.313.354-.208.664-.484.93-.828l.883.687c-.709 1.089-1.771 1.633-3.188 1.633zm-.18-7.578c-.583 0-1.072.212-1.468.637-.396.424-.64 1.02-.734 1.785h4.234v-.11c-.042-.734-.24-1.303-.594-1.706-.354-.404-.833-.606-1.437-.606zm4.797 3.125c0-1.297.308-2.34.922-3.129.615-.789 1.42-1.183 2.414-1.183.99 0 1.774.338 2.352 1.015V483h1.445v12h-1.328l-.07-.906c-.578.708-1.383 1.062-2.414 1.062-.98 0-1.778-.4-2.395-1.203-.617-.802-.925-1.849-.925-3.14v-.11zm1.446.164c0 .959.198 1.709.594 2.25.395.542.942.813 1.64.813.917 0 1.586-.412 2.008-1.235v-3.882c-.432-.797-1.096-1.196-1.992-1.196-.709 0-1.26.274-1.656.82-.396.547-.594 1.357-.594 2.43zm9.5 4.133h-1.445v-8.453h1.445V495zm-1.563-10.695c0-.235.072-.433.215-.594.143-.162.356-.242.637-.242s.495.08.64.242c.146.161.22.36.22.594 0 .234-.074.43-.22.586-.145.156-.359.234-.64.234s-.494-.078-.637-.234a.834.834 0 01-.215-.586zM113.664 495c-.083-.167-.151-.464-.203-.89-.672.697-1.474 1.046-2.406 1.046-.834 0-1.517-.235-2.051-.707-.534-.471-.8-1.069-.8-1.793 0-.88.334-1.564 1.003-2.05.67-.488 1.61-.731 2.824-.731h1.406v-.664c0-.505-.15-.908-.453-1.207-.302-.3-.747-.45-1.336-.45-.515 0-.947.13-1.296.391-.35.26-.524.576-.524.946h-1.453c0-.422.15-.83.45-1.223.299-.393.705-.704 1.218-.934a4.1 4.1 0 011.691-.343c.974 0 1.737.243 2.29.73.552.487.838 1.158.859 2.012v3.89c0 .776.099 1.394.297 1.852V495h-1.516zm-2.398-1.102a2.54 2.54 0 001.289-.351c.406-.235.7-.54.882-.914v-1.735h-1.132c-1.771 0-2.657.519-2.657 1.555 0 .453.151.807.454 1.063.302.255.69.382 1.164.382zM73.32 447v-11.375h3.72c1.233 0 2.162.255 2.784.766.623.51.934 1.265.934 2.265a2.31 2.31 0 01-.453 1.41c-.302.41-.714.726-1.235.95.615.172 1.1.498 1.457.98s.535 1.056.535 1.723c0 1.02-.33 1.823-.992 2.406-.661.583-1.596.875-2.804.875H73.32zm1.5-5.32v4.093h2.477c.698 0 1.249-.18 1.652-.543.404-.362.606-.86.606-1.496 0-1.37-.745-2.054-2.235-2.054h-2.5zm0-1.203h2.266c.656 0 1.18-.164 1.574-.493.393-.328.59-.773.59-1.336 0-.625-.182-1.079-.547-1.363-.364-.284-.92-.426-1.664-.426H74.82v3.618zM84.625 447H83.18v-12h1.445v12zm1.93-4.305c0-.828.162-1.573.488-2.234.325-.662.779-1.172 1.36-1.531.58-.36 1.243-.54 1.988-.54 1.15 0 2.082.4 2.793 1.196.71.797 1.066 1.857 1.066 3.18v.101c0 .823-.158 1.561-.473 2.215a3.589 3.589 0 01-1.351 1.527c-.586.365-1.26.547-2.02.547-1.146 0-2.074-.398-2.785-1.195-.71-.797-1.066-1.852-1.066-3.164v-.102zm1.453.172c0 .938.217 1.69.652 2.258.435.568 1.017.852 1.746.852.735 0 1.318-.288 1.75-.864.433-.575.649-1.381.649-2.418 0-.927-.22-1.678-.66-2.254-.44-.575-1.025-.863-1.754-.863-.714 0-1.29.284-1.727.852-.437.567-.656 1.38-.656 2.437zm7.71-.164c0-1.318.305-2.366.915-3.144.61-.78 1.416-1.168 2.422-1.168 1.03 0 1.836.364 2.414 1.093l.07-.937h1.32v8.25c0 1.094-.324 1.956-.972 2.586-.649.63-1.52.945-2.614.945-.609 0-1.205-.13-1.789-.39-.583-.26-1.028-.618-1.336-1.07l.75-.868c.62.766 1.378 1.148 2.274 1.148.703 0 1.251-.197 1.644-.593.394-.396.59-.953.59-1.672v-.727c-.578.667-1.367 1-2.367 1-.99 0-1.79-.398-2.402-1.195-.612-.797-.918-1.883-.918-3.258zm1.454.164c0 .953.195 1.702.586 2.246.39.545.937.817 1.64.817.912 0 1.581-.414 2.008-1.243v-3.859c-.442-.807-1.107-1.21-1.992-1.21-.703 0-1.253.273-1.648.82-.396.546-.594 1.356-.594 2.43zm13.555-.32V447h-1.5v-11.375h4.195c1.245 0 2.22.318 2.926.953.705.636 1.058 1.477 1.058 2.524 0 1.104-.345 1.954-1.035 2.55-.69.597-1.678.895-2.965.895h-2.68zm0-1.227h2.695c.802 0 1.417-.188 1.844-.566.427-.378.64-.923.64-1.637 0-.677-.213-1.219-.64-1.625-.427-.406-1.013-.617-1.758-.633h-2.781v4.461zm7.882 1.375c0-.828.163-1.573.489-2.234.325-.662.778-1.172 1.359-1.531.58-.36 1.244-.54 1.988-.54 1.151 0 2.082.4 2.793 1.196.711.797 1.067 1.857 1.067 3.18v.101c0 .823-.158 1.561-.473 2.215a3.589 3.589 0 01-1.352 1.527c-.585.365-1.259.547-2.02.547-1.145 0-2.073-.398-2.784-1.195-.711-.797-1.067-1.852-1.067-3.164v-.102zm1.454.172c0 .938.217 1.69.652 2.258.435.568 1.017.852 1.746.852.734 0 1.318-.288 1.75-.864.432-.575.648-1.381.648-2.418 0-.927-.22-1.678-.66-2.254-.44-.575-1.025-.863-1.754-.863-.713 0-1.289.284-1.726.852-.438.567-.656 1.38-.656 2.437zm12.976 1.89c0-.39-.147-.693-.441-.91-.295-.215-.808-.402-1.54-.558-.731-.156-1.312-.344-1.742-.562-.43-.22-.747-.48-.953-.782-.205-.302-.308-.661-.308-1.078 0-.693.293-1.278.879-1.758.586-.479 1.334-.718 2.246-.718.958 0 1.735.247 2.332.742.596.495.894 1.127.894 1.898h-1.453c0-.396-.168-.737-.504-1.023-.336-.287-.759-.43-1.27-.43-.525 0-.937.115-1.234.344a1.081 1.081 0 00-.445.898c0 .35.138.612.414.79.276.176.775.346 1.496.507.722.162 1.306.354 1.754.578.448.224.78.494.996.809.216.315.324.7.324 1.152 0 .755-.302 1.36-.906 1.817-.604.455-1.388.683-2.351.683-.678 0-1.276-.12-1.797-.36a2.922 2.922 0 01-1.223-1.003 2.42 2.42 0 01-.441-1.395h1.445c.026.485.22.869.582 1.153.362.284.84.426 1.434.426.546 0 .985-.111 1.316-.332.33-.222.496-.517.496-.887zm5.29-8.257v2.047h1.577v1.117h-1.578v5.242c0 .339.07.593.211.762.14.17.38.254.719.254a3.5 3.5 0 00.687-.094V447a4.19 4.19 0 01-1.11.156c-.645 0-1.132-.195-1.46-.586-.328-.39-.492-.945-.492-1.664v-5.242h-1.54v-1.117h1.54V436.5h1.445zm8.187 8.258c0-.39-.148-.694-.442-.91-.294-.216-.807-.403-1.539-.559-.732-.156-1.312-.344-1.742-.562-.43-.22-.747-.48-.953-.782-.206-.302-.309-.661-.309-1.078 0-.693.293-1.278.88-1.758.585-.479 1.334-.718 2.245-.718.959 0 1.736.247 2.332.742.597.495.895 1.127.895 1.898h-1.453c0-.396-.168-.737-.504-1.023-.336-.287-.76-.43-1.27-.43-.526 0-.937.115-1.234.344a1.081 1.081 0 00-.445.898c0 .35.138.612.414.79.276.176.774.346 1.496.507.721.162 1.306.354 1.754.578.448.224.78.494.996.809.216.315.324.7.324 1.152 0 .755-.302 1.36-.906 1.817-.604.455-1.388.683-2.352.683-.677 0-1.276-.12-1.797-.36a2.922 2.922 0 01-1.222-1.003 2.42 2.42 0 01-.442-1.395h1.446c.026.485.22.869.582 1.153.362.284.84.426 1.433.426.547 0 .986-.111 1.317-.332.33-.222.496-.517.496-.887zM76.672 393.93c-1.287-.37-2.223-.825-2.809-1.364a2.605 2.605 0 01-.879-1.996c0-.896.358-1.636 1.075-2.222.716-.586 1.647-.88 2.793-.88.78 0 1.477.152 2.09.454.611.302 1.085.719 1.421 1.25.336.531.504 1.112.504 1.742H79.36c0-.687-.218-1.228-.656-1.621-.437-.393-1.055-.59-1.851-.59-.74 0-1.317.163-1.73.488-.415.326-.622.778-.622 1.356 0 .463.197.855.59 1.176.393.32 1.062.613 2.008.879.945.265 1.685.558 2.218.878.534.32.93.694 1.188 1.122.258.427.387.93.387 1.507 0 .922-.36 1.66-1.079 2.215-.718.555-1.68.832-2.882.832-.782 0-1.51-.15-2.188-.449-.677-.3-1.199-.71-1.566-1.23a3.003 3.003 0 01-.551-1.774h1.508c0 .688.254 1.23.762 1.629.507.398 1.186.598 2.035.598.791 0 1.398-.162 1.82-.485.422-.323.633-.763.633-1.32s-.195-.988-.586-1.293c-.39-.305-1.1-.605-2.125-.902zm7.484 5.07h-1.445v-8.453h1.445V399zm-1.562-10.695c0-.235.071-.433.215-.594.143-.162.355-.242.636-.242.282 0 .495.08.64.242a.85.85 0 01.22.594c0 .234-.073.43-.22.586-.145.156-.358.234-.64.234-.28 0-.493-.078-.636-.234a.834.834 0 01-.215-.586zm5.836.195v2.047h1.578v1.117H88.43v5.242c0 .339.07.593.21.762.141.17.38.254.72.254a3.5 3.5 0 00.687-.094V399a4.19 4.19 0 01-1.11.156c-.645 0-1.132-.195-1.46-.586-.329-.39-.493-.945-.493-1.664v-5.242h-1.539v-1.117h1.54V388.5h1.445zm6.773 10.656c-1.146 0-2.078-.376-2.797-1.129-.719-.752-1.078-1.759-1.078-3.02v-.265c0-.838.16-1.587.48-2.246a3.748 3.748 0 011.344-1.547 3.378 3.378 0 011.871-.558c1.1 0 1.954.362 2.563 1.086.61.724.914 1.76.914 3.109v.601h-5.727c.021.834.265 1.507.73 2.02.467.513 1.06.77 1.778.77.51 0 .943-.105 1.297-.313.354-.208.664-.484.93-.828l.883.687c-.709 1.089-1.771 1.633-3.188 1.633zm-.18-7.578c-.583 0-1.072.212-1.468.637-.396.424-.64 1.02-.735 1.785h4.235v-.11c-.042-.734-.24-1.303-.594-1.706-.354-.404-.833-.606-1.438-.606zm10.836 2.969V399h-1.5v-11.375h4.196c1.244 0 2.22.318 2.925.953.706.636 1.06 1.477 1.06 2.524 0 1.104-.346 1.954-1.036 2.55-.69.597-1.678.895-2.965.895h-2.68zm0-1.227h2.696c.802 0 1.416-.188 1.843-.566.428-.378.641-.923.641-1.637 0-.677-.213-1.219-.64-1.625-.428-.406-1.014-.617-1.758-.633h-2.782v4.461zm13.5 5.68c-.083-.167-.15-.464-.203-.89-.672.697-1.474 1.046-2.406 1.046-.833 0-1.517-.235-2.05-.707-.535-.471-.802-1.069-.802-1.793 0-.88.335-1.564 1.004-2.05.67-.488 1.611-.731 2.825-.731h1.406v-.664c0-.505-.151-.908-.453-1.207-.302-.3-.748-.45-1.336-.45-.516 0-.948.13-1.297.391-.35.26-.524.576-.524.946h-1.453c0-.422.15-.83.45-1.223.299-.393.705-.704 1.218-.934a4.1 4.1 0 011.692-.343c.974 0 1.737.243 2.289.73s.838 1.158.86 2.012v3.89c0 .776.098 1.394.296 1.852V399h-1.516zm-2.398-1.102a2.54 2.54 0 001.289-.351c.406-.235.7-.54.883-.914v-1.735H118c-1.77 0-2.656.519-2.656 1.555 0 .453.15.807.453 1.063.302.255.69.382 1.164.382zm5.539-3.195c0-1.318.305-2.366.914-3.144.61-.78 1.417-1.168 2.422-1.168 1.031 0 1.836.364 2.414 1.093l.07-.937h1.32v8.25c0 1.094-.324 1.956-.972 2.586-.648.63-1.52.945-2.613.945-.61 0-1.206-.13-1.79-.39-.583-.26-1.028-.618-1.335-1.07l.75-.868c.62.766 1.377 1.148 2.273 1.148.703 0 1.251-.197 1.645-.593.393-.396.59-.953.59-1.672v-.727c-.579.667-1.368 1-2.368 1-.99 0-1.79-.398-2.402-1.195-.612-.797-.918-1.883-.918-3.258zm1.453.164c0 .953.195 1.702.586 2.246.39.545.938.817 1.64.817.912 0 1.581-.414 2.008-1.243v-3.859c-.442-.807-1.106-1.21-1.992-1.21-.703 0-1.252.273-1.648.82-.396.546-.594 1.356-.594 2.43zm11.375 4.29c-1.146 0-2.078-.377-2.797-1.13-.719-.752-1.078-1.759-1.078-3.02v-.265c0-.838.16-1.587.48-2.246a3.748 3.748 0 011.344-1.547 3.378 3.378 0 011.871-.558c1.1 0 1.954.362 2.563 1.086.61.724.914 1.76.914 3.109v.601h-5.727c.021.834.265 1.507.73 2.02.467.513 1.06.77 1.778.77.51 0 .943-.105 1.297-.313.354-.208.664-.484.93-.828l.883.687c-.709 1.089-1.771 1.633-3.188 1.633zm-.18-7.579c-.583 0-1.072.212-1.468.637-.396.424-.64 1.02-.735 1.785h4.235v-.11c-.042-.734-.24-1.303-.594-1.706-.354-.404-.833-.606-1.438-.606zm10.07 5.18c0-.39-.146-.694-.44-.91-.295-.216-.808-.403-1.54-.559-.731-.156-1.312-.344-1.742-.562-.43-.22-.747-.48-.953-.782-.206-.302-.309-.661-.309-1.078 0-.693.293-1.278.88-1.758.585-.479 1.334-.718 2.245-.718.959 0 1.736.247 2.332.742.597.495.895 1.127.895 1.898h-1.453c0-.396-.168-.737-.504-1.023-.336-.287-.76-.43-1.27-.43-.526 0-.937.115-1.234.344a1.081 1.081 0 00-.445.898c0 .35.138.612.414.79.276.176.774.346 1.496.507.721.162 1.306.354 1.754.578.448.224.78.494.996.809.216.315.324.7.324 1.152 0 .755-.302 1.36-.906 1.817-.604.455-1.388.683-2.352.683-.677 0-1.276-.12-1.797-.36a2.922 2.922 0 01-1.222-1.003 2.42 2.42 0 01-.442-1.395h1.446c.026.485.22.869.582 1.153.362.284.84.426 1.433.426.547 0 .986-.111 1.317-.332.33-.222.496-.517.496-.887zM74.82 306.547V311h-1.5v-11.375h4.196c1.244 0 2.22.318 2.925.953.706.636 1.059 1.477 1.059 2.524 0 1.104-.345 1.954-1.035 2.55-.69.597-1.679.895-2.965.895h-2.68zm0-1.227h2.696c.802 0 1.416-.188 1.843-.566.427-.378.641-.923.641-1.637 0-.677-.214-1.219-.64-1.625-.428-.406-1.014-.617-1.758-.633H74.82v4.461zm9.938 5.68h-1.445v-12h1.445v12zm7.531 0c-.083-.167-.151-.464-.203-.89-.672.697-1.474 1.046-2.406 1.046-.834 0-1.517-.235-2.051-.707-.534-.471-.8-1.069-.8-1.793 0-.88.334-1.564 1.003-2.05.67-.488 1.61-.731 2.824-.731h1.406v-.664c0-.505-.15-.908-.453-1.207-.302-.3-.747-.45-1.336-.45-.515 0-.947.13-1.296.391-.35.26-.524.576-.524.946H87c0-.422.15-.83.45-1.223.299-.393.705-.704 1.218-.934a4.1 4.1 0 011.691-.343c.974 0 1.737.243 2.29.73.552.487.838 1.158.859 2.012v3.89c0 .776.099 1.394.297 1.852V311h-1.516zm-2.398-1.102a2.54 2.54 0 001.289-.351c.406-.235.7-.54.882-.914v-1.735H90.93c-1.771 0-2.657.519-2.657 1.555 0 .453.151.807.454 1.063.302.255.69.382 1.164.382zm7.25-7.351l.046 1.062c.646-.812 1.49-1.218 2.532-1.218 1.786 0 2.687 1.007 2.703 3.023V311h-1.445v-5.594c-.006-.61-.145-1.06-.418-1.351-.274-.292-.7-.438-1.278-.438-.469 0-.88.125-1.234.375s-.63.578-.828.985V311h-1.446v-8.453h1.368zM79.6 260.03h-4.765L73.766 263h-1.547l4.344-11.375h1.312L82.227 263h-1.54l-1.085-2.969zm-4.312-1.234h3.867l-1.937-5.32-1.93 5.32zm11.633 3.18c.516 0 .966-.157 1.351-.47.386-.312.6-.702.641-1.171h1.367a2.62 2.62 0 01-.5 1.383 3.293 3.293 0 01-1.23 1.047 3.55 3.55 0 01-1.63.39c-1.15 0-2.066-.384-2.745-1.152-.68-.768-1.02-1.82-1.02-3.152v-.243c0-.823.151-1.554.453-2.195a3.451 3.451 0 011.301-1.492c.565-.354 1.233-.531 2.004-.531.948 0 1.736.283 2.363.851.628.568.963 1.305 1.004 2.211h-1.367c-.042-.547-.249-.996-.621-1.348-.372-.351-.832-.527-1.379-.527-.734 0-1.303.264-1.707.793-.404.529-.605 1.293-.605 2.293v.274c0 .973.2 1.723.601 2.25.401.526.974.789 1.719.789zm6.945-9.477v2.047h1.578v1.117h-1.578v5.242c0 .339.07.593.211.762.14.17.38.254.719.254a3.5 3.5 0 00.687-.094V263a4.19 4.19 0 01-1.109.156c-.646 0-1.133-.195-1.46-.586-.33-.39-.493-.945-.493-1.664v-5.242h-1.54v-1.117h1.54V252.5h1.445zm4.836 10.5h-1.445v-8.453h1.445V263zm-1.562-10.695c0-.235.071-.433.214-.594.144-.162.356-.242.637-.242s.495.08.64.242a.85.85 0 01.22.594c0 .234-.073.43-.22.586-.145.156-.359.234-.64.234s-.493-.078-.637-.234a.834.834 0 01-.214-.586zm6.664 8.734l2.093-6.492h1.477l-3.03 8.454h-1.102l-3.062-8.453h1.476l2.149 6.492zm6.53 1.961h-1.444v-8.453h1.445V263zm-1.562-10.695c0-.235.072-.433.215-.594.144-.162.356-.242.637-.242s.495.08.64.242c.146.161.22.36.22.594 0 .234-.074.43-.22.586-.145.156-.359.234-.64.234s-.493-.078-.637-.234a.834.834 0 01-.215-.586zm5.836.195v2.047h1.579v1.117h-1.579v5.242c0 .339.07.593.211.762.14.17.38.254.72.254a3.5 3.5 0 00.687-.094V263a4.19 4.19 0 01-1.11.156c-.646 0-1.133-.195-1.46-.586-.329-.39-.493-.945-.493-1.664v-5.242h-1.539v-1.117h1.54V252.5h1.444zm6.032 8.383l1.968-6.336h1.547l-3.398 9.758c-.526 1.406-1.362 2.11-2.508 2.11l-.273-.024-.54-.102v-1.172l.391.031c.49 0 .871-.099 1.145-.296.273-.198.498-.56.675-1.086l.32-.86-3.015-8.36h1.578l2.11 6.337zM76.67 209.93c-1.286-.37-2.222-.825-2.808-1.364a2.605 2.605 0 01-.879-1.996c0-.896.358-1.636 1.075-2.222.716-.586 1.647-.88 2.793-.88.78 0 1.477.152 2.09.454.611.302 1.085.719 1.421 1.25.336.531.504 1.112.504 1.742H79.36c0-.687-.218-1.228-.656-1.621-.437-.393-1.055-.59-1.851-.59-.74 0-1.317.163-1.73.488-.415.326-.622.778-.622 1.356 0 .463.197.855.59 1.176.393.32 1.062.613 2.008.879.945.265 1.685.558 2.218.878.534.32.93.694 1.188 1.122.258.427.387.93.387 1.507 0 .922-.36 1.66-1.079 2.215-.718.555-1.68.832-2.882.832-.782 0-1.51-.15-2.188-.449-.677-.3-1.199-.71-1.566-1.23a3.003 3.003 0 01-.551-1.774h1.508c0 .688.254 1.23.762 1.629.507.398 1.186.598 2.035.598.791 0 1.398-.162 1.82-.485.422-.323.633-.763.633-1.32s-.195-.988-.586-1.293c-.39-.305-1.1-.605-2.125-.902zm7.876-5.43v2.047h1.578v1.117h-1.578v5.242c0 .339.07.593.21.762.141.17.381.254.72.254a3.5 3.5 0 00.687-.094V215a4.19 4.19 0 01-1.11.156c-.645 0-1.132-.195-1.46-.586-.328-.39-.492-.945-.492-1.664v-5.242h-1.54v-1.117h1.54V204.5h1.445zM93.03 215c-.083-.167-.15-.464-.203-.89-.672.697-1.474 1.046-2.406 1.046-.833 0-1.517-.235-2.05-.707-.535-.471-.802-1.069-.802-1.793 0-.88.335-1.564 1.004-2.05.67-.488 1.61-.731 2.824-.731h1.407v-.664c0-.505-.151-.908-.453-1.207-.303-.3-.748-.45-1.336-.45-.516 0-.948.13-1.297.391-.35.26-.524.576-.524.946h-1.453c0-.422.15-.83.45-1.223.299-.393.705-.704 1.218-.934a4.1 4.1 0 011.692-.343c.974 0 1.737.243 2.289.73s.838 1.158.859 2.012v3.89c0 .776.099 1.394.297 1.852V215H93.03zm-2.398-1.102a2.54 2.54 0 001.289-.351c.406-.235.7-.54.883-.914v-1.735h-1.133c-1.771 0-2.656.519-2.656 1.555 0 .453.15.807.453 1.063.302.255.69.382 1.164.382zm7.844-9.398v2.047h1.578v1.117h-1.578v5.242c0 .339.07.593.21.762.141.17.38.254.72.254a3.5 3.5 0 00.687-.094V215a4.19 4.19 0 01-1.11.156c-.645 0-1.132-.195-1.46-.586-.329-.39-.493-.945-.493-1.664v-5.242h-1.539v-1.117h1.54V204.5h1.445zm8.187 8.258c0-.39-.147-.694-.441-.91-.295-.216-.808-.403-1.54-.559-.731-.156-1.312-.344-1.742-.562-.43-.22-.747-.48-.953-.782-.205-.302-.308-.661-.308-1.078 0-.693.293-1.278.879-1.758.586-.479 1.334-.718 2.246-.718.958 0 1.735.247 2.332.742.596.495.894 1.127.894 1.898h-1.453c0-.396-.168-.737-.504-1.023-.336-.287-.759-.43-1.27-.43-.525 0-.937.115-1.234.344a1.081 1.081 0 00-.445.898c0 .35.138.612.414.79.276.176.775.346 1.496.507.722.162 1.306.354 1.754.578.448.224.78.494.996.809.216.315.324.7.324 1.152 0 .755-.302 1.36-.906 1.817-.604.455-1.388.683-2.351.683-.678 0-1.276-.12-1.797-.36a2.922 2.922 0 01-1.223-1.003 2.42 2.42 0 01-.441-1.395h1.445c.026.485.22.869.582 1.153.362.284.84.426 1.434.426.546 0 .985-.111 1.316-.332.33-.222.496-.517.496-.887z"/>
      <path id="Icons/Gray-500" fill="#636D75" fill-rule="nonzero" d="M18.12 259.526h2.032c.718 3.677 3.971 6.472 7.848 6.472 4.4 0 8-3.602 8-8S32.4 250 28.002 250c-2.5 0-4.802 1.2-6.202 3H25v2h-7l.003-7H20v4c1.802-2.4 4.704-4 8-4 5.5 0 10 4.5 10 9.998 0 5.498-4.5 9.998-10 9.998-4.978 0-9.138-3.69-9.88-8.47zM27.002 253h2v4.701l2.8 3.7-1.6 1.197-3.2-4.298V253zM28 296c5.523 0 10 4.477 10 10s-4.477 10-10 10-10-4.477-10-10 4.477-10 10-10zm1 15v-6h-2v6h2zm0-8v-2h-2v2h2zm8-84H19v-2h18v2zm-13-11v7h-4v-7h4zm6-7v14h-4v-14h4zm6 3v11h-4v-11h4zM18.741 351.302V355h-1.73v-9.953h3.808c1.112 0 1.995.29 2.65.868.653.579.98 1.344.98 2.297 0 .975-.32 1.734-.96 2.276-.64.543-1.537.814-2.69.814H18.74zm0-1.388h2.078c.616 0 1.085-.145 1.409-.434.323-.29.485-.708.485-1.254 0-.538-.164-.968-.492-1.289-.328-.321-.78-.486-1.354-.496h-2.126v3.473zm11.54 4.361c-.488.575-1.181.862-2.079.862-.802 0-1.41-.235-1.822-.704-.412-.47-.618-1.149-.618-2.037v-4.792h1.66v4.771c0 .939.39 1.408 1.17 1.408.806 0 1.351-.29 1.634-.868v-5.311h1.66V355h-1.565l-.04-.725zm9.788-2.898c0 1.148-.256 2.062-.769 2.741-.512.68-1.218 1.019-2.115 1.019-.866 0-1.54-.312-2.024-.937l-.082.8h-1.504v-10.5h1.661v3.814c.479-.565 1.124-.847 1.935-.847.902 0 1.61.335 2.126 1.005.515.67.772 1.606.772 2.81v.095zm-1.66-.144c0-.802-.142-1.403-.425-1.804-.282-.401-.692-.602-1.23-.602-.72 0-1.226.315-1.518.944v3.048c.297.643.807.964 1.532.964.52 0 .92-.193 1.203-.58.282-.388.428-.974.437-1.758v-.212zM43.227 355h-1.662v-10.5h1.662V355zm3.575 0h-1.661v-7.396h1.66V355zm-1.764-9.317a.88.88 0 01.243-.636c.162-.169.393-.253.694-.253.3 0 .533.084.697.253.164.168.246.38.246.636 0 .25-.082.459-.246.625-.164.166-.397.25-.697.25-.301 0-.532-.084-.694-.25a.861.861 0 01-.243-.625zm7.718 7.307a.753.753 0 00-.366-.677c-.244-.154-.648-.291-1.213-.41-.565-.118-1.037-.269-1.415-.45-.83-.402-1.244-.983-1.244-1.744 0-.638.268-1.171.806-1.6.538-.428 1.222-.642 2.051-.642.884 0 1.598.219 2.143.656.545.438.817 1.005.817 1.702h-1.661c0-.319-.119-.584-.356-.796-.237-.212-.551-.318-.943-.318-.365 0-.662.084-.892.253a.797.797 0 00-.345.677c0 .255.107.453.321.594.214.142.647.284 1.299.428.651.143 1.163.314 1.534.512.372.199.648.437.828.715.18.278.27.615.27 1.011 0 .666-.276 1.205-.828 1.617-.551.413-1.273.619-2.167.619-.606 0-1.146-.11-1.62-.328-.474-.22-.843-.52-1.107-.903a2.136 2.136 0 01-.397-1.237h1.614c.023.392.17.694.444.906.274.212.636.318 1.087.318.437 0 .77-.084.998-.25a.772.772 0 00.342-.653zm4.717-4.58a2.6 2.6 0 012.057-.943c1.577 0 2.377.9 2.4 2.7V355h-1.66v-4.771c0-.51-.111-.872-.332-1.084-.221-.212-.546-.318-.974-.318-.666 0-1.162.296-1.49.889V355h-1.661v-10.5h1.66v3.91zM32 390h-8v-2h8v2zm0 2v2h-8v-2h8zm4-6v12l-6 6h-8a2 2 0 01-2-2v-16a2 2 0 012-2h12a2 2 0 012 2zm-2 10v-10H22v16h6v-4a2 2 0 012-2h4zm-2 53H19v-2h13v2zm5-10v2H19v-2h18zm-18-4h11v2H19v-2zm14 0h4v2h-4v-2zm-6 8h10v2H27v-2zm-8 0h5v2h-5v-2zm17 41v12a2 2 0 01-2 2H22a2 2 0 01-2-2v-12a2 2 0 012-2h12a2 2 0 012 2zm-2 0H22v6.38l2.19-2.19 5.23 5.23 1-1a1.59 1.59 0 012.11.11L34 494v-10zm-5 3.5a1.5 1.5 0 113.001.001A1.5 1.5 0 0129 487.5zM28 542l-5 5v-5h-2c-1.1 0-2-.9-2-2v-9c0-1.1.9-2 2-2h14c1.1 0 2 .9 2 2v9c0 1.1-.9 2-2 2h-7z"/>
      <path id="Separators/Gray-50" fill="#E1E2E2" d="M72 417h288v1H72v-1zm0-136h288v1H72v-1zm0-48h288v1H72v-1zm0 280h288v1H72v-1zm0-48h288v1H72v-1zM0 535h360v1H0v-1z"/>
    </g>
    <g id="Bottom" transform="translate(0 536)">
      <path id="Background/White" fill="#FFF" d="M0 0h360v56H0z"/>
      <path id="Inactive-Icons/Gray-300" fill="#969CA1" d="M157 8h46a4 4 0 014 4v32a4 4 0 01-4 4h-46a4 4 0 01-4-4V12a4 4 0 014-4zm32 22h-2v5h-14V21h5v-2h-5a2 2 0 00-2 2v14a2 2 0 002 2h14a2 2 0 002-2v-5zm0-7h-4v-4h-2v4h-4v2h4v4h2v-4h4v-2zm-90-3h18v14c0 1.1-.9 2-2 2h-14c-1.1 0-2-.9-2-2V20zm7 11v-1h-5v1h5zm2-2v-1h-7v1h7zm0-2v-1h-7v1h7zm7 4v-5h-5v5h5zm0-7v-2h-14v2h14zm137-6c5.523 0 10 4.477 10 10s-4.477 10-10 10-10-4.477-10-10 4.477-10 10-10zm0 18.5a8.5 8.5 0 10-.001-17.001A8.5 8.5 0 00252 36.5zm0-8c3.038 0 5.5 1.728 5.5 3.5s-2.462 3.5-5.5 3.5-5.5-1.728-5.5-3.5 2.462-3.5 5.5-3.5zm0-.5a3 3 0 110-6 3 3 0 010 6zm63.958-2.971a5 5 0 008.213-5.316 5.993 5.993 0 017.074 9.518l-3.885 3.886c-.388.388-.618 1.323-.51 2.077l.157 1.1-.707.706L315 25.7l.706-.707.252.036zm2.182 5.941l2.828 2.827a2 2 0 11-2.828-2.828v.001z"/>
      <circle id="Dot/Hot-Pink-500" cx="319.5" cy="21" r="4" fill="#BC4681" fill-rule="nonzero"/>
      <path id="Icon/Blue-500" fill="#016087" fill-rule="nonzero" d="M15.633 37.469l2.789 6.96 2.789-6.96h1.459V46h-1.125v-3.322l.105-3.586L18.85 46h-.862l-2.795-6.89.112 3.568V46H14.18v-8.531h1.453zm10.928 6.943l1.476-4.752h1.16l-2.549 7.319c-.394 1.054-1.021 1.582-1.88 1.582l-.206-.018-.404-.076v-.88l.293.024c.367 0 .653-.074.859-.222.205-.149.374-.42.506-.815l.24-.644-2.261-6.27h1.184l1.582 4.752zm9.257-2.215c-.964-.277-1.667-.618-2.106-1.022a1.954 1.954 0 01-.66-1.497c0-.672.27-1.228.806-1.667.538-.44 1.236-.66 2.095-.66.586 0 1.109.114 1.568.34.458.227.814.54 1.066.938.252.398.378.834.378 1.307h-1.131c0-.516-.164-.921-.492-1.216-.328-.295-.791-.443-1.389-.443-.555 0-.987.122-1.298.367-.31.244-.466.583-.466 1.016 0 .348.148.642.443.882.295.24.797.46 1.506.66.709.198 1.263.418 1.664.658.4.24.697.52.89.841.194.32.29.697.29 1.131 0 .691-.27 1.245-.808 1.661-.54.416-1.26.624-2.162.624a4.01 4.01 0 01-1.64-.337c-.509-.224-.9-.532-1.176-.923a2.252 2.252 0 01-.413-1.33h1.131c0 .516.19.923.571 1.222.381.299.89.448 1.527.448.593 0 1.049-.12 1.365-.363.316-.242.475-.572.475-.99 0-.418-.147-.741-.44-.97-.293-.228-.824-.454-1.594-.677zM41.432 46h-1.084v-6.34h1.084V46zm-1.172-8.021a.65.65 0 01.16-.446c.108-.12.267-.181.478-.181.211 0 .372.06.48.181a.64.64 0 01.165.446.62.62 0 01-.164.439c-.11.117-.27.176-.48.176-.212 0-.37-.059-.478-.176a.626.626 0 01-.161-.44zm4.377.146v1.535h1.183v.838h-1.183v3.932c0 .254.052.444.158.571.105.127.285.19.539.19.125 0 .297-.023.516-.07V46a3.143 3.143 0 01-.832.117c-.485 0-.85-.146-1.096-.44-.246-.292-.37-.708-.37-1.247v-3.932h-1.154v-.838h1.155v-1.535h1.084zm5.08 7.992c-.86 0-1.559-.282-2.098-.846-.539-.565-.808-1.32-.808-2.265v-.2c0-.628.12-1.19.36-1.684s.576-.88 1.008-1.16c.431-.28.9-.419 1.403-.419.824 0 1.465.271 1.922.814.457.543.685 1.32.685 2.332v.452h-4.294c.015.625.198 1.13.547 1.514.35.385.794.577 1.333.577.383 0 .707-.078.973-.234.266-.156.498-.363.697-.621l.662.516c-.53.816-1.328 1.224-2.39 1.224zm-.135-5.683c-.437 0-.805.159-1.102.477-.296.318-.48.765-.55 1.339h3.175v-.082c-.03-.55-.18-.978-.445-1.28-.265-.303-.625-.454-1.078-.454zm7.553 3.884c0-.293-.11-.52-.331-.682-.221-.162-.606-.302-1.155-.42-.548-.116-.984-.257-1.306-.421-.322-.164-.56-.36-.715-.586a1.402 1.402 0 01-.232-.809c0-.52.22-.959.66-1.318.44-.36 1-.539 1.684-.539.719 0 1.302.186 1.75.557.447.37.67.845.67 1.423h-1.09c0-.296-.126-.552-.378-.767-.252-.215-.569-.322-.952-.322-.394 0-.703.086-.926.257a.812.812 0 00-.334.674c0 .262.104.46.311.592.207.133.581.26 1.122.38.541.122.98.267 1.316.434.335.168.584.37.747.607.162.236.243.524.243.864 0 .567-.227 1.02-.68 1.362-.453.342-1.04.513-1.764.513-.507 0-.957-.09-1.347-.27a2.186 2.186 0 01-.917-.752 1.815 1.815 0 01-.331-1.046h1.084c.02.363.165.651.436.864.272.213.63.32 1.075.32.41 0 .74-.084.988-.25.248-.166.372-.387.372-.665zM36 10c5.523 0 10 4.477 10 10s-4.477 10-10 10-10-4.477-10-10 4.477-10 10-10zm-8.5 10a8.503 8.503 0 004.79 7.65l-4.054-11.11A8.47 8.47 0 0027.5 20zm8.5 8.5v-.001c.99 0 1.939-.17 2.823-.48a.857.857 0 01-.06-.117l-2.613-7.157-2.55 7.41c.76.225 1.566.345 2.4.345zm1.172-12.485l3.072 9.138.848-2.833c.366-1.176.646-2.021.646-2.748 0-1.051-.377-1.778-.7-2.344-.431-.701-.835-1.293-.835-1.993 0-.783.592-1.51 1.427-1.51.038 0 .073.005.11.007A8.466 8.466 0 0036 11.5a8.489 8.489 0 00-7.101 3.832c.2.007.387.01.547.01.889 0 2.265-.108 2.265-.108.458-.026.513.647.055.702 0 0-.461.053-.973.08l3.096 9.208 1.86-5.578-1.324-3.63c-.458-.027-.892-.082-.892-.082-.457-.026-.405-.726.053-.7 0 0 1.405.107 2.24.107.889 0 2.265-.108 2.265-.108.458-.026.512.647.054.702 0 0-.461.053-.973.08zm3.1 11.332v.001a8.495 8.495 0 003.185-11.425c.037.271.057.561.057.874 0 .864-.161 1.832-.645 3.044l-2.597 7.506z"/>
    </g>
  </g>
</svg>
