<svg xmlns="http://www.w3.org/2000/svg" width="360" height="144">
  <g id="screenshot-activity-container-2" fill="none" fill-rule="evenodd" stroke="none" stroke-width="1">
    <path id="Separator/Gray-50" fill="#E1E2E2" d="M0 71h360v1H0z"/>
    <path id="Icon/Hot-Green-500" fill="#008A00" d="M36 56c-11.046 0-20-8.954-20-20s8.954-20 20-20 20 8.954 20 20-8.954 20-20 20zM25.6 37.606c.781 5.032 5.16 8.916 10.4 8.916 5.79 0 10.526-4.737 10.526-10.524 0-5.787-4.737-10.524-10.526-10.524-3.47 0-6.524 1.684-8.421 4.21v-4.21h-2.102l-.003 7.368h7.368v-2.105h-3.368c1.473-1.895 3.897-3.158 6.528-3.158 4.63 0 8.42 3.79 8.42 8.419 0 4.63-3.79 8.42-8.422 8.42-4.081 0-7.505-2.941-8.261-6.812H25.6zm9.35-6.87v5.58l3.368 4.524 1.684-1.26-2.947-3.895v-4.948h-2.106z"/>
    <path id="Icon/Hot-Yellow-500" fill="#F6C200" d="M36 128c-11.046 0-20-8.954-20-20s8.954-20 20-20 20 8.954 20 20-8.954 20-20 20zm0-28.421c4.642 0 8.421 3.779 8.421 8.421 0 4.642-3.779 8.421-8.421 8.421-4.642 0-8.421-3.779-8.421-8.421 0-4.642 3.779-8.421 8.421-8.421zm0-2.105c-5.814 0-10.526 4.712-10.526 10.526S30.186 118.526 36 118.526 46.526 113.814 46.526 108 41.814 97.474 36 97.474zm1.053 13.684h-2.106v2.105h2.106v-2.105zm-2.106-2.105h2.106l.526-6.316H34.42l.526 6.316z"/>
    <path id="Text/Gray-900" fill="#1A1A1A" d="M77.492 26.398H74.82V31h-1.507V19.625h3.765c1.281 0 2.267.292 2.957.875s1.035 1.432 1.035 2.547c0 .708-.191 1.325-.574 1.851-.383.526-.915.92-1.598 1.18l2.672 4.828V31h-1.61l-2.468-4.602zm-2.672-1.226h2.305c.745 0 1.337-.193 1.777-.578.44-.386.66-.901.66-1.547 0-.703-.21-1.242-.628-1.617-.42-.375-1.025-.565-1.817-.57H74.82v4.312zm11.633 5.984c-1.146 0-2.078-.376-2.797-1.129-.719-.752-1.078-1.759-1.078-3.02v-.265c0-.838.16-1.587.48-2.246a3.748 3.748 0 0 1 1.344-1.547 3.378 3.378 0 0 1 1.871-.558c1.1 0 1.954.362 2.563 1.086.61.724.914 1.76.914 3.109v.602h-5.727c.021.833.265 1.506.73 2.019.467.513 1.06.77 1.778.77.51 0 .943-.105 1.297-.313.354-.208.664-.484.93-.828l.883.687c-.709 1.089-1.771 1.633-3.188 1.633zm-.18-7.578c-.583 0-1.072.212-1.468.637-.396.424-.64 1.02-.735 1.785h4.235v-.11c-.042-.734-.24-1.303-.594-1.706-.354-.404-.833-.606-1.438-.606zm12.633 5.43l1.625-6.461h1.446L99.516 31h-1.172l-2.055-6.406-2 6.406h-1.172l-2.453-8.453h1.438l1.664 6.328 1.968-6.328h1.164l2.008 6.46zm4.156-2.313c0-.828.163-1.573.489-2.234.325-.662.778-1.172 1.36-1.531.58-.36 1.243-.54 1.987-.54 1.151 0 2.082.4 2.793 1.196.711.797 1.067 1.857 1.067 3.18v.101c0 .823-.158 1.561-.473 2.215a3.589 3.589 0 0 1-1.351 1.527c-.586.365-1.26.547-2.02.547-1.146 0-2.074-.398-2.785-1.195-.711-.797-1.067-1.852-1.067-3.164v-.102zm1.454.172c0 .938.217 1.69.652 2.258.435.568 1.017.852 1.746.852.734 0 1.318-.288 1.75-.864.432-.575.648-1.381.648-2.418 0-.927-.22-1.678-.66-2.254-.44-.575-1.024-.863-1.754-.863-.713 0-1.289.284-1.726.852-.438.567-.656 1.38-.656 2.437zm13.273 3.297c-.562.662-1.388.992-2.477.992-.9 0-1.587-.261-2.058-.785-.471-.523-.71-1.298-.715-2.324v-5.5h1.445v5.46c0 1.282.521 1.923 1.563 1.923 1.104 0 1.838-.412 2.203-1.235v-6.148h1.445V31h-1.375l-.03-.836zm4.969-7.617l.047 1.062c.646-.812 1.49-1.218 2.53-1.218 1.787 0 2.688 1.007 2.704 3.023V31h-1.445v-5.594c-.005-.61-.145-1.06-.418-1.351-.274-.292-.7-.438-1.278-.438-.468 0-.88.125-1.234.375s-.63.578-.828.985V31h-1.445v-8.453h1.367zm7.11 4.156c0-1.297.306-2.34.921-3.129.615-.789 1.42-1.183 2.414-1.183.99 0 1.774.338 2.352 1.015V19H137v12h-1.328l-.07-.906c-.579.708-1.383 1.062-2.415 1.062-.979 0-1.777-.4-2.394-1.203-.617-.802-.926-1.849-.926-3.14v-.11zm1.445.164c0 .959.197 1.709.593 2.25.396.542.943.813 1.64.813.918 0 1.587-.412 2.009-1.235v-3.883c-.433-.796-1.097-1.195-1.993-1.195-.708 0-1.26.274-1.656.82-.396.547-.594 1.357-.594 2.43zm13.851-6.367v2.047h1.578v1.117h-1.578v5.242c0 .339.07.593.211.762.14.17.38.254.719.254a3.5 3.5 0 0 0 .687-.094V31a4.19 4.19 0 0 1-1.11.156c-.645 0-1.132-.195-1.46-.586-.328-.39-.492-.945-.492-1.664v-5.242h-1.54v-1.117h1.54V20.5h1.445zm2.727 6.195c0-.828.162-1.573.488-2.234.325-.662.779-1.172 1.36-1.531.58-.36 1.243-.54 1.988-.54 1.15 0 2.082.4 2.793 1.196.71.797 1.066 1.857 1.066 3.18v.101c0 .823-.158 1.561-.473 2.215a3.589 3.589 0 0 1-1.351 1.527c-.586.365-1.26.547-2.02.547-1.146 0-2.074-.398-2.785-1.195-.71-.797-1.066-1.852-1.066-3.164v-.102zm1.453.172c0 .938.217 1.69.652 2.258.435.568 1.017.852 1.746.852.735 0 1.318-.288 1.75-.864.432-.575.649-1.381.649-2.418 0-.927-.22-1.678-.66-2.254-.44-.575-1.025-.863-1.754-.863-.714 0-1.29.284-1.727.852-.438.567-.656 1.38-.656 2.437zM165.96 31h-1.453v-9.633l-2.914 1.07v-1.312l4.14-1.555h.227V31zm4.336-.758c0-.25.074-.458.223-.625.148-.166.37-.25.667-.25.297 0 .523.084.676.25.154.167.23.375.23.625 0 .24-.076.44-.23.602-.153.161-.379.242-.675.242-.297 0-.52-.08-.668-.242a.855.855 0 0 1-.223-.602zm.008-6.898c0-.25.074-.459.222-.625.149-.167.371-.25.668-.25.297 0 .522.083.676.25.154.166.23.375.23.625 0 .24-.076.44-.23.601-.154.162-.379.242-.676.242-.297 0-.52-.08-.668-.242a.855.855 0 0 1-.222-.601zm10.898 2.804c0 1.693-.289 2.951-.867 3.774-.578.823-1.482 1.234-2.711 1.234-1.214 0-2.112-.402-2.695-1.207-.584-.804-.886-2.006-.907-3.605v-1.93c0-1.672.29-2.914.868-3.727.578-.812 1.484-1.218 2.718-1.218 1.224 0 2.125.392 2.703 1.176.579.783.875 1.993.891 3.628v1.875zm-1.445-1.976c0-1.224-.172-2.116-.516-2.676-.344-.56-.888-.84-1.633-.84-.74 0-1.278.279-1.617.836-.338.557-.513 1.414-.523 2.57v2.313c0 1.23.178 2.137.535 2.723.357.586.897.879 1.621.879.714 0 1.243-.276 1.59-.829.346-.552.527-1.421.543-2.609v-2.367zm10.43 1.976c0 1.693-.29 2.951-.868 3.774-.578.823-1.481 1.234-2.71 1.234-1.214 0-2.113-.402-2.696-1.207-.583-.804-.885-2.006-.906-3.605v-1.93c0-1.672.289-2.914.867-3.727.578-.812 1.484-1.218 2.719-1.218 1.224 0 2.125.392 2.703 1.176.578.783.875 1.993.89 3.628v1.875zm-1.446-1.976c0-1.224-.172-2.116-.515-2.676-.344-.56-.888-.84-1.633-.84-.74 0-1.279.279-1.617.836-.339.557-.513 1.414-.524 2.57v2.313c0 1.23.179 2.137.535 2.723.357.586.897.879 1.621.879.714 0 1.244-.276 1.59-.829.347-.552.528-1.421.543-2.609v-2.367zm13.914 3.86h-4.765L196.82 31h-1.548l4.344-11.375h1.313L205.28 31h-1.539l-1.086-2.969zm-4.312-1.235h3.867l-1.938-5.32-1.93 5.32zm10.406-7.172l3.719 9.281 3.719-9.281h1.945V31h-1.5v-4.43l.14-4.78L213.04 31h-1.148l-3.727-9.188.149 4.758V31h-1.5V19.625h1.937zm15.383 7.07c0-.828.163-1.573.488-2.234.326-.662.779-1.172 1.36-1.531.58-.36 1.243-.54 1.988-.54 1.15 0 2.082.4 2.793 1.196.71.797 1.066 1.857 1.066 3.18v.101c0 .823-.157 1.561-.473 2.215a3.589 3.589 0 0 1-1.351 1.527c-.586.365-1.26.547-2.02.547-1.145 0-2.074-.398-2.785-1.195-.71-.797-1.066-1.852-1.066-3.164v-.102zm1.453.172c0 .938.217 1.69.652 2.258.435.568 1.017.852 1.746.852.735 0 1.318-.288 1.75-.864.433-.575.649-1.381.649-2.418 0-.927-.22-1.678-.66-2.254-.44-.575-1.025-.863-1.754-.863-.714 0-1.29.284-1.727.852-.437.567-.656 1.38-.656 2.437zm9.422-4.32l.047 1.062c.646-.812 1.49-1.218 2.53-1.218 1.787 0 2.688 1.007 2.704 3.023V31h-1.445v-5.594c-.005-.61-.145-1.06-.418-1.351-.274-.292-.7-.438-1.278-.438-.468 0-.88.125-1.234.375s-.63.578-.828.985V31h-1.445v-8.453h1.367zm16.414-2.922h1.508v8.055c0 1.088-.327 1.94-.98 2.554-.654.615-1.526.922-2.614.922-1.13 0-2.01-.289-2.64-.867-.63-.578-.946-1.388-.946-2.43h1.5c0 .651.178 1.16.535 1.524.357.364.874.547 1.55.547.62 0 1.122-.196 1.505-.586.383-.39.577-.938.582-1.64v-8.079zM260.477 31c-.084-.167-.151-.464-.204-.89-.671.697-1.474 1.046-2.406 1.046-.833 0-1.517-.235-2.05-.707-.534-.471-.801-1.069-.801-1.793 0-.88.334-1.564 1.004-2.05.669-.488 1.61-.731 2.824-.731h1.406v-.664c0-.505-.151-.908-.453-1.207-.302-.3-.748-.45-1.336-.45-.516 0-.948.13-1.297.391-.349.26-.523.576-.523.946h-1.454c0-.422.15-.83.45-1.223.3-.393.705-.704 1.218-.934a4.1 4.1 0 0 1 1.692-.343c.974 0 1.737.243 2.289.73s.838 1.158.86 2.012v3.89c0 .776.098 1.394.296 1.852V31h-1.515zm-2.399-1.102a2.54 2.54 0 0 0 1.29-.351c.405-.235.7-.54.882-.914v-1.735h-1.133c-1.77 0-2.656.519-2.656 1.555 0 .453.151.807.453 1.063.302.255.69.382 1.164.382zm7.25-7.351l.047 1.062c.646-.812 1.49-1.218 2.531-1.218 1.787 0 2.688 1.007 2.703 3.023V31h-1.445v-5.594c-.005-.61-.144-1.06-.418-1.351-.273-.292-.7-.438-1.277-.438-.469 0-.88.125-1.235.375-.354.25-.63.578-.828.985V31h-1.445v-8.453h1.367zm12.68 7.617c-.563.662-1.388.992-2.477.992-.9 0-1.587-.261-2.058-.785-.472-.523-.71-1.298-.715-2.324v-5.5h1.445v5.46c0 1.282.521 1.923 1.563 1.923 1.104 0 1.838-.412 2.203-1.235v-6.148h1.445V31h-1.375l-.031-.836zm8.82.836c-.083-.167-.15-.464-.203-.89-.672.697-1.474 1.046-2.406 1.046-.834 0-1.517-.235-2.051-.707-.534-.471-.8-1.069-.8-1.793 0-.88.334-1.564 1.003-2.05.67-.488 1.61-.731 2.824-.731h1.407v-.664c0-.505-.151-.908-.454-1.207-.302-.3-.747-.45-1.336-.45-.515 0-.947.13-1.296.391-.35.26-.524.576-.524.946h-1.453c0-.422.15-.83.45-1.223.299-.393.705-.704 1.218-.934a4.1 4.1 0 0 1 1.691-.343c.974 0 1.737.243 2.29.73.552.487.838 1.158.859 2.012v3.89c0 .776.099 1.394.297 1.852V31h-1.516zm-2.398-1.102a2.54 2.54 0 0 0 1.289-.351c.406-.235.7-.54.883-.914v-1.735h-1.133c-1.771 0-2.656.519-2.656 1.555 0 .453.15.807.453 1.063.302.255.69.382 1.164.382zm9.968-6.054a4.331 4.331 0 0 0-.71-.055c-.948 0-1.592.404-1.93 1.211v6h-1.445v-8.453h1.406l.023.976c.474-.755 1.146-1.132 2.016-1.132.281 0 .495.036.64.109v1.344zm4.235 5.039l1.969-6.336h1.546l-3.398 9.758c-.526 1.406-1.362 2.11-2.508 2.11l-.273-.024-.54-.102v-1.172l.391.031c.49 0 .871-.099 1.145-.296.273-.198.499-.56.676-1.086l.32-.86-3.016-8.36h1.578l2.11 6.337zM314.703 31h-7.453v-1.04l3.938-4.374c.583-.662.985-1.2 1.207-1.613a2.71 2.71 0 0 0 .332-1.285c0-.594-.18-1.081-.54-1.461-.359-.38-.838-.57-1.437-.57-.719 0-1.277.204-1.676.613-.398.408-.597.977-.597 1.707h-1.446c0-1.047.337-1.894 1.012-2.54.674-.645 1.577-.968 2.707-.968 1.057 0 1.893.277 2.508.832.614.554.922 1.293.922 2.215 0 1.12-.714 2.453-2.14 4l-3.048 3.304h5.711V31zM79.602 100.031h-4.766L73.766 103h-1.547l4.344-11.375h1.312L82.227 103h-1.54l-1.085-2.969zm-4.313-1.234h3.867l-1.937-5.32-1.93 5.32zm10.602.289l-.907.945V103H83.54V91h1.445v7.258l.774-.93 2.633-2.781h1.757l-3.289 3.531L90.531 103h-1.695l-2.945-3.914zM93.21 103h-1.445v-8.453h1.445V103zm-1.563-10.695c0-.235.072-.433.215-.594.144-.162.356-.242.637-.242s.495.08.64.242c.146.161.22.36.22.594 0 .234-.074.43-.22.586-.145.156-.359.234-.64.234s-.493-.078-.637-.234a.834.834 0 0 1-.215-.586zm8.797 8.453c0-.39-.147-.694-.441-.91-.294-.216-.807-.403-1.54-.559-.73-.156-1.312-.344-1.741-.562-.43-.22-.748-.48-.953-.782-.206-.302-.31-.661-.31-1.078 0-.693.294-1.278.88-1.758.586-.479 1.334-.718 2.246-.718.958 0 1.736.247 2.332.742.596.495.894 1.127.894 1.898h-1.453c0-.396-.168-.737-.504-1.023-.335-.287-.759-.43-1.27-.43-.525 0-.937.115-1.233.344a1.082 1.082 0 0 0-.446.898c0 .35.138.612.414.79.276.176.775.346 1.496.507.722.162 1.306.354 1.754.578.448.224.78.494.996.809.217.315.325.7.325 1.152 0 .755-.302 1.36-.907 1.817-.604.455-1.388.683-2.351.683-.677 0-1.276-.12-1.797-.36a2.922 2.922 0 0 1-1.223-1.003 2.42 2.42 0 0 1-.441-1.395h1.445c.026.485.22.869.582 1.153.362.284.84.426 1.434.426.547 0 .985-.111 1.316-.332.331-.222.496-.517.496-.887zm4.688-6.211l.039.937c.62-.729 1.456-1.093 2.508-1.093 1.182 0 1.987.453 2.414 1.359a3.202 3.202 0 0 1 1.097-.984c.45-.25.983-.375 1.598-.375 1.854 0 2.797.981 2.828 2.945V103h-1.445v-5.578c0-.604-.138-1.056-.414-1.356-.276-.3-.74-.449-1.39-.449-.537 0-.983.16-1.337.48-.354.321-.56.752-.617 1.294V103h-1.453v-5.54c0-1.228-.602-1.843-1.805-1.843-.948 0-1.596.404-1.945 1.211V103h-1.445v-8.453h1.367zm16.172 8.61c-1.146 0-2.078-.377-2.797-1.13-.719-.752-1.078-1.759-1.078-3.02v-.265c0-.838.16-1.587.48-2.246a3.748 3.748 0 0 1 1.344-1.547 3.378 3.378 0 0 1 1.871-.558c1.099 0 1.953.362 2.563 1.086.609.724.914 1.76.914 3.109v.602h-5.727c.02.833.264 1.506.73 2.019.467.513 1.06.77 1.778.77.51 0 .943-.105 1.297-.313.354-.208.664-.484.93-.828l.882.687c-.708 1.089-1.77 1.633-3.187 1.633zm-.18-7.579c-.583 0-1.073.212-1.469.637-.396.424-.64 1.02-.734 1.785h4.234v-.11c-.041-.734-.24-1.303-.594-1.706-.354-.404-.833-.606-1.437-.606zm7.11-3.078v2.047h1.577v1.117h-1.578v5.242c0 .339.07.593.211.762.14.17.38.254.72.254a3.5 3.5 0 0 0 .687-.094V103a4.19 4.19 0 0 1-1.11.156c-.646 0-1.133-.195-1.46-.586-.329-.39-.493-.945-.493-1.664v-5.242h-1.539v-1.117h1.54V92.5h1.444zm13.734 7.531h-4.766l-1.07 2.969h-1.547l4.344-11.375h1.312L144.594 103h-1.54l-1.085-2.969zm-4.313-1.234h3.867l-1.937-5.32-1.93 5.32zm9.61-4.25l.047 1.062c.645-.812 1.49-1.218 2.53-1.218 1.787 0 2.688 1.007 2.704 3.023V103h-1.445v-5.594c-.006-.61-.145-1.06-.418-1.351-.274-.292-.7-.438-1.278-.438-.469 0-.88.125-1.234.375s-.63.578-.828.985V103h-1.446v-8.453h1.368zm9.422-2.047v2.047h1.578v1.117h-1.578v5.242c0 .339.07.593.21.762.141.17.38.254.72.254a3.5 3.5 0 0 0 .687-.094V103a4.19 4.19 0 0 1-1.11.156c-.646 0-1.132-.195-1.46-.586-.329-.39-.493-.945-.493-1.664v-5.242h-1.539v-1.117h1.54V92.5h1.445zm4.835 10.5h-1.445v-8.453h1.445V103zm-1.562-10.695c0-.235.072-.433.215-.594.143-.162.355-.242.637-.242.28 0 .494.08.64.242.146.161.219.36.219.594 0 .234-.073.43-.219.586-.146.156-.36.234-.64.234-.282 0-.494-.078-.637-.234a.834.834 0 0 1-.215-.586zm6.883 6.453h-3.813v-1.18h3.813v1.18zm4.984-.828c-1.286-.37-2.223-.825-2.808-1.364a2.605 2.605 0 0 1-.88-1.996c0-.896.359-1.636 1.075-2.222.716-.586 1.647-.88 2.793-.88.781 0 1.478.152 2.09.454.612.302 1.086.719 1.422 1.25.335.531.503 1.112.503 1.742h-1.507c0-.687-.22-1.228-.657-1.621-.437-.393-1.054-.59-1.851-.59-.74 0-1.317.163-1.73.488-.415.326-.622.778-.622 1.356 0 .463.197.855.59 1.176.393.32 1.063.613 2.008.879.945.265 1.685.558 2.219.878.534.32.93.694 1.187 1.122.258.427.387.93.387 1.507 0 .922-.36 1.66-1.078 2.215-.719.555-1.68.832-2.883.832a5.36 5.36 0 0 1-2.188-.449c-.677-.3-1.199-.71-1.566-1.23a3.003 3.003 0 0 1-.55-1.774h1.507c0 .688.254 1.23.762 1.629.508.398 1.186.598 2.035.598.792 0 1.398-.162 1.82-.485.422-.323.633-.763.633-1.32s-.195-.988-.586-1.293c-.39-.305-1.099-.605-2.125-.902zm13.055.937c0 1.287-.294 2.323-.883 3.11-.589.786-1.385 1.18-2.39 1.18-1.027 0-1.834-.326-2.423-.977v4.07h-1.445V94.547h1.32l.07.937c.59-.729 1.407-1.093 2.454-1.093 1.016 0 1.819.382 2.41 1.148.591.766.887 1.83.887 3.195v.133zm-1.446-.164c0-.953-.203-1.706-.609-2.258-.406-.552-.963-.828-1.672-.828-.875 0-1.531.388-1.969 1.164v4.04c.433.77 1.094 1.156 1.985 1.156.693 0 1.243-.275 1.652-.825.41-.55.613-1.366.613-2.449zm8.5 4.297c-.083-.167-.15-.464-.203-.89-.672.697-1.474 1.046-2.406 1.046-.833 0-1.517-.235-2.05-.707-.535-.471-.801-1.069-.801-1.793 0-.88.334-1.564 1.003-2.05.67-.488 1.611-.731 2.825-.731h1.406v-.664c0-.505-.151-.908-.453-1.207-.302-.3-.748-.45-1.336-.45-.516 0-.948.13-1.297.391-.349.26-.523.576-.523.946h-1.454c0-.422.15-.83.45-1.223.3-.393.705-.704 1.218-.934a4.1 4.1 0 0 1 1.692-.343c.974 0 1.737.243 2.289.73s.838 1.158.86 2.012v3.89c0 .776.098 1.394.296 1.852V103h-1.516zm-2.398-1.102a2.54 2.54 0 0 0 1.29-.351c.405-.235.7-.54.882-.914v-1.735h-1.133c-1.77 0-2.656.519-2.656 1.555 0 .453.15.807.453 1.063.302.255.69.382 1.164.382zm7.242-7.351l.04.937c.62-.729 1.455-1.093 2.507-1.093 1.182 0 1.987.453 2.414 1.359a3.202 3.202 0 0 1 1.098-.984c.45-.25.983-.375 1.597-.375 1.855 0 2.797.981 2.829 2.945V103h-1.446v-5.578c0-.604-.138-1.056-.414-1.356-.276-.3-.74-.449-1.39-.449-.537 0-.982.16-1.336.48-.354.321-.56.752-.618 1.294V103h-1.453v-5.54c0-1.228-.601-1.843-1.804-1.843-.948 0-1.597.404-1.946 1.211V103h-1.445v-8.453h1.367z"/>
    <path id="Text/Gray-500" fill="#636D75" d="M76.806 46.974h-2.338V51h-1.32v-9.953h3.295c1.121 0 1.984.255 2.588.766.604.51.906 1.253.906 2.228 0 .62-.168 1.16-.503 1.62-.335.46-.8.804-1.398 1.032l2.338 4.225V51h-1.408l-2.16-4.026zM74.468 45.9h2.016c.652 0 1.17-.168 1.556-.505.385-.338.577-.789.577-1.354 0-.615-.183-1.087-.55-1.415-.367-.328-.897-.494-1.59-.499h-2.01V45.9zm10.178 5.237c-1.002 0-1.818-.33-2.447-.988-.629-.659-.943-1.54-.943-2.642v-.233c0-.733.14-1.388.42-1.965a3.28 3.28 0 0 1 1.176-1.353 2.956 2.956 0 0 1 1.637-.49c.962 0 1.71.318 2.242.951.534.633.8 1.54.8 2.72v.527h-5.01c.018.73.23 1.318.639 1.767.408.449.926.673 1.555.673.446 0 .825-.09 1.135-.273.31-.182.58-.424.813-.725l.773.602c-.62.952-1.55 1.429-2.79 1.429zm-.157-6.631c-.51 0-.939.186-1.285.557-.346.371-.56.892-.642 1.562h3.705v-.096c-.037-.642-.21-1.14-.52-1.493-.31-.354-.73-.53-1.258-.53zm11.054 4.75l1.422-5.652h1.264L96.076 51h-1.025l-1.798-5.605L91.503 51h-1.025l-2.147-7.396h1.258l1.456 5.537 1.723-5.537h1.018l1.757 5.653zM100.889 51h-1.265v-7.396h1.265V51zm-1.368-9.358c0-.205.063-.379.188-.52.126-.141.312-.212.558-.212.246 0 .433.07.56.212a.747.747 0 0 1 .192.52.722.722 0 0 1-.192.512c-.127.137-.314.205-.56.205-.246 0-.432-.068-.558-.205a.73.73 0 0 1-.188-.512zm4.587 1.962l.041.93c.566-.712 1.304-1.067 2.215-1.067 1.563 0 2.352.882 2.365 2.645V51h-1.264v-4.895c-.005-.533-.127-.927-.366-1.182-.24-.255-.612-.383-1.118-.383-.41 0-.77.11-1.08.328-.31.219-.551.506-.724.861V51h-1.265v-7.396h1.196zm6.221 3.636c0-1.135.269-2.047.807-2.738.538-.69 1.242-1.035 2.112-1.035.866 0 1.552.296 2.058.888V40.5h1.264V51h-1.162l-.061-.793c-.506.62-1.21.93-2.113.93-.856 0-1.555-.351-2.095-1.053-.54-.702-.81-1.618-.81-2.748v-.096zm1.265.144c0 .838.173 1.495.52 1.969.346.473.824.71 1.435.71.802 0 1.388-.36 1.757-1.08v-3.397c-.379-.697-.96-1.046-1.743-1.046-.62 0-1.103.24-1.45.718-.346.478-.52 1.187-.52 2.126zm17.924.458c-.123 1.053-.512 1.865-1.166 2.437-.654.572-1.523.858-2.608.858-1.176 0-2.118-.422-2.827-1.265-.708-.843-1.063-1.971-1.063-3.384v-.957c0-.925.166-1.738.496-2.44.33-.702.799-1.24 1.405-1.617.606-.376 1.308-.564 2.105-.564 1.058 0 1.905.295 2.543.885.638.59 1.01 1.407 1.115 2.451h-1.32c-.114-.793-.36-1.367-.741-1.723-.381-.355-.913-.533-1.597-.533-.838 0-1.496.31-1.972.93-.476.62-.714 1.502-.714 2.645v.964c0 1.08.225 1.94.677 2.577.45.638 1.082.957 1.893.957.73 0 1.289-.165 1.678-.495.39-.33.649-.906.776-1.726h1.32zm1.257-.609c0-.724.143-1.376.428-1.955a3.187 3.187 0 0 1 1.19-1.34c.507-.314 1.087-.471 1.739-.471 1.007 0 1.822.348 2.444 1.046.622.697.933 1.624.933 2.782v.089c0 .72-.138 1.366-.414 1.938a3.14 3.14 0 0 1-1.182 1.336c-.513.32-1.102.479-1.767.479-1.003 0-1.815-.349-2.438-1.046-.622-.697-.933-1.62-.933-2.769v-.089zm1.272.15c0 .821.19 1.48.57 1.976.381.497.89.745 1.529.745.642 0 1.153-.251 1.53-.755.379-.503.568-1.209.568-2.116 0-.81-.192-1.468-.577-1.972a1.84 1.84 0 0 0-1.535-.755c-.625 0-1.128.248-1.51.745-.384.497-.575 1.208-.575 2.133zm8.237-3.78l.034.82c.543-.637 1.274-.956 2.195-.956 1.034 0 1.738.396 2.112 1.19a2.8 2.8 0 0 1 .96-.862c.395-.219.86-.328 1.398-.328 1.623 0 2.448.859 2.475 2.577V51h-1.265v-4.88c0-.53-.12-.925-.362-1.187-.241-.262-.647-.393-1.217-.393-.47 0-.859.14-1.169.42-.31.28-.49.658-.54 1.132V51h-1.271v-4.847c0-1.075-.527-1.613-1.58-1.613-.829 0-1.396.353-1.701 1.06V51h-1.265v-7.396h1.196zm17.33 3.78c0 1.126-.258 2.033-.773 2.721-.515.689-1.212 1.033-2.092 1.033-.898 0-1.604-.285-2.12-.855v3.562h-1.264v-10.24h1.156l.061.82c.515-.638 1.23-.957 2.147-.957.888 0 1.591.335 2.108 1.005.518.67.776 1.602.776 2.796v.116zm-1.265-.143c0-.834-.178-1.492-.534-1.975-.355-.483-.843-.725-1.462-.725-.766 0-1.34.34-1.723 1.019v3.534c.378.674.957 1.011 1.736 1.011.606 0 1.088-.24 1.446-.72.358-.481.537-1.196.537-2.144zm4.245 3.76h-1.265V40.5h1.265V51zm5.093.137c-1.003 0-1.819-.33-2.448-.988-.629-.659-.943-1.54-.943-2.642v-.233c0-.733.14-1.388.42-1.965a3.28 3.28 0 0 1 1.176-1.353 2.956 2.956 0 0 1 1.637-.49c.962 0 1.71.318 2.242.951.534.633.8 1.54.8 2.72v.527h-5.01c.018.73.23 1.318.639 1.767.408.449.926.673 1.555.673.447 0 .825-.09 1.135-.273.31-.182.58-.424.813-.725l.773.602c-.62.952-1.55 1.429-2.79 1.429zm-.158-6.631c-.51 0-.939.186-1.285.557-.346.371-.56.892-.642 1.562h3.705v-.096c-.037-.642-.21-1.14-.52-1.493-.31-.354-.73-.53-1.258-.53zm6.221-2.694v1.792h1.38v.977h-1.38v4.587c0 .296.062.518.185.666.123.149.332.223.628.223.146 0 .347-.028.602-.082V51a3.666 3.666 0 0 1-.97.137c-.566 0-.992-.171-1.279-.513-.287-.342-.43-.827-.43-1.456v-4.587h-1.347v-.977h1.346v-1.791h1.265zm5.927 9.325c-1.003 0-1.819-.33-2.448-.988-.628-.659-.943-1.54-.943-2.642v-.233c0-.733.14-1.388.42-1.965a3.28 3.28 0 0 1 1.176-1.353 2.956 2.956 0 0 1 1.638-.49c.961 0 1.709.318 2.242.951.533.633.8 1.54.8 2.72v.527h-5.011c.018.73.231 1.318.639 1.767.408.449.926.673 1.555.673.447 0 .825-.09 1.135-.273.31-.182.58-.424.813-.725l.773.602c-.62.952-1.55 1.429-2.79 1.429zm-.157-6.631c-.51 0-.94.186-1.286.557-.346.371-.56.892-.642 1.562h3.705v-.096c-.037-.642-.21-1.14-.52-1.493-.31-.354-.729-.53-1.257-.53zM74.468 119.104V123h-1.313v-9.953h3.671c1.09 0 1.943.278 2.56.834.618.556.927 1.292.927 2.208 0 .966-.302 1.71-.906 2.232-.604.522-1.469.783-2.594.783h-2.345zm0-1.074h2.358c.702 0 1.24-.165 1.613-.495.374-.33.561-.808.561-1.432 0-.593-.187-1.067-.56-1.422-.374-.356-.887-.54-1.539-.554h-2.433v3.903zm8.695 4.97h-1.265v-10.5h1.265V123zm6.59-.731c-.492.578-1.215.868-2.167.868-.788 0-1.389-.23-1.801-.687-.413-.458-.621-1.136-.626-2.034v-4.812h1.265v4.778c0 1.12.456 1.681 1.367 1.681.966 0 1.609-.36 1.928-1.08v-5.38h1.264V123H89.78l-.027-.731zm2.85-3.029c0-1.153.267-2.07.8-2.751.534-.682 1.24-1.022 2.12-1.022.902 0 1.606.319 2.112.957l.061-.82h1.156v7.218c0 .957-.284 1.712-.852 2.263-.567.551-1.33.827-2.286.827a3.804 3.804 0 0 1-1.566-.342c-.51-.228-.9-.54-1.169-.936l.657-.759c.542.67 1.205 1.005 1.989 1.005.615 0 1.095-.173 1.439-.52.344-.346.516-.834.516-1.463v-.635c-.506.583-1.196.875-2.071.875-.866 0-1.567-.349-2.102-1.046-.536-.697-.803-1.648-.803-2.85zm1.272.144c0 .834.17 1.489.513 1.965.341.476.82.714 1.435.714.798 0 1.383-.362 1.757-1.086V117.6c-.387-.707-.968-1.06-1.743-1.06-.615 0-1.096.24-1.442.718-.347.478-.52 1.187-.52 2.126zm8.258 3.616h-1.265v-7.396h1.265V123zm-1.367-9.358c0-.205.062-.379.188-.52.125-.141.31-.212.557-.212.246 0 .433.07.56.212a.747.747 0 0 1 .192.52.722.722 0 0 1-.192.512c-.127.137-.314.205-.56.205-.246 0-.432-.068-.557-.205a.73.73 0 0 1-.188-.512zm4.587 1.962l.04.93c.566-.712 1.304-1.067 2.215-1.067 1.564 0 2.352.882 2.366 2.645V123h-1.265v-4.895c-.005-.533-.126-.927-.366-1.182-.239-.255-.612-.383-1.117-.383-.41 0-.77.11-1.08.328a2.23 2.23 0 0 0-.725.861V123h-1.265v-7.396h1.197zM115.545 123v-9.953h2.81c.865 0 1.631.191 2.296.574.666.383 1.18.927 1.542 1.634.362.706.546 1.517.55 2.433v.636c0 .939-.181 1.762-.543 2.468a3.823 3.823 0 0 1-1.552 1.627c-.672.378-1.455.572-2.348.581h-2.755zm1.312-8.873v7.8h1.381c1.012 0 1.8-.315 2.362-.944.563-.629.844-1.524.844-2.686v-.581c0-1.13-.265-2.009-.796-2.635-.531-.627-1.284-.945-2.26-.954h-1.53zm10.74 9.01c-1.003 0-1.819-.33-2.448-.988-.628-.659-.943-1.54-.943-2.642v-.233c0-.733.14-1.388.42-1.965a3.28 3.28 0 0 1 1.176-1.353 2.956 2.956 0 0 1 1.637-.49c.962 0 1.71.318 2.243.951.533.633.8 1.54.8 2.72v.527h-5.011c.018.73.231 1.318.639 1.767.408.449.926.673 1.555.673.447 0 .825-.09 1.135-.273.31-.182.58-.424.813-.725l.773.602c-.62.952-1.55 1.429-2.79 1.429zm-.158-6.631c-.51 0-.938.186-1.285.557-.346.371-.56.892-.642 1.562h3.705v-.096c-.037-.642-.21-1.14-.52-1.493-.31-.354-.729-.53-1.258-.53zm9.072 6.494c-.073-.146-.132-.406-.178-.78-.588.611-1.29.917-2.105.917-.73 0-1.328-.206-1.795-.619a2.002 2.002 0 0 1-.7-1.569c0-.77.292-1.368.878-1.794.585-.426 1.41-.64 2.471-.64h1.23v-.58c0-.442-.132-.795-.396-1.057-.264-.262-.654-.393-1.169-.393-.451 0-.83.114-1.135.342-.305.228-.458.504-.458.827h-1.271c0-.369.13-.725.393-1.07a2.683 2.683 0 0 1 1.066-.816c.45-.2.943-.301 1.48-.301.852 0 1.52.213 2.003.639.483.426.734 1.013.752 1.76v3.405c0 .679.087 1.219.26 1.62V123h-1.326zm-2.099-.964a2.22 2.22 0 0 0 1.128-.307 1.86 1.86 0 0 0 .773-.8v-1.518h-.992c-1.55 0-2.324.454-2.324 1.36 0 .397.132.707.397.93.264.223.603.335 1.018.335zm8.114.068c.452 0 .846-.136 1.183-.41a1.44 1.44 0 0 0 .56-1.025h1.197a2.293 2.293 0 0 1-.438 1.21 2.881 2.881 0 0 1-1.076.916 3.107 3.107 0 0 1-1.426.342c-1.007 0-1.808-.336-2.402-1.009-.595-.672-.893-1.591-.893-2.758v-.212c0-.72.133-1.36.397-1.92a3.02 3.02 0 0 1 1.138-1.306c.495-.31 1.079-.465 1.754-.465.829 0 1.518.248 2.067.745.55.497.842 1.142.879 1.934h-1.196c-.037-.478-.218-.871-.544-1.179-.326-.307-.728-.461-1.206-.461-.643 0-1.14.231-1.494.694-.353.462-.53 1.131-.53 2.006v.24c0 .852.176 1.508.526 1.968.351.46.853.69 1.504.69zm6.078-8.291v1.79h1.38v.978h-1.38v4.587c0 .296.061.518.184.666.123.149.333.223.629.223.146 0 .346-.028.602-.082V123a3.666 3.666 0 0 1-.971.137c-.565 0-.991-.171-1.278-.513-.288-.342-.431-.827-.431-1.456v-4.587h-1.347v-.977h1.347v-1.791h1.265zm4.231 9.187h-1.265v-7.396h1.265V123zm-1.367-9.358c0-.205.062-.379.188-.52.125-.141.31-.212.557-.212.246 0 .433.07.56.212a.747.747 0 0 1 .192.52.722.722 0 0 1-.192.512c-.127.137-.314.205-.56.205-.246 0-.432-.068-.557-.205a.73.73 0 0 1-.188-.512zm5.83 7.642l1.833-5.68h1.292L157.77 123h-.964l-2.68-7.396h1.292l1.88 5.68zm8.806 1.716c-.073-.146-.133-.406-.178-.78-.588.611-1.29.917-2.106.917-.729 0-1.327-.206-1.794-.619a2.002 2.002 0 0 1-.7-1.569c0-.77.292-1.368.878-1.794.585-.426 1.409-.64 2.47-.64h1.231v-.58c0-.442-.132-.795-.396-1.057-.265-.262-.654-.393-1.17-.393-.45 0-.829.114-1.134.342-.305.228-.458.504-.458.827h-1.271c0-.369.13-.725.393-1.07a2.683 2.683 0 0 1 1.066-.816c.449-.2.942-.301 1.48-.301.852 0 1.52.213 2.003.639.483.426.734 1.013.752 1.76v3.405c0 .679.087 1.219.26 1.62V123h-1.326zm-2.1-.964c.397 0 .773-.102 1.129-.307a1.86 1.86 0 0 0 .772-.8v-1.518h-.99c-1.55 0-2.325.454-2.325 1.36 0 .397.132.707.396.93.265.223.604.335 1.019.335zm6.864-8.224v1.792h1.381v.977h-1.38v4.587c0 .296.06.518.184.666.123.149.332.223.629.223.145 0 .346-.028.601-.082V123a3.666 3.666 0 0 1-.97.137c-.566 0-.992-.171-1.279-.513-.287-.342-.43-.827-.43-1.456v-4.587h-1.347v-.977h1.347v-1.791h1.264zm5.927 9.325c-1.003 0-1.818-.33-2.447-.988-.63-.659-.944-1.54-.944-2.642v-.233c0-.733.14-1.388.42-1.965a3.28 3.28 0 0 1 1.176-1.353 2.956 2.956 0 0 1 1.638-.49c.961 0 1.709.318 2.242.951.533.633.8 1.54.8 2.72v.527h-5.011c.018.73.231 1.318.64 1.767.407.449.925.673 1.554.673.447 0 .825-.09 1.135-.273.31-.182.581-.424.814-.725l.772.602c-.62.952-1.55 1.429-2.79 1.429zm-.157-6.631c-.51 0-.94.186-1.285.557-.347.371-.561.892-.643 1.562h3.705v-.096c-.036-.642-.21-1.14-.52-1.493-.31-.354-.729-.53-1.257-.53zm4.197 2.734c0-1.135.269-2.047.807-2.738.537-.69 1.241-1.035 2.112-1.035.866 0 1.552.296 2.058.888V112.5h1.264V123h-1.162l-.061-.793c-.506.62-1.21.93-2.113.93-.857 0-1.555-.351-2.095-1.053-.54-.702-.81-1.618-.81-2.748v-.096zm1.265.144c0 .838.173 1.495.52 1.969.345.474.824.71 1.435.71.802 0 1.387-.36 1.757-1.08v-3.397c-.379-.697-.96-1.046-1.744-1.046-.62 0-1.103.24-1.449.718-.346.478-.52 1.187-.52 2.126z"/>
  </g>
</svg>
