<svg xmlns="http://www.w3.org/2000/svg" width="344" height="257">
  <g id="screenshot-stats-container-1b" fill="none" fill-rule="evenodd" stroke="none" stroke-width="1">
    <path id="Lines/Gray-100" fill="#E1E2E2" fill-rule="nonzero" d="M37 53.999h291v-1H37v1zm0 20h291v-1H37v1zm0 20h291v-1H37v1zm0 20h291v-1H37v1zm0 20h291v-1H37v1zm0 20h291v-1H37v1zm0 20h291v-1H37v1z"/>
    <path id="Bar/Hot-Pink-400" fill="#FF3997" fill-rule="nonzero" d="M310 62h18v112h-18z"/>
    <path id="Bar/Hot-Pink-700" fill="#992053" fill-rule="nonzero" d="M310 86h18v88h-18z"/>
    <path id="Bars/Blue-400" fill="#46799A" fill-rule="nonzero" d="M289 53h18v121h-18V53zM37 108h18v66H37v-66zm21 15h18v51H58v-51zm21 5h18v46H79v-46zm21-65h18v111h-18V63zm21 0h18v111h-18V63zm21 5h18v106h-18V68zm21 0h18v106h-18V68zm21-21h18v127h-18V47zm21 98h18v29h-18v-29zm21-6h18v35h-18v-35zm21-71h18v106h-18V68zm21-21h18v127h-18V47z"/>
    <path id="Bars/Blue-700" fill="#23354B" fill-rule="nonzero" d="M289 95h18v79h-18V95zM37 128h18v46H37v-46zm21 13h18v33H58v-33zm21 4h18v29H79v-29zm21-61h18v90h-18V84zm21 15h18v75h-18V99zm21-7h18v82h-18V92zm21 16h18v66h-18v-66zm21-24h18v90h-18V84zm21 75h18v15h-18v-15zm21-11h18v26h-18v-26zm21-56h18v82h-18V92zm21-15h18v97h-18V77z"/>
    <path id="Labels/Gray-900" fill="#1A1A1A" d="M21.086 18.047h1.723v6.98c0 .952-.298 1.708-.892 2.269-.595.56-1.38.84-2.355.84-1.04 0-1.842-.261-2.407-.785-.565-.525-.847-1.254-.847-2.188h1.722c0 .529.131.926.393 1.193s.642.4 1.139.4c.464 0 .835-.154 1.11-.462.276-.307.414-.732.414-1.274v-6.973zM29.043 28c-.073-.141-.137-.371-.191-.69a2.586 2.586 0 01-1.942.827c-.743 0-1.349-.212-1.818-.636a2.034 2.034 0 01-.704-1.572c0-.789.292-1.394.878-1.815.586-.422 1.423-.633 2.512-.633h1.019v-.485c0-.383-.107-.69-.321-.92-.215-.23-.54-.345-.978-.345-.378 0-.688.095-.93.284a.878.878 0 00-.362.721h-1.661c0-.405.134-.785.403-1.138.27-.353.635-.63 1.097-.83.463-.2.98-.301 1.549-.301.866 0 1.556.217 2.071.653.515.435.78 1.047.793 1.835v3.336c0 .665.093 1.196.28 1.593V28h-1.695zm-1.825-1.196c.328 0 .637-.08.926-.24.29-.16.507-.373.653-.642v-1.395H27.9c-.615 0-1.077.107-1.387.322-.31.214-.465.517-.465.909 0 .319.106.573.318.762.212.19.495.284.85.284zm6.521-6.2l.048.854c.547-.66 1.265-.991 2.153-.991 1.54 0 2.325.882 2.352 2.645V28h-1.661v-4.792c0-.47-.102-.817-.304-1.042-.203-.226-.535-.339-.995-.339-.67 0-1.169.303-1.497.91V28h-1.661v-7.396h1.565zM50.057 28h-6.693v-1.142l3.316-3.616c.478-.533.819-.978 1.022-1.336.202-.358.304-.717.304-1.077 0-.474-.133-.857-.4-1.148-.267-.292-.626-.438-1.077-.438-.537 0-.954.164-1.25.492-.297.328-.445.777-.445 1.347h-1.661c0-.606.138-1.152.413-1.637.276-.486.67-.863 1.183-1.132.513-.268 1.104-.403 1.774-.403.966 0 1.728.243 2.287.728.558.486.837 1.157.837 2.013 0 .497-.14 1.018-.42 1.562-.28.545-.74 1.164-1.378 1.856l-2.433 2.605h4.62V28zm6.883-3.548h1.238v1.333H56.94V28h-1.66v-2.215h-4.3l-.048-1.012 4.293-6.726h1.715v6.405zm-4.265 0h2.604v-4.156l-.123.219-2.481 3.937zm6.945 5.79l-.895-.533c.264-.415.445-.776.543-1.084.098-.307.15-.62.154-.94v-1.291h1.497l-.007 1.196a3.334 3.334 0 01-.366 1.452 3.598 3.598 0 01-.926 1.2zM72.533 28h-6.692v-1.142l3.315-3.616c.479-.533.82-.978 1.022-1.336.203-.358.304-.717.304-1.077 0-.474-.133-.857-.4-1.148-.266-.292-.625-.438-1.076-.438-.538 0-.955.164-1.251.492-.296.328-.444.777-.444 1.347h-1.662c0-.606.138-1.152.414-1.637.276-.486.67-.863 1.183-1.132.512-.268 1.104-.403 1.774-.403.966 0 1.728.243 2.286.728.558.486.838 1.157.838 2.013 0 .497-.14 1.018-.42 1.562-.281.545-.74 1.164-1.378 1.856l-2.434 2.605h4.621V28zm7.752-4.19c0 1.43-.268 2.51-.803 3.236-.536.727-1.35 1.09-2.444 1.09-1.075 0-1.885-.354-2.43-1.062-.545-.709-.824-1.758-.837-3.148v-1.723c0-1.43.267-2.504.803-3.22.535-.715 1.352-1.073 2.45-1.073 1.09 0 1.902.349 2.437 1.046.536.697.81 1.74.824 3.13v1.724zm-1.661-1.86c0-.934-.128-1.619-.383-2.054-.255-.435-.66-.653-1.217-.653-.542 0-.94.206-1.196.619-.255.412-.39 1.056-.403 1.931v2.256c0 .93.13 1.622.39 2.078.26.456.667.684 1.223.684.533 0 .927-.211 1.183-.633.255-.421.39-1.081.403-1.979V21.95zM86.253 28h-1.654v-7.991l-2.44.834V19.44l3.882-1.428h.212V28zm8.169-4.163c-.556.588-1.206.882-1.948.882-.875 0-1.573-.307-2.092-.92-.52-.613-.78-1.418-.78-2.416 0-.656.133-1.251.397-1.784.264-.534.64-.948 1.128-1.245.488-.296 1.053-.444 1.695-.444 1.003 0 1.798.374 2.386 1.121.588.748.882 1.748.882 3.001v.465c0 1.796-.406 3.165-1.217 4.108-.811.944-2.021 1.422-3.63 1.436h-.198v-1.374h.24c.979-.014 1.73-.25 2.255-.708.524-.458.818-1.165.882-2.122zm-1.6-.417c.333 0 .645-.096.937-.287.291-.192.517-.456.677-.793v-.65c0-.733-.15-1.323-.452-1.77-.3-.447-.69-.67-1.169-.67-.478 0-.86.197-1.145.591-.284.395-.427.892-.427 1.494 0 .624.144 1.128.43 1.51.288.384.67.575 1.15.575zM19.228 217.452l1.806-5.561h1.358L19.833 219h-1.196l-2.55-7.11h1.353l1.788 5.562zM24.34 219h-1.187v-5.283h1.187V219zm-1.26-6.655a.63.63 0 01.173-.454c.116-.12.281-.181.496-.181.215 0 .38.06.498.18a.628.628 0 01.176.455.61.61 0 01-.176.447c-.117.118-.283.178-.498.178-.215 0-.38-.06-.496-.178a.615.615 0 01-.173-.447zm4.878 6.753c-.752 0-1.361-.237-1.829-.71-.467-.474-.7-1.105-.7-1.893v-.146c0-.528.101-.999.305-1.414.203-.415.489-.738.857-.97a2.265 2.265 0 011.23-.346c.72 0 1.276.23 1.668.689.392.459.588 1.108.588 1.948v.478h-3.452c.036.437.181.782.437 1.036.256.253.577.38.964.38.544 0 .987-.22 1.328-.659l.64.61a2.13 2.13 0 01-.847.735c-.353.175-.75.262-1.189.262zm-.142-4.527a1 1 0 00-.788.342c-.2.228-.328.545-.383.952h2.26v-.088c-.026-.397-.132-.697-.317-.9-.186-.204-.443-.306-.772-.306zm7.823 2.793l.84-3.647h1.157L36.196 219h-.977l-1.133-3.628L32.973 219h-.977l-1.445-5.283h1.157l.855 3.608 1.083-3.608h.894l1.099 3.647zm5.752.2a.538.538 0 00-.262-.483c-.174-.11-.463-.208-.866-.293a4.455 4.455 0 01-1.011-.322c-.592-.287-.889-.702-.889-1.245 0-.456.192-.837.576-1.143.385-.306.873-.459 1.465-.459.632 0 1.142.156 1.531.469.39.312.584.718.584 1.216h-1.187a.731.731 0 00-.254-.57c-.17-.15-.394-.226-.674-.226-.26 0-.473.06-.637.18a.57.57 0 00-.246.484.48.48 0 00.229.425c.153.1.462.202.928.305.465.102.83.224 1.096.366.265.142.462.312.59.51.13.199.194.44.194.723 0 .475-.197.86-.591 1.155-.394.294-.91.442-1.548.442-.433 0-.819-.078-1.157-.235a1.905 1.905 0 01-.791-.644 1.526 1.526 0 01-.283-.884h1.152c.016.28.122.496.317.647.196.151.454.227.777.227.312 0 .55-.06.712-.178a.552.552 0 00.245-.467zM25.563 238h-8.605v-1.468l4.263-4.65c.615-.685 1.053-1.257 1.314-1.717.26-.46.39-.922.39-1.385 0-.61-.17-1.101-.513-1.476-.343-.375-.805-.563-1.385-.563-.691 0-1.227.211-1.608.633-.38.422-.571.999-.571 1.731h-2.136c0-.779.177-1.48.532-2.105a3.662 3.662 0 011.52-1.454c.66-.346 1.42-.519 2.28-.519 1.243 0 2.223.312 2.94.936.719.624 1.078 1.487 1.078 2.589 0 .638-.18 1.308-.541 2.008-.36.7-.95 1.496-1.771 2.386l-3.129 3.349h5.942V238zm10.23 0h-8.605v-1.468l4.263-4.65c.615-.685 1.053-1.257 1.314-1.717.26-.46.391-.922.391-1.385 0-.61-.171-1.101-.514-1.476-.343-.375-.804-.563-1.384-.563-.692 0-1.228.211-1.609.633-.38.422-.57.999-.57 1.731h-2.137c0-.779.178-1.48.532-2.105a3.662 3.662 0 011.52-1.454c.66-.346 1.42-.519 2.281-.519 1.243 0 2.223.312 2.94.936.718.624 1.077 1.487 1.077 2.589 0 .638-.18 1.308-.54 2.008-.36.7-.951 1.496-1.772 2.386l-3.128 3.349h5.941V238z"/>
    <path id="Labels/Gray-300" fill="#969CA1" d="M104.228 217.452l1.806-5.561h1.358L104.833 219h-1.196l-2.55-7.11h1.353l1.788 5.562zM109.34 219h-1.187v-5.283h1.187V219zm-1.26-6.655a.63.63 0 01.173-.454c.116-.12.281-.181.496-.181.215 0 .38.06.498.18a.628.628 0 01.176.455.61.61 0 01-.176.447c-.117.118-.283.178-.498.178-.215 0-.38-.06-.496-.178a.615.615 0 01-.173-.447zm5.513 5.22a.538.538 0 00-.261-.484c-.175-.11-.464-.208-.867-.293a4.455 4.455 0 01-1.01-.322c-.593-.287-.89-.702-.89-1.245 0-.456.192-.837.577-1.143.384-.306.872-.459 1.464-.459.632 0 1.142.156 1.531.469.39.312.584.718.584 1.216h-1.187a.731.731 0 00-.254-.57c-.169-.15-.394-.226-.674-.226-.26 0-.472.06-.637.18a.57.57 0 00-.246.484.48.48 0 00.23.425c.152.1.461.202.927.305.465.102.83.224 1.096.366.265.142.462.312.59.51.13.199.194.44.194.723 0 .475-.197.86-.591 1.155-.394.294-.91.442-1.548.442-.433 0-.819-.078-1.157-.235a1.905 1.905 0 01-.791-.644 1.526 1.526 0 01-.283-.884h1.152c.016.28.122.496.317.647.196.151.454.227.777.227.312 0 .55-.06.713-.178a.552.552 0 00.244-.467zm3.462 1.435h-1.187v-5.283h1.187V219zm-1.26-6.655a.63.63 0 01.173-.454c.116-.12.281-.181.496-.181.215 0 .38.06.498.18a.628.628 0 01.176.455.61.61 0 01-.176.447c-.117.118-.283.178-.498.178-.215 0-.38-.06-.496-.178a.615.615 0 01-.173-.447zm4.038.088v1.284h.933v.879h-.933v2.949c0 .202.04.347.12.437.08.09.222.134.427.134.137 0 .275-.016.415-.049v.918c-.27.075-.53.113-.781.113-.912 0-1.368-.503-1.368-1.51v-2.992h-.869v-.88h.87v-1.283h1.186zm1.47 3.877c0-.518.102-.984.307-1.4.205-.414.494-.733.865-.956a2.435 2.435 0 011.279-.335c.713 0 1.291.23 1.736.689.444.459.684 1.067.72 1.826l.005.278c0 .52-.1.986-.3 1.397-.2.41-.487.727-.86.952a2.453 2.453 0 01-1.291.337c-.746 0-1.342-.249-1.79-.745-.447-.496-.671-1.158-.671-1.985v-.058zm1.186.102c0 .544.113.97.337 1.277.225.308.537.461.938.461.4 0 .712-.156.935-.468.223-.313.334-.77.334-1.372 0-.534-.115-.957-.344-1.27a1.1 1.1 0 00-.935-.469 1.09 1.09 0 00-.923.462c-.228.307-.342.767-.342 1.38zm7.495-1.611a2.936 2.936 0 00-.483-.04c-.544 0-.91.209-1.099.626V219h-1.186v-5.283h1.133l.029.59c.286-.458.684-.688 1.191-.688.17 0 .31.023.42.069l-.005 1.113zm3.711 2.763a.538.538 0 00-.26-.483c-.175-.11-.464-.208-.868-.293a4.455 4.455 0 01-1.01-.322c-.593-.287-.889-.702-.889-1.245 0-.456.192-.837.576-1.143.384-.306.873-.459 1.465-.459.631 0 1.142.156 1.53.469.39.312.584.718.584 1.216h-1.186a.731.731 0 00-.254-.57c-.17-.15-.394-.226-.674-.226-.26 0-.473.06-.637.18a.57.57 0 00-.247.484.48.48 0 00.23.425c.153.1.462.202.927.305.466.102.831.224 1.097.366.265.142.462.312.59.51a1.3 1.3 0 01.193.723c0 .475-.197.86-.59 1.155-.394.294-.91.442-1.548.442-.433 0-.819-.078-1.158-.235a1.905 1.905 0 01-.79-.644 1.526 1.526 0 01-.284-.884h1.153c.016.28.122.496.317.647.195.151.454.227.776.227.313 0 .55-.06.713-.178a.552.552 0 00.244-.467zM110.563 238h-8.605v-1.468l4.263-4.65c.615-.685 1.053-1.257 1.314-1.717.26-.46.39-.922.39-1.385 0-.61-.17-1.101-.513-1.476-.343-.375-.805-.563-1.385-.563-.691 0-1.227.211-1.608.633-.38.422-.571.999-.571 1.731h-2.136c0-.779.177-1.48.532-2.105a3.662 3.662 0 011.52-1.454c.66-.346 1.42-.519 2.28-.519 1.243 0 2.223.312 2.94.936.719.624 1.078 1.487 1.078 2.589 0 .638-.18 1.308-.541 2.008-.36.7-.95 1.496-1.771 2.386l-3.129 3.349h5.942V238zm4.095-7.374h1.301c.656-.006 1.176-.176 1.56-.51.384-.334.576-.817.576-1.45 0-.61-.16-1.083-.48-1.42-.319-.336-.806-.505-1.463-.505-.574 0-1.046.166-1.415.497-.369.33-.553.763-.553 1.296h-2.136c0-.656.174-1.254.523-1.793.348-.539.835-.96 1.459-1.261.624-.302 1.323-.453 2.096-.453 1.277 0 2.28.321 3.01.963.73.641 1.094 1.533 1.094 2.676 0 .574-.183 1.115-.549 1.622-.366.506-.84.889-1.42 1.147.704.24 1.239.618 1.605 1.133.366.516.549 1.131.549 1.846 0 1.149-.394 2.063-1.182 2.742-.788.68-1.824 1.02-3.107 1.02-1.23 0-2.238-.328-3.023-.985-.786-.656-1.178-1.529-1.178-2.619h2.136c0 .563.189 1.02.566 1.371.378.352.887.528 1.525.528.662 0 1.184-.176 1.565-.528.38-.351.571-.861.571-1.529 0-.674-.2-1.192-.598-1.556-.398-.363-.99-.545-1.775-.545h-1.257v-1.687zm83.3-12.612h3.228V219h-4.463v-7.11h1.235v6.124zm5.322.986h-1.186v-5.283h1.186V219zm-1.26-6.655a.63.63 0 01.174-.454c.115-.12.28-.181.495-.181.215 0 .381.06.499.18a.627.627 0 01.175.455.61.61 0 01-.175.447c-.118.118-.284.178-.499.178-.214 0-.38-.06-.495-.178a.615.615 0 01-.173-.447zm4.268 4.39l-.527.541V219h-1.187v-7.5h1.187v4.326l.37-.464 1.46-1.645h1.427l-1.963 2.202 2.173 3.081h-1.373l-1.567-2.266zm5.733 2.363c-.752 0-1.362-.237-1.83-.71-.466-.474-.7-1.105-.7-1.893v-.146c0-.528.102-.999.305-1.414a2.34 2.34 0 01.857-.97 2.265 2.265 0 011.23-.346c.72 0 1.276.23 1.668.689.393.459.589 1.108.589 1.948v.478h-3.452c.035.437.181.782.437 1.036.255.253.576.38.964.38.543 0 .986-.22 1.328-.659l.64.61a2.133 2.133 0 01-.848.735 2.638 2.638 0 01-1.188.262zm-.142-4.527a1 1 0 00-.789.342c-.2.228-.328.545-.383.952h2.26v-.088c-.025-.397-.131-.697-.317-.9-.185-.204-.442-.306-.771-.306zm6.142 2.993a.538.538 0 00-.26-.483c-.175-.11-.464-.208-.867-.293a4.455 4.455 0 01-1.011-.322c-.593-.287-.889-.702-.889-1.245 0-.456.192-.837.576-1.143.384-.306.873-.459 1.465-.459.632 0 1.142.156 1.53.469.39.312.584.718.584 1.216h-1.186a.731.731 0 00-.254-.57c-.17-.15-.394-.226-.674-.226-.26 0-.473.06-.637.18a.57.57 0 00-.247.484.48.48 0 00.23.425c.153.1.462.202.928.305.465.102.83.224 1.096.366.265.142.462.312.59.51.13.199.193.44.193.723 0 .475-.196.86-.59 1.155-.394.294-.91.442-1.548.442-.433 0-.819-.078-1.157-.235a1.905 1.905 0 01-.791-.644 1.526 1.526 0 01-.284-.884h1.153c.016.28.122.496.317.647.195.151.454.227.776.227.313 0 .55-.06.713-.178a.552.552 0 00.244-.467zm-18.593 13.062h1.3c.657-.006 1.177-.176 1.56-.51.384-.334.576-.817.576-1.45 0-.61-.16-1.083-.479-1.42-.32-.336-.807-.505-1.463-.505-.574 0-1.046.166-1.415.497-.37.33-.554.763-.554 1.296h-2.136c0-.656.175-1.254.523-1.793.349-.539.835-.96 1.46-1.261.623-.302 1.322-.453 2.096-.453 1.277 0 2.28.321 3.01.963.73.641 1.094 1.533 1.094 2.676 0 .574-.183 1.115-.55 1.622a3.45 3.45 0 01-1.419 1.147c.703.24 1.238.618 1.604 1.133.366.516.55 1.131.55 1.846 0 1.149-.394 2.063-1.183 2.742-.788.68-1.823 1.02-3.106 1.02-1.231 0-2.239-.328-3.024-.985-.785-.656-1.178-1.529-1.178-2.619h2.136c0 .563.189 1.02.567 1.371.378.352.886.528 1.525.528.662 0 1.183-.176 1.564-.528.381-.351.572-.861.572-1.529 0-.674-.2-1.192-.598-1.556-.398-.363-.99-.545-1.775-.545h-1.257v-1.687zm84.72-13.94c-.072.758-.352 1.35-.84 1.774-.489.425-1.138.638-1.949.638-.566 0-1.065-.135-1.496-.403a2.644 2.644 0 01-.999-1.145c-.234-.495-.356-1.07-.366-1.724v-.664c0-.67.119-1.261.356-1.772a2.686 2.686 0 011.023-1.182c.445-.277.958-.415 1.541-.415.784 0 1.416.213 1.894.64.479.426.757 1.028.835 1.806h-1.23c-.059-.51-.208-.88-.447-1.106-.239-.226-.59-.34-1.052-.34-.537 0-.95.197-1.238.59-.288.392-.435.967-.442 1.725v.63c0 .769.138 1.354.413 1.758.275.404.678.606 1.208.606.485 0 .85-.11 1.094-.328.244-.218.399-.58.464-1.088h1.23zm.766-.376c0-.518.103-.984.308-1.4a2.25 2.25 0 01.864-.956 2.435 2.435 0 011.28-.335c.712 0 1.29.23 1.735.689.444.459.684 1.067.72 1.826l.005.278c0 .52-.1.986-.3 1.397-.2.41-.487.727-.86.952a2.453 2.453 0 01-1.291.337c-.745 0-1.342-.249-1.79-.745-.447-.496-.67-1.158-.67-1.985v-.058zm1.187.102c0 .544.112.97.337 1.277.224.308.537.461.937.461s.712-.156.935-.468c.223-.313.335-.77.335-1.372 0-.534-.115-.957-.345-1.27a1.1 1.1 0 00-.935-.469 1.09 1.09 0 00-.923.462c-.227.307-.341.767-.341 1.38zm5.844-2.695l.034.552c.372-.433.88-.65 1.524-.65.706 0 1.19.27 1.45.81.384-.54.925-.81 1.621-.81.583 0 1.017.161 1.301.484.285.322.431.797.438 1.425V219h-1.187v-3.438c0-.335-.073-.58-.22-.737-.146-.156-.389-.234-.727-.234-.27 0-.491.072-.662.217a1.16 1.16 0 00-.359.569l.005 3.623h-1.186v-3.477c-.017-.621-.334-.932-.953-.932-.475 0-.812.194-1.01.58V219h-1.187v-5.283h1.118zm8.701 0l.035.552c.37-.433.879-.65 1.523-.65.706 0 1.19.27 1.45.81.384-.54.925-.81 1.621-.81.583 0 1.017.161 1.302.484.284.322.43.797.437 1.425V219h-1.187v-3.438c0-.335-.073-.58-.22-.737-.146-.156-.389-.234-.727-.234-.27 0-.49.072-.662.217a1.16 1.16 0 00-.359.569l.005 3.623h-1.186v-3.477c-.017-.621-.334-.932-.952-.932-.476 0-.813.194-1.011.58V219h-1.187v-5.283h1.118zm9.913 5.38c-.752 0-1.362-.236-1.829-.71-.467-.473-.7-1.104-.7-1.892v-.146c0-.528.101-.999.304-1.414a2.34 2.34 0 01.857-.97 2.265 2.265 0 011.23-.346c.72 0 1.276.23 1.668.689.393.459.589 1.108.589 1.948v.478h-3.452c.035.437.181.782.437 1.036.255.253.577.38.964.38.544 0 .986-.22 1.328-.659l.64.61a2.137 2.137 0 01-.847.735c-.354.175-.75.262-1.19.262zm-.142-4.526a1 1 0 00-.789.342c-.2.228-.328.545-.383.952h2.26v-.088c-.025-.397-.131-.697-.317-.9-.185-.204-.442-.306-.771-.306zm4.282-.854l.034.61c.391-.472.904-.708 1.538-.708 1.1 0 1.66.63 1.68 1.89V219h-1.186v-3.423c0-.335-.073-.583-.218-.744-.144-.162-.381-.242-.71-.242-.479 0-.835.216-1.07.65V219h-1.186v-5.283h1.118zm5.947-1.284v1.284h.933v.879h-.933v2.949c0 .202.04.347.12.437.08.09.222.134.427.134.137 0 .275-.016.415-.049v.918c-.27.075-.53.113-.78.113-.912 0-1.368-.503-1.368-1.51v-2.992h-.87v-.88h.87v-1.283h1.186zm4.8 5.131a.538.538 0 00-.26-.483c-.175-.11-.464-.208-.868-.293a4.455 4.455 0 01-1.01-.322c-.593-.287-.89-.702-.89-1.245 0-.456.193-.837.577-1.143.384-.306.873-.459 1.465-.459.631 0 1.142.156 1.53.469.39.312.584.718.584 1.216h-1.186a.731.731 0 00-.254-.57c-.17-.15-.394-.226-.674-.226-.26 0-.473.06-.637.18a.57.57 0 00-.247.484.48.48 0 00.23.425c.153.1.462.202.927.305.466.102.831.224 1.097.366.265.142.462.312.59.51a1.3 1.3 0 01.193.723c0 .475-.197.86-.59 1.155-.394.294-.91.442-1.548.442-.433 0-.82-.078-1.158-.235a1.905 1.905 0 01-.79-.644 1.526 1.526 0 01-.284-.884h1.153c.016.28.122.496.317.647.195.151.454.227.776.227.313 0 .55-.06.713-.178a.552.552 0 00.244-.467zM284.741 238h-2.127v-10.274l-3.137 1.072v-1.802l4.992-1.837h.272V238zM21.25 56h-4.658v-.65l2.46-2.734c.365-.413.617-.75.755-1.008a1.69 1.69 0 00.208-.803c0-.371-.113-.676-.337-.913-.225-.238-.524-.357-.899-.357-.449 0-.798.128-1.047.383-.25.256-.374.612-.374 1.067h-.903c0-.654.21-1.183.632-1.587.422-.403.986-.605 1.692-.605.661 0 1.184.173 1.568.52.384.347.576.808.576 1.384 0 .7-.446 1.533-1.338 2.5l-1.904 2.066h3.569V56zm4.77-2.388h.987v.738h-.986V56h-.909v-1.65h-3.237v-.533l3.184-4.926h.962v4.721zm-3.12 0h2.212v-3.486l-.107.195-2.105 3.291zM21.25 76h-4.658v-.65l2.46-2.734c.365-.413.617-.75.755-1.008a1.69 1.69 0 00.208-.803c0-.371-.113-.676-.337-.913-.225-.238-.524-.357-.899-.357-.449 0-.798.128-1.047.383-.25.256-.374.612-.374 1.067h-.903c0-.654.21-1.183.632-1.587.422-.403.986-.605 1.692-.605.661 0 1.184.173 1.568.52.384.347.576.808.576 1.384 0 .7-.446 1.533-1.338 2.5l-1.904 2.066h3.569V76zm5.415-3.032c0 1.058-.18 1.844-.542 2.358-.361.514-.926.772-1.694.772-.759 0-1.32-.252-1.685-.755-.364-.503-.553-1.254-.566-2.253v-1.206c0-1.045.18-1.821.542-2.33.361-.507.927-.761 1.699-.761.765 0 1.328.245 1.69.735.36.49.546 1.246.556 2.268v1.172zm-.903-1.236c0-.765-.108-1.322-.323-1.672-.214-.35-.555-.525-1.02-.525-.462 0-.8.174-1.01.523-.212.348-.321.883-.328 1.606v1.445c0 .769.112 1.336.335 1.702.223.366.56.55 1.013.55.446 0 .777-.173.993-.518.217-.345.33-.889.34-1.631v-1.48zM19.56 96h-.909v-6.02l-1.82.668v-.82l2.587-.972h.142V96zm6.191-7.114v.766h-.166c-.703.013-1.263.222-1.68.625-.416.404-.657.972-.722 1.704.374-.43.885-.644 1.533-.644.618 0 1.112.218 1.482.654.37.436.554 1 .554 1.69 0 .732-.2 1.318-.598 1.757-.399.44-.934.66-1.604.66-.68 0-1.232-.262-1.655-.784-.424-.522-.635-1.196-.635-2.02v-.346c0-1.308.279-2.309.837-3 .558-.692 1.39-1.046 2.493-1.062h.161zm-1.187 3.203c-.309 0-.594.093-.854.278a1.45 1.45 0 00-.542.698v.332c0 .586.132 1.058.395 1.416.264.359.593.538.987.538.407 0 .727-.15.96-.45.232-.3.348-.691.348-1.176 0-.489-.118-.883-.354-1.184a1.135 1.135 0 00-.94-.452zM19.56 116h-.909v-6.02l-1.82.668v-.82l2.587-.972h.142V116zm7.304 0h-4.658v-.65l2.461-2.734c.365-.413.616-.75.754-1.008.139-.259.208-.527.208-.803 0-.371-.112-.676-.337-.913-.225-.238-.524-.357-.898-.357-.45 0-.799.128-1.048.383-.249.256-.373.612-.373 1.067h-.904c0-.654.211-1.183.633-1.587.421-.403.985-.605 1.692-.605.66 0 1.183.173 1.567.52.384.347.576.808.576 1.384 0 .7-.446 1.533-1.338 2.5l-1.904 2.066h3.57V116zm-5.962 14.746c0 .355-.093.67-.28.947a1.91 1.91 0 01-.76.65c.371.16.665.392.882.698.216.306.324.653.324 1.04 0 .615-.207 1.105-.622 1.47-.415.364-.961.547-1.638.547-.684 0-1.232-.183-1.643-.55-.412-.366-.618-.855-.618-1.467 0-.384.105-.73.315-1.04.21-.31.5-.544.871-.703a1.863 1.863 0 01-.747-.65 1.674 1.674 0 01-.273-.942c0-.599.192-1.074.576-1.426.384-.351.89-.527 1.519-.527.625 0 1.13.176 1.516.527.385.352.578.827.578 1.426zm-.737 3.316c0-.398-.126-.722-.378-.972-.253-.25-.582-.376-.99-.376-.406 0-.732.124-.978.371s-.369.573-.369.977c0 .403.12.72.36.952.238.23.571.346.998.346.423 0 .755-.116.996-.349.24-.233.361-.55.361-.95zm-1.357-4.527c-.355 0-.642.11-.862.33-.22.22-.33.518-.33.896 0 .361.108.653.325.876.216.223.505.335.867.335.36 0 .65-.112.866-.335.217-.223.325-.515.325-.876 0-.362-.112-.656-.337-.884a1.15 1.15 0 00-.854-.342zm1.596 24.077h.987v.738h-.987V156h-.908v-1.65H16.26v-.533l3.183-4.926h.962v4.721zm-3.12 0h2.212v-3.486l-.107.195-2.105 3.291zm3.765 19.356c0 1.058-.18 1.844-.542 2.358-.361.514-.926.772-1.695.772-.758 0-1.32-.252-1.684-.755-.365-.503-.553-1.254-.566-2.253v-1.206c0-1.045.18-1.821.542-2.33.36-.507.927-.761 1.699-.761.765 0 1.328.245 1.69.735.36.49.546 1.246.556 2.268v1.172zm-.903-1.236c0-.765-.108-1.322-.323-1.672-.215-.35-.555-.525-1.02-.525-.463 0-.8.174-1.011.523-.212.348-.32.883-.327 1.606v1.445c0 .769.111 1.336.334 1.702.223.366.561.55 1.014.55.445 0 .777-.173.993-.518.217-.345.33-.889.34-1.631v-1.48zm19.658 9.159h.942v5.034c0 .68-.204 1.212-.613 1.596-.408.385-.953.577-1.633.577-.706 0-1.257-.181-1.65-.542-.394-.362-.591-.868-.591-1.519h.937c0 .407.112.724.335.952.223.228.546.342.969.342.387 0 .7-.122.94-.366s.36-.586.364-1.026v-5.048zM45.463 188c-.052-.104-.095-.29-.127-.557-.42.437-.921.655-1.504.655-.52 0-.948-.148-1.282-.442a1.43 1.43 0 01-.5-1.12c0-.551.209-.978.627-1.283.419-.304 1.007-.456 1.765-.456h.88v-.415c0-.316-.095-.567-.284-.755-.189-.187-.467-.28-.835-.28-.322 0-.592.081-.81.244-.219.163-.328.36-.328.59h-.908c0-.263.094-.518.281-.764.187-.245.441-.44.762-.583.32-.143.673-.215 1.057-.215.609 0 1.085.152 1.43.457.346.304.525.723.538 1.257v2.432c0 .485.061.87.185 1.157V188h-.947zm-1.5-.688c.284 0 .553-.074.807-.22a1.33 1.33 0 00.551-.571v-1.084h-.708c-1.106 0-1.66.323-1.66.971 0 .283.095.505.283.664.19.16.432.24.728.24zm4.532-4.595l.03.664a1.925 1.925 0 011.581-.762c1.117 0 1.68.63 1.69 1.89V188h-.903v-3.496c-.004-.381-.09-.663-.262-.845-.17-.182-.437-.273-.798-.273-.293 0-.55.078-.771.234a1.592 1.592 0 00-.518.615V188h-.903v-5.283h.854zM58.51 188h-.908v-6.02l-1.822.668v-.82l2.588-.972h.142V188zm5.615 0h-.908v-6.02l-1.821.668v-.82l2.587-.972h.142V188zm2.71 1.416l-.513-.352c.306-.426.466-.865.479-1.318v-.815h.884v.708c0 .328-.081.657-.242.986a2.31 2.31 0 01-.608.791zM75.868 188H71.21v-.65l2.46-2.734c.365-.413.617-.75.755-1.008.139-.259.208-.527.208-.803 0-.371-.112-.676-.337-.913-.225-.238-.524-.357-.899-.357-.449 0-.798.128-1.047.383-.249.256-.373.612-.373 1.067h-.904c0-.654.211-1.183.633-1.587.421-.403.985-.605 1.691-.605.661 0 1.184.173 1.568.52.384.347.576.808.576 1.384 0 .7-.446 1.533-1.338 2.5l-1.904 2.066h3.57V188zm5.415-3.032c0 1.058-.18 1.844-.542 2.358-.361.514-.926.772-1.694.772-.759 0-1.32-.252-1.685-.755-.364-.503-.553-1.254-.566-2.253v-1.206c0-1.045.18-1.821.542-2.33.361-.507.928-.761 1.7-.761.764 0 1.327.245 1.689.735.36.49.546 1.246.556 2.268v1.172zm-.903-1.236c0-.765-.108-1.322-.322-1.672-.215-.35-.555-.525-1.02-.525-.463 0-.8.174-1.012.523-.211.348-.32.883-.327 1.606v1.445c0 .769.112 1.336.335 1.702.223.366.56.55 1.013.55.446 0 .777-.173.994-.518.216-.345.33-.889.339-1.631v-1.48zM85.41 188h-.91v-6.02l-1.821.668v-.82l2.588-.972h.141V188zm6.108-3.125a2.21 2.21 0 01-.677.542 1.83 1.83 0 01-.862.205c-.41 0-.767-.1-1.071-.303a1.968 1.968 0 01-.706-.852 2.905 2.905 0 01-.249-1.213c0-.475.09-.903.271-1.284.18-.381.437-.672.77-.874.331-.202.719-.303 1.161-.303.703 0 1.258.263 1.663.789.405.525.608 1.242.608 2.15v.264c0 1.384-.274 2.393-.82 3.03-.547.636-1.373.963-2.476.979h-.176v-.762h.19c.746-.013 1.319-.207 1.72-.583.4-.376.618-.971.654-1.785zm-1.392 0c.303 0 .582-.093.837-.278a1.64 1.64 0 00.56-.689v-.361c0-.593-.13-1.074-.386-1.445-.257-.372-.583-.557-.977-.557a1.16 1.16 0 00-.957.456c-.24.305-.361.706-.361 1.204 0 .485.116.885.349 1.199.233.314.544.471.935.471zm184.598-3.984h.942v5.034c0 .68-.204 1.212-.613 1.596-.408.385-.953.577-1.633.577-.706 0-1.257-.181-1.65-.542-.394-.362-.591-.868-.591-1.519h.937c0 .407.112.724.335.952.223.228.546.342.969.342.387 0 .7-.122.94-.366s.36-.586.364-1.026v-5.048zm5.659 7.109c-.052-.104-.095-.29-.127-.557-.42.437-.921.655-1.504.655-.52 0-.948-.148-1.282-.442a1.43 1.43 0 01-.5-1.12c0-.551.209-.978.627-1.283.418-.304 1.007-.456 1.765-.456h.88v-.415c0-.316-.095-.567-.284-.755-.189-.187-.467-.28-.835-.28-.322 0-.592.081-.81.244-.219.163-.328.36-.328.59h-.908c0-.263.094-.518.28-.764.188-.245.442-.44.763-.583.32-.143.673-.215 1.057-.215.608 0 1.085.152 1.43.457.345.304.525.723.538 1.257v2.432c0 .485.061.87.185 1.157V188h-.947zm-1.5-.688c.284 0 .553-.074.806-.22a1.33 1.33 0 00.552-.571v-1.084h-.708c-1.107 0-1.66.323-1.66.971 0 .283.094.505.283.664.19.16.432.24.728.24zm4.532-4.595l.03.664a1.925 1.925 0 011.581-.762c1.117 0 1.68.63 1.69 1.89V188h-.904v-3.496c-.003-.381-.09-.663-.26-.845-.172-.182-.438-.273-.8-.273a1.3 1.3 0 00-.77.234 1.592 1.592 0 00-.518.615V188h-.903v-5.283h.854zM295.119 188h-4.658v-.65l2.46-2.734c.365-.413.617-.75.755-1.008.139-.259.208-.527.208-.803 0-.371-.113-.676-.337-.913-.225-.238-.524-.357-.899-.357-.449 0-.798.128-1.047.383-.249.256-.373.612-.373 1.067h-.904c0-.654.211-1.183.633-1.587.421-.403.985-.605 1.691-.605.661 0 1.184.173 1.568.52.384.347.576.808.576 1.384 0 .7-.446 1.533-1.338 2.5l-1.904 2.066h3.57V188zm4.77-2.388h.987v.738h-.986V188h-.909v-1.65h-3.237v-.533l3.184-4.926h.962v4.721zm-3.12 0h2.212v-3.486l-.107.195-2.104 3.291zm4.986 3.804l-.513-.352c.306-.426.466-.865.479-1.318v-.815h.883v.708c0 .328-.08.657-.241.986a2.31 2.31 0 01-.608.791zm9.033-1.416h-4.658v-.65l2.46-2.734c.365-.413.617-.75.755-1.008.139-.259.208-.527.208-.803 0-.371-.113-.676-.337-.913-.225-.238-.524-.357-.899-.357-.449 0-.798.128-1.047.383-.249.256-.374.612-.374 1.067h-.903c0-.654.21-1.183.632-1.587.422-.403.986-.605 1.692-.605.661 0 1.184.173 1.568.52.384.347.576.808.576 1.384 0 .7-.446 1.533-1.338 2.5l-1.904 2.066h3.57V188zm5.415-3.032c0 1.058-.18 1.844-.542 2.358-.361.514-.926.772-1.694.772-.759 0-1.32-.252-1.685-.755-.364-.503-.553-1.254-.566-2.253v-1.206c0-1.045.18-1.821.542-2.33.361-.507.928-.761 1.699-.761.765 0 1.328.245 1.69.735.36.49.546 1.246.556 2.268v1.172zm-.903-1.236c0-.765-.108-1.322-.322-1.672-.215-.35-.555-.525-1.021-.525-.462 0-.8.174-1.01.523-.212.348-.321.883-.328 1.606v1.445c0 .769.112 1.336.335 1.702.223.366.56.55 1.013.55.446 0 .777-.173.993-.518.217-.345.33-.889.34-1.631v-1.48zm5.03 4.268h-.91v-6.02l-1.82.668v-.82l2.587-.972h.142V188zm6.108-3.125a2.21 2.21 0 01-.677.542c-.262.137-.55.205-.862.205-.41 0-.767-.1-1.071-.303a1.968 1.968 0 01-.706-.852 2.905 2.905 0 01-.249-1.213c0-.475.09-.903.271-1.284.18-.381.437-.672.77-.874.331-.202.718-.303 1.161-.303.703 0 1.258.263 1.663.789.405.525.608 1.242.608 2.15v.264c0 1.384-.274 2.393-.82 3.03-.547.636-1.373.963-2.476.979h-.176v-.762h.19c.746-.013 1.319-.207 1.72-.583.4-.376.618-.971.654-1.785zm-1.392 0c.303 0 .582-.093.837-.278a1.64 1.64 0 00.56-.689v-.361c0-.593-.13-1.074-.386-1.445-.258-.372-.583-.557-.977-.557a1.16 1.16 0 00-.957.456c-.24.305-.361.706-.361 1.204 0 .485.116.885.349 1.199.233.314.544.471.935.471z"/>
    <path id="Label/Red-500" fill="#CA2622" fill-rule="nonzero" d="M287.679 23.55h-6.85v-1.032h6.85v1.032zm8.575 4.45h-6.522v-.91l3.446-3.827c.51-.58.862-1.05 1.056-1.412a2.35 2.35 0 00.29-1.124c0-.52-.157-.946-.471-1.279-.315-.332-.734-.499-1.258-.499-.629 0-1.118.18-1.466.537-.349.358-.523.855-.523 1.493h-1.265c0-.916.295-1.656.885-2.221.59-.565 1.38-.848 2.369-.848.925 0 1.656.243 2.194.728.538.486.807 1.132.807 1.938 0 .98-.624 2.147-1.873 3.5l-2.666 2.892h4.997V28zm4.888-4.04c0-1.03.137-2.019.413-2.967a8.618 8.618 0 011.234-2.584c.547-.775 1.114-1.321 1.702-1.64l.26.834c-.665.51-1.211 1.29-1.637 2.337-.426 1.049-.66 2.222-.7 3.52l-.008.582c0 1.76.322 3.286.964 4.58.387.775.848 1.38 1.381 1.818l-.26.773c-.606-.337-1.185-.902-1.736-1.695-1.076-1.55-1.613-3.402-1.613-5.558zm9.55-.335c-.265.314-.58.567-.947.759a2.569 2.569 0 01-1.207.287c-.574 0-1.074-.141-1.5-.424-.427-.282-.756-.68-.988-1.193a4.067 4.067 0 01-.349-1.699c0-.665.127-1.264.38-1.797a2.787 2.787 0 011.076-1.224c.465-.283 1.007-.424 1.627-.424.985 0 1.76.368 2.328 1.104.567.736.85 1.74.85 3.011v.37c0 1.936-.382 3.35-1.148 4.241-.765.891-1.92 1.348-3.465 1.37h-.246V26.94h.266c1.044-.018 1.846-.29 2.406-.816.56-.527.866-1.36.916-2.499zm-1.949 0c.424 0 .815-.13 1.173-.39.357-.26.618-.58.782-.964v-.505c0-.83-.18-1.504-.54-2.024-.36-.52-.816-.78-1.367-.78-.556 0-1.003.214-1.34.64-.337.426-.506.988-.506 1.685 0 .68.163 1.239.49 1.678.325.44.761.66 1.308.66zm4.854-3.664c0-.597.19-1.09.57-1.477.381-.387.87-.58 1.467-.58.606 0 1.097.194 1.473.584.376.39.564.894.564 1.514v.485c0 .602-.19 1.093-.57 1.473-.381.381-.866.571-1.454.571-.592 0-1.082-.19-1.47-.57-.387-.381-.58-.888-.58-1.522v-.478zm.943.526c0 .356.1.649.3.879.201.23.47.345.807.345.324 0 .585-.112.783-.335.198-.223.298-.529.298-.916v-.5c0-.355-.098-.648-.294-.88-.196-.233-.463-.35-.8-.35s-.604.117-.8.35c-.196.232-.294.535-.294.908v.5zm3.903 5.073c0-.597.19-1.088.571-1.474.38-.385.87-.577 1.466-.577.597 0 1.087.191 1.47.574.383.383.574.891.574 1.524v.486c0 .597-.19 1.088-.57 1.473-.38.385-.867.578-1.46.578-.592 0-1.082-.19-1.47-.571-.387-.38-.58-.888-.58-1.521v-.492zm.944.533c0 .36.1.655.3.885.201.23.47.345.807.345.328 0 .59-.113.786-.338.196-.226.294-.532.294-.92v-.505c0-.36-.099-.654-.297-.882-.198-.228-.464-.342-.797-.342-.323 0-.586.113-.79.338-.202.226-.303.53-.303.913v.506zm-3.452 1.155l-.718-.451 4.86-7.78.718.452-4.86 7.779zm11.074-3.22c0 1.017-.134 1.99-.4 2.923a8.641 8.641 0 01-1.224 2.58c-.549.789-1.124 1.35-1.726 1.682l-.266-.773c.701-.537 1.265-1.372 1.691-2.505.427-1.132.644-2.39.653-3.77v-.219c0-.957-.1-1.847-.3-2.67a9.01 9.01 0 00-.838-2.21c-.358-.652-.76-1.16-1.206-1.525l.266-.772c.602.332 1.175.888 1.72 1.668a8.66 8.66 0 011.223 2.577c.271.938.407 1.943.407 3.014z"/>
  </g>
</svg>
