<svg xmlns="http://www.w3.org/2000/svg" width="360" height="592"><g fill="none" fill-rule="evenodd"><path fill="#F6F6F6" d="M0 0h360v592H0z"/><path fill="#636D75" d="M21.32 99.05h1.32v7.04c0 .96-.28 1.7-.85 2.24a3.2 3.2 0 0 1-2.29.8c-.99 0-1.76-.25-2.31-.75a2.74 2.74 0 0 1-.83-2.13h1.32c0 .57.15 1.02.46 1.33.32.32.77.48 1.36.48.54 0 .98-.17 1.32-.5.33-.35.5-.83.5-1.45v-7.06zm7.93 9.95c-.07-.15-.13-.4-.18-.78-.59.61-1.29.92-2.1.92a2.6 2.6 0 0 1-1.8-.62 2 2 0 0 1-.7-1.57c0-.77.3-1.37.88-1.8a4.14 4.14 0 0 1 2.47-.64h1.23v-.58c0-.44-.13-.79-.4-1.05-.26-.26-.65-.4-1.17-.4-.45 0-.83.12-1.13.35-.3.22-.46.5-.46.82h-1.27c0-.37.13-.72.4-1.07a2.68 2.68 0 0 1 1.06-.81c.45-.2.94-.3 1.48-.3.85 0 1.52.21 2 .64.49.42.74 1 .75 1.76v3.4c0 .68.1 1.22.26 1.62v.11h-1.32zm-2.1-.96a2.22 2.22 0 0 0 1.13-.31 1.86 1.86 0 0 0 .77-.8v-1.52h-1c-1.54 0-2.32.46-2.32 1.36 0 .4.14.7.4.93.27.22.6.34 1.02.34zm6.34-6.44.04.93a2.7 2.7 0 0 1 2.22-1.06c1.56 0 2.35.88 2.36 2.64V109h-1.26v-4.9c0-.53-.13-.92-.37-1.18-.24-.25-.6-.38-1.11-.38-.41 0-.77.11-1.08.33-.31.22-.55.5-.73.86V109H32.3v-7.4h1.2zm11.1 6.67c-.5.58-1.22.87-2.17.87-.79 0-1.39-.23-1.8-.69-.41-.46-.62-1.14-.63-2.03v-4.82h1.27v4.78c0 1.12.46 1.68 1.37 1.68.96 0 1.6-.36 1.92-1.08v-5.38h1.27v7.4h-1.2l-.03-.73zm7.72.73c-.08-.15-.14-.4-.18-.78-.59.61-1.3.92-2.1.92a2.6 2.6 0 0 1-1.8-.62 2 2 0 0 1-.7-1.57c0-.77.29-1.37.88-1.8a4.14 4.14 0 0 1 2.47-.64h1.23v-.58c0-.44-.14-.79-.4-1.05s-.65-.4-1.17-.4c-.45 0-.83.12-1.13.35-.3.22-.46.5-.46.82h-1.27c0-.37.13-.72.4-1.07a2.68 2.68 0 0 1 1.06-.81c.45-.2.94-.3 1.48-.3.85 0 1.52.21 2 .64.48.42.73 1 .75 1.76v3.4c0 .68.09 1.22.26 1.62v.11h-1.32zm-2.1-.96c.4 0 .77-.1 1.12-.31a1.86 1.86 0 0 0 .78-.8v-1.52h-1c-1.54 0-2.32.46-2.32 1.36 0 .4.13.7.4.93.26.22.6.34 1.02.34zm8.72-5.3a3.79 3.79 0 0 0-.62-.05c-.83 0-1.4.35-1.7 1.06V109h-1.26v-7.4h1.23l.02.86a1.98 1.98 0 0 1 2.33-.9v1.18zm3.7 4.4 1.73-5.54h1.35l-2.97 8.54c-.46 1.23-1.2 1.85-2.2 1.85l-.24-.02-.47-.1v-1.02l.34.03c.43 0 .77-.09 1-.26.24-.17.44-.49.6-.95l.28-.75-2.64-7.32h1.38l1.84 5.55zm9.38-3.73h.95c.6-.01 1.07-.17 1.41-.47.34-.3.51-.72.51-1.24 0-1.17-.58-1.75-1.74-1.75-.54 0-.98.15-1.3.47-.33.31-.5.72-.5 1.24h-1.26c0-.79.29-1.44.86-1.97a3.17 3.17 0 0 1 2.2-.78c.94 0 1.68.25 2.21.74.53.5.8 1.2.8 2.08 0 .43-.14.85-.42 1.25a2.54 2.54 0 0 1-1.15.91c.55.18.97.46 1.27.86.3.4.45.9.45 1.47 0 .9-.3 1.6-.88 2.13-.58.53-1.34.79-2.27.79-.94 0-1.7-.26-2.28-.76a2.52 2.52 0 0 1-.88-2h1.27c0 .52.17.94.51 1.25.35.32.8.47 1.38.47.6 0 1.08-.15 1.4-.47.32-.32.48-.78.48-1.38 0-.58-.17-1.02-.53-1.33a2.32 2.32 0 0 0-1.54-.48h-.95v-1.03zm12.27 1.35c0 1.48-.26 2.58-.76 3.3-.5.72-1.3 1.08-2.37 1.08s-1.85-.36-2.36-1.06a5.5 5.5 0 0 1-.8-3.15v-1.7c0-1.46.26-2.54.76-3.25.51-.71 1.3-1.07 2.38-1.07 1.07 0 1.86.34 2.37 1.03.5.68.76 1.74.78 3.17v1.64zM83 103.02c0-1.07-.15-1.85-.45-2.34-.3-.49-.77-.73-1.43-.73-.64 0-1.12.24-1.41.73a4.5 4.5 0 0 0-.46 2.25v2.02c0 1.08.16 1.87.47 2.38.31.52.78.77 1.42.77.62 0 1.09-.24 1.39-.72.3-.48.46-1.24.47-2.28v-2.08zm2.98 7.96-.72-.49c.43-.6.65-1.21.67-1.85v-1.14h1.24v1c0 .45-.12.91-.34 1.37-.23.46-.51.83-.85 1.11zM98.63 109h-6.52v-.91l3.45-3.83c.5-.58.86-1.05 1.05-1.4.2-.37.3-.75.3-1.13 0-.52-.16-.95-.48-1.28-.31-.33-.73-.5-1.26-.5-.63 0-1.11.18-1.46.54-.35.35-.53.85-.53 1.49h-1.26c0-.92.3-1.66.89-2.22a3.28 3.28 0 0 1 2.36-.85c.93 0 1.66.24 2.2.73.54.48.8 1.13.8 1.94 0 .98-.62 2.14-1.87 3.5l-2.66 2.89h5V109zm7.58-4.25c0 1.49-.25 2.59-.75 3.3-.51.73-1.3 1.09-2.38 1.09-1.06 0-1.84-.36-2.35-1.06a5.5 5.5 0 0 1-.8-3.15v-1.7c0-1.46.25-2.54.76-3.25.5-.71 1.3-1.07 2.38-1.07 1.07 0 1.86.34 2.36 1.03.51.68.77 1.74.78 3.17v1.64zm-1.26-1.73c0-1.07-.15-1.85-.45-2.34-.3-.49-.78-.73-1.43-.73-.65 0-1.12.24-1.42.73-.3.49-.45 1.24-.45 2.25v2.02c0 1.08.15 1.87.46 2.38.32.52.79.77 1.42.77.63 0 1.1-.24 1.4-.72.3-.48.46-1.24.47-2.28v-2.08zm7.04 5.98h-1.27v-8.43l-2.55.94v-1.15l3.62-1.36h.2v10zm9.74-7.36c0 .5-.13.94-.4 1.33-.25.39-.6.7-1.06.91.52.22.94.55 1.24.98.3.43.45.91.45 1.45a2.6 2.6 0 0 1-.87 2.06c-.58.51-1.34.77-2.3.77-.95 0-1.72-.26-2.3-.77a2.61 2.61 0 0 1-.86-2.06c0-.53.15-1.02.44-1.45.3-.44.7-.76 1.22-.99a2.6 2.6 0 0 1-1.04-.9 2.34 2.34 0 0 1-.38-1.32c0-.84.27-1.5.8-2a3 3 0 0 1 2.13-.74c.87 0 1.58.25 2.12.74.54.5.81 1.16.81 2zm-1.03 4.65c0-.56-.18-1.01-.53-1.36-.35-.36-.82-.53-1.39-.53s-1.02.17-1.37.52c-.34.34-.51.8-.51 1.37s.17 1 .5 1.33c.34.32.8.48 1.4.48.6 0 1.06-.16 1.4-.48.33-.33.5-.77.5-1.33zm-1.9-6.34c-.5 0-.9.15-1.2.46-.31.3-.47.73-.47 1.26 0 .5.15.91.46 1.22.3.31.7.47 1.2.47s.92-.16 1.22-.47c.3-.31.46-.72.46-1.22 0-.51-.16-.92-.48-1.24a1.6 1.6 0 0 0-1.2-.48zm-97.47 118.1h1.32v7.04c0 .96-.3 1.7-.86 2.24a3.2 3.2 0 0 1-2.29.8c-.99 0-1.76-.25-2.31-.75a2.74 2.74 0 0 1-.83-2.13h1.32c0 .57.15 1.02.46 1.34.32.31.77.47 1.36.47.54 0 .98-.17 1.32-.5.33-.35.5-.83.5-1.44v-7.07zm7.92 9.95c-.07-.15-.13-.4-.18-.78-.59.61-1.29.92-2.1.92a2.6 2.6 0 0 1-1.8-.62 2 2 0 0 1-.7-1.57c0-.77.3-1.37.88-1.8a4.14 4.14 0 0 1 2.47-.64h1.23v-.57c0-.45-.13-.8-.4-1.06-.26-.26-.65-.4-1.17-.4-.45 0-.83.12-1.13.35-.3.23-.46.5-.46.82h-1.27c0-.36.13-.72.4-1.07a2.68 2.68 0 0 1 1.06-.81c.45-.2.94-.3 1.48-.3.85 0 1.52.21 2 .64.49.42.74 1 .75 1.76v3.4c0 .68.1 1.22.26 1.62v.11h-1.32zm-2.1-.96a2.22 2.22 0 0 0 1.13-.31 1.86 1.86 0 0 0 .77-.8v-1.52h-1c-1.54 0-2.32.46-2.32 1.36 0 .4.14.7.4.93.27.22.6.34 1.02.34zm6.34-6.44.04.93a2.7 2.7 0 0 1 2.22-1.06c1.56 0 2.35.88 2.36 2.64V228h-1.26v-4.9c0-.53-.13-.92-.37-1.18-.24-.25-.6-.38-1.11-.38-.41 0-.77.11-1.08.33-.31.22-.55.5-.73.86V228H32.3v-7.4h1.2zm11.1 6.67c-.5.58-1.22.87-2.17.87-.79 0-1.39-.23-1.8-.69-.41-.46-.62-1.14-.63-2.03v-4.82h1.27v4.78c0 1.12.46 1.68 1.37 1.68.96 0 1.6-.36 1.92-1.08v-5.38h1.27v7.4h-1.2l-.03-.73zm7.72.73c-.08-.15-.14-.4-.18-.78-.59.61-1.3.92-2.1.92a2.6 2.6 0 0 1-1.8-.62 2 2 0 0 1-.7-1.57c0-.77.29-1.37.88-1.8a4.14 4.14 0 0 1 2.47-.64h1.23v-.57c0-.45-.14-.8-.4-1.06s-.65-.4-1.17-.4c-.45 0-.83.12-1.13.35-.3.23-.46.5-.46.82h-1.27c0-.36.13-.72.4-1.07a2.68 2.68 0 0 1 1.06-.81c.45-.2.94-.3 1.48-.3.85 0 1.52.21 2 .64.48.42.73 1 .75 1.76v3.4c0 .68.09 1.22.26 1.62v.11h-1.32zm-2.1-.96c.4 0 .77-.1 1.12-.31a1.86 1.86 0 0 0 .78-.8v-1.52h-1c-1.54 0-2.32.46-2.32 1.36 0 .4.13.7.4.93.26.22.6.34 1.02.34zm8.72-5.3a3.79 3.79 0 0 0-.62-.05c-.83 0-1.4.35-1.7 1.06V228h-1.26v-7.4h1.23l.02.86a1.98 1.98 0 0 1 2.33-.9v1.18zm3.7 4.4 1.73-5.54h1.35l-2.97 8.54c-.46 1.23-1.2 1.85-2.2 1.85l-.24-.02-.47-.1v-1.02l.34.03c.43 0 .77-.09 1-.26.24-.17.44-.49.6-.95l.28-.75-2.64-7.32h1.38l1.84 5.55zm13.58-5.5c0 .5-.13.94-.4 1.33-.25.39-.6.7-1.06.91.52.22.93.55 1.24.98.3.43.45.91.45 1.45a2.6 2.6 0 0 1-.87 2.06c-.58.51-1.34.77-2.3.77-.95 0-1.72-.26-2.3-.77a2.61 2.61 0 0 1-.86-2.06c0-.53.15-1.02.44-1.45.3-.44.7-.76 1.22-.99a2.6 2.6 0 0 1-1.04-.9 2.34 2.34 0 0 1-.38-1.33c0-.83.26-1.5.8-2a3.1 3.1 0 0 1 2.13-.73c.87 0 1.58.25 2.12.74.54.5.81 1.16.81 2zm-1.03 4.65c0-.56-.18-1.01-.53-1.36a1.88 1.88 0 0 0-1.39-.53c-.57 0-1.02.17-1.37.52-.34.34-.51.8-.51 1.37s.16 1 .5 1.33c.33.32.8.48 1.4.48.6 0 1.06-.16 1.4-.48.33-.33.5-.77.5-1.33zm-1.9-6.34a1.59 1.59 0 0 0-1.67 1.71c0 .51.15.92.45 1.23.3.31.71.47 1.22.47.5 0 .9-.16 1.21-.47.3-.31.46-.72.46-1.23 0-.5-.16-.91-.48-1.23a1.6 1.6 0 0 0-1.2-.48zm4.84 11.03-.71-.49c.43-.6.65-1.21.67-1.85v-1.14h1.23v1c0 .45-.1.91-.33 1.37-.23.46-.51.83-.86 1.11zM90.77 228h-6.52v-.91l3.44-3.83c.51-.58.87-1.05 1.06-1.4.2-.37.3-.75.3-1.13 0-.52-.17-.95-.48-1.28-.31-.33-.73-.5-1.26-.5-.63 0-1.12.18-1.46.54-.35.35-.53.85-.53 1.49h-1.26c0-.92.3-1.66.89-2.22a3.28 3.28 0 0 1 2.36-.85c.93 0 1.66.24 2.2.73.54.48.8 1.13.8 1.94 0 .98-.62 2.14-1.87 3.5l-2.67 2.89h5V228zm7.58-4.25c0 1.49-.25 2.59-.76 3.3-.5.73-1.3 1.09-2.37 1.09-1.06 0-1.85-.35-2.36-1.06a5.5 5.5 0 0 1-.79-3.15v-1.7c0-1.46.25-2.54.76-3.25.5-.71 1.3-1.07 2.38-1.07 1.07 0 1.86.34 2.36 1.03.5.68.77 1.74.78 3.17v1.64zm-1.26-1.73c0-1.07-.15-1.85-.45-2.34-.3-.49-.78-.73-1.43-.73-.65 0-1.12.24-1.42.73a4.5 4.5 0 0 0-.46 2.25v2.02c0 1.08.16 1.87.47 2.39.32.5.79.77 1.42.77.63 0 1.09-.25 1.4-.73.3-.48.45-1.24.47-2.28v-2.07zm7.04 5.98h-1.27v-8.43l-2.55.94v-1.15l3.62-1.36h.2v10zm9.74-7.36c0 .5-.13.94-.4 1.33-.25.39-.6.7-1.06.91.52.22.93.55 1.24.98.3.43.45.91.45 1.45a2.6 2.6 0 0 1-.87 2.06c-.58.51-1.35.77-2.3.77-.95 0-1.72-.26-2.3-.77a2.61 2.61 0 0 1-.86-2.06c0-.53.15-1.02.44-1.45a2.75 2.75 0 0 1 1.22-.99 2.6 2.6 0 0 1-1.04-.9 2.34 2.34 0 0 1-.39-1.33c0-.83.27-1.5.81-2a3.1 3.1 0 0 1 2.13-.73c.87 0 1.58.25 2.12.74.54.5.81 1.16.81 2zm-1.03 4.65c0-.56-.18-1.01-.53-1.36a1.88 1.88 0 0 0-1.39-.53c-.57 0-1.02.17-1.37.52-.34.35-.51.8-.51 1.37s.16 1 .5 1.33c.34.32.8.48 1.4.48.59 0 1.06-.16 1.4-.48.33-.33.5-.77.5-1.33zm-1.9-6.34c-.5 0-.9.15-1.2.46-.32.3-.47.73-.47 1.26 0 .5.15.91.45 1.22.3.31.71.47 1.22.47.5 0 .9-.16 1.21-.47.3-.31.45-.72.45-1.22 0-.51-.15-.92-.47-1.24a1.6 1.6 0 0 0-1.2-.48zm-89.61 187.1h1.32v7.05c0 .95-.3 1.7-.86 2.23a3.2 3.2 0 0 1-2.29.8c-.99 0-1.76-.25-2.31-.75a2.74 2.74 0 0 1-.83-2.13h1.32c0 .57.15 1.02.46 1.34.32.31.77.47 1.36.47.54 0 .98-.17 1.32-.5.33-.35.5-.83.5-1.44v-7.07zm7.92 9.95c-.07-.15-.13-.4-.18-.78-.59.61-1.29.92-2.1.92a2.6 2.6 0 0 1-1.8-.62 2 2 0 0 1-.7-1.57c0-.77.3-1.37.88-1.8a4.14 4.14 0 0 1 2.47-.64h1.23v-.58c0-.44-.13-.79-.4-1.05-.26-.26-.65-.4-1.17-.4-.45 0-.83.12-1.13.35-.3.23-.46.5-.46.82h-1.27c0-.36.13-.72.4-1.07a2.68 2.68 0 0 1 1.06-.81c.45-.2.94-.3 1.48-.3.85 0 1.52.21 2 .64.49.42.74 1 .75 1.76v3.4c0 .68.1 1.22.26 1.62v.11h-1.32zm-2.1-.96a2.22 2.22 0 0 0 1.13-.31 1.86 1.86 0 0 0 .77-.8v-1.52h-1c-1.54 0-2.32.45-2.32 1.36 0 .4.14.7.4.93.27.22.6.34 1.02.34zm6.34-6.44.04.93a2.7 2.7 0 0 1 2.22-1.06c1.56 0 2.35.88 2.36 2.64V416h-1.26v-4.9c0-.53-.13-.92-.37-1.18-.24-.25-.6-.38-1.11-.38-.41 0-.77.11-1.08.33-.31.22-.55.5-.73.86V416H32.3v-7.4h1.2zm11.1 6.67c-.5.58-1.22.87-2.17.87-.79 0-1.39-.23-1.8-.69-.41-.46-.62-1.14-.63-2.03v-4.82h1.27v4.78c0 1.12.46 1.68 1.37 1.68.96 0 1.6-.36 1.92-1.08v-5.38h1.27v7.4h-1.2l-.03-.73zm7.72.73c-.08-.15-.14-.4-.18-.78-.59.61-1.3.92-2.1.92a2.6 2.6 0 0 1-1.8-.62 2 2 0 0 1-.7-1.57c0-.77.29-1.37.88-1.8a4.14 4.14 0 0 1 2.47-.64h1.23v-.58c0-.44-.14-.79-.4-1.05s-.65-.4-1.17-.4c-.45 0-.83.12-1.13.35-.3.23-.46.5-.46.82h-1.27c0-.36.13-.72.4-1.07a2.68 2.68 0 0 1 1.06-.81c.45-.2.94-.3 1.48-.3.85 0 1.52.21 2 .64.48.42.73 1 .75 1.76v3.4c0 .68.09 1.22.26 1.62v.11h-1.32zm-2.1-.96c.4 0 .77-.1 1.12-.31a1.86 1.86 0 0 0 .78-.8v-1.52h-1c-1.54 0-2.32.45-2.32 1.36 0 .4.13.7.4.93.26.22.6.34 1.02.34zm8.72-5.3a3.79 3.79 0 0 0-.62-.05c-.83 0-1.4.35-1.7 1.06V416h-1.26v-7.4h1.23l.02.86a1.98 1.98 0 0 1 2.33-.9v1.18zm3.7 4.4 1.73-5.54h1.35l-2.97 8.54c-.46 1.23-1.2 1.85-2.2 1.85l-.24-.02-.47-.1v-1.02l.34.03c.43 0 .77-.09 1-.26.24-.17.44-.49.6-.95l.28-.75-2.64-7.32h1.38l1.84 5.55zm12.5-8.1v1.07h-.23c-.98.02-1.76.31-2.35.88a3.64 3.64 0 0 0-1 2.38 2.7 2.7 0 0 1 2.14-.9c.86 0 1.56.3 2.07.92.52.6.78 1.4.78 2.36a3.5 3.5 0 0 1-.84 2.46c-.56.62-1.3.93-2.24.93-.96 0-1.73-.37-2.32-1.1a4.35 4.35 0 0 1-.89-2.83v-.48c0-1.84.39-3.24 1.17-4.2.78-.97 1.95-1.47 3.5-1.49h.22zm-1.65 4.48c-.44 0-.84.13-1.2.4a2.03 2.03 0 0 0-.76.97v.47c0 .82.19 1.48.55 1.98.37.5.83.75 1.39.75a1.6 1.6 0 0 0 1.34-.63c.32-.42.49-.97.49-1.65a2.6 2.6 0 0 0-.5-1.65 1.59 1.59 0 0 0-1.31-.64zm4.64 7.46-.71-.49c.43-.6.65-1.21.67-1.84v-1.15h1.23v1c0 .45-.1.91-.33 1.37-.23.46-.51.83-.86 1.11zM90.77 416h-6.52v-.91l3.44-3.83c.51-.58.87-1.05 1.06-1.4.2-.37.3-.75.3-1.13 0-.52-.17-.95-.48-1.28-.31-.33-.73-.5-1.26-.5-.63 0-1.12.18-1.46.54-.35.35-.53.85-.53 1.49h-1.26c0-.92.3-1.66.89-2.22a3.28 3.28 0 0 1 2.36-.85c.93 0 1.66.24 2.2.73.54.48.8 1.13.8 1.94 0 .98-.62 2.14-1.87 3.5l-2.67 2.89h5V416zm7.58-4.25c0 1.49-.25 2.59-.76 3.3-.5.73-1.3 1.09-2.37 1.09-1.06 0-1.85-.35-2.36-1.06a5.5 5.5 0 0 1-.79-3.15v-1.7c0-1.46.25-2.54.76-3.25.5-.71 1.3-1.07 2.38-1.07 1.07 0 1.86.34 2.36 1.03.5.69.77 1.74.78 3.17v1.64zm-1.26-1.73c0-1.07-.15-1.85-.45-2.34-.3-.49-.78-.73-1.43-.73-.65 0-1.12.24-1.42.73a4.5 4.5 0 0 0-.46 2.25v2.02c0 1.08.16 1.87.47 2.39.32.5.79.77 1.42.77.63 0 1.09-.25 1.4-.73.3-.48.45-1.24.47-2.28v-2.07zm7.04 5.98h-1.27v-8.43l-2.55.94v-1.15l3.62-1.36h.2v10zm9.74-7.36c0 .5-.13.94-.4 1.33-.25.39-.6.7-1.06.91.52.22.93.55 1.24.98.3.43.45.91.45 1.45a2.6 2.6 0 0 1-.87 2.06c-.58.51-1.35.77-2.3.77-.95 0-1.72-.26-2.3-.77a2.61 2.61 0 0 1-.86-2.06c0-.53.15-1.02.44-1.45a2.75 2.75 0 0 1 1.22-.99 2.6 2.6 0 0 1-1.04-.9 2.34 2.34 0 0 1-.39-1.33c0-.83.27-1.5.81-2a3.1 3.1 0 0 1 2.13-.73c.87 0 1.58.25 2.12.74.54.5.81 1.16.81 2zm-1.03 4.65c0-.56-.18-1.01-.53-1.36a1.88 1.88 0 0 0-1.39-.53c-.57 0-1.02.17-1.37.52-.34.34-.51.8-.51 1.37s.16 1 .5 1.33c.34.32.8.48 1.4.48.59 0 1.06-.16 1.4-.48.33-.33.5-.77.5-1.33zm-1.9-6.34a1.59 1.59 0 0 0-1.67 1.71c0 .51.15.92.45 1.23.3.31.71.47 1.22.47.5 0 .9-.16 1.21-.47.3-.31.45-.72.45-1.22 0-.51-.15-.92-.47-1.24a1.6 1.6 0 0 0-1.2-.48z"/></g></svg>