<svg xmlns="http://www.w3.org/2000/svg" width="360" height="144"><g fill="none" fill-rule="evenodd"><path fill="#E1E2E2" d="M0 71h360v1H0z"/><path fill="#EB0001" d="M36 128a20 20 0 1 1 0-40 20 20 0 0 1 0 40z"/><path fill="#FFF" d="M36 98a10 10 0 1 0 0 20 10 10 0 0 0 0-20zm1 15h-2v-2h2v2zm0-4h-2l-.5-6h3l-.5 6z"/><path fill="#008A00" d="M36 56a20 20 0 1 1 0-40 20 20 0 0 1 0 40z"/><path fill="#FFF" fill-rule="nonzero" d="M40 32v-5a1 1 0 0 0-2 0v5h-4v-5a1 1 0 0 0-2 0v5h-3v4a7 7 0 0 0 4 6.32V46h6v-3.68A7 7 0 0 0 43 36v-4h-3z"/><path fill="#1A1A1A" d="M78.09 19.63h1.5v8.05a3.3 3.3 0 0 1-.98 2.55c-.65.62-1.52.93-2.61.93a3.76 3.76 0 0 1-2.64-.87 3.13 3.13 0 0 1-.95-2.43h1.5c0 .65.18 1.16.54 1.52.36.37.87.55 1.55.55a2 2 0 0 0 1.5-.59c.39-.39.58-.93.59-1.64v-8.07zm7.34 11.53a3.7 3.7 0 0 1-2.8-1.13A4.19 4.19 0 0 1 81.56 27v-.27c0-.84.15-1.59.47-2.24a3.75 3.75 0 0 1 1.35-1.55 3.38 3.38 0 0 1 1.87-.56c1.1 0 1.95.36 2.56 1.09.61.72.92 1.76.92 3.1v.6H83a3 3 0 0 0 .73 2.03 2.3 2.3 0 0 0 1.78.77c.5 0 .94-.1 1.3-.32.35-.2.66-.48.93-.82l.88.68a3.55 3.55 0 0 1-3.19 1.64zm-.18-7.58c-.58 0-1.07.21-1.47.64a3.1 3.1 0 0 0-.73 1.78h4.23v-.11a2.75 2.75 0 0 0-.6-1.7 1.78 1.78 0 0 0-1.43-.61zm7.11-3.08v2.05h1.58v1.11h-1.58v5.25c0 .34.07.59.21.76.14.17.38.25.72.25a3.5 3.5 0 0 0 .69-.1V31a4.19 4.19 0 0 1-1.11.16c-.65 0-1.14-.2-1.46-.59a2.5 2.5 0 0 1-.5-1.66v-5.25h-1.53v-1.11h1.54V20.5h1.44zm10.4 6.37c0 1.28-.29 2.32-.88 3.1a2.83 2.83 0 0 1-2.39 1.19 3.1 3.1 0 0 1-2.42-.98v4.07h-1.45v-11.7h1.32l.07.93a3.03 3.03 0 0 1 2.46-1.09c1.01 0 1.82.38 2.4 1.15.6.77.9 1.83.9 3.2v.13zm-1.44-.17c0-.95-.2-1.7-.61-2.25-.4-.56-.96-.83-1.67-.83-.88 0-1.53.38-1.97 1.16v4.04c.43.77 1.1 1.16 1.99 1.16.69 0 1.24-.28 1.65-.83.4-.55.61-1.36.61-2.45zm8.5 4.3a3.09 3.09 0 0 1-.2-.89 3.23 3.23 0 0 1-2.4 1.05 3 3 0 0 1-2.06-.71 2.28 2.28 0 0 1-.8-1.8c0-.87.33-1.56 1-2.04a4.73 4.73 0 0 1 2.83-.74h1.4v-.66c0-.5-.15-.9-.45-1.2-.3-.3-.75-.46-1.34-.46-.51 0-.94.13-1.3.4-.34.25-.52.57-.52.94h-1.45a2 2 0 0 1 .45-1.22c.3-.4.7-.7 1.22-.94a4.1 4.1 0 0 1 1.7-.34c.96 0 1.73.24 2.28.73s.84 1.16.86 2.01v3.9c0 .77.1 1.39.3 1.84V31h-1.52zm-2.4-1.1a2.54 2.54 0 0 0 1.3-.35c.4-.24.7-.54.87-.92V26.9h-1.13c-1.77 0-2.65.52-2.65 1.55 0 .46.14.81.45 1.07.3.25.69.38 1.16.38zm9.27.08c.52 0 .97-.16 1.36-.47.38-.32.6-.7.64-1.17h1.36a2.62 2.62 0 0 1-.5 1.38 3.3 3.3 0 0 1-1.23 1.05 3.55 3.55 0 0 1-1.63.39 3.48 3.48 0 0 1-2.74-1.16 4.59 4.59 0 0 1-1.02-3.15v-.24c0-.82.15-1.55.45-2.2a3.45 3.45 0 0 1 1.3-1.49 3.7 3.7 0 0 1 2-.53c.95 0 1.74.28 2.37.85.63.57.96 1.3 1 2.21h-1.36a2 2 0 0 0-.62-1.34 1.94 1.94 0 0 0-1.38-.53 2 2 0 0 0-1.71.8c-.4.52-.6 1.28-.6 2.28v.28c0 .97.2 1.72.6 2.25.4.52.97.79 1.72.79zm7.35-2.9-.9.95V31h-1.45V19h1.44v7.26l.78-.93 2.63-2.78h1.76l-3.3 3.53 3.68 4.92h-1.7l-2.94-3.91zm16.87-.21c0 1.29-.3 2.33-.9 3.11a2.84 2.84 0 0 1-2.38 1.18c-1.07 0-1.9-.38-2.48-1.14l-.07.98h-1.33V19h1.45v4.48a2.93 2.93 0 0 1 2.4-1.09c1.03 0 1.84.39 2.43 1.17.58.77.88 1.83.88 3.18v.13zm-1.45-.17a3.9 3.9 0 0 0-.57-2.28c-.38-.54-.93-.8-1.64-.8-.95 0-1.64.44-2.06 1.32v3.66c.45.89 1.14 1.33 2.07 1.33.7 0 1.24-.27 1.62-.8.39-.54.58-1.35.58-2.43zm5.95 2.18 1.96-6.33h1.55l-3.4 9.75c-.52 1.41-1.36 2.11-2.5 2.11l-.28-.02-.54-.1v-1.17l.4.03c.48 0 .86-.1 1.14-.3.27-.2.5-.56.67-1.08l.32-.86-3.01-8.36h1.58l2.1 6.33zm11.44-1.47.22 1.5.32-1.35 2.25-7.94h1.27l2.2 7.94.3 1.38.25-1.53 1.76-7.79h1.51L164.17 31h-1.36l-2.35-8.29-.18-.87-.18.87-2.43 8.29h-1.36l-2.76-11.38h1.5l1.8 7.8zm10.9-.72a5 5 0 0 1 .48-2.23 3.65 3.65 0 0 1 3.35-2.07c1.15 0 2.08.4 2.8 1.2a4.6 4.6 0 0 1 1.06 3.18v.1c0 .82-.16 1.56-.48 2.21a3.59 3.59 0 0 1-1.35 1.53c-.58.36-1.26.55-2.02.55-1.14 0-2.07-.4-2.78-1.2a4.58 4.58 0 0 1-1.07-3.16v-.1zm1.44.18c0 .93.22 1.69.66 2.25.43.57 1.01.86 1.74.86.74 0 1.32-.3 1.75-.87a3.9 3.9 0 0 0 .65-2.42c0-.92-.22-1.67-.66-2.25a2.1 2.1 0 0 0-1.75-.86c-.72 0-1.3.28-1.73.85a3.92 3.92 0 0 0-.66 2.44zm12.14-3.03a4.33 4.33 0 0 0-.7-.05c-.95 0-1.6.4-1.94 1.21v6h-1.44v-8.45h1.4l.03.97a2.25 2.25 0 0 1 2.01-1.13c.29 0 .5.04.64.11v1.34zm.83 2.86c0-1.3.31-2.34.92-3.13a2.92 2.92 0 0 1 2.42-1.18c.99 0 1.77.34 2.35 1.02V19h1.45v12h-1.33l-.07-.9a2.95 2.95 0 0 1-2.42 1.06c-.98 0-1.77-.4-2.39-1.2a5 5 0 0 1-.93-3.15v-.1zm1.45.17c0 .96.2 1.7.6 2.25.39.54.94.81 1.63.81a2.1 2.1 0 0 0 2.01-1.24v-3.88c-.43-.8-1.1-1.2-2-1.2-.7 0-1.25.28-1.65.83-.4.54-.6 1.35-.6 2.43zm9.66-.32V31h-1.5V19.62h4.2a4.2 4.2 0 0 1 2.92.96c.7.63 1.05 1.48 1.05 2.52 0 1.1-.34 1.96-1.03 2.55-.69.6-1.68.9-2.97.9h-2.68zm0-1.23h2.7c.8 0 1.4-.19 1.83-.57.43-.37.64-.92.64-1.63 0-.68-.2-1.22-.64-1.63a2.53 2.53 0 0 0-1.75-.63h-2.78v4.46zm12.45-1.48a4.33 4.33 0 0 0-.71-.05c-.95 0-1.6.4-1.93 1.21v6h-1.45v-8.45h1.4l.03.97a2.25 2.25 0 0 1 2.02-1.13c.28 0 .5.04.64.11v1.34zm4.69 7.32a3.7 3.7 0 0 1-2.8-1.13 4.2 4.2 0 0 1-1.08-3.02v-.27c0-.84.16-1.59.48-2.24a3.75 3.75 0 0 1 1.35-1.55 3.38 3.38 0 0 1 1.87-.56c1.1 0 1.95.36 2.56 1.09.6.72.91 1.76.91 3.1v.6h-5.72a3 3 0 0 0 .73 2.03 2.3 2.3 0 0 0 1.77.77c.51 0 .95-.1 1.3-.32.35-.2.66-.48.93-.82l.88.68a3.55 3.55 0 0 1-3.18 1.64zm-.18-7.58c-.59 0-1.08.21-1.47.63a3.1 3.1 0 0 0-.74 1.79h4.24v-.11a2.75 2.75 0 0 0-.6-1.7 1.78 1.78 0 0 0-1.43-.61zm10.07 5.18c0-.4-.15-.7-.44-.91a4.3 4.3 0 0 0-1.54-.56 7.32 7.32 0 0 1-1.75-.56 2.5 2.5 0 0 1-.95-.79c-.2-.3-.3-.66-.3-1.07 0-.7.29-1.28.87-1.76a3.43 3.43 0 0 1 2.25-.72c.96 0 1.73.25 2.33.74.6.5.9 1.13.9 1.9h-1.46c0-.4-.17-.74-.5-1.02a1.89 1.89 0 0 0-1.27-.43c-.53 0-.94.11-1.24.34a1.08 1.08 0 0 0-.44.9c0 .35.14.61.41.79.28.18.78.35 1.5.5.72.17 1.3.36 1.75.58.45.23.78.5 1 .81.21.32.32.7.32 1.16 0 .75-.3 1.36-.9 1.81a3.8 3.8 0 0 1-2.36.69c-.67 0-1.27-.12-1.8-.36a2.92 2.92 0 0 1-1.21-1 2.42 2.42 0 0 1-.45-1.4h1.45c.02.48.22.87.58 1.15.36.28.84.43 1.43.43.55 0 .99-.11 1.32-.34.33-.22.5-.51.5-.88zm8.25 0c0-.4-.15-.7-.44-.91a4.3 4.3 0 0 0-1.54-.56 7.32 7.32 0 0 1-1.75-.56 2.5 2.5 0 0 1-.95-.79c-.2-.3-.3-.66-.3-1.07 0-.7.29-1.28.87-1.76a3.43 3.43 0 0 1 2.25-.72c.96 0 1.73.25 2.33.74.6.5.9 1.13.9 1.9h-1.46c0-.4-.17-.74-.5-1.02a1.89 1.89 0 0 0-1.27-.43c-.53 0-.94.11-1.24.34a1.08 1.08 0 0 0-.44.9c0 .35.14.61.41.79.28.18.78.35 1.5.5.72.17 1.3.36 1.75.58.45.23.78.5 1 .81.21.32.32.7.32 1.16 0 .75-.3 1.36-.9 1.81a3.8 3.8 0 0 1-2.36.69c-.67 0-1.27-.12-1.8-.36a2.92 2.92 0 0 1-1.21-1 2.42 2.42 0 0 1-.45-1.4h1.45c.02.48.22.87.58 1.15.36.28.84.43 1.43.43.55 0 .99-.11 1.32-.34.33-.22.5-.51.5-.88zm3.36 1.48a.9.9 0 0 1 .22-.62c.15-.17.37-.25.67-.25.3 0 .52.08.67.25a.89.89 0 0 1 .23.62.8.8 0 0 1-.23.6.89.89 0 0 1-.67.25c-.3 0-.52-.08-.67-.25a.85.85 0 0 1-.22-.6zm7.57-.26a2.08 2.08 0 0 0 1.35-.47c.38-.32.6-.7.64-1.17h1.37a2.62 2.62 0 0 1-.5 1.38 3.3 3.3 0 0 1-1.23 1.05 3.55 3.55 0 0 1-1.63.39 3.48 3.48 0 0 1-2.75-1.16 4.59 4.59 0 0 1-1.02-3.15v-.24c0-.82.15-1.56.45-2.2a3.45 3.45 0 0 1 1.3-1.49 3.7 3.7 0 0 1 2-.53c.96 0 1.74.28 2.37.85.63.57.96 1.3 1 2.21h-1.36a2 2 0 0 0-.62-1.35 1.94 1.94 0 0 0-1.38-.52c-.74 0-1.3.26-1.7.8-.41.52-.61 1.28-.61 2.28v.28c0 .97.2 1.72.6 2.25.4.52.97.79 1.72.79zm4.6-3.29a5 5 0 0 1 .49-2.23 3.64 3.64 0 0 1 3.34-2.07c1.16 0 2.09.4 2.8 1.2a4.6 4.6 0 0 1 1.06 3.18v.1c0 .82-.15 1.56-.47 2.21a3.59 3.59 0 0 1-1.35 1.53 3.8 3.8 0 0 1-2.02.55c-1.15 0-2.08-.4-2.79-1.2a4.58 4.58 0 0 1-1.06-3.16v-.1zm1.45.18c0 .93.22 1.69.65 2.25.44.57 1.02.86 1.75.86s1.32-.3 1.75-.87c.43-.57.65-1.38.65-2.42 0-.92-.22-1.67-.66-2.25a2.1 2.1 0 0 0-1.76-.86c-.7 0-1.28.28-1.72.85a3.92 3.92 0 0 0-.66 2.44zm9.42-4.32.04.93a3.12 3.12 0 0 1 2.5-1.09c1.18 0 1.99.45 2.42 1.36a3.2 3.2 0 0 1 1.1-.98c.44-.25.98-.38 1.6-.38 1.85 0 2.79.98 2.82 2.95V31h-1.45v-5.58c0-.6-.13-1.05-.41-1.35-.28-.3-.74-.45-1.39-.45-.54 0-.98.16-1.34.48-.35.32-.56.75-.61 1.3V31h-1.46v-5.54c0-1.23-.6-1.84-1.8-1.84-.95 0-1.6.4-1.95 1.2V31h-1.44v-8.45h1.36zm23.13 5.48h-4.77L272.24 31h-1.55l4.35-11.38h1.31L280.7 31h-1.54l-1.08-2.97zm-4.31-1.23h3.86l-1.94-5.32-1.93 5.32zm13.37 3.36c-.56.67-1.39 1-2.48 1-.9 0-1.58-.27-2.06-.79-.47-.52-.7-1.3-.7-2.32v-5.5h1.44V28c0 1.28.52 1.92 1.56 1.92 1.1 0 1.84-.41 2.2-1.24v-6.14h1.45V31h-1.38l-.03-.84zm5.56-9.66v2.05h1.58v1.11h-1.58v5.25c0 .34.07.59.21.76.14.17.38.25.72.25a3.5 3.5 0 0 0 .69-.1V31a4.19 4.19 0 0 1-1.11.16c-.65 0-1.13-.2-1.46-.59a2.5 2.5 0 0 1-.5-1.66v-5.25h-1.53v-1.11h1.54V20.5h1.44zm2.73 6.2c0-.83.16-1.58.49-2.24a3.63 3.63 0 0 1 3.35-2.07c1.15 0 2.08.4 2.79 1.2a4.6 4.6 0 0 1 1.06 3.18v.1c0 .82-.15 1.56-.47 2.21a3.59 3.59 0 0 1-1.35 1.53 3.8 3.8 0 0 1-2.02.55c-1.15 0-2.07-.4-2.78-1.2a4.58 4.58 0 0 1-1.07-3.16v-.1zm1.45.17c0 .93.22 1.69.65 2.25a2.1 2.1 0 0 0 1.75.86c.74 0 1.32-.3 1.75-.87.43-.57.65-1.38.65-2.42 0-.92-.22-1.67-.66-2.25a2.1 2.1 0 0 0-1.75-.86c-.72 0-1.3.28-1.73.85a3.93 3.93 0 0 0-.66 2.44zm13.28 3.3c-.57.66-1.4.99-2.48.99-.9 0-1.59-.26-2.06-.79-.47-.52-.7-1.3-.71-2.32v-5.5h1.44V28c0 1.28.52 1.92 1.56 1.92 1.1 0 1.84-.41 2.2-1.23v-6.15h1.45V31h-1.37l-.03-.84zm10.74-3.3c0 1.28-.3 2.32-.88 3.1a2.83 2.83 0 0 1-2.4 1.19 3.1 3.1 0 0 1-2.42-.98v4.07h-1.44v-11.7h1.32l.07.93a3 3 0 0 1 2.45-1.09c1.02 0 1.82.38 2.41 1.15.6.77.89 1.83.89 3.2v.13zm-1.45-.17c0-.95-.2-1.7-.6-2.25a1.96 1.96 0 0 0-1.68-.83c-.87 0-1.53.38-1.97 1.16v4.04c.43.77 1.1 1.16 1.99 1.16.69 0 1.24-.28 1.65-.83.4-.55.61-1.36.61-2.45zm2.93 0c0-1.3.31-2.34.92-3.13a2.91 2.91 0 0 1 2.42-1.18c.99 0 1.77.34 2.35 1.02V19h1.45v12h-1.33l-.07-.9a2.94 2.94 0 0 1-2.42 1.06c-.98 0-1.77-.4-2.4-1.2a5 5 0 0 1-.92-3.15v-.1zm1.45.17c0 .96.2 1.7.6 2.25.39.54.93.81 1.63.81a2.1 2.1 0 0 0 2.01-1.24v-3.88c-.43-.8-1.1-1.2-2-1.2-.7 0-1.25.28-1.65.83-.4.54-.6 1.35-.6 2.43zm7.99 3.37a.9.9 0 0 1 .22-.62c.15-.17.37-.25.67-.25.3 0 .52.08.68.25a.89.89 0 0 1 .23.62c0 .24-.08.44-.23.6-.16.17-.38.25-.68.25-.3 0-.52-.08-.67-.25a.85.85 0 0 1-.22-.6zm3.41 0a.9.9 0 0 1 .23-.62c.15-.17.37-.25.67-.25.3 0 .52.08.67.25a.89.89 0 0 1 .23.62c0 .24-.08.44-.23.6-.15.17-.38.25-.68.25-.3 0-.52-.08-.66-.25a.85.85 0 0 1-.23-.6zm3.25 0a.9.9 0 0 1 .22-.62c.15-.17.37-.25.67-.25.3 0 .52.08.67.25.16.16.23.37.23.62a.8.8 0 0 1-.23.6c-.15.17-.38.25-.67.25-.3 0-.52-.08-.67-.25a.85.85 0 0 1-.22-.6zM74.93 103h-1.5V91.62h1.5V103zm4.24-4.45V103h-1.5V91.62h4.2c1.24 0 2.22.32 2.92.96.7.63 1.06 1.48 1.06 2.52 0 1.1-.34 1.96-1.03 2.55-.7.6-1.68.9-2.97.9h-2.68zm0-1.23h2.7c.8 0 1.41-.19 1.84-.57.43-.37.64-.92.64-1.63 0-.68-.21-1.22-.64-1.63a2.53 2.53 0 0 0-1.76-.63h-2.78v4.46zm18.84 2.71h-4.77L92.17 103h-1.55l4.35-11.38h1.31l4.35 11.38H99.1l-1.08-2.97zM93.7 98.8h3.86l-1.93-5.32-1.93 5.32zm7.89-.1c0-1.3.3-2.34.92-3.13a2.92 2.92 0 0 1 2.41-1.18c1 0 1.78.34 2.35 1.02V91h1.45v12h-1.33l-.07-.9a2.95 2.95 0 0 1-2.41 1.06 2.9 2.9 0 0 1-2.4-1.2 5 5 0 0 1-.92-3.15v-.1zm1.44.17c0 .96.2 1.7.6 2.25.4.54.94.81 1.64.81a2.1 2.1 0 0 0 2-1.24v-3.88c-.43-.8-1.1-1.2-1.99-1.2-.7 0-1.26.28-1.66.83-.4.54-.59 1.35-.59 2.43zm7.58-.17c0-1.3.3-2.34.92-3.13a2.92 2.92 0 0 1 2.42-1.18c.99 0 1.77.34 2.35 1.02V91h1.44v12h-1.33l-.07-.9a2.94 2.94 0 0 1-2.41 1.06 2.9 2.9 0 0 1-2.4-1.2 5 5 0 0 1-.92-3.15v-.1zm1.45.17c0 .96.2 1.7.59 2.25.4.54.94.81 1.64.81a2.1 2.1 0 0 0 2-1.24v-3.88a2.1 2.1 0 0 0-1.98-1.2c-.71 0-1.26.28-1.66.83-.4.54-.6 1.35-.6 2.43zm12.01-3.03a4.33 4.33 0 0 0-.71-.05c-.95 0-1.6.4-1.93 1.21v6h-1.45v-8.45h1.41l.02.97a2.25 2.25 0 0 1 2.02-1.13c.28 0 .5.04.64.11v1.34zm4.69 7.32a3.7 3.7 0 0 1-2.8-1.13 4.19 4.19 0 0 1-1.08-3.02v-.27c0-.84.16-1.58.48-2.24a3.75 3.75 0 0 1 1.35-1.55 3.38 3.38 0 0 1 1.87-.56c1.1 0 1.95.36 2.56 1.09.61.72.92 1.76.92 3.1v.6h-5.73a3 3 0 0 0 .73 2.03 2.3 2.3 0 0 0 1.78.77c.5 0 .94-.1 1.3-.32.35-.2.66-.48.92-.82l.88.68a3.55 3.55 0 0 1-3.18 1.64zm-.18-7.58a1.9 1.9 0 0 0-1.47.64 3.1 3.1 0 0 0-.73 1.78h4.23v-.11a2.75 2.75 0 0 0-.6-1.7 1.78 1.78 0 0 0-1.43-.61zm10.07 5.18c0-.4-.15-.7-.44-.91a4.3 4.3 0 0 0-1.54-.56 7.29 7.29 0 0 1-1.74-.56 2.48 2.48 0 0 1-.96-.78 2.2 2.2 0 0 1 .57-2.84 3.43 3.43 0 0 1 2.25-.72c.96 0 1.74.25 2.33.74.6.5.9 1.13.9 1.9h-1.46c0-.4-.16-.74-.5-1.02a1.89 1.89 0 0 0-1.27-.43c-.53 0-.94.11-1.23.34a1.08 1.08 0 0 0-.45.9c0 .35.14.61.41.79.28.18.78.35 1.5.5.72.17 1.3.36 1.75.59.45.22.78.49 1 .8.22.32.32.7.32 1.16 0 .75-.3 1.36-.9 1.81-.6.46-1.4.69-2.35.69-.68 0-1.28-.12-1.8-.36a2.92 2.92 0 0 1-1.22-1 2.42 2.42 0 0 1-.44-1.4h1.44c.03.48.22.87.58 1.15.36.29.84.43 1.44.43.54 0 .98-.11 1.31-.33.33-.23.5-.52.5-.9zm8.25 0c0-.4-.15-.7-.44-.91a4.3 4.3 0 0 0-1.54-.56 7.29 7.29 0 0 1-1.74-.56 2.48 2.48 0 0 1-.96-.78 2.2 2.2 0 0 1 .57-2.84 3.43 3.43 0 0 1 2.25-.72c.96 0 1.74.25 2.33.74.6.5.9 1.13.9 1.9h-1.46c0-.4-.16-.74-.5-1.02a1.89 1.89 0 0 0-1.27-.43c-.53 0-.94.11-1.23.34a1.08 1.08 0 0 0-.45.9c0 .35.14.61.41.79.28.18.78.35 1.5.5.72.17 1.3.36 1.75.59.45.22.78.49 1 .8.22.32.32.7.32 1.16 0 .75-.3 1.36-.9 1.81-.6.46-1.4.69-2.35.69-.68 0-1.28-.12-1.8-.36a2.92 2.92 0 0 1-1.22-1 2.42 2.42 0 0 1-.44-1.4h1.44c.03.48.22.87.58 1.15.36.29.84.43 1.44.43.54 0 .98-.11 1.31-.33.33-.23.5-.52.5-.9zm3.28 1.48a.9.9 0 0 1 .22-.62c.15-.17.37-.25.67-.25.3 0 .52.08.68.25.15.16.23.37.23.62 0 .24-.08.44-.23.6-.16.17-.38.25-.68.25-.3 0-.52-.08-.67-.25a.85.85 0 0 1-.22-.6zm0-6.9a.9.9 0 0 1 .23-.62c.15-.17.37-.25.67-.25.3 0 .52.08.67.25.16.17.23.37.23.62a.8.8 0 0 1-.23.6c-.15.17-.37.25-.67.25-.3 0-.52-.08-.67-.24a.85.85 0 0 1-.22-.6zm12.48 7.66h-1.45v-9.63l-2.91 1.07v-1.32l4.14-1.55h.22V103zm11.37-4.85c0 1.7-.29 2.95-.87 3.77-.57.82-1.48 1.24-2.7 1.24-1.22 0-2.12-.4-2.7-1.21-.59-.8-.89-2-.9-3.6V96.4c0-1.67.28-2.91.86-3.72.58-.82 1.48-1.22 2.72-1.22 1.22 0 2.12.4 2.7 1.17.58.79.88 2 .9 3.63v1.88zm-1.44-1.98a5.3 5.3 0 0 0-.52-2.67c-.34-.56-.89-.84-1.63-.84-.74 0-1.28.27-1.62.83a5.17 5.17 0 0 0-.52 2.57v2.31c0 1.23.18 2.14.53 2.73.36.58.9.88 1.62.88.72 0 1.25-.28 1.6-.83a5.2 5.2 0 0 0 .54-2.61v-2.37zm8.04 6.83h-1.45v-9.63l-2.91 1.07v-1.32l4.14-1.55h.22V103zm4.42-.76a.9.9 0 0 1 .22-.62c.15-.17.37-.25.67-.25.3 0 .52.08.67.25.16.16.23.37.23.62a.8.8 0 0 1-.23.6c-.15.17-.38.25-.67.25-.3 0-.52-.08-.67-.25a.85.85 0 0 1-.22-.6zm8.78.76h-1.45v-9.63l-2.92 1.07v-1.32l4.14-1.55h.23V103zm11.37-4.85c0 1.7-.3 2.95-.87 3.77-.58.82-1.48 1.24-2.71 1.24-1.22 0-2.11-.4-2.7-1.21-.58-.8-.88-2-.9-3.6V96.4c0-1.67.29-2.91.86-3.72.58-.82 1.49-1.22 2.72-1.22 1.23 0 2.13.4 2.7 1.17.58.79.88 2 .9 3.63v1.88zm-1.45-1.98a5.3 5.3 0 0 0-.52-2.67c-.34-.56-.88-.84-1.63-.84-.74 0-1.28.27-1.62.83a5.17 5.17 0 0 0-.52 2.57v2.31c0 1.23.18 2.14.54 2.73.35.58.9.88 1.62.88.71 0 1.24-.28 1.59-.83a5.2 5.2 0 0 0 .54-2.61v-2.37zM214.5 103h-7.45v-1.04l3.93-4.37c.59-.67.99-1.2 1.21-1.62.22-.41.33-.84.33-1.28 0-.6-.18-1.08-.54-1.46a1.88 1.88 0 0 0-1.43-.57c-.72 0-1.28.2-1.68.61-.4.4-.6.98-.6 1.7h-1.44c0-1.04.33-1.89 1.01-2.53a3.75 3.75 0 0 1 2.7-.97c1.06 0 1.9.28 2.52.83.6.55.92 1.3.92 2.22 0 1.12-.72 2.45-2.14 4l-3.05 3.3h5.71V103zm1.71-.76a.9.9 0 0 1 .22-.62c.15-.17.37-.25.67-.25.3 0 .52.08.68.25.15.16.23.37.23.62 0 .24-.08.44-.23.6-.16.17-.38.25-.68.25-.3 0-.52-.08-.67-.25a.85.85 0 0 1-.22-.6zm8.78.76h-1.45v-9.63l-2.91 1.07v-1.32l4.14-1.55h.22V103zm11.37-4.85c0 1.7-.29 2.95-.87 3.77-.58.82-1.48 1.24-2.7 1.24-1.22 0-2.12-.4-2.7-1.21-.59-.8-.89-2-.91-3.6V96.4c0-1.67.29-2.91.87-3.72.57-.82 1.48-1.22 2.72-1.22 1.22 0 2.12.4 2.7 1.17.58.79.87 2 .89 3.63v1.88zm-1.45-1.98a5.3 5.3 0 0 0-.51-2.67c-.34-.56-.89-.84-1.63-.84-.74 0-1.28.27-1.62.83a5.17 5.17 0 0 0-.52 2.57v2.31c0 1.23.17 2.14.53 2.73.36.58.9.88 1.62.88.72 0 1.25-.28 1.6-.83a5.2 5.2 0 0 0 .53-2.61v-2.37zm5.4.44h1.09a2.38 2.38 0 0 0 1.6-.54c.4-.35.6-.82.6-1.41 0-1.34-.67-2-2-2-.62 0-1.12.17-1.5.53-.37.36-.55.83-.55 1.42h-1.45c0-.9.33-1.65.99-2.25.66-.6 1.5-.9 2.51-.9 1.07 0 1.92.3 2.53.86.6.57.9 1.36.9 2.37 0 .5-.15.97-.47 1.43a2.9 2.9 0 0 1-1.31 1.04c.63.2 1.1.53 1.45.99.34.46.51 1.02.51 1.68a3.1 3.1 0 0 1-1 2.43c-.67.6-1.53.9-2.6.9a3.84 3.84 0 0 1-2.6-.87A2.85 2.85 0 0 1 238 100h1.45c0 .6.2 1.08.59 1.44.39.36.91.54 1.57.54.7 0 1.23-.19 1.6-.55.37-.36.56-.89.56-1.57 0-.66-.2-1.17-.61-1.52-.41-.36-1-.54-1.76-.55h-1.09V96.6zm7.07 5.63a.9.9 0 0 1 .22-.62c.15-.17.37-.25.67-.25.3 0 .52.08.67.25.16.16.23.37.23.62a.8.8 0 0 1-.23.6.89.89 0 0 1-.67.25c-.3 0-.52-.08-.67-.25a.85.85 0 0 1-.22-.6zm8.78.76h-1.46v-9.63l-2.91 1.07v-1.32l4.14-1.55h.23V103zm11.36-4.85c0 1.7-.29 2.95-.86 3.77-.58.82-1.49 1.24-2.71 1.24s-2.12-.4-2.7-1.21c-.58-.8-.89-2-.9-3.6V96.4c0-1.67.28-2.91.86-3.72.58-.82 1.49-1.22 2.72-1.22 1.22 0 2.13.4 2.7 1.17.58.79.88 2 .9 3.63v1.88zm-1.44-1.98a5.3 5.3 0 0 0-.52-2.67c-.34-.56-.89-.84-1.63-.84-.74 0-1.28.27-1.62.83a5.17 5.17 0 0 0-.52 2.57v2.31c0 1.23.18 2.14.53 2.73.36.58.9.88 1.63.88.7 0 1.24-.28 1.59-.83a5.3 5.3 0 0 0 .54-2.61v-2.37zm9.4 3.01h1.58v1.18h-1.58V103h-1.46v-2.64h-5.18v-.85l5.1-7.89h1.54v7.56zm-5 0h3.54V93.6l-.17.31-3.37 5.27z"/><path fill="#636D75" d="M74.47 47.1V51h-1.31v-9.95h3.67c1.09 0 1.94.27 2.56.83.61.56.92 1.3.92 2.2 0 .98-.3 1.72-.9 2.24-.6.52-1.47.78-2.6.78h-2.34zm0-1.07h2.36c.7 0 1.24-.17 1.6-.5.38-.32.57-.8.57-1.43 0-.59-.19-1.06-.56-1.42a2.21 2.21 0 0 0-1.54-.55h-2.43v3.9zm8.7 4.97H81.9V40.5h1.26V51zm6.58-.73c-.49.58-1.21.87-2.16.87-.8 0-1.4-.23-1.8-.69-.42-.46-.63-1.14-.63-2.03V43.6h1.26v4.78c0 1.12.46 1.68 1.37 1.68.97 0 1.61-.36 1.93-1.08V43.6h1.26V51h-1.2l-.03-.73zm2.85-3.03c0-1.15.27-2.07.8-2.75a2.56 2.56 0 0 1 2.12-1.02c.9 0 1.6.32 2.12.95l.06-.82h1.15v7.22A3 3 0 0 1 98 53.1c-.57.55-1.33.82-2.29.82a3.8 3.8 0 0 1-1.56-.34 2.7 2.7 0 0 1-1.17-.94l.66-.76c.54.68 1.2 1.01 1.98 1.01.62 0 1.1-.17 1.44-.52.35-.35.52-.83.52-1.46v-.64c-.5.59-1.2.88-2.07.88a2.5 2.5 0 0 1-2.1-1.05c-.54-.7-.8-1.65-.8-2.85zm1.28.14c0 .84.17 1.5.5 1.97.35.47.83.71 1.44.71.8 0 1.39-.36 1.76-1.08V45.6a1.87 1.87 0 0 0-1.74-1.06c-.62 0-1.1.24-1.44.72a3.6 3.6 0 0 0-.52 2.12zm8.25 3.62h-1.26v-7.4h1.26V51zm-1.36-9.36c0-.2.06-.38.18-.52.13-.14.31-.21.56-.21.25 0 .43.07.56.21a.75.75 0 0 1 .2.52.72.72 0 0 1-.2.51c-.13.14-.31.2-.56.2-.25 0-.43-.06-.56-.2a.73.73 0 0 1-.18-.5zm4.58 1.96.04.93a2.7 2.7 0 0 1 2.22-1.06c1.56 0 2.35.88 2.36 2.64V51h-1.26v-4.9c0-.53-.13-.92-.37-1.18-.24-.25-.6-.38-1.11-.38-.41 0-.77.11-1.08.33a2.23 2.23 0 0 0-.73.86V51h-1.26v-7.4h1.2zm15.7 4.8h-4.18l-.94 2.6h-1.35l3.8-9.95h1.15l3.8 9.95H122l-.95-2.6zm-3.78-1.08h3.38l-1.7-4.65-1.68 4.65zm11.7 2.95c-.5.58-1.21.87-2.17.87-.78 0-1.39-.23-1.8-.69-.41-.46-.62-1.14-.62-2.03V43.6h1.26v4.78c0 1.12.46 1.68 1.37 1.68.96 0 1.6-.36 1.93-1.08V43.6h1.26V51H129l-.03-.73zm4.87-8.46v1.8h1.38v.97h-1.38v4.59c0 .3.06.52.18.66.13.15.33.23.63.23.15 0 .35-.03.6-.09V51a3.67 3.67 0 0 1-.97.14c-.56 0-.99-.17-1.28-.52a2.2 2.2 0 0 1-.43-1.45v-4.59h-1.34v-.98h1.34v-1.79h1.27zm2.38 5.42c0-.72.15-1.37.43-1.95a3.19 3.19 0 0 1 1.2-1.34c.5-.32 1.08-.47 1.73-.47 1 0 1.82.35 2.44 1.04.63.7.94 1.63.94 2.79v.08a4.4 4.4 0 0 1-.42 1.94 3.14 3.14 0 0 1-1.18 1.34c-.51.32-1.1.48-1.77.48-1 0-1.81-.35-2.43-1.05a4 4 0 0 1-.94-2.77v-.09zm1.27.15c0 .82.2 1.48.57 1.98.39.5.9.74 1.53.74a1.8 1.8 0 0 0 1.53-.75c.38-.5.57-1.21.57-2.12 0-.8-.19-1.46-.58-1.97-.38-.5-.9-.75-1.53-.75a1.8 1.8 0 0 0-1.51.74c-.38.5-.57 1.2-.57 2.13zm11.62 2.89c-.5.58-1.22.87-2.17.87-.79 0-1.39-.23-1.8-.69-.41-.46-.62-1.14-.62-2.03V43.6h1.26v4.78c0 1.12.46 1.68 1.37 1.68.96 0 1.6-.36 1.92-1.08V43.6h1.27V51h-1.2l-.03-.73zm9.4-2.89c0 1.13-.26 2.04-.77 2.72a2.47 2.47 0 0 1-2.1 1.04c-.9 0-1.6-.29-2.12-.86v3.56h-1.26V43.6h1.16l.06.82a2.6 2.6 0 0 1 2.14-.95c.9 0 1.6.33 2.11 1 .52.67.78 1.6.78 2.8v.11zm-1.27-.14c0-.83-.17-1.5-.53-1.97a1.72 1.72 0 0 0-1.46-.73c-.77 0-1.34.34-1.72 1.02v3.53c.37.68.95 1.01 1.73 1.01.6 0 1.09-.24 1.45-.72.35-.48.53-1.2.53-2.14zm2.57 0c0-1.13.27-2.05.8-2.74a2.55 2.55 0 0 1 2.12-1.03c.86 0 1.55.3 2.05.89V40.5h1.27V51h-1.16l-.07-.8c-.5.63-1.2.94-2.1.94-.86 0-1.56-.35-2.1-1.06a4.38 4.38 0 0 1-.81-2.74v-.1zm1.26.14c0 .84.18 1.5.52 1.97.35.48.83.71 1.44.71.8 0 1.39-.36 1.75-1.08v-3.4a1.86 1.86 0 0 0-1.74-1.04c-.62 0-1.1.24-1.45.72a3.61 3.61 0 0 0-.52 2.12zm11.5 3.62c-.07-.15-.12-.4-.17-.78-.59.61-1.3.92-2.1.92a2.6 2.6 0 0 1-1.8-.62 2 2 0 0 1-.7-1.57c0-.77.3-1.37.88-1.8a4.14 4.14 0 0 1 2.47-.63h1.23v-.59c0-.44-.13-.79-.4-1.05-.26-.26-.65-.4-1.17-.4-.45 0-.83.12-1.13.35-.3.22-.46.5-.46.82h-1.27c0-.37.13-.72.4-1.07a2.68 2.68 0 0 1 1.06-.81c.45-.2.94-.3 1.48-.3.85 0 1.52.21 2 .64.49.42.74 1 .75 1.76v3.4c0 .68.09 1.22.26 1.62V51h-1.32zm-2.1-.96a2.22 2.22 0 0 0 1.14-.31 1.86 1.86 0 0 0 .77-.8V47.4h-1c-1.54 0-2.32.45-2.32 1.36 0 .4.14.7.4.93.26.22.6.33 1.02.33zm6.87-8.23v1.8h1.38v.97h-1.38v4.59c0 .3.06.52.19.66.12.15.33.23.63.23.14 0 .34-.03.6-.09V51a3.67 3.67 0 0 1-.97.14c-.57 0-1-.17-1.28-.52a2.2 2.2 0 0 1-.43-1.45v-4.59h-1.35v-.98h1.35v-1.79h1.26zm5.93 9.33c-1 0-1.82-.33-2.45-1a3.67 3.67 0 0 1-.94-2.63v-.24c0-.73.14-1.38.42-1.96a3.28 3.28 0 0 1 1.17-1.35 2.96 2.96 0 0 1 1.64-.5c.96 0 1.71.32 2.24.96.54.63.8 1.54.8 2.72v.52h-5c.01.73.22 1.32.63 1.77a2 2 0 0 0 1.56.67c.44 0 .82-.09 1.13-.27.31-.18.58-.42.81-.72l.78.6a3.1 3.1 0 0 1-2.8 1.43zm-.16-6.63c-.5 0-.94.18-1.28.55-.35.37-.56.9-.65 1.57h3.7v-.1a2.41 2.41 0 0 0-.51-1.5 1.59 1.59 0 0 0-1.26-.52zm4.2 2.73c0-1.14.27-2.05.8-2.74a2.55 2.55 0 0 1 2.12-1.03c.86 0 1.55.3 2.06.89V40.5h1.26V51h-1.16l-.06-.8c-.51.63-1.21.94-2.12.94-.85 0-1.55-.35-2.1-1.06a4.38 4.38 0 0 1-.8-2.74v-.1zm1.26.14c0 .84.18 1.5.52 1.97.35.48.83.71 1.44.71.8 0 1.39-.36 1.76-1.08v-3.4a1.86 1.86 0 0 0-1.75-1.04c-.62 0-1.1.24-1.45.72a3.61 3.61 0 0 0-.52 2.12zm-114.1 74.55h4.72V123h-6.04v-9.95h1.32v8.88zm5.68-2.7c0-.72.15-1.37.43-1.95a3.19 3.19 0 0 1 1.2-1.34c.5-.32 1.08-.47 1.73-.47 1 0 1.82.34 2.45 1.04.62.7.93 1.63.93 2.79v.08a4.4 4.4 0 0 1-.42 1.94 3.14 3.14 0 0 1-1.18 1.34c-.51.32-1.1.48-1.77.48-1 0-1.81-.35-2.43-1.05a4 4 0 0 1-.94-2.77v-.09zm1.28.15c0 .82.19 1.48.57 1.98.38.5.89.74 1.52.74.65 0 1.16-.25 1.54-.75.37-.5.56-1.21.56-2.12 0-.8-.19-1.46-.57-1.97-.39-.5-.9-.75-1.54-.75-.62 0-1.13.24-1.5.74s-.58 1.2-.58 2.13zm6.74-.14c0-1.15.27-2.07.8-2.75a2.56 2.56 0 0 1 2.12-1.02c.9 0 1.6.32 2.12.95l.06-.82h1.15v7.22c0 .96-.28 1.71-.85 2.27-.57.55-1.33.82-2.29.82a3.8 3.8 0 0 1-1.56-.34 2.7 2.7 0 0 1-1.17-.94l.66-.75c.54.67 1.2 1 1.99 1a1.9 1.9 0 0 0 1.43-.52c.35-.35.52-.83.52-1.46v-.64c-.5.58-1.2.88-2.07.88a2.5 2.5 0 0 1-2.1-1.05c-.54-.7-.8-1.65-.8-2.85zm1.28.14c0 .84.17 1.5.5 1.97.35.48.83.71 1.44.71.8 0 1.39-.36 1.76-1.08v-3.38a1.87 1.87 0 0 0-1.74-1.06c-.62 0-1.1.24-1.44.72a3.6 3.6 0 0 0-.52 2.12zM97.7 123h-1.26v-7.4h1.26v7.4zm-1.36-9.36c0-.2.06-.38.18-.52.13-.14.32-.21.56-.21.25 0 .43.07.56.21a.75.75 0 0 1 .2.52.72.72 0 0 1-.2.51c-.13.14-.31.2-.56.2-.25 0-.43-.06-.56-.2a.73.73 0 0 1-.18-.5zm4.58 1.96.04.93a2.7 2.7 0 0 1 2.22-1.06c1.56 0 2.35.88 2.36 2.64V123h-1.26v-4.9c0-.53-.13-.92-.37-1.18-.24-.25-.6-.38-1.11-.38-.41 0-.77.11-1.08.33a2.23 2.23 0 0 0-.73.86V123h-1.26v-7.4h1.2zm15.68 3h-4.17v4.4h-1.32v-9.95h6.17v1.08h-4.85v3.4h4.17v1.07zm6.4 4.4c-.07-.15-.13-.4-.18-.78-.59.61-1.29.92-2.1.92a2.6 2.6 0 0 1-1.8-.62 2 2 0 0 1-.7-1.57c0-.77.3-1.37.88-1.8a4.15 4.15 0 0 1 2.47-.64h1.23v-.58c0-.44-.13-.79-.4-1.05-.26-.26-.65-.4-1.16-.4-.45 0-.83.12-1.14.35-.3.22-.46.5-.46.82h-1.27c0-.37.13-.72.4-1.07a2.68 2.68 0 0 1 1.06-.81c.45-.2.94-.3 1.48-.3.85 0 1.52.21 2 .64.49.42.74 1 .76 1.76v3.4c0 .68.08 1.22.26 1.62v.11H123zm-2.1-.96c.4 0 .77-.1 1.13-.31a1.86 1.86 0 0 0 .77-.8v-1.52h-.99c-1.55 0-2.32.46-2.32 1.36 0 .4.13.7.4.93.26.22.6.34 1.01.34zm6.52.96h-1.26v-7.4h1.26v7.4zm-1.36-9.36c0-.2.06-.38.18-.52.13-.14.31-.21.56-.21.25 0 .43.07.56.21a.75.75 0 0 1 .2.52.72.72 0 0 1-.2.51c-.13.14-.31.2-.56.2-.25 0-.43-.06-.56-.2a.73.73 0 0 1-.18-.5zm4.76 9.36h-1.26v-10.5h1.26V123zm5.1.14a3.18 3.18 0 0 1-2.45-1 3.67 3.67 0 0 1-.95-2.63v-.24c0-.73.14-1.38.42-1.96a3.28 3.28 0 0 1 1.18-1.35 2.96 2.96 0 0 1 1.63-.5c.97 0 1.71.32 2.25.96.53.63.8 1.54.8 2.72v.52h-5.01c.01.73.23 1.32.64 1.77a2 2 0 0 0 1.55.67c.45 0 .83-.09 1.14-.27a2.84 2.84 0 0 0 .8-.72l.78.6a3.1 3.1 0 0 1-2.79 1.43zm-.16-6.63c-.51 0-.94.18-1.29.55-.35.37-.56.9-.64 1.57h3.7v-.1a2.4 2.4 0 0 0-.52-1.5c-.3-.35-.73-.52-1.25-.52zm4.2 2.73c0-1.14.26-2.05.8-2.74a2.55 2.55 0 0 1 2.11-1.03c.87 0 1.55.3 2.06.88v-3.85h1.26V123h-1.16l-.06-.8c-.5.63-1.21.94-2.11.94-.86 0-1.56-.35-2.1-1.06s-.8-1.61-.8-2.74v-.1zm1.26.14c0 .84.17 1.5.52 1.97.34.48.82.71 1.43.71.8 0 1.39-.36 1.76-1.08v-3.4a1.86 1.86 0 0 0-1.74-1.04c-.62 0-1.1.24-1.45.72a3.61 3.61 0 0 0-.52 2.12z"/></g></svg>