<svg xmlns="http://www.w3.org/2000/svg" width="360" height="75"><g fill="none" fill-rule="evenodd"><path fill="#D8DEE4" d="M0 71h360v4H0z"/><path fill="#46799A" d="M0 71h100v4H0z"/><path fill="#016087" d="M36 56a20 20 0 1 1 0-40 20 20 0 0 1 0 40z"/><path fill="#FFF" d="M36 26a10 10 0 1 0 0 20 10 10 0 0 0 0-20zm1 15h-2v-2h2v2zm0-4h-2l-.5-6h3l-.5 6z"/><path fill="#1A1A1A" fill-rule="nonzero" d="M81.69 27.39a4.19 4.19 0 0 1-1.33 2.79c-.75.65-1.74.98-2.98.98a4 4 0 0 1-3.23-1.45 5.82 5.82 0 0 1-1.22-3.87v-1.09c0-1.06.19-1.99.57-2.79a4.24 4.24 0 0 1 4-2.5c1.22 0 2.18.35 2.91 1.02.73.68 1.16 1.6 1.28 2.8h-1.51c-.13-.9-.41-1.56-.85-1.97a2.57 2.57 0 0 0-1.82-.6 2.7 2.7 0 0 0-2.26 1.06c-.54.7-.81 1.71-.81 3.02v1.1a5 5 0 0 0 .77 2.95 2.5 2.5 0 0 0 2.17 1.09c.83 0 1.47-.19 1.91-.57.45-.37.74-1.03.89-1.97h1.5zm7.04 2.77c-.57.67-1.4 1-2.48 1-.9 0-1.59-.26-2.06-.79-.47-.52-.7-1.3-.71-2.32v-5.5h1.44V28c0 1.28.52 1.92 1.56 1.92 1.1 0 1.84-.41 2.2-1.23v-6.15h1.45V31h-1.37l-.03-.84zm7.68-6.32a4.33 4.33 0 0 0-.7-.05c-.95 0-1.6.4-1.94 1.21v6h-1.44v-8.45h1.4l.03.97a2.25 2.25 0 0 1 2.01-1.13c.29 0 .5.04.64.11v1.34zm5.42 0a4.33 4.33 0 0 0-.71-.05c-.95 0-1.6.4-1.93 1.21v6h-1.45v-8.45h1.4l.03.97a2.25 2.25 0 0 1 2.02-1.13c.28 0 .5.04.64.11v1.34zm4.69 7.32a3.7 3.7 0 0 1-2.8-1.13 4.19 4.19 0 0 1-1.08-3.02v-.27c0-.84.16-1.58.48-2.24a3.75 3.75 0 0 1 1.35-1.55 3.38 3.38 0 0 1 1.87-.56c1.1 0 1.95.36 2.56 1.09.6.72.91 1.76.91 3.1v.6h-5.72a3 3 0 0 0 .73 2.03 2.3 2.3 0 0 0 1.77.77c.51 0 .95-.1 1.3-.32.36-.2.67-.48.93-.82l.88.68a3.55 3.55 0 0 1-3.18 1.64zm-.18-7.58a1.9 1.9 0 0 0-1.47.64 3.1 3.1 0 0 0-.74 1.78h4.24v-.11a2.75 2.75 0 0 0-.6-1.7 1.78 1.78 0 0 0-1.43-.61zm6.51-1.03.05 1.06a3.08 3.08 0 0 1 2.53-1.22c1.79 0 2.69 1 2.7 3.02V31h-1.44v-5.6c0-.6-.15-1.05-.42-1.34-.27-.3-.7-.44-1.28-.44-.47 0-.88.12-1.23.37s-.63.58-.83.99V31h-1.45v-8.45h1.37zm9.42-2.05v2.05h1.58v1.11h-1.58v5.25c0 .34.07.59.21.76.14.17.38.25.72.25a3.5 3.5 0 0 0 .7-.1V31a4.19 4.19 0 0 1-1.12.16c-.65 0-1.13-.2-1.46-.59a2.5 2.5 0 0 1-.5-1.66v-5.25h-1.53v-1.11h1.54V20.5h1.44zm4.84 10.5h-1.45V19h1.45v12zm5.08-2.12 1.97-6.33h1.54l-3.4 9.75c-.52 1.41-1.36 2.11-2.5 2.11l-.28-.02-.54-.1v-1.17l.4.03c.49 0 .87-.1 1.14-.3.27-.2.5-.56.68-1.08l.32-.86-3.02-8.36h1.58l2.1 6.33zm12.85-5.04a4.33 4.33 0 0 0-.71-.05c-.95 0-1.6.4-1.93 1.21v6h-1.45v-8.45h1.41l.02.97a2.25 2.25 0 0 1 2.02-1.13c.28 0 .5.04.64.11v1.34zm4.69 7.32a3.7 3.7 0 0 1-2.8-1.13 4.18 4.18 0 0 1-1.08-3.02v-.27c0-.84.16-1.59.48-2.24a3.75 3.75 0 0 1 1.35-1.55 3.38 3.38 0 0 1 1.87-.56c1.1 0 1.95.36 2.56 1.09.61.72.91 1.76.91 3.1v.6h-5.72a3 3 0 0 0 .73 2.03 2.3 2.3 0 0 0 1.78.77c.5 0 .94-.1 1.3-.32.35-.2.66-.48.92-.82l.88.68a3.55 3.55 0 0 1-3.18 1.64zm-.18-7.58a1.9 1.9 0 0 0-1.47.64 3.1 3.1 0 0 0-.74 1.78h4.24v-.11a2.75 2.75 0 0 0-.6-1.7 1.78 1.78 0 0 0-1.43-.61zm10.07 5.18c0-.4-.15-.7-.44-.91a4.3 4.3 0 0 0-1.54-.56 7.3 7.3 0 0 1-1.74-.56 2.5 2.5 0 0 1-.96-.79c-.2-.3-.3-.66-.3-1.07 0-.7.29-1.28.87-1.76a3.43 3.43 0 0 1 2.25-.72c.96 0 1.73.25 2.33.74.6.5.9 1.13.9 1.9h-1.46c0-.4-.17-.74-.5-1.02a1.89 1.89 0 0 0-1.27-.43c-.53 0-.94.11-1.24.34a1.08 1.08 0 0 0-.44.9c0 .35.14.61.41.79.28.18.78.35 1.5.5.72.17 1.3.36 1.75.59.45.22.78.49 1 .8a2 2 0 0 1 .32 1.16c0 .75-.3 1.36-.9 1.81a3.8 3.8 0 0 1-2.35.69c-.68 0-1.28-.12-1.8-.36a2.92 2.92 0 0 1-1.22-1 2.42 2.42 0 0 1-.45-1.4h1.45c.03.48.22.87.58 1.15.36.29.84.43 1.44.43.54 0 .98-.11 1.31-.34.33-.22.5-.51.5-.88zm5.29-8.26v2.05h1.57v1.11h-1.57v5.25c0 .34.07.59.2.76.15.17.39.25.73.25a3.5 3.5 0 0 0 .68-.1V31a4.19 4.19 0 0 1-1.1.16c-.65 0-1.14-.2-1.47-.59a2.55 2.55 0 0 1-.49-1.66v-5.25h-1.54v-1.11h1.54V20.5h1.45zm2.72 6.2a5 5 0 0 1 .5-2.24 3.64 3.64 0 0 1 3.34-2.07c1.15 0 2.08.4 2.8 1.2a4.6 4.6 0 0 1 1.06 3.18v.1c0 .82-.16 1.56-.47 2.21a3.59 3.59 0 0 1-1.36 1.53c-.58.36-1.26.55-2.02.55-1.14 0-2.07-.4-2.78-1.2a4.58 4.58 0 0 1-1.07-3.16v-.1zm1.46.17c0 .93.21 1.69.65 2.25.43.57 1.02.86 1.74.86.74 0 1.32-.3 1.75-.87a3.9 3.9 0 0 0 .65-2.42c0-.92-.22-1.67-.66-2.25a2.1 2.1 0 0 0-1.75-.86c-.71 0-1.29.28-1.73.85a3.93 3.93 0 0 0-.65 2.44zm12.14-3.03a4.33 4.33 0 0 0-.71-.05c-.95 0-1.6.4-1.93 1.21v6h-1.45v-8.45h1.4l.03.97a2.25 2.25 0 0 1 2.02-1.13c.28 0 .5.04.64.11v1.34zm2.9 7.16h-1.45v-8.45h1.45V31zm-1.57-10.7c0-.23.08-.43.22-.59.14-.16.35-.24.64-.24s.49.08.64.24a.85.85 0 0 1 .22.6c0 .23-.08.43-.22.58-.15.16-.36.23-.64.23s-.5-.07-.64-.23a.83.83 0 0 1-.22-.59zm5.25 2.25.04 1.06a3.08 3.08 0 0 1 2.53-1.22c1.79 0 2.7 1 2.7 3.02V31h-1.44v-5.6c0-.6-.14-1.05-.42-1.34-.27-.3-.7-.44-1.27-.44-.47 0-.88.12-1.24.37s-.63.58-.83.99V31h-1.44v-8.45h1.37zm7.11 4.15c0-1.31.3-2.36.92-3.14a2.92 2.92 0 0 1 2.42-1.17 2.9 2.9 0 0 1 2.41 1.1l.07-.94h1.32v8.25a3.4 3.4 0 0 1-.97 2.58 3.6 3.6 0 0 1-2.61.95c-.61 0-1.2-.13-1.8-.4a3.08 3.08 0 0 1-1.33-1.06l.75-.87a2.82 2.82 0 0 0 2.28 1.15c.7 0 1.25-.2 1.64-.6.4-.4.6-.95.6-1.67v-.72c-.59.66-1.38 1-2.38 1-.99 0-1.79-.4-2.4-1.2a5.22 5.22 0 0 1-.92-3.26zm1.46.17c0 .95.2 1.7.58 2.24.4.55.94.82 1.64.82.91 0 1.58-.41 2.01-1.24v-3.86a2.14 2.14 0 0 0-2-1.21c-.7 0-1.24.27-1.64.82-.4.54-.6 1.35-.6 2.43zm14.59 2.01 1.97-6.33h1.54l-3.4 9.76c-.52 1.4-1.36 2.1-2.5 2.1l-.27-.02-.54-.1v-1.17l.39.03c.49 0 .87-.1 1.14-.3.27-.2.5-.56.68-1.08l.32-.86-3.02-8.36h1.58l2.11 6.33zm4.3-2.18c0-.83.17-1.58.5-2.24a3.63 3.63 0 0 1 3.34-2.07c1.15 0 2.08.4 2.8 1.2a4.6 4.6 0 0 1 1.06 3.18v.1c0 .82-.16 1.56-.47 2.21a3.59 3.59 0 0 1-1.35 1.53 3.8 3.8 0 0 1-2.02.55c-1.15 0-2.08-.4-2.79-1.2a4.58 4.58 0 0 1-1.07-3.16v-.1zm1.46.17c0 .94.22 1.69.65 2.26.43.56 1.02.85 1.75.85s1.31-.3 1.75-.87c.43-.57.64-1.38.64-2.41 0-.93-.22-1.68-.66-2.26a2.1 2.1 0 0 0-1.75-.86c-.71 0-1.29.28-1.73.85a3.92 3.92 0 0 0-.65 2.44zm13.27 3.3c-.56.66-1.39.99-2.48.99-.9 0-1.58-.26-2.06-.79-.47-.52-.7-1.3-.71-2.32v-5.5h1.45V28c0 1.28.52 1.92 1.56 1.92 1.1 0 1.84-.41 2.2-1.23v-6.15h1.45V31h-1.38l-.03-.84zm7.69-6.33a4.33 4.33 0 0 0-.71-.05c-.95 0-1.6.4-1.93 1.21v6h-1.45v-8.45h1.4l.03.97a2.25 2.25 0 0 1 2.02-1.13c.28 0 .5.04.64.11v1.34zm10.2 4.92c0-.4-.14-.7-.43-.91a4.3 4.3 0 0 0-1.54-.56 7.29 7.29 0 0 1-1.74-.56 2.48 2.48 0 0 1-.96-.79c-.2-.3-.3-.66-.3-1.07 0-.7.29-1.28.87-1.76a3.43 3.43 0 0 1 2.25-.72c.96 0 1.74.25 2.33.74.6.5.9 1.13.9 1.9h-1.46c0-.4-.16-.74-.5-1.02a1.89 1.89 0 0 0-1.27-.43c-.53 0-.94.11-1.23.34a1.08 1.08 0 0 0-.45.9c0 .35.14.61.41.79.28.18.78.35 1.5.5.72.17 1.3.36 1.75.59.45.22.78.49 1 .8.22.32.32.7.32 1.16 0 .75-.3 1.36-.9 1.81-.6.46-1.4.69-2.35.69-.68 0-1.28-.12-1.8-.36a2.92 2.92 0 0 1-1.22-1 2.42 2.42 0 0 1-.44-1.4h1.44c.03.48.22.87.58 1.15.36.29.84.43 1.44.43.54 0 .98-.11 1.31-.33.33-.23.5-.52.5-.9zm4.9 2.24h-1.44v-8.45h1.45V31zm-1.56-10.7c0-.23.08-.43.22-.59.14-.16.36-.24.64-.24s.5.08.64.24c.14.16.22.36.22.6 0 .23-.08.43-.22.58-.15.16-.36.23-.64.23s-.5-.07-.64-.23a.83.83 0 0 1-.22-.59zm5.84.2v2.05h1.58v1.11h-1.58v5.25c0 .34.07.59.21.76.14.17.38.25.72.25a3.5 3.5 0 0 0 .69-.1V31a4.19 4.19 0 0 1-1.11.16c-.65 0-1.14-.2-1.46-.59a2.5 2.5 0 0 1-.5-1.66v-5.25h-1.54v-1.11h1.54V20.5h1.45zm6.77 10.66a3.7 3.7 0 0 1-2.8-1.13 4.19 4.19 0 0 1-1.07-3.02v-.27c0-.84.16-1.59.48-2.24a3.75 3.75 0 0 1 1.34-1.55 3.38 3.38 0 0 1 1.87-.56c1.1 0 1.96.36 2.57 1.09.6.72.91 1.76.91 3.1v.6h-5.73a3 3 0 0 0 .73 2.03 2.3 2.3 0 0 0 1.78.77c.51 0 .95-.1 1.3-.32.35-.2.66-.48.93-.82l.88.68a3.55 3.55 0 0 1-3.19 1.64zm-.18-7.58c-.58 0-1.07.21-1.47.64a3.1 3.1 0 0 0-.73 1.78h4.24v-.11a2.75 2.75 0 0 0-.6-1.7 1.79 1.79 0 0 0-1.44-.61z"/><path fill="#636D75" fill-rule="nonzero" d="M76.8 46.97h-2.33V51h-1.32v-9.95h3.3a3.9 3.9 0 0 1 2.58.76c.6.51.9 1.26.9 2.23 0 .62-.16 1.16-.5 1.62a3 3 0 0 1-1.4 1.03l2.34 4.23V51h-1.4l-2.16-4.03zm-2.33-1.07h2.01c.66 0 1.17-.17 1.56-.5.39-.34.58-.8.58-1.36 0-.61-.19-1.09-.55-1.41-.37-.33-.9-.5-1.6-.5h-2v3.77zm10.18 5.24c-1 0-1.82-.33-2.45-1a3.67 3.67 0 0 1-.94-2.63v-.24c0-.73.14-1.38.42-1.96a3.28 3.28 0 0 1 1.17-1.35 2.96 2.96 0 0 1 1.64-.5c.96 0 1.7.32 2.24.96.54.63.8 1.54.8 2.72v.52h-5c0 .73.22 1.32.63 1.77a2 2 0 0 0 1.55.67c.45 0 .83-.09 1.14-.27.31-.18.58-.42.81-.72l.78.6a3.1 3.1 0 0 1-2.8 1.43zm-.16-6.63c-.51 0-.94.18-1.29.55-.34.37-.56.9-.64 1.57h3.7v-.1a2.41 2.41 0 0 0-.51-1.5 1.59 1.59 0 0 0-1.26-.52zm11.05 4.75 1.43-5.66h1.26L96.08 51h-1.03l-1.8-5.6L91.5 51h-1.02l-2.15-7.4h1.26l1.45 5.54 1.73-5.54h1.02l1.75 5.66zM100.9 51h-1.27v-7.4h1.27V51zm-1.37-9.36c0-.2.06-.38.19-.52s.31-.21.56-.21c.24 0 .43.07.56.21a.75.75 0 0 1 .19.52.72.72 0 0 1-.2.51c-.12.14-.3.2-.55.2-.25 0-.43-.06-.56-.2a.73.73 0 0 1-.19-.5zm4.59 1.96.04.93a2.7 2.7 0 0 1 2.21-1.06c1.57 0 2.36.88 2.37 2.64V51h-1.27v-4.9c0-.53-.12-.92-.36-1.18-.24-.25-.61-.38-1.12-.38-.4 0-.77.11-1.08.33-.3.22-.55.5-.72.86V51h-1.27v-7.4h1.2zm6.22 3.64c0-1.14.27-2.05.8-2.74a2.55 2.55 0 0 1 2.12-1.03c.86 0 1.55.3 2.06.89V40.5h1.26V51h-1.16l-.06-.8c-.5.63-1.21.94-2.12.94-.85 0-1.55-.35-2.1-1.06a4.38 4.38 0 0 1-.8-2.74v-.1zm1.26.14c0 .84.18 1.5.52 1.97.35.48.83.71 1.44.71.8 0 1.39-.36 1.76-1.08v-3.4a1.86 1.86 0 0 0-1.75-1.04c-.62 0-1.1.24-1.45.72a3.61 3.61 0 0 0-.52 2.12zm8.32 3.62h-1.27v-7.4h1.27V51zm-1.37-9.36c0-.2.06-.38.19-.52.12-.14.3-.21.55-.21.25 0 .44.07.56.21a.75.75 0 0 1 .2.52.72.72 0 0 1-.2.51c-.12.14-.31.2-.56.2-.24 0-.43-.06-.55-.2a.73.73 0 0 1-.2-.5zm4.59 1.96.04.93a2.7 2.7 0 0 1 2.21-1.06c1.57 0 2.35.88 2.37 2.64V51h-1.27v-4.9c0-.53-.12-.92-.36-1.18-.24-.25-.62-.38-1.12-.38-.41 0-.77.11-1.08.33a2.24 2.24 0 0 0-.73.86V51h-1.26v-7.4h1.2zm6.22 3.64c0-1.15.27-2.07.8-2.75a2.55 2.55 0 0 1 2.12-1.02c.9 0 1.6.32 2.12.95l.06-.82h1.15v7.22a3 3 0 0 1-.85 2.27c-.57.55-1.33.82-2.29.82a3.8 3.8 0 0 1-1.56-.34 2.7 2.7 0 0 1-1.17-.94l.66-.76c.54.68 1.2 1.01 1.99 1.01a1.9 1.9 0 0 0 1.43-.52c.35-.35.52-.83.52-1.46v-.64c-.5.59-1.2.88-2.07.88a2.5 2.5 0 0 1-2.1-1.05c-.54-.7-.8-1.65-.8-2.85zm1.28.14c0 .84.17 1.5.5 1.97.35.48.83.71 1.44.71.8 0 1.39-.36 1.76-1.08V45.6a1.87 1.87 0 0 0-1.74-1.06c-.62 0-1.1.24-1.44.72a3.6 3.6 0 0 0-.52 2.12zm12.06-5.57v1.8h1.38v.97h-1.38v4.59c0 .3.06.52.19.66.12.15.33.23.62.23.15 0 .35-.03.6-.09V51a3.67 3.67 0 0 1-.97.14c-.56 0-.99-.17-1.27-.52a2.2 2.2 0 0 1-.43-1.45v-4.59h-1.35v-.98h1.35v-1.79h1.26zm2.39 5.42c0-.72.14-1.37.42-1.95a3.19 3.19 0 0 1 1.2-1.34c.5-.32 1.08-.47 1.73-.47 1.01 0 1.82.34 2.45 1.04.62.7.93 1.63.93 2.79v.08a4.4 4.4 0 0 1-.41 1.94 3.14 3.14 0 0 1-1.19 1.34c-.5.32-1.1.48-1.76.48-1 0-1.82-.35-2.44-1.05a4 4 0 0 1-.93-2.77v-.09zm1.27.15c0 .82.19 1.48.57 1.98.38.5.89.74 1.53.74s1.15-.25 1.53-.75c.38-.5.56-1.21.56-2.12 0-.8-.19-1.47-.57-1.97-.39-.5-.9-.75-1.54-.75-.62 0-1.13.24-1.5.74s-.58 1.2-.58 2.13zm12.86.48.19 1.31.28-1.18 1.97-6.94h1.1l1.92 6.94.28 1.2.21-1.34 1.54-6.8h1.32L165.61 51h-1.2l-2.05-7.25-.15-.76-.16.76-2.13 7.25h-1.2l-2.4-9.95h1.31l1.58 6.81zm12.93 3.28c-1 0-1.82-.33-2.45-1a3.67 3.67 0 0 1-.94-2.63v-.24c0-.73.14-1.38.42-1.96a3.28 3.28 0 0 1 1.17-1.35 2.96 2.96 0 0 1 1.64-.5c.96 0 1.71.32 2.24.96.54.63.8 1.54.8 2.72v.52h-5c.01.73.22 1.32.63 1.77a2 2 0 0 0 1.56.67c.44 0 .82-.09 1.13-.27.31-.18.58-.42.82-.72l.77.6a3.1 3.1 0 0 1-2.8 1.43zm-.16-6.63c-.5 0-.94.18-1.28.55-.35.37-.56.9-.64 1.56h3.7v-.1a2.41 2.41 0 0 0-.52-1.48 1.59 1.59 0 0 0-1.26-.53zm4.2 2.73c0-1.14.27-2.05.8-2.74a2.55 2.55 0 0 1 2.12-1.03c.87 0 1.55.3 2.06.88V40.5h1.26V51h-1.16l-.06-.8c-.5.63-1.21.94-2.12.94-.85 0-1.55-.35-2.09-1.06a4.38 4.38 0 0 1-.81-2.74v-.1zm1.26.14c0 .84.18 1.5.52 1.97.35.48.83.71 1.44.71.8 0 1.39-.36 1.76-1.08v-3.4a1.86 1.86 0 0 0-1.75-1.04c-.62 0-1.1.24-1.45.72a3.62 3.62 0 0 0-.52 2.12zm6.9 5.6-.72-.49c.43-.6.66-1.21.67-1.85V49.5h1.24v1c0 .45-.11.91-.34 1.37-.22.46-.5.83-.85 1.11zm10.63-11.93h1.32v7.04c0 .96-.3 1.7-.86 2.24a3.2 3.2 0 0 1-2.29.8c-.99 0-1.76-.25-2.31-.75a2.74 2.74 0 0 1-.83-2.13h1.31c0 .57.16 1.02.47 1.33.31.32.77.48 1.36.48.54 0 .98-.17 1.32-.5.33-.35.5-.83.5-1.45v-7.06zM202.9 51c-.07-.15-.13-.4-.18-.78-.59.61-1.29.92-2.1.92a2.6 2.6 0 0 1-1.8-.62 2 2 0 0 1-.7-1.57c0-.77.3-1.37.88-1.8a4.14 4.14 0 0 1 2.47-.63h1.23v-.59c0-.44-.13-.79-.4-1.05-.26-.26-.65-.4-1.17-.4-.45 0-.83.12-1.13.35-.3.22-.46.5-.46.82h-1.27c0-.37.13-.72.4-1.07a2.68 2.68 0 0 1 1.06-.81c.45-.2.94-.3 1.48-.3.85 0 1.52.21 2 .64.49.42.74 1 .75 1.76v3.4c0 .68.1 1.22.26 1.62V51h-1.32zm-2.1-.96a2.22 2.22 0 0 0 1.13-.31 1.86 1.86 0 0 0 .77-.8V47.4h-1c-1.54 0-2.32.45-2.32 1.36 0 .4.14.7.4.93.26.22.6.33 1.02.33zm6.34-6.44.04.93a2.7 2.7 0 0 1 2.22-1.06c1.56 0 2.35.88 2.36 2.64V51h-1.26v-4.9c0-.53-.13-.92-.37-1.18-.24-.25-.6-.38-1.11-.38-.41 0-.77.11-1.08.33a2.23 2.23 0 0 0-.73.86V51h-1.26v-7.4h1.2zm16.39 7.4H217v-.91l3.44-3.83a8.3 8.3 0 0 0 1.06-1.4c.2-.37.29-.75.29-1.13 0-.52-.16-.95-.47-1.28-.32-.33-.74-.5-1.26-.5-.63 0-1.12.18-1.47.54-.35.35-.52.85-.52 1.49h-1.26c0-.92.3-1.66.88-2.22a3.28 3.28 0 0 1 2.37-.85c.92 0 1.66.24 2.2.73.53.48.8 1.13.8 1.94 0 .98-.62 2.14-1.87 3.5l-2.67 2.89h5V51zm11.33 0h-6.53v-.91l3.45-3.83c.51-.58.86-1.05 1.06-1.4.19-.37.29-.75.29-1.13 0-.52-.16-.95-.47-1.28-.32-.33-.74-.5-1.26-.5-.63 0-1.12.18-1.47.54-.35.35-.52.85-.52 1.49h-1.27c0-.92.3-1.66.89-2.22a3.28 3.28 0 0 1 2.37-.85c.92 0 1.65.24 2.2.73.53.48.8 1.13.8 1.94 0 .98-.63 2.14-1.88 3.5l-2.66 2.89h5V51zm7.58-4.25c0 1.49-.26 2.59-.76 3.3-.5.73-1.3 1.09-2.37 1.09s-1.85-.36-2.36-1.06a5.5 5.5 0 0 1-.8-3.15v-1.7c0-1.46.26-2.54.76-3.25s1.3-1.07 2.38-1.07c1.07 0 1.86.34 2.37 1.03.5.69.76 1.74.78 3.17v1.64zm-1.27-1.72c0-1.07-.15-1.86-.45-2.34-.3-.5-.78-.74-1.43-.74-.64 0-1.12.24-1.41.73a4.5 4.5 0 0 0-.46 2.25v2.02c0 1.08.16 1.87.47 2.39.31.5.78.77 1.42.77.62 0 1.08-.25 1.39-.73.3-.48.46-1.24.47-2.28v-2.07zM248.2 51h-1.27v-8.43l-2.55.94v-1.15l3.63-1.36h.2v10zm9.74-7.36c0 .5-.13.94-.39 1.33-.26.39-.61.7-1.06.91.52.22.93.55 1.23.98.3.43.46.91.46 1.45a2.6 2.6 0 0 1-.87 2.06c-.58.51-1.35.77-2.3.77-.95 0-1.72-.26-2.3-.77a2.61 2.61 0 0 1-.86-2.06c0-.53.14-1.02.44-1.45.3-.44.7-.76 1.22-.99a2.6 2.6 0 0 1-1.05-.9 2.34 2.34 0 0 1-.38-1.33c0-.83.27-1.5.8-2a3.1 3.1 0 0 1 2.13-.73c.88 0 1.58.25 2.12.74.54.5.81 1.16.81 2zm-1.03 4.65a1.8 1.8 0 0 0-.53-1.36c-.35-.36-.81-.53-1.38-.53s-1.03.17-1.37.52c-.35.34-.52.8-.52 1.37s.17 1 .5 1.33c.34.32.8.48 1.4.48.6 0 1.06-.16 1.4-.48.33-.33.5-.77.5-1.33zm-1.9-6.34c-.5 0-.9.15-1.2.46-.31.3-.47.73-.47 1.26 0 .5.16.91.46 1.22.3.31.7.47 1.21.47s.91-.16 1.22-.47c.3-.31.45-.72.45-1.23 0-.5-.16-.91-.47-1.23a1.6 1.6 0 0 0-1.2-.48zM267.4 51h-1.27v-8.43l-2.55.94v-1.15L267.2 41h.2v10zm3.8-.66c0-.22.06-.4.19-.55.13-.15.33-.22.58-.22.26 0 .46.07.6.22a.78.78 0 0 1 .2.55.73.73 0 0 1-.2.52c-.14.15-.34.22-.6.22-.26 0-.45-.07-.58-.22a.75.75 0 0 1-.2-.52zm0-6.04c0-.22.07-.4.2-.55.13-.14.32-.21.58-.21.26 0 .46.07.6.21a.78.78 0 0 1 .2.55c0 .21-.07.39-.2.53-.14.14-.34.2-.6.2-.26 0-.45-.06-.58-.2a.75.75 0 0 1-.2-.53zm9.54 2.46c0 1.48-.25 2.58-.76 3.3-.5.72-1.3 1.08-2.37 1.08-1.06 0-1.85-.36-2.36-1.06a5.5 5.5 0 0 1-.8-3.15v-1.7c0-1.46.26-2.54.77-3.25.5-.71 1.3-1.07 2.37-1.07s1.86.34 2.37 1.03c.5.69.76 1.74.78 3.17v1.64zm-1.27-1.73c0-1.07-.15-1.86-.45-2.34-.3-.5-.77-.74-1.43-.74-.64 0-1.12.24-1.41.73a4.5 4.5 0 0 0-.46 2.25v2.02c0 1.08.16 1.87.47 2.39.31.5.78.77 1.42.77.62 0 1.09-.25 1.39-.73.3-.48.46-1.24.47-2.28v-2.07zm9.13 1.73c0 1.48-.25 2.58-.76 3.3-.5.72-1.3 1.08-2.37 1.08-1.06 0-1.85-.36-2.36-1.06a5.5 5.5 0 0 1-.8-3.15v-1.7c0-1.46.26-2.54.77-3.25.5-.71 1.3-1.07 2.38-1.07 1.07 0 1.85.34 2.36 1.03.5.69.77 1.74.78 3.17v1.64zm-1.27-1.73c0-1.07-.15-1.86-.45-2.34-.3-.5-.77-.74-1.43-.74-.64 0-1.11.24-1.41.73a4.5 4.5 0 0 0-.46 2.25v2.02c0 1.08.16 1.87.47 2.39.31.5.79.77 1.42.77.62 0 1.09-.25 1.39-.73.3-.48.46-1.24.47-2.28v-2.07zm12.18 3.37h-4.17l-.94 2.6h-1.35l3.8-9.95H298l3.8 9.95h-1.34l-.95-2.6zm-3.77-1.08h3.38l-1.7-4.65-1.68 4.65zm9.1-6.27 3.26 8.12 3.25-8.12h1.7V51h-1.31v-3.88l.12-4.18-3.27 8.06h-1l-3.26-8.04.13 4.16V51h-1.31v-9.95h1.7z"/></g></svg>