<svg xmlns="http://www.w3.org/2000/svg" width="344" height="90">
  <g id="screenshot-my-sites-container" fill="none" fill-rule="evenodd" stroke="none" stroke-width="1">
    <path id="Background/Gray-0" fill="#F6F6F6" d="M0 54h344v36H0z"/>
    <path id="Labels/Gray-500" fill="#636D75" fill-rule="nonzero" d="M69.568 73.803c0-.375-.131-.664-.395-.867-.264-.204-.74-.409-1.427-.616-.687-.207-1.234-.437-1.64-.691-.778-.488-1.167-1.125-1.167-1.91 0-.688.28-1.254.841-1.7.56-.445 1.288-.667 2.183-.667.594 0 1.123.109 1.588.328.465.218.83.53 1.095.934.266.405.399.853.399 1.345h-1.477c0-.445-.14-.794-.419-1.046-.279-.252-.678-.378-1.198-.378-.484 0-.86.104-1.128.31-.267.208-.401.497-.401.868 0 .312.144.573.433.782.29.21.766.412 1.43.61.664.197 1.197.421 1.6.673.402.252.697.541.885.868.187.326.28.708.28 1.145 0 .711-.272 1.276-.817 1.696-.545.42-1.284.63-2.217.63a4.168 4.168 0 01-1.703-.343c-.517-.228-.92-.544-1.207-.946a2.358 2.358 0 01-.43-1.406h1.482c0 .484.16.86.48 1.125.321.266.78.398 1.378.398.515 0 .903-.104 1.163-.313.26-.21.39-.486.39-.83zm9.475.088l1.312-6.422h1.471L79.857 76H78.44l-1.623-6.229L75.158 76h-1.424l-1.968-8.531h1.47l1.325 6.41 1.628-6.41h1.243l1.611 6.422zM84.475 76h-1.477v-8.531h1.477V76zm7.986-7.336H89.8V76h-1.47v-7.336h-2.638V67.47h6.768v1.195zm7.629 4.559c-.086.91-.422 1.62-1.008 2.13-.586.51-1.365.764-2.338.764-.68 0-1.278-.16-1.796-.483a3.172 3.172 0 01-1.198-1.374c-.281-.594-.428-1.283-.44-2.069v-.796c0-.805.143-1.514.428-2.127.285-.614.695-1.086 1.228-1.418.533-.332 1.15-.498 1.848-.498.942 0 1.7.255 2.274.767.574.512.908 1.235 1.002 2.168h-1.477c-.07-.613-.249-1.056-.536-1.327-.287-.272-.708-.407-1.263-.407-.644 0-1.14.235-1.485.706-.346.47-.522 1.16-.53 2.071v.756c0 .922.165 1.625.495 2.11.33.484.813.726 1.45.726.582 0 1.02-.131 1.313-.393.293-.261.478-.697.556-1.306h1.477zM108.187 76h-1.476v-3.791h-3.815V76h-1.482v-8.531h1.482v3.55h3.815v-3.55h1.477V76zm9.2-2.197c0-.375-.132-.664-.396-.867-.263-.204-.739-.409-1.427-.616-.687-.207-1.234-.437-1.64-.691-.778-.488-1.166-1.125-1.166-1.91 0-.688.28-1.254.84-1.7.561-.445 1.289-.667 2.183-.667.594 0 1.123.109 1.588.328.465.218.83.53 1.096.934.265.405.398.853.398 1.345h-1.476c0-.445-.14-.794-.42-1.046-.279-.252-.678-.378-1.197-.378-.485 0-.86.104-1.128.31-.268.208-.402.497-.402.868 0 .312.145.573.434.782.289.21.765.412 1.43.61.664.197 1.197.421 1.6.673.401.252.696.541.884.868.187.326.281.708.281 1.145 0 .711-.272 1.276-.817 1.696-.545.42-1.284.63-2.218.63a4.168 4.168 0 01-1.702-.343c-.518-.228-.92-.544-1.207-.946a2.358 2.358 0 01-.43-1.406h1.482c0 .484.16.86.48 1.125.32.266.78.398 1.377.398.516 0 .903-.104 1.163-.313.26-.21.39-.486.39-.83zM121.734 76h-1.476v-8.531h1.476V76zm7.987-7.336h-2.66V76h-1.471v-7.336h-2.637V67.47h6.768v1.195zm6.105 3.527h-3.504v2.625h4.096V76h-5.578v-8.531h5.537v1.195h-4.055v2.356h3.504v1.171zM70.434 38.506l1.218-4.846h1.084L70.891 40h-.88l-1.54-4.805L66.97 40h-.88l-1.839-6.34h1.078l1.248 4.746 1.477-4.746h.873l1.506 4.846zm3.117-1.735c0-.62.122-1.18.366-1.675a2.732 2.732 0 011.02-1.149c.435-.27.932-.404 1.49-.404.864 0 1.562.299 2.095.896.534.598.8 1.393.8 2.385v.076c0 .618-.118 1.171-.354 1.662a2.69 2.69 0 01-1.014 1.145c-.44.273-.944.41-1.515.41-.859 0-1.555-.299-2.088-.896-.534-.598-.8-1.389-.8-2.373v-.077zm1.09.13c0 .703.163 1.267.489 1.693.326.426.763.638 1.31.638.55 0 .988-.215 1.312-.647.324-.432.486-1.036.486-1.814 0-.695-.165-1.258-.495-1.69a1.574 1.574 0 00-1.315-.647c-.535 0-.967.212-1.295.638-.328.426-.492 1.035-.492 1.828zm9.105-2.268a3.248 3.248 0 00-.533-.041c-.711 0-1.193.303-1.447.908V40h-1.084v-6.34h1.054l.018.733c.355-.567.86-.85 1.512-.85.21 0 .37.027.48.082v1.008zm.621 2.144c0-.972.23-1.755.692-2.346.46-.592 1.064-.888 1.81-.888.742 0 1.33.254 1.764.762V31h1.084v9h-.996l-.053-.68c-.434.532-1.037.797-1.81.797-.735 0-1.334-.3-1.796-.902-.463-.602-.695-1.387-.695-2.356v-.082zm1.084.123c0 .72.149 1.282.445 1.688.297.406.708.61 1.231.61.687 0 1.19-.31 1.506-.927V35.36c-.324-.597-.822-.896-1.494-.896-.532 0-.946.205-1.243.615-.296.41-.445 1.018-.445 1.822zm11.303 0c0 .965-.22 1.743-.662 2.332-.442.59-1.04.885-1.793.885-.77 0-1.375-.244-1.817-.732v3.053h-1.084V33.66h.99l.053.703c.442-.547 1.055-.82 1.84-.82.762 0 1.365.287 1.808.861.443.575.665 1.373.665 2.397v.1zm-1.084-.123c0-.715-.152-1.279-.457-1.693-.305-.414-.723-.621-1.254-.621-.656 0-1.148.29-1.477.873v3.03c.325.577.82.866 1.489.866.52 0 .932-.206 1.239-.618.307-.412.46-1.024.46-1.837zm5.525-2.144a3.248 3.248 0 00-.533-.041c-.71 0-1.193.303-1.447.908V40H98.13v-6.34h1.055l.017.733c.356-.567.86-.85 1.512-.85.21 0 .37.027.48.082v1.008zm3.516 5.484c-.86 0-1.559-.282-2.098-.846-.539-.565-.808-1.32-.808-2.265v-.2c0-.628.12-1.19.36-1.684s.576-.88 1.008-1.16c.431-.28.9-.419 1.403-.419.824 0 1.465.271 1.922.814.457.543.686 1.32.686 2.332v.452h-4.295c.015.625.198 1.13.548 1.514.35.385.793.577 1.333.577.382 0 .707-.078.972-.234.266-.156.498-.363.697-.621l.663.516c-.532.816-1.329 1.224-2.391 1.224zm-.135-5.683c-.437 0-.805.159-1.101.477-.297.318-.48.765-.551 1.339h3.176v-.082c-.032-.55-.18-.978-.446-1.28-.265-.303-.625-.454-1.078-.454zm7.553 3.884c0-.293-.11-.52-.331-.682-.22-.162-.606-.302-1.154-.42-.55-.116-.985-.257-1.307-.421-.322-.164-.56-.36-.715-.586a1.402 1.402 0 01-.231-.809c0-.52.22-.959.659-1.318.44-.36 1-.539 1.684-.539.72 0 1.302.186 1.75.557.447.37.67.845.67 1.423h-1.09c0-.296-.126-.552-.377-.767-.252-.215-.57-.322-.953-.322-.394 0-.703.086-.925.257a.812.812 0 00-.334.674c0 .262.103.46.31.592.207.133.581.26 1.122.38.541.122.98.267 1.316.434.336.168.585.37.747.607.162.236.243.524.243.864 0 .567-.227 1.02-.68 1.362-.453.342-1.04.513-1.763.513-.508 0-.957-.09-1.348-.27a2.193 2.193 0 01-.917-.752 1.815 1.815 0 01-.331-1.046h1.084c.02.363.165.651.436.864.272.213.63.32 1.076.32.41 0 .739-.084.987-.25.248-.166.372-.387.372-.665zm6.187 0c0-.293-.11-.52-.33-.682-.221-.162-.606-.302-1.155-.42-.549-.116-.984-.257-1.307-.421-.322-.164-.56-.36-.714-.586a1.402 1.402 0 01-.232-.809c0-.52.22-.959.66-1.318.439-.36 1-.539 1.684-.539.719 0 1.302.186 1.749.557.447.37.67.845.67 1.423h-1.089c0-.296-.126-.552-.378-.767-.252-.215-.57-.322-.952-.322-.395 0-.703.086-.926.257a.812.812 0 00-.334.674c0 .262.104.46.31.592.208.133.582.26 1.123.38.54.122.98.267 1.315.434.336.168.585.37.747.607.162.236.243.524.243.864a1.62 1.62 0 01-.68 1.362c-.452.342-1.04.513-1.763.513-.508 0-.957-.09-1.348-.27a2.193 2.193 0 01-.917-.752 1.815 1.815 0 01-.33-1.046h1.083c.02.363.165.651.437.864.271.213.63.32 1.075.32.41 0 .74-.084.987-.25.248-.166.372-.387.372-.665zm2.52 1.114c0-.188.056-.344.167-.47.111-.124.278-.187.5-.187.224 0 .393.063.508.188a.665.665 0 01.173.469.63.63 0 01-.173.45c-.115.122-.284.182-.507.182-.223 0-.39-.06-.501-.181a.641.641 0 01-.167-.451zm5.678-.2c.386 0 .724-.117 1.013-.351.29-.235.45-.527.48-.879h1.026c-.02.363-.144.709-.375 1.037a2.47 2.47 0 01-.923.785 2.663 2.663 0 01-1.221.293c-.864 0-1.55-.288-2.06-.864-.51-.576-.765-1.364-.765-2.364v-.182c0-.617.114-1.166.34-1.646.227-.48.552-.854.976-1.12.424-.265.925-.398 1.503-.398.71 0 1.302.213 1.772.639.471.425.722.978.753 1.658h-1.025a1.494 1.494 0 00-.466-1.01 1.45 1.45 0 00-1.034-.396c-.551 0-.978.198-1.28.594-.303.397-.455.97-.455 1.72v.205c0 .73.15 1.293.452 1.688.3.394.73.591 1.289.591zm3.45-2.46c0-.622.123-1.18.367-1.676a2.732 2.732 0 011.02-1.149c.435-.27.932-.404 1.49-.404.864 0 1.562.299 2.096.896.533.598.8 1.393.8 2.385v.076c0 .618-.119 1.171-.355 1.662-.236.49-.574.872-1.014 1.145a2.81 2.81 0 01-1.514.41c-.86 0-1.556-.299-2.09-.896-.533-.598-.8-1.389-.8-2.373v-.077zm1.09.128c0 .704.164 1.268.49 1.694.326.426.763.638 1.31.638.55 0 .988-.215 1.312-.647.324-.432.486-1.036.486-1.814 0-.695-.165-1.258-.495-1.69a1.574 1.574 0 00-1.315-.647c-.535 0-.967.212-1.295.638-.328.426-.492 1.035-.492 1.828zm7.061-3.24l.03.703c.464-.547 1.091-.82 1.88-.82.887 0 1.49.34 1.81 1.02.212-.305.486-.551.824-.739.338-.187.737-.281 1.198-.281 1.391 0 2.098.736 2.122 2.209V40h-1.084v-4.184c0-.453-.104-.792-.311-1.016-.207-.225-.555-.337-1.043-.337-.402 0-.736.12-1.002.36s-.42.564-.463.97V40h-1.09v-4.154c0-.922-.45-1.383-1.353-1.383-.711 0-1.197.303-1.46.908V40h-1.083v-6.34h1.025z"/>
    <path id="Icon/Gray-300" fill="#969CA1" fill-rule="nonzero" d="M23.333 71.333H15.22l3.727-3.726-.947-.94L12.667 72 18 77.333l.94-.94-3.72-3.726h8.113z"/>
    <path id="Label/Gray-900" fill="#1A1A1A" fill-rule="nonzero" d="M66.85 13.047l3.254 8.121 3.254-8.121h1.703V23h-1.313v-3.876l.123-4.184L70.604 23h-1.005l-3.261-8.04.13 4.164V23h-1.313v-9.953h1.696zm12.75 8.1l1.722-5.543h1.354l-2.974 8.538c-.46 1.23-1.192 1.845-2.194 1.845l-.24-.02-.471-.09v-1.024l.342.027c.428 0 .762-.087 1.001-.26.24-.173.436-.49.591-.95l.28-.752-2.638-7.314h1.38l1.847 5.543zm10.8-2.584c-1.125-.323-1.944-.72-2.457-1.192a2.28 2.28 0 01-.77-1.747c0-.784.314-1.432.94-1.945.627-.512 1.442-.769 2.445-.769.683 0 1.293.132 1.828.397.536.264.95.629 1.244 1.093.294.465.441.973.441 1.525h-1.319c0-.602-.191-1.075-.574-1.419-.383-.344-.923-.516-1.62-.516-.648 0-1.152.143-1.515.427-.362.285-.543.68-.543 1.187 0 .405.172.748.516 1.028.344.28.93.537 1.757.77.827.232 1.474.488 1.941.768.467.28.814.608 1.04.981.225.374.338.814.338 1.32 0 .806-.315 1.452-.944 1.938-.628.485-1.47.728-2.522.728a4.678 4.678 0 01-1.914-.393c-.593-.262-1.05-.621-1.37-1.077a2.627 2.627 0 01-.483-1.552h1.32c0 .602.222 1.077.666 1.426.445.348 1.038.522 1.781.522.693 0 1.224-.14 1.593-.423s.553-.668.553-1.156c0-.487-.17-.864-.512-1.131-.342-.267-.962-.53-1.86-.79zM96.95 23h-1.265v-7.396h1.264V23zm-1.368-9.358c0-.205.063-.379.188-.52.125-.141.311-.212.557-.212.246 0 .433.07.56.212a.747.747 0 01.192.52.722.722 0 01-.191.512c-.128.137-.315.205-.56.205-.247 0-.433-.068-.558-.205a.73.73 0 01-.188-.512zm5.106.17v1.792h1.381v.977h-1.38v4.587c0 .296.061.518.184.666.123.149.333.223.629.223.146 0 .346-.028.602-.082V23a3.666 3.666 0 01-.971.137c-.565 0-.991-.171-1.279-.513-.287-.342-.43-.827-.43-1.456v-4.587h-1.347v-.977h1.347v-1.791h1.264zm5.927 9.325c-1.002 0-1.818-.33-2.447-.988-.629-.659-.943-1.54-.943-2.642v-.233c0-.733.14-1.388.42-1.965a3.28 3.28 0 011.176-1.353 2.956 2.956 0 011.637-.49c.962 0 1.709.318 2.242.951.533.633.8 1.54.8 2.72v.527h-5.01c.017.73.23 1.318.638 1.767.408.449.927.673 1.556.673.446 0 .824-.09 1.134-.273.31-.182.581-.424.814-.725l.772.602c-.62.952-1.55 1.429-2.789 1.429zm-.157-6.631c-.51 0-.939.186-1.285.557-.347.371-.56.892-.643 1.562h3.705v-.096c-.036-.642-.21-1.14-.52-1.493-.31-.354-.728-.53-1.257-.53zm14.772-2.379h-3.199V23h-1.305v-8.873h-3.193v-1.08h7.697v1.08zM123.883 23h-1.265v-7.396h1.265V23zm-1.367-9.358c0-.205.062-.379.188-.52.125-.141.31-.212.557-.212.246 0 .433.07.56.212a.747.747 0 01.192.52.722.722 0 01-.192.512c-.127.137-.314.205-.56.205-.246 0-.432-.068-.557-.205a.73.73 0 01-.188-.512zm5.106.17v1.792h1.38v.977h-1.38v4.587c0 .296.062.518.185.666.123.149.332.223.629.223.145 0 .346-.028.601-.082V23a3.666 3.666 0 01-.97.137c-.566 0-.992-.171-1.279-.513-.287-.342-.43-.827-.43-1.456v-4.587h-1.347v-.977h1.346v-1.791h1.265zM131.854 23h-1.265V12.5h1.265V23zm5.092.137c-1.002 0-1.818-.33-2.447-.988-.629-.659-.943-1.54-.943-2.642v-.233c0-.733.14-1.388.42-1.965a3.28 3.28 0 011.176-1.353 2.956 2.956 0 011.637-.49c.962 0 1.709.318 2.242.951.533.633.8 1.54.8 2.72v.527h-5.01c.018.73.23 1.318.638 1.767.408.449.927.673 1.556.673.446 0 .825-.09 1.134-.273.31-.182.581-.424.814-.725l.772.602c-.62.952-1.55 1.429-2.789 1.429zm-.157-6.631c-.51 0-.939.186-1.285.557-.346.371-.56.892-.643 1.562h3.705v-.096c-.036-.642-.21-1.14-.52-1.493-.309-.354-.728-.53-1.257-.53z"/>
    <path id="Avatar" fill="#000" d="M8 8h38v38H8z"/>
  </g>
</svg>
