<svg xmlns="http://www.w3.org/2000/svg" width="360" height="80"><g fill="none" fill-rule="evenodd"><path fill="#016087" d="M0 0h360v80H0z"/><path fill="#FFF" d="M81.4 55.69h-5.5L74.74 59h-2.56l5.37-14.22h2.21L85.14 59h-2.57l-1.17-3.31zm-4.81-2h4.12l-2.06-5.89-2.06 5.9zm14.28 3.61c.59 0 1.08-.17 1.47-.52a1.77 1.77 0 0 0 .63-1.28h2.23a3.49 3.49 0 0 1-.61 1.84 4.04 4.04 0 0 1-1.56 1.36 4.66 4.66 0 0 1-2.13.5 4.5 4.5 0 0 1-3.52-1.44 5.7 5.7 0 0 1-1.3-3.97v-.24c0-1.6.43-2.9 1.3-3.86a4.46 4.46 0 0 1 3.5-1.45c1.26 0 2.29.36 3.08 1.1.79.73 1.2 1.7 1.24 2.88h-2.23c-.03-.6-.24-1.1-.62-1.5a2 2 0 0 0-1.48-.58 2.1 2.1 0 0 0-1.78.84c-.42.55-.63 1.4-.64 2.53v.38c0 1.15.21 2 .62 2.57a2.1 2.1 0 0 0 1.8.84zm9.1-11.44v2.57h1.86v1.76h-1.86v5.9c0 .4.08.7.24.87.16.18.44.27.85.27.28 0 .55-.03.83-.1v1.84c-.54.15-1.06.22-1.56.22-1.82 0-2.73-1-2.73-3.01v-5.99h-1.74v-1.76h1.74v-2.57h2.37zm6.2 13.14h-2.37V48.43h2.37V59zm-2.52-13.31c0-.37.12-.67.35-.9.23-.25.56-.37.99-.37.43 0 .76.12 1 .36.23.24.35.54.35.9 0 .37-.12.66-.36.9-.23.24-.56.36-1 .36a1.3 1.3 0 0 1-.98-.36 1.23 1.23 0 0 1-.35-.9zm8.83 10.3 2.24-7.56h2.45L113.5 59h-2.06l-3.69-10.57h2.46l2.27 7.56zm8.69 3.01h-2.37V48.43h2.37V59zm-2.52-13.31c0-.37.12-.67.35-.9.23-.25.56-.37.99-.37.43 0 .76.12 1 .36.23.24.35.54.35.9 0 .37-.12.66-.36.9-.23.24-.56.36-1 .36a1.3 1.3 0 0 1-.98-.36 1.23 1.23 0 0 1-.35-.9zm8.08.17v2.57h1.86v1.76h-1.86v5.9c0 .4.08.7.24.87.16.18.44.27.85.27.27 0 .55-.03.83-.1v1.84c-.54.15-1.06.22-1.56.22-1.82 0-2.74-1-2.74-3.01v-5.99h-1.73v-1.76h1.73v-2.57h2.38zm7.37 9.74 2.15-7.17h2.53l-4.2 12.17c-.65 1.78-1.74 2.67-3.28 2.67a4.25 4.25 0 0 1-1.15-.18v-1.83l.45.03c.6 0 1.05-.11 1.36-.33.3-.22.54-.59.71-1.1l.35-.9-3.72-10.53h2.56l2.24 7.17zM36 51v2H23.83l5.58 5.59L28 60l-8-8 8-8 1.42 1.41L23.83 51H36zm285.7-34h-1.65V9l-2.44.84v-1.4l3.88-1.43h.21V17zm10.15 0h-6.69v-1.14l3.32-3.62c.48-.53.82-.98 1.02-1.33.2-.36.3-.72.3-1.08 0-.47-.13-.86-.4-1.15-.26-.3-.62-.44-1.07-.44-.54 0-.96.17-1.25.5-.3.32-.45.77-.45 1.34h-1.66c0-.6.14-1.15.41-1.64.28-.48.67-.86 1.19-1.13.51-.27 1.1-.4 1.77-.4.97 0 1.73.24 2.29.73.56.48.83 1.15.83 2.01 0 .5-.14 1.02-.42 1.56a8.85 8.85 0 0 1-1.37 1.86l-2.44 2.6h4.62V17zm2.38-1.75c.3 0 .55.09.71.26a.91.91 0 0 1 .26.66.88.88 0 0 1-.26.65.97.97 0 0 1-.71.25.97.97 0 0 1-.7-.25.87.87 0 0 1-.27-.65c0-.26.09-.48.26-.66.16-.17.4-.26.7-.26zm0-5.8c.3 0 .55.08.71.26a.91.91 0 0 1 .26.66.88.88 0 0 1-.26.65c-.16.17-.4.25-.71.25a.97.97 0 0 1-.7-.25.87.87 0 0 1-.27-.65c0-.26.09-.48.26-.66.16-.18.4-.26.7-.26zm4.52 1.82h1.01c.51-.01.92-.14 1.22-.4.3-.26.44-.64.44-1.13 0-.47-.12-.84-.37-1.1-.25-.27-.63-.4-1.14-.4-.44 0-.8.13-1.1.39-.28.26-.43.6-.43 1h-1.66c0-.5.14-.97.4-1.39.28-.42.66-.74 1.14-.98a3.7 3.7 0 0 1 1.63-.35c1 0 1.78.25 2.34.75.57.5.85 1.2.85 2.08 0 .45-.14.87-.42 1.26a2.68 2.68 0 0 1-1.1.9c.54.18.96.47 1.24.87.29.4.43.88.43 1.44 0 .9-.3 1.6-.92 2.13-.61.53-1.42.8-2.42.8-.95 0-1.74-.26-2.35-.77a2.52 2.52 0 0 1-.91-2.04h1.66c0 .44.14.8.44 1.07s.69.41 1.18.41c.52 0 .92-.14 1.22-.41.3-.27.45-.67.45-1.19 0-.52-.16-.93-.47-1.2-.31-.3-.77-.43-1.38-.43h-.98v-1.32zm12.52 1.54c0 1.43-.26 2.51-.8 3.24-.53.72-1.35 1.09-2.44 1.09-1.08 0-1.89-.36-2.43-1.07a5.2 5.2 0 0 1-.84-3.14V11.2c0-1.43.27-2.5.8-3.22.54-.71 1.36-1.07 2.45-1.07 1.1 0 1.9.35 2.44 1.05.54.7.81 1.74.82 3.13v1.72zm-1.66-1.86a4.2 4.2 0 0 0-.38-2.05c-.25-.44-.66-.66-1.22-.66-.54 0-.94.2-1.2.62a3.89 3.89 0 0 0-.4 1.93v2.26c0 .93.13 1.62.4 2.08.25.45.66.68 1.22.68.53 0 .93-.21 1.18-.63.26-.42.4-1.08.4-1.98v-2.25zM277 19l14-14v14h-14zm29-13.13h3V19h-9V5.87h3V5h3v.88zm-49.02 2.15A14.93 14.93 0 0 1 266 5c3.39 0 6.51 1.12 9.02 3.02L266 19l-9.02-10.98z"/></g></svg>