<svg xmlns="http://www.w3.org/2000/svg" width="328" height="48"><g fill="none" fill-rule="evenodd"><path fill="#2B2D2F" d="M0 0h328v48H0z"/><path fill="#FFA2D4" fill-rule="nonzero" d="M258.36 28.5v-9.95h2.94c.88 0 1.66.2 2.34.58a4 4 0 0 1 1.58 1.67c.38.72.56 1.55.56 2.48v.5a5.3 5.3 0 0 1-.56 2.48 3.96 3.96 0 0 1-1.6 1.66c-.7.39-1.5.58-2.4.58h-2.86zm1.73-8.56v7.18h1.13c.9 0 1.6-.28 2.08-.85a3.7 3.7 0 0 0 .75-2.45v-.55a3.8 3.8 0 0 0-.7-2.47 2.53 2.53 0 0 0-2.05-.86h-1.21zm9.24 8.56h-1.72v-9.95h1.72v9.95zm7.33-2.56c0-.44-.16-.78-.46-1.02-.31-.23-.87-.47-1.67-.71s-1.44-.51-1.91-.81c-.9-.57-1.36-1.31-1.36-2.23 0-.8.32-1.46.98-1.98.65-.52 1.5-.78 2.54-.78.7 0 1.32.13 1.86.38a3.04 3.04 0 0 1 1.28 1.1c.3.46.46.99.46 1.56h-1.72c0-.52-.17-.92-.5-1.22-.32-.3-.78-.44-1.39-.44-.56 0-1 .12-1.31.36a1.2 1.2 0 0 0-.47 1.02c0 .36.17.66.5.9.34.25.9.49 1.67.72.78.23 1.4.5 1.87.79a3 3 0 0 1 1.03 1c.22.39.33.83.33 1.34 0 .83-.32 1.5-.96 1.98-.63.5-1.5.74-2.58.74-.72 0-1.39-.14-1.99-.4a3.34 3.34 0 0 1-1.4-1.1 2.75 2.75 0 0 1-.51-1.65h1.73c0 .57.19 1 .56 1.32.37.3.91.46 1.6.46.6 0 1.06-.12 1.36-.37a1.18 1.18 0 0 0 .46-.96zm5.49-7.4 2.87 7.64 2.86-7.63h2.24v9.95h-1.72v-3.28l.17-4.39-2.94 7.67h-1.24l-2.93-7.66.17 4.38v3.28h-1.72v-9.95h2.24zm11.84 9.96h-1.73v-9.95H294v9.95zm7.32-2.56c0-.44-.15-.78-.46-1.02-.3-.23-.86-.47-1.66-.71a8.03 8.03 0 0 1-1.92-.81c-.9-.57-1.36-1.31-1.36-2.23 0-.8.33-1.46.99-1.98.65-.52 1.5-.78 2.54-.78.7 0 1.31.13 1.85.38a3.04 3.04 0 0 1 1.28 1.1c.31.46.47.99.47 1.56h-1.73c0-.52-.16-.92-.48-1.22-.33-.3-.8-.44-1.4-.44-.57 0-1 .12-1.32.36a1.2 1.2 0 0 0-.47 1.02c0 .36.17.66.51.9.34.25.9.49 1.67.72.77.23 1.4.5 1.86.79.47.29.82.63 1.04 1 .22.39.32.83.32 1.34 0 .83-.31 1.5-.95 1.98-.63.5-1.5.74-2.59.74-.72 0-1.38-.14-1.98-.4a3.34 3.34 0 0 1-1.41-1.1 2.75 2.75 0 0 1-.5-1.65h1.73c0 .57.18 1 .56 1.32.37.3.9.46 1.6.46.6 0 1.06-.12 1.36-.37a1.18 1.18 0 0 0 .45-.96zm8.45 0c0-.44-.15-.78-.46-1.02-.3-.23-.86-.47-1.66-.71a8.03 8.03 0 0 1-1.91-.81c-.91-.57-1.36-1.31-1.36-2.23 0-.8.32-1.46.98-1.98.65-.52 1.5-.78 2.54-.78.7 0 1.31.13 1.85.38a3.04 3.04 0 0 1 1.28 1.1c.31.46.47.99.47 1.56h-1.72c0-.52-.17-.92-.5-1.22-.32-.3-.78-.44-1.4-.44-.56 0-1 .12-1.3.36a1.2 1.2 0 0 0-.48 1.02c0 .36.17.66.51.9.34.25.9.49 1.67.72.77.23 1.4.5 1.86.79.47.29.82.63 1.04 1 .21.39.32.83.32 1.34 0 .83-.31 1.5-.95 1.98-.64.5-1.5.74-2.59.74-.72 0-1.38-.14-1.98-.4a3.34 3.34 0 0 1-1.41-1.1 2.75 2.75 0 0 1-.5-1.65h1.73c0 .57.18 1 .56 1.32.37.3.9.46 1.6.46.6 0 1.06-.12 1.36-.37a1.18 1.18 0 0 0 .46-.96z"/><path fill="#FFF" fill-rule="nonzero" d="m20.19 23.54 2.6-5h1.49l-3.43 6.25v3.71h-1.32v-3.71l-3.43-6.24h1.5l2.59 5zm4.4 1.2c0-.73.14-1.38.42-1.96a3.19 3.19 0 0 1 1.2-1.34c.5-.32 1.08-.47 1.73-.47 1.01 0 1.82.35 2.45 1.04.62.7.93 1.63.93 2.79v.08c0 .72-.14 1.37-.41 1.94a3.14 3.14 0 0 1-1.19 1.34c-.51.32-1.1.48-1.76.48-1 0-1.82-.35-2.44-1.05a4 4 0 0 1-.93-2.77v-.09zm1.27.14c0 .82.19 1.48.57 1.98.38.5.89.74 1.53.74s1.15-.25 1.53-.75c.38-.5.57-1.21.57-2.12 0-.8-.2-1.46-.58-1.97-.39-.5-.9-.75-1.54-.75-.62 0-1.13.24-1.5.74-.4.5-.58 1.2-.58 2.13zm11.61 2.89c-.5.58-1.21.87-2.16.87-.8 0-1.4-.23-1.8-.69-.42-.46-.63-1.14-.63-2.03V21.1h1.26v4.78c0 1.12.46 1.68 1.37 1.68.97 0 1.6-.36 1.93-1.08V21.1h1.26v7.4h-1.2l-.03-.73zm3.24-6.42-.72-.5c.43-.59.65-1.2.66-1.87V18h1.25v.89c0 .45-.12.9-.34 1.36-.22.46-.5.82-.85 1.1zm6.28.89a3.79 3.79 0 0 0-.62-.05c-.83 0-1.39.35-1.69 1.06v5.25h-1.26v-7.4h1.23l.02.86a1.97 1.97 0 0 1 2.32-.9v1.18zm4.1 6.4c-1 0-1.81-.33-2.44-1a3.67 3.67 0 0 1-.94-2.63v-.24c0-.73.14-1.38.42-1.96a3.28 3.28 0 0 1 1.17-1.35 2.96 2.96 0 0 1 1.64-.5c.96 0 1.7.32 2.24.96.53.63.8 1.54.8 2.72v.52h-5.01c.02.73.23 1.32.64 1.77a2 2 0 0 0 1.55.67c.45 0 .83-.09 1.14-.27.3-.18.58-.42.81-.72l.78.6a3.1 3.1 0 0 1-2.8 1.43zM50.95 22c-.51 0-.94.18-1.29.55-.34.37-.56.9-.64 1.56h3.7v-.1a2.41 2.41 0 0 0-.51-1.48 1.59 1.59 0 0 0-1.26-.53zm7.63 2.72c0-.72.15-1.37.43-1.95a3.19 3.19 0 0 1 1.2-1.34c.5-.32 1.08-.47 1.73-.47 1 0 1.82.34 2.45 1.04.62.7.93 1.63.93 2.78v.1a4.4 4.4 0 0 1-.42 1.93 3.14 3.14 0 0 1-1.18 1.34c-.51.32-1.1.48-1.77.48-1 0-1.81-.35-2.43-1.05a4 4 0 0 1-.94-2.77v-.09zm1.28.15c0 .82.19 1.48.57 1.98.38.5.89.74 1.52.74.65 0 1.16-.25 1.54-.75.37-.5.56-1.21.56-2.12 0-.8-.19-1.47-.58-1.97-.38-.5-.9-.75-1.53-.75-.62 0-1.13.24-1.51.74s-.57 1.2-.57 2.13zm8.24-3.78.04.93a2.7 2.7 0 0 1 2.22-1.06c1.56 0 2.35.88 2.36 2.64v4.89h-1.26v-4.9c0-.53-.13-.92-.37-1.18-.24-.25-.61-.38-1.12-.38-.4 0-.77.11-1.08.33a2.23 2.23 0 0 0-.72.86v5.27H66.9v-7.4h1.2zm7.9 7.4h-1.26V18H76v10.5zm3.4 0h-1.26v-7.4h1.26v7.4zm-1.37-9.36c0-.2.07-.38.19-.52.13-.14.31-.21.56-.21.24 0 .43.07.56.21a.75.75 0 0 1 .19.52.72.72 0 0 1-.2.51c-.12.14-.3.2-.55.2-.25 0-.43-.06-.56-.2a.73.73 0 0 1-.19-.5zm4.59 1.96.04.93a2.7 2.7 0 0 1 2.21-1.06c1.57 0 2.36.88 2.37 2.64v4.89h-1.26v-4.9c0-.53-.13-.92-.37-1.18-.24-.25-.61-.38-1.12-.38-.4 0-.77.11-1.08.33-.3.22-.55.5-.72.86v5.27H81.4v-7.4h1.2zm9.6 7.54c-1 0-1.82-.33-2.45-1a3.66 3.66 0 0 1-.94-2.63v-.24c0-.73.14-1.38.42-1.96a3.28 3.28 0 0 1 1.17-1.35 2.96 2.96 0 0 1 1.64-.5c.96 0 1.7.32 2.24.96.54.63.8 1.54.8 2.72v.52h-5c0 .73.22 1.32.63 1.77a2 2 0 0 0 1.56.67c.44 0 .82-.09 1.13-.27.31-.18.58-.42.81-.72l.78.6a3.1 3.1 0 0 1-2.8 1.43zM92.05 22c-.51 0-.94.18-1.28.55-.35.37-.56.9-.65 1.56h3.7v-.1a2.4 2.4 0 0 0-.51-1.48 1.59 1.59 0 0 0-1.26-.53zm9.17-.9.04.92a2.7 2.7 0 0 1 2.21-1.06c1.57 0 2.35.88 2.37 2.64v4.89h-1.27v-4.9c0-.53-.12-.92-.36-1.18-.24-.25-.61-.38-1.12-.38-.41 0-.77.11-1.08.33a2.23 2.23 0 0 0-.72.86v5.27h-1.27v-7.4h1.2zm6.19 3.62c0-.72.14-1.37.43-1.95a3.19 3.19 0 0 1 1.19-1.34c.5-.32 1.09-.47 1.74-.47 1 0 1.82.34 2.44 1.04.62.7.93 1.63.93 2.78v.1a4.4 4.4 0 0 1-.41 1.93 3.14 3.14 0 0 1-1.18 1.34c-.52.32-1.1.48-1.77.48-1 0-1.81-.35-2.44-1.05a4 4 0 0 1-.93-2.77v-.09zm1.27.15c0 .82.2 1.48.57 1.98.38.5.9.74 1.53.74.64 0 1.15-.25 1.53-.75.38-.5.57-1.21.57-2.12 0-.8-.2-1.47-.58-1.97-.38-.5-.9-.75-1.53-.75s-1.13.24-1.51.74-.58 1.2-.58 2.13zm13.6 1.88 1.42-5.66h1.27l-2.16 7.4h-1.02l-1.8-5.6-1.75 5.6h-1.03l-2.14-7.4h1.25l1.46 5.54 1.72-5.54h1.02l1.76 5.66zm3.15 1.08c0-.22.07-.4.2-.55.13-.15.32-.22.58-.22.26 0 .46.07.59.22a.78.78 0 0 1 .2.55.73.73 0 0 1-.2.52c-.13.14-.33.21-.6.21-.25 0-.45-.07-.57-.2a.75.75 0 0 1-.2-.53z"/></g></svg>