<svg xmlns="http://www.w3.org/2000/svg" width="360" height="128">
  <g id="screenshot-notifications-top" fill="none" fill-rule="evenodd" stroke="none" stroke-width="1">
    <path id="Background/Blue-500" fill="#016087" d="M0 0h360v128H0z"/>
    <path id="Inactive-Labels/Blue-200" fill="#BBC9D5" d="M153.7 105.76c-.1 1.062-.492 1.89-1.176 2.485-.684.594-1.593.892-2.728.892-.793 0-1.491-.188-2.095-.564-.604-.376-1.07-.91-1.398-1.603-.328-.693-.499-1.497-.512-2.413v-.93c0-.939.166-1.766.499-2.481.332-.716.81-1.267 1.432-1.655.622-.387 1.34-.58 2.156-.58 1.099 0 1.983.298 2.653.895.67.597 1.06 1.44 1.169 2.529h-1.723c-.082-.716-.29-1.232-.625-1.548-.335-.317-.826-.475-1.474-.475-.752 0-1.33.274-1.732.823-.404.55-.61 1.355-.62 2.417v.882c0 1.075.193 1.895.578 2.46.386.566.95.848 1.692.848.68 0 1.19-.152 1.532-.458.341-.305.558-.813.65-1.524h1.722zm9.488-1.477c0 .975-.169 1.831-.506 2.567-.337.736-.819 1.301-1.446 1.695-.626.395-1.347.592-2.163.592-.807 0-1.526-.197-2.157-.592-.631-.394-1.119-.955-1.463-1.685-.344-.729-.518-1.57-.523-2.522v-.56c0-.971.172-1.828.516-2.571.344-.743.83-1.311 1.456-1.706.627-.394 1.346-.59 2.157-.59.811 0 1.53.194 2.157.584.626.39 1.11.95 1.452 1.681.342.732.515 1.583.52 2.553v.554zm-1.73-.52c0-1.102-.208-1.948-.625-2.535-.417-.588-1.008-.882-1.774-.882-.747 0-1.332.293-1.753.878-.422.586-.637 1.414-.646 2.485v.574c0 1.094.213 1.94.639 2.536.426.597 1.017.896 1.774.896.765 0 1.354-.292 1.767-.875.412-.583.618-1.436.618-2.557v-.52zm5.695-4.716l2.87 7.629 2.865-7.63h2.236V109H173.4v-3.281l.17-4.389-2.939 7.67h-1.237l-2.933-7.663.171 4.382V109h-1.722v-9.953h2.242zm12.257 0l2.87 7.629 2.865-7.63h2.235V109h-1.722v-3.281l.17-4.389-2.939 7.67h-1.237l-2.933-7.663.171 4.382V109h-1.723v-9.953h2.243zm15.832 5.51h-4.088v3.062h4.778V109h-6.508v-9.953h6.46v1.394h-4.73v2.748h4.088v1.368zm9.994 4.443h-1.73l-4.436-7.062V109h-1.73v-9.953h1.73l4.45 7.089v-7.09h1.716V109zm9.037-8.559h-3.104V109h-1.715v-8.559h-3.077v-1.394h7.896v1.394zm6.398 5.996c0-.438-.153-.775-.461-1.012-.308-.237-.863-.476-1.665-.718s-1.44-.51-1.914-.807c-.907-.57-1.36-1.312-1.36-2.228 0-.802.327-1.463.981-1.983.654-.52 1.503-.779 2.546-.779.693 0 1.31.128 1.853.383a3.04 3.04 0 011.278 1.09c.31.472.465.995.465 1.57h-1.723c0-.52-.163-.927-.488-1.221-.326-.294-.792-.441-1.398-.441-.565 0-1.004.12-1.316.362-.312.242-.469.58-.469 1.012 0 .365.17.669.506.913.338.243.894.48 1.668.71.775.23 1.397.493 1.867.787.469.294.813.63 1.032 1.011.219.381.328.826.328 1.337 0 .83-.318 1.489-.954 1.979-.635.49-1.498.735-2.587.735-.72 0-1.382-.134-1.986-.4-.604-.267-1.073-.635-1.408-1.104-.335-.47-.503-1.016-.503-1.64h1.73c0 .564.187 1.002.56 1.312.374.31.91.465 1.607.465.601 0 1.054-.122 1.357-.366a1.18 1.18 0 00.454-.967zm32.326-1.655h-4.006V109h-1.73v-9.953h6.323v1.394h-4.593v2.96h4.006v1.381zm9.898-.499c0 .975-.169 1.831-.506 2.567-.337.736-.819 1.301-1.446 1.695-.626.395-1.347.592-2.163.592-.807 0-1.526-.197-2.157-.592-.631-.394-1.119-.955-1.463-1.685-.344-.729-.518-1.57-.523-2.522v-.56c0-.971.172-1.828.516-2.571.344-.743.83-1.311 1.456-1.706.627-.394 1.346-.59 2.157-.59.811 0 1.53.194 2.157.584.626.39 1.11.95 1.452 1.681.342.732.515 1.583.52 2.553v.554zm-1.73-.52c0-1.102-.208-1.948-.625-2.535-.417-.588-1.008-.882-1.774-.882-.747 0-1.332.293-1.753.878-.422.586-.637 1.414-.646 2.485v.574c0 1.094.213 1.94.639 2.536.426.597 1.017.896 1.774.896.765 0 1.354-.292 1.767-.875.412-.583.619-1.436.619-2.557v-.52zm5.182 3.856h4.519V109h-6.248v-9.953h1.73v8.572zm7.574 0h4.519V109h-6.248v-9.953h1.73v8.572zm13.351-3.336c0 .975-.169 1.831-.506 2.567-.337.736-.82 1.301-1.446 1.695-.626.395-1.348.592-2.163.592-.807 0-1.526-.197-2.157-.592-.631-.394-1.119-.955-1.463-1.685-.344-.729-.518-1.57-.523-2.522v-.56c0-.971.172-1.828.516-2.571.344-.743.83-1.311 1.456-1.706.627-.394 1.346-.59 2.157-.59.811 0 1.53.194 2.157.584.626.39 1.11.95 1.452 1.681.342.732.515 1.583.52 2.553v.554zm-1.73-.52c0-1.102-.208-1.948-.625-2.535-.417-.588-1.008-.882-1.774-.882-.747 0-1.332.293-1.753.878-.422.586-.637 1.414-.646 2.485v.574c0 1.094.213 1.94.639 2.536.426.597 1.017.896 1.774.896.765 0 1.354-.292 1.767-.875.412-.583.618-1.436.618-2.557v-.52zm11.26 2.776l1.53-7.492h1.716L297.751 109h-1.654l-1.893-7.267-1.935 7.267h-1.661l-2.297-9.953h1.716l1.545 7.478 1.9-7.478h1.45l1.88 7.492zm9.713-.102c0-.438-.154-.775-.461-1.012-.308-.237-.863-.476-1.665-.718s-1.44-.51-1.914-.807c-.907-.57-1.36-1.312-1.36-2.228 0-.802.327-1.463.98-1.983.655-.52 1.503-.779 2.547-.779.693 0 1.31.128 1.853.383a3.04 3.04 0 011.278 1.09c.31.472.465.995.465 1.57h-1.723c0-.52-.163-.927-.489-1.221-.325-.294-.791-.441-1.398-.441-.565 0-1.003.12-1.315.362-.313.242-.469.58-.469 1.012 0 .365.169.669.506.913.337.243.893.48 1.668.71.775.23 1.397.493 1.866.787.47.294.814.63 1.033 1.011.218.381.328.826.328 1.337 0 .83-.318 1.489-.954 1.979-.636.49-1.498.735-2.587.735-.72 0-1.382-.134-1.986-.4-.604-.267-1.073-.635-1.408-1.104-.335-.47-.503-1.016-.503-1.64h1.73c0 .564.186 1.002.56 1.312.374.31.91.465 1.607.465.601 0 1.053-.122 1.357-.366a1.18 1.18 0 00.454-.967zm29.868 1.182h4.519V109h-6.248v-9.953h1.73v8.572zm7.67 1.381h-1.722v-9.953h1.722V109zm4.984-4.3l-1.128 1.196V109h-1.73v-9.953h1.73v4.669l.957-1.183 2.912-3.486h2.092l-3.699 4.41 3.91 5.543h-2.05l-2.994-4.3zm11.785-.143h-4.088v3.062h4.778V109h-6.508v-9.953h6.46v1.394h-4.73v2.748h4.088v1.368zm7.3 1.88c0-.438-.153-.775-.46-1.012-.308-.237-.863-.476-1.665-.718-.803-.242-1.44-.51-1.914-.807-.907-.57-1.36-1.312-1.36-2.228 0-.802.326-1.463.98-1.983.654-.52 1.503-.779 2.547-.779.692 0 1.31.128 1.852.383a3.04 3.04 0 011.278 1.09c.31.472.465.995.465 1.57h-1.722c0-.52-.163-.927-.49-1.221-.325-.294-.791-.441-1.397-.441-.565 0-1.004.12-1.316.362-.312.242-.468.58-.468 1.012 0 .365.168.669.506.913.337.243.893.48 1.667.71.775.23 1.397.493 1.867.787.47.294.813.63 1.032 1.011.219.381.328.826.328 1.337 0 .83-.318 1.489-.954 1.979-.635.49-1.498.735-2.587.735-.72 0-1.382-.134-1.986-.4-.604-.267-1.073-.635-1.408-1.104-.335-.47-.502-1.016-.502-1.64h1.729c0 .564.187 1.002.56 1.312.374.31.91.465 1.607.465.602 0 1.054-.122 1.357-.366a1.18 1.18 0 00.455-.967zm-293.92-7.39v6.651c0 1.058-.34 1.895-1.016 2.512-.677.618-1.578.927-2.704.927-1.139 0-2.044-.304-2.713-.913-.67-.608-1.005-1.453-1.005-2.533v-6.644h1.722v6.658c0 .665.169 1.174.506 1.524.337.351.834.527 1.49.527 1.331 0 1.997-.702 1.997-2.106v-6.603H74.2zm9.74 9.953h-1.73l-4.436-7.062V109h-1.73v-9.953h1.73l4.45 7.089v-7.09h1.716V109zm5.702-3.835h-1.928V109h-1.73v-9.953h3.5c1.149 0 2.035.257 2.66.772.624.515.936 1.26.936 2.236 0 .665-.16 1.222-.482 1.671-.321.449-.769.794-1.343 1.036l2.235 4.15V109H91.64l-1.996-3.835zm-1.928-1.388h1.777c.584 0 1.04-.147 1.367-.44.328-.295.493-.697.493-1.207 0-.533-.152-.946-.455-1.237-.303-.292-.755-.442-1.357-.452h-1.825v3.336zm12.824.78h-4.088v3.062h4.778V109h-6.507v-9.953h6.46v1.394h-4.73v2.748h4.087v1.368zm7.67 2.126h-3.856l-.806 2.317h-1.798l3.76-9.953h1.552l3.766 9.953h-1.805l-.813-2.317zm-3.37-1.395h2.885l-1.443-4.129-1.442 4.13zm7.116 3.712v-9.953h2.94c.88 0 1.66.196 2.34.588a4.009 4.009 0 011.583 1.668c.374.72.56 1.545.56 2.474v.5c0 .943-.187 1.772-.563 2.488a3.96 3.96 0 01-1.607 1.654c-.695.387-1.49.581-2.389.581h-2.864zm1.73-8.559v7.178h1.127c.907 0 1.604-.284 2.089-.85.485-.568.732-1.383.742-2.445v-.553c0-1.08-.235-1.905-.705-2.475-.469-.57-1.15-.855-2.043-.855h-1.21z"/>
    <path id="Labels/White" fill="#FFF" d="M0 128v-2h53v2H0zm20.85-21.317h-3.855L16.188 109H14.39l3.76-9.953h1.552L23.468 109h-1.804l-.814-2.317zm-3.37-1.395h2.885l-1.443-4.129-1.442 4.13zm8.846 2.331h4.518V109h-6.248v-9.953h1.73v8.572zm7.574 0h4.518V109H32.17v-9.953h1.73v8.572z"/>
    <path id="Labels/White" fill="#FFF" d="M28.725 59h-2.471l-6.338-10.088V59h-2.47V44.781h2.47l6.357 10.127V44.781h2.452V59zm2.246-5.38c0-1.036.205-1.969.615-2.799.41-.83.986-1.468 1.728-1.914.743-.446 1.596-.669 2.559-.669 1.426 0 2.583.46 3.472 1.377.888.918 1.369 2.136 1.44 3.653l.01.556c0 1.042-.2 1.973-.6 2.793-.401.82-.974 1.455-1.72 1.904-.745.45-1.606.674-2.582.674-1.491 0-2.684-.496-3.58-1.489-.895-.993-1.342-2.316-1.342-3.97v-.117zm2.373.204c0 1.087.224 1.939.674 2.554.449.615 1.074.923 1.875.923.8 0 1.424-.313 1.87-.938.446-.625.669-1.54.669-2.744 0-1.068-.23-1.914-.689-2.539-.459-.625-1.082-.937-1.87-.937-.775 0-1.39.307-1.846.922-.455.616-.683 1.535-.683 2.76zm12.431-7.959v2.569h1.866v1.757h-1.866v5.899c0 .403.08.695.24.874.16.179.444.268.854.268.274 0 .55-.032.83-.097v1.836c-.54.15-1.061.224-1.562.224-1.823 0-2.735-1.006-2.735-3.017V50.19h-1.738v-1.757h1.738v-2.569h2.373zM51.977 59h-2.373V48.434h2.373V59zm-2.52-13.31c0-.365.116-.668.347-.909.23-.24.561-.361.99-.361.43 0 .763.12.997.361.234.241.352.544.352.908 0 .359-.118.656-.352.894-.234.238-.566.356-.996.356-.43 0-.76-.118-.991-.356a1.23 1.23 0 01-.347-.894zM55.395 59v-8.809h-1.612v-1.757h1.612v-.967c0-1.172.325-2.077.976-2.715.651-.638 1.563-.957 2.734-.957a5.5 5.5 0 011.329.176l-.059 1.855a4.674 4.674 0 00-.908-.078c-1.133 0-1.7.583-1.7 1.748v.938h2.149v1.757h-2.148V59h-2.373zm8.779 0H61.8V48.434h2.373V59zm-2.52-13.31c0-.365.116-.668.347-.909.231-.24.561-.361.991-.361.43 0 .762.12.996.361.235.241.352.544.352.908 0 .359-.117.656-.352.894-.234.238-.566.356-.996.356-.43 0-.76-.118-.991-.356a1.23 1.23 0 01-.347-.894zm9.444 11.61c.592 0 1.084-.172 1.474-.517.39-.345.6-.771.625-1.28h2.237a3.486 3.486 0 01-.616 1.842 4.035 4.035 0 01-1.562 1.352 4.656 4.656 0 01-2.129.498c-1.478 0-2.65-.478-3.516-1.435-.866-.957-1.299-2.279-1.299-3.965v-.244c0-1.608.43-2.896 1.29-3.863.859-.966 2.03-1.45 3.515-1.45 1.257 0 2.28.366 3.071 1.099.791.732 1.207 1.694 1.246 2.886h-2.237c-.026-.606-.232-1.104-.62-1.494-.387-.391-.88-.586-1.48-.586-.768 0-1.36.278-1.777.835-.416.556-.628 1.4-.634 2.534v.38c0 1.146.206 2 .62 2.564.413.563 1.01.845 1.792.845zM83.539 59c-.104-.202-.195-.53-.273-.986-.756.787-1.68 1.181-2.774 1.181-1.061 0-1.927-.302-2.597-.908-.671-.605-1.006-1.354-1.006-2.246 0-1.126.418-1.99 1.255-2.593.836-.602 2.032-.903 3.588-.903h1.456v-.693c0-.547-.153-.985-.46-1.314-.305-.329-.771-.493-1.396-.493-.54 0-.983.135-1.328.405-.345.27-.518.614-.518 1.03h-2.373c0-.579.192-1.12.576-1.626.385-.504.907-.9 1.568-1.186.66-.286 1.398-.43 2.212-.43 1.237 0 2.223.311 2.959.933.735.622 1.113 1.496 1.133 2.622v4.766c0 .95.133 1.709.4 2.275V59h-2.422zm-2.607-1.709a2.7 2.7 0 001.323-.342c.413-.228.724-.534.933-.918V54.04h-1.28c-.879 0-1.54.153-1.982.459-.443.306-.664.739-.664 1.299 0 .456.151.819.454 1.089.303.27.708.405 1.216.405zM91.02 45.865v2.569h1.865v1.757H91.02v5.899c0 .403.08.695.239.874.16.179.444.268.854.268.274 0 .55-.032.83-.097v1.836c-.54.15-1.06.224-1.562.224-1.823 0-2.735-1.006-2.735-3.017V50.19h-1.738v-1.757h1.738v-2.569h2.374zM97.22 59h-2.372V48.434h2.373V59zm-2.519-13.31c0-.365.116-.668.347-.909.231-.24.561-.361.991-.361.43 0 .762.12.996.361.235.241.352.544.352.908 0 .359-.117.656-.352.894-.234.238-.566.356-.996.356-.43 0-.76-.118-.991-.356a1.23 1.23 0 01-.347-.894zm4.658 7.93c0-1.036.205-1.969.616-2.799.41-.83.986-1.468 1.728-1.914.742-.446 1.595-.669 2.559-.669 1.426 0 2.583.46 3.471 1.377.89.918 1.37 2.136 1.44 3.653l.01.556c0 1.042-.2 1.973-.6 2.793-.4.82-.973 1.455-1.719 1.904-.745.45-1.606.674-2.583.674-1.49 0-2.684-.496-3.579-1.489-.895-.993-1.343-2.316-1.343-3.97v-.117zm2.373.204c0 1.087.225 1.939.674 2.554.45.615 1.074.923 1.875.923.801 0 1.424-.313 1.87-.938.446-.625.67-1.54.67-2.744 0-1.068-.23-1.914-.69-2.539-.458-.625-1.082-.937-1.87-.937-.774 0-1.39.307-1.845.922-.456.616-.684 1.535-.684 2.76zm11.66-5.39l.069 1.22c.781-.944 1.807-1.416 3.076-1.416 2.2 0 3.32 1.26 3.36 3.78V59h-2.374v-6.846c0-.67-.144-1.167-.434-1.489-.29-.322-.763-.483-1.421-.483-.957 0-1.67.433-2.139 1.298V59h-2.373V48.434h2.237zm14.844 7.695c0-.423-.174-.746-.522-.967-.348-.221-.926-.417-1.734-.586-.807-.17-1.48-.384-2.021-.644-1.185-.573-1.777-1.403-1.777-2.49 0-.912.384-1.674 1.152-2.286.768-.612 1.745-.918 2.93-.918 1.263 0 2.283.313 3.061.938s1.167 1.435 1.167 2.431h-2.373c0-.455-.17-.835-.508-1.137-.338-.303-.787-.454-1.347-.454-.521 0-.946.12-1.275.361a1.14 1.14 0 00-.493.967c0 .364.153.648.46.85.305.201.924.405 1.855.61.93.205 1.661.449 2.192.732.53.283.924.624 1.182 1.02.257.398.385.88.385 1.446 0 .95-.394 1.72-1.181 2.31-.788.589-1.82.883-3.096.883-.866 0-1.637-.156-2.314-.468-.678-.313-1.205-.743-1.583-1.29a3.051 3.051 0 01-.566-1.767h2.305c.032.56.244.991.635 1.294.39.303.908.454 1.552.454.625 0 1.1-.119 1.426-.356.326-.238.488-.549.488-.933zM321.703 17h-1.654V9.009l-2.44.834V8.44l3.882-1.428h.212V17zm10.151 0h-6.692v-1.142l3.316-3.616c.478-.533.819-.978 1.022-1.336.202-.358.304-.717.304-1.077 0-.474-.134-.857-.4-1.148-.267-.292-.626-.438-1.077-.438-.538 0-.955.164-1.25.492-.297.328-.445.777-.445 1.347h-1.661c0-.606.138-1.152.413-1.637.276-.486.67-.863 1.183-1.132.513-.268 1.104-.403 1.774-.403.966 0 1.728.243 2.286.728.559.486.838 1.157.838 2.013 0 .497-.14 1.018-.42 1.562-.28.545-.74 1.164-1.378 1.856l-2.434 2.605h4.621V17zm2.373-1.75c.31 0 .549.088.717.263a.914.914 0 01.253.66.88.88 0 01-.253.646c-.168.17-.408.256-.717.256-.297 0-.531-.084-.705-.253a.867.867 0 01-.26-.65c0-.263.085-.483.254-.659.168-.175.405-.263.71-.263zm0-5.804c.31 0 .549.088.717.263a.914.914 0 01.253.66.88.88 0 01-.253.646c-.168.171-.408.256-.717.256-.297 0-.531-.084-.705-.252a.867.867 0 01-.26-.65c0-.264.085-.484.254-.66.168-.175.405-.263.71-.263zm4.525 1.819h1.012c.51-.005.915-.137 1.213-.397.299-.26.448-.636.448-1.128 0-.474-.124-.842-.373-1.104-.248-.262-.628-.393-1.138-.393-.447 0-.813.129-1.1.386-.288.258-.431.594-.431 1.009h-1.661c0-.51.135-.976.406-1.395.272-.42.65-.746 1.135-.98a3.696 3.696 0 011.63-.353c.994 0 1.774.25 2.342.749.567.499.85 1.193.85 2.081 0 .447-.141.867-.426 1.261a2.68 2.68 0 01-1.104.893c.547.186.962.48 1.247.881.285.401.427.88.427 1.436 0 .893-.306 1.604-.919 2.133-.613.528-1.418.793-2.416.793-.957 0-1.741-.255-2.352-.766-.61-.51-.916-1.19-.916-2.037h1.661c0 .437.147.793.441 1.066.294.274.69.41 1.186.41.515 0 .92-.136 1.217-.41.296-.273.444-.67.444-1.19 0-.523-.155-.926-.465-1.209-.31-.283-.77-.424-1.38-.424h-.978v-1.312zm12.523 1.545c0 1.43-.267 2.51-.803 3.236-.535.727-1.35 1.09-2.444 1.09-1.075 0-1.885-.354-2.43-1.062-.544-.709-.824-1.758-.837-3.148v-1.723c0-1.43.267-2.504.803-3.22.535-.715 1.352-1.073 2.45-1.073 1.09 0 1.902.349 2.438 1.046.535.697.81 1.74.823 3.13v1.724zm-1.66-1.86c0-.934-.128-1.619-.384-2.054-.255-.435-.66-.653-1.216-.653-.543 0-.941.206-1.197.619-.255.412-.39 1.056-.403 1.931v2.256c0 .93.13 1.622.39 2.078.26.456.667.684 1.223.684.534 0 .928-.211 1.183-.633.255-.421.39-1.081.403-1.979V10.95zM277 19l14-14v14h-14zm29-13.125h3V19h-9V5.875h3V5h3v.875zm-49.023 2.14A14.934 14.934 0 01266 5c3.387 0 6.512 1.123 9.023 3.016L266 19l-9.023-10.984z"/>
  </g>
</svg>
