<svg xmlns="http://www.w3.org/2000/svg" width="360" height="128"><g fill="none" fill-rule="evenodd"><path fill="#016087" d="M0 0h360v128H0z"/><path fill="#BBC9D5" d="M153.7 105.76a3.6 3.6 0 0 1-1.18 2.48c-.68.6-1.59.9-2.72.9a3.7 3.7 0 0 1-3.5-2.17c-.32-.7-.5-1.5-.5-2.41v-.93c0-.94.16-1.77.49-2.48a3.76 3.76 0 0 1 3.59-2.24c1.1 0 1.98.3 2.65.9.67.6 1.06 1.44 1.17 2.53h-1.72c-.09-.72-.3-1.24-.63-1.55-.33-.32-.82-.48-1.47-.48-.75 0-1.33.28-1.73.83-.4.55-.61 1.35-.62 2.41v.88c0 1.08.19 1.9.57 2.46.39.57.95.85 1.7.85.68 0 1.19-.15 1.53-.46.34-.3.56-.8.65-1.52h1.72zm9.49-1.48c0 .98-.17 1.83-.5 2.57a3.82 3.82 0 0 1-3.62 2.29 3.88 3.88 0 0 1-3.62-2.28 5.92 5.92 0 0 1-.52-2.52v-.56c0-.97.17-1.83.52-2.57a3.8 3.8 0 0 1 3.61-2.3 3.84 3.84 0 0 1 3.6 2.27c.35.73.52 1.58.53 2.55v.55zm-1.73-.52c0-1.1-.21-1.94-.63-2.53-.41-.59-1-.88-1.77-.88-.75 0-1.33.29-1.75.87a4.26 4.26 0 0 0-.65 2.49v.57c0 1.1.21 1.94.64 2.54.43.6 1.02.9 1.77.9.77 0 1.36-.3 1.77-.88.41-.58.62-1.44.62-2.56v-.52zm5.7-4.71 2.86 7.63 2.87-7.63h2.23V109h-1.72v-3.28l.17-4.39-2.94 7.67h-1.24l-2.93-7.66.17 4.38V109h-1.72v-9.95h2.24zm12.25 0 2.87 7.63 2.87-7.63h2.23V109h-1.72v-3.28l.17-4.39-2.94 7.67h-1.24l-2.93-7.66.17 4.38V109h-1.72v-9.95h2.24zm15.83 5.5h-4.09v3.07h4.78V109h-6.5v-9.95h6.45v1.4h-4.73v2.74h4.1v1.37zm10 4.45h-1.73l-4.44-7.06V109h-1.73v-9.95h1.73l4.45 7.09v-7.1h1.72V109zm9.03-8.56h-3.1V109h-1.72v-8.56h-3.07v-1.4h7.9v1.4zm6.4 6c0-.44-.15-.78-.46-1.01-.3-.24-.86-.48-1.67-.72s-1.44-.51-1.9-.81c-.92-.57-1.37-1.31-1.37-2.23 0-.8.33-1.46.98-1.98.66-.52 1.5-.78 2.55-.78.7 0 1.3.13 1.85.38a3.04 3.04 0 0 1 1.28 1.1c.3.47.46.99.46 1.56h-1.72c0-.52-.16-.92-.49-1.22-.32-.3-.79-.44-1.4-.44-.56 0-1 .12-1.31.36-.31.24-.47.58-.47 1.01 0 .37.17.67.5.92.34.24.9.48 1.67.7.78.24 1.4.5 1.87.8.47.29.81.62 1.03 1 .22.39.33.83.33 1.34 0 .83-.32 1.5-.95 1.98-.64.5-1.5.74-2.59.74-.72 0-1.38-.14-1.99-.4a3.34 3.34 0 0 1-1.4-1.1 2.75 2.75 0 0 1-.5-1.65h1.72c0 .57.19 1 .56 1.31.38.31.91.47 1.61.47.6 0 1.05-.12 1.36-.37a1.18 1.18 0 0 0 .45-.96zm32.33-1.66h-4V109h-1.74v-9.95h6.32v1.4H249v2.95h4v1.38zm9.9-.5c0 .98-.17 1.83-.51 2.57a3.82 3.82 0 0 1-3.61 2.29 3.88 3.88 0 0 1-3.62-2.28 5.92 5.92 0 0 1-.52-2.52v-.56c0-.97.17-1.83.51-2.57a3.83 3.83 0 0 1 3.62-2.3 3.84 3.84 0 0 1 3.6 2.27c.35.73.52 1.58.52 2.55v.55zm-1.73-.52c0-1.1-.21-1.94-.63-2.53-.42-.59-1-.88-1.77-.88-.75 0-1.34.29-1.76.87a4.26 4.26 0 0 0-.64 2.49v.57c0 1.1.21 1.94.64 2.54.42.6 1.01.9 1.77.9.77 0 1.35-.3 1.77-.88.4-.58.62-1.44.62-2.56v-.52zm5.18 3.86h4.52V109h-6.25v-9.95h1.73v8.57zm7.57 0h4.52V109h-6.25v-9.95h1.73v8.57zm13.35-3.34c0 .98-.17 1.83-.5 2.57a3.83 3.83 0 0 1-3.61 2.29 3.88 3.88 0 0 1-3.62-2.28 5.92 5.92 0 0 1-.53-2.52v-.56c0-.97.18-1.83.52-2.57a3.89 3.89 0 0 1 3.61-2.3 3.84 3.84 0 0 1 3.6 2.27c.35.73.53 1.58.53 2.55v.55zm-1.73-.52c0-1.1-.2-1.94-.62-2.53a2.05 2.05 0 0 0-1.78-.88c-.74 0-1.33.29-1.75.87a4.26 4.26 0 0 0-.65 2.49v.57c0 1.1.22 1.94.64 2.54.43.6 1.02.9 1.78.9s1.35-.3 1.76-.88c.42-.58.62-1.44.62-2.56v-.52zm11.26 2.78 1.53-7.5h1.72l-2.3 9.96h-1.65l-1.9-7.27-1.93 7.27h-1.66l-2.3-9.95h1.72l1.54 7.47 1.9-7.47h1.45l1.88 7.49zm9.71-.1c0-.44-.15-.78-.46-1.01-.3-.24-.86-.48-1.66-.72s-1.44-.51-1.92-.81c-.9-.57-1.36-1.31-1.36-2.23 0-.8.33-1.46.98-1.98.66-.52 1.5-.78 2.55-.78.7 0 1.31.13 1.86.38a3.04 3.04 0 0 1 1.27 1.1c.31.47.47.99.47 1.56h-1.73c0-.52-.16-.92-.48-1.22-.33-.3-.8-.44-1.4-.44-.57 0-1 .12-1.32.36a1.2 1.2 0 0 0-.47 1.01c0 .37.17.67.51.92.34.24.9.48 1.67.7.77.24 1.4.5 1.86.8.47.29.82.62 1.04 1 .21.39.32.83.32 1.34 0 .83-.31 1.5-.95 1.98-.64.5-1.5.74-2.59.74-.72 0-1.38-.14-1.98-.4a3.34 3.34 0 0 1-1.41-1.1 2.75 2.75 0 0 1-.5-1.65h1.73c0 .57.18 1 .56 1.31.37.31.9.47 1.6.47.6 0 1.06-.12 1.36-.37a1.18 1.18 0 0 0 .46-.96zm29.87 1.18h4.52V109h-6.25v-9.95h1.73v8.57zm7.67 1.38h-1.72v-9.95h1.72V109zm4.99-4.3-1.13 1.2v3.1h-1.73v-9.95h1.73v4.67l.96-1.19 2.9-3.48h2.1l-3.7 4.4 3.91 5.55h-2.05l-3-4.3zm11.78-.14h-4.09v3.06h4.78V109h-6.5v-9.95h6.45v1.4h-4.73v2.74h4.1v1.37zm7.3 1.88c0-.44-.15-.78-.46-1.01-.3-.24-.86-.48-1.66-.72a8 8 0 0 1-1.92-.81c-.9-.57-1.36-1.31-1.36-2.23 0-.8.33-1.46.98-1.98.66-.52 1.5-.78 2.55-.78.7 0 1.31.13 1.85.38a3.04 3.04 0 0 1 1.28 1.1c.31.47.47.99.47 1.56h-1.73c0-.52-.16-.92-.49-1.22-.32-.3-.79-.44-1.4-.44-.56 0-1 .12-1.31.36a1.2 1.2 0 0 0-.47 1.01c0 .37.17.67.5.92.35.24.9.48 1.68.7.77.24 1.4.5 1.86.8.47.29.82.62 1.03 1 .22.39.33.83.33 1.34 0 .83-.32 1.5-.95 1.98-.64.5-1.5.74-2.59.74-.72 0-1.38-.14-1.99-.4a3.34 3.34 0 0 1-1.4-1.1 2.75 2.75 0 0 1-.5-1.65h1.72c0 .57.2 1 .56 1.31.38.31.91.47 1.61.47.6 0 1.05-.12 1.36-.37a1.18 1.18 0 0 0 .45-.96zM74.2 99.04v6.66c0 1.06-.34 1.9-1.01 2.51-.68.62-1.58.93-2.7.93-1.15 0-2.05-.3-2.72-.92-.67-.6-1-1.45-1-2.53v-6.64h1.72v6.66c0 .66.17 1.17.5 1.52.34.35.84.53 1.5.53 1.32 0 1.99-.7 1.99-2.11v-6.6h1.72zm9.74 9.96h-1.73l-4.43-7.06V109h-1.73v-9.95h1.73l4.45 7.09v-7.1h1.71V109zm5.7-3.83h-1.92V109h-1.73v-9.95h3.5c1.14 0 2.03.25 2.66.77.62.51.93 1.26.93 2.24a2.8 2.8 0 0 1-.48 1.67c-.32.45-.77.79-1.34 1.03l2.23 4.15v.09h-1.85l-2-3.83zm-1.92-1.4h1.77a2 2 0 0 0 1.37-.43c.33-.3.5-.7.5-1.21 0-.53-.16-.95-.46-1.24-.3-.29-.76-.44-1.36-.45h-1.82v3.34zm12.82.79h-4.09v3.06h4.78V109h-6.5v-9.95h6.45v1.4h-4.73v2.74h4.09v1.37zm7.67 2.12h-3.86l-.8 2.32h-1.8l3.76-9.95h1.55l3.77 9.95h-1.8l-.82-2.32zm-3.37-1.4h2.88l-1.44-4.12-1.44 4.13zm7.12 3.72v-9.95h2.94c.88 0 1.66.2 2.34.59a4 4 0 0 1 1.58 1.66c.37.72.56 1.55.56 2.48v.5c0 .94-.19 1.77-.56 2.49a3.96 3.96 0 0 1-1.61 1.65c-.7.39-1.5.58-2.39.58h-2.86zm1.73-8.56v7.18h1.12c.91 0 1.6-.28 2.1-.85.48-.57.72-1.38.73-2.45v-.55a3.8 3.8 0 0 0-.7-2.47c-.47-.57-1.15-.86-2.04-.86h-1.21z"/><path fill="#FFF" d="M0 128v-2h53v2H0zm20.85-21.32H17l-.81 2.32h-1.8l3.76-9.95h1.55l3.77 9.95h-1.8l-.82-2.32zm-3.37-1.4h2.88l-1.44-4.12-1.44 4.13zm8.85 2.34h4.51V109H24.6v-9.95h1.73v8.57zm7.57 0h4.52V109h-6.25v-9.95h1.73v8.57zM28.73 59h-2.48l-6.33-10.09V59h-2.47V44.78h2.47l6.35 10.13V44.78h2.46V59zm2.24-5.38c0-1.04.2-1.97.62-2.8a4.5 4.5 0 0 1 1.72-1.91c.75-.45 1.6-.67 2.56-.67 1.43 0 2.59.46 3.48 1.37a5.42 5.42 0 0 1 1.43 3.66l.01.55a6.3 6.3 0 0 1-.6 2.8 4.4 4.4 0 0 1-1.72 1.9 4.9 4.9 0 0 1-2.58.67c-1.49 0-2.68-.5-3.58-1.48a5.7 5.7 0 0 1-1.34-3.97v-.12zm2.37.2c0 1.1.23 1.94.68 2.56a2.2 2.2 0 0 0 1.87.92c.8 0 1.43-.31 1.87-.94a4.7 4.7 0 0 0 .67-2.74 4.2 4.2 0 0 0-.69-2.54 2.2 2.2 0 0 0-1.87-.94c-.77 0-1.39.31-1.84.93a4.62 4.62 0 0 0-.69 2.75zm12.43-7.96v2.57h1.87v1.76h-1.87v5.9c0 .4.08.7.24.87.17.18.45.27.86.27.27 0 .55-.03.83-.1v1.84c-.54.15-1.06.22-1.56.22-1.83 0-2.74-1-2.74-3.01v-5.99h-1.74v-1.76h1.74v-2.57h2.38zM51.98 59H49.6V48.43h2.38V59zm-2.51-13.31c0-.36.11-.67.34-.9.23-.25.56-.37 1-.37.42 0 .76.12 1 .36.22.24.34.54.34.9 0 .37-.12.67-.35.9-.23.24-.57.36-1 .36-.43 0-.76-.12-.99-.36a1.23 1.23 0 0 1-.34-.9zM55.4 59v-8.8h-1.62v-1.77h1.62v-.96c0-1.17.32-2.08.97-2.72a3.74 3.74 0 0 1 2.74-.95 5.5 5.5 0 0 1 1.32.17l-.05 1.86a4.67 4.67 0 0 0-.91-.08c-1.14 0-1.7.58-1.7 1.75v.93h2.15v1.76h-2.15V59h-2.38zm8.77 0H61.8V48.43h2.37V59zm-2.52-13.31c0-.36.12-.67.35-.9.23-.25.56-.37 1-.37.42 0 .75.12.99.36.23.24.35.54.35.9 0 .37-.12.67-.35.9-.24.24-.57.36-1 .36-.43 0-.76-.12-.99-.36a1.23 1.23 0 0 1-.35-.9zM71.1 57.3c.59 0 1.08-.17 1.47-.52.4-.34.6-.77.63-1.28h2.23a3.49 3.49 0 0 1-.61 1.84 4.04 4.04 0 0 1-1.56 1.36 4.66 4.66 0 0 1-2.13.5 4.5 4.5 0 0 1-3.52-1.44 5.7 5.7 0 0 1-1.3-3.97v-.24c0-1.6.43-2.9 1.3-3.86a4.46 4.46 0 0 1 3.5-1.45c1.26 0 2.29.36 3.08 1.1.79.73 1.2 1.7 1.24 2.88H73.2c-.03-.6-.24-1.1-.62-1.5a2 2 0 0 0-1.48-.58 2.1 2.1 0 0 0-1.78.84c-.42.55-.63 1.4-.63 2.53v.38c0 1.15.2 2 .62 2.57.4.56 1 .84 1.79.84zM83.54 59c-.1-.2-.2-.53-.27-.99a3.7 3.7 0 0 1-2.78 1.19c-1.06 0-1.92-.3-2.6-.91a2.9 2.9 0 0 1-1-2.25 3 3 0 0 1 1.25-2.6c.84-.6 2.04-.9 3.6-.9h1.45v-.69c0-.55-.15-.98-.46-1.31-.3-.33-.77-.5-1.4-.5-.54 0-.98.14-1.33.41-.34.27-.51.61-.51 1.03H77.1c0-.58.2-1.12.58-1.63.38-.5.9-.9 1.57-1.18.66-.29 1.4-.43 2.2-.43 1.25 0 2.23.3 2.97.93.73.62 1.11 1.5 1.13 2.62v4.77c0 .95.13 1.7.4 2.27V59h-2.42zm-2.6-1.7a2.7 2.7 0 0 0 1.32-.35c.4-.23.72-.54.93-.92v-1.99H81.9a3.5 3.5 0 0 0-1.98.46c-.45.3-.67.74-.67 1.3 0 .45.15.82.46 1.09.3.27.7.4 1.21.4zm10.08-11.43v2.56h1.86v1.76h-1.86v5.9c0 .4.08.7.24.87.16.18.44.27.85.27.28 0 .55-.03.83-.1v1.84c-.54.15-1.06.23-1.56.23-1.82 0-2.73-1.01-2.73-3.02v-5.99H86.9v-1.76h1.74v-2.57h2.37zM97.22 59h-2.37V48.43h2.37V59zM94.7 45.69c0-.36.12-.67.35-.9.23-.25.56-.37.99-.37.43 0 .76.12 1 .36.23.24.35.54.35.9 0 .37-.12.67-.36.9-.23.24-.56.36-1 .36a1.3 1.3 0 0 1-.98-.36 1.23 1.23 0 0 1-.35-.9zm4.66 7.93c0-1.04.2-1.97.61-2.8a4.5 4.5 0 0 1 1.73-1.91c.74-.45 1.6-.67 2.56-.67 1.43 0 2.58.46 3.47 1.37a5.4 5.4 0 0 1 1.44 3.66l.01.55a6.3 6.3 0 0 1-.6 2.8 4.4 4.4 0 0 1-1.72 1.9 4.9 4.9 0 0 1-2.58.67c-1.49 0-2.68-.5-3.58-1.48a5.7 5.7 0 0 1-1.34-3.97v-.12zm2.37.2c0 1.1.23 1.94.68 2.56a2.2 2.2 0 0 0 1.87.92c.8 0 1.43-.31 1.87-.94a4.7 4.7 0 0 0 .67-2.74 4.2 4.2 0 0 0-.69-2.54 2.2 2.2 0 0 0-1.87-.94c-.77 0-1.39.31-1.84.93a4.62 4.62 0 0 0-.69 2.75zm11.66-5.39.07 1.22a3.8 3.8 0 0 1 3.08-1.41c2.2 0 3.32 1.26 3.36 3.78V59h-2.38v-6.85c0-.67-.14-1.16-.43-1.49-.3-.32-.76-.48-1.42-.48a2.3 2.3 0 0 0-2.14 1.3V59h-2.37V48.43h2.23zm14.85 7.7c0-.42-.18-.75-.53-.97a5.55 5.55 0 0 0-1.73-.58 8.98 8.98 0 0 1-2.02-.65c-1.19-.57-1.78-1.4-1.78-2.49 0-.91.39-1.67 1.15-2.28a4.56 4.56 0 0 1 2.93-.92c1.27 0 2.29.31 3.06.94s1.17 1.43 1.17 2.43h-2.37c0-.46-.17-.84-.5-1.14-.35-.3-.8-.45-1.36-.45-.52 0-.94.12-1.27.36a1.14 1.14 0 0 0-.5.96c0 .37.16.65.47.85.3.2.92.4 1.85.61.93.2 1.66.45 2.2.74.52.28.92.62 1.18 1.02.25.4.38.88.38 1.44 0 .95-.4 1.72-1.18 2.31-.79.6-1.82.88-3.1.88a5.5 5.5 0 0 1-2.31-.46 3.81 3.81 0 0 1-1.58-1.3 3.05 3.05 0 0 1-.57-1.76h2.3c.04.56.25 1 .64 1.3.39.3.9.45 1.55.45.63 0 1.1-.12 1.43-.36.32-.24.49-.55.49-.93zM321.7 17h-1.65V9l-2.44.84v-1.4l3.88-1.43h.21V17zm10.15 0h-6.69v-1.14l3.32-3.62c.48-.53.82-.98 1.02-1.33.2-.36.3-.72.3-1.08 0-.47-.13-.86-.4-1.15-.26-.3-.62-.44-1.07-.44-.54 0-.96.17-1.25.5-.3.32-.45.77-.45 1.34h-1.66c0-.6.14-1.15.41-1.64.28-.48.67-.86 1.19-1.13.51-.27 1.1-.4 1.77-.4.97 0 1.73.24 2.29.73.56.48.83 1.15.83 2.01 0 .5-.14 1.02-.42 1.56a8.85 8.85 0 0 1-1.37 1.86l-2.44 2.6h4.62V17zm2.38-1.75c.3 0 .55.09.71.26a.91.91 0 0 1 .26.66.88.88 0 0 1-.26.65.97.97 0 0 1-.71.25.97.97 0 0 1-.7-.25.87.87 0 0 1-.27-.65c0-.26.09-.48.26-.66.16-.17.4-.26.7-.26zm0-5.8c.3 0 .55.08.71.26a.91.91 0 0 1 .26.66.88.88 0 0 1-.26.65c-.16.17-.4.25-.71.25a.97.97 0 0 1-.7-.25.87.87 0 0 1-.27-.65c0-.26.09-.48.26-.66.16-.18.4-.26.7-.26zm4.52 1.82h1.01c.51-.01.92-.14 1.22-.4.3-.26.44-.64.44-1.13 0-.47-.12-.84-.37-1.1-.25-.27-.63-.4-1.14-.4-.44 0-.8.13-1.1.39-.28.26-.43.6-.43 1h-1.66c0-.5.14-.97.4-1.39.28-.42.66-.74 1.14-.98a3.7 3.7 0 0 1 1.63-.35c1 0 1.78.25 2.34.75.57.5.85 1.2.85 2.08 0 .45-.14.87-.42 1.26a2.68 2.68 0 0 1-1.1.9c.54.18.96.47 1.24.87.29.4.43.88.43 1.44 0 .9-.3 1.6-.92 2.13-.61.53-1.42.8-2.42.8-.95 0-1.74-.26-2.35-.77a2.52 2.52 0 0 1-.91-2.04h1.66c0 .44.14.8.44 1.07s.69.41 1.18.41c.52 0 .92-.14 1.22-.41.3-.27.45-.67.45-1.19 0-.52-.16-.93-.47-1.2-.31-.3-.77-.43-1.38-.43h-.98v-1.32zm12.52 1.54c0 1.43-.26 2.51-.8 3.24-.53.72-1.35 1.09-2.44 1.09-1.08 0-1.89-.36-2.43-1.07a5.2 5.2 0 0 1-.84-3.14V11.2c0-1.43.27-2.5.8-3.22.54-.71 1.36-1.07 2.45-1.07 1.1 0 1.9.35 2.44 1.05.54.7.81 1.74.82 3.13v1.72zm-1.66-1.86a4.2 4.2 0 0 0-.38-2.05c-.25-.44-.66-.66-1.22-.66-.54 0-.94.2-1.2.62a3.89 3.89 0 0 0-.4 1.93v2.26c0 .93.13 1.62.4 2.08.25.45.66.68 1.22.68.53 0 .93-.21 1.18-.63.26-.42.4-1.08.4-1.98v-2.25zM277 19l14-14v14h-14zm29-13.13h3V19h-9V5.87h3V5h3v.88zm-49.02 2.15A14.93 14.93 0 0 1 266 5c3.39 0 6.51 1.12 9.02 3.02L266 19l-9.02-10.98z"/></g></svg>