<svg xmlns="http://www.w3.org/2000/svg" width="344" height="90"><g fill="none" fill-rule="evenodd"><path fill="#F6F6F6" d="M0 54h344v36H0z"/><path fill="#636D75" fill-rule="nonzero" d="M69.57 73.8a1 1 0 0 0-.4-.86c-.26-.2-.74-.41-1.42-.62a6.88 6.88 0 0 1-1.64-.7c-.78-.48-1.17-1.12-1.17-1.9 0-.69.28-1.26.84-1.7a3.4 3.4 0 0 1 2.18-.67c.6 0 1.13.11 1.6.33.46.22.82.53 1.09.93.26.4.4.86.4 1.35h-1.48c0-.45-.14-.8-.42-1.05a1.74 1.74 0 0 0-1.2-.38c-.48 0-.86.1-1.13.31-.26.21-.4.5-.4.87 0 .31.15.58.43.78a5 5 0 0 0 1.44.61c.66.2 1.2.43 1.6.68a2.2 2.2 0 0 1 1.16 2.01c0 .71-.27 1.28-.82 1.7-.54.42-1.28.63-2.21.63a4.17 4.17 0 0 1-1.7-.35 2.86 2.86 0 0 1-1.21-.94 2.36 2.36 0 0 1-.43-1.4h1.48c0 .48.16.85.48 1.12.32.26.78.4 1.38.4.51 0 .9-.1 1.16-.32a1 1 0 0 0 .39-.83zm9.47.1 1.31-6.43h1.48L79.86 76h-1.42l-1.62-6.23L75.16 76h-1.43l-1.96-8.53h1.47l1.32 6.4 1.63-6.4h1.24l1.61 6.42zm5.43 2.1H83v-8.53h1.47V76zm8-7.34H89.8V76h-1.47v-7.34h-2.64v-1.19h6.77v1.2zm7.62 4.56a3.08 3.08 0 0 1-1 2.13c-.6.51-1.37.77-2.35.77a3.3 3.3 0 0 1-1.8-.49 3.17 3.17 0 0 1-1.19-1.37 4.97 4.97 0 0 1-.44-2.07v-.8a5 5 0 0 1 .43-2.12 3.22 3.22 0 0 1 3.07-1.92c.95 0 1.7.26 2.28.77.57.51.9 1.23 1 2.17h-1.48c-.07-.62-.25-1.06-.53-1.33-.29-.27-.71-.4-1.27-.4-.64 0-1.14.23-1.48.7a3.52 3.52 0 0 0-.53 2.07v.76c0 .92.16 1.62.5 2.1.32.49.8.73 1.44.73.59 0 1.02-.13 1.32-.4.29-.25.47-.69.55-1.3h1.48zm8.1 2.78h-1.48v-3.8h-3.81V76h-1.49v-8.53h1.49v3.55h3.81v-3.55h1.48V76zm9.2-2.2c0-.37-.14-.66-.4-.86-.26-.2-.74-.41-1.43-.62a6.88 6.88 0 0 1-1.64-.7c-.77-.48-1.16-1.12-1.16-1.9 0-.69.28-1.26.84-1.7a3.4 3.4 0 0 1 2.18-.67c.6 0 1.12.11 1.59.33a2.46 2.46 0 0 1 1.5 2.28h-1.48c0-.45-.14-.8-.42-1.05a1.74 1.74 0 0 0-1.2-.38c-.48 0-.86.1-1.13.31-.27.21-.4.5-.4.87 0 .31.14.58.43.78.3.21.77.42 1.43.61.67.2 1.2.43 1.6.68.4.25.7.54.89.87.18.32.28.7.28 1.14 0 .71-.27 1.28-.82 1.7-.54.42-1.28.63-2.22.63a4.17 4.17 0 0 1-1.7-.35 2.85 2.85 0 0 1-1.2-.94 2.36 2.36 0 0 1-.43-1.4h1.48c0 .48.16.85.48 1.12.32.26.78.4 1.37.4.52 0 .9-.1 1.17-.32a1 1 0 0 0 .39-.83zm4.34 2.2h-1.47v-8.53h1.47V76zm8-7.34h-2.67V76h-1.47v-7.34h-2.64v-1.19h6.77v1.2zm6.1 3.53h-3.5v2.63h4.09V76h-5.58v-8.53h5.54v1.2h-4.06v2.35h3.5v1.17zm-65.4-33.68 1.22-4.85h1.09L70.89 40h-.88l-1.54-4.8-1.5 4.8h-.88l-1.84-6.34h1.08l1.25 4.75 1.47-4.75h.88l1.5 4.85zm3.12-1.74c0-.62.12-1.18.37-1.67a2.73 2.73 0 0 1 1.02-1.15c.43-.27.93-.4 1.49-.4.86 0 1.56.3 2.1.89.53.6.8 1.4.8 2.38v.08c0 .62-.13 1.17-.36 1.66a2.69 2.69 0 0 1-1.02 1.15c-.44.27-.94.4-1.51.4-.86 0-1.56-.3-2.09-.89-.53-.6-.8-1.39-.8-2.37v-.08zm1.1.13c0 .7.15 1.27.48 1.7.33.42.76.63 1.31.63s.99-.21 1.31-.64c.33-.44.49-1.04.49-1.82 0-.7-.17-1.26-.5-1.69a1.57 1.57 0 0 0-1.31-.65c-.54 0-.97.22-1.3.64a3.02 3.02 0 0 0-.49 1.83zm9.1-2.27a3.25 3.25 0 0 0-.54-.04c-.7 0-1.19.3-1.44.91V40h-1.09v-6.34h1.06l.01.73a1.71 1.71 0 0 1 2-.77v1.01zm.62 2.15c0-.98.23-1.76.69-2.35.46-.6 1.06-.89 1.8-.89.75 0 1.34.26 1.77.77V31h1.09v9h-1l-.05-.68a2.2 2.2 0 0 1-1.81.8c-.74 0-1.34-.3-1.8-.9a3.8 3.8 0 0 1-.7-2.36v-.08zm1.08.12c0 .72.15 1.28.45 1.69.3.4.7.6 1.23.6.68 0 1.19-.3 1.5-.92v-2.91a1.6 1.6 0 0 0-1.5-.9c-.52 0-.94.2-1.23.62a3.1 3.1 0 0 0-.45 1.82zm11.3 0a3.8 3.8 0 0 1-.66 2.33c-.44.6-1.04.89-1.8.89s-1.37-.25-1.8-.74v3.06h-1.1v-8.78h1l.05.7a2.23 2.23 0 0 1 1.84-.82c.76 0 1.37.29 1.8.86.45.58.67 1.38.67 2.4v.1zm-1.08-.12a2.8 2.8 0 0 0-.46-1.7c-.3-.41-.72-.62-1.25-.62a1.6 1.6 0 0 0-1.48.88v3.03c.33.57.82.86 1.5.86.51 0 .92-.2 1.23-.62.3-.4.46-1.02.46-1.83zm5.53-2.15a3.25 3.25 0 0 0-.54-.04c-.7 0-1.2.3-1.44.91V40h-1.09v-6.34h1.05l.02.73a1.7 1.7 0 0 1 1.99-.77v1.01zm3.51 5.49c-.86 0-1.56-.28-2.1-.85a3.14 3.14 0 0 1-.8-2.26v-.2c0-.63.12-1.2.36-1.69s.57-.88 1-1.16c.43-.28.9-.42 1.4-.42.83 0 1.47.27 1.93.82.46.54.68 1.32.68 2.33v.45h-4.3c.02.63.2 1.13.56 1.52.35.38.79.57 1.33.57a1.96 1.96 0 0 0 1.67-.85l.66.51a2.66 2.66 0 0 1-2.39 1.23zm-.13-5.69c-.44 0-.8.16-1.1.48-.3.32-.48.77-.56 1.34h3.18v-.08a2.07 2.07 0 0 0-.45-1.28c-.26-.3-.62-.46-1.07-.46zm7.55 3.89a.8.8 0 0 0-.33-.68 3.2 3.2 0 0 0-1.16-.42 5.4 5.4 0 0 1-1.3-.42 1.87 1.87 0 0 1-.72-.6 1.4 1.4 0 0 1-.23-.8c0-.52.22-.96.66-1.32.44-.36 1-.54 1.68-.54.72 0 1.3.19 1.75.56.45.37.67.85.67 1.42h-1.09c0-.3-.12-.55-.37-.76a1.42 1.42 0 0 0-.96-.33c-.39 0-.7.09-.92.26a.81.81 0 0 0-.33.68c0 .26.1.46.3.59a4 4 0 0 0 1.13.38c.54.12.98.26 1.31.43.34.17.59.37.75.6.16.24.24.53.24.87a1.6 1.6 0 0 1-.68 1.36c-.45.35-1.04.52-1.76.52-.5 0-.96-.1-1.35-.27a2.2 2.2 0 0 1-.92-.76 1.81 1.81 0 0 1-.33-1.04h1.09c.02.36.16.65.43.86.28.22.63.32 1.08.32.41 0 .74-.08.99-.25a.76.76 0 0 0 .37-.66zm6.19 0a.8.8 0 0 0-.33-.68 3.2 3.2 0 0 0-1.16-.42 5.42 5.42 0 0 1-1.3-.42 1.86 1.86 0 0 1-.72-.6 1.4 1.4 0 0 1-.23-.8c0-.52.22-.96.66-1.32.44-.36 1-.54 1.68-.54.72 0 1.3.19 1.75.56.45.37.67.85.67 1.42h-1.09c0-.3-.12-.55-.38-.76a1.42 1.42 0 0 0-.95-.33c-.4 0-.7.09-.92.26a.81.81 0 0 0-.34.68c0 .26.1.46.31.59.21.13.58.26 1.12.38.54.12.98.26 1.32.43.34.17.58.37.75.6.16.24.24.53.24.87a1.62 1.62 0 0 1-.68 1.36c-.45.35-1.04.52-1.76.52-.51 0-.96-.1-1.35-.27a2.2 2.2 0 0 1-.92-.76 1.81 1.81 0 0 1-.33-1.04h1.08c.02.36.17.65.44.86.27.22.63.32 1.08.32.4 0 .74-.08.98-.25a.76.76 0 0 0 .38-.66zm2.52 1.11c0-.19.05-.34.16-.47.11-.12.28-.18.5-.18.23 0 .4.06.51.18a.67.67 0 0 1 .17.47.63.63 0 0 1-.17.45c-.11.12-.28.18-.5.18-.23 0-.4-.06-.5-.18a.64.64 0 0 1-.17-.45zm5.67-.2c.39 0 .73-.11 1.02-.35.29-.23.45-.53.48-.88h1.02c-.02.37-.14.71-.37 1.04a2.47 2.47 0 0 1-.92.78 2.66 2.66 0 0 1-1.23.3c-.86 0-1.55-.3-2.06-.87a3.44 3.44 0 0 1-.76-2.36v-.18c0-.62.11-1.17.34-1.65a2.6 2.6 0 0 1 2.48-1.52c.7 0 1.3.22 1.77.64.47.43.72.98.75 1.66h-1.02a1.5 1.5 0 0 0-.47-1.01 1.45 1.45 0 0 0-1.03-.4c-.55 0-.98.2-1.28.6-.3.4-.46.97-.46 1.72v.2c0 .73.15 1.3.45 1.7.3.39.73.58 1.3.58zm3.45-2.46c0-.62.13-1.18.37-1.67a2.73 2.73 0 0 1 1.02-1.15c.44-.27.93-.4 1.5-.4.86 0 1.55.3 2.09.89.53.6.8 1.4.8 2.38v.08c0 .62-.12 1.17-.36 1.66-.23.5-.57.87-1.01 1.15a2.81 2.81 0 0 1-1.52.4 2.7 2.7 0 0 1-2.09-.89c-.53-.6-.8-1.39-.8-2.37v-.08zm1.1.13c0 .7.16 1.27.48 1.7.33.42.77.63 1.31.63.55 0 1-.21 1.32-.64.32-.44.48-1.04.48-1.82 0-.7-.16-1.26-.5-1.69a1.57 1.57 0 0 0-1.3-.65c-.54 0-.97.22-1.3.64-.33.43-.5 1.04-.5 1.83zm7.05-3.24.03.7c.47-.54 1.1-.82 1.89-.82.88 0 1.49.34 1.8 1.02.22-.3.5-.55.83-.74.34-.18.74-.28 1.2-.28 1.39 0 2.1.74 2.12 2.21V40h-1.08v-4.18c0-.46-.1-.8-.32-1.02-.2-.22-.55-.34-1.04-.34-.4 0-.73.12-1 .36s-.42.57-.46.97V40h-1.1v-4.15c0-.93-.44-1.39-1.35-1.39-.7 0-1.2.3-1.46.91V40h-1.08v-6.34h1.02z"/><path fill="#969CA1" fill-rule="nonzero" d="M23.33 71.33h-8.11l3.73-3.72-.95-.94L12.67 72 18 77.33l.94-.94-3.72-3.72h8.11z"/><path fill="#1A1A1A" fill-rule="nonzero" d="m66.85 13.05 3.25 8.12 3.26-8.12h1.7V23h-1.31v-3.88l.12-4.18L70.6 23h-1l-3.26-8.04.13 4.16V23h-1.31v-9.95h1.7zm12.75 8.1 1.72-5.55h1.36l-2.98 8.54c-.46 1.23-1.19 1.85-2.2 1.85l-.23-.02-.47-.1v-1.02l.34.03c.43 0 .76-.09 1-.26s.44-.49.6-.95l.27-.75-2.64-7.32h1.38l1.85 5.55zm10.8-2.59a6.16 6.16 0 0 1-2.46-1.19 2.28 2.28 0 0 1-.77-1.75c0-.78.32-1.43.94-1.94a3.74 3.74 0 0 1 2.45-.77 4 4 0 0 1 1.83.4 3 3 0 0 1 1.24 1.09c.3.46.44.97.44 1.52h-1.32c0-.6-.19-1.07-.57-1.41a2.34 2.34 0 0 0-1.62-.52 2.4 2.4 0 0 0-1.52.43c-.36.28-.54.68-.54 1.18 0 .4.17.75.52 1.03a5 5 0 0 0 1.75.77c.83.23 1.48.49 1.94.77a2.5 2.5 0 0 1 1.38 2.3c0 .8-.31 1.45-.94 1.94-.63.48-1.47.73-2.52.73a4.68 4.68 0 0 1-1.92-.4 3.2 3.2 0 0 1-1.37-1.07 2.63 2.63 0 0 1-.48-1.56h1.32c0 .6.22 1.08.66 1.43.45.35 1.04.52 1.79.52.69 0 1.22-.14 1.59-.42s.55-.67.55-1.16c0-.48-.17-.86-.51-1.13a5.91 5.91 0 0 0-1.86-.79zM96.95 23h-1.26v-7.4h1.26V23zm-1.37-9.36c0-.2.07-.38.19-.52.13-.14.31-.21.56-.21.24 0 .43.07.56.21a.75.75 0 0 1 .19.52.72.72 0 0 1-.2.51c-.12.14-.3.2-.55.2-.25 0-.43-.06-.56-.2a.73.73 0 0 1-.19-.5zm5.1.17v1.8h1.39v.97h-1.38v4.59c0 .3.06.52.18.66.13.15.34.23.63.23.15 0 .35-.03.6-.09V23a3.67 3.67 0 0 1-.97.14c-.56 0-.99-.17-1.28-.52a2.2 2.2 0 0 1-.43-1.45v-4.59h-1.34v-.98h1.34v-1.79h1.27zm5.93 9.33c-1 0-1.81-.33-2.44-1a3.67 3.67 0 0 1-.94-2.63v-.24c0-.73.14-1.38.42-1.96a3.28 3.28 0 0 1 1.17-1.35 2.96 2.96 0 0 1 1.64-.5c.96 0 1.7.32 2.24.96.53.63.8 1.54.8 2.72v.52h-5.01c.02.73.23 1.32.64 1.77a2 2 0 0 0 1.55.67c.45 0 .83-.09 1.14-.27.3-.18.58-.42.81-.72l.77.6a3.1 3.1 0 0 1-2.78 1.43zm-.15-6.63c-.51 0-.94.18-1.29.55-.34.37-.56.9-.64 1.57h3.7v-.1a2.4 2.4 0 0 0-.51-1.5 1.58 1.58 0 0 0-1.26-.52zm14.77-2.38h-3.2V23h-1.3v-8.87h-3.2v-1.08h7.7v1.08zm2.65 8.87h-1.26v-7.4h1.26V23zm-1.36-9.36c0-.2.06-.38.18-.52.13-.14.31-.21.56-.21.25 0 .43.07.56.21a.75.75 0 0 1 .2.52.72.72 0 0 1-.2.51c-.13.14-.31.2-.56.2-.25 0-.43-.06-.56-.2a.73.73 0 0 1-.18-.5zm5.1.17v1.8H129v.97h-1.38v4.59c0 .3.06.52.19.66.12.15.33.23.63.23.14 0 .34-.03.6-.09V23a3.67 3.67 0 0 1-.97.14c-.57 0-1-.17-1.28-.52a2.2 2.2 0 0 1-.43-1.45v-4.59H125v-.98h1.35v-1.79h1.26zm4.23 9.19h-1.26V12.5h1.26V23zm5.1.14c-1 0-1.82-.33-2.45-1a3.67 3.67 0 0 1-.94-2.63v-.24c0-.73.14-1.38.42-1.96a3.28 3.28 0 0 1 1.17-1.35 2.96 2.96 0 0 1 1.64-.5c.96 0 1.7.32 2.24.96.53.63.8 1.54.8 2.72v.52h-5c0 .73.22 1.32.63 1.77a2 2 0 0 0 1.55.67c.45 0 .83-.09 1.14-.27.3-.18.58-.42.81-.72l.77.6a3.1 3.1 0 0 1-2.78 1.43zm-.16-6.63c-.51 0-.94.18-1.29.55-.34.37-.56.9-.64 1.57h3.7v-.1a2.4 2.4 0 0 0-.51-1.5 1.6 1.6 0 0 0-1.26-.52z"/><path fill="#000" d="M8 8h38v38H8z"/></g></svg>