<svg xmlns="http://www.w3.org/2000/svg" width="360" height="80">
  <g id="screenshot-activity-top" fill="none" fill-rule="evenodd" stroke="none" stroke-width="1">
    <path id="Background/Blue-500" fill="#016087" d="M0 0h360v80H0z"/>
    <path id="Labels/White" fill="#FFF" d="M81.404 55.69h-5.508L74.744 59h-2.568l5.37-14.219h2.218L85.144 59h-2.578l-1.162-3.31zm-4.814-1.993h4.12L78.65 47.8l-2.06 5.898zm14.277 3.604c.593 0 1.084-.173 1.475-.518a1.77 1.77 0 0 0 .625-1.28h2.236a3.486 3.486 0 0 1-.615 1.842 4.035 4.035 0 0 1-1.563 1.352 4.656 4.656 0 0 1-2.129.498c-1.477 0-2.65-.478-3.515-1.435-.866-.957-1.299-2.279-1.299-3.965v-.244c0-1.608.43-2.896 1.29-3.863.858-.966 2.03-1.45 3.515-1.45 1.256 0 2.28.366 3.071 1.099.791.732 1.206 1.694 1.245 2.886h-2.236c-.026-.606-.233-1.104-.62-1.494-.388-.391-.88-.586-1.48-.586-.768 0-1.36.278-1.777.835-.417.556-.628 1.4-.635 2.534v.38c0 1.146.207 2 .62 2.564.414.563 1.01.845 1.792.845zm9.102-11.436v2.569h1.865v1.757h-1.865v5.899c0 .403.08.695.239.874.16.179.444.268.855.268.273 0 .55-.032.83-.097v1.836c-.54.15-1.062.224-1.563.224-1.823 0-2.734-1.006-2.734-3.017V50.19h-1.739v-1.757h1.739v-2.569h2.373zm6.2 13.135h-2.372V48.434h2.373V59zm-2.519-13.31c0-.365.116-.668.347-.909.231-.24.562-.361.991-.361.43 0 .762.12.996.361.235.241.352.544.352.908 0 .359-.117.656-.352.894-.234.238-.566.356-.996.356-.43 0-.76-.118-.99-.356a1.23 1.23 0 0 1-.348-.894zm8.829 10.302l2.236-7.558h2.451L113.504 59h-2.06l-3.692-10.566h2.46l2.267 7.558zm8.69 3.008h-2.372V48.434h2.373V59zm-2.519-13.31c0-.365.116-.668.347-.909.231-.24.562-.361.991-.361.43 0 .762.12.996.361.235.241.352.544.352.908 0 .359-.117.656-.352.894-.234.238-.566.356-.996.356-.43 0-.76-.118-.99-.356a1.23 1.23 0 0 1-.348-.894zm8.077.175v2.569h1.865v1.757h-1.865v5.899c0 .403.08.695.239.874.16.179.444.268.854.268.274 0 .55-.032.83-.097v1.836c-.54.15-1.06.224-1.562.224-1.823 0-2.734-1.006-2.734-3.017V50.19h-1.739v-1.757h1.739v-2.569h2.373zm7.373 9.737l2.148-7.168h2.53l-4.2 12.168c-.644 1.777-1.738 2.666-3.281 2.666a4.25 4.25 0 0 1-1.143-.176v-1.836l.45.03c.598 0 1.05-.11 1.352-.328.303-.218.542-.584.718-1.099l.342-.908-3.711-10.517h2.558l2.237 7.168zM36 51v2H23.83l5.58 5.59L28 60l-8-8 8-8 1.42 1.41L23.83 51H36zm285.703-34h-1.654V9.009l-2.44.834V8.44l3.882-1.428h.212V17zm10.151 0h-6.692v-1.142l3.316-3.616c.478-.533.819-.978 1.022-1.336.202-.358.304-.717.304-1.077 0-.474-.134-.857-.4-1.148-.267-.292-.626-.438-1.077-.438-.538 0-.955.164-1.25.492-.297.328-.445.777-.445 1.347h-1.661c0-.606.138-1.152.413-1.637.276-.486.67-.863 1.183-1.132.513-.268 1.104-.403 1.774-.403.966 0 1.728.243 2.286.728.559.486.838 1.157.838 2.013 0 .497-.14 1.018-.42 1.562-.28.545-.74 1.164-1.378 1.856l-2.434 2.605h4.621V17zm2.373-1.75c.31 0 .549.088.717.263a.914.914 0 0 1 .253.66.88.88 0 0 1-.253.646c-.168.17-.408.256-.717.256-.297 0-.531-.084-.705-.253a.867.867 0 0 1-.26-.65c0-.263.085-.483.254-.659.168-.175.405-.263.71-.263zm0-5.804c.31 0 .549.088.717.263a.914.914 0 0 1 .253.66.88.88 0 0 1-.253.646c-.168.171-.408.256-.717.256-.297 0-.531-.084-.705-.252a.867.867 0 0 1-.26-.65c0-.264.085-.484.254-.66.168-.175.405-.263.71-.263zm4.525 1.819h1.012c.51-.005.915-.137 1.213-.397.299-.26.448-.636.448-1.128 0-.474-.124-.842-.373-1.104-.248-.262-.628-.393-1.138-.393-.447 0-.813.129-1.1.386-.288.258-.431.594-.431 1.009h-1.661c0-.51.135-.976.406-1.395.272-.42.65-.746 1.135-.98a3.696 3.696 0 0 1 1.63-.353c.994 0 1.774.25 2.342.749.567.499.85 1.193.85 2.081 0 .447-.141.867-.426 1.261a2.68 2.68 0 0 1-1.104.893c.547.186.962.48 1.247.881.285.401.427.88.427 1.436 0 .893-.306 1.604-.919 2.133-.613.528-1.418.793-2.416.793-.957 0-1.741-.255-2.352-.766-.61-.51-.916-1.19-.916-2.037h1.661c0 .437.147.793.441 1.066.294.274.69.41 1.186.41.515 0 .92-.136 1.217-.41.296-.273.444-.67.444-1.19 0-.523-.155-.926-.465-1.209-.31-.283-.77-.424-1.38-.424h-.978v-1.312zm12.523 1.545c0 1.43-.267 2.51-.803 3.236-.535.727-1.35 1.09-2.444 1.09-1.075 0-1.885-.354-2.43-1.062-.544-.709-.824-1.758-.837-3.148v-1.723c0-1.43.267-2.504.803-3.22.535-.715 1.352-1.073 2.45-1.073 1.09 0 1.902.349 2.438 1.046.535.697.81 1.74.823 3.13v1.724zm-1.66-1.86c0-.934-.128-1.619-.384-2.054-.255-.435-.66-.653-1.216-.653-.543 0-.941.206-1.197.619-.255.412-.39 1.056-.403 1.931v2.256c0 .93.13 1.622.39 2.078.26.456.667.684 1.223.684.534 0 .928-.211 1.183-.633.255-.421.39-1.081.403-1.979V10.95zM277 19l14-14v14h-14zm29-13.125h3V19h-9V5.875h3V5h3v.875zm-49.023 2.14A14.934 14.934 0 0 1 266 5c3.387 0 6.512 1.123 9.023 3.016L266 19l-9.023-10.984z"/>
  </g>
</svg>
