<svg xmlns="http://www.w3.org/2000/svg" width="360" height="144"><g fill="none" fill-rule="evenodd"><path fill="#E1E2E2" d="M0 71h360v1H0z"/><path fill="#008A00" d="M36 56a20 20 0 1 1 0-40 20 20 0 0 1 0 40z"/><path fill="#FFF" fill-rule="nonzero" d="M26.12 37.53h2.03A8.03 8.03 0 0 0 36 44c4.4 0 8-3.6 8-8s-3.6-8-8-8c-2.5 0-4.8 1.2-6.2 3H33v2h-7v-7h2v4a10 10 0 1 1-1.88 7.53zM35 31h2v4.7l2.8 3.7-1.6 1.2-3.2-4.3V31z"/><path fill="#F6C200" d="M36 128a20 20 0 1 1 0-40 20 20 0 0 1 0 40z"/><path fill="#FFF" d="M36 98a10 10 0 1 0 0 20 10 10 0 0 0 0-20zm1 15h-2v-2h2v2zm0-4h-2l-.5-6h3l-.5 6z"/><path fill="#1A1A1A" d="M77.5 26.4h-2.68V31h-1.5V19.62h3.76c1.28 0 2.26.3 2.95.88s1.04 1.43 1.04 2.55c0 .7-.2 1.32-.57 1.85-.39.52-.92.92-1.6 1.18l2.67 4.83V31h-1.61l-2.47-4.6zm-2.68-1.23h2.3c.75 0 1.34-.2 1.78-.58.44-.38.66-.9.66-1.54 0-.7-.2-1.25-.63-1.62-.42-.38-1.02-.56-1.81-.57h-2.3v4.31zm11.63 5.99a3.7 3.7 0 0 1-2.8-1.13A4.19 4.19 0 0 1 82.59 27v-.27c0-.84.16-1.59.48-2.24a3.75 3.75 0 0 1 1.34-1.55 3.38 3.38 0 0 1 1.87-.56c1.1 0 1.96.36 2.57 1.09.6.72.91 1.76.91 3.1v.6h-5.73c.02.84.27 1.51.73 2.03a2.3 2.3 0 0 0 1.78.77c.51 0 .94-.1 1.3-.32.35-.2.66-.48.93-.82l.88.68a3.55 3.55 0 0 1-3.19 1.64zm-.18-7.58c-.58 0-1.07.21-1.46.64a3.1 3.1 0 0 0-.74 1.78h4.24v-.11a2.75 2.75 0 0 0-.6-1.7 1.79 1.79 0 0 0-1.44-.61zM98.91 29l1.62-6.46h1.45L99.52 31h-1.18l-2.05-6.4-2 6.4h-1.17l-2.46-8.45h1.44l1.67 6.33 1.96-6.33h1.17l2 6.46zm4.15-2.32c0-.82.16-1.57.5-2.23a3.63 3.63 0 0 1 3.34-2.07c1.15 0 2.08.4 2.8 1.2a4.6 4.6 0 0 1 1.06 3.18v.1c0 .82-.16 1.56-.48 2.21a3.59 3.59 0 0 1-1.35 1.53c-.58.36-1.26.55-2.02.55-1.14 0-2.07-.4-2.78-1.2a4.58 4.58 0 0 1-1.07-3.16v-.1zm1.46.18c0 .93.21 1.69.65 2.25.43.57 1.01.86 1.74.86.74 0 1.32-.3 1.75-.87a3.9 3.9 0 0 0 .65-2.42c0-.92-.22-1.67-.66-2.25a2.1 2.1 0 0 0-1.75-.86c-.72 0-1.3.28-1.73.85a3.92 3.92 0 0 0-.65 2.44zm13.27 3.3c-.56.66-1.39.99-2.48.99-.9 0-1.59-.26-2.06-.79-.47-.52-.7-1.3-.71-2.32v-5.5h1.44V28c0 1.28.52 1.92 1.57 1.92 1.1 0 1.83-.41 2.2-1.23v-6.15h1.44V31h-1.37l-.03-.84zm4.97-7.62.04 1.06a3.08 3.08 0 0 1 2.53-1.22c1.8 0 2.7 1 2.7 3.02V31h-1.44v-5.6c0-.6-.14-1.05-.41-1.34-.28-.3-.7-.44-1.28-.44-.47 0-.88.12-1.24.37s-.63.58-.82.99V31h-1.45v-8.45h1.37zm7.1 4.15c0-1.3.31-2.34.93-3.13a2.92 2.92 0 0 1 2.41-1.18c1 0 1.78.34 2.35 1.02V19H137v12h-1.33l-.07-.9a2.95 2.95 0 0 1-2.41 1.06 2.9 2.9 0 0 1-2.4-1.2 5 5 0 0 1-.92-3.15v-.1zm1.45.17c0 .96.2 1.7.6 2.25.4.54.94.81 1.64.81a2.1 2.1 0 0 0 2-1.24V24.8c-.43-.8-1.1-1.2-1.99-1.2-.7 0-1.26.28-1.65.83-.4.54-.6 1.35-.6 2.43zm13.85-6.37v2.05h1.58v1.11h-1.58v5.25c0 .34.07.59.21.76.14.17.38.25.72.25a3.5 3.5 0 0 0 .7-.1V31a4.19 4.19 0 0 1-1.12.16c-.64 0-1.13-.2-1.46-.59a2.5 2.5 0 0 1-.5-1.66v-5.25h-1.53v-1.11h1.54V20.5h1.44zm2.73 6.2c0-.83.16-1.58.49-2.24a3.63 3.63 0 0 1 3.35-2.07c1.15 0 2.08.4 2.79 1.2a4.6 4.6 0 0 1 1.07 3.18v.1c0 .82-.16 1.56-.48 2.21a3.59 3.59 0 0 1-1.35 1.53c-.58.36-1.26.55-2.02.55-1.14 0-2.07-.4-2.78-1.2a4.58 4.58 0 0 1-1.07-3.16v-.1zm1.45.17c0 .93.22 1.69.66 2.25.43.57 1.01.86 1.74.86.74 0 1.32-.3 1.75-.87.43-.57.65-1.38.65-2.42 0-.92-.22-1.67-.66-2.25a2.1 2.1 0 0 0-1.75-.86c-.72 0-1.3.28-1.73.85a3.92 3.92 0 0 0-.66 2.44zM165.96 31h-1.45v-9.63l-2.92 1.07v-1.32l4.14-1.55h.23V31zm4.34-.76a.9.9 0 0 1 .22-.62c.15-.17.37-.25.67-.25.3 0 .52.08.67.25.16.16.23.37.23.62a.8.8 0 0 1-.23.6c-.15.17-.38.25-.67.25-.3 0-.52-.08-.67-.25a.85.85 0 0 1-.22-.6zm0-6.9a.9.9 0 0 1 .23-.62c.15-.17.37-.25.66-.25.3 0 .53.08.68.25a.9.9 0 0 1 .23.62c0 .24-.08.44-.23.6-.15.17-.38.25-.68.25-.3 0-.52-.08-.66-.25a.85.85 0 0 1-.23-.6zm10.9 2.8c0 1.7-.29 2.96-.86 3.78-.58.82-1.49 1.24-2.72 1.24-1.21 0-2.1-.4-2.7-1.21-.57-.8-.88-2-.9-3.6V24.4c0-1.67.3-2.91.87-3.72.58-.82 1.48-1.22 2.72-1.22 1.22 0 2.12.4 2.7 1.17.58.79.88 2 .9 3.63v1.88zm-1.44-1.97a5.3 5.3 0 0 0-.52-2.67c-.34-.56-.89-.84-1.63-.84-.74 0-1.28.28-1.62.83a5.17 5.17 0 0 0-.52 2.57v2.32c0 1.23.18 2.13.53 2.72.36.58.9.88 1.62.88.72 0 1.25-.28 1.6-.83a5.2 5.2 0 0 0 .54-2.61v-2.37zm10.43 1.98c0 1.7-.3 2.95-.87 3.77-.58.82-1.48 1.24-2.71 1.24-1.21 0-2.11-.4-2.7-1.21-.58-.8-.88-2-.9-3.6V24.4c0-1.67.29-2.91.86-3.72.58-.82 1.49-1.22 2.72-1.22 1.23 0 2.13.4 2.7 1.17.58.79.88 2 .9 3.63v1.88zm-1.45-1.98a5.3 5.3 0 0 0-.51-2.67c-.35-.56-.9-.84-1.64-.84-.74 0-1.28.28-1.61.83a5.17 5.17 0 0 0-.53 2.57v2.32c0 1.23.18 2.13.54 2.72.35.58.9.88 1.62.88.71 0 1.24-.28 1.59-.83.35-.55.53-1.42.54-2.61v-2.37zm13.92 3.86h-4.77L196.82 31h-1.55l4.35-11.38h1.3L205.29 31h-1.54l-1.08-2.97zm-4.32-1.23h3.87l-1.94-5.32-1.93 5.32zm10.4-7.17 3.73 9.28 3.72-9.29h1.94V31h-1.5v-4.43l.14-4.78-3.73 9.21h-1.15l-3.72-9.19.14 4.76V31h-1.5V19.62h1.94zm15.4 7.07a5 5 0 0 1 .48-2.24 3.64 3.64 0 0 1 3.35-2.07c1.15 0 2.08.4 2.8 1.2a4.6 4.6 0 0 1 1.06 3.18v.1c0 .82-.16 1.56-.48 2.21a3.59 3.59 0 0 1-1.35 1.53c-.58.36-1.26.55-2.02.55-1.14 0-2.07-.4-2.78-1.2a4.58 4.58 0 0 1-1.07-3.16v-.1zm1.45.17c0 .93.21 1.69.65 2.25.43.57 1.01.86 1.74.86.74 0 1.32-.3 1.75-.87a3.9 3.9 0 0 0 .65-2.42c0-.92-.22-1.67-.66-2.25a2.1 2.1 0 0 0-1.75-.86c-.72 0-1.3.28-1.73.85a3.93 3.93 0 0 0-.65 2.44zm9.42-4.32.04 1.06a3.08 3.08 0 0 1 2.53-1.22c1.8 0 2.7 1 2.7 3.02V31h-1.44v-5.6c0-.6-.14-1.05-.41-1.34-.28-.3-.7-.44-1.28-.44-.47 0-.88.12-1.24.37s-.63.58-.82.99V31h-1.45v-8.45h1.37zm16.41-2.93h1.5v8.06c0 1.09-.32 1.94-.97 2.55-.65.62-1.53.93-2.61.93a3.76 3.76 0 0 1-2.64-.87 3.13 3.13 0 0 1-.95-2.43h1.5c0 .65.18 1.16.53 1.52.36.37.88.55 1.55.55.62 0 1.13-.2 1.5-.59.4-.39.59-.93.6-1.64v-8.07zM260.48 31a3.04 3.04 0 0 1-.2-.89 3.23 3.23 0 0 1-2.41 1.05c-.84 0-1.52-.24-2.05-.71a2.29 2.29 0 0 1-.8-1.8c0-.87.33-1.56 1-2.04a4.72 4.72 0 0 1 2.82-.74h1.41v-.66c0-.5-.15-.9-.45-1.2-.3-.3-.75-.46-1.34-.46-.51 0-.95.13-1.3.4-.35.25-.52.57-.52.94h-1.45a2 2 0 0 1 .45-1.22c.3-.4.7-.7 1.21-.94a4.1 4.1 0 0 1 1.7-.34c.97 0 1.73.24 2.29.73s.83 1.16.86 2.01v3.9c0 .77.1 1.39.3 1.84V31h-1.52zm-2.4-1.1a2.54 2.54 0 0 0 1.29-.35c.4-.24.7-.54.88-.92V26.9h-1.13c-1.77 0-2.66.52-2.66 1.55 0 .46.15.81.45 1.07.3.25.7.38 1.17.38zm7.25-7.35.04 1.06a3.08 3.08 0 0 1 2.54-1.22c1.78 0 2.68 1 2.7 3.02V31h-1.45v-5.6c0-.6-.14-1.05-.41-1.34-.28-.3-.7-.44-1.28-.44-.47 0-.88.12-1.24.37-.35.25-.63.58-.82.99V31h-1.45v-8.45h1.37zM278 30.16c-.57.67-1.39 1-2.48 1-.9 0-1.59-.26-2.06-.79-.47-.52-.7-1.3-.71-2.32v-5.5h1.44V28c0 1.28.52 1.92 1.57 1.92 1.1 0 1.83-.41 2.2-1.23v-6.15h1.44V31h-1.37l-.03-.84zm8.82.84a3.09 3.09 0 0 1-.2-.89 3.23 3.23 0 0 1-2.41 1.05c-.84 0-1.52-.24-2.05-.71a2.29 2.29 0 0 1-.8-1.8c0-.87.33-1.56 1-2.04a4.73 4.73 0 0 1 2.82-.74h1.41v-.66c0-.5-.15-.9-.45-1.2-.3-.3-.75-.46-1.34-.46-.51 0-.95.13-1.3.4-.34.25-.52.57-.52.94h-1.45a2 2 0 0 1 .45-1.22c.3-.4.7-.7 1.22-.94a4.1 4.1 0 0 1 1.69-.34c.97 0 1.73.24 2.29.73.55.49.84 1.16.86 2.01v3.9c0 .77.1 1.39.3 1.84V31h-1.52zm-2.4-1.1a2.54 2.54 0 0 0 1.29-.35c.4-.24.7-.54.88-.92V26.9h-1.13c-1.77 0-2.66.52-2.66 1.55 0 .46.15.81.46 1.07.3.25.69.38 1.16.38zm9.97-6.06a4.33 4.33 0 0 0-.71-.05c-.95 0-1.6.4-1.93 1.21v6h-1.45v-8.45h1.4l.03.97a2.25 2.25 0 0 1 2.02-1.13c.28 0 .5.04.64.11v1.34zm4.23 5.04 1.97-6.33h1.55l-3.4 9.76c-.53 1.4-1.36 2.1-2.5 2.1l-.28-.02-.54-.1v-1.17l.39.03c.49 0 .87-.1 1.14-.3.28-.2.5-.56.68-1.08l.32-.86-3.02-8.36h1.58l2.11 6.33zM314.7 31h-7.45v-1.04l3.94-4.37c.58-.67.98-1.2 1.2-1.62a2.71 2.71 0 0 0 .34-1.28c0-.6-.18-1.08-.54-1.46a1.88 1.88 0 0 0-1.44-.57c-.72 0-1.28.2-1.68.61-.4.4-.6.98-.6 1.7h-1.44c0-1.04.34-1.89 1.01-2.53a3.75 3.75 0 0 1 2.71-.97c1.06 0 1.9.28 2.5.83.62.56.93 1.3.93 2.22 0 1.12-.71 2.45-2.14 4l-3.05 3.3h5.71V31zM79.6 100.03h-4.76L73.77 103h-1.55l4.34-11.38h1.32L82.22 103h-1.54l-1.09-2.97zm-4.3-1.23h3.87l-1.94-5.32-1.93 5.32zm10.6.29-.9.94V103h-1.45V91H85v7.26l.77-.93 2.63-2.78h1.76l-3.29 3.53 3.67 4.92h-1.7l-2.94-3.91zm7.32 3.91h-1.45v-8.45h1.45V103zm-1.56-10.7c0-.23.07-.43.21-.59.15-.16.36-.24.64-.24s.5.08.64.24c.14.16.22.36.22.6 0 .23-.08.43-.22.58-.15.16-.36.24-.64.24s-.5-.08-.64-.24a.83.83 0 0 1-.21-.58zm8.8 8.46c0-.4-.15-.7-.45-.91-.3-.22-.8-.4-1.54-.56a7.3 7.3 0 0 1-1.74-.56 2.48 2.48 0 0 1-.95-.78c-.2-.3-.31-.67-.31-1.08 0-.7.3-1.28.88-1.76a3.43 3.43 0 0 1 2.24-.72c.96 0 1.74.25 2.34.74.6.5.9 1.13.9 1.9h-1.46c0-.4-.17-.74-.5-1.02a1.88 1.88 0 0 0-1.28-.43c-.52 0-.93.11-1.23.34a1.08 1.08 0 0 0-.45.9c0 .35.14.61.42.79.27.18.77.35 1.5.5.72.17 1.3.36 1.75.59.45.22.78.49 1 .8.21.32.32.7.32 1.16 0 .75-.3 1.36-.9 1.81a3.8 3.8 0 0 1-2.36.69c-.68 0-1.27-.12-1.8-.36a2.92 2.92 0 0 1-1.22-1 2.42 2.42 0 0 1-.44-1.4h1.45c.02.48.22.87.58 1.15.36.29.84.43 1.43.43.55 0 .99-.11 1.32-.33.33-.23.5-.52.5-.9zm4.68-6.21.04.93a3.12 3.12 0 0 1 2.5-1.09c1.2 0 2 .45 2.42 1.36a3.2 3.2 0 0 1 1.1-.98c.45-.25.98-.38 1.6-.38 1.85 0 2.8.98 2.83 2.95V103h-1.45v-5.58c0-.6-.14-1.05-.41-1.35-.28-.3-.74-.45-1.4-.45-.53 0-.98.16-1.33.48-.35.32-.56.75-.62 1.3v5.6h-1.45v-5.54c0-1.23-.6-1.84-1.8-1.84-.95 0-1.6.4-1.95 1.2V103h-1.45v-8.45h1.37zm16.17 8.6a3.7 3.7 0 0 1-2.8-1.12 4.19 4.19 0 0 1-1.07-3.02v-.27c0-.84.16-1.58.48-2.24a3.75 3.75 0 0 1 1.34-1.55 3.38 3.38 0 0 1 1.87-.56c1.1 0 1.96.36 2.57 1.09.6.72.91 1.76.91 3.1v.6h-5.73a3 3 0 0 0 .73 2.03 2.3 2.3 0 0 0 1.78.77c.51 0 .94-.1 1.3-.32.35-.2.66-.48.93-.82l.88.68a3.55 3.55 0 0 1-3.19 1.64zm-.18-7.57c-.58 0-1.07.21-1.47.64a3.1 3.1 0 0 0-.73 1.78h4.23v-.11a2.75 2.75 0 0 0-.59-1.7 1.79 1.79 0 0 0-1.44-.61zm7.11-3.08v2.05h1.58v1.11h-1.58v5.25c0 .34.07.59.21.76.14.17.38.25.72.25a3.5 3.5 0 0 0 .7-.1V103a4.19 4.19 0 0 1-1.12.16c-.65 0-1.13-.2-1.46-.59a2.5 2.5 0 0 1-.5-1.66v-5.25h-1.53v-1.11h1.54V92.5h1.44zm13.74 7.53h-4.77l-1.07 2.97h-1.54l4.34-11.37h1.31L144.6 103h-1.54l-1.08-2.97zm-4.32-1.23h3.87l-1.94-5.32-1.93 5.32zm9.61-4.25.05 1.06a3.08 3.08 0 0 1 2.53-1.22c1.79 0 2.69 1 2.7 3.02V103h-1.44v-5.6c0-.6-.14-1.05-.42-1.34-.27-.3-.7-.44-1.28-.44-.46 0-.88.12-1.23.37s-.63.58-.83.99V103h-1.44v-8.45h1.36zm9.43-2.05v2.05h1.57v1.11h-1.57v5.25c0 .34.07.59.2.76.15.17.39.25.73.25a3.5 3.5 0 0 0 .68-.1V103a4.19 4.19 0 0 1-1.1.16c-.65 0-1.14-.2-1.47-.59-.33-.39-.49-.94-.49-1.66v-5.25h-1.54v-1.11h1.54V92.5h1.45zm4.83 10.5h-1.44v-8.45h1.44V103zm-1.56-10.7c0-.23.07-.43.21-.59.15-.16.36-.24.64-.24s.5.08.64.24c.15.16.22.36.22.6a.8.8 0 0 1-.22.58c-.14.16-.36.24-.64.24s-.5-.08-.64-.24a.83.83 0 0 1-.21-.58zm6.88 6.46h-3.81v-1.18h3.81v1.18zm4.99-.83a7.05 7.05 0 0 1-2.81-1.36 2.6 2.6 0 0 1-.88-2c0-.9.36-1.64 1.07-2.22a4.27 4.27 0 0 1 2.8-.88c.78 0 1.48.15 2.09.45.6.3 1.08.72 1.42 1.25.33.53.5 1.11.5 1.74h-1.5c0-.68-.23-1.22-.66-1.62a2.67 2.67 0 0 0-1.85-.59 2.7 2.7 0 0 0-1.73.5 1.6 1.6 0 0 0-.63 1.35c0 .46.2.85.6 1.17.39.32 1.06.62 2 .88a9.3 9.3 0 0 1 2.22.88c.54.32.93.7 1.19 1.12.26.43.39.93.39 1.5 0 .93-.36 1.67-1.08 2.22a4.6 4.6 0 0 1-2.89.84 5.36 5.36 0 0 1-2.18-.45 3.7 3.7 0 0 1-1.57-1.23 3 3 0 0 1-.55-1.78h1.5c0 .7.26 1.23.77 1.63.5.4 1.19.6 2.03.6.8 0 1.4-.16 1.82-.48.43-.33.64-.77.64-1.32s-.2-1-.59-1.3c-.39-.3-1.1-.6-2.12-.9zm13.05.94c0 1.28-.3 2.32-.88 3.1a2.83 2.83 0 0 1-2.4 1.19 3.1 3.1 0 0 1-2.41-.98v4.07h-1.45v-11.7h1.32l.07.93c.6-.73 1.4-1.09 2.46-1.09 1.01 0 1.81.38 2.4 1.15.6.76.9 1.83.9 3.2v.13zm-1.44-.17c0-.95-.2-1.7-.61-2.25-.4-.56-.97-.83-1.68-.83-.87 0-1.53.39-1.96 1.16v4.04a2.13 2.13 0 0 0 1.98 1.16c.7 0 1.24-.28 1.65-.83.41-.55.62-1.36.62-2.45zm8.5 4.3a3.09 3.09 0 0 1-.2-.89 3.23 3.23 0 0 1-2.41 1.05c-.84 0-1.52-.24-2.05-.71a2.28 2.28 0 0 1-.8-1.8c0-.87.33-1.56 1-2.04a4.73 4.73 0 0 1 2.82-.73h1.41v-.67c0-.5-.15-.9-.45-1.2-.3-.3-.75-.46-1.34-.46-.52 0-.95.13-1.3.4-.35.26-.52.57-.52.94h-1.45a2 2 0 0 1 .45-1.22c.3-.4.7-.7 1.21-.94a4.1 4.1 0 0 1 1.7-.34c.97 0 1.73.24 2.29.73s.83 1.16.86 2.01v3.9c0 .77.1 1.39.3 1.85v.12h-1.52zm-2.4-1.1a2.54 2.54 0 0 0 1.29-.35c.4-.24.7-.54.88-.92V98.9h-1.13c-1.77 0-2.66.52-2.66 1.55 0 .46.15.81.45 1.07.3.25.7.38 1.17.38zm7.24-7.35.04.93a3.12 3.12 0 0 1 2.5-1.09c1.19 0 2 .45 2.42 1.36a3.2 3.2 0 0 1 1.1-.98c.45-.25.98-.38 1.6-.38 1.85 0 2.8.98 2.83 2.95V103h-1.45v-5.58c0-.6-.14-1.05-.41-1.35-.28-.3-.74-.45-1.4-.45-.53 0-.98.16-1.33.48-.35.32-.56.75-.62 1.3v5.6h-1.45v-5.54c0-1.23-.6-1.84-1.8-1.84-.95 0-1.6.4-1.95 1.2V103h-1.45v-8.45h1.37z"/><path fill="#636D75" d="M76.8 46.97h-2.33V51h-1.32v-9.95h3.3a3.9 3.9 0 0 1 2.58.76c.6.51.9 1.26.9 2.23 0 .62-.16 1.16-.5 1.62a3 3 0 0 1-1.4 1.03l2.34 4.23V51h-1.4l-2.16-4.03zm-2.33-1.07h2.01c.66 0 1.17-.17 1.56-.5.39-.34.58-.8.58-1.36 0-.61-.19-1.09-.55-1.41-.37-.33-.9-.5-1.6-.5h-2v3.77zm10.18 5.24c-1 0-1.82-.33-2.45-1a3.67 3.67 0 0 1-.94-2.63v-.24c0-.73.14-1.38.42-1.96a3.28 3.28 0 0 1 1.17-1.35 2.96 2.96 0 0 1 1.64-.5c.96 0 1.7.32 2.24.96.54.63.8 1.54.8 2.72v.52h-5c0 .73.22 1.32.63 1.77a2 2 0 0 0 1.55.67c.45 0 .83-.09 1.14-.27.31-.18.58-.42.81-.72l.78.6a3.1 3.1 0 0 1-2.8 1.43zm-.16-6.63c-.51 0-.94.18-1.29.55-.34.37-.56.9-.64 1.57h3.7v-.1a2.41 2.41 0 0 0-.51-1.5 1.59 1.59 0 0 0-1.26-.52zm11.05 4.75 1.43-5.66h1.26L96.08 51h-1.03l-1.8-5.6L91.5 51h-1.02l-2.15-7.4h1.26l1.45 5.54 1.73-5.54h1.02l1.75 5.66zM100.9 51h-1.27v-7.4h1.27V51zm-1.37-9.36c0-.2.06-.38.19-.52s.31-.21.56-.21c.24 0 .43.07.56.21a.75.75 0 0 1 .19.52.72.72 0 0 1-.2.51c-.12.14-.3.2-.55.2-.25 0-.43-.06-.56-.2a.73.73 0 0 1-.19-.5zm4.59 1.96.04.93a2.7 2.7 0 0 1 2.21-1.06c1.57 0 2.36.88 2.37 2.64V51h-1.27v-4.9c0-.53-.12-.92-.36-1.18-.24-.25-.61-.38-1.12-.38-.4 0-.77.11-1.08.33-.3.22-.55.5-.72.86V51h-1.27v-7.4h1.2zm6.22 3.64c0-1.14.27-2.05.8-2.74a2.55 2.55 0 0 1 2.12-1.03c.86 0 1.55.3 2.06.89V40.5h1.26V51h-1.16l-.06-.8c-.5.63-1.21.94-2.12.94-.85 0-1.55-.35-2.1-1.06a4.38 4.38 0 0 1-.8-2.74v-.1zm1.26.14c0 .84.18 1.5.52 1.97.35.48.83.71 1.44.71.8 0 1.39-.36 1.76-1.08v-3.4a1.86 1.86 0 0 0-1.75-1.04c-.62 0-1.1.24-1.45.72a3.61 3.61 0 0 0-.52 2.12zm17.93.46a3.66 3.66 0 0 1-1.17 2.44c-.65.57-1.52.86-2.6.86a3.5 3.5 0 0 1-2.83-1.27 5.1 5.1 0 0 1-1.07-3.38v-.96c0-.92.17-1.74.5-2.44a3.7 3.7 0 0 1 3.51-2.18c1.06 0 1.9.3 2.54.89a3.7 3.7 0 0 1 1.12 2.45h-1.32c-.12-.8-.36-1.37-.74-1.73a2.25 2.25 0 0 0-1.6-.53c-.84 0-1.5.31-1.97.93-.48.62-.72 1.5-.72 2.64v.97c0 1.08.23 1.94.68 2.58a2.2 2.2 0 0 0 1.9.95c.72 0 1.28-.16 1.67-.5.4-.32.65-.9.78-1.72h1.32zm1.25-.6c0-.73.15-1.38.43-1.96a3.19 3.19 0 0 1 1.2-1.34c.5-.32 1.08-.47 1.73-.47 1 0 1.82.34 2.45 1.04.62.7.93 1.63.93 2.79v.08a4.4 4.4 0 0 1-.42 1.94 3.14 3.14 0 0 1-1.18 1.34c-.51.32-1.1.48-1.76.48-1 0-1.82-.35-2.44-1.05a4 4 0 0 1-.93-2.77v-.09zm1.28.14c0 .82.19 1.48.57 1.98.38.5.89.74 1.53.74s1.15-.25 1.53-.75c.37-.5.56-1.21.56-2.12 0-.8-.19-1.47-.57-1.97a1.84 1.84 0 0 0-1.54-.75c-.62 0-1.13.24-1.5.74-.4.5-.58 1.2-.58 2.13zm8.23-3.78.04.82a2.74 2.74 0 0 1 2.2-.95c1.03 0 1.73.4 2.1 1.19a2.8 2.8 0 0 1 .96-.87c.4-.21.86-.32 1.4-.32 1.63 0 2.45.86 2.48 2.57V51h-1.27v-4.88c0-.53-.12-.93-.36-1.19-.24-.26-.65-.39-1.22-.39-.47 0-.86.14-1.17.42a1.7 1.7 0 0 0-.54 1.13V51h-1.27v-4.85c0-1.07-.52-1.61-1.58-1.61-.83 0-1.4.35-1.7 1.06V51h-1.26v-7.4h1.2zm17.33 3.78c0 1.13-.25 2.04-.77 2.72a2.47 2.47 0 0 1-2.1 1.04 2.7 2.7 0 0 1-2.11-.86v3.56h-1.27V43.6h1.16l.06.82a2.6 2.6 0 0 1 2.15-.95c.89 0 1.59.33 2.1 1 .52.67.78 1.6.78 2.8v.11zm-1.26-.14c0-.83-.18-1.5-.54-1.98a1.72 1.72 0 0 0-1.46-.72c-.76 0-1.34.34-1.72 1.02v3.53c.38.68.96 1.01 1.74 1.01.6 0 1.08-.24 1.44-.72.36-.48.54-1.2.54-2.14zM160.6 51h-1.26V40.5h1.26V51zm5.1.14c-1 0-1.82-.33-2.45-1a3.67 3.67 0 0 1-.94-2.63v-.24c0-.73.14-1.38.42-1.96a3.28 3.28 0 0 1 1.17-1.35 2.96 2.96 0 0 1 1.64-.5c.96 0 1.7.32 2.24.96.53.63.8 1.54.8 2.72v.52h-5c0 .73.22 1.32.63 1.77a2 2 0 0 0 1.55.67c.45 0 .83-.09 1.14-.27.31-.18.58-.42.81-.72l.78.6a3.1 3.1 0 0 1-2.8 1.43zm-.16-6.63c-.51 0-.94.18-1.29.55-.34.37-.56.9-.64 1.56h3.7v-.1a2.41 2.41 0 0 0-.51-1.48 1.59 1.59 0 0 0-1.26-.53zm6.22-2.7v1.8h1.38v.97h-1.38v4.59c0 .3.06.52.18.66.13.15.34.23.63.23.15 0 .35-.03.6-.09V51a3.67 3.67 0 0 1-.97.14c-.56 0-.99-.17-1.27-.52a2.2 2.2 0 0 1-.43-1.45v-4.59h-1.35v-.98h1.34v-1.79h1.27zm5.93 9.33c-1 0-1.82-.33-2.45-1a3.67 3.67 0 0 1-.94-2.63v-.24c0-.73.14-1.38.42-1.96a3.28 3.28 0 0 1 1.17-1.35 2.96 2.96 0 0 1 1.64-.5c.96 0 1.7.32 2.24.96.53.63.8 1.54.8 2.72v.52h-5c0 .73.22 1.32.63 1.77a2 2 0 0 0 1.55.67c.45 0 .83-.09 1.14-.27.31-.18.58-.42.81-.72l.78.6a3.1 3.1 0 0 1-2.8 1.43zm-.16-6.63c-.51 0-.94.18-1.29.55-.34.37-.56.9-.64 1.56h3.7v-.1a2.41 2.41 0 0 0-.51-1.48 1.59 1.59 0 0 0-1.26-.53zM74.47 119.1v3.9h-1.31v-9.95h3.67c1.09 0 1.94.27 2.56.83.61.56.92 1.3.92 2.2 0 .98-.3 1.72-.9 2.24-.6.52-1.47.78-2.6.78h-2.34zm0-1.08h2.36c.7 0 1.24-.17 1.6-.5.38-.33.57-.8.57-1.43 0-.59-.19-1.06-.56-1.42a2.21 2.21 0 0 0-1.54-.55h-2.43v3.9zm8.7 4.97H81.9v-10.5h1.26V123zm6.58-.73c-.49.58-1.21.87-2.16.87-.8 0-1.4-.23-1.8-.69-.42-.46-.63-1.14-.63-2.03v-4.82h1.26v4.78c0 1.12.46 1.68 1.37 1.68.97 0 1.61-.36 1.93-1.08v-5.38h1.26v7.4h-1.2l-.03-.73zm2.85-3.03c0-1.15.27-2.07.8-2.75a2.56 2.56 0 0 1 2.12-1.02c.9 0 1.6.32 2.12.95l.06-.82h1.15v7.22a3 3 0 0 1-.85 2.27c-.57.55-1.33.82-2.29.82a3.8 3.8 0 0 1-1.56-.34 2.7 2.7 0 0 1-1.17-.94l.66-.75c.54.67 1.2 1 1.99 1a1.9 1.9 0 0 0 1.43-.52c.35-.35.52-.83.52-1.46v-.64c-.5.58-1.2.88-2.07.88a2.5 2.5 0 0 1-2.1-1.05c-.54-.7-.8-1.65-.8-2.85zm1.28.14c0 .84.17 1.5.5 1.97.35.48.83.71 1.44.71.8 0 1.39-.36 1.76-1.08v-3.38a1.87 1.87 0 0 0-1.74-1.06c-.62 0-1.1.24-1.44.72a3.6 3.6 0 0 0-.52 2.12zm8.25 3.62h-1.26v-7.4h1.26v7.4zm-1.36-9.36c0-.2.06-.38.18-.52.13-.14.31-.21.56-.21.25 0 .43.07.56.21a.75.75 0 0 1 .2.52.72.72 0 0 1-.2.51c-.13.14-.31.2-.56.2-.24 0-.43-.06-.56-.2a.73.73 0 0 1-.18-.5zm4.58 1.96.04.93a2.7 2.7 0 0 1 2.22-1.06c1.56 0 2.35.88 2.36 2.64v4.9h-1.26v-4.9c0-.53-.13-.92-.37-1.18-.24-.25-.6-.38-1.11-.38-.41 0-.77.11-1.08.33a2.23 2.23 0 0 0-.73.86V123h-1.26v-7.4h1.2zm10.2 7.4v-9.95h2.8c.87 0 1.64.19 2.3.57.67.38 1.18.93 1.54 1.63.37.71.55 1.52.55 2.44v.63c0 .94-.18 1.77-.54 2.47a3.82 3.82 0 0 1-1.55 1.63c-.67.38-1.46.57-2.35.58h-2.75zm1.3-8.87v7.8h1.39a3 3 0 0 0 2.36-.95 3.9 3.9 0 0 0 .84-2.68v-.58c0-1.13-.26-2.01-.8-2.64a2.83 2.83 0 0 0-2.25-.95h-1.53zm10.75 9c-1 0-1.82-.32-2.45-.98a3.67 3.67 0 0 1-.94-2.64v-.24c0-.73.14-1.38.42-1.96a3.28 3.28 0 0 1 1.17-1.35 2.96 2.96 0 0 1 1.64-.5c.96 0 1.7.32 2.24.96.54.63.8 1.54.8 2.72v.52h-5c0 .73.22 1.32.63 1.77a2 2 0 0 0 1.56.67c.44 0 .82-.09 1.13-.27.31-.18.58-.42.81-.72l.78.6a3.1 3.1 0 0 1-2.8 1.43zm-.16-6.62c-.51 0-.94.18-1.29.55-.34.37-.56.9-.64 1.57h3.7v-.1a2.41 2.41 0 0 0-.51-1.5 1.59 1.59 0 0 0-1.26-.52zm9.07 6.49c-.07-.15-.13-.4-.18-.78-.59.61-1.29.92-2.1.92a2.6 2.6 0 0 1-1.8-.62 2 2 0 0 1-.7-1.57c0-.77.3-1.37.88-1.8a4.14 4.14 0 0 1 2.47-.64h1.23v-.58c0-.44-.13-.79-.4-1.05-.26-.26-.65-.4-1.16-.4-.45 0-.83.12-1.14.35-.3.22-.46.5-.46.82h-1.27c0-.37.13-.72.4-1.07a2.68 2.68 0 0 1 1.06-.81c.45-.2.95-.3 1.48-.3.85 0 1.52.21 2 .64.49.42.74 1 .76 1.76v3.4c0 .68.08 1.22.26 1.62v.11h-1.33zm-2.1-.96a2.22 2.22 0 0 0 1.13-.31 1.86 1.86 0 0 0 .77-.8v-1.52h-.99c-1.55 0-2.32.46-2.32 1.36 0 .4.13.7.4.93.26.22.6.34 1.01.34zm8.12.06c.45 0 .84-.13 1.18-.4a1.44 1.44 0 0 0 .56-1.03h1.2a2.3 2.3 0 0 1-.44 1.2 2.88 2.88 0 0 1-1.08.92 3.1 3.1 0 0 1-1.42.35 3.04 3.04 0 0 1-2.4-1.01 4 4 0 0 1-.9-2.76v-.21c0-.72.13-1.36.4-1.92a3.02 3.02 0 0 1 1.14-1.3c.5-.32 1.08-.47 1.75-.47.83 0 1.52.24 2.07.74.55.5.84 1.14.88 1.94h-1.2a1.75 1.75 0 0 0-.54-1.18 1.7 1.7 0 0 0-1.21-.46 1.8 1.8 0 0 0-1.5.69 3.26 3.26 0 0 0-.52 2v.25c0 .85.17 1.5.52 1.96.35.46.86.7 1.5.7zm6.07-8.29v1.8h1.38v.97h-1.38v4.59c0 .3.07.52.19.66.12.15.33.23.63.23.14 0 .34-.03.6-.09V123a3.67 3.67 0 0 1-.97.14c-.57 0-1-.17-1.28-.52a2.2 2.2 0 0 1-.43-1.45v-4.59h-1.35v-.98h1.35v-1.79h1.26zm4.24 9.19h-1.27v-7.4h1.27v7.4zm-1.37-9.36c0-.2.06-.38.19-.52.12-.14.3-.21.55-.21.25 0 .44.07.56.21a.75.75 0 0 1 .2.52.72.72 0 0 1-.2.51c-.12.14-.31.2-.56.2-.24 0-.43-.06-.55-.2a.73.73 0 0 1-.2-.5zm5.83 7.64 1.83-5.68h1.3l-2.66 7.4h-.96l-2.68-7.4h1.29l1.88 5.68zm8.8 1.72c-.07-.15-.13-.4-.17-.78-.6.61-1.3.92-2.11.92a2.6 2.6 0 0 1-1.8-.62 2 2 0 0 1-.7-1.57c0-.77.3-1.37.88-1.8a4.2 4.2 0 0 1 2.47-.64h1.24v-.58c0-.44-.14-.79-.4-1.05-.27-.26-.65-.4-1.17-.4-.45 0-.83.12-1.13.35a.98.98 0 0 0-.46.82h-1.27c0-.37.13-.72.39-1.07a2.68 2.68 0 0 1 1.07-.81c.44-.2.94-.3 1.48-.3.85 0 1.52.21 2 .64.48.42.73 1 .75 1.76v3.4c0 .68.09 1.22.26 1.62v.11h-1.33zm-2.1-.96c.4 0 .78-.1 1.13-.31a1.86 1.86 0 0 0 .78-.8v-1.52h-1c-1.54 0-2.32.45-2.32 1.36 0 .4.13.7.4.93.26.22.6.34 1.02.34zm6.87-8.23v1.8h1.38v.97h-1.38v4.59c0 .3.06.52.18.66.13.15.34.23.63.23.15 0 .35-.03.6-.09V123a3.67 3.67 0 0 1-.97.14c-.56 0-.99-.17-1.28-.52a2.2 2.2 0 0 1-.43-1.45v-4.59h-1.34v-.98h1.34v-1.79h1.27zm5.93 9.33c-1 0-1.82-.33-2.45-1a3.66 3.66 0 0 1-.95-2.63v-.24c0-.73.14-1.38.42-1.96a3.28 3.28 0 0 1 1.18-1.35 2.96 2.96 0 0 1 1.64-.5c.96 0 1.7.32 2.24.96.53.63.8 1.54.8 2.72v.52h-5.01c.02.73.23 1.32.64 1.77a2 2 0 0 0 1.55.67c.45 0 .83-.09 1.14-.27.3-.18.58-.42.81-.72l.77.6a3.1 3.1 0 0 1-2.79 1.43zm-.16-6.63c-.51 0-.94.18-1.29.55-.34.37-.56.9-.64 1.56h3.7v-.1a2.4 2.4 0 0 0-.51-1.48 1.59 1.59 0 0 0-1.26-.53zm4.2 2.73c0-1.14.26-2.05.8-2.74a2.55 2.55 0 0 1 2.11-1.03c.87 0 1.56.3 2.06.88v-3.85h1.27V123h-1.17l-.06-.8c-.5.63-1.2.94-2.11.94-.86 0-1.55-.35-2.1-1.06a4.38 4.38 0 0 1-.8-2.74v-.1zm1.26.14c0 .84.17 1.5.52 1.97.35.48.82.71 1.44.71.8 0 1.38-.36 1.75-1.08v-3.4a1.86 1.86 0 0 0-1.74-1.04c-.62 0-1.1.24-1.45.72a3.61 3.61 0 0 0-.52 2.12z"/></g></svg>