<svg xmlns="http://www.w3.org/2000/svg" width="360" height="592"><g fill="none" fill-rule="evenodd"><path fill="#F6F6F6" d="M0 0h360v592H0z"/><path fill="#636D75" fill-rule="nonzero" d="M115.73 417.56a6.16 6.16 0 0 1-2.46-1.19 2.28 2.28 0 0 1-.76-1.75c0-.78.3-1.43.93-1.94a3.74 3.74 0 0 1 2.45-.77 4 4 0 0 1 1.83.4 3 3 0 0 1 1.24 1.09c.3.47.44.97.44 1.52h-1.32c0-.6-.19-1.07-.57-1.41a2.34 2.34 0 0 0-1.62-.52 2.4 2.4 0 0 0-1.52.43c-.36.28-.54.68-.54 1.18 0 .4.17.75.52 1.03a5 5 0 0 0 1.75.77c.83.23 1.48.49 1.95.77.46.28.8.6 1.03.98.23.37.34.81.34 1.32 0 .8-.31 1.45-.94 1.94-.63.48-1.47.73-2.52.73a4.68 4.68 0 0 1-1.92-.4 3.22 3.22 0 0 1-1.37-1.07 2.63 2.63 0 0 1-.48-1.56h1.32c0 .6.22 1.08.67 1.43a2.8 2.8 0 0 0 1.78.52 2.6 2.6 0 0 0 1.59-.42c.37-.28.55-.67.55-1.16 0-.48-.17-.86-.5-1.13a5.89 5.89 0 0 0-1.87-.79zm6.9-4.75v1.8H124v.97h-1.38v4.59c0 .3.06.52.19.66.12.15.33.23.63.23.14 0 .34-.03.6-.08V422a3.67 3.67 0 0 1-.97.14c-.57 0-1-.17-1.28-.52a2.2 2.2 0 0 1-.43-1.45v-4.59H120v-.98h1.35v-1.79h1.26zm7.42 9.19c-.08-.15-.14-.4-.18-.78-.59.61-1.3.92-2.1.92a2.6 2.6 0 0 1-1.8-.62 2 2 0 0 1-.7-1.57c0-.77.3-1.37.88-1.8a4.15 4.15 0 0 1 2.47-.64h1.23v-.58c0-.44-.13-.79-.4-1.05-.26-.26-.65-.4-1.17-.4-.45 0-.83.12-1.13.35-.3.23-.46.5-.46.82h-1.27c0-.36.13-.72.4-1.07a2.68 2.68 0 0 1 1.06-.81c.45-.2.94-.3 1.48-.3.85 0 1.52.21 2 .64.48.42.73 1 .75 1.76v3.4c0 .68.09 1.22.26 1.62v.11h-1.32zm-2.1-.96c.4 0 .77-.1 1.13-.31a1.86 1.86 0 0 0 .77-.8v-1.52h-1c-1.54 0-2.32.45-2.32 1.36 0 .4.13.7.4.93.26.22.6.34 1.02.34zm6.86-8.23v1.8h1.38v.97h-1.38v4.59c0 .3.06.52.19.66.12.15.33.23.63.23.14 0 .34-.03.6-.09V422a3.67 3.67 0 0 1-.97.14c-.57 0-1-.17-1.28-.52a2.2 2.2 0 0 1-.43-1.45v-4.59h-1.35v-.98h1.35v-1.79h1.26zm7.17 7.23c0-.34-.13-.6-.4-.8-.25-.19-.7-.35-1.34-.49a6.36 6.36 0 0 1-1.52-.49c-.38-.2-.66-.42-.84-.68a1.64 1.64 0 0 1-.27-.95c0-.6.26-1.11.77-1.53a3 3 0 0 1 1.97-.63c.84 0 1.52.21 2.04.65.52.43.78.98.78 1.66h-1.27c0-.35-.15-.65-.44-.9-.3-.25-.67-.37-1.11-.37-.46 0-.82.1-1.08.3a.95.95 0 0 0-.4.78c0 .3.13.54.37.7.24.15.68.3 1.31.44s1.14.3 1.53.5c.4.2.69.43.88.71.19.28.28.61.28 1a1.9 1.9 0 0 1-.8 1.6c-.52.4-1.2.6-2.05.6-.6 0-1.12-.1-1.57-.32a2.56 2.56 0 0 1-1.07-.88 2.12 2.12 0 0 1-.39-1.22h1.26c.03.43.2.76.51 1.01.32.25.74.37 1.26.37.48 0 .86-.1 1.15-.29a.9.9 0 0 0 .43-.77zm7 1.96v-6.42h-1.17v-.98h1.17v-.76c0-.79.2-1.4.63-1.83a2.4 2.4 0 0 1 1.8-.65c.29 0 .58.04.87.11l-.07 1.03a3.63 3.63 0 0 0-.69-.06c-.4 0-.72.12-.95.36-.22.24-.33.58-.33 1.03v.77h1.58v.98h-1.58V422h-1.27zm3.9-3.77c0-.72.14-1.37.43-1.95a3.19 3.19 0 0 1 1.19-1.34c.5-.32 1.08-.47 1.73-.47 1.01 0 1.83.35 2.45 1.04.62.7.93 1.63.93 2.79v.08a4.4 4.4 0 0 1-.41 1.94 3.14 3.14 0 0 1-1.18 1.34c-.52.32-1.1.48-1.77.48-1 0-1.82-.35-2.44-1.05a4 4 0 0 1-.93-2.77v-.09zm1.27.15c0 .82.19 1.48.57 1.98.38.5.89.74 1.53.74s1.15-.25 1.53-.75c.38-.5.57-1.21.57-2.12 0-.8-.2-1.47-.58-1.97a1.84 1.84 0 0 0-1.54-.75c-.62 0-1.12.24-1.5.74-.39.5-.58 1.2-.58 2.13zm10.62-2.64a3.79 3.79 0 0 0-.62-.05c-.83 0-1.4.35-1.69 1.06V422h-1.26v-7.4h1.23l.02.86a1.97 1.97 0 0 1 2.32-.9v1.18zm9-3.7h1.32v7.06c0 .95-.29 1.7-.86 2.23a3.2 3.2 0 0 1-2.29.8c-.99 0-1.76-.25-2.3-.75a2.74 2.74 0 0 1-.83-2.13h1.3c0 .57.16 1.02.48 1.34.3.31.76.47 1.35.47.55 0 .98-.17 1.32-.5.33-.35.5-.83.5-1.44v-7.07zm7.92 9.96c-.07-.15-.13-.4-.18-.78-.58.61-1.29.92-2.1.92a2.6 2.6 0 0 1-1.8-.62 2 2 0 0 1-.7-1.57c0-.77.3-1.37.88-1.8a4.14 4.14 0 0 1 2.47-.64h1.23v-.58c0-.44-.13-.79-.4-1.05-.26-.26-.65-.4-1.16-.4-.45 0-.83.12-1.14.35-.3.23-.45.5-.45.82h-1.28c0-.36.14-.72.4-1.07a2.68 2.68 0 0 1 1.06-.81c.45-.2.95-.3 1.48-.3.86 0 1.52.21 2 .64.49.42.74 1 .76 1.76v3.4c0 .68.09 1.22.26 1.62v.11h-1.33zm-2.1-.96a2.22 2.22 0 0 0 1.13-.31 1.86 1.86 0 0 0 .77-.8v-1.52h-.99c-1.55 0-2.32.45-2.32 1.36 0 .4.13.7.4.93.26.22.6.34 1.01.34zm6.35-6.44.04.93a2.7 2.7 0 0 1 2.21-1.06c1.57 0 2.35.88 2.37 2.64V422h-1.27v-4.9c0-.53-.12-.92-.36-1.18-.24-.25-.61-.38-1.12-.38-.41 0-.77.11-1.08.33a2.24 2.24 0 0 0-.72.86V422h-1.27v-7.4h1.2zm16.38 7.4h-6.52v-.91l3.45-3.83c.5-.58.86-1.05 1.05-1.4.2-.37.3-.75.3-1.13 0-.52-.16-.95-.48-1.28-.31-.33-.73-.5-1.26-.5-.63 0-1.12.18-1.46.54-.35.35-.53.85-.53 1.49h-1.26c0-.92.3-1.66.88-2.22a3.28 3.28 0 0 1 2.37-.85c.93 0 1.66.24 2.2.73.53.48.8 1.13.8 1.94 0 .98-.62 2.14-1.87 3.5l-2.67 2.89h5V422zm6.68-3.34h1.38v1.03H209V422h-1.27v-2.31h-4.53v-.75l4.46-6.9H209v6.62zm-4.37 0h3.1v-4.88l-.15.27-2.95 4.6zm6.98 5.32-.72-.49c.43-.6.66-1.21.68-1.85v-1.14h1.23v1c0 .45-.11.91-.34 1.37-.22.46-.5.83-.85 1.11zm12.65-1.98h-6.52v-.91l3.44-3.83c.51-.58.87-1.05 1.06-1.4a2.35 2.35 0 0 0 .29-1.13c0-.52-.16-.95-.47-1.28-.32-.33-.74-.5-1.26-.5-.63 0-1.12.18-1.47.54-.35.35-.52.85-.52 1.49h-1.26c0-.92.3-1.66.88-2.22a3.28 3.28 0 0 1 2.37-.85c.93 0 1.66.24 2.2.73.53.48.8 1.13.8 1.94 0 .98-.62 2.14-1.87 3.5l-2.67 2.89h5V422zm7.58-4.25c0 1.49-.25 2.59-.76 3.3-.5.73-1.3 1.09-2.37 1.09-1.06 0-1.85-.35-2.36-1.06a5.5 5.5 0 0 1-.8-3.15v-1.7c0-1.46.26-2.54.77-3.25.5-.71 1.3-1.07 2.38-1.07 1.07 0 1.86.34 2.36 1.03.5.69.77 1.74.78 3.17v1.64zm-1.26-1.73c0-1.07-.15-1.85-.46-2.34-.3-.49-.77-.73-1.43-.73-.64 0-1.11.24-1.4.73a4.5 4.5 0 0 0-.47 2.25v2.02c0 1.08.16 1.87.47 2.39.31.5.79.77 1.42.77.62 0 1.09-.25 1.4-.73.3-.48.45-1.24.47-2.28v-2.07zm7.04 5.98h-1.27v-8.43l-2.55.94v-1.15l3.62-1.36h.2v10zm8.55-4.38c-.27.32-.58.57-.95.76a2.57 2.57 0 0 1-1.2.3c-.58 0-1.08-.15-1.5-.43a2.75 2.75 0 0 1-1-1.2 4.07 4.07 0 0 1-.34-1.7c0-.66.12-1.26.38-1.8a2.79 2.79 0 0 1 1.07-1.22 3.12 3.12 0 0 1 1.63-.42c.99 0 1.76.37 2.33 1.1.57.74.85 1.74.85 3.02v.37c0 1.93-.38 3.35-1.15 4.24-.76.89-1.92 1.34-3.46 1.37h-.25v-1.07h.27a3.48 3.48 0 0 0 2.4-.82c.56-.52.87-1.36.92-2.5zm-1.95 0c.42 0 .81-.13 1.17-.39.36-.26.62-.58.78-.96v-.5c0-.83-.18-1.5-.54-2.03-.36-.52-.81-.78-1.36-.78-.56 0-1 .22-1.34.64-.34.43-.5.99-.5 1.69 0 .68.15 1.24.48 1.68.33.44.76.66 1.31.66z"/></g></svg>