<svg xmlns="http://www.w3.org/2000/svg" width="360" height="592">
  <g id="screenshot-stats-body" fill="none" fill-rule="evenodd" stroke="none" stroke-width="1">
    <path id="Background/Gray-0" fill="#F6F6F6" d="M0 0h360v592H0z"/>
    <path id="Label/Gray-500" fill="#636D75" fill-rule="nonzero" d="M115.732 417.563c-1.126-.323-1.945-.72-2.458-1.192a2.28 2.28 0 0 1-.769-1.747c0-.784.314-1.432.94-1.945.627-.512 1.442-.769 2.444-.769.684 0 1.293.132 1.829.397.535.264.95.629 1.244 1.093.294.465.44.973.44 1.525h-1.319c0-.602-.19-1.075-.574-1.419-.383-.344-.923-.516-1.62-.516-.647 0-1.152.143-1.514.427-.362.285-.543.68-.543 1.187 0 .405.172.748.516 1.028.344.28.93.537 1.756.77.828.232 1.475.488 1.942.768.467.28.813.608 1.039.981.226.374.338.814.338 1.32 0 .806-.314 1.452-.943 1.938-.629.485-1.47.728-2.522.728a4.678 4.678 0 0 1-1.915-.393c-.592-.262-1.049-.621-1.37-1.077a2.627 2.627 0 0 1-.482-1.552h1.32c0 .602.221 1.077.666 1.426.444.348 1.038.522 1.78.522.693 0 1.224-.14 1.593-.423.37-.283.554-.668.554-1.156 0-.487-.17-.864-.513-1.131-.341-.267-.961-.53-1.86-.79zm6.89-4.75v1.79h1.381v.978h-1.38v4.587c0 .296.061.518.184.666.123.149.333.223.629.223.146 0 .346-.028.602-.082V422a3.666 3.666 0 0 1-.971.137c-.565 0-.991-.171-1.278-.513-.288-.342-.431-.827-.431-1.456v-4.587h-1.347v-.977h1.347v-1.791h1.265zm7.424 9.187c-.073-.146-.132-.406-.177-.78-.588.611-1.29.917-2.106.917-.729 0-1.327-.206-1.794-.619a2.002 2.002 0 0 1-.7-1.569c0-.77.292-1.368.877-1.794.586-.426 1.41-.64 2.472-.64h1.23v-.58c0-.442-.132-.795-.396-1.057-.265-.262-.654-.393-1.17-.393-.45 0-.829.114-1.134.342-.305.228-.458.504-.458.827h-1.272c0-.369.131-.725.394-1.07a2.683 2.683 0 0 1 1.066-.816c.449-.2.942-.301 1.48-.301.852 0 1.52.213 2.003.639.483.426.734 1.013.752 1.76v3.405c0 .679.086 1.219.26 1.62V422h-1.327zm-2.098-.964c.396 0 .772-.102 1.128-.307a1.86 1.86 0 0 0 .772-.8v-1.518h-.991c-1.55 0-2.324.454-2.324 1.36 0 .397.132.707.396.93.265.223.604.335 1.019.335zm6.863-8.224v1.792h1.38v.977h-1.38v4.587c0 .296.062.518.185.666.123.149.332.223.629.223.145 0 .346-.028.601-.082V422a3.666 3.666 0 0 1-.97.137c-.566 0-.992-.171-1.279-.513-.287-.342-.43-.827-.43-1.456v-4.587H132.2v-.977h1.346v-1.791h1.265zm7.164 7.226c0-.342-.129-.607-.386-.796-.258-.19-.707-.352-1.347-.49-.64-.136-1.148-.3-1.524-.491-.376-.192-.654-.42-.834-.684a1.635 1.635 0 0 1-.27-.943c0-.606.256-1.119.769-1.538.513-.42 1.168-.63 1.965-.63.839 0 1.519.217 2.04.65.522.433.783.987.783 1.661H141.9c0-.346-.147-.645-.441-.895-.294-.25-.664-.376-1.11-.376-.461 0-.821.1-1.08.3a.948.948 0 0 0-.39.787c0 .305.12.535.362.69.241.155.678.303 1.309.445.631.14 1.143.31 1.534.505.392.196.683.432.872.708.19.276.284.612.284 1.008 0 .661-.265 1.19-.793 1.59-.529.398-1.215.598-2.058.598-.592 0-1.116-.105-1.572-.315a2.557 2.557 0 0 1-1.07-.878 2.117 2.117 0 0 1-.386-1.22h1.264c.023.423.193.76.51 1.008.316.248.735.372 1.254.372.479 0 .863-.096 1.152-.29.29-.194.434-.452.434-.776zm7 1.962v-6.419h-1.169v-.977h1.17v-.76c0-.792.211-1.405.635-1.838.424-.433 1.023-.65 1.798-.65.291 0 .58.04.868.117l-.069 1.025a3.632 3.632 0 0 0-.683-.061c-.41 0-.727.12-.95.358-.224.24-.335.583-.335 1.03v.779h1.579v.977h-1.58V422h-1.264zm3.903-3.767c0-.724.143-1.376.428-1.955a3.187 3.187 0 0 1 1.19-1.34c.507-.314 1.087-.471 1.739-.471 1.007 0 1.822.348 2.444 1.046.622.697.933 1.624.933 2.782v.089c0 .72-.138 1.366-.414 1.938a3.14 3.14 0 0 1-1.182 1.336c-.513.32-1.102.479-1.767.479-1.003 0-1.815-.349-2.437-1.046-.623-.697-.934-1.62-.934-2.769v-.089zm1.272.15c0 .821.19 1.48.57 1.976.381.497.89.745 1.529.745.642 0 1.153-.251 1.53-.755.379-.503.568-1.209.568-2.116 0-.81-.192-1.468-.577-1.972a1.84 1.84 0 0 0-1.535-.755c-.624 0-1.128.248-1.51.745-.384.497-.575 1.208-.575 2.133zm10.623-2.645a3.79 3.79 0 0 0-.622-.048c-.83 0-1.392.354-1.689 1.06V422h-1.264v-7.396h1.23l.02.854c.415-.66 1.003-.991 1.764-.991.246 0 .433.032.56.096v1.175zm8.996-3.691h1.32v7.048c0 .952-.287 1.697-.859 2.235-.571.538-1.334.807-2.286.807-.99 0-1.76-.253-2.31-.76-.552-.505-.828-1.214-.828-2.125h1.313c0 .57.156 1.014.468 1.333.312.319.764.478 1.357.478.542 0 .98-.17 1.316-.512.335-.342.504-.82.509-1.436v-7.068zm7.923 9.953c-.073-.146-.132-.406-.178-.78-.588.611-1.29.917-2.105.917-.73 0-1.328-.206-1.795-.619a2.002 2.002 0 0 1-.7-1.569c0-.77.292-1.368.878-1.794.586-.426 1.41-.64 2.471-.64h1.23v-.58c0-.442-.132-.795-.396-1.057-.264-.262-.654-.393-1.169-.393-.451 0-.83.114-1.135.342-.305.228-.458.504-.458.827h-1.271c0-.369.131-.725.393-1.07a2.683 2.683 0 0 1 1.066-.816c.45-.2.943-.301 1.48-.301.853 0 1.52.213 2.003.639.483.426.734 1.013.752 1.76v3.405c0 .679.087 1.219.26 1.62V422h-1.326zm-2.099-.964a2.22 2.22 0 0 0 1.128-.307 1.86 1.86 0 0 0 .773-.8v-1.518h-.992c-1.549 0-2.324.454-2.324 1.36 0 .397.132.707.397.93.264.223.604.335 1.018.335zm6.344-6.432l.041.93c.565-.712 1.303-1.067 2.215-1.067 1.563 0 2.351.882 2.365 2.645V422h-1.265v-4.895c-.004-.533-.126-.927-.365-1.182-.24-.255-.612-.383-1.118-.383-.41 0-.77.11-1.08.328a2.24 2.24 0 0 0-.725.861V422h-1.264v-7.396h1.196zM202.323 422H195.8v-.91l3.446-3.827c.51-.58.862-1.05 1.056-1.412.193-.362.29-.737.29-1.124 0-.52-.157-.946-.471-1.279-.315-.332-.734-.499-1.258-.499-.63 0-1.118.18-1.467.537-.348.358-.522.855-.522 1.493h-1.265c0-.916.295-1.656.885-2.221.59-.565 1.38-.848 2.369-.848.925 0 1.656.243 2.194.728.538.486.807 1.132.807 1.938 0 .98-.625 2.147-1.873 3.5l-2.666 2.892h4.997V422zm6.678-3.343h1.381v1.032h-1.38V422h-1.272v-2.31h-4.532v-.746l4.457-6.897H209v6.61zm-4.368 0h3.097v-4.88l-.15.273-2.947 4.607zm6.98 5.325l-.718-.492c.428-.597.652-1.212.67-1.845v-1.142h1.237v.991c0 .46-.113.92-.338 1.381-.226.46-.51.83-.851 1.107zM224.259 422h-6.521v-.91l3.445-3.827c.51-.58.863-1.05 1.056-1.412a2.35 2.35 0 0 0 .29-1.124c0-.52-.156-.946-.47-1.279-.315-.332-.735-.499-1.259-.499-.629 0-1.117.18-1.466.537-.349.358-.523.855-.523 1.493h-1.265c0-.916.295-1.656.886-2.221.59-.565 1.38-.848 2.368-.848.925 0 1.657.243 2.195.728.537.486.806 1.132.806 1.938 0 .98-.624 2.147-1.873 3.5l-2.666 2.892h4.997V422zm7.581-4.245c0 1.481-.253 2.582-.758 3.302-.506.72-1.297 1.08-2.373 1.08-1.061 0-1.848-.352-2.358-1.056-.51-.705-.775-1.756-.793-3.155v-1.689c0-1.463.253-2.55.759-3.26.506-.711 1.299-1.067 2.379-1.067 1.07 0 1.86.343 2.365 1.029.506.686.766 1.744.78 3.175v1.64zm-1.264-1.73c0-1.07-.15-1.851-.451-2.34-.301-.49-.778-.736-1.43-.736-.646 0-1.118.244-1.414.732-.296.487-.45 1.237-.458 2.249v2.023c0 1.076.156 1.87.468 2.382.312.513.785.77 1.418.77.625 0 1.089-.242 1.392-.725.303-.483.461-1.244.475-2.283v-2.072zm7.04 5.975h-1.27v-8.429l-2.55.937v-1.149l3.622-1.36h.199V422zm8.552-4.375c-.264.314-.58.567-.946.759a2.569 2.569 0 0 1-1.207.287c-.574 0-1.074-.141-1.5-.424-.426-.282-.756-.68-.988-1.193a4.067 4.067 0 0 1-.349-1.699c0-.665.127-1.264.38-1.797a2.787 2.787 0 0 1 1.076-1.224c.465-.283 1.007-.424 1.627-.424.985 0 1.76.368 2.328 1.104.567.736.85 1.74.85 3.011v.37c0 1.936-.382 3.35-1.147 4.241-.766.891-1.921 1.348-3.466 1.37h-.246v-1.066h.266c1.044-.018 1.846-.29 2.406-.816.561-.527.866-1.36.916-2.499zm-1.948 0c.424 0 .815-.13 1.173-.39.357-.26.618-.58.782-.964v-.505c0-.83-.18-1.504-.54-2.024-.36-.52-.815-.78-1.367-.78-.556 0-1.003.214-1.34.64-.337.426-.506.988-.506 1.685 0 .68.163 1.239.49 1.678.325.44.761.66 1.308.66z"/>
  </g>
</svg>
