<svg xmlns="http://www.w3.org/2000/svg" width="360" height="128">
  <g id="screenshot-stats-top" fill="none" fill-rule="evenodd" stroke="none" stroke-width="1">
    <path id="Background/Blue-500" fill="#016087" d="M0 0h360v128H0z"/>
    <path id="Inactive-Labels/Blue-200" fill="#BBC9D5" d="M233.106 106.54l1.531-7.493h1.716L234.056 109h-1.654l-1.894-7.267-1.934 7.267h-1.661l-2.297-9.953h1.716l1.544 7.478 1.9-7.478h1.45l1.88 7.492zm10.33-1.983h-4.089v3.062h4.778V109h-6.507v-9.953h6.46v1.394h-4.73v2.748h4.087v1.368zm7.915 0h-4.088v3.062h4.779V109h-6.508v-9.953h6.46v1.394h-4.73v2.748h4.087v1.368zm4.956.143l-1.128 1.196V109h-1.73v-9.953h1.73v4.669l.957-1.183 2.912-3.486h2.092l-3.698 4.41 3.91 5.543h-2.05l-2.995-4.3zm11.17 1.737c0-.438-.154-.775-.461-1.012-.308-.237-.863-.476-1.665-.718s-1.44-.51-1.914-.807c-.907-.57-1.36-1.312-1.36-2.228 0-.802.327-1.463.98-1.983.655-.52 1.503-.779 2.547-.779.693 0 1.31.128 1.853.383a3.04 3.04 0 0 1 1.278 1.09c.31.472.465.995.465 1.57h-1.723c0-.52-.163-.927-.489-1.221-.326-.294-.792-.441-1.398-.441-.565 0-1.003.12-1.316.362-.312.242-.468.58-.468 1.012 0 .365.169.669.506.913.337.243.893.48 1.668.71.775.23 1.397.493 1.866.787.47.294.814.63 1.032 1.011.22.381.329.826.329 1.337 0 .83-.318 1.489-.954 1.979-.636.49-1.498.735-2.587.735-.72 0-1.382-.134-1.986-.4-.604-.267-1.074-.635-1.409-1.104-.334-.47-.502-1.016-.502-1.64h1.73c0 .564.186 1.002.56 1.312.374.31.91.465 1.607.465.601 0 1.053-.122 1.356-.366a1.18 1.18 0 0 0 .455-.967zm28.999-7.39l2.87 7.629 2.865-7.63h2.235V109h-1.722v-3.281l.17-4.389-2.939 7.67h-1.237l-2.933-7.663.171 4.382V109h-1.723v-9.953h2.243zm17.958 5.236c0 .975-.169 1.831-.506 2.567-.338.736-.82 1.301-1.446 1.695-.627.395-1.348.592-2.164.592-.806 0-1.525-.197-2.156-.592-.632-.394-1.12-.955-1.463-1.685-.344-.729-.519-1.57-.523-2.522v-.56c0-.971.172-1.828.516-2.571.344-.743.83-1.311 1.456-1.706.627-.394 1.345-.59 2.157-.59.81 0 1.53.194 2.156.584.627.39 1.111.95 1.453 1.681.342.732.515 1.583.52 2.553v.554zm-1.73-.52c0-1.102-.208-1.948-.625-2.535-.417-.588-1.009-.882-1.774-.882-.748 0-1.332.293-1.754.878-.421.586-.637 1.414-.646 2.485v.574c0 1.094.213 1.94.64 2.536.426.597 1.017.896 1.773.896.766 0 1.355-.292 1.767-.875.413-.583.62-1.436.62-2.557v-.52zM324.052 109h-1.73l-4.436-7.062V109h-1.73v-9.953h1.73l4.45 7.089v-7.09h1.716V109zm9.037-8.559h-3.104V109h-1.715v-8.559h-3.077v-1.394h7.896v1.394zm9.208 8.559h-1.723v-4.423h-4.45V109h-1.73v-9.953h1.73v4.142h4.45v-4.142h1.723V109zm7.246-2.563c0-.438-.154-.775-.461-1.012-.308-.237-.863-.476-1.665-.718s-1.44-.51-1.914-.807c-.907-.57-1.36-1.312-1.36-2.228 0-.802.327-1.463.98-1.983.655-.52 1.503-.779 2.547-.779.693 0 1.31.128 1.852.383a3.04 3.04 0 0 1 1.279 1.09c.31.472.465.995.465 1.57h-1.723c0-.52-.163-.927-.489-1.221-.326-.294-.792-.441-1.398-.441-.565 0-1.003.12-1.316.362-.312.242-.468.58-.468 1.012 0 .365.169.669.506.913.337.243.893.48 1.668.71.775.23 1.397.493 1.866.787.47.294.814.63 1.032 1.011.22.381.328.826.328 1.337 0 .83-.317 1.489-.953 1.979-.636.49-1.498.735-2.588.735-.72 0-1.382-.134-1.985-.4-.604-.267-1.074-.635-1.409-1.104-.335-.47-.502-1.016-.502-1.64h1.73c0 .564.186 1.002.56 1.312.374.31.91.465 1.606.465.602 0 1.054-.122 1.357-.366a1.18 1.18 0 0 0 .455-.967zM76.134 109h-1.722v-9.953h1.722V109zm10.022 0h-1.73l-4.436-7.062V109h-1.73v-9.953h1.73l4.45 7.089v-7.09h1.716V109zm7.246-2.563c0-.438-.154-.775-.462-1.012-.307-.237-.862-.476-1.664-.718-.802-.242-1.44-.51-1.914-.807-.907-.57-1.36-1.312-1.36-2.228 0-.802.326-1.463.98-1.983.654-.52 1.503-.779 2.547-.779.693 0 1.31.128 1.852.383a3.04 3.04 0 0 1 1.279 1.09c.31.472.465.995.465 1.57h-1.723c0-.52-.163-.927-.489-1.221-.326-.294-.792-.441-1.398-.441-.565 0-1.004.12-1.316.362-.312.242-.468.58-.468 1.012 0 .365.169.669.506.913.337.243.893.48 1.668.71.775.23 1.397.493 1.866.787.47.294.813.63 1.032 1.011.219.381.328.826.328 1.337 0 .83-.318 1.489-.953 1.979-.636.49-1.498.735-2.588.735-.72 0-1.382-.134-1.986-.4-.603-.267-1.073-.635-1.408-1.104-.335-.47-.502-1.016-.502-1.64h1.73c0 .564.186 1.002.56 1.312.374.31.91.465 1.606.465.602 0 1.054-.122 1.357-.366a1.18 1.18 0 0 0 .455-.967zM98.474 109h-1.723v-9.953h1.723V109zm9.755-1.292c-.36.47-.859.825-1.497 1.066-.638.242-1.363.363-2.174.363-.834 0-1.572-.19-2.215-.568a3.78 3.78 0 0 1-1.487-1.623c-.348-.704-.53-1.526-.543-2.465v-.779c0-1.504.36-2.678 1.08-3.524.72-.845 1.725-1.268 3.015-1.268 1.107 0 1.987.274 2.638.82.652.547 1.044 1.336 1.176 2.366h-1.695c-.192-1.199-.887-1.798-2.085-1.798-.775 0-1.364.279-1.767.837-.404.559-.612 1.378-.626 2.458v.765c0 1.076.227 1.911.68 2.506.454.594 1.084.892 1.89.892.885 0 1.514-.2 1.887-.602v-1.948h-2.05v-1.312h3.773v3.814zm9.803 1.292h-1.723v-4.423h-4.45V109h-1.73v-9.953h1.73v4.142h4.45v-4.142h1.723V109zm9.037-8.559h-3.104V109h-1.715v-8.559h-3.077v-1.394h7.896v1.394zm6.398 5.996c0-.438-.154-.775-.461-1.012-.308-.237-.863-.476-1.665-.718s-1.44-.51-1.914-.807c-.907-.57-1.36-1.312-1.36-2.228 0-.802.327-1.463.98-1.983.655-.52 1.504-.779 2.547-.779.693 0 1.31.128 1.853.383a3.04 3.04 0 0 1 1.278 1.09c.31.472.465.995.465 1.57h-1.723c0-.52-.163-.927-.488-1.221-.326-.294-.792-.441-1.398-.441-.566 0-1.004.12-1.316.362-.313.242-.469.58-.469 1.012 0 .365.169.669.506.913.337.243.893.48 1.668.71.775.23 1.397.493 1.866.787.47.294.814.63 1.033 1.011.218.381.328.826.328 1.337 0 .83-.318 1.489-.954 1.979-.636.49-1.498.735-2.587.735-.72 0-1.382-.134-1.986-.4-.604-.267-1.073-.635-1.408-1.104-.335-.47-.503-1.016-.503-1.64h1.73c0 .564.187 1.002.56 1.312.374.31.91.465 1.607.465.601 0 1.054-.122 1.357-.366a1.18 1.18 0 0 0 .454-.967z"/>
    <path id="Labels/White" fill="#FFF" d="M80.877 55.338c0-.625-.22-1.107-.66-1.445-.439-.339-1.231-.68-2.377-1.026-1.146-.345-2.057-.729-2.735-1.152-1.295-.814-1.943-1.875-1.943-3.184 0-1.146.467-2.09 1.401-2.832.935-.742 2.147-1.113 3.638-1.113.99 0 1.872.182 2.647.547.774.364 1.383.884 1.826 1.557.443.674.664 1.421.664 2.242h-2.461c0-.743-.233-1.324-.698-1.744-.466-.42-1.131-.63-1.997-.63-.808 0-1.434.173-1.88.518-.446.345-.67.827-.67 1.445 0 .521.242.956.723 1.304.482.349 1.277.687 2.383 1.016 1.107.329 1.996.703 2.666 1.123.67.42 1.162.902 1.475 1.445.312.544.469 1.18.469 1.91 0 1.184-.454 2.127-1.363 2.827-.908.7-2.14 1.05-3.696 1.05-1.029 0-1.974-.191-2.837-.572-.862-.38-1.533-.907-2.012-1.577-.478-.67-.717-1.452-.717-2.344h2.47c0 .807.267 1.432.801 1.875.534.443 1.299.664 2.295.664.86 0 1.506-.174 1.939-.522.432-.349.649-.81.649-1.382zm7.383-9.473v2.569h1.865v1.757H88.26v5.899c0 .403.08.695.239.874.16.179.444.268.855.268.273 0 .55-.032.83-.097v1.836c-.54.15-1.062.224-1.563.224-1.823 0-2.734-1.006-2.734-3.017V50.19h-1.739v-1.757h1.739v-2.569h2.373zM98.25 59c-.104-.202-.195-.53-.273-.986-.756.787-1.68 1.181-2.774 1.181-1.061 0-1.927-.302-2.598-.908-.67-.605-1.005-1.354-1.005-2.246 0-1.126.418-1.99 1.254-2.593.837-.602 2.033-.903 3.59-.903h1.454v-.693c0-.547-.153-.985-.459-1.314-.306-.329-.771-.493-1.396-.493-.54 0-.983.135-1.328.405-.345.27-.518.614-.518 1.03h-2.373c0-.579.192-1.12.576-1.626.385-.504.907-.9 1.568-1.186.66-.286 1.398-.43 2.212-.43 1.237 0 2.223.311 2.959.933.735.622 1.113 1.496 1.132 2.622v4.766c0 .95.134 1.709.4 2.275V59H98.25zm-2.607-1.709a2.7 2.7 0 0 0 1.323-.342c.413-.228.724-.534.932-.918V54.04H96.62c-.879 0-1.54.153-1.982.459-.443.306-.664.739-.664 1.299 0 .456.151.819.454 1.089.302.27.708.405 1.216.405zm10.087-11.426v2.569h1.866v1.757h-1.866v5.899c0 .403.08.695.24.874.16.179.444.268.854.268.274 0 .55-.032.83-.097v1.836c-.54.15-1.06.224-1.562.224-1.823 0-2.735-1.006-2.735-3.017V50.19h-1.738v-1.757h1.738v-2.569h2.373zm9.6 10.264c0-.423-.174-.746-.522-.967-.349-.221-.926-.417-1.734-.586-.807-.17-1.48-.384-2.021-.644-1.185-.573-1.778-1.403-1.778-2.49 0-.912.385-1.674 1.153-2.286.768-.612 1.745-.918 2.93-.918 1.262 0 2.283.313 3.06.938.779.625 1.168 1.435 1.168 2.431h-2.373c0-.455-.17-.835-.508-1.137-.338-.303-.788-.454-1.348-.454-.52 0-.945.12-1.274.361a1.14 1.14 0 0 0-.493.967c0 .364.153.648.459.85.306.201.924.405 1.855.61.931.205 1.662.449 2.193.732.53.283.924.624 1.181 1.02.257.398.386.88.386 1.446 0 .95-.394 1.72-1.182 2.31-.787.589-1.82.883-3.095.883-.866 0-1.638-.156-2.315-.468-.677-.313-1.204-.743-1.582-1.29a3.051 3.051 0 0 1-.566-1.767h2.305c.032.56.244.991.634 1.294.39.303.908.454 1.553.454.625 0 1.1-.119 1.426-.356.325-.238.488-.549.488-.933zM36 51v2H23.83l5.58 5.59L28 60l-8-8 8-8 1.42 1.41L23.83 51H36zm285.703-34h-1.654V9.009l-2.44.834V8.44l3.882-1.428h.212V17zm10.151 0h-6.692v-1.142l3.316-3.616c.478-.533.819-.978 1.022-1.336.202-.358.304-.717.304-1.077 0-.474-.134-.857-.4-1.148-.267-.292-.626-.438-1.077-.438-.538 0-.955.164-1.25.492-.297.328-.445.777-.445 1.347h-1.661c0-.606.138-1.152.413-1.637.276-.486.67-.863 1.183-1.132.513-.268 1.104-.403 1.774-.403.966 0 1.728.243 2.286.728.559.486.838 1.157.838 2.013 0 .497-.14 1.018-.42 1.562-.28.545-.74 1.164-1.378 1.856l-2.434 2.605h4.621V17zm2.373-1.75c.31 0 .549.088.717.263a.914.914 0 0 1 .253.66.88.88 0 0 1-.253.646c-.168.17-.408.256-.717.256-.297 0-.531-.084-.705-.253a.867.867 0 0 1-.26-.65c0-.263.085-.483.254-.659.168-.175.405-.263.71-.263zm0-5.804c.31 0 .549.088.717.263a.914.914 0 0 1 .253.66.88.88 0 0 1-.253.646c-.168.171-.408.256-.717.256-.297 0-.531-.084-.705-.252a.867.867 0 0 1-.26-.65c0-.264.085-.484.254-.66.168-.175.405-.263.71-.263zm4.525 1.819h1.012c.51-.005.915-.137 1.213-.397.299-.26.448-.636.448-1.128 0-.474-.124-.842-.373-1.104-.248-.262-.628-.393-1.138-.393-.447 0-.813.129-1.1.386-.288.258-.431.594-.431 1.009h-1.661c0-.51.135-.976.406-1.395.272-.42.65-.746 1.135-.98a3.696 3.696 0 0 1 1.63-.353c.994 0 1.774.25 2.342.749.567.499.85 1.193.85 2.081 0 .447-.141.867-.426 1.261a2.68 2.68 0 0 1-1.104.893c.547.186.962.48 1.247.881.285.401.427.88.427 1.436 0 .893-.306 1.604-.919 2.133-.613.528-1.418.793-2.416.793-.957 0-1.741-.255-2.352-.766-.61-.51-.916-1.19-.916-2.037h1.661c0 .437.147.793.441 1.066.294.274.69.41 1.186.41.515 0 .92-.136 1.217-.41.296-.273.444-.67.444-1.19 0-.523-.155-.926-.465-1.209-.31-.283-.77-.424-1.38-.424h-.978v-1.312zm12.523 1.545c0 1.43-.267 2.51-.803 3.236-.535.727-1.35 1.09-2.444 1.09-1.075 0-1.885-.354-2.43-1.062-.544-.709-.824-1.758-.837-3.148v-1.723c0-1.43.267-2.504.803-3.22.535-.715 1.352-1.073 2.45-1.073 1.09 0 1.902.349 2.438 1.046.535.697.81 1.74.823 3.13v1.724zm-1.66-1.86c0-.934-.128-1.619-.384-2.054-.255-.435-.66-.653-1.216-.653-.543 0-.941.206-1.197.619-.255.412-.39 1.056-.403 1.931v2.256c0 .93.13 1.622.39 2.078.26.456.667.684 1.223.684.534 0 .928-.211 1.183-.633.255-.421.39-1.081.403-1.979V10.95zM277 19l14-14v14h-14zm29-13.125h3V19h-9V5.875h3V5h3v.875zm-49.023 2.14A14.934 14.934 0 0 1 266 5c3.387 0 6.512 1.123 9.023 3.016L266 19l-9.023-10.984z"/>
    <path id="Labels/White" fill="#FFF" d="M150 126h62v2h-62v-2zm14.929-17v-9.953h2.94c.879 0 1.66.196 2.34.588a4.009 4.009 0 0 1 1.583 1.668c.374.72.56 1.545.56 2.474v.5c0 .943-.187 1.772-.563 2.488a3.96 3.96 0 0 1-1.607 1.654c-.695.387-1.491.581-2.389.581h-2.864zm1.73-8.559v7.178h1.127c.907 0 1.603-.284 2.089-.85.485-.568.732-1.383.741-2.445v-.553c0-1.08-.234-1.905-.704-2.475-.47-.57-1.15-.855-2.044-.855h-1.21zm12.844 6.242h-3.856l-.806 2.317h-1.798l3.76-9.953h1.551l3.767 9.953h-1.805l-.813-2.317zm-3.37-1.395h2.885l-1.443-4.129-1.442 4.13zm9.338-1.524l2.29-4.717h1.914l-3.336 6.289V109h-1.736v-3.664l-3.343-6.29h1.92l2.29 4.718zm10.377 2.673c0-.438-.154-.775-.462-1.012-.307-.237-.862-.476-1.664-.718-.802-.242-1.44-.51-1.914-.807-.907-.57-1.36-1.312-1.36-2.228 0-.802.326-1.463.98-1.983.654-.52 1.503-.779 2.547-.779.692 0 1.31.128 1.852.383a3.04 3.04 0 0 1 1.278 1.09c.31.472.465.995.465 1.57h-1.722c0-.52-.163-.927-.49-1.221-.325-.294-.79-.441-1.397-.441-.565 0-1.004.12-1.316.362-.312.242-.468.58-.468 1.012 0 .365.168.669.506.913.337.243.893.48 1.668.71.774.23 1.396.493 1.866.787.47.294.813.63 1.032 1.011.219.381.328.826.328 1.337 0 .83-.318 1.489-.953 1.979-.636.49-1.499.735-2.588.735-.72 0-1.382-.134-1.986-.4-.604-.267-1.073-.635-1.408-1.104-.335-.47-.502-1.016-.502-1.64h1.73c0 .564.186 1.002.56 1.312.373.31.909.465 1.606.465.602 0 1.054-.122 1.357-.366a1.18 1.18 0 0 0 .455-.967z"/>
  </g>
</svg>
