<svg xmlns="http://www.w3.org/2000/svg" width="344" height="167">
  <g id="screenshot-stats-container-2.svg" fill="none" fill-rule="evenodd" stroke="none" stroke-width="1">
    <path id="Separator/Gray-50" fill="#E1E2E2" d="M56 109h288v1H56z"/>
    <path id="Icon/Gray-700" fill="#3D4145" fill-rule="nonzero" d="M32 93H19v-2h13v2zm5-10H19v2h18v-2zm-18-4v2h11v-2H19zm14 0v2h4v-2h-4zm-6 8v2h10v-2H27zm-8 0v2h5v-2h-5z"/>
    <path id="Label/Gray-500" fill="#636D75" fill-rule="nonzero" d="M319.626 91h-6.522v-.91l3.446-3.827c.51-.58.862-1.05 1.056-1.412a2.35 2.35 0 0 0 .29-1.124c0-.52-.157-.946-.471-1.279-.315-.332-.734-.499-1.258-.499-.629 0-1.118.18-1.466.537-.349.358-.523.855-.523 1.493h-1.265c0-.916.295-1.656.885-2.221.59-.565 1.38-.848 2.369-.848.925 0 1.657.243 2.194.728.538.486.807 1.132.807 1.938 0 .98-.624 2.147-1.873 3.5l-2.666 2.892h4.997V91zm7.581-4.245c0 1.481-.253 2.582-.759 3.302-.506.72-1.296 1.08-2.372 1.08-1.062 0-1.848-.352-2.358-1.056-.51-.705-.775-1.756-.793-3.155v-1.689c0-1.463.253-2.55.759-3.26.505-.711 1.298-1.067 2.378-1.067 1.071 0 1.86.343 2.366 1.029.506.686.765 1.744.779 3.175v1.64zm-1.265-1.73c0-1.07-.15-1.851-.45-2.34-.302-.49-.778-.736-1.43-.736-.647 0-1.118.244-1.415.732-.296.487-.448 1.237-.458 2.249v2.023c0 1.076.157 1.87.469 2.382.312.513.785.77 1.418.77.625 0 1.088-.242 1.391-.725.303-.483.462-1.244.475-2.283v-2.072z"/>
    <path id="Labels/Gray-300" fill="#969CA1" fill-rule="nonzero" d="M299.494 57.143l2.168-6.674h1.629L300.221 59h-1.436l-3.058-8.531h1.623l2.144 6.674zM305.63 59h-1.424v-6.34h1.424V59zm-1.512-7.986c0-.22.07-.4.208-.545.139-.145.337-.217.595-.217.258 0 .457.072.598.217a.75.75 0 0 1 .21.545c0 .215-.07.393-.21.536-.141.142-.34.214-.598.214-.258 0-.456-.072-.595-.214a.738.738 0 0 1-.208-.536zm5.854 8.103c-.903 0-1.634-.284-2.195-.852-.56-.569-.84-1.326-.84-2.27v-.177c0-.632.122-1.198.366-1.696a2.787 2.787 0 0 1 1.028-1.163 2.719 2.719 0 0 1 1.477-.416c.863 0 1.53.275 2 .826.471.55.707 1.33.707 2.338v.574h-4.143c.043.524.218.938.525 1.242.306.305.692.457 1.157.457.652 0 1.183-.263 1.593-.79l.768.732a2.563 2.563 0 0 1-1.017.882 3.178 3.178 0 0 1-1.426.313zm-.17-5.431c-.39 0-.706.136-.947.41-.24.273-.393.654-.46 1.142h2.713v-.105c-.03-.477-.158-.837-.38-1.081-.223-.244-.532-.366-.926-.366zm9.387 3.351l1.007-4.377h1.389l-1.73 6.34h-1.171l-1.36-4.354L315.988 59h-1.172l-1.734-6.34h1.389l1.025 4.33 1.3-4.33h1.073l1.318 4.377zm6.902.24a.645.645 0 0 0-.314-.58c-.209-.133-.555-.25-1.04-.351a5.346 5.346 0 0 1-1.213-.387c-.71-.344-1.066-.842-1.066-1.494 0-.547.23-1.004.691-1.371.461-.367 1.047-.551 1.758-.551.758 0 1.37.187 1.837.562.467.375.7.862.7 1.46h-1.423a.877.877 0 0 0-.305-.683c-.203-.182-.473-.273-.809-.273-.312 0-.567.073-.764.217a.683.683 0 0 0-.296.58c0 .219.091.389.275.51.184.121.555.243 1.113.366.559.123.997.27 1.316.44.318.17.554.374.709.612.154.238.231.527.231.867 0 .57-.236 1.032-.709 1.386-.472.353-1.092.53-1.857.53-.52 0-.983-.094-1.389-.281a2.285 2.285 0 0 1-.95-.773 1.83 1.83 0 0 1-.339-1.061h1.383c.02.336.146.595.38.776.235.182.546.273.932.273.375 0 .66-.072.856-.214a.662.662 0 0 0 .293-.56zM23.03 51.664h-2.66V59H18.9v-7.336h-2.637V50.47h6.767v1.195zM25.527 59h-1.423v-6.34h1.423V59zm-1.511-7.986c0-.22.069-.4.208-.545.138-.145.337-.217.594-.217.258 0 .457.072.598.217a.75.75 0 0 1 .211.545c0 .215-.07.393-.211.536-.14.142-.34.214-.598.214-.257 0-.456-.072-.594-.214a.738.738 0 0 1-.208-.536zm4.845.105v1.541h1.12v1.055h-1.12v3.539c0 .242.048.417.144.524.096.108.266.161.513.161.164 0 .33-.02.498-.058v1.101c-.325.09-.637.135-.938.135-1.094 0-1.64-.603-1.64-1.81v-3.592h-1.043V52.66h1.043v-1.54h1.423zM32.582 59h-1.424v-9h1.424v9zm4.342.117c-.903 0-1.634-.284-2.195-.852-.56-.569-.84-1.326-.84-2.27v-.177c0-.632.122-1.198.366-1.696a2.787 2.787 0 0 1 1.028-1.163 2.719 2.719 0 0 1 1.477-.416c.863 0 1.53.275 2 .826.471.55.707 1.33.707 2.338v.574h-4.143c.043.524.218.938.525 1.242.306.305.692.457 1.157.457.652 0 1.183-.263 1.594-.79l.767.732a2.563 2.563 0 0 1-1.016.882c-.424.209-.9.313-1.427.313zm-.17-5.431c-.39 0-.706.136-.946.41-.24.273-.394.654-.46 1.142h2.713v-.105c-.032-.477-.159-.837-.381-1.081-.223-.244-.532-.366-.926-.366z"/>
    <path id="Text/Gray-900" fill="#1A1A1A" fill-rule="nonzero" d="M18.741 25.302V29h-1.73v-9.953h3.808c1.112 0 1.995.29 2.65.868.653.579.98 1.344.98 2.297 0 .975-.32 1.734-.96 2.276-.64.543-1.537.814-2.69.814H18.74zm0-1.388h2.078c.616 0 1.085-.145 1.409-.434.323-.29.485-.708.485-1.254 0-.538-.164-.968-.492-1.289-.328-.321-.78-.486-1.354-.496h-2.126v3.473zm6.658 1.32c0-.725.144-1.378.431-1.96a3.145 3.145 0 0 1 1.21-1.339c.52-.312 1.117-.468 1.791-.468.998 0 1.808.321 2.43.964.622.642.958 1.494 1.009 2.556l.006.39c0 .73-.14 1.38-.42 1.955a3.108 3.108 0 0 1-1.203 1.333c-.522.314-1.125.472-1.808.472-1.044 0-1.879-.348-2.506-1.043-.626-.695-.94-1.621-.94-2.779v-.082zm1.662.143c0 .761.157 1.357.471 1.788.315.43.752.646 1.313.646.56 0 .997-.22 1.309-.657.312-.437.468-1.077.468-1.92 0-.748-.16-1.34-.482-1.778-.321-.437-.758-.656-1.309-.656-.542 0-.973.215-1.292.646-.319.43-.478 1.074-.478 1.931zm10.766 1.613a.753.753 0 0 0-.366-.677c-.243-.154-.648-.291-1.213-.41-.565-.118-1.037-.269-1.415-.45-.83-.402-1.244-.983-1.244-1.744 0-.638.269-1.171.807-1.6.537-.428 1.22-.642 2.05-.642.884 0 1.599.219 2.143.656.545.438.817 1.005.817 1.702h-1.66c0-.319-.12-.584-.356-.796-.237-.212-.552-.318-.944-.318-.364 0-.662.084-.892.253a.797.797 0 0 0-.345.677c0 .255.107.453.321.594.214.142.647.284 1.3.428.65.143 1.162.314 1.534.512.371.199.647.437.827.715.18.278.27.615.27 1.011 0 .666-.276 1.205-.827 1.617-.552.413-1.274.619-2.167.619-.606 0-1.146-.11-1.62-.328-.474-.22-.843-.52-1.108-.903a2.136 2.136 0 0 1-.396-1.237h1.613c.023.392.171.694.444.906.274.212.636.318 1.087.318.438 0 .77-.084.998-.25a.772.772 0 0 0 .342-.653zm5.161-7.184v1.798h1.306v1.23h-1.306v4.129c0 .282.056.486.168.612.111.125.31.188.598.188.191 0 .385-.023.581-.069v1.285a4.091 4.091 0 0 1-1.094.158c-1.276 0-1.914-.704-1.914-2.113v-4.19H40.11v-1.23h1.217v-1.798h1.661zm6.72 7.184a.753.753 0 0 0-.366-.677c-.244-.154-.648-.291-1.213-.41-.565-.118-1.037-.269-1.415-.45-.83-.402-1.244-.983-1.244-1.744 0-.638.269-1.171.806-1.6.538-.428 1.222-.642 2.051-.642.884 0 1.599.219 2.143.656.545.438.817 1.005.817 1.702h-1.661c0-.319-.119-.584-.355-.796-.237-.212-.552-.318-.944-.318-.364 0-.662.084-.892.253a.797.797 0 0 0-.345.677c0 .255.107.453.321.594.214.142.647.284 1.299.428.652.143 1.163.314 1.535.512.371.199.647.437.827.715.18.278.27.615.27 1.011 0 .666-.276 1.205-.827 1.617-.552.413-1.274.619-2.167.619-.606 0-1.147-.11-1.62-.328-.474-.22-.844-.52-1.108-.903a2.136 2.136 0 0 1-.396-1.237h1.613c.023.392.17.694.444.906.274.212.636.318 1.087.318.438 0 .77-.084.998-.25a.772.772 0 0 0 .342-.653zM60.693 29c-.073-.141-.136-.371-.191-.69a2.586 2.586 0 0 1-1.941.827c-.743 0-1.35-.212-1.819-.636a2.034 2.034 0 0 1-.704-1.572c0-.789.293-1.394.879-1.815.585-.422 1.423-.633 2.512-.633h1.018v-.485c0-.383-.107-.69-.321-.92-.214-.23-.54-.345-.978-.345-.378 0-.688.095-.93.284a.878.878 0 0 0-.362.721h-1.66c0-.405.134-.785.403-1.138a2.68 2.68 0 0 1 1.097-.83c.462-.2.978-.301 1.548-.301.866 0 1.556.217 2.071.653.515.435.78 1.047.793 1.835v3.336c0 .665.094 1.196.28 1.593V29h-1.695zm-1.825-1.196c.328 0 .637-.08.926-.24.29-.16.507-.373.653-.642v-1.395h-.895c-.615 0-1.078.107-1.388.322-.31.214-.465.517-.465.909 0 .319.106.573.318.762.212.19.496.284.851.284zm6.522-6.2l.047.854c.547-.66 1.265-.991 2.154-.991 1.54 0 2.324.882 2.351 2.645V29h-1.66v-4.792c0-.47-.102-.817-.305-1.042-.203-.226-.534-.339-.995-.339-.67 0-1.169.303-1.497.91V29h-1.66v-7.396h1.565zm5.933 3.643c0-1.14.265-2.054.793-2.745.529-.69 1.238-1.035 2.126-1.035.784 0 1.418.273 1.9.82V18.5h1.662V29H76.3l-.082-.766c-.497.602-1.16.903-1.99.903-.865 0-1.566-.349-2.102-1.046-.535-.697-.803-1.645-.803-2.844zm1.661.144c0 .752.145 1.338.434 1.76.29.421.701.632 1.234.632.68 0 1.176-.303 1.49-.909v-3.158c-.305-.593-.797-.889-1.476-.889-.538 0-.952.213-1.244.64-.292.425-.438 1.067-.438 1.924zm11.93-.09V29h-1.73v-9.953h3.807c1.112 0 1.995.29 2.65.868.653.579.98 1.344.98 2.297 0 .975-.32 1.734-.96 2.276-.64.543-1.537.814-2.69.814h-2.058zm0-1.387h2.077c.615 0 1.085-.145 1.408-.434.324-.29.486-.708.486-1.254 0-.538-.164-.968-.492-1.289-.329-.321-.78-.486-1.354-.496h-2.126v3.473zM96.314 29c-.072-.141-.136-.371-.191-.69a2.586 2.586 0 0 1-1.941.827c-.743 0-1.35-.212-1.819-.636a2.034 2.034 0 0 1-.704-1.572c0-.789.293-1.394.879-1.815.585-.422 1.423-.633 2.512-.633h1.018v-.485c0-.383-.107-.69-.321-.92-.214-.23-.54-.345-.977-.345-.379 0-.689.095-.93.284a.878.878 0 0 0-.362.721h-1.662c0-.405.135-.785.404-1.138a2.68 2.68 0 0 1 1.097-.83c.462-.2.979-.301 1.548-.301.866 0 1.557.217 2.072.653.514.435.779 1.047.792 1.835v3.336c0 .665.094 1.196.28 1.593V29h-1.695zm-1.825-1.196c.328 0 .637-.08.927-.24.289-.16.507-.373.652-.642v-1.395h-.895c-.615 0-1.078.107-1.388.322-.31.214-.465.517-.465.909 0 .319.106.573.318.762.212.19.496.284.851.284zm4.69-2.557c0-1.148.27-2.066.81-2.751.54-.686 1.256-1.03 2.15-1.03.843 0 1.506.295 1.989.883l.075-.745h1.497v7.17c0 .971-.302 1.737-.906 2.297-.603.56-1.418.841-2.443.841a3.939 3.939 0 0 1-1.59-.338c-.517-.226-.91-.52-1.179-.886l.786-.998c.51.607 1.14.91 1.887.91.551 0 .987-.15 1.306-.448.319-.299.478-.737.478-1.316v-.5c-.478.534-1.116.8-1.914.8-.866 0-1.573-.343-2.123-1.032-.549-.688-.823-1.64-.823-2.857zm1.654.144c0 .742.152 1.327.455 1.753.303.426.723.64 1.26.64.67 0 1.167-.288 1.491-.862v-3.254c-.314-.56-.807-.84-1.477-.84-.546 0-.971.216-1.274.649-.303.433-.455 1.07-.455 1.914zm9.83 3.746c-1.053 0-1.906-.332-2.56-.995-.654-.663-.981-1.546-.981-2.649v-.205c0-.738.142-1.398.427-1.979a3.252 3.252 0 0 1 1.2-1.357 3.172 3.172 0 0 1 1.723-.485c1.007 0 1.785.321 2.334.964.55.642.824 1.551.824 2.727v.67h-4.833c.05.61.254 1.094.612 1.45.357.355.807.533 1.35.533.76 0 1.38-.308 1.86-.923l.895.854a2.99 2.99 0 0 1-1.186 1.029 3.713 3.713 0 0 1-1.665.366zm-.198-6.337c-.456 0-.824.16-1.104.478-.28.32-.46.764-.537 1.333h3.165v-.123c-.036-.556-.184-.976-.444-1.26-.26-.286-.62-.428-1.08-.428zm8.6 4.19a.753.753 0 0 0-.366-.677c-.244-.154-.649-.291-1.214-.41-.565-.118-1.036-.269-1.415-.45-.83-.402-1.244-.983-1.244-1.744 0-.638.269-1.171.807-1.6.538-.428 1.221-.642 2.05-.642.885 0 1.599.219 2.144.656.544.438.817 1.005.817 1.702h-1.662c0-.319-.118-.584-.355-.796-.237-.212-.552-.318-.943-.318-.365 0-.662.084-.893.253a.797.797 0 0 0-.345.677c0 .255.107.453.322.594.214.142.647.284 1.298.428.652.143 1.164.314 1.535.512.371.199.647.437.827.715.18.278.27.615.27 1.011 0 .666-.275 1.205-.827 1.617-.551.413-1.274.619-2.167.619-.606 0-1.146-.11-1.62-.328-.474-.22-.843-.52-1.107-.903a2.136 2.136 0 0 1-.397-1.237h1.613c.023.392.171.694.445.906.273.212.635.318 1.087.318.437 0 .77-.084.998-.25a.772.772 0 0 0 .341-.653zM63.75 85.742h-4.93v4.031h5.727V91H57.32V79.625h7.149v1.234H58.82v3.657h4.93v1.226zm3.805-3.195l.047 1.062c.645-.812 1.49-1.218 2.53-1.218 1.787 0 2.688 1.007 2.704 3.023V91H71.39v-5.594c-.006-.61-.145-1.06-.418-1.351-.274-.292-.7-.438-1.278-.438-.468 0-.88.125-1.234.375s-.63.578-.828.985V91h-1.445v-8.453h1.367zM80.235 91c-.084-.167-.152-.464-.204-.89-.672.697-1.474 1.046-2.406 1.046-.833 0-1.517-.235-2.05-.707-.535-.471-.802-1.069-.802-1.793 0-.88.335-1.564 1.004-2.05.67-.488 1.611-.731 2.825-.731h1.406v-.664c0-.505-.151-.908-.453-1.207-.302-.3-.748-.45-1.336-.45-.516 0-.948.13-1.297.391-.35.26-.524.576-.524.946h-1.453c0-.422.15-.83.45-1.223.299-.393.705-.704 1.218-.934a4.1 4.1 0 0 1 1.692-.343c.974 0 1.737.243 2.289.73s.838 1.158.86 2.012v3.89c0 .776.098 1.394.296 1.852V91h-1.516zm-2.4-1.102a2.54 2.54 0 0 0 1.29-.351c.406-.235.7-.54.883-.914v-1.735h-1.133c-1.77 0-2.656.519-2.656 1.555 0 .453.15.807.453 1.063.302.255.69.382 1.164.382zm13.04-3.03c0 1.29-.297 2.329-.89 3.112-.594.784-1.391 1.176-2.391 1.176-1.068 0-1.893-.377-2.477-1.133l-.07.977h-1.328V79h1.445v4.477c.583-.724 1.388-1.086 2.414-1.086 1.026 0 1.832.388 2.418 1.164.586.776.879 1.838.879 3.187v.125zm-1.445-.165c0-.984-.19-1.745-.57-2.281-.38-.537-.928-.805-1.641-.805-.953 0-1.638.443-2.055 1.328v3.657c.443.885 1.133 1.328 2.07 1.328.693 0 1.232-.269 1.618-.805.385-.536.578-1.344.578-2.422zM94.266 91H92.82V79h1.446v12zm3.882 0h-1.445v-8.453h1.445V91zm-1.562-10.695c0-.235.072-.433.215-.594.143-.162.355-.242.636-.242.282 0 .495.08.641.242.146.161.219.36.219.594 0 .234-.073.43-.219.586-.146.156-.36.234-.64.234-.282 0-.494-.078-.637-.234a.834.834 0 0 1-.215-.586zm5.242 2.242l.047 1.062c.646-.812 1.49-1.218 2.531-1.218 1.787 0 2.688 1.007 2.703 3.023V91h-1.445v-5.594c-.005-.61-.144-1.06-.418-1.351-.273-.292-.7-.438-1.277-.438-.469 0-.88.125-1.235.375-.354.25-.63.578-.828.985V91h-1.445v-8.453h1.367zm7.117 4.156c0-1.318.305-2.366.914-3.144.61-.78 1.417-1.168 2.422-1.168 1.032 0 1.836.364 2.414 1.093l.07-.937h1.32v8.25c0 1.094-.323 1.956-.972 2.586-.648.63-1.52.945-2.613.945-.61 0-1.206-.13-1.79-.39-.582-.26-1.028-.618-1.335-1.07l.75-.868c.62.766 1.378 1.148 2.273 1.148.704 0 1.252-.197 1.645-.593.393-.396.59-.953.59-1.672v-.727c-.578.667-1.367 1-2.367 1-.99 0-1.79-.398-2.403-1.195-.612-.797-.918-1.883-.918-3.258zm1.453.164c0 .953.196 1.702.586 2.246.391.545.938.817 1.641.817.911 0 1.58-.414 2.008-1.243v-3.859c-.443-.807-1.107-1.21-1.992-1.21-.704 0-1.253.273-1.649.82-.396.546-.594 1.356-.594 2.43zM131.195 91h-1.507l-5.727-8.766V91h-1.508V79.625h1.508l5.742 8.805v-8.805h1.492V91zm5.946.156c-1.146 0-2.078-.376-2.797-1.129-.719-.752-1.078-1.759-1.078-3.02v-.265c0-.838.16-1.587.48-2.246a3.748 3.748 0 0 1 1.344-1.547 3.378 3.378 0 0 1 1.87-.558c1.1 0 1.954.362 2.563 1.086.61.724.915 1.76.915 3.109v.602h-5.727c.02.833.264 1.506.73 2.019.467.513 1.059.77 1.778.77.51 0 .942-.105 1.297-.313.354-.208.664-.484.93-.828l.882.687c-.708 1.089-1.77 1.633-3.187 1.633zm-.18-7.578c-.583 0-1.073.212-1.469.637-.396.424-.64 1.02-.734 1.785h4.234v-.11c-.041-.734-.24-1.303-.594-1.706-.354-.404-.833-.606-1.437-.606zm7.11-3.078v2.047h1.577v1.117h-1.578v5.242c0 .339.07.593.211.762.14.17.38.254.719.254a3.5 3.5 0 0 0 .688-.094V91a4.19 4.19 0 0 1-1.11.156c-.646 0-1.133-.195-1.46-.586-.329-.39-.493-.945-.493-1.664v-5.242h-1.54v-1.117h1.54V80.5h1.445zm10.75 8.508l1.624-6.461h1.446L155.43 91h-1.172l-2.055-6.406-2 6.406h-1.172l-2.453-8.453h1.438l1.664 6.328 1.968-6.328h1.165l2.007 6.46zm4.156-2.313c0-.828.162-1.573.488-2.234.325-.662.778-1.172 1.36-1.531.58-.36 1.243-.54 1.988-.54 1.15 0 2.082.4 2.792 1.196.711.797 1.067 1.857 1.067 3.18v.101c0 .823-.158 1.561-.473 2.215a3.589 3.589 0 0 1-1.351 1.527c-.586.365-1.26.547-2.02.547-1.146 0-2.074-.398-2.785-1.195-.711-.797-1.066-1.852-1.066-3.164v-.102zm1.453.172c0 .938.217 1.69.652 2.258.435.568 1.017.852 1.746.852.735 0 1.318-.288 1.75-.864.432-.575.649-1.381.649-2.418 0-.927-.22-1.678-.66-2.254-.44-.575-1.025-.863-1.755-.863-.713 0-1.289.284-1.726.852-.438.567-.656 1.38-.656 2.437zm12.14-3.023a4.331 4.331 0 0 0-.71-.055c-.949 0-1.592.404-1.93 1.211v6h-1.446v-8.453h1.407l.023.976c.474-.755 1.146-1.132 2.016-1.132.28 0 .494.036.64.109v1.344zm3.688 3.242l-.906.945V91h-1.446V79h1.446v7.258l.773-.93 2.633-2.781h1.758l-3.29 3.531L180.899 91h-1.695l-2.945-3.914zm11.445 2.687h5.39V91h-6.898V79.625h1.508v10.148zM196.148 91h-1.445v-8.453h1.445V91zm-1.562-10.695c0-.235.072-.433.215-.594.143-.162.355-.242.637-.242.28 0 .494.08.64.242.146.161.219.36.219.594 0 .234-.073.43-.219.586-.146.156-.36.234-.64.234-.282 0-.494-.078-.637-.234a.834.834 0 0 1-.215-.586zm5.242 2.242l.047 1.062c.646-.812 1.49-1.218 2.531-1.218 1.787 0 2.688 1.007 2.703 3.023V91h-1.445v-5.594c-.005-.61-.144-1.06-.418-1.351-.273-.292-.7-.438-1.277-.438-.469 0-.88.125-1.235.375-.354.25-.63.578-.828.985V91h-1.445v-8.453h1.367zm9.82 4.539l-.906.945V91h-1.445V79h1.445v7.258l.774-.93 2.632-2.781h1.758l-3.289 3.531L214.29 91h-1.695l-2.946-3.914zm18.305.305c-.14 1.203-.585 2.131-1.332 2.785-.747.653-1.74.98-2.98.98-1.344 0-2.42-.482-3.23-1.445-.81-.964-1.216-2.253-1.216-3.867V84.75c0-1.057.19-1.987.567-2.79.377-.801.912-1.417 1.605-1.847.693-.43 1.495-.644 2.406-.644 1.209 0 2.178.337 2.907 1.011.729.675 1.153 1.609 1.273 2.801h-1.508c-.13-.906-.412-1.562-.847-1.969-.435-.406-1.043-.609-1.825-.609-.958 0-1.71.354-2.253 1.063-.545.708-.817 1.716-.817 3.023v1.102c0 1.234.258 2.216.774 2.945.515.73 1.237 1.094 2.164 1.094.833 0 1.472-.19 1.918-.567.445-.377.74-1.035.886-1.972h1.508zm1.438-.696c0-.828.162-1.573.488-2.234.325-.662.779-1.172 1.36-1.531.58-.36 1.243-.54 1.988-.54 1.15 0 2.082.4 2.793 1.196.71.797 1.066 1.857 1.066 3.18v.101c0 .823-.158 1.561-.473 2.215a3.589 3.589 0 0 1-1.351 1.527c-.586.365-1.26.547-2.02.547-1.146 0-2.074-.398-2.785-1.195-.71-.797-1.066-1.852-1.066-3.164v-.102zm1.453.172c0 .938.217 1.69.652 2.258.435.568 1.017.852 1.746.852.735 0 1.318-.288 1.75-.864.432-.575.649-1.381.649-2.418 0-.927-.22-1.678-.66-2.254-.44-.575-1.025-.863-1.754-.863-.714 0-1.29.284-1.727.852-.438.567-.656 1.38-.656 2.437zm9.422-4.32l.047 1.062c.645-.812 1.49-1.218 2.53-1.218 1.787 0 2.688 1.007 2.704 3.023V91h-1.445v-5.594c-.006-.61-.145-1.06-.418-1.351-.274-.292-.7-.438-1.278-.438-.469 0-.88.125-1.234.375s-.63.578-.828.985V91h-1.446v-8.453h1.368zm7.109 4.156c0-1.297.307-2.34.922-3.129.614-.789 1.42-1.183 2.414-1.183.99 0 1.773.338 2.351 1.015V79h1.446v12h-1.328l-.07-.906c-.579.708-1.383 1.062-2.415 1.062-.979 0-1.777-.4-2.394-1.203-.617-.802-.926-1.849-.926-3.14v-.11zm1.445.164c0 .959.198 1.709.594 2.25.396.542.943.813 1.64.813.917 0 1.587-.412 2.008-1.235v-3.882c-.432-.797-1.096-1.196-1.992-1.196-.708 0-1.26.274-1.656.82-.396.547-.594 1.357-.594 2.43zm9.5 4.133h-1.445v-8.453h1.445V91zm-1.562-10.695c0-.235.071-.433.215-.594.143-.162.355-.242.636-.242.282 0 .495.08.641.242.146.161.219.36.219.594 0 .234-.073.43-.219.586-.146.156-.36.234-.64.234-.282 0-.494-.078-.637-.234a.834.834 0 0 1-.215-.586zm5.836.195v2.047h1.578v1.117h-1.578v5.242c0 .339.07.593.21.762.141.17.38.254.72.254a3.5 3.5 0 0 0 .687-.094V91a4.19 4.19 0 0 1-1.11.156c-.645 0-1.132-.195-1.46-.586-.329-.39-.493-.945-.493-1.664v-5.242h-1.539v-1.117h1.54V80.5h1.445zM267.43 91h-1.446v-8.453h1.446V91zm-1.563-10.695c0-.235.072-.433.215-.594.143-.162.355-.242.637-.242.281 0 .495.08.64.242.146.161.22.36.22.594 0 .234-.074.43-.22.586-.145.156-.359.234-.64.234-.282 0-.494-.078-.637-.234a.834.834 0 0 1-.215-.586zm3.492 6.39c0-.828.163-1.573.489-2.234.325-.662.778-1.172 1.359-1.531.58-.36 1.244-.54 1.988-.54 1.151 0 2.082.4 2.793 1.196.711.797 1.067 1.857 1.067 3.18v.101c0 .823-.158 1.561-.473 2.215a3.589 3.589 0 0 1-1.352 1.527c-.585.365-1.259.547-2.02.547-1.145 0-2.073-.398-2.784-1.195-.711-.797-1.067-1.852-1.067-3.164v-.102zm1.454.172c0 .938.217 1.69.652 2.258.435.568 1.017.852 1.746.852.734 0 1.318-.288 1.75-.864.432-.575.648-1.381.648-2.418 0-.927-.22-1.678-.66-2.254-.44-.575-1.025-.863-1.754-.863-.713 0-1.289.284-1.726.852-.438.567-.656 1.38-.656 2.437zm9.421-4.32l.047 1.062c.646-.812 1.49-1.218 2.531-1.218 1.787 0 2.688 1.007 2.704 3.023V91h-1.446v-5.594c-.005-.61-.144-1.06-.418-1.351-.273-.292-.699-.438-1.277-.438-.469 0-.88.125-1.234.375-.355.25-.63.578-.829.985V91h-1.445v-8.453h1.367zm7.524 7.695c0-.25.074-.458.222-.625.149-.166.372-.25.668-.25.297 0 .523.084.676.25.154.167.23.375.23.625 0 .24-.076.44-.23.602-.153.161-.379.242-.676.242-.296 0-.52-.08-.668-.242a.855.855 0 0 1-.222-.602zm3.414 0c0-.25.074-.458.223-.625.148-.166.37-.25.668-.25.296 0 .522.084.675.25.154.167.23.375.23.625 0 .24-.076.44-.23.602-.153.161-.379.242-.675.242-.297 0-.52-.08-.668-.242a.855.855 0 0 1-.223-.602zm3.242 0c0-.25.074-.458.223-.625.148-.166.37-.25.668-.25.297 0 .522.084.675.25.154.167.23.375.23.625 0 .24-.076.44-.23.602-.153.161-.378.242-.675.242-.297 0-.52-.08-.668-.242a.855.855 0 0 1-.223-.602z"/>
  </g>
</svg>
