<svg xmlns="http://www.w3.org/2000/svg" width="328" height="48">
  <g id="screenshot-stats-bar" fill="none" fill-rule="evenodd" stroke="none" stroke-width="1">
    <path id="Background/Gray-800" fill="#2B2D2F" d="M0 0h328v48H0z"/>
    <path id="Label/Hot-Pink-300" fill="#FFA2D4" fill-rule="nonzero" d="M258.358 28.5v-9.953h2.94c.88 0 1.66.196 2.341.588a4.009 4.009 0 0 1 1.583 1.668c.373.72.56 1.545.56 2.474v.5c0 .943-.188 1.772-.564 2.488a3.96 3.96 0 0 1-1.606 1.654c-.695.387-1.492.581-2.39.581h-2.864zm1.73-8.559v7.178h1.128c.907 0 1.603-.284 2.088-.85.486-.568.733-1.383.742-2.445v-.553c0-1.08-.235-1.905-.704-2.475-.47-.57-1.15-.855-2.044-.855h-1.21zm9.242 8.559h-1.723v-9.953h1.723V28.5zm7.328-2.563c0-.438-.154-.775-.461-1.012-.308-.237-.863-.476-1.665-.718s-1.44-.51-1.914-.807c-.907-.57-1.36-1.312-1.36-2.228 0-.802.327-1.463.98-1.983.655-.52 1.504-.779 2.547-.779.693 0 1.31.128 1.853.383a3.04 3.04 0 0 1 1.278 1.09c.31.472.465.995.465 1.57h-1.723c0-.52-.163-.927-.489-1.221-.325-.294-.791-.441-1.398-.441-.565 0-1.003.12-1.315.362-.313.242-.469.58-.469 1.012 0 .365.169.669.506.913.337.243.893.48 1.668.71.775.23 1.397.493 1.866.787.47.294.814.63 1.033 1.011.218.381.328.826.328 1.337 0 .83-.318 1.489-.954 1.979-.636.49-1.498.735-2.587.735-.72 0-1.382-.134-1.986-.4-.604-.267-1.073-.635-1.408-1.104-.335-.47-.503-1.016-.503-1.64h1.73c0 .564.187 1.002.56 1.312.374.31.91.465 1.607.465.601 0 1.054-.122 1.357-.366a1.18 1.18 0 0 0 .454-.967zm5.49-7.39l2.87 7.629 2.865-7.63h2.235V28.5h-1.722v-3.281l.17-4.389-2.939 7.67h-1.237l-2.933-7.663.17 4.382V28.5h-1.722v-9.953h2.242zm11.84 9.953h-1.723v-9.953h1.722V28.5zm7.327-2.563c0-.438-.153-.775-.461-1.012-.308-.237-.862-.476-1.665-.718-.802-.242-1.44-.51-1.914-.807-.907-.57-1.36-1.312-1.36-2.228 0-.802.327-1.463.981-1.983.654-.52 1.503-.779 2.546-.779.693 0 1.31.128 1.853.383a3.04 3.04 0 0 1 1.278 1.09c.31.472.465.995.465 1.57h-1.723c0-.52-.162-.927-.488-1.221-.326-.294-.792-.441-1.398-.441-.565 0-1.004.12-1.316.362-.312.242-.468.58-.468 1.012 0 .365.168.669.505.913.338.243.894.48 1.668.71.775.23 1.397.493 1.867.787.469.294.813.63 1.032 1.011.219.381.328.826.328 1.337 0 .83-.318 1.489-.954 1.979-.635.49-1.498.735-2.587.735-.72 0-1.382-.134-1.986-.4-.604-.267-1.073-.635-1.408-1.104-.335-.47-.503-1.016-.503-1.64h1.73c0 .564.187 1.002.56 1.312.374.31.91.465 1.607.465.601 0 1.054-.122 1.357-.366a1.18 1.18 0 0 0 .454-.967zm8.45 0c0-.438-.154-.775-.462-1.012-.307-.237-.862-.476-1.664-.718-.802-.242-1.44-.51-1.914-.807-.907-.57-1.36-1.312-1.36-2.228 0-.802.326-1.463.98-1.983.654-.52 1.503-.779 2.547-.779.692 0 1.31.128 1.852.383a3.04 3.04 0 0 1 1.278 1.09c.31.472.465.995.465 1.57h-1.722c0-.52-.163-.927-.49-1.221-.325-.294-.79-.441-1.397-.441-.565 0-1.004.12-1.316.362-.312.242-.468.58-.468 1.012 0 .365.168.669.506.913.337.243.893.48 1.668.71.774.23 1.396.493 1.866.787.47.294.813.63 1.032 1.011.219.381.328.826.328 1.337 0 .83-.318 1.489-.953 1.979-.636.49-1.499.735-2.588.735-.72 0-1.382-.134-1.986-.4-.604-.267-1.073-.635-1.408-1.104-.335-.47-.502-1.016-.502-1.64h1.73c0 .564.186 1.002.56 1.312.373.31.909.465 1.606.465.602 0 1.054-.122 1.357-.366a1.18 1.18 0 0 0 .455-.967z"/>
    <path id="Text/Gray-50" fill="#E1E2E2" fill-rule="nonzero" d="M20.19 23.544l2.598-4.997h1.49l-3.431 6.241V28.5h-1.313v-3.712l-3.431-6.241h1.503l2.584 4.997zm4.396 1.19c0-.725.142-1.377.427-1.956a3.187 3.187 0 0 1 1.19-1.34c.508-.314 1.088-.471 1.74-.471 1.007 0 1.821.348 2.443 1.046.622.697.933 1.624.933 2.782v.089c0 .72-.138 1.366-.413 1.938a3.14 3.14 0 0 1-1.183 1.336c-.513.32-1.102.479-1.767.479-1.003 0-1.815-.349-2.437-1.046-.622-.697-.933-1.62-.933-2.769v-.089zm1.271.15c0 .82.19 1.479.571 1.975.38.497.89.745 1.528.745.643 0 1.153-.251 1.531-.755.379-.503.568-1.209.568-2.116 0-.81-.193-1.468-.578-1.972-.385-.503-.897-.755-1.535-.755-.624 0-1.128.248-1.51.745-.383.497-.575 1.208-.575 2.133zm11.615 2.885c-.493.578-1.215.868-2.167.868-.789 0-1.39-.23-1.802-.687-.412-.458-.62-1.136-.625-2.034v-4.812h1.265v4.778c0 1.12.455 1.681 1.367 1.681.966 0 1.608-.36 1.928-1.08v-5.38h1.264V28.5H37.5l-.027-.731zm3.24-6.42l-.718-.492c.424-.592.643-1.216.656-1.873V18h1.251v.889c-.004.455-.117.91-.338 1.363-.221.454-.505.82-.851 1.098zm6.282.89a3.79 3.79 0 0 0-.622-.049c-.83 0-1.392.354-1.688 1.06v5.25h-1.265v-7.396h1.23l.02.854c.416-.66 1.004-.991 1.765-.991.246 0 .433.032.56.096v1.175zm4.102 6.398c-1.003 0-1.819-.33-2.448-.988-.628-.659-.943-1.54-.943-2.642v-.233c0-.733.14-1.388.42-1.965a3.28 3.28 0 0 1 1.176-1.353 2.956 2.956 0 0 1 1.637-.49c.962 0 1.71.318 2.243.951.533.633.8 1.54.8 2.72v.527H48.97c.018.73.231 1.318.639 1.767.408.449.926.673 1.555.673.447 0 .825-.09 1.135-.273.31-.182.58-.424.813-.725l.773.602c-.62.952-1.55 1.429-2.79 1.429zm-.158-6.631c-.51 0-.938.186-1.285.557-.346.371-.56.892-.642 1.562h3.705v-.096c-.037-.642-.21-1.14-.52-1.493-.31-.354-.729-.53-1.258-.53zm7.636 2.727c0-.724.143-1.376.427-1.955a3.187 3.187 0 0 1 1.19-1.34c.508-.314 1.088-.471 1.74-.471 1.007 0 1.821.348 2.444 1.046.622.697.933 1.624.933 2.782v.089c0 .72-.138 1.366-.414 1.938a3.14 3.14 0 0 1-1.183 1.336c-.512.32-1.101.479-1.767.479-1.002 0-1.815-.349-2.437-1.046-.622-.697-.933-1.62-.933-2.769v-.089zm1.272.15c0 .821.19 1.48.57 1.976.381.497.89.745 1.528.745.643 0 1.153-.251 1.532-.755.378-.503.567-1.209.567-2.116 0-.81-.193-1.468-.578-1.972-.385-.503-.896-.755-1.534-.755-.625 0-1.128.248-1.511.745s-.574 1.208-.574 2.133zm8.244-3.78l.04.93c.566-.71 1.304-1.066 2.216-1.066 1.563 0 2.351.882 2.365 2.645V28.5h-1.265v-4.895c-.004-.533-.126-.927-.365-1.182-.24-.255-.612-.383-1.118-.383-.41 0-.77.11-1.08.328a2.23 2.23 0 0 0-.725.861V28.5h-1.264v-7.396h1.196zm7.902 7.397h-1.264V18h1.264v10.5zm3.398 0h-1.265v-7.396h1.265V28.5zm-1.368-9.358c0-.205.063-.379.188-.52.126-.141.311-.212.558-.212.246 0 .433.07.56.212a.747.747 0 0 1 .192.52.722.722 0 0 1-.192.512c-.127.137-.314.205-.56.205-.247 0-.432-.068-.558-.205a.73.73 0 0 1-.188-.512zm4.587 1.962l.041.93c.565-.712 1.304-1.067 2.215-1.067 1.563 0 2.352.882 2.365 2.645V28.5h-1.264v-4.895c-.005-.533-.127-.927-.366-1.182-.24-.255-.612-.383-1.118-.383-.41 0-.77.11-1.08.328-.31.219-.551.506-.724.861V28.5h-1.265v-7.396h1.196zm9.598 7.533c-1.003 0-1.818-.33-2.447-.988-.63-.659-.944-1.54-.944-2.642v-.233c0-.733.14-1.388.42-1.965a3.28 3.28 0 0 1 1.177-1.353 2.956 2.956 0 0 1 1.637-.49c.961 0 1.709.318 2.242.951.533.633.8 1.54.8 2.72v.527h-5.01c.017.73.23 1.318.638 1.767.408.449.926.673 1.555.673.447 0 .825-.09 1.135-.273.31-.182.581-.424.814-.725l.772.602c-.62.952-1.55 1.429-2.789 1.429zm-.157-6.631c-.51 0-.939.186-1.285.557-.347.371-.56.892-.643 1.562h3.705v-.096c-.036-.642-.21-1.14-.52-1.493-.31-.354-.729-.53-1.257-.53zm9.167-.902l.04.93c.566-.712 1.304-1.067 2.216-1.067 1.563 0 2.351.882 2.365 2.645V28.5h-1.265v-4.895c-.004-.533-.126-.927-.365-1.182-.24-.255-.612-.383-1.118-.383-.41 0-.77.11-1.08.328a2.23 2.23 0 0 0-.725.861V28.5h-1.264v-7.396h1.196zm6.193 3.63c0-.725.143-1.377.427-1.956a3.187 3.187 0 0 1 1.19-1.34c.508-.314 1.088-.471 1.74-.471 1.007 0 1.821.348 2.443 1.046.623.697.934 1.624.934 2.782v.089c0 .72-.138 1.366-.414 1.938a3.14 3.14 0 0 1-1.183 1.336c-.512.32-1.101.479-1.767.479-1.002 0-1.815-.349-2.437-1.046-.622-.697-.933-1.62-.933-2.769v-.089zm1.272.15c0 .82.19 1.479.57 1.975.381.497.89.745 1.528.745.643 0 1.153-.251 1.532-.755.378-.503.567-1.209.567-2.116 0-.81-.193-1.468-.578-1.972-.385-.503-.896-.755-1.534-.755-.625 0-1.128.248-1.511.745s-.574 1.208-.574 2.133zm13.596 1.873l1.422-5.653h1.265l-2.153 7.396h-1.026l-1.798-5.605-1.75 5.605h-1.025l-2.147-7.396h1.258l1.456 5.537 1.723-5.537h1.018l1.757 5.653zm3.152 1.08c0-.219.065-.401.195-.547.13-.146.324-.219.584-.219.26 0 .457.073.591.219a.776.776 0 0 1 .202.547.73.73 0 0 1-.202.526c-.134.142-.331.212-.591.212-.26 0-.455-.07-.584-.212a.748.748 0 0 1-.195-.526z"/>
  </g>
</svg>
