<svg xmlns="http://www.w3.org/2000/svg" width="400" height="200">
  <g id="logo-woocommerce" fill="none" fill-rule="evenodd" stroke="none" stroke-width="1">
    <path id="Woo" fill="#90567F" d="M95.912 80.415h60.623c3.836 0 6.942 3.124 6.942 6.982v23.272c0 3.859-3.106 6.982-6.942 6.982h-21.74l2.984 7.35-13.124-7.35H95.942c-3.836 0-6.942-3.123-6.942-6.982V87.397c-.03-3.827 3.075-6.982 6.912-6.982zm-3.197 6.34c-.427.55-.579 1.255-.488 2.05 1.797 11.484 3.472 19.23 5.024 23.242.61 1.47 1.31 2.175 2.132 2.113 1.28-.092 2.801-1.867 4.598-5.328.944-1.96 2.405-4.9 4.384-8.82 1.644 5.789 3.898 10.137 6.73 13.046.791.827 1.613 1.194 2.405 1.133.7-.061 1.248-.429 1.614-1.102.304-.582.426-1.256.365-2.022-.183-2.786.091-6.675.853-11.666.791-5.145 1.766-8.85 2.953-11.055.244-.459.335-.919.305-1.47a2.402 2.402 0 0 0-.945-1.745c-.578-.459-1.217-.674-1.917-.612-.884.061-1.553.49-2.01 1.347-1.888 3.46-3.228 9.064-4.02 16.842-1.157-2.94-2.13-6.4-2.892-10.473-.335-1.807-1.157-2.664-2.496-2.572-.914.062-1.675.674-2.285 1.837l-6.667 12.77c-1.097-4.44-2.132-9.86-3.076-16.26-.213-1.593-1.096-2.328-2.649-2.205-.852.06-1.492.367-1.918.95zm61.627 13.289c-.426 2.02-1.187 3.521-2.314 4.532-.882.796-1.705 1.133-2.466.98-.73-.153-1.34-.796-1.796-1.991-.366-.95-.548-1.898-.548-2.786 0-.766.06-1.531.213-2.236a9.937 9.937 0 0 1 1.613-3.644c1.005-1.5 2.071-2.112 3.167-1.898.731.153 1.34.796 1.797 1.99.365.95.548 1.899.548 2.787 0 .796-.092 1.562-.214 2.266zm3.837-8.482c-1.096-1.93-2.71-3.093-4.872-3.552a7.946 7.946 0 0 0-1.644-.184c-2.923 0-5.298 1.531-7.155 4.593-1.584 2.603-2.375 5.481-2.375 8.635 0 2.358.487 4.38 1.461 6.064 1.097 1.929 2.71 3.092 4.872 3.551a7.952 7.952 0 0 0 1.644.184c2.954 0 5.329-1.53 7.155-4.593 1.584-2.633 2.375-5.512 2.375-8.666 0-2.389-.487-4.379-1.461-6.032zm-22.928 8.482c-.426 2.02-1.187 3.521-2.314 4.532-.883.796-1.705 1.133-2.466.98-.73-.153-1.34-.796-1.796-1.991-.366-.95-.549-1.898-.549-2.786 0-.766.061-1.531.213-2.236a9.931 9.931 0 0 1 1.615-3.644c1.004-1.5 2.07-2.112 3.166-1.898.73.153 1.34.796 1.797 1.99.365.95.547 1.899.547 2.787 0 .796-.06 1.562-.213 2.266zm3.837-8.482c-1.096-1.93-2.74-3.093-4.872-3.552a7.947 7.947 0 0 0-1.644-.184c-2.923 0-5.298 1.531-7.156 4.593-1.583 2.603-2.374 5.481-2.374 8.635 0 2.358.487 4.38 1.46 6.064 1.097 1.929 2.71 3.092 4.873 3.551a7.95 7.95 0 0 0 1.644.184c2.953 0 5.329-1.53 7.155-4.593 1.584-2.633 2.375-5.512 2.375-8.666 0-2.389-.487-4.379-1.461-6.032z"/>
    <path id="Commerce" fill="#0A0B09" d="M303.083 105.219v-3.797h4.963v-4.318h-4.963v-3.828h5.755v-4.44H297.51v20.854h11.357v-4.44h-5.785v-.031zm-18.178-13.933c-2.04 2.021-3.045 4.593-3.045 7.716 0 3.338 1.005 6.064 3.015 8.116 2.01 2.051 4.628 3.092 7.886 3.092.944 0 2.01-.153 3.167-.49v-4.96c-1.066.306-1.98.459-2.771.459-1.614 0-2.893-.551-3.867-1.623-.975-1.102-1.462-2.572-1.462-4.44 0-1.746.487-3.185 1.432-4.287.974-1.133 2.161-1.684 3.623-1.684.944 0 1.949.153 3.045.459v-4.96c-1.006-.276-2.132-.399-3.319-.399-3.075-.03-5.664.98-7.704 3.001zm-12.758 6.522v-4.96c1.34.03 2.284.245 2.862.673.579.429.853 1.103.853 2.083 0 1.439-1.248 2.174-3.715 2.204zm8.587.337c.578-.95.883-1.929.883-2.94 0-1.96-.762-3.52-2.283-4.654-1.523-1.133-3.624-1.715-6.243-1.715h-6.515v20.854h5.602v-9.493h.091l4.537 9.493h5.907l-4.476-9.401c1.065-.49 1.918-1.194 2.497-2.144zm-21.527 3.308h4.963v-4.318h-4.963v-3.828h5.724v-4.44h-11.327v20.853h11.357v-4.44h-5.754v-3.828zm-17.234-12.617l-1.096 4.685a112.25 112.25 0 0 0-.792 3.675l-.609 3.246c-.578-3.246-1.37-7.104-2.375-11.606h-7.064l-2.649 20.854h5.299l1.43-14.362 3.624 14.362h3.775l3.441-14.331 1.492 14.33h5.542l-2.802-20.853h-7.216zm-25.363 0l-1.097 4.685c-.274 1.195-.548 2.42-.791 3.675l-.61 3.246c-.578-3.246-1.37-7.104-2.374-11.606h-7.064l-2.65 20.854h5.299l1.43-14.362 3.624 14.362h3.776l3.47-14.331 1.493 14.33h5.541l-2.8-20.853h-7.247zm-21.893 15.341c-.548.858-1.37 1.287-2.405 1.287-.975 0-1.706-.429-2.223-1.287-.518-.857-.761-2.572-.761-5.175 0-4.01 1.005-6.001 3.045-6.001 2.13 0 3.227 2.02 3.227 6.094-.03 2.51-.335 4.225-.883 5.082zm-2.405-15.922c-2.801 0-4.994.949-6.577 2.817-1.584 1.868-2.345 4.5-2.345 7.87 0 3.643.792 6.43 2.345 8.359 1.552 1.929 3.836 2.91 6.82 2.91 2.893 0 5.115-.981 6.668-2.91 1.553-1.93 2.345-4.654 2.345-8.145 0-3.491-.792-6.186-2.375-8.084-1.614-1.868-3.897-2.817-6.881-2.817zm-21.131 3.031c-2.04 2.021-3.046 4.593-3.046 7.716 0 3.338 1.005 6.064 3.015 8.116 2.01 2.051 4.628 3.092 7.886 3.092.944 0 2.01-.153 3.167-.49v-4.96c-1.066.306-1.98.459-2.771.459-1.614 0-2.893-.551-3.867-1.623-.974-1.102-1.461-2.572-1.461-4.44 0-1.746.487-3.185 1.43-4.287.975-1.133 2.162-1.684 3.624-1.684.944 0 1.949.153 3.045.459v-4.96c-1.005-.276-2.132-.399-3.32-.399-3.105-.03-5.662.98-7.702 3.001z"/>
  </g>
</svg>
