<svg xmlns="http://www.w3.org/2000/svg" width="400" height="200">
  <g id="logo-automattic" fill="none" fill-rule="evenodd" stroke="none" stroke-width="1">
    <path id="Symbol" fill="#3A8FBA" d="M169.361 97.958c0-3.88-2.836-7.341-7.964-7.341-5.129 0-7.935 3.46-7.935 7.341v.481c0 3.882 2.806 7.402 7.935 7.402 5.128 0 7.964-3.52 7.964-7.402v-.48zM161.397 109c-7.12 0-11.736-5.114-11.736-10.44v-.662c0-5.415 4.616-10.44 11.736-10.44 7.15 0 11.766 5.025 11.766 10.44v.662c0 5.326-4.616 10.44-11.766 10.44z"/>
    <path id="Automattic" fill="#0B0B09" d="M163.88 94.43c.68.437.871 1.346.43 2.028l-3.44 5.312c-.441.683-1.35.88-2.03.443a1.462 1.462 0 0 1-.428-2.027l3.439-5.313a1.471 1.471 0 0 1 2.029-.443zm-91.54-2.338l-4.375 8.424h8.9l-4.526-8.424zm8.658 16.126l-2.655-4.965H66.547l-2.565 4.965H60L70.86 88.18h3.138l11.042 20.037h-4.042zm21.178.782c-7.21 0-10.56-3.911-10.56-9.116V88.181h3.741v11.763c0 3.701 2.444 5.897 7.09 5.897 4.767 0 6.728-2.196 6.728-5.897V88.18h3.771v11.703c0 4.964-3.198 9.116-10.77 9.116zm31.768-17.69v16.908h-3.771V91.31h-8.78v-3.13h21.33v3.13h-8.78zm72.827 16.908V92.362l-.996 1.746-8.417 14.11h-1.84l-8.327-14.11-.995-1.746v15.856h-3.681V88.18h5.219l7.934 13.75.935 1.684.936-1.685 7.844-13.75h5.16v20.038h-3.772zm23.622-16.126l-4.374 8.424h8.899l-4.525-8.424zm8.658 16.126l-2.654-4.965H224.6l-2.564 4.965h-3.982l10.86-20.037h3.138l11.042 20.037h-4.043zm19.247-16.908v16.908h-3.77V91.31h-8.78v-3.13h21.33v3.13h-8.78zm27.665 0v16.908h-3.77V91.31h-8.78v-3.13h21.33v3.13h-8.78zm18.07 16.908V90.076c1.51 0 2.112-.812 2.112-1.895h1.6v20.037h-3.711zm33.247-14.382c-1.81-1.654-4.465-3.219-8.055-3.219-5.37 0-8.387 3.671-8.387 7.492v.391c0 3.791 3.047 7.341 8.658 7.341 3.35 0 6.125-1.595 7.875-3.22l2.262 2.377c-2.202 2.166-5.943 4.002-10.378 4.002-7.603 0-12.218-4.934-12.218-10.35v-.662c0-5.415 5.038-10.53 12.399-10.53 4.254 0 8.115 1.775 10.197 4.002l-2.353 2.376z"/>
  </g>
</svg>
