<svg xmlns="http://www.w3.org/2000/svg" width="400" height="200">
  <g id="logo-jetpack" fill="none" fill-rule="evenodd" stroke="none" stroke-width="1">
    <path id="Symbol" fill="#2EA948" d="M146.28 100c0 14.912-12.15 27-27.14 27C104.151 127 92 114.912 92 100s12.151-27 27.14-27c14.99 0 27.14 12.088 27.14 27zm-25.763-4.517v26.169l13.537-26.17h-13.537zm-2.754 9.037V78.35l-13.538 26.17h13.538z"/>
    <path id="Jetpack" fill="#0A0B09" d="M162.077 117.853c-.77-1.169-1.499-2.378-2.228-3.507 3.848-2.296 5.104-4.19 5.104-7.696V86.42h-4.497v-3.87h9.6v23.092c0 5.884-1.66 9.148-7.98 12.21zm40.187-13.823c0 1.935 1.418 2.176 2.35 2.176.931 0 2.287-.322 3.3-.604v3.627c-1.458.483-2.977.806-5.043.806-2.51 0-5.387-.927-5.387-5.24V94.158h-2.633V90.49h2.633v-5.44h4.78v5.4h6.014v3.707h-6.014v9.873zm19.56-10.195c-1.418 0-3.16.644-4.82 2.095v9.954c1.053.201 2.106.362 3.564.362 3.362 0 5.307-2.135 5.307-6.528 0-4.11-1.378-5.883-4.051-5.883zm-9.6 25.83v-29.24h4.577v1.757c1.823-1.41 3.848-2.256 6.32-2.256 4.293 0 7.695 2.982 7.695 9.43 0 6.407-3.726 10.638-9.883 10.638-1.499 0-2.674-.201-3.93-.443v10.114h-4.779zm32.567-19.026l-3.929.604c-1.175.161-2.43.866-2.43 2.64 0 1.562.89 2.444 2.187 2.444 1.377 0 2.916-.846 4.172-1.733v-3.955zm4.78 8.912h-4.456v-2.096h-.122c-1.58 1.21-3.483 2.459-6.318 2.459-2.512 0-5.185-1.814-5.185-5.44 0-4.89 4.212-5.81 7.129-6.213l4.172-.564v-.558c0-2.579-1.053-3.425-3.483-3.425-1.175 0-3.97.362-6.279 1.29l-.405-3.83c2.066-.724 4.901-1.248 7.291-1.248 4.658 0 7.656 1.853 7.656 7.374v12.251zm19.665-.605c-1.944.646-3.705 1.089-5.974 1.089-7.17 0-10.005-4.07-10.005-9.994 0-6.247 3.93-10.115 10.289-10.115 2.39 0 3.827.403 5.447.926v4.03c-1.377-.524-3.422-1.088-5.366-1.088-2.916 0-5.388 1.532-5.388 6.005 0 4.916 2.472 6.367 5.631 6.367 1.498 0 3.18-.323 5.366-1.169v3.95zm9.034-10.276c.405-.443.729-.926 6.724-8.22h6.197l-7.777 9.067 8.506 10.034h-6.238l-7.412-9.067v9.067h-4.78v-27h4.78v16.12zm-91.334-.806c0-2.337-.77-4.352-3.321-4.352-2.39 0-3.848 1.693-4.132 4.352h7.453zm4.334 11.082c-2.49.762-4.625 1.089-7.096 1.089-6.11 0-9.876-3.023-9.876-10.156 0-5.198 3.2-9.953 9.357-9.953 6.117 0 8.264 4.231 8.264 8.26 0 1.33-.081 2.056-.163 2.822h-12.314c.122 4.19 2.506 5.158 6.069 5.158 1.944 0 3.754-.441 5.76-1.173v3.953z"/>
  </g>
</svg>
