<svg xmlns="http://www.w3.org/2000/svg" width="600" height="314"><g fill="none" fill-rule="evenodd"><path fill="#4D2054" d="M0 0h600v314H0z"/><path fill="#FFF" d="M422.41 150c-2.23 0-3.04-.23-3.85-.67a4.54 4.54 0 0 1-1.9-1.89c-.43-.81-.66-1.62-.66-3.85V0h154v143.59c0 2.23-.23 3.04-.67 3.85a4.54 4.54 0 0 1-1.89 1.9c-.81.43-1.62.66-3.85.66H422.41zm-12 12h141.18c2.23 0 3.04.23 3.85.67a4.54 4.54 0 0 1 1.9 1.89c.43.81.66 1.62.66 3.85V314H404V168.41c0-2.23.23-3.04.67-3.85a4.54 4.54 0 0 1 1.89-1.9c.81-.43 1.62-.66 3.85-.66z"/><path fill="#7C3982" d="M588.41 150c-2.23 0-3.04-.23-3.85-.67a4.54 4.54 0 0 1-1.9-1.89c-.43-.81-.66-1.62-.66-3.85V0h18v150h-11.59zm-12 12H600v152h-30V168.41c0-2.23.23-3.04.67-3.85a4.54 4.54 0 0 1 1.89-1.9c.81-.43 1.62-.66 3.85-.66z"/><path fill="#F0C443" d="M424 0h138v116.15c0 1.34-.14 1.83-.4 2.31a2.73 2.73 0 0 1-1.14 1.14c-.48.26-.97.4-2.3.4H427.85c-1.34 0-1.83-.14-2.31-.4a2.73 2.73 0 0 1-1.14-1.14c-.26-.48-.4-.97-.4-2.3V0z"/><path fill="#FF8085" d="M415.85 204h130.3c1.34 0 1.83.14 2.32.4.49.26.87.65 1.13 1.14.26.48.4.97.4 2.3V314H412V207.85c0-1.34.14-1.83.4-2.31a2.73 2.73 0 0 1 1.14-1.14c.48-.26.97-.4 2.3-.4z"/><path fill="#FFF" d="M56 232h134a16 16 0 1 1 0 32H56a16 16 0 1 1 0-32z"/><path fill="#4D2054" d="m184.14 248.34-5.23 5.26a.43.43 0 0 1-.32.14.43.43 0 0 1-.31-.14l-1.17-1.17a.44.44 0 0 1-.14-.32.44.44 0 0 1 .14-.32l3.74-3.77-3.74-3.77a.44.44 0 0 1-.14-.32.44.44 0 0 1 .14-.32l1.17-1.18a.43.43 0 0 1 .31-.13c.13 0 .23.04.32.13l5.23 5.27c.09.09.13.2.13.32a.44.44 0 0 1-.13.32zM69.01 251.8c-2.45 0-4.4-1.76-4.4-4.35s1.95-4.34 4.4-4.34c1.92 0 2.99 1 3.58 2.05l-1.54.76a2.3 2.3 0 0 0-2.04-1.23c-1.46 0-2.57 1.18-2.57 2.76 0 1.6 1.11 2.76 2.57 2.76.94 0 1.7-.53 2.04-1.22l1.54.74a3.9 3.9 0 0 1-3.58 2.07zm7.44 0a3.1 3.1 0 0 1-3.22-3.2 3.08 3.08 0 0 1 3.22-3.19 3.09 3.09 0 0 1 3.22 3.19c0 1.74-1.2 3.2-3.22 3.2zm0-1.42c1 0 1.56-.82 1.56-1.78 0-.95-.57-1.76-1.56-1.76-1 0-1.55.81-1.55 1.76 0 .96.55 1.78 1.55 1.78zm8.51 1.27v-3.68c0-.84-.44-1.13-1.12-1.13-.63 0-1.12.35-1.38.71v4.1h-1.6v-6.09h1.6v.8a2.79 2.79 0 0 1 2.13-.95c1.33 0 1.97.76 1.97 1.94v4.3h-1.6zm7.3 0v-3.68c0-.84-.44-1.13-1.12-1.13-.63 0-1.12.35-1.39.71v4.1h-1.6v-6.09h1.6v.8a2.79 2.79 0 0 1 2.13-.95c1.34 0 1.98.76 1.98 1.94v4.3h-1.6zm2.8-3.05a3.1 3.1 0 0 1 3.15-3.19c1.81 0 3.05 1.36 3.05 3.35v.36h-4.53c.1.76.72 1.4 1.75 1.4.57 0 1.24-.22 1.63-.6l.7 1.04c-.61.56-1.56.84-2.5.84-1.85 0-3.25-1.25-3.25-3.2zm3.15-1.92c-1 0-1.43.75-1.5 1.35h3a1.41 1.41 0 0 0-1.5-1.34zm3.82 1.92a3.09 3.09 0 0 1 3.22-3.19c1.25 0 2 .54 2.4 1.11l-1.04.97a1.5 1.5 0 0 0-1.28-.65c-.97 0-1.65.7-1.65 1.76s.68 1.78 1.65 1.78c.55 0 1-.26 1.28-.66l1.05.97c-.4.57-1.16 1.11-2.41 1.11a3.09 3.09 0 0 1-3.23-3.2zm8.71 3.2c-1.12 0-1.72-.58-1.72-1.66v-3.18H108v-1.4h1v-1.66h1.62v1.66h1.24v1.4h-1.24v2.75c0 .38.2.67.56.67.24 0 .46-.1.55-.18l.34 1.21c-.24.21-.67.39-1.34.39zm13-.15v-3.84c0-.57-.26-.97-.91-.97-.57 0-1.04.37-1.26.7v4.1h-1.62v-3.83c0-.57-.25-.97-.9-.97-.56 0-1.02.37-1.26.71v4.1h-1.6v-6.09h1.6v.8a2.66 2.66 0 0 1 1.99-.95c.9 0 1.46.42 1.69 1.11a2.58 2.58 0 0 1 2.09-1.1c1.12 0 1.79.58 1.79 1.83v4.4h-1.62zm3.2.94c.15.07.36.1.51.1.42 0 .7-.1.85-.44l.22-.51-2.47-6.18h1.72l1.58 4.24 1.6-4.24h1.72l-2.86 7.08c-.46 1.15-1.26 1.45-2.3 1.48a4.32 4.32 0 0 1-.8-.09l.24-1.44zm9.14-1.74.7-1.12c.44.42 1.34.83 2.1.83.7 0 1.02-.23 1.02-.61 0-.43-.53-.58-1.22-.72-1.05-.2-2.4-.45-2.4-1.9 0-1.02.9-1.92 2.5-1.92a3.8 3.8 0 0 1 2.44.83l-.63 1.1a2.57 2.57 0 0 0-1.8-.7c-.58 0-.96.2-.96.56 0 .38.48.52 1.16.66 1.05.2 2.45.48 2.45 1.99 0 1.12-.95 1.95-2.64 1.95a4.1 4.1 0 0 1-2.72-.94zm8.58.95c-1.12 0-1.72-.58-1.72-1.66v-3.18h-1.01v-1.4h1v-1.66h1.62v1.66h1.23v1.4h-1.23v2.75c0 .38.2.67.55.67.24 0 .47-.1.56-.18l.34 1.21c-.24.21-.67.39-1.34.39zm5.04 0c-2 0-3.21-1.46-3.21-3.2a3.08 3.08 0 0 1 3.21-3.19 3.09 3.09 0 0 1 3.23 3.19c0 1.74-1.21 3.2-3.23 3.2zm0-1.42c1 0 1.56-.82 1.56-1.78 0-.95-.56-1.76-1.56-1.76s-1.55.81-1.55 1.76c0 .96.56 1.78 1.55 1.78zm4.41 1.27v-6.09h1.6v.83a2.6 2.6 0 0 1 1.94-.97V247a2.13 2.13 0 0 0-.44-.04c-.53 0-1.23.29-1.5.68v4.02h-1.6zm4.15-3.05a3.1 3.1 0 0 1 3.15-3.19c1.81 0 3.05 1.36 3.05 3.35v.36h-4.53c.1.76.72 1.4 1.76 1.4.56 0 1.23-.22 1.62-.6l.7 1.04c-.61.56-1.56.84-2.5.84-1.85 0-3.25-1.25-3.25-3.2zm3.15-1.92c-1 0-1.43.75-1.5 1.35h3a1.41 1.41 0 0 0-1.5-1.35z"/><path fill="#984A9C" d="M45.83 60h59.73a6.83 6.83 0 0 1 6.84 6.83V89.6a6.83 6.83 0 0 1-6.84 6.84H84.14l2.93 7.2-12.94-7.2h-28.3A6.83 6.83 0 0 1 39 89.6V66.83A6.83 6.83 0 0 1 45.83 60z"/><path fill="#FFF" fill-rule="nonzero" d="M42.7 66.19a2.45 2.45 0 0 1 1.87-.93c1.52-.1 2.4.61 2.62 2.16.95 6.25 1.95 11.56 3.02 15.93l6.58-12.5c.6-1.14 1.34-1.74 2.25-1.8 1.32-.1 2.14.74 2.47 2.5a55.8 55.8 0 0 0 2.84 10.28c.79-7.62 2.1-13.12 3.96-16.5A2.32 2.32 0 0 1 70.29 64a2.64 2.64 0 0 1 1.9.6c.54.41.87 1.04.9 1.72.05.5-.06 1-.3 1.43-1.16 2.17-2.13 5.79-2.89 10.84-.74 4.87-1.02 8.69-.82 11.44a3.67 3.67 0 0 1-.35 1.96 1.9 1.9 0 0 1-1.6 1.06c-.8.06-1.6-.31-2.37-1.1-2.8-2.87-5-7.13-6.63-12.78a1376.77 1376.77 0 0 0-4.34 8.66c-1.76 3.4-3.27 5.14-4.53 5.21-.82.06-1.52-.62-2.1-2.05-1.53-3.93-3.17-11.52-4.93-22.78a2.57 2.57 0 0 1 .47-2.02zm64.47 4.71a11.24 11.24 0 0 1 1.45 5.9 16.17 16.17 0 0 1-2.33 8.5c-1.79 3-4.14 4.5-7.04 4.5a7.88 7.88 0 0 1-1.63-.18 6.95 6.95 0 0 1-4.8-3.48 11.47 11.47 0 0 1-1.45-5.94 15.9 15.9 0 0 1 2.33-8.45c1.82-3 4.17-4.5 7.04-4.5.55 0 1.1.06 1.63.17a6.95 6.95 0 0 1 4.8 3.48zm-3.78 8.32c.14-.72.22-1.45.21-2.2a7.7 7.7 0 0 0-.52-2.73c-.44-1.14-1.03-1.79-1.76-1.94-1.09-.23-2.13.38-3.13 1.85a9.9 9.9 0 0 0-1.58 3.57 10.77 10.77 0 0 0-.22 2.2c.01.93.19 1.86.53 2.72.44 1.14 1.02 1.79 1.76 1.94.73.16 1.54-.17 2.42-.97 1.11-1 1.87-2.47 2.29-4.44zM88.37 70.9a11.26 11.26 0 0 1 1.45 5.9 16.16 16.16 0 0 1-2.33 8.5c-1.8 3-4.14 4.5-7.04 4.5a7.93 7.93 0 0 1-1.63-.18 6.96 6.96 0 0 1-4.8-3.48 11.49 11.49 0 0 1-1.45-5.94 15.9 15.9 0 0 1 2.33-8.45c1.82-3 4.16-4.5 7.04-4.5.55 0 1.1.06 1.63.17a6.96 6.96 0 0 1 4.8 3.48zm-3.78 8.32c.15-.72.22-1.45.22-2.2a7.77 7.77 0 0 0-.53-2.73c-.44-1.14-1.03-1.79-1.76-1.94-1.08-.23-2.13.38-3.13 1.85a9.9 9.9 0 0 0-1.58 3.57 10.8 10.8 0 0 0-.22 2.2c0 .93.19 1.86.53 2.72.44 1.15 1.03 1.8 1.76 1.94.73.15 1.54-.17 2.42-.97a7.95 7.95 0 0 0 2.29-4.44zm35.4-8.58c-2 1.99-3 4.5-3 7.56 0 3.28 1 5.93 2.98 7.94 1.98 2.02 4.57 3.02 7.76 3.02 1.06-.02 2.11-.18 3.13-.47v-4.85a9.82 9.82 0 0 1-2.73.46 4.86 4.86 0 0 1-3.82-1.6 6.32 6.32 0 0 1-1.43-4.35c0-1.7.48-3.1 1.42-4.2a4.5 4.5 0 0 1 3.57-1.65c1.02 0 2.03.16 3 .44v-4.87a12.79 12.79 0 0 0-3.28-.4c-3.07 0-5.6.99-7.6 2.97zm20.82-2.97c-2.77 0-4.93.92-6.48 2.76-1.55 1.84-2.33 4.4-2.32 7.7 0 3.57.77 6.3 2.3 8.2 1.55 1.88 3.8 2.83 6.73 2.83 2.84 0 5.02-.95 6.56-2.84s2.3-4.55 2.3-7.97c0-3.43-.78-6.07-2.33-7.92-1.56-1.84-3.81-2.77-6.76-2.76zm2.37 15.6a2.67 2.67 0 0 1-2.37 1.26 2.4 2.4 0 0 1-2.2-1.27c-.5-.85-.75-2.54-.75-5.07 0-3.92 1-5.89 3-5.89 2.1 0 3.16 2 3.16 5.99 0 2.46-.28 4.12-.84 4.97zm21.58-15.03-1.07 4.59a92.43 92.43 0 0 0-.79 3.6l-.6 3.17c-.57-3.18-1.35-6.96-2.35-11.37h-6.97l-2.62 20.42h5.22L157 74.58l3.57 14.07h3.73l3.4-14.02 1.49 14.04h5.46l-2.77-20.42h-7.12zm24.99 0-1.07 4.59a92.27 92.27 0 0 0-.79 3.6l-.6 3.17c-.57-3.18-1.35-6.96-2.35-11.37h-6.97l-2.62 20.42h5.22L182 74.58l3.57 14.07h3.73l3.4-14.02 1.49 14.04h5.46l-2.77-20.42h-7.12zm16.96 12.35h4.9v-4.25h-4.9v-3.76h5.64v-4.35H201.2v20.43h11.2V84.3h-5.68v-3.71zm21.22-3.23a5.56 5.56 0 0 0-1.4-7.44c-1.5-1.12-3.56-1.68-6.16-1.68h-6.42v20.42h5.51v-9.3h.1l4.46 9.3h5.82l-4.4-9.21a5.27 5.27 0 0 0 2.49-2.09zm-8.47-.33v-4.85c1.32.03 2.25.25 2.82.66.56.4.85 1.09.85 2.03 0 1.4-1.22 2.12-3.67 2.16zm12.6-6.39c-2 1.98-3 4.5-3 7.55 0 3.29 1 5.94 2.98 7.95 1.99 2.01 4.57 3.02 7.77 3.02a12.13 12.13 0 0 0 3.12-.47v-4.85a9.79 9.79 0 0 1-2.73.46 4.87 4.87 0 0 1-3.82-1.6 6.32 6.32 0 0 1-1.43-4.35c0-1.7.48-3.1 1.42-4.2a4.5 4.5 0 0 1 3.57-1.65c1.02 0 2.03.16 3 .44v-4.87a12.76 12.76 0 0 0-3.27-.4c-3.07 0-5.61.99-7.62 2.97h.01zm17.91 13.65v-3.71h4.9v-4.24h-4.91v-3.76h5.65v-4.35h-11.17v20.43h11.2V84.3h-5.67zM49.74 143.42v-5.8h-7.17v5.8h-1.95v-12.97h1.95v5.45h7.17v-5.45h1.94v12.97h-1.94zm4.2-4.7c0-2.73 1.96-4.92 4.7-4.92 2.82 0 4.57 2.2 4.57 5.07v.43h-7.43a3.08 3.08 0 0 0 3.2 2.91 4 4 0 0 0 2.77-1.1l.82 1.14a5.28 5.28 0 0 1-3.77 1.4 4.7 4.7 0 0 1-4.86-4.93zm4.7-3.48c-1.88 0-2.78 1.51-2.87 2.8h5.73c-.04-1.25-.88-2.8-2.86-2.8zm6.77 8.18v-12.97h1.75v12.97H65.4zm6.28 3.58h-1.75v-12.97h1.75v1.34a3.83 3.83 0 0 1 3.07-1.57c2.45 0 4.18 1.84 4.18 4.92 0 3.07-1.73 4.93-4.18 4.93a3.74 3.74 0 0 1-3.07-1.6V147zm5.42-8.28c0-1.95-1.07-3.37-2.82-3.37a3.2 3.2 0 0 0-2.6 1.38v3.99a3.27 3.27 0 0 0 2.6 1.38c1.75 0 2.82-1.42 2.82-3.38zm15.4 4.7v-6c0-1.56-.8-2.07-2-2.07-1.1 0-2.08.66-2.59 1.36v6.71h-1.75v-9.39h1.75v1.32a4.48 4.48 0 0 1 3.32-1.55c1.99 0 3.02 1.05 3.02 3.03v6.59H92.5zm3.94-4.7c0-2.73 1.97-4.92 4.7-4.92 2.83 0 4.58 2.2 4.58 5.07v.43H98.3a3.08 3.08 0 0 0 3.19 2.91 4 4 0 0 0 2.78-1.1l.81 1.14a5.28 5.28 0 0 1-3.77 1.4 4.7 4.7 0 0 1-4.86-4.93zm4.7-3.48c-1.88 0-2.77 1.51-2.87 2.8h5.74c-.04-1.25-.88-2.8-2.86-2.8zm14.92 8.18-2.31-7.21-2.32 7.21h-1.8l-2.96-9.39h1.83l2.13 7.15 2.36-7.15h1.51l2.36 7.15 2.13-7.15h1.83l-2.95 9.39h-1.81zm10.75-4.7c0-2.82 1.94-4.92 4.78-4.92a4.1 4.1 0 0 1 3.52 1.65l-1.17 1.07a2.62 2.62 0 0 0-2.27-1.17c-1.85 0-3.03 1.42-3.03 3.37s1.18 3.38 3.03 3.38c.95 0 1.7-.4 2.27-1.17l1.17 1.07a4.1 4.1 0 0 1-3.52 1.65c-2.84 0-4.78-2.12-4.78-4.94zm16.56 4.7v-1.28a4.64 4.64 0 0 1-3.34 1.51c-2 0-3-1-3-2.99v-6.63h1.75v6.05c0 1.55.78 2.02 1.99 2.02a3.4 3.4 0 0 0 2.6-1.32v-6.75h1.75v9.39h-1.75zm3.72-1.23.83-1.28c.64.7 1.89 1.34 3.15 1.34 1.32 0 2.02-.54 2.02-1.34 0-.93-1.07-1.24-2.27-1.51-1.6-.37-3.46-.8-3.46-2.82 0-1.5 1.28-2.78 3.57-2.78 1.62 0 2.78.58 3.58 1.34l-.78 1.22a3.66 3.66 0 0 0-2.78-1.14c-1.18 0-1.92.46-1.92 1.22 0 .82 1 1.09 2.18 1.36 1.63.37 3.57.82 3.57 2.98 0 1.61-1.32 2.87-3.79 2.87a5.34 5.34 0 0 1-3.9-1.45zm12.5 1.46c-1.48 0-2.24-.83-2.24-2.31v-5.77h-1.56v-1.54h1.56v-2.57h1.75v2.57h1.9v1.54h-1.9v5.38c0 .66.3 1.15.91 1.15.41 0 .78-.18.95-.37l.45 1.32c-.37.35-.91.6-1.82.6zm7.52 0c-2.92 0-4.75-2.21-4.75-4.93 0-2.7 1.83-4.92 4.75-4.92 2.93 0 4.74 2.21 4.74 4.92 0 2.72-1.8 4.93-4.74 4.93zm0-1.55c1.88 0 2.91-1.6 2.91-3.38 0-1.77-1.03-3.37-2.91-3.37-1.87 0-2.92 1.6-2.92 3.37 0 1.78 1.05 3.38 2.92 3.38zm18.37 1.32v-6.26c0-1.09-.49-1.8-1.63-1.8-.96 0-1.89.65-2.34 1.33v6.73h-1.75v-6.26c0-1.09-.46-1.8-1.65-1.8-.91 0-1.83.67-2.3 1.35v6.71h-1.74v-9.39h1.75v1.32a4.07 4.07 0 0 1 3.03-1.55c1.42 0 2.25.74 2.55 1.75a3.94 3.94 0 0 1 3.16-1.75c1.73 0 2.67.95 2.67 2.84v6.78h-1.75zm3.94-4.7c0-2.73 1.97-4.92 4.71-4.92 2.82 0 4.57 2.2 4.57 5.07v.43h-7.43a3.08 3.08 0 0 0 3.19 2.91 4 4 0 0 0 2.78-1.1l.82 1.14a5.28 5.28 0 0 1-3.77 1.4 4.7 4.7 0 0 1-4.86-4.93zm4.71-3.48c-1.89 0-2.78 1.51-2.88 2.8H197c-.04-1.25-.88-2.8-2.86-2.8zm6.77 8.18v-9.39h1.75v1.44a3.99 3.99 0 0 1 3.07-1.65v1.77a2.75 2.75 0 0 0-.6-.06c-.88 0-2.07.66-2.48 1.36v6.53h-1.75zm5.75-1.23.83-1.28a4.6 4.6 0 0 0 3.15 1.34c1.33 0 2.03-.54 2.03-1.34 0-.93-1.07-1.24-2.28-1.51-1.6-.37-3.46-.8-3.46-2.82 0-1.5 1.28-2.78 3.58-2.78a5 5 0 0 1 3.57 1.34l-.77 1.22a3.66 3.66 0 0 0-2.78-1.14c-1.19 0-1.93.46-1.93 1.22 0 .82 1.01 1.09 2.18 1.36 1.63.37 3.58.82 3.58 2.98 0 1.61-1.33 2.87-3.8 2.87a5.34 5.34 0 0 1-3.9-1.45zm17.51 1.46c-1.47 0-2.23-.83-2.23-2.31v-5.77h-1.56v-1.54h1.56v-2.57h1.75v2.57h1.9v1.54h-1.9v5.38c0 .66.3 1.15.91 1.15.41 0 .78-.18.96-.37l.44 1.32c-.37.35-.91.6-1.82.6zm7.53 0c-2.92 0-4.75-2.21-4.75-4.93 0-2.7 1.83-4.92 4.75-4.92 2.93 0 4.74 2.21 4.74 4.92 0 2.72-1.8 4.93-4.74 4.93zm0-1.55c1.88 0 2.91-1.6 2.91-3.38 0-1.77-1.03-3.37-2.91-3.37-1.87 0-2.92 1.6-2.92 3.37 0 1.78 1.05 3.38 2.92 3.38zm18.66 1.32v-1.34a3.88 3.88 0 0 1-3.07 1.57c-2.45 0-4.2-1.84-4.2-4.92 0-3 1.75-4.93 4.2-4.93 1.2 0 2.31.58 3.07 1.6v-4.95h1.75v12.97h-1.75zm0-2.68v-4a3.24 3.24 0 0 0-2.6-1.39c-1.75 0-2.84 1.42-2.84 3.39 0 1.94 1.09 3.36 2.84 3.36a3.2 3.2 0 0 0 2.6-1.36zm5.4-8.28c-.6 0-1.12-.49-1.12-1.11a1.13 1.13 0 1 1 2.25 0c0 .62-.5 1.1-1.12 1.1zm-.85 10.96v-9.39h1.75v9.39h-1.75zm3.71-1.23.84-1.28c.64.7 1.88 1.34 3.15 1.34 1.32 0 2.02-.54 2.02-1.34 0-.93-1.07-1.24-2.27-1.51-1.6-.37-3.46-.8-3.46-2.82 0-1.5 1.28-2.78 3.57-2.78 1.62 0 2.78.58 3.58 1.34l-.78 1.22a3.66 3.66 0 0 0-2.78-1.14c-1.18 0-1.92.46-1.92 1.22 0 .82 1 1.09 2.17 1.36 1.64.37 3.58.82 3.58 2.98 0 1.61-1.32 2.87-3.79 2.87a5.34 5.34 0 0 1-3.9-1.45zm9.33-3.48c0-2.81 1.95-4.91 4.79-4.91a4.1 4.1 0 0 1 3.51 1.65l-1.16 1.07a2.62 2.62 0 0 0-2.28-1.17c-1.84 0-3.03 1.42-3.03 3.37s1.19 3.38 3.03 3.38c.96 0 1.71-.4 2.28-1.17l1.16 1.07a4.1 4.1 0 0 1-3.51 1.65c-2.84 0-4.79-2.12-4.79-4.93zm14.39 4.94c-2.92 0-4.74-2.21-4.74-4.93 0-2.7 1.82-4.92 4.74-4.92 2.93 0 4.74 2.21 4.74 4.92 0 2.72-1.8 4.93-4.74 4.93zm0-1.55c1.89 0 2.92-1.6 2.92-3.38 0-1.77-1.03-3.37-2.92-3.37-1.87 0-2.92 1.6-2.92 3.37 0 1.78 1.05 3.38 2.92 3.38zm9.45 1.32-3.87-9.39h1.86l2.94 7.37 2.94-7.37h1.88l-3.87 9.39h-1.88zm6.59-4.7c0-2.73 1.96-4.92 4.7-4.92 2.82 0 4.57 2.2 4.57 5.07v.43h-7.43a3.08 3.08 0 0 0 3.2 2.91 4 4 0 0 0 2.77-1.1l.82 1.14a5.28 5.28 0 0 1-3.77 1.4 4.7 4.7 0 0 1-4.86-4.93zm4.7-3.48c-1.88 0-2.78 1.51-2.88 2.8h5.74c-.04-1.25-.88-2.8-2.86-2.8zm6.77 8.18v-9.39h1.75v1.44a3.99 3.99 0 0 1 3.07-1.65v1.77a2.75 2.75 0 0 0-.6-.06c-.88 0-2.06.66-2.47 1.36v6.53h-1.75zm11.39 2.1c.21.1.54.15.78.15.64 0 1.07-.2 1.36-.9l.54-1.25-3.87-9.49h1.87l2.93 7.37 2.94-7.37h1.89l-4.63 11.18c-.6 1.48-1.63 2-3 2.02a5.04 5.04 0 0 1-1.08-.14l.27-1.57zm14.01-1.87c-2.91 0-4.74-2.21-4.74-4.93 0-2.7 1.83-4.92 4.74-4.92 2.94 0 4.75 2.21 4.75 4.92 0 2.72-1.81 4.93-4.75 4.93zm0-1.55c1.89 0 2.92-1.6 2.92-3.38 0-1.77-1.03-3.37-2.92-3.37-1.86 0-2.91 1.6-2.91 3.37 0 1.78 1.05 3.38 2.92 3.38zm13.3 1.32v-1.28a4.64 4.64 0 0 1-3.34 1.51c-2 0-3-1-3-2.99v-6.63h1.75v6.05c0 1.55.78 2.02 1.99 2.02a3.4 3.4 0 0 0 2.6-1.32v-6.75h1.75v9.39h-1.75zm4.53 0v-9.39h1.75v1.44a3.99 3.99 0 0 1 3.07-1.65v1.77a2.75 2.75 0 0 0-.6-.06c-.87 0-2.06.66-2.47 1.36v6.53h-1.75zm-310.75 29.5h-1.75v-12.97h1.75v1.34a3.83 3.83 0 0 1 3.07-1.57c2.45 0 4.18 1.84 4.18 4.92 0 3.07-1.73 4.93-4.18 4.93a3.74 3.74 0 0 1-3.07-1.6v4.95zm5.43-8.28c0-1.95-1.07-3.37-2.82-3.37a3.2 3.2 0 0 0-2.6 1.38v3.99a3.27 3.27 0 0 0 2.6 1.38c1.75 0 2.82-1.42 2.82-3.38zm4.04 4.7v-9.39h1.75v1.44a3.99 3.99 0 0 1 3.07-1.65v1.77a2.75 2.75 0 0 0-.6-.06c-.88 0-2.06.66-2.47 1.36v6.53H51.8zm10.73.23c-2.92 0-4.74-2.21-4.74-4.93 0-2.7 1.82-4.92 4.74-4.92 2.94 0 4.74 2.21 4.74 4.92 0 2.72-1.8 4.93-4.74 4.93zm0-1.55c1.89 0 2.92-1.6 2.92-3.38 0-1.77-1.03-3.37-2.92-3.37-1.87 0-2.92 1.6-2.92 3.37 0 1.78 1.05 3.38 2.92 3.38zm13.65 1.32V168a3.88 3.88 0 0 1-3.07 1.57c-2.45 0-4.2-1.84-4.2-4.92 0-3 1.75-4.93 4.2-4.93 1.2 0 2.31.58 3.07 1.6v-4.95h1.75v12.97h-1.75zm0-2.68v-4a3.24 3.24 0 0 0-2.6-1.39c-1.76 0-2.85 1.42-2.85 3.38 0 1.95 1.1 3.37 2.84 3.37a3.2 3.2 0 0 0 2.6-1.36zm10.88 2.68v-1.28a4.64 4.64 0 0 1-3.34 1.51c-2 0-3-1-3-2.99v-6.63h1.76V166c0 1.55.77 2.02 1.98 2.02a3.4 3.4 0 0 0 2.6-1.32v-6.75h1.75v9.39h-1.75zm3.95-4.7c0-2.82 1.94-4.92 4.78-4.92a4.1 4.1 0 0 1 3.52 1.65l-1.17 1.07a2.62 2.62 0 0 0-2.27-1.17c-1.85 0-3.03 1.42-3.03 3.37s1.18 3.38 3.03 3.38c.95 0 1.71-.4 2.27-1.17l1.17 1.07a4.1 4.1 0 0 1-3.52 1.65c-2.84 0-4.78-2.12-4.78-4.93zm12.81 4.93c-1.48 0-2.23-.83-2.23-2.31v-5.77h-1.56v-1.54h1.56v-2.57h1.75v2.57h1.9v1.54h-1.9v5.38c0 .66.3 1.15.9 1.15.42 0 .79-.18.96-.37l.45 1.32c-.37.35-.92.6-1.83.6zm2.55-1.46.83-1.28c.65.7 1.89 1.34 3.15 1.34 1.33 0 2.03-.54 2.03-1.34 0-.93-1.07-1.24-2.28-1.51-1.6-.37-3.46-.8-3.46-2.82 0-1.5 1.28-2.78 3.58-2.78a5 5 0 0 1 3.57 1.34l-.77 1.22a3.66 3.66 0 0 0-2.78-1.14c-1.19 0-1.93.46-1.93 1.22 0 .82 1.01 1.09 2.18 1.36 1.63.37 3.58.82 3.58 2.98 0 1.61-1.33 2.87-3.8 2.87a5.34 5.34 0 0 1-3.9-1.45zm20.72 1.23v-1.03a4.03 4.03 0 0 1-3.07 1.26c-1.56 0-3.27-1.05-3.27-3.1 0-2.15 1.7-3.08 3.27-3.08a3.9 3.9 0 0 1 3.07 1.25v-1.56c0-1.17-.95-1.87-2.3-1.87-1.06 0-1.98.41-2.81 1.25l-.76-1.2a5.28 5.28 0 0 1 3.85-1.54c2.04 0 3.77.9 3.77 3.28v6.34h-1.75zm0-2.06v-1.6a2.97 2.97 0 0 0-2.4-1.06c-1.27 0-2.17.75-2.17 1.86s.9 1.87 2.16 1.87c.97 0 1.89-.37 2.41-1.07zm10.89 2.06v-6c0-1.56-.8-2.07-2-2.07-1.1 0-2.08.66-2.59 1.36v6.71h-1.75v-9.39h1.75v1.32a4.48 4.48 0 0 1 3.32-1.55c1.99 0 3.02 1.05 3.02 3.03v6.59h-1.75zm11.21 0V168a3.88 3.88 0 0 1-3.07 1.57c-2.45 0-4.2-1.84-4.2-4.92 0-3 1.75-4.93 4.2-4.93 1.2 0 2.32.58 3.07 1.6v-4.95h1.75v12.97h-1.75zm0-2.68v-4a3.24 3.24 0 0 0-2.6-1.39c-1.75 0-2.84 1.42-2.84 3.38 0 1.95 1.09 3.37 2.84 3.37a3.2 3.2 0 0 0 2.6-1.36zm16.26 2.68V168a3.88 3.88 0 0 1-3.07 1.57c-2.45 0-4.2-1.84-4.2-4.92 0-3 1.75-4.93 4.2-4.93 1.2 0 2.3.58 3.07 1.6v-4.95h1.75v12.97h-1.75zm0-2.68v-4a3.24 3.24 0 0 0-2.6-1.39c-1.76 0-2.85 1.42-2.85 3.38 0 1.95 1.1 3.37 2.84 3.37a3.2 3.2 0 0 0 2.6-1.36zm4.55 2.68v-9.39h1.75v1.44a3.99 3.99 0 0 1 3.07-1.65v1.77a2.75 2.75 0 0 0-.6-.06c-.88 0-2.07.66-2.48 1.36v6.53H170zm7.42-10.96c-.6 0-1.13-.49-1.13-1.11 0-.62.53-1.13 1.13-1.13a1.13 1.13 0 0 1 1.13 1.13c0 .62-.5 1.1-1.13 1.1zm-.85 10.96v-9.39h1.75v9.39h-1.75zm7.01 0-3.86-9.39h1.86l2.94 7.37 2.93-7.37h1.89l-3.87 9.39h-1.89zm6.6-4.7c0-2.73 1.96-4.92 4.7-4.92 2.82 0 4.57 2.2 4.57 5.07v.43h-7.43a3.08 3.08 0 0 0 3.19 2.91 4 4 0 0 0 2.78-1.1l.82 1.14a5.28 5.28 0 0 1-3.78 1.4 4.7 4.7 0 0 1-4.86-4.93zm4.7-3.48c-1.89 0-2.78 1.51-2.88 2.8h5.74c-.04-1.25-.88-2.8-2.86-2.8zm23.19 8.18v-6.26c0-1.09-.49-1.8-1.63-1.8a3 3 0 0 0-2.33 1.33v6.73h-1.75v-6.26c0-1.09-.47-1.8-1.66-1.8-.91 0-1.82.67-2.3 1.35v6.71h-1.74v-9.39h1.75v1.32a4.06 4.06 0 0 1 3.03-1.55c1.42 0 2.26.74 2.55 1.75a3.94 3.94 0 0 1 3.17-1.75c1.73 0 2.66.95 2.66 2.83v6.79h-1.75zm8.69.23c-2.92 0-4.74-2.21-4.74-4.93 0-2.7 1.82-4.92 4.74-4.92 2.94 0 4.74 2.21 4.74 4.92 0 2.72-1.8 4.93-4.74 4.93zm0-1.55c1.89 0 2.92-1.6 2.92-3.38 0-1.77-1.03-3.37-2.92-3.37-1.87 0-2.92 1.6-2.92 3.37 0 1.78 1.05 3.38 2.92 3.38zm6.96 1.32v-9.39h1.75v1.44a3.99 3.99 0 0 1 3.07-1.65v1.77a2.75 2.75 0 0 0-.6-.06c-.88 0-2.06.66-2.47 1.36v6.53h-1.75zm5.99-4.7c0-2.73 1.96-4.92 4.7-4.92 2.82 0 4.57 2.2 4.57 5.07v.43h-7.43a3.08 3.08 0 0 0 3.2 2.91 4 4 0 0 0 2.77-1.1l.82 1.14a5.28 5.28 0 0 1-3.77 1.4 4.7 4.7 0 0 1-4.86-4.93zm4.7-3.48c-1.88 0-2.78 1.51-2.88 2.8h5.74c-.04-1.25-.88-2.8-2.86-2.8zm10.97 6.96.83-1.29c.64.7 1.89 1.34 3.15 1.34 1.32 0 2.02-.54 2.02-1.34 0-.93-1.07-1.24-2.27-1.51-1.6-.37-3.46-.8-3.46-2.82 0-1.5 1.28-2.78 3.58-2.78 1.6 0 2.78.58 3.57 1.34l-.78 1.22a3.66 3.66 0 0 0-2.78-1.14c-1.18 0-1.92.46-1.92 1.22 0 .82 1.01 1.09 2.18 1.36 1.63.37 3.57.82 3.57 2.98 0 1.61-1.32 2.87-3.79 2.87a5.34 5.34 0 0 1-3.9-1.45zm15.7 1.22v-1.03a4.02 4.02 0 0 1-3.07 1.26c-1.55 0-3.26-1.05-3.26-3.1 0-2.15 1.69-3.08 3.26-3.08a3.9 3.9 0 0 1 3.07 1.25v-1.56c0-1.17-.95-1.87-2.3-1.87a3.8 3.8 0 0 0-2.8 1.25l-.77-1.2a5.28 5.28 0 0 1 3.85-1.54c2.04 0 3.77.9 3.77 3.28v6.34h-1.75zm0-2.06v-1.6a2.97 2.97 0 0 0-2.4-1.06c-1.27 0-2.16.75-2.16 1.86s.89 1.87 2.15 1.87c.98 0 1.89-.37 2.41-1.07zm4.55 2.06v-12.97h1.75v12.97h-1.75zm3.95-4.7c0-2.73 1.96-4.92 4.7-4.92 2.82 0 4.57 2.2 4.57 5.07v.43h-7.42a3.08 3.08 0 0 0 3.18 2.91 4 4 0 0 0 2.78-1.1l.82 1.14a5.28 5.28 0 0 1-3.77 1.4 4.7 4.7 0 0 1-4.86-4.93zm4.7-3.48c-1.88 0-2.78 1.51-2.87 2.8h5.73c-.04-1.25-.87-2.8-2.86-2.8zm5.95 6.96.84-1.29c.64.7 1.88 1.34 3.15 1.34 1.32 0 2.02-.54 2.02-1.34 0-.93-1.07-1.24-2.28-1.51-1.59-.37-3.46-.8-3.46-2.82 0-1.5 1.29-2.78 3.58-2.78 1.61 0 2.78.58 3.58 1.34l-.78 1.22a3.66 3.66 0 0 0-2.78-1.14c-1.19 0-1.92.46-1.92 1.22 0 .82 1 1.09 2.17 1.36 1.64.37 3.58.82 3.58 2.98 0 1.61-1.32 2.87-3.79 2.87a5.34 5.34 0 0 1-3.9-1.45zm14.93 1.22v-12.97h1.75v4.94a3.77 3.77 0 0 1 3.07-1.6c2.45 0 4.18 1.93 4.18 4.94 0 3.08-1.75 4.92-4.18 4.92a3.85 3.85 0 0 1-3.07-1.57v1.34h-1.75zm1.75-2.68a3.2 3.2 0 0 0 2.6 1.36c1.76 0 2.84-1.4 2.84-3.37s-1.08-3.38-2.83-3.38a3.2 3.2 0 0 0-2.6 1.4v3.99zm9.3 4.78c.2.1.54.15.77.15.64 0 1.07-.2 1.36-.9l.55-1.25-3.87-9.49h1.86l2.94 7.37 2.94-7.37h1.88l-4.63 11.18c-.6 1.48-1.63 2-2.99 2.02-.3 0-.82-.06-1.09-.14l.27-1.57zM40 190.56c0-2.82 1.94-4.92 4.78-4.92a4.1 4.1 0 0 1 3.52 1.65l-1.17 1.07a2.62 2.62 0 0 0-2.27-1.17c-1.85 0-3.03 1.42-3.03 3.37s1.18 3.38 3.03 3.38c.95 0 1.71-.4 2.27-1.17l1.17 1.07a4.1 4.1 0 0 1-3.52 1.65c-2.84 0-4.78-2.12-4.78-4.93zm14.39 4.93c-2.92 0-4.75-2.21-4.75-4.93 0-2.7 1.83-4.92 4.75-4.92 2.93 0 4.74 2.21 4.74 4.92 0 2.72-1.8 4.93-4.74 4.93zm0-1.55c1.88 0 2.91-1.6 2.91-3.38 0-1.77-1.03-3.37-2.91-3.37-1.87 0-2.92 1.6-2.92 3.37 0 1.78 1.05 3.38 2.92 3.38zm13.3 1.32v-6c0-1.56-.8-2.07-2.01-2.07-1.09 0-2.08.66-2.59 1.36v6.71h-1.75v-9.39h1.75v1.32a4.48 4.48 0 0 1 3.33-1.55c1.98 0 3.01 1.05 3.01 3.03v6.59h-1.75zm10.86 0v-6c0-1.56-.8-2.07-2-2.07-1.1 0-2.08.66-2.59 1.36v6.71h-1.75v-9.39h1.75v1.32a4.48 4.48 0 0 1 3.33-1.55c1.98 0 3 1.05 3 3.03v6.59h-1.74zm3.95-4.7c0-2.73 1.96-4.92 4.7-4.92 2.82 0 4.57 2.2 4.57 5.07v.43h-7.43a3.08 3.08 0 0 0 3.2 2.92 4 4 0 0 0 2.77-1.11l.82 1.14a5.28 5.28 0 0 1-3.77 1.4 4.7 4.7 0 0 1-4.86-4.93zm4.7-3.48c-1.89 0-2.78 1.51-2.88 2.8h5.74c-.04-1.25-.88-2.8-2.86-2.8zm6.18 3.48c0-2.82 1.95-4.92 4.78-4.92a4.1 4.1 0 0 1 3.52 1.65l-1.16 1.07a2.62 2.62 0 0 0-2.28-1.17c-1.85 0-3.03 1.42-3.03 3.37s1.18 3.38 3.03 3.38c.95 0 1.71-.4 2.28-1.17l1.16 1.07a4.1 4.1 0 0 1-3.52 1.65c-2.83 0-4.78-2.12-4.78-4.93zm12.81 4.93c-1.47 0-2.23-.83-2.23-2.31v-5.77h-1.56v-1.54h1.56v-2.57h1.75v2.57h1.9v1.54h-1.9v5.38c0 .66.3 1.15.91 1.15.4 0 .78-.18.95-.37l.45 1.32c-.37.35-.91.6-1.83.6zm4.22-11.2c-.6 0-1.13-.48-1.13-1.1 0-.62.53-1.13 1.13-1.13.62 0 1.13.5 1.13 1.13 0 .62-.5 1.1-1.13 1.1zm-.85 10.97v-9.39h1.75v9.39h-1.75zm10.86 0v-6c0-1.56-.8-2.07-2-2.07-1.09 0-2.08.66-2.59 1.36v6.71h-1.75v-9.39h1.75v1.32a4.48 4.48 0 0 1 3.33-1.55c1.98 0 3.01 1.05 3.01 3.03v6.59h-1.75zm4.45 2.41.84-1.28c.78.9 1.73 1.24 3.01 1.24 1.46 0 2.92-.7 2.92-2.68v-1.23a3.96 3.96 0 0 1-3.09 1.62c-2.43 0-4.18-1.8-4.18-4.86 0-3.01 1.75-4.84 4.18-4.84 1.22 0 2.33.58 3.09 1.6v-1.37h1.75v9.02c0 3.23-2.35 4.18-4.67 4.18a5.05 5.05 0 0 1-3.85-1.4zm6.77-5.29v-3.8a3.27 3.27 0 0 0-2.6-1.39c-1.75 0-2.84 1.36-2.84 3.29 0 1.94 1.09 3.3 2.83 3.3a3.3 3.3 0 0 0 2.61-1.4zm9.35 4.98c.21.1.54.15.78.15.64 0 1.07-.2 1.36-.9l.54-1.25-3.87-9.49h1.87l2.94 7.37 2.93-7.37h1.89l-4.63 11.18c-.6 1.48-1.63 2-3 2.02a5.04 5.04 0 0 1-1.08-.14l.27-1.57zm14.02-1.87c-2.92 0-4.75-2.21-4.75-4.93 0-2.7 1.83-4.92 4.75-4.92 2.93 0 4.74 2.21 4.74 4.92 0 2.72-1.8 4.93-4.74 4.93zm0-1.55c1.88 0 2.91-1.6 2.91-3.38 0-1.77-1.03-3.37-2.91-3.37-1.87 0-2.92 1.6-2.92 3.37 0 1.78 1.05 3.38 2.92 3.38zm13.3 1.32v-1.28a4.64 4.64 0 0 1-3.35 1.51c-2 0-3-1-3-2.99v-6.63h1.76v6.05c0 1.55.77 2.02 1.98 2.02a3.4 3.4 0 0 0 2.6-1.32v-6.75h1.75v9.39h-1.75zm4.52 0v-9.39h1.75v1.44a3.98 3.98 0 0 1 3.07-1.65v1.77a2.75 2.75 0 0 0-.6-.06c-.87 0-2.06.66-2.47 1.36v6.53h-1.75zm10.77-1.22.84-1.29c.64.7 1.88 1.34 3.15 1.34 1.32 0 2.02-.54 2.02-1.34 0-.93-1.07-1.24-2.27-1.51-1.6-.37-3.46-.8-3.46-2.82 0-1.5 1.28-2.78 3.57-2.78 1.62 0 2.78.58 3.58 1.34l-.78 1.22a3.66 3.66 0 0 0-2.78-1.14c-1.18 0-1.92.46-1.92 1.22 0 .82 1 1.09 2.17 1.36 1.64.37 3.58.82 3.58 2.98 0 1.61-1.32 2.87-3.79 2.87a5.34 5.34 0 0 1-3.9-1.45zm12.5 1.45c-1.47 0-2.23-.83-2.23-2.31v-5.77h-1.56v-1.54h1.56v-2.57h1.75v2.57h1.9v1.54h-1.9v5.38c0 .66.3 1.15.91 1.15.4 0 .78-.18.95-.37l.45 1.32c-.37.35-.91.6-1.83.6zm7.53 0c-2.92 0-4.75-2.21-4.75-4.93 0-2.7 1.83-4.92 4.75-4.92 2.93 0 4.74 2.21 4.74 4.92 0 2.72-1.8 4.93-4.74 4.93zm0-1.55c1.88 0 2.91-1.6 2.91-3.38 0-1.77-1.03-3.37-2.91-3.37-1.87 0-2.92 1.6-2.92 3.37 0 1.78 1.05 3.38 2.92 3.38zm6.96 1.32v-9.39h1.75v1.44a3.99 3.99 0 0 1 3.07-1.65v1.77a2.75 2.75 0 0 0-.6-.06 3.3 3.3 0 0 0-2.47 1.36v6.53h-1.75zm5.98-4.7c0-2.73 1.97-4.92 4.7-4.92 2.83 0 4.58 2.2 4.58 5.07v.43h-7.43a3.08 3.08 0 0 0 3.19 2.92 4 4 0 0 0 2.78-1.11l.82 1.14a5.28 5.28 0 0 1-3.78 1.4 4.7 4.7 0 0 1-4.86-4.93zm4.7-3.48c-1.88 0-2.77 1.51-2.87 2.8h5.74c-.04-1.25-.88-2.8-2.86-2.8zm14.37 8.41c-1.47 0-2.23-.83-2.23-2.31v-5.77h-1.56v-1.54h1.56v-2.57h1.75v2.57h1.9v1.54h-1.9v5.38c0 .66.3 1.15.91 1.15.41 0 .78-.18.95-.37l.45 1.32c-.37.35-.91.6-1.83.6zm7.53 0c-2.92 0-4.75-2.21-4.75-4.93 0-2.7 1.83-4.92 4.75-4.92 2.93 0 4.74 2.21 4.74 4.92 0 2.72-1.8 4.93-4.74 4.93zm0-1.55c1.88 0 2.91-1.6 2.91-3.38 0-1.77-1.03-3.37-2.91-3.37-1.87 0-2.92 1.6-2.92 3.37 0 1.78 1.05 3.38 2.92 3.38zm11.86 1.32v-12.97h6.06c2.82 0 4.36 1.9 4.36 4.18 0 2.26-1.56 4.14-4.36 4.14h-3.3v4.65h-2.76zm7.6-8.8c0-1.08-.82-1.8-1.9-1.8h-2.94v3.58h2.93c1.09 0 1.9-.7 1.9-1.79zm5.7-1.97a1.49 1.49 0 0 1-1.48-1.48c0-.81.68-1.47 1.47-1.47a1.48 1.48 0 1 1 0 2.95zm-1.23 10.77v-9.39h2.47v9.39h-2.47zm11.25 0v-5.68c0-1.3-.68-1.75-1.73-1.75-.97 0-1.73.55-2.13 1.11v6.32h-2.47v-9.39h2.47v1.23a4.3 4.3 0 0 1 3.28-1.46c2.06 0 3.05 1.16 3.05 3v6.62h-2.47zm8.07.23c-1.73 0-2.66-.9-2.66-2.56v-4.9h-1.56v-2.16h1.56v-2.57h2.49v2.57h1.9v2.16h-1.9v4.24c0 .58.3 1.03.85 1.03.37 0 .72-.14.86-.28l.52 1.87c-.37.33-1.03.6-2.06.6zm2.82-4.93c0-2.73 2-4.92 4.86-4.92 2.8 0 4.7 2.1 4.7 5.17v.54h-6.97c.15 1.19 1.1 2.18 2.7 2.18.87 0 1.9-.35 2.5-.93l1.1 1.6a5.78 5.78 0 0 1-3.87 1.3c-2.86 0-5.02-1.93-5.02-4.94zm4.86-2.96c-1.54 0-2.2 1.15-2.31 2.08h4.62a2.17 2.17 0 0 0-2.31-2.08zm6.5 7.66v-9.39h2.46v1.28a4.01 4.01 0 0 1 3-1.5v2.42a3.28 3.28 0 0 0-.68-.06c-.82 0-1.91.45-2.32 1.05v6.2h-2.47zm6.39-4.7c0-2.73 2-4.92 4.86-4.92 2.8 0 4.7 2.1 4.7 5.17v.54h-6.98c.16 1.19 1.11 2.18 2.7 2.18.88 0 1.91-.35 2.51-.93l1.1 1.6a5.79 5.79 0 0 1-3.88 1.3c-2.85 0-5.01-1.93-5.01-4.94zm4.86-2.96c-1.54 0-2.2 1.15-2.31 2.08h4.62a2.17 2.17 0 0 0-2.31-2.08zm5.68 6.43 1.07-1.73a5.37 5.37 0 0 0 3.24 1.29c1.07 0 1.58-.37 1.58-.95 0-.67-.82-.9-1.89-1.11-1.61-.31-3.7-.7-3.7-2.94 0-1.57 1.39-2.95 3.86-2.95a5.9 5.9 0 0 1 3.77 1.28l-.97 1.7a3.96 3.96 0 0 0-2.78-1.1c-.9 0-1.48.33-1.48.88 0 .58.74.8 1.79 1 1.61.32 3.77.75 3.77 3.08 0 1.73-1.46 3.01-4.07 3.01-1.63 0-3.2-.54-4.2-1.46zm13.24 1.46c-1.74 0-2.67-.9-2.67-2.56v-4.9h-1.55v-2.16h1.55v-2.57h2.49v2.57h1.9v2.16h-1.9v4.24c0 .58.31 1.03.85 1.03.37 0 .72-.14.86-.28l.53 1.87c-.37.33-1.03.6-2.06.6zm3.1-1.6c0-.85.72-1.57 1.58-1.57.85 0 1.57.72 1.57 1.58 0 .85-.72 1.57-1.57 1.57s-1.58-.72-1.58-1.57z"/></g></svg>