<svg xmlns="http://www.w3.org/2000/svg" width="72" height="193">
  <g id="navigation-bottom" fill="none" fill-rule="evenodd" stroke="none" stroke-width="1">
    <path id="Separator" fill="#7C3982" d="M0 128h72v1H0v-1zM0 0h72v1H0V0z"/>
    <path id="Icons" fill="#FFF" d="M26 19c0-1.505.78-3.08 2-4 0 .845.69 2 2 2a3 3 0 013 3c0 .386-.08.752-.212 1.09.74.594 1.476 1.19 2.19 1.81L32.9 24.98a77.245 77.245 0 01-1.807-2.192c-.34.132-.706.212-1.093.212-2.21 0-4-1.79-4-4zm12.152 6.848a68.392 68.392 0 015.448 5.977l1.15 1.425-1.5 1.5-1.425-1.148a68.733 68.733 0 01-5.977-5.45L29 35l-2-2 10.493-10.493A4.45 4.45 0 0137 20.5a4.5 4.5 0 014.5-4.5c.725 0 1.4.188 2.007.493L40 20l2 2 3.507-3.507A4.45 4.45 0 0146 20.5a4.5 4.5 0 01-4.5 4.5 4.466 4.466 0 01-2.008-.492l-1.34 1.34zM44 89v-.001c0 .567-.061 1.122-.174 1.657l1.834 1.613-2 3.464-2.322-.786a7.991 7.991 0 01-2.858 1.657L38 99h-4l-.478-2.397a7.974 7.974 0 01-2.86-1.657l-2.322.786-2-3.464 1.834-1.612a7.925 7.925 0 010-3.312l-1.834-1.612 2-3.464 2.322.785a7.974 7.974 0 012.858-1.657L34 79h4l.478 2.397a7.974 7.974 0 012.86 1.657l2.322-.786 2 3.464-1.834 1.612c.114.534.174 1.088.174 1.656zm-8 4c2.21 0 4-1.79 4-4s-1.79-4-4-4-4 1.79-4 4 1.79 4 4 4zm8 59v2H31.83l5.58 5.59L36 161l-8-8 8-8 1.42 1.41-5.59 5.59H44z"/>
    <path id="Labels" fill="#FFF" d="M26.896 51h-.898v-5.87h-2.012v-.795h4.917v.796h-2.007V51zm5.078-5.22c1.275 0 2.217.835 2.217 2.266v.762c0 1.45-.942 2.275-2.217 2.275-1.299 0-2.222-.81-2.222-2.275v-.757c0-1.387.938-2.27 2.222-2.27zm.005.752c-.825 0-1.343.655-1.343 1.592v.62c0 .952.484 1.592 1.343 1.592.85 0 1.323-.64 1.323-1.592v-.62c0-.937-.498-1.592-1.323-1.592zm5.669-.752c1.274 0 2.217.835 2.217 2.266v.762c0 1.45-.943 2.275-2.217 2.275-1.299 0-2.222-.81-2.222-2.275v-.757c0-1.387.938-2.27 2.222-2.27zm.005.752c-.825 0-1.343.655-1.343 1.592v.62c0 .952.483 1.592 1.343 1.592.85 0 1.323-.64 1.323-1.592v-.62c0-.937-.498-1.592-1.323-1.592zM41.378 51v-7.017h.884V51h-.884zm2.408-3.662c0-1.089.913-1.558 1.914-1.558 1.108 0 1.84.572 1.84 1.436h-.82c-.03-.357-.361-.742-1.05-.742-.6 0-1.03.278-1.03.776 0 .61.693.688 1.275.796.961.166 1.757.434 1.757 1.435 0 1.021-.82 1.602-2.05 1.602-1.143 0-1.93-.513-1.93-1.43h.865c.068.453.386.742 1.104.742.81 0 1.142-.367 1.142-.811 0-.571-.571-.679-1.284-.82-.957-.196-1.733-.415-1.733-1.426zM17.16 113.31h.908c.127.634.727 1.044 1.597 1.044.927 0 1.499-.449 1.499-1.152 0-.532-.337-.845-1.084-1.035l-1.158-.303c-1-.254-1.577-.869-1.577-1.758 0-1.128.972-1.928 2.33-1.928 1.318 0 2.211.727 2.314 1.748h-.904c-.122-.591-.649-.967-1.425-.967-.84 0-1.402.454-1.402 1.108 0 .47.327.796.938.948l1.137.297c1.167.308 1.739.855 1.739 1.822 0 1.21-.962 2.002-2.5 2.002-1.411 0-2.32-.752-2.412-1.826zm8.305 1.772c-1.382 0-2.197-.874-2.197-2.26v-.782c0-1.396.899-2.26 2.129-2.26 1.245 0 2.134.878 2.134 2.26v.62h-3.384v.259c0 .796.459 1.416 1.313 1.416.601 0 1.006-.288 1.094-.606h.908c-.078.547-.698 1.353-1.997 1.353zm-1.318-3.062h2.505v-.083c0-.854-.498-1.416-1.25-1.416s-1.255.562-1.255 1.416v.083zm5.132-2.143v-1.29h.874v1.29h1.162v.718h-1.162v2.959c0 .605.205.761.83.761.127 0 .322-.014.405-.024V115a4.57 4.57 0 01-.63.044c-1.22 0-1.484-.469-1.484-1.484v-2.964h-.786v-.718h.79zm3.764 0v-1.29h.874v1.29h1.163v.718h-1.163v2.959c0 .605.206.761.83.761.128 0 .323-.014.406-.024V115c-.073.02-.435.044-.63.044-1.22 0-1.484-.469-1.484-1.484v-2.964h-.787v-.718h.791zm3.414-1.597c0-.356.268-.61.62-.61.37 0 .64.254.64.61 0 .352-.27.606-.64.606-.352 0-.62-.254-.62-.606zm.185 6.719v-5.137h.884V115h-.884zm2.744 0v-5.137h.874v.933h.05c.126-.405.482-1.016 1.557-1.016 1.035 0 1.743.562 1.743 1.714V115h-.884v-3.228c0-.805-.415-1.22-1.113-1.22-.904 0-1.343.698-1.343 1.587V115h-.884zm7.793 1.138c.904 0 1.348-.484 1.348-1.29v-.746h-.049c-.2.444-.728.805-1.44.805-1.138 0-2.027-.805-2.027-2.158v-.796c0-1.352.884-2.168 2.022-2.168.771 0 1.318.435 1.489.855h.044v-.777h.845v4.98c0 1.417-.948 2.037-2.261 2.037-1.314 0-1.958-.66-2.026-1.406h.898c.068.361.483.664 1.157.664zm.073-5.596c-.835 0-1.352.635-1.352 1.572v.484c0 .937.566 1.567 1.362 1.567.82 0 1.265-.679 1.265-1.411v-.776c0-.752-.469-1.436-1.275-1.436zm3.565.796c0-1.089.913-1.558 1.914-1.558 1.108 0 1.84.572 1.84 1.436h-.82c-.029-.357-.36-.742-1.05-.742-.6 0-1.03.278-1.03.776 0 .61.694.688 1.275.796.962.166 1.758.434 1.758 1.435 0 1.021-.82 1.602-2.051 1.602-1.143 0-1.929-.513-1.929-1.43h.864c.069.453.386.742 1.104.742.81 0 1.142-.367 1.142-.811 0-.571-.57-.679-1.284-.82-.957-.196-1.733-.415-1.733-1.426zM15.709 179h-.8l-1.831-6.665h1.035l1.21 5.298h.05l1.303-5.298h.88l1.308 5.298h.049l1.21-5.298h1.03L19.329 179h-.806l-1.387-5.215h-.039L15.71 179zm9.014-6.665c1.294 0 2.134.86 2.134 2.09s-.84 2.085-2.139 2.085H23.17V179h-.898v-6.665h2.451zm1.211 2.09c0-.825-.474-1.304-1.294-1.304h-1.47v2.608h1.47c.82 0 1.294-.479 1.294-1.304zM30.685 179h-.933l2.359-6.665h.932L35.397 179h-.947l-.655-1.973H31.34L30.685 179zm1.9-5.635h-.035l-.976 2.945h1.992l-.982-2.945zm5.678.42c.723 0 1.284.318 1.49.84h.043v-2.642h.884V179h-.85v-.82h-.043c-.152.522-.791.893-1.543.893-1.197 0-1.973-.835-1.973-2.143v-.996c0-1.309.796-2.149 1.992-2.149zm.18.757c-.8 0-1.283.586-1.283 1.572v.625c0 .996.493 1.577 1.308 1.577.806 0 1.328-.57 1.328-1.494v-.888c0-.816-.57-1.392-1.352-1.392zm3.99 4.458v-5.137h.874v.82h.049c.117-.366.444-.903 1.392-.903.776 0 1.264.415 1.425.967h.04c.21-.503.698-.967 1.567-.967 1.05 0 1.69.576 1.69 1.607V179h-.885v-3.364c0-.66-.37-1.09-1.064-1.09-.64 0-1.133.494-1.133 1.197V179h-.874v-3.33c0-.669-.415-1.123-1.089-1.123-.644 0-1.108.483-1.108 1.186V179h-.884zm8.687-6.719c0-.356.268-.61.62-.61.37 0 .64.254.64.61 0 .352-.27.606-.64.606-.352 0-.62-.254-.62-.606zm.185 6.719v-5.137h.884V179h-.884zm2.744 0v-5.137h.874v.933h.05c.126-.405.483-1.016 1.557-1.016 1.035 0 1.743.562 1.743 1.714V179h-.884v-3.228c0-.805-.415-1.22-1.113-1.22-.903 0-1.343.698-1.343 1.587V179h-.884z"/>
  </g>
</svg>
