<svg xmlns="http://www.w3.org/2000/svg" width="72" height="320">
  <g id="navigation-top" fill="none" fill-rule="evenodd" stroke="none" stroke-width="1">
    <path id="Separator" fill="#7C3982" d="M0 63h72v1H0z"/>
    <path id="Highlight" fill="#7C3982" d="M0 128h72v64H0z"/>
    <circle id="Badge-Background" cx="47" cy="141" r="8" fill="#C9356E"/>
    <path id="Badge-Label" fill="#FFF" d="M45.872 139.259h-1.06v-.054c0-1.01.733-2.002 2.198-2.002 1.318 0 2.178.791 2.178 1.846 0 .874-.547 1.44-1.153 2.114l-1.645 1.85v.064h2.915V144h-4.453v-.693l2.475-2.744c.361-.396.752-.84.752-1.421 0-.62-.464-1.03-1.094-1.03-.703 0-1.113.512-1.113 1.088v.059z"/>
    <path id="Icons" fill="#FFF" d="M42 148.484a8.968 8.968 0 002 1.004V160a2 2 0 01-2 2H30a2 2 0 01-2-2v-15a2 2 0 012-2h2v2h-2v15h12v-11.516zm-2.888-3.147c.248.45.532.875.85 1.273.025.126.038.257.038.39v1h-8v-1a2 2 0 012-2v-1a2 2 0 114 0v1c.412 0 .794.124 1.112.337zM46 85v2h-2v10h-5v-4a3 3 0 10-6 0v4h-5V87h-2v-2l10-8 10 8zm-5.5-70a5.5 5.5 0 015.5 5.5c0 5.72-6.5 10.438-10 12.85-3.5-2.412-10-7.13-10-12.85a5.5 5.5 0 015.5-5.5 5.49 5.49 0 014.5 2.344A5.49 5.49 0 0140.5 15zM40 158h-8v-2h8v2zm0-6v2h-8v-2h8zm4 54.007h-.002a2 2 0 012 2v7.087c0 .53-.211 1.039-.587 1.413l-8.906 8.906a2 2 0 01-2.827 0l-7.086-7.086a2 2 0 010-2.827l8.907-8.907a1.995 1.995 0 011.414-.586H44zM41.007 213a2 2 0 10.001-3.999 2 2 0 00-.001 3.999zM46 271v6h-1v11a2 2 0 01-2 2H29a2 2 0 01-2-2v-11h-1v-6h20zm-18 2v2h16v-2H28zm15 15v-11H29v11h14zm-10-9h6a2 2 0 01-2 2h-2a2 2 0 01-2-2z"/>
    <path id="Labels" fill="#FFF" d="M11.95 107.335h2.168c1.943 0 2.934 1.152 2.934 3.33S16.061 114 14.118 114H11.95v-6.665zm.898.786v5.088h1.206c1.392 0 2.066-.84 2.066-2.54 0-1.698-.68-2.548-2.066-2.548h-1.206zm7.017 5.962c-.996 0-1.68-.625-1.68-1.577 0-.899.625-1.509 1.807-1.509h1.342v-.508c0-.659-.415-.962-1.074-.962-.65 0-.923.254-1.025.61h-.855c.078-.868.762-1.357 1.91-1.357 1.06 0 1.933.454 1.933 1.714V114h-.85v-.684h-.039c-.249.415-.712.767-1.47.767zm.244-.742c.693 0 1.225-.469 1.225-1.099v-.571h-1.27c-.692 0-.976.347-.976.806 0 .595.489.864 1.02.864zm3.579-3.003c0-1.089.913-1.558 1.914-1.558 1.108 0 1.84.572 1.84 1.436h-.82c-.029-.357-.36-.742-1.05-.742-.6 0-1.03.278-1.03.776 0 .61.694.688 1.275.796.962.166 1.758.434 1.758 1.435 0 1.021-.82 1.602-2.051 1.602-1.143 0-1.929-.513-1.929-1.43h.864c.069.453.386.742 1.104.742.81 0 1.143-.367 1.143-.811 0-.571-.572-.679-1.285-.82-.957-.196-1.733-.415-1.733-1.426zM29.03 114v-7.017h.884v2.813h.044c.102-.357.522-1.016 1.591-1.016.992 0 1.724.572 1.724 1.724V114h-.884v-3.218c0-.81-.444-1.23-1.138-1.23-.878 0-1.337.693-1.337 1.587V114h-.884zm8.374.078c-.723 0-1.294-.312-1.524-.84h-.044V114h-.85v-7.017h.885v2.696h.044c.16-.537.771-.894 1.513-.894 1.211 0 1.968.845 1.968 2.202v.884c0 1.362-.767 2.207-1.992 2.207zm-.171-.757c.806 0 1.274-.586 1.274-1.601v-.547c0-1.035-.473-1.631-1.299-1.631-.82 0-1.337.586-1.337 1.519v.844c0 .83.57 1.416 1.362 1.416zm5.625-4.54c1.274 0 2.217.834 2.217 2.265v.762c0 1.45-.943 2.275-2.217 2.275-1.299 0-2.222-.81-2.222-2.275v-.757c0-1.387.938-2.27 2.222-2.27zm.005.751c-.825 0-1.343.655-1.343 1.592v.62c0 .952.483 1.592 1.343 1.592.85 0 1.323-.64 1.323-1.592v-.62c0-.937-.498-1.592-1.323-1.592zm5.083 4.551c-.996 0-1.68-.625-1.68-1.577 0-.899.625-1.509 1.807-1.509h1.343v-.508c0-.659-.416-.962-1.075-.962-.65 0-.923.254-1.025.61h-.855c.079-.868.762-1.357 1.91-1.357 1.06 0 1.933.454 1.933 1.714V114h-.85v-.684h-.038c-.25.415-.713.767-1.47.767zm.244-.742c.693 0 1.226-.469 1.226-1.099v-.571h-1.27c-.693 0-.977.347-.977.806 0 .595.489.864 1.02.864zm3.901.659v-5.137h.884v.791h.044c.127-.337.498-.869 1.406-.869.113 0 .22.01.323.025v.805a2.308 2.308 0 00-.415-.03c-.904 0-1.353.543-1.353 1.241V114h-.889zm5.581-5.215c.723 0 1.285.318 1.49.84h.044v-2.642h.883V114h-.85v-.82h-.043c-.152.522-.791.893-1.543.893-1.196 0-1.973-.835-1.973-2.143v-.996c0-1.309.796-2.149 1.992-2.149zm.181.757c-.8 0-1.284.586-1.284 1.572v.625c0 .996.493 1.577 1.308 1.577.806 0 1.329-.57 1.329-1.494v-.888c0-.816-.572-1.392-1.353-1.392zM17.57 50h-.816v-6.665h.884l2.173 5.107h.03l2.167-5.107h.88V50h-.816v-4.844h-.05l-1.835 4.258h-.732l-1.841-4.258h-.044V50zm11.24-5.137c-.083.269-1.816 5.137-1.816 5.147l-.108.278c-.41 1.094-.928 1.514-1.821 1.514a2.77 2.77 0 01-.508-.044v-.713c.078.01.274.024.376.024.576 0 .874-.23 1.03-.81l.054-.19-1.885-5.206h.982l1.357 4.273h.04l1.362-4.273h.937zm3.062 3.448h.908c.127.634.727 1.044 1.596 1.044.928 0 1.5-.449 1.5-1.152 0-.532-.337-.845-1.084-1.035l-1.158-.303c-1-.254-1.577-.869-1.577-1.758 0-1.128.972-1.928 2.33-1.928 1.318 0 2.211.727 2.314 1.748h-.904c-.122-.591-.65-.967-1.425-.967-.84 0-1.402.454-1.402 1.108 0 .47.327.796.938.948l1.137.297c1.167.308 1.739.855 1.739 1.822 0 1.21-.962 2.002-2.5 2.002-1.411 0-2.32-.752-2.412-1.826zm6.645-3.433v-1.29h.874v1.29h1.162v.718h-1.162v2.959c0 .605.205.761.83.761.127 0 .322-.014.405-.024V50a4.57 4.57 0 01-.63.044c-1.22 0-1.484-.469-1.484-1.484v-2.964h-.786v-.718h.791zm5.45-.098c1.274 0 2.216.835 2.216 2.266v.762c0 1.45-.942 2.275-2.217 2.275-1.299 0-2.221-.81-2.221-2.275v-.757c0-1.387.937-2.27 2.221-2.27zm.004.752c-.825 0-1.343.655-1.343 1.592v.62c0 .952.484 1.592 1.343 1.592.85 0 1.323-.64 1.323-1.592v-.62c0-.937-.498-1.592-1.323-1.592zM47.746 50v-5.137h.883v.791h.044c.127-.337.498-.869 1.407-.869.112 0 .22.01.322.025v.805a2.308 2.308 0 00-.415-.03c-.904 0-1.353.543-1.353 1.241V50h-.888zm5.786.083c-1.382 0-2.198-.874-2.198-2.26v-.782c0-1.396.899-2.26 2.13-2.26 1.244 0 2.133.878 2.133 2.26v.62h-3.384v.259c0 .796.46 1.416 1.314 1.416.6 0 1.006-.288 1.094-.606h.908c-.078.547-.698 1.353-1.997 1.353zm-1.319-3.062h2.505v-.083c0-.854-.498-1.416-1.25-1.416s-1.255.562-1.255 1.416v.083zM26.537 175.153c0 1.885-1.05 2.984-2.685 2.984-1.636 0-2.686-1.099-2.686-2.984v-.966c0-1.895 1.05-2.989 2.686-2.989 1.635 0 2.685 1.094 2.685 2.989v.966zm-.903-.971c0-1.475-.772-2.188-1.782-2.188-1.016 0-1.783.713-1.783 2.188v.971c0 1.475.767 2.188 1.783 2.188 1.01 0 1.782-.713 1.782-2.188v-.971zM28.139 178v-5.137h.883v.791h.044c.127-.337.498-.869 1.407-.869.112 0 .22.01.322.025v.805a2.308 2.308 0 00-.415-.03c-.903 0-1.353.543-1.353 1.241V178h-.888zm5.58-5.215c.723 0 1.285.318 1.49.84h.044v-2.642h.884V178h-.85v-.82h-.044c-.151.522-.79.893-1.543.893-1.196 0-1.972-.835-1.972-2.143v-.996c0-1.309.795-2.149 1.992-2.149zm.181.757c-.8 0-1.284.586-1.284 1.572v.625c0 .996.493 1.577 1.309 1.577.805 0 1.328-.57 1.328-1.494v-.888c0-.816-.571-1.392-1.353-1.392zm5.938 4.541c-1.382 0-2.197-.874-2.197-2.26v-.782c0-1.396.898-2.26 2.129-2.26 1.245 0 2.133.878 2.133 2.26v.62H38.52v.259c0 .796.459 1.416 1.313 1.416.6 0 1.006-.288 1.094-.606h.908c-.078.547-.698 1.353-1.997 1.353zm-1.318-3.062h2.504v-.083c0-.854-.498-1.416-1.25-1.416s-1.254.562-1.254 1.416v.083zM43.44 178v-5.137h.884v.791h.044c.127-.337.498-.869 1.406-.869.113 0 .22.01.323.025v.805a2.308 2.308 0 00-.415-.03c-.904 0-1.353.543-1.353 1.241V178h-.889zm3.594-3.662c0-1.089.913-1.558 1.914-1.558 1.109 0 1.841.572 1.841 1.436h-.82c-.03-.357-.362-.742-1.05-.742-.6 0-1.03.278-1.03.776 0 .61.693.688 1.274.796.962.166 1.758.434 1.758 1.435 0 1.021-.82 1.602-2.05 1.602-1.143 0-1.93-.513-1.93-1.43h.865c.068.453.385.742 1.103.742.81 0 1.143-.367 1.143-.811 0-.571-.572-.679-1.284-.82-.957-.196-1.734-.415-1.734-1.426zM14.55 242h-.816v-6.665h.884l2.173 5.107h.03l2.167-5.107h.88V242h-.816v-4.844h-.05l-1.835 4.258h-.732l-1.841-4.258h-.044V242zm8.52.083c-.996 0-1.68-.625-1.68-1.577 0-.899.626-1.509 1.807-1.509h1.343v-.508c0-.659-.415-.962-1.074-.962-.65 0-.923.254-1.026.61h-.854c.078-.868.762-1.357 1.91-1.357 1.059 0 1.933.454 1.933 1.714V242h-.85v-.684h-.039c-.249.415-.713.767-1.47.767zm.244-.742c.694 0 1.226-.469 1.226-1.099v-.571h-1.27c-.693 0-.976.347-.976.806 0 .595.488.864 1.02.864zm3.902.659v-5.137h.884v.791h.044c.127-.337.498-.869 1.406-.869.112 0 .22.01.322.025v.805a2.308 2.308 0 00-.415-.03c-.903 0-1.353.543-1.353 1.241V242h-.888zm4.736-1.89V242h-.884v-7.017h.884v4.19h.034l2.07-2.31h1.021l-2.012 2.232L35.21 242h-1.055l-1.738-2.363-.464.473zm6.294 1.973c-1.382 0-2.197-.874-2.197-2.26v-.782c0-1.396.898-2.26 2.129-2.26 1.245 0 2.134.878 2.134 2.26v.62h-3.384v.259c0 .796.459 1.416 1.313 1.416.6 0 1.006-.288 1.094-.606h.908c-.078.547-.698 1.353-1.997 1.353zm-1.318-3.062h2.505v-.083c0-.854-.498-1.416-1.25-1.416s-1.255.562-1.255 1.416v.083zm5.132-2.143v-1.29h.874v1.29h1.162v.718h-1.162v2.959c0 .605.205.761.83.761.127 0 .322-.014.405-.024V242c-.073.02-.435.044-.63.044-1.22 0-1.484-.469-1.484-1.484v-2.964h-.786v-.718h.79zm3.413-1.597c0-.356.268-.61.62-.61.37 0 .64.254.64.61 0 .352-.27.606-.64.606-.352 0-.62-.254-.62-.606zm.185 6.719v-5.137h.884V242h-.884zm2.744 0v-5.137h.874v.933h.05c.126-.405.483-1.016 1.557-1.016 1.035 0 1.743.562 1.743 1.714V242h-.884v-3.228c0-.805-.415-1.22-1.113-1.22-.903 0-1.343.698-1.343 1.587V242h-.884zm7.793 1.138c.904 0 1.348-.484 1.348-1.29v-.746h-.049c-.2.444-.727.805-1.44.805-1.138 0-2.027-.805-2.027-2.158v-.796c0-1.352.884-2.168 2.022-2.168.771 0 1.318.435 1.49.855h.043v-.777h.845v4.98c0 1.417-.948 2.037-2.261 2.037-1.313 0-1.958-.66-2.026-1.406h.898c.068.361.483.664 1.157.664zm.074-5.596c-.835 0-1.353.635-1.353 1.572v.484c0 .937.566 1.567 1.362 1.567.82 0 1.265-.679 1.265-1.411v-.776c0-.752-.469-1.436-1.274-1.436zM15.885 306h-.898v-6.665h.898V306zm1.792 0v-5.137h.874v.933h.05c.126-.405.482-1.016 1.557-1.016 1.035 0 1.743.562 1.743 1.714V306h-.884v-3.228c0-.805-.415-1.22-1.113-1.22-.904 0-1.343.698-1.343 1.587V306h-.884zm7.13 0L23 300.863h.976l1.265 4.229h.034l1.362-4.229h.943L25.72 306h-.914zm5.839.083c-1.382 0-2.197-.874-2.197-2.26v-.782c0-1.396.898-2.26 2.129-2.26 1.245 0 2.133.878 2.133 2.26v.62h-3.383v.259c0 .796.459 1.416 1.313 1.416.6 0 1.006-.288 1.094-.606h.908c-.078.547-.698 1.353-1.997 1.353zm-1.318-3.062h2.505v-.083c0-.854-.499-1.416-1.25-1.416-.752 0-1.255.562-1.255 1.416v.083zM34.17 306v-5.137h.874v.933h.05c.126-.405.483-1.016 1.557-1.016 1.035 0 1.743.562 1.743 1.714V306h-.884v-3.228c0-.805-.415-1.22-1.113-1.22-.903 0-1.343.698-1.343 1.587V306h-.884zm6.226-5.122v-1.29h.874v1.29h1.162v.718H41.27v2.959c0 .605.205.761.83.761.127 0 .322-.014.405-.024V306a4.57 4.57 0 01-.63.044c-1.22 0-1.484-.469-1.484-1.484v-2.964h-.786v-.718h.791zm5.45-.098c1.274 0 2.216.835 2.216 2.266v.762c0 1.45-.942 2.275-2.217 2.275-1.299 0-2.221-.81-2.221-2.275v-.757c0-1.387.937-2.27 2.221-2.27zm.004.752c-.825 0-1.343.655-1.343 1.592v.62c0 .952.484 1.592 1.343 1.592.85 0 1.323-.64 1.323-1.592v-.62c0-.937-.498-1.592-1.323-1.592zM49.625 306v-5.137h.884v.791h.044c.127-.337.498-.869 1.406-.869.113 0 .22.01.323.025v.805a2.308 2.308 0 00-.415-.03c-.904 0-1.353.543-1.353 1.241V306h-.889zm7.945-5.137c-.083.269-1.817 5.137-1.817 5.147l-.107.278c-.41 1.094-.928 1.514-1.821 1.514-.157 0-.381-.015-.508-.044v-.713c.078.01.273.024.376.024.576 0 .874-.23 1.03-.81l.054-.19-1.885-5.206h.982l1.357 4.273h.039l1.362-4.273h.938z"/>
  </g>
</svg>
