<svg xmlns="http://www.w3.org/2000/svg" width="72" height="320"><g fill="none" fill-rule="evenodd"><path fill="#7C3982" d="M0 63h72v1H0zm0 65h72v64H0z"/><circle cx="47" cy="141" r="8" fill="#C9356E"/><path fill="#FFF" d="M45.87 139.26h-1.06v-.06c0-1 .73-2 2.2-2 1.32 0 2.18.8 2.18 1.85 0 .87-.55 1.44-1.16 2.11l-1.64 1.85v.07h2.91v.92h-4.45v-.7l2.48-2.74c.36-.4.75-.84.75-1.42 0-.62-.47-1.03-1.1-1.03-.7 0-1.1.51-1.1 1.09v.06zM42 148.48a8.97 8.97 0 0 0 2 1V160a2 2 0 0 1-2 2H30a2 2 0 0 1-2-2v-15a2 2 0 0 1 2-2h2v2h-2v15h12v-11.52zm-2.89-3.14c.25.45.53.87.85 1.27a2 2 0 0 1 .04.39v1h-8v-1a2 2 0 0 1 2-2v-1a2 2 0 1 1 4 0v1c.41 0 .8.12 1.11.34zM46 85v2h-2v10h-5v-4a3 3 0 1 0-6 0v4h-5V87h-2v-2l10-8 10 8zm-5.5-70a5.5 5.5 0 0 1 5.5 5.5c0 5.72-6.5 10.44-10 12.85-3.5-2.41-10-7.13-10-12.85a5.5 5.5 0 0 1 5.5-5.5 5.49 5.49 0 0 1 4.5 2.34A5.49 5.49 0 0 1 40.5 15zM40 158h-8v-2h8v2zm0-6v2h-8v-2h8zm4 54a2 2 0 0 1 2 2v7.1a2 2 0 0 1-.59 1.4l-8.9 8.91a2 2 0 0 1-2.83 0l-7.09-7.08a2 2 0 0 1 0-2.83l8.9-8.9a2 2 0 0 1 1.42-.6H44zm-3 7a2 2 0 1 0 0-4 2 2 0 0 0 0 4zm5 58v6h-1v11a2 2 0 0 1-2 2H29a2 2 0 0 1-2-2v-11h-1v-6h20zm-18 2v2h16v-2H28zm15 15v-11H29v11h14zm-10-9h6a2 2 0 0 1-2 2h-2a2 2 0 0 1-2-2zM11.95 107.33h2.17c1.94 0 2.93 1.16 2.93 3.33s-.99 3.34-2.93 3.34h-2.17v-6.67zm.9.8v5.08h1.2c1.4 0 2.07-.84 2.07-2.54 0-1.7-.68-2.55-2.07-2.55h-1.2zm7.01 5.95c-1 0-1.68-.62-1.68-1.57 0-.9.63-1.51 1.81-1.51h1.34v-.51c0-.66-.41-.96-1.07-.96-.65 0-.92.25-1.03.6h-.85c.08-.86.76-1.35 1.91-1.35 1.06 0 1.93.45 1.93 1.71V114h-.85v-.68h-.04c-.25.41-.7.76-1.47.76zm.25-.74c.7 0 1.22-.47 1.22-1.1v-.57h-1.27c-.69 0-.97.35-.97.8 0 .6.49.87 1.02.87zm3.58-3c0-1.1.91-1.56 1.91-1.56 1.11 0 1.84.57 1.84 1.44h-.82c-.03-.36-.36-.75-1.05-.75-.6 0-1.03.28-1.03.78 0 .61.7.69 1.28.8.96.16 1.75.43 1.75 1.43 0 1.02-.82 1.6-2.05 1.6-1.14 0-1.93-.51-1.93-1.43h.87c.07.46.38.74 1.1.74.81 0 1.15-.36 1.15-.8 0-.58-.58-.69-1.29-.83-.96-.2-1.73-.41-1.73-1.42zm5.34 3.66v-7.02h.88v2.82h.05c.1-.36.52-1.02 1.59-1.02 1 0 1.72.57 1.72 1.72v3.5h-.88v-3.22c0-.8-.44-1.23-1.14-1.23-.88 0-1.34.7-1.34 1.59V114h-.88zm8.37.08c-.72 0-1.29-.31-1.52-.84h-.04v.76h-.85v-7.02h.88v2.7h.05c.15-.54.77-.9 1.5-.9 1.22 0 1.98.85 1.98 2.2v.9c0 1.35-.77 2.2-2 2.2zm-.17-.76c.8 0 1.28-.58 1.28-1.6v-.55c0-1.03-.48-1.63-1.3-1.63-.82 0-1.34.59-1.34 1.52v.85c0 .83.57 1.41 1.36 1.41zm5.63-4.54c1.27 0 2.22.83 2.22 2.27v.76c0 1.45-.95 2.27-2.22 2.27-1.3 0-2.22-.8-2.22-2.27v-.76c0-1.39.93-2.27 2.22-2.27zm0 .75c-.82 0-1.34.66-1.34 1.6v.61c0 .96.48 1.6 1.34 1.6.85 0 1.33-.64 1.33-1.6v-.62c0-.93-.5-1.59-1.33-1.59zm5.09 4.55c-1 0-1.68-.62-1.68-1.57 0-.9.62-1.51 1.8-1.51h1.35v-.51c0-.66-.42-.96-1.08-.96-.65 0-.92.25-1.02.6h-.86c.08-.86.76-1.35 1.91-1.35 1.06 0 1.93.45 1.93 1.71V114h-.85v-.68h-.03c-.25.41-.72.76-1.47.76zm.24-.74c.7 0 1.23-.47 1.23-1.1v-.57h-1.27c-.7 0-.98.35-.98.8 0 .6.49.87 1.02.87zm3.9.66v-5.14h.89v.8h.04c.13-.34.5-.88 1.4-.88.12 0 .23.01.33.03v.8a2.3 2.3 0 0 0-.42-.02c-.9 0-1.35.54-1.35 1.24V114h-.89zm5.58-5.21c.73 0 1.29.31 1.5.83h.04v-2.64h.88V114h-.85v-.82h-.04c-.16.52-.8.9-1.55.9-1.2 0-1.97-.84-1.97-2.15v-1c0-1.3.8-2.14 2-2.14zm.18.75c-.8 0-1.28.59-1.28 1.57v.63c0 1 .5 1.58 1.3 1.58.81 0 1.34-.57 1.34-1.5v-.89c0-.81-.58-1.39-1.36-1.39zM17.57 50h-.82v-6.67h.89l2.17 5.11h.03l2.17-5.1h.88V50h-.82v-4.84h-.05L20.2 49.4h-.74l-1.84-4.25h-.04V50zm11.24-5.14c-.08.27-1.82 5.14-1.82 5.15l-.1.28c-.41 1.1-.93 1.51-1.82 1.51a2.77 2.77 0 0 1-.51-.04v-.71l.37.02c.58 0 .88-.23 1.03-.81l.06-.2-1.89-5.2h.98l1.36 4.28h.04l1.36-4.28h.94zm3.06 3.45h.91c.13.63.73 1.04 1.6 1.04.92 0 1.5-.44 1.5-1.15 0-.53-.34-.84-1.09-1.03l-1.16-.3c-1-.26-1.57-.87-1.57-1.76 0-1.13.97-1.93 2.33-1.93 1.31 0 2.2.73 2.31 1.75h-.9c-.13-.6-.65-.97-1.43-.97-.84 0-1.4.45-1.4 1.1 0 .48.33.8.94.96l1.14.3c1.16.3 1.73.85 1.73 1.81 0 1.21-.96 2-2.5 2-1.4 0-2.32-.75-2.4-1.82zm6.65-3.43v-1.3h.87v1.3h1.16v.72H39.4v2.96c0 .6.2.76.83.76l.4-.03V50a4.57 4.57 0 0 1-.62.04c-1.22 0-1.49-.47-1.49-1.48V45.6h-.78v-.72h.79zm5.45-.1c1.27 0 2.21.83 2.21 2.27v.76c0 1.45-.94 2.27-2.21 2.27-1.3 0-2.22-.8-2.22-2.27v-.76c0-1.39.93-2.27 2.22-2.27zm0 .75c-.82 0-1.34.66-1.34 1.6v.61c0 .96.48 1.6 1.34 1.6.85 0 1.32-.64 1.32-1.6v-.62c0-.93-.5-1.59-1.32-1.59zM47.75 50v-5.14h.88v.8h.04c.13-.34.5-.88 1.41-.88.11 0 .22.01.32.03v.8a2.3 2.3 0 0 0-.41-.03c-.9 0-1.36.55-1.36 1.25V50h-.88zm5.78.08c-1.38 0-2.2-.87-2.2-2.26v-.78c0-1.4.9-2.26 2.13-2.26 1.25 0 2.14.88 2.14 2.26v.62h-3.4v.26c0 .8.46 1.42 1.32 1.42.6 0 1-.3 1.1-.61h.9c-.08.55-.7 1.35-2 1.35zm-1.32-3.06h2.5v-.08c0-.86-.49-1.42-1.24-1.42s-1.26.56-1.26 1.42v.08zM26.54 175.15c0 1.89-1.05 2.99-2.69 2.99-1.63 0-2.68-1.1-2.68-2.99v-.96c0-1.9 1.05-3 2.68-3 1.64 0 2.69 1.1 2.69 3v.96zm-.9-.97c0-1.47-.78-2.19-1.79-2.19s-1.78.72-1.78 2.2v.96c0 1.48.77 2.2 1.78 2.2s1.78-.72 1.78-2.2v-.97zm2.5 3.82v-5.14h.88v.8h.05c.12-.34.5-.88 1.4-.88.12 0 .22.01.33.03v.8a2.3 2.3 0 0 0-.42-.03c-.9 0-1.35.55-1.35 1.25V178h-.9zm5.58-5.21c.72 0 1.28.31 1.49.84h.04v-2.65h.89V178h-.85v-.82h-.05c-.15.52-.79.9-1.54.9-1.2 0-1.97-.84-1.97-2.15v-1c0-1.3.8-2.15 1.99-2.15zm.18.75c-.8 0-1.28.59-1.28 1.57v.63c0 1 .49 1.58 1.3 1.58s1.33-.57 1.33-1.5v-.89c0-.81-.57-1.39-1.35-1.39zm5.94 4.54c-1.38 0-2.2-.87-2.2-2.26v-.78c0-1.4.9-2.26 2.13-2.26 1.24 0 2.13.88 2.13 2.26v.62h-3.38v.26c0 .8.46 1.42 1.31 1.42.6 0 1-.3 1.1-.61h.9c-.07.55-.7 1.35-2 1.35zm-1.32-3.06h2.5v-.08c0-.86-.5-1.42-1.25-1.42s-1.25.56-1.25 1.42v.08zm4.92 2.98v-5.14h.88v.8h.05c.12-.34.5-.88 1.4-.88.12 0 .22.01.33.03v.8a2.3 2.3 0 0 0-.42-.03c-.9 0-1.35.55-1.35 1.25V178h-.89zm3.6-3.66c0-1.1.9-1.56 1.9-1.56 1.12 0 1.85.57 1.85 1.44h-.82c-.03-.36-.36-.75-1.05-.75-.6 0-1.03.28-1.03.78 0 .61.7.69 1.27.8.97.16 1.76.43 1.76 1.43 0 1.02-.82 1.6-2.05 1.6-1.14 0-1.93-.51-1.93-1.43h.87c.06.46.38.75 1.1.75.8 0 1.14-.37 1.14-.82 0-.57-.57-.68-1.28-.82-.96-.2-1.74-.41-1.74-1.42zM14.54 242h-.82v-6.67h.89l2.17 5.11h.03l2.17-5.1h.88V242h-.82v-4.84H19l-1.83 4.25h-.73l-1.85-4.25h-.04V242zm8.52.08c-1 0-1.68-.62-1.68-1.57 0-.9.63-1.51 1.8-1.51h1.35v-.51c0-.66-.41-.96-1.07-.96-.65 0-.93.25-1.03.6h-.85c.07-.86.76-1.35 1.9-1.35 1.07 0 1.94.45 1.94 1.71V242h-.85v-.68h-.04c-.25.41-.71.76-1.47.76zm.24-.74c.7 0 1.23-.47 1.23-1.1v-.57h-1.27c-.7 0-.98.35-.98.8 0 .6.5.87 1.02.87zm3.9.66v-5.14h.89v.8h.04c.13-.34.5-.88 1.41-.88.11 0 .22.01.32.03v.8a2.3 2.3 0 0 0-.41-.03c-.9 0-1.36.55-1.36 1.25V242h-.88zm4.74-1.89V242h-.88v-7.02h.88v4.2H32l2.07-2.32h1.02l-2.01 2.23L35.2 242h-1.05l-1.74-2.36-.47.47zm6.3 1.97c-1.39 0-2.2-.87-2.2-2.26v-.78c0-1.4.9-2.26 2.13-2.26 1.24 0 2.13.88 2.13 2.26v.62h-3.38v.26c0 .8.46 1.42 1.31 1.42.6 0 1-.3 1.1-.61h.9c-.07.55-.7 1.35-2 1.35zm-1.32-3.06h2.5v-.08c0-.86-.5-1.42-1.25-1.42s-1.25.56-1.25 1.42v.08zm5.13-2.14v-1.3h.87v1.3h1.17v.72h-1.17v2.96c0 .6.2.76.83.76l.4-.03v.71c-.06.02-.43.04-.62.04-1.22 0-1.48-.46-1.48-1.48v-2.96h-.8v-.72h.8zm3.41-1.6a.6.6 0 0 1 .62-.6c.37 0 .64.24.64.6 0 .35-.27.6-.64.6a.6.6 0 0 1-.62-.6zm.19 6.72v-5.14h.88V242h-.88zm2.74 0v-5.14h.88v.94h.05c.12-.4.48-1.02 1.55-1.02 1.04 0 1.75.56 1.75 1.71V242h-.89v-3.23c0-.8-.41-1.22-1.11-1.22-.9 0-1.34.7-1.34 1.59V242h-.89zm7.8 1.14c.9 0 1.34-.49 1.34-1.3v-.74h-.05c-.2.45-.72.8-1.44.8-1.13 0-2.02-.8-2.02-2.15v-.8c0-1.35.88-2.16 2.02-2.16.77 0 1.32.43 1.49.85h.04v-.78h.85v4.98c0 1.42-.95 2.04-2.26 2.04-1.32 0-1.96-.66-2.03-1.4h.9c.07.36.48.66 1.16.66zm.07-5.6c-.84 0-1.35.64-1.35 1.57v.49c0 .94.56 1.57 1.36 1.57.82 0 1.26-.68 1.26-1.42v-.77c0-.75-.47-1.44-1.27-1.44zM15.88 306h-.9v-6.67h.9V306zm1.8 0v-5.14h.87v.94h.05c.13-.4.48-1.02 1.56-1.02 1.03 0 1.74.56 1.74 1.71V306h-.88v-3.23c0-.8-.42-1.22-1.12-1.22-.9 0-1.34.7-1.34 1.59V306h-.88zm7.13 0L23 300.86h.98l1.26 4.23h.04l1.36-4.23h.94L25.72 306h-.91zm5.84.08c-1.39 0-2.2-.87-2.2-2.26v-.78c0-1.4.9-2.26 2.13-2.26 1.24 0 2.13.88 2.13 2.26v.62h-3.38v.26c0 .8.46 1.42 1.31 1.42.6 0 1-.3 1.1-.61h.9c-.07.55-.7 1.35-2 1.35zm-1.32-3.06h2.5v-.08c0-.86-.5-1.42-1.25-1.42s-1.25.56-1.25 1.42v.08zm4.84 2.98v-5.14h.87v.94h.05c.13-.4.49-1.02 1.56-1.02 1.04 0 1.74.56 1.74 1.71V306h-.88v-3.23c0-.8-.41-1.22-1.11-1.22-.9 0-1.35.7-1.35 1.59V306h-.88zm6.23-5.12v-1.3h.87v1.3h1.16v.72h-1.16v2.95c0 .61.2.77.83.77l.4-.03v.71a4.57 4.57 0 0 1-.62.04c-1.23 0-1.49-.47-1.49-1.48v-2.96h-.79v-.72h.8zm5.45-.1c1.27 0 2.21.83 2.21 2.27v.76c0 1.45-.94 2.27-2.21 2.27-1.3 0-2.23-.8-2.23-2.27v-.76c0-1.39.94-2.27 2.23-2.27zm0 .75c-.82 0-1.34.66-1.34 1.6v.61c0 .96.48 1.6 1.34 1.6.85 0 1.32-.64 1.32-1.6v-.62c0-.93-.5-1.59-1.32-1.59zm3.77 4.47v-5.14h.89v.8h.04c.13-.34.5-.88 1.4-.88.12 0 .23.01.33.03v.8a2.3 2.3 0 0 0-.41-.03c-.9 0-1.36.55-1.36 1.25V306h-.89zm7.95-5.14c-.08.27-1.82 5.14-1.82 5.15l-.1.28c-.41 1.1-.93 1.51-1.82 1.51-.16 0-.39-.01-.51-.04v-.71l.37.02c.58 0 .88-.23 1.03-.81l.06-.2-1.89-5.2h.98l1.36 4.28h.04l1.36-4.28h.94z"/></g></svg>