<svg xmlns="http://www.w3.org/2000/svg" width="72" height="193"><g fill="none" fill-rule="evenodd"><path fill="#7C3982" d="M0 128h72v1H0v-1zM0 0h72v1H0V0z"/><path fill="#FFF" d="M26 19c0-1.5.78-3.08 2-4 0 .84.69 2 2 2a3 3 0 0 1 3 3c0 .39-.08.75-.21 1.09.74.6 1.47 1.19 2.19 1.81l-2.08 2.08a77.25 77.25 0 0 1-1.8-2.2A3 3 0 0 1 30 23a4 4 0 0 1-4-4zm12.15 6.85a68.4 68.4 0 0 1 5.45 5.97l1.15 1.43-1.5 1.5-1.43-1.15a68.73 68.73 0 0 1-5.97-5.45L29 35l-2-2 10.5-10.5a4.45 4.45 0 0 1-.5-2 4.5 4.5 0 0 1 4.5-4.5c.72 0 1.4.19 2 .5L40 20l2 2 3.5-3.5a4.45 4.45 0 0 1 .5 2 4.5 4.5 0 0 1-4.5 4.5 4.47 4.47 0 0 1-2-.5l-1.35 1.35zM44 89c0 .57-.06 1.12-.17 1.66l1.83 1.6-2 3.47-2.32-.78a8 8 0 0 1-2.86 1.65L38 99h-4l-.48-2.4a7.97 7.97 0 0 1-2.86-1.65l-2.32.78-2-3.46 1.83-1.61a7.92 7.92 0 0 1 0-3.32l-1.83-1.6 2-3.47 2.32.78a7.97 7.97 0 0 1 2.86-1.65L34 79h4l.48 2.4a7.97 7.97 0 0 1 2.86 1.65l2.32-.78 2 3.46-1.83 1.61c.11.54.17 1.1.17 1.66zm-8 4a4 4 0 1 0 0-8 4 4 0 0 0 0 8zm8 59v2H31.83l5.58 5.59L36 161l-8-8 8-8 1.42 1.41-5.59 5.59H44zM26.9 51H26v-5.87h-2.01v-.8h4.91v.8h-2V51zm5.07-5.22c1.28 0 2.22.83 2.22 2.27v.76c0 1.45-.94 2.27-2.22 2.27-1.3 0-2.22-.8-2.22-2.27v-.76c0-1.39.94-2.27 2.22-2.27zm0 .75c-.82 0-1.33.66-1.33 1.6v.61c0 .96.48 1.6 1.34 1.6.85 0 1.32-.64 1.32-1.6v-.62c0-.93-.5-1.59-1.32-1.59zm5.68-.75c1.27 0 2.21.83 2.21 2.27v.76c0 1.45-.94 2.27-2.21 2.27-1.3 0-2.22-.8-2.22-2.27v-.76c0-1.39.93-2.27 2.22-2.27zm0 .75c-.82 0-1.34.66-1.34 1.6v.61c0 .96.48 1.6 1.34 1.6.85 0 1.33-.64 1.33-1.6v-.62c0-.93-.5-1.59-1.33-1.59zM41.38 51v-7.02h.88V51h-.88zm2.4-3.66c0-1.1.92-1.56 1.92-1.56 1.1 0 1.84.57 1.84 1.44h-.82c-.03-.36-.36-.75-1.05-.75-.6 0-1.03.28-1.03.78 0 .61.7.69 1.28.8.96.16 1.75.43 1.75 1.43 0 1.02-.82 1.6-2.05 1.6-1.14 0-1.93-.51-1.93-1.43h.87c.07.46.38.75 1.1.75.81 0 1.14-.37 1.14-.82 0-.57-.57-.67-1.28-.82-.96-.2-1.73-.41-1.73-1.42zM17.17 113.3h.9c.14.63.74 1.04 1.6 1.04.93 0 1.5-.44 1.5-1.15 0-.53-.33-.84-1.08-1.03l-1.16-.3c-1-.26-1.58-.88-1.58-1.76 0-1.13.98-1.93 2.33-1.93 1.32 0 2.22.73 2.32 1.75h-.9c-.13-.6-.65-.97-1.43-.97-.84 0-1.4.45-1.4 1.1 0 .48.32.8.94.96l1.13.3c1.17.3 1.74.85 1.74 1.81 0 1.21-.96 2-2.5 2-1.4 0-2.32-.75-2.41-1.82zm8.3 1.77c-1.38 0-2.2-.87-2.2-2.26v-.78c0-1.4.9-2.26 2.14-2.26 1.24 0 2.13.88 2.13 2.26v.62h-3.38v.26c0 .8.46 1.42 1.31 1.42.6 0 1-.3 1.1-.61h.9c-.08.55-.7 1.35-2 1.35zm-1.31-3.06h2.5v-.08c0-.86-.5-1.42-1.25-1.42s-1.25.56-1.25 1.42v.08zm5.13-2.14v-1.3h.87v1.3h1.16v.72h-1.16v2.95c0 .6.2.77.83.77l.4-.03v.71a4.57 4.57 0 0 1-.62.04c-1.22 0-1.49-.47-1.49-1.48v-2.96h-.78v-.72h.79zm3.76 0v-1.3h.88v1.3h1.16v.72h-1.16v2.95c0 .6.2.77.83.77l.4-.03v.71a4.6 4.6 0 0 1-.63.04c-1.22 0-1.48-.47-1.48-1.48v-2.96h-.79v-.72h.8zm3.42-1.6a.6.6 0 0 1 .62-.61c.37 0 .64.25.64.61 0 .35-.27.6-.64.6a.6.6 0 0 1-.62-.6zm.18 6.72v-5.14h.89V115h-.89zm2.75 0v-5.14h.87v.94h.05c.13-.41.48-1.02 1.56-1.02 1.03 0 1.74.56 1.74 1.71V115h-.88v-3.23c0-.8-.42-1.22-1.12-1.22-.9 0-1.34.7-1.34 1.59V115h-.88zm7.79 1.14c.9 0 1.35-.49 1.35-1.3v-.74h-.05c-.2.45-.73.8-1.44.8-1.14 0-2.03-.8-2.03-2.15v-.8c0-1.35.89-2.17 2.02-2.17.77 0 1.32.44 1.5.86h.04v-.78h.84v4.98c0 1.42-.95 2.04-2.26 2.04-1.31 0-1.96-.66-2.03-1.4h.9c.07.35.48.66 1.16.66zm.07-5.6c-.83 0-1.35.64-1.35 1.57v.49c0 .93.57 1.56 1.36 1.56.82 0 1.27-.67 1.27-1.4v-.78c0-.76-.47-1.44-1.28-1.44zm3.57.8c0-1.1.91-1.56 1.91-1.56 1.1 0 1.84.57 1.84 1.44h-.82c-.03-.36-.36-.75-1.05-.75-.6 0-1.03.28-1.03.78 0 .6.7.69 1.28.8.96.16 1.75.43 1.75 1.43 0 1.02-.82 1.6-2.05 1.6-1.14 0-1.93-.51-1.93-1.43h.87c.07.45.38.74 1.1.74.81 0 1.14-.36 1.14-.8 0-.58-.57-.69-1.28-.83-.96-.2-1.73-.41-1.73-1.42zM15.7 179h-.8l-1.83-6.67h1.03l1.21 5.3h.05l1.3-5.3h.89l1.3 5.3h.05l1.21-5.3h1.03L19.33 179h-.8l-1.4-5.21h-.03L15.7 179zm9.01-6.67c1.3 0 2.14.86 2.14 2.1s-.84 2.08-2.14 2.08h-1.55V179h-.9v-6.67h2.45zm1.21 2.1c0-.83-.47-1.3-1.29-1.3h-1.47v2.6h1.47c.82 0 1.3-.48 1.3-1.3zm4.75 4.57h-.93l2.36-6.67h.93L35.4 179h-.95l-.66-1.97h-2.45l-.66 1.97zm1.9-5.63h-.03l-.98 2.94h2l-.99-2.94zm5.68.42c.73 0 1.29.31 1.5.84h.04v-2.65h.88V179h-.85v-.82h-.04c-.16.52-.8.9-1.55.9-1.2 0-1.97-.84-1.97-2.15v-1c0-1.3.8-2.15 2-2.15zm.18.75c-.8 0-1.28.59-1.28 1.57v.63c0 1 .5 1.58 1.3 1.58.81 0 1.34-.57 1.34-1.5v-.89c0-.81-.57-1.39-1.36-1.39zm4 4.46v-5.14h.87v.82h.05c.11-.36.44-.9 1.39-.9.77 0 1.26.41 1.42.97h.04c.21-.5.7-.97 1.57-.97 1.05 0 1.69.58 1.69 1.6V179h-.89v-3.36c0-.66-.36-1.1-1.06-1.1-.64 0-1.13.5-1.13 1.2V179h-.88v-3.33c0-.67-.41-1.12-1.09-1.12-.64 0-1.1.48-1.1 1.18V179h-.89zm8.68-6.72a.6.6 0 0 1 .62-.6c.37 0 .64.24.64.6 0 .35-.27.6-.64.6a.6.6 0 0 1-.62-.6zm.18 6.72v-5.14h.89V179h-.88zm2.75 0v-5.14h.87v.94h.05c.13-.4.49-1.02 1.56-1.02 1.03 0 1.74.56 1.74 1.71V179h-.88v-3.23c0-.8-.42-1.22-1.11-1.22-.9 0-1.35.7-1.35 1.59V179h-.88z"/></g></svg>